<?xml version="1.0" standalone="no"?>
<!DOCTYPE svg PUBLIC "-//W3C//DTD SVG 20010904//EN"
 "http://www.w3.org/TR/2001/REC-SVG-20010904/DTD/svg10.dtd">
<svg version="1.0" xmlns="http://www.w3.org/2000/svg"
 width="270.000000pt" height="270.000000pt" viewBox="0 0 270.000000 270.000000"
 preserveAspectRatio="xMidYMid meet">
<metadata>
Created by potrace 1.11, written by Peter Selinger 2001-2013
</metadata>
<g transform="translate(0.000000,270.000000) scale(0.100000,-0.100000)"
fill="#000000" stroke="none">
<path d="M1819 2570 c-145 -23 -264 -103 -322 -216 -67 -132 -30 -390 74 -508
71 -80 175 -109 259 -73 83 35 158 145 169 247 l6 55 18 -43 c26 -65 37 -166
27 -247 -32 -256 -201 -413 -403 -376 -137 25 -264 96 -521 291 -105 79 -222
161 -259 182 -220 121 -517 186 -735 160 -125 -15 -132 -17 -132 -54 0 -23 4
-28 18 -24 106 32 289 39 422 17 214 -37 338 -112 284 -172 -12 -13 -30 -19
-60 -19 -34 0 -51 7 -85 36 -41 34 -47 36 -100 32 -44 -3 -80 -16 -160 -57
-134 -69 -154 -75 -189 -54 -34 20 -68 12 -103 -23 l-27 -27 0 -238 0 -238 81
54 c196 131 453 178 632 116 125 -44 175 -80 363 -261 102 -99 206 -190 238
-209 87 -52 201 -82 333 -88 243 -12 457 59 613 204 101 93 165 205 232 403
l28 85 -4 -65 c-13 -181 -69 -352 -183 -557 l-34 -62 -27 30 c-29 32 -88 47
-137 35 -37 -9 -115 -84 -136 -131 -25 -55 -24 -88 6 -123 l25 -30 -34 -26
c-42 -31 -107 -58 -228 -92 -51 -14 -102 -31 -114 -39 -19 -12 -21 -10 -32 32
-35 131 -277 253 -503 253 -97 0 -131 -9 -170 -46 l-26 -25 -26 35 c-31 40
-141 116 -168 116 -23 0 -23 -1 -4 43 48 115 -18 250 -145 298 -78 30 -198 36
-293 15 -85 -19 -131 -46 -164 -95 -39 -58 -28 -163 23 -222 12 -13 8 -25 -32
-90 -25 -41 -55 -85 -67 -99 l-22 -25 24 20 c13 11 44 52 69 90 25 39 47 72
49 74 1 2 25 -8 51 -22 94 -51 240 -70 352 -46 74 16 57 19 -34 7 -140 -20
-293 20 -371 97 -21 22 -37 51 -45 85 -34 142 91 228 319 218 139 -6 219 -45
261 -128 39 -79 32 -179 -16 -227 -26 -25 -32 -76 -13 -103 7 -11 9 -4 4 25
-5 33 -2 44 14 59 19 18 21 18 65 -4 60 -28 144 -105 153 -138 5 -20 0 -30
-28 -54 -33 -28 -33 -28 -6 -18 38 13 37 14 37 -15 0 -74 83 -161 215 -225 92
-44 232 -81 302 -79 46 2 45 2 -17 9 -210 25 -421 135 -471 244 -35 77 -14
157 48 190 101 52 364 6 507 -89 84 -55 116 -110 116 -194 0 -48 -6 -76 -20
-101 l-21 -35 26 28 c14 15 25 35 25 43 0 17 5 17 33 3 21 -11 21 -11 -2 14
-23 25 -23 27 -7 51 11 18 34 30 74 41 31 8 101 29 155 46 53 18 100 29 103
26 8 -8 -13 -44 -53 -88 -32 -35 -35 -50 -7 -31 25 16 84 105 84 126 0 27 46
56 92 56 18 0 51 9 73 19 41 18 125 101 125 122 0 7 -13 -6 -30 -29 -31 -44
-98 -88 -147 -98 -35 -7 -87 16 -103 45 -37 70 52 202 152 226 36 9 95 -20
121 -61 l22 -33 62 117 c106 199 156 361 172 563 33 407 -118 857 -339 1012
-95 66 -250 97 -381 77z m246 -54 c14 -9 25 -25 25 -36 0 -33 -30 -40 -126
-29 -193 23 -311 -19 -342 -121 -6 -19 -16 -73 -22 -120 -12 -88 -19 -108 -44
-129 -12 -10 -19 -8 -36 9 -20 20 -22 30 -18 109 5 101 28 159 89 220 62 62
125 87 289 115 52 9 160 -1 185 -18z"/>
<path d="M326 962 c-37 -9 -55 -35 -40 -59 20 -33 67 -48 161 -51 85 -4 91 -3
98 17 10 32 -3 60 -36 77 -33 17 -139 26 -183 16z"/>
<path d="M2147 741 c-33 -31 -39 -42 -30 -52 15 -15 62 3 93 37 19 19 21 26
10 39 -18 22 -26 19 -73 -24z"/>
<path d="M700 700 c0 -17 48 -87 71 -103 17 -12 27 -13 45 -5 13 6 24 14 24
18 0 10 -73 76 -97 89 -27 14 -43 14 -43 1z"/>
<path d="M1104 516 c-19 -14 -19 -15 2 -43 27 -36 111 -79 197 -100 63 -15 69
-15 85 0 43 44 -38 111 -170 142 -82 19 -89 19 -114 1z"/>
<path d="M1771 391 c-25 -3 -46 -12 -49 -18 -6 -20 68 -15 108 7 32 17 33 19
10 18 -14 -1 -45 -4 -69 -7z"/>
</g>
</svg>
