<?xml version="1.0" encoding="utf-8"?>
<!-- Generator: Adobe Illustrator 15.0.0, SVG Export Plug-In . SVG Version: 6.00 Build 0)  -->
<!DOCTYPE svg PUBLIC "-//W3C//DTD SVG 1.1//EN" "http://www.w3.org/Graphics/SVG/1.1/DTD/svg11.dtd">
<svg version="1.1" id="Capa_1" xmlns="http://www.w3.org/2000/svg" xmlns:xlink="http://www.w3.org/1999/xlink" x="0px" y="0px"
	 width="200px" height="200px" viewBox="0 0 200 200" enable-background="new 0 0 200 200" xml:space="preserve">
<g id="postSvg">
	<g id="postsmall">
		<path fill="#E1DCCD" d="M47.214,76.144h54.11v33.831h-54.11V76.144z"/>
		<path fill="#D1CDBF" d="M58.654,76.144h42.67v33.831h-42.67V76.144z"/>
		<path fill="#86716A" d="M101.305,78.544l-26.97,12.25l-27-12.25v3.699l26.97,12.25v0.021l0.01-0.01l0.02,0.01v-0.021l26.96-12.229
			L101.305,78.544z"/>
	</g>
	<g id="postbig">
		<path fill="#E1DCCD" d="M63.215,69.975h63.971v39.99H63.215V69.975z"/>
		<path fill="#D1CDBF" d="M76.735,69.975h50.44v39.99h-50.44V69.975z"/>
		<path fill="#86716A" d="M127.154,72.825l-31.879,14.48l-31.92-14.479v4.367l31.88,14.48v0.02l0.02-0.01l0.02,0.01v-0.02
			l31.879-14.46V72.825L127.154,72.825z"/>
	</g>
	<g id="close">
		<path fill="#BF5B5E" d="M24.106,112.977c0,1.729,1.41,3.141,3.139,3.141h58.778c1.729,0,3.139-1.398,3.139-3.141
			c0-1.73-1.41-3.142-3.139-3.142H27.246C25.516,109.835,24.106,111.245,24.106,112.977z"/>
	</g>
	<g id="post">
		<path fill="#E1E5E6" d="M128.084,127.553l8.159-8.891v81.312h-8.159V127.553z"/>
		<path fill="#B5B9BD" d="M128.084,199.973h-5.021v-83.93h13.181v2.619l-8.159,8.891V199.973L128.084,199.973z"/>
		<path fill="#BF5B5E" d="M83.494,54.232c0-1.729,1.41-3.142,3.14-3.142s3.14,1.41,3.14,3.142v0.5h78.591
			c4.16,0,7.529,3.37,7.529,7.528v53.981H83.444L83.494,54.232z"/>
		<path fill="#AB5154" d="M80.574,104.912c0-3.379,2.74-6.119,6.119-6.119c1.311,0,2.521,0.41,3.51,1.109V67.801h85.679v48.441
			H80.583v-11.02l0,0C80.584,105.123,80.574,105.021,80.574,104.912z"/>
		<path fill="#304C54" d="M86.704,111.021c1.105,0,2,0.896,2,2c0,1.104-0.895,2-2,2c-1.104,0-2-0.896-2-2
			C84.704,111.918,85.6,111.021,86.704,111.021z"/>
	</g>
	<g id="mark">
		<path fill="#46646E" d="M110.555,76.914h44.6v1.66v0.86v22.371c0,1.391-1.118,2.51-2.51,2.51h-10.979
			c-1.39,0-2.511-1.119-2.511-2.51V79.424h-28.59c-0.551,1.989-2.369,3.45-4.529,3.45c-2.602,0-4.71-2.11-4.71-4.711
			c0-2.602,2.108-4.709,4.71-4.709C108.195,73.465,110.006,74.925,110.555,76.914z"/>
		<path fill="#304C54" d="M106.025,75.875c1.27,0,2.299,1.027,2.299,2.3c0,1.27-1.029,2.3-2.299,2.3c-1.271,0-2.301-1.029-2.301-2.3
			C103.725,76.903,104.756,75.875,106.025,75.875z"/>
	</g>
	<g id="plant">
		<path fill="#519A00" d="M123.064,147.4c-0.185-0.062-0.597-0.159-0.676-0.215c-0.089-0.076-0.084-0.064-0.101-0.098
			c-0.062-0.058,0.021-0.594,0.297-1.104c0.539-1.057,1.457-2.146,2.397-3.164c0.957-1.027,1.986-2.002,3.058-3.014
			c1.127-1.062,2.133-2.267,2.976-3.574c1.705-2.631,2.594-5.551,3.545-8.258c0.242-0.688,0.479-1.348,0.739-2.025
			c0.24-0.637,0.527-1.24,0.863-1.826c0.668-1.176,1.526-2.244,2.535-3.177c2.016-1.869,4.571-3.181,7.268-4.011
			c2.703-0.832,5.568-1.203,8.425-1.16c2.868,0.045,5.688,0.541,8.412,1.543c1.368,0.474,2.727,0.982,4.041,1.576
			c0.657,0.297,1.305,0.614,1.918,0.98c0.596,0.368,1.231,0.77,1.524,1.352l0.358-0.176c-0.354-0.748-1.022-1.173-1.625-1.59
			c-0.623-0.406-1.271-0.76-1.93-1.089c-1.314-0.657-2.666-1.229-4.029-1.765c-2.707-1.125-5.678-1.783-8.631-1.939
			c-2.965-0.165-5.965,0.096-8.867,0.857c-2.893,0.77-5.717,2.055-8.069,4.062c-1.177,0.998-2.214,2.182-3.041,3.51
			c-0.414,0.662-0.771,1.369-1.065,2.086c-0.283,0.674-0.562,1.375-0.822,2.057c-1.051,2.744-1.984,5.438-3.543,7.668
			c-0.769,1.119-1.676,2.142-2.695,3.044c-1.076,0.959-2.199,1.953-3.26,3.026c-1.058,1.09-2.104,2.196-2.953,3.709
			c-0.207,0.385-0.398,0.808-0.537,1.304c-0.133,0.495-0.221,1.101-0.062,1.778c0.146,0.687,0.606,1.312,1.088,1.688
			c0.481,0.377,0.969,0.589,1.42,0.74l0.104,0.036l0.938,0.207V147.4z M136.244,152.066c0,0,0,2.969-0.779,4.625
			c-0.699,1.488-2.279,2.848-4.115,3.955c-1.791,1.033-4.055,1.98-6.152,3.375c-1.055,0.711-2.131,1.531-3.043,2.742
			c-0.448,0.604-0.846,1.322-1.084,2.137c-0.834,2.845,1.996,4.812,1.996,4.812v-3.229c0-1.336,3.375-2.784,4.224-3.373
			c0.854-0.592,1.808-1.135,2.801-1.67c1.002-0.547,2.021-1.051,3.14-1.731c1.049-0.665,2.069-1.39,3.041-2.304
			c0.961-0.903,1.879-2.057,2.408-3.452c0.545-1.39,0.577-2.875,0.483-4.192c-0.177-2.51-2.422-5.066-2.916-5.126L136.244,152.066
			L136.244,152.066z M136.244,174.941c0,3.238-3.547,6.453-4.545,7.271c-1.01,0.823-2.09,1.585-3.251,2.409
			c-2.329,1.686-4.72,3.506-6.796,5.966c-1.027,1.229-1.967,2.638-2.65,4.233c-0.688,1.591-1.094,3.367-1.15,5.135l6,0.045
			c-0.092-2.064,0.646-4.104,2.072-6.052c1.414-1.943,3.387-3.729,5.488-5.461c2.146-1.794,4.561-3.616,6.418-6.457
			c0.902-1.403,1.607-3.319,1.389-5.315c-0.307-2.781-2.975-4.896-2.975-4.896V174.941z M126.963,198.743
			c0.047-0.323,0.148-0.647,0.271-0.976c0.119-0.317,0.262-0.637,0.391-0.953c0.262-0.642,0.51-1.28,0.883-1.92
			c0.383-0.641,0.756-1.278,1.273-1.918c0.275,0.629,0.414,1.258,0.566,1.885c0.146,0.628,0.174,1.257,0.229,1.883
			c0.053,0.625,0.158,1.247,0.076,1.869c-0.053,0.466-0.148,0.932-0.285,1.387h-3.48
			C126.861,199.576,126.898,199.16,126.963,198.743z"/>
		<path fill="#4EB317" d="M138.537,154.003c0.438-2.603,1.161-4.116,3.822-4.978c1.281-0.412,2.475-0.43,3.75-0.432
			c1.129-0.002,3.279-0.033,3.752-1.1c-0.125,0.881-0.295,2.525-0.734,3.561c-0.451,1.06-1.479,1.857-2.432,2.371
			C142.281,155.798,138.537,154.003,138.537,154.003z M133.379,129.393c-0.01,1.83,0.307,2.951,2.021,3.854
			c0.828,0.436,1.643,0.588,2.514,0.736c0.771,0.137,2.236,0.414,2.436,1.195c0.019-0.613,0.096-1.76-0.082-2.521
			c-0.184-0.774-0.789-1.442-1.379-1.905C136.148,128.607,133.379,129.393,133.379,129.393z"/>
		<path fill="#4EC517" d="M138.586,153.814c1.41-0.11,2.295,0.068,3.09,1.344c0.381,0.613,0.545,1.232,0.711,1.896
			c0.148,0.588,0.445,1.703,1.062,1.812c-0.474,0.047-1.354,0.174-1.949,0.079c-0.608-0.097-1.16-0.524-1.55-0.957
			C138.139,155.997,138.586,153.814,138.586,153.814z M117.111,143.622c-0.523-0.246-1.197-0.435-1.799-0.289
			c-0.588,0.142-1.353,0.595-1.771,0.815c0.608-0.135,1.312,0.783,1.672,1.271c0.408,0.551,0.798,1.061,1.384,1.479
			c1.221,0.873,2.106,0.701,3.366,0.062C119.965,146.96,119.545,144.771,117.111,143.622z M133.402,129.924
			c0.58,0.188,0.94,0.225,1.264-0.139c0.152-0.176,0.219-0.373,0.282-0.588c0.06-0.188,0.175-0.549,0.429-0.521
			c-0.193-0.066-0.557-0.205-0.803-0.236c-0.248-0.031-0.475,0.062-0.633,0.168C133.209,129.111,133.402,129.924,133.402,129.924z"
			/>
		<path fill="#51AE00" d="M119.875,199.977h-4.531c0.082-0.809,0.121-1.52-0.037-2.16c-0.139-0.666-0.522-1.408-1.062-2.271
			l-0.832-1.342l-0.399-0.713c-0.103-0.224-0.175-0.392-0.306-0.604c-0.483-0.861-1.146-1.721-1.728-2.677
			c1.105,0.251,2.105,0.647,3.133,1.218c0.24,0.144,0.527,0.352,0.753,0.534l0.602,0.478l1.216,1.01
			c0.812,0.703,1.735,1.619,2.352,2.9C119.598,197.538,119.834,198.814,119.875,199.977z M128.203,197.383
			c-0.055-0.671-0.166-1.342-0.303-2.015c-0.135-0.656-0.289-1.313-0.437-1.974c-0.289-1.323-0.563-2.645-0.979-3.967
			c-0.424-1.322-0.838-2.644-1.416-3.962c-0.307,1.3-0.461,2.599-0.629,3.896c-0.162,1.296-0.193,2.598-0.252,3.891
			c-0.062,1.292-0.179,2.576-0.09,3.861c0.061,0.963,0.168,1.922,0.319,2.861h3.869
			C128.316,199.104,128.273,198.245,128.203,197.383z M137.645,193.424c-1.381,0.059-2.803,0.299-4.264,0.811
			c-0.73,0.259-1.482,0.6-2.215,1.111c-0.396,0.285-0.773,0.646-1.107,1.062c-0.271,0.339-0.518,0.711-0.709,1.121
			c-0.36,0.785-0.514,1.646-0.504,2.445h3.963c0.033-0.307,0.09-0.584,0.191-0.813c0.232-0.59,0.803-1.384,1.779-2.041
			c0.963-0.654,2.145-1.147,3.363-1.741c1.239-0.621,2.459-1.238,3.645-2.013C140.379,193.293,139.006,193.374,137.645,193.424z"/>
	</g>
</g>
<g id="locationSvg">
	<g id="map">
		<path fill="#DCDCDC" d="M170.893,164.766l-53.936,12.715l-39.802-16.11L32.36,175.654V56.593l44.795,10.512l40.772-10.384
			l52.966,13.78V164.766L170.893,164.766z"/>
		<path fill="#E0E6E7" d="M170.893,164.766l-47.062-13.779l-46.675,10.383l-39.673-10.381V50.819l39.673,10.383l46.675-10.383
			l47.062,13.78V164.766z"/>
		<path fill="#B5BABF" d="M123.829,150.986l-46.675,10.382V61.202l46.675-10.383V150.986z"/>
		<path fill="#E4CB55" d="M66.982,112.95l-23.278,5.879V59.812l5.406,1.664L66.982,112.95z M56.617,63.787l16.277,47.027
			l4.261-0.979V68.791L56.617,63.787z M163.891,78.788v-8.747l-40.062-11.916v21.364L163.891,78.788z"/>
		<path fill="#D3BA44" d="M123.829,79.489l-46.675,30.348V68.791l46.675-10.664V79.489z"/>
		<path fill="#8FAB5C" d="M77.154,121.344v32.377l-33.45-8.136v-16.092L77.154,121.344z M163.891,154.973V90.294l-40.062,0.702
			v52.061L163.891,154.973z"/>
		<path fill="#7E9A4B" d="M77.154,121.344l46.675-30.348v52.061l-46.675,10.664V121.344z"/>
	</g>
	<g id="location">
		<path fill="#BF5B5E" d="M100.291,97.463L80.927,63.05c-2.252-3.548-3.575-7.745-3.575-12.262c0-12.669,10.27-22.938,22.939-22.938
			c12.67,0,22.939,10.27,22.939,22.938c0,4.516-1.323,8.714-3.574,12.262L100.291,97.463z"/>
		<path fill="#AB5154" d="M123.23,50.788c0,4.516-1.323,8.714-3.574,12.262l-19.365,34.413V27.85
			C112.961,27.85,123.23,38.119,123.23,50.788z"/>
		<path fill="#FFFFFF" d="M100.291,63.818c-7.343,0-13.297-5.952-13.297-13.296c0-7.344,5.953-13.295,13.297-13.295
			c7.342,0,13.297,5.952,13.297,13.295C113.588,57.865,107.633,63.818,100.291,63.818z"/>
	</g>
</g>
</svg>
