<?xml version="1.0" encoding="utf-8"?>
<!-- Generator: Adobe Illustrator 15.0.0, SVG Export Plug-In . SVG Version: 6.00 Build 0)  -->
<!DOCTYPE svg PUBLIC "-//W3C//DTD SVG 1.1//EN" "http://www.w3.org/Graphics/SVG/1.1/DTD/svg11.dtd">
<svg version="1.1" id="cachalote" xmlns="http://www.w3.org/2000/svg" xmlns:xlink="http://www.w3.org/1999/xlink" x="0px" y="0px"
	 width="400px" height="125px" viewBox="-199.5 150.5 400 125" enable-background="new -199.5 150.5 400 125" xml:space="preserve">
<symbol  id="cachalote-cuerpo" viewBox="-188.197 -58.386 376.393 116.772">
	<path fill="#565556" d="M-185.285,39.776c3.123,1.802,4.496,5.833,16.496,5.833c5.413,0,9.068,1.066,12.669,1.333
		c4.382,0.312,8.617-0.106,14.998,0.667c11.002,1.333,31.333,1,42.333,3.667s11.601,6.38,17.278,5.442
		c3.724-0.607,10.486-5.778,20.393-6.057c9.679-0.269,20.998-1.556,32.329-2.617c12.874-1.207,30.079,1.418,41.169,3.562
		c14.666,2.833,16.002,7.344,21.333,6.333c2.405-0.456,4.169-2,5.502-5.167c1.129-2.688,4.667-3.148,6.5-3.5
		c3.667-0.703,4.162-3,6.162-2.667s6.146,0.396,7.338-0.499c1.333-1,0.996-4.834,3.329-4.834s3.333-0.229,5.333-2.279
		s6.333-3.055,9-3.055s3.334,1,5.334,0s4.332-2.666,6.666-2.333s6.104,0.552,8.005,0.834c3.671,0.544,4.996-3.5,7.329-3.834
		s3.666-3.667,5.666-4.333s3.333-2.333,6-3.667s5.668-4,8.334-4.667s3.667-1.333,6-3.333s3.837-4.666,7.171-3.666
		s18.431,16.51,23.333,20.167c4.424,3.298,12.283,7.4,13.667,1.333c0.231-1.021-4.995-3.499-5.334-9.333
		c-0.178-3.068-0.166-22.5-2.171-26.168c2.667-3,7.342-13,7.338-17s3.301-19.686,5.329-24c2.505-5.332,4.672-6.666,7-6.666
		c2.688,0-0.661-9.166-11.884-5.795c-7.286,2.188-14.975,12.348-20.449,19.795c-6.495,8.835-18.324,29.725-23.691,29.304
		c-5.971-0.469-14.52-3.524-19.853-6.524s-10.118-5.604-12.118-7.271s-9.318-2.146-13.672-3.166
		c-5.661-1.334-14.988-6.668-19.661-10.334c-2.825-2.219-9.366-1.758-14.339-3.334c-6.829-2.166-13.666-9-18.666-9.666
		s-7.666,0.334-13-2s-37.333-9.188-47.667-7.926c-10.334,1.26-48.667,3.926-58,5.926s-40.461,6.326-48.164,5.666
		c-11.369-0.979-35.053-2.398-37.178-2.195c-2.362,0.229-5.222,2.188-3.761,3.854c0.904,1.021,12.109,2.26,17.372,3.262
		c15.931,3.031,20.231,5.379,26.064,7.421c6.667,2.334,9.669,5.166,9.669,5.166s-16.283,1.491-32.003,1.168
		c-16.164-0.334-21.997-2.5-23.795-0.44c-2.298,2.638-5.537,8.946-6.702,12.44c-1.167,3.5-0.208,9.333-1.189,14
		s-0.814,18.379-1.684,23.833C-188.504,26.716-188.556,37.888-185.285,39.776z"/>
	<path fill="#545353" d="M104.354-5.698c-15.709-2.938-33.164-6.692-49.357-5.914c-9.107,0.441-18.76,2.211-28.146,1.4
		c-8.578-0.74-17.203-3.531-25.966-4.012c-8.647-0.479-15.723,3.1-24,3.5c-8.255,0.396-16.474-3.271-24.418-5.448
		c1.056-0.464,2.104-1.206,3.066-2.112c1.532-1.395,2.929-3.172,4.664-4.678c1.744-1.497,4.091-2.2,6.025-3.587
		c0.965-0.685,1.806-1.61,2.208-2.729c0.421-1.098,0.445-2.312,0.13-3.37c-0.65-2.152-2.256-3.644-3.727-4.589
		c-1.495-0.979-3.043-1.321-4.171-1.393c-2.846-0.21-5.505,0.837-8.076,1.646c-0.654,0.223-1.283,0.357-1.965,0.601
		c-0.661,0.248-1.256,0.582-1.873,0.801c-0.604,0.215-1.292,0.307-1.959,0.486c-0.67,0.152-1.365,0.481-1.914,0.869l-3.438,2.196
		l-1.718,1.103c-0.564,0.341-1.2,0.778-1.654,1.322c-0.953,1.084-1.479,2.405-2.032,3.646c-0.546,1.245-1.141,2.471-2.06,3.426
		c-0.256,0.271-0.58,0.562-0.985,0.853c-0.02,0.015-0.042,0.022-0.062,0.042c-2.491-0.653-4.996-1.229-7.542-1.608
		c-7.345-1.104-18.554,1.791-25-0.975l-4.5-2c-4.186,1.854-3.216-2.104-1.822-3.353c2.041-1.817,7.956-1.526,6.458-4.789
		c-1.27-2.766-12.012-3.688-15.635-3.858c-5.863-0.283-21.779-3.607-34.229-5.529c-9.414-1.453-16.902-1.312-16.246-2.971
		c0.638-1.611,26.137,3.018,42.21,1.893c3.577-0.251,9.794,0.581,13.263,0.87c4.433,0.369,7.096,0.001,11.001-0.87
		c3.833-0.854,7.455,0.562,11.501,0.107c3.607-0.402,6.86-1.979,10.502-2.5c8.277-1.191,16.685-1.705,24.998-2.979
		c16.714-2.554,36.717-1.041,53.5,1.479c7.937,1.188,15.998,4.365,24,5.998c7.88,1.604,14.729,4.271,22.113,7.375
		c8.055,3.389,15.978,4.593,23.991,8.014c7.033,2.998,11.479,5.979,19.312,6.396c8.796,0.467,16.267,6.782,25.479,11.603
		C122.559-6.058,112.73-4.13,104.354-5.698z"/>
	<path fill="#FFFFFF" d="M-93.937-10.349c0.52,0,0.941-0.423,0.941-0.941s-0.421-0.938-0.941-0.938s-0.941,0.422-0.941,0.938
		C-94.877-10.771-94.456-10.349-93.937-10.349z"/>
	<path fill="#504F4F" d="M-92.199-11.077c-0.375,0.187-0.679,0.401-1.087,0.635c-0.546,0.285-1.235,0.158-1.669-0.196
		c-0.188-0.146-0.34-0.334-0.497-0.482c-0.055-0.054-0.183-0.354-0.184-0.354c0,0,0.742,0.439,0.92,0.513
		c0.134,0.044,0.238,0.071,0.347,0.101c-0.016-0.047-0.03-0.096-0.03-0.146c0-0.257,0.208-0.466,0.465-0.466
		c0.257,0,0.465,0.209,0.465,0.466c0,0.058-0.014,0.104-0.031,0.154c0.08-0.026,0.162-0.062,0.252-0.12
		c0.312-0.188,0.691-0.271,1.007-0.438c0.089-0.044,0.556-0.062,0.552-0.062C-91.705-11.495-92.06-11.169-92.199-11.077z"/>
	<path fill="#504F4F" d="M-104.893-11.05c0.559-0.021,1.171-0.123,1.458-0.154c1.344-0.141,2.673-0.449,3.957-0.99
		c1.044-0.403,4.836-2.073,4.85-2.047c-0.003-0.004-1.034,0.631-1.274,0.752c-0.869,0.418-1.693,0.965-2.572,1.396
		c-1.626,0.781-3.112,1.362-4.958,1.342c-0.255-0.006-0.897-0.006-1.464-0.096c-0.568-0.083-1.047-0.253-1.047-0.249
		C-105.94-11.101-105.45-11.028-104.893-11.05z M-101.761-12.726c-0.312,0.021-1.527-0.162-1.521-0.189
		c0.005,0.025,1.188-0.021,1.528-0.084c0.817-0.052,1.62-0.209,2.407-0.512c0.319-0.118,1.066-0.396,1.752-0.598
		c0.685-0.207,1.307-0.298,1.306-0.3l-0.839,0.303c-0.556,0.16-1.077,0.445-1.616,0.681
		C-99.736-12.999-100.647-12.661-101.761-12.726z M-93.71-9.329c-0.266-0.083-0.931-0.344-1.407-0.748
		c-0.487-0.39-0.796-0.847-0.8-0.842c0.002-0.006,0.39,0.378,0.912,0.655c0.518,0.294,1.15,0.417,1.442,0.47
		c1.374,0.275,2.862,0.022,4.303-0.391c0.587-0.162,1.967-0.562,3.251-0.715c1.292-0.188,2.41,0.14,2.396,0.146
		c0,0.002-0.327-0.05-0.687-0.045c-0.36-0.001-0.75,0.056-0.892,0.062c-1.031,0.062-2.016,0.478-3.007,0.788
		c-0.926,0.306-1.786,0.58-2.688,0.74C-91.779-9.046-92.75-8.994-93.71-9.329z M-95.157-7.726c0.894,0.132,1.755,0.354,2.6,0.6
		c0.806,0.256,1.656,0.346,2.516,0.273c0.698-0.021,2.309-0.334,3.787-0.604c1.483-0.271,2.809-0.139,2.803-0.131
		c-0.008-0.03-1.514,0.181-1.837,0.269c-1.199,0.166-2.337,0.685-3.567,0.938c-1.142,0.242-2.261,0.303-3.343,0.079
		c-1.049-0.268-1.994-0.565-3.094-0.868c-0.303-0.088-1.085-0.24-1.802-0.322c-0.715-0.09-1.36-0.108-1.359-0.117
		c0,0.009,0.624-0.094,1.353-0.137C-96.372-7.796-95.538-7.784-95.157-7.726z M-93.654-5.448l-1.624-0.469
		c0.001,0.006,1.317,0.122,1.704,0.18c0.907,0.162,1.795,0.347,2.719,0.312c0.372-0.021,1.241-0.041,2-0.213
		c0.761-0.158,1.396-0.438,1.397-0.437c0.005,0.009-0.704,0.396-0.883,0.444c-0.615,0.199-1.251,0.408-1.907,0.487
		C-91.465-5.001-92.505-5.087-93.654-5.448z M-93.439-4.452c1.548-0.162,3.081-0.296,4.65-0.506c0.634-0.081,2.135-0.215,3.47-0.043
		c0.666,0.082,1.28,0.242,1.706,0.42c0.426,0.178,0.67,0.344,0.673,0.338c-0.001,0.002-0.319-0.13-0.681-0.221
		c-0.365-0.087-0.768-0.145-0.915-0.164c-1.054-0.195-2.148-0.021-3.21,0.109c-1.985,0.256-3.643,0.619-5.688,0.569
		c-0.284-0.011-1,0.015-1.642-0.021c-0.644-0.025-1.203-0.139-1.203-0.136c0.001-0.003,0.557,0,1.183-0.094L-93.439-4.452z
		 M-81.744-9.776c0.919,0.104,1.801,0.275,2.72,0.285c0.371,0.002,1.232,0.03,1.995-0.067c0.765-0.095,1.403-0.349,1.404-0.343
		c0.007,0.013-0.715,0.359-0.897,0.396c-0.623,0.149-1.268,0.302-1.917,0.339c-1.208,0.062-2.208-0.041-3.362-0.312
		c-0.321-0.084-1.647-0.271-1.649-0.271C-83.453-9.757-82.136-9.825-81.744-9.776z M-79.066-10.696l-1.552-0.053
		c0.002,0.006,1.199-0.193,1.562-0.225l2.555-0.081c0.349-0.021,1.163-0.018,1.883,0.066c0.723,0.078,1.336,0.25,1.336,0.248
		l-0.901-0.062c-0.585-0.066-1.183-0.008-1.771,0.021C-77.048-10.711-77.961-10.616-79.066-10.696z M-75.454-12.069
		c0,0-0.721,0.103-0.881,0.104c-0.578,0.021-1.158,0.129-1.732,0.196c-1.071,0.136-1.958,0.254-3.04,0.256
		c-0.301,0.004-1.517,0.104-1.517,0.104s1.15-0.317,1.506-0.372c0.836-0.104,1.658-0.137,2.496-0.227
		C-77.939-12.124-75.451-12.09-75.454-12.069z M-86.93-12.185c-0.574-0.121-1.002-0.416-1.003-0.41
		c0.001-0.006,0.466,0.19,1.023,0.208c0.553,0.034,1.166-0.075,1.455-0.112c1.354-0.16,2.703-0.494,4.052-0.932
		c0.546-0.178,1.841-0.56,3.039-0.707c1.204-0.187,2.256,0.055,2.249,0.061c-0.001,0.004-0.309-0.021-0.646-0.001
		c-0.338,0.021-0.702,0.075-0.835,0.087c-0.965,0.08-1.888,0.457-2.808,0.771c-1.71,0.562-3.167,1.185-5.044,1.181
		C-85.706-12.042-86.365-12.042-86.93-12.185z M-76.521-16.308c-1.456,0.229-2.669,0.51-4.169,0.521
		c-0.417,0.029-2.097,0.062-2.095,0.022c0.009,0.021,1.601-0.311,2.079-0.396c1.138-0.158,2.262-0.271,3.411-0.453
		c0.464-0.069,1.562-0.188,2.544-0.129c0.988,0.035,1.809,0.334,1.805,0.332c-0.001-0.021-0.99-0.108-1.209-0.104
		C-74.943-16.581-75.743-16.427-76.521-16.308z M-76.233-17.108c-1.416,0.188-2.622,0.345-4.054,0.146
		c-0.402-0.023-1.997-0.271-1.992-0.291c0.005,0.02,1.566-0.037,2.029-0.064c1.096,0.017,2.176,0.021,3.281-0.102
		c0.447-0.048,1.492-0.125,2.427-0.156c0.936-0.035,1.758,0.008,1.757,0.006l-1.163,0.146
		C-74.71-17.388-75.474-17.214-76.233-17.108z M-81.403-18.548c1.194,0.146,2.401,0.182,3.628,0.031l2.696-0.279
		c1.04-0.104,1.96-0.115,1.959-0.111l-1.287,0.238c-0.847,0.1-1.687,0.342-2.539,0.484c-1.575,0.258-2.962,0.418-4.545,0.022
		c-0.218-0.06-0.772-0.186-1.247-0.359c-0.478-0.18-0.864-0.405-0.865-0.401c0.001-0.003,0.416,0.145,0.903,0.229
		C-82.21-18.606-81.659-18.579-81.403-18.548z M-85.286-15.571c-0.003-0.012-0.816,0.077-0.993,0.111
		c-0.649,0.059-1.275,0.285-1.899,0.475c-1.159,0.354-2.143,0.707-3.386,0.748c-0.344,0.058-1.726,0.021-1.722-0.015
		c0.009,0.03,1.321-0.188,1.703-0.29c0.92-0.15,1.826-0.332,2.741-0.604c0.37-0.106,1.246-0.327,2.049-0.413
		C-85.99-15.657-85.284-15.569-85.286-15.571z M-86.286-17.567c-0.002-0.004-0.552,0.041-0.671,0.062
		c-0.438,0.021-0.862,0.172-1.275,0.312c-0.77,0.263-1.406,0.554-2.235,0.658c-0.228,0.06-1.154,0.146-1.154,0.131
		c0.007,0.017,0.868-0.237,1.12-0.332c0.609-0.164,1.208-0.338,1.818-0.552c0.247-0.083,0.837-0.253,1.382-0.294
		C-86.756-17.637-86.285-17.562-86.286-17.567z M-92.486-17.42c-0.252,0.099-1.301,0.358-1.303,0.341
		c0.01,0.019,0.956-0.424,1.23-0.563l2.024-0.894c0.273-0.131,0.946-0.377,1.573-0.466c0.625-0.104,1.178-0.06,1.177-0.065
		c-0.002-0.004-0.635,0.104-0.772,0.132c-0.505,0.062-0.984,0.269-1.448,0.465C-90.87-18.106-91.555-17.683-92.486-17.42z
		 M-90.736-19.915c0.294-0.134,1.016-0.395,1.69-0.474c0.673-0.095,1.264-0.011,1.262-0.018c-0.002-0.012-0.683,0.062-0.83,0.097
		c-0.542,0.049-1.059,0.257-1.555,0.465c-0.926,0.387-1.671,0.84-2.691,1.057c-0.276,0.104-1.424,0.242-1.425,0.207
		c0.014,0.03,1.069-0.311,1.365-0.456C-92.188-19.292-91.473-19.592-90.736-19.915z M-99.702-17.224
		c0.843-0.06,1.583-0.017,1.582-0.021l-1.044,0.144c-0.685,0.049-1.362,0.229-2.037,0.362c-1.255,0.25-2.311,0.487-3.608,0.479
		c-0.361,0.021-1.812,0.018-1.811,0c0.006,0.016,1.389-0.247,1.802-0.32c0.982-0.117,1.952-0.215,2.938-0.396
		C-101.479-17.046-100.542-17.177-99.702-17.224z M-87.793-8.458c0.347-0.102,1.174-0.304,1.932-0.348
		c0.758-0.062,1.414,0.067,1.412,0.063c-0.002-0.013-0.768,0.021-0.935,0.052c-0.61,0.021-1.204,0.215-1.787,0.387
		c-1.085,0.313-1.999,0.674-3.165,0.729c-0.323,0.06-1.618,0.025-1.614-0.008c0.01,0.029,1.237-0.176,1.592-0.279
		C-89.5-8.013-88.652-8.203-87.793-8.458z M-98.23-8.696c0.338-0.112,1.148-0.336,1.891-0.389c0.742-0.066,1.389,0.021,1.388,0.016
		c-0.003-0.006-0.753,0.067-0.917,0.093c-0.599,0.034-1.181,0.229-1.746,0.409c-1.055,0.354-1.9,0.74-2.995,1.027l-1.518,0.458
		c0.005,0.007,1.096-0.577,1.437-0.728C-99.88-8.14-99.063-8.405-98.23-8.696z M-101.091-9.776
		c-0.187,0.031-0.873,0.363-0.869,0.373c-0.008-0.006,0.596-0.463,0.82-0.53c0.5-0.205,1.019-0.278,1.542-0.356
		c0.213-0.03,0.713-0.062,1.155-0.021c0.442,0.021,0.825,0.095,0.825,0.093l-0.553,0.006c-0.36-0.021-0.725,0.031-1.08,0.074
		C-99.914-10.062-100.445-9.946-101.091-9.776z M-76.528-23.114c-0.543,0.039-1.828,0.064-2.953-0.151
		c-1.142-0.188-1.993-0.771-1.981-0.771c0.001-0.002,0.265,0.125,0.568,0.221c0.306,0.099,0.646,0.158,0.77,0.188
		c0.886,0.226,1.826,0.144,2.734,0.089c1.701-0.109,3.114-0.339,4.846-0.303c0.481-0.019,2.429-0.037,2.426-0.006
		c-0.008-0.028-1.857,0.354-2.42,0.438C-73.871-23.269-75.183-23.217-76.528-23.114z M-78.057-22.022
		c-0.946,0.079-4.399,0.004-4.397-0.021c0,0,1.002-0.127,1.226-0.129c0.803-0.021,1.613-0.151,2.417-0.229
		c1.498-0.125,2.748-0.202,4.248-0.062l2.11,0.103c-0.002,0-1.638,0.25-2.133,0.272C-75.75-22.043-76.89-22.093-78.057-22.022z
		 M-72.441-26.142c-0.24-0.005-0.798-0.056-1.284-0.157c-0.487-0.104-0.896-0.253-0.896-0.25l0.612,0.095
		c0.395,0.083,0.806,0.082,1.208,0.092c0.749,0.021,1.368-0.02,2.123,0.021c0.21,0.013,1.062-0.027,1.062-0.027
		s-0.812,0.198-1.065,0.225C-71.271-26.106-71.851-26.134-72.441-26.142z M-66.221-15.872c0.483-0.104,1.63-0.3,2.553-0.744
		c0.464-0.215,0.847-0.514,1.068-0.785c0.222-0.271,0.289-0.498,0.296-0.489c-0.004-0.002-0.053,0.265-0.209,0.521
		c-0.147,0.271-0.397,0.506-0.492,0.582c-0.705,0.521-1.518,0.914-2.356,1.164c-1.568,0.441-2.922,0.575-4.517,0.461l-2.242-0.098
		c0.002,0.008,1.738-0.269,2.259-0.305C-68.63-15.626-67.424-15.624-66.221-15.872z M-62.585-19.372
		c-0.706,0.621-1.215,1.258-2.037,1.787c-0.21,0.178-1.162,0.701-1.173,0.676c0.02,0.021,0.822-0.646,1.036-0.873
		c0.561-0.471,1.096-0.967,1.649-1.479c0.22-0.211,0.787-0.658,1.366-0.926c0.575-0.276,1.125-0.379,1.122-0.386
		c-0.004-0.006-0.591,0.263-0.714,0.326C-61.807-20.041-62.208-19.706-62.585-19.372z M-65.57-19.062
		c-0.13,0.099-0.716,0.338-0.719,0.321c0.008,0.013,0.52-0.319,0.646-0.442c0.336-0.246,0.626-0.562,0.788-0.953
		c0.064-0.159,0.198-0.541,0.224-0.904c0.037-0.361,0.004-0.684,0.007-0.683c0.002-0.001,0.077,0.367,0.073,0.456
		c0.002,0.301,0.005,0.61-0.072,0.92C-64.771-19.79-65.07-19.341-65.57-19.062z M-59.61-24.286c0.317-0.188,1.131-0.531,1.898-0.604
		c0.764-0.101,1.43,0,1.428-0.013c-0.002-0.008-0.773,0.072-0.94,0.104c-0.614,0.049-1.201,0.274-1.741,0.545
		c-1.01,0.5-1.733,1.135-2.757,1.688c-0.276,0.175-1.403,0.832-1.41,0.818l1.261-1.062C-61.146-23.343-60.41-23.835-59.61-24.286z
		 M-56.12-27.403c-0.003-0.01-0.771,0.119-0.935,0.164c-0.611,0.101-1.17,0.396-1.669,0.73c-0.934,0.633-1.554,1.387-2.528,2.049
		c-0.25,0.215-1.366,0.909-1.381,0.879c0.024,0.021,0.951-0.838,1.209-1.113c0.667-0.592,1.325-1.188,2.055-1.754
		c0.287-0.229,1.055-0.688,1.818-0.842C-56.792-27.462-56.118-27.394-56.12-27.403z M-55.131-28.937
		c-0.875,0.331-1.594,0.639-2.52,0.836c-0.128,0.021-0.449,0.108-0.743,0.166c-0.296,0.062-0.558,0.026-0.554,0.021
		c0,0.011,0.249-0.01,0.521-0.12l0.72-0.298c0.685-0.237,1.37-0.438,2.058-0.692c0.278-0.104,0.938-0.312,1.545-0.434
		c0.606-0.134,1.153-0.113,1.152-0.109c-0.004-0.017-0.619,0.108-0.751,0.149C-54.194-29.321-54.664-29.112-55.131-28.937z
		 M-53.548-20.075c-0.571,0.648-1.206,1.281-2.022,1.562c-0.76,0.298-1.562,0.479-2.438,0.524c-0.244,0.019-0.855,0.068-1.406,0.067
		c-0.55,0.017-1.038-0.021-1.038-0.021c0.011,0.021,1.871-0.341,2.405-0.483c0.646-0.123,1.282-0.26,1.902-0.459
		c0.635-0.19,1.184-0.459,1.663-0.938c0.406-0.343,1.242-1.287,2.102-2.058c0.431-0.379,0.901-0.674,1.286-0.789
		c0.384-0.123,0.644-0.082,0.642-0.09c0.001,0.002-0.299,0.026-0.584,0.172c-0.29,0.131-0.554,0.356-0.656,0.43
		C-52.429-21.599-52.922-20.78-53.548-20.075z M-50.897-25.743c-0.688,0.872-0.962,1.824-1.677,2.769
		c-0.096,0.134-0.333,0.471-0.578,0.737c-0.241,0.279-0.486,0.493-0.485,0.494c-0.001,0,0.194-0.254,0.377-0.562
		c0.187-0.312,0.357-0.679,0.449-0.845c0.44-0.765,0.82-1.562,1.324-2.341c0.189-0.312,0.793-0.987,1.505-1.312
		c0.695-0.341,1.366-0.433,1.361-0.438c-0.005-0.009-0.721,0.291-0.869,0.371C-50.062-26.63-50.532-26.208-50.897-25.743z
		 M-50.206-27.562c-0.907,0.391-1.557,1.178-2.124,1.961c-1.062,1.461-1.738,2.942-3.228,4.157
		c-0.201,0.175-0.713,0.603-1.233,0.889c-0.514,0.298-1.015,0.454-1.012,0.46c-0.002-0.004,0.45-0.252,0.885-0.625
		c0.444-0.364,0.856-0.854,1.056-1.071c0.963-1.007,1.769-2.168,2.588-3.378c0.327-0.48,1.185-1.625,2.283-2.25
		c1.09-0.65,2.216-0.643,2.202-0.657c0.002,0.009-0.309,0.063-0.633,0.188C-49.75-27.79-50.082-27.616-50.206-27.562z
		 M-57.981-21.862c0.357-0.131,0.71-0.25,1.052-0.424l1.309-0.604c0,0-0.277,0.187-0.342,0.22c-0.235,0.121-0.457,0.271-0.69,0.396
		c-0.434,0.238-0.812,0.423-1.296,0.531l-0.672,0.176L-57.981-21.862z M-58.953-14.907c-0.005-0.016-1.044,0.121-1.266,0.188
		c-0.825,0.108-1.59,0.492-2.317,0.88c-1.358,0.721-2.405,1.521-3.873,2.116c-0.203,0.087-0.705,0.315-1.17,0.498
		c-0.464,0.185-0.888,0.305-0.888,0.306c0-0.001,0.385-0.196,0.802-0.456l1.094-0.702l3.158-1.789
		c0.432-0.243,1.498-0.752,2.526-0.936C-59.858-15.017-58.949-14.901-58.953-14.907z M-55.949-12.362
		c-1.076,0.224-1.979,0.482-3.105,0.487c-0.313,0.033-1.568-0.012-1.564-0.041c0.007,0.026,1.203-0.157,1.554-0.237
		c0.843-0.104,1.676-0.229,2.526-0.403c0.344-0.068,1.16-0.192,1.894-0.185c0.736,0.006,1.361,0.174,1.359,0.172
		c-0.001-0.01-0.744-0.026-0.907-0.021C-54.782-12.616-55.372-12.479-55.949-12.362z M-51.465-12.235
		c-0.004-0.006-0.156,0.226-0.373,0.435c-0.21,0.218-0.484,0.41-0.59,0.474c-0.763,0.427-1.629,0.713-2.502,0.821
		c-1.63,0.188-2.946,0.056-4.518,0.011c-0.22-0.008-0.777,0.022-1.271,0.136c-0.495,0.104-0.915,0.279-0.915,0.276
		c0,0.004,0.37-0.25,0.854-0.442c0.48-0.198,1.058-0.343,1.328-0.362c1.273-0.131,2.483,0.062,3.713,0.004
		c0.496-0.021,1.66-0.027,2.632-0.354C-52.121-11.56-51.463-12.245-51.465-12.235z M-58.725-9.082
		c-0.205-0.017-0.725-0.021-1.192,0.021c-0.469,0.032-0.879,0.144-0.879,0.142c0,0.002,0.376-0.175,0.841-0.3
		c0.462-0.131,0.999-0.226,1.249-0.229c1.171-0.056,2.291,0.104,3.434,0.019c0.46-0.033,1.541-0.075,2.444-0.39
		c0.922-0.276,1.534-0.916,1.53-0.905c-0.003-0.009-0.145,0.198-0.347,0.396c-0.198,0.197-0.451,0.384-0.552,0.438
		c-0.711,0.389-1.506,0.672-2.313,0.797C-56.019-8.886-57.257-8.96-58.725-9.082z M-64.765-6.429c1.54,0.102,3.028,0.33,4.562,0.252
		c0.616-0.036,2.066-0.062,3.29-0.422c0.61-0.185,1.143-0.472,1.47-0.765c0.329-0.291,0.463-0.549,0.47-0.543
		c-0.004-0.004-0.126,0.312-0.37,0.604c-0.235,0.303-0.59,0.54-0.722,0.617c-0.967,0.513-2.048,0.832-3.128,0.977
		c-2.017,0.241-3.7,0.146-5.651-0.229c-0.543-0.114-2.771-0.359-2.776-0.332C-67.623-6.298-65.418-6.481-64.765-6.429z
		 M-68.72-8.711c1.199-0.058,2.317,0.213,3.464,0.345c0.466,0.056,1.534,0.238,2.496,0.271c0.964,0.045,1.804-0.146,1.802-0.146
		c0.008,0.019-0.953,0.317-1.187,0.312c-0.802,0.062-1.627,0.104-2.434,0.048c-1.504-0.111-2.695-0.336-4.157-0.459
		c-0.204-0.021-0.725-0.014-1.19,0.062c-0.467,0.064-0.872,0.189-0.872,0.188c0,0.003,0.366-0.191,0.824-0.352
		C-69.518-8.597-68.974-8.702-68.72-8.711z M-45.153-27.267l1.82-2.832c0.247-0.385,0.924-1.28,1.798-1.748
		c0.876-0.484,1.764-0.384,1.75-0.396c-0.01-0.021-0.956,0.188-1.133,0.312c-0.724,0.266-1.24,0.882-1.681,1.483
		c-0.823,1.149-1.312,2.278-2.27,3.401c-0.133,0.154-0.451,0.562-0.777,0.892c-0.322,0.334-0.662,0.562-0.66,0.563
		c-0.001-0.002,0.279-0.287,0.53-0.662C-45.521-26.618-45.285-27.067-45.153-27.267z M-39.788-33.164
		c-0.653,0.044-1.277,0.29-1.878,0.533c-1.121,0.456-2.025,0.979-3.249,1.249c-0.332,0.115-1.707,0.332-1.709,0.297
		c0.016,0.029,1.275-0.424,1.634-0.597c0.886-0.316,1.754-0.661,2.642-1.042c0.358-0.152,1.228-0.467,2.043-0.548
		c0.814-0.104,1.522,0.033,1.52,0.029C-38.788-33.249-39.608-33.198-39.788-33.164z M-44.789-22.562l0.665-0.737l1.964-1.97
		c0.268-0.271,0.97-0.859,1.735-1.125c0.765-0.281,1.479-0.168,1.472-0.181c-0.006-0.021-0.798,0.104-0.958,0.181
		c-0.619,0.146-1.133,0.561-1.597,0.977c-0.867,0.789-1.467,1.6-2.424,2.35c-0.132,0.104-0.454,0.386-0.764,0.604
		c-0.309,0.226-0.607,0.384-0.606,0.385C-45.3-22.082-45.043-22.29-44.789-22.562z M-92.849-30.432
		c1.252,0.306,2.396,0.352,2.395,0.353c0.004,0.021-1.337,0.104-1.637,0.036c-1.062-0.144-2.152-0.278-3.198-0.53
		c-1.952-0.466-3.483-0.97-5.401-1.358c-0.267-0.062-0.958-0.136-1.587-0.104c-0.628,0.021-1.186,0.112-1.186,0.106
		c0,0.006,0.517-0.193,1.148-0.325c0.629-0.146,1.367-0.195,1.706-0.166c1.601,0.112,3.041,0.667,4.529,1.069
		C-95.473-31.196-94.103-30.723-92.849-30.432z M-97.465-32.858c0.903,0.119,1.727,0.427,2.59,0.634
		c0.351,0.084,1.148,0.319,1.875,0.476c0.726,0.156,1.383,0.181,1.382,0.185c0.002,0.013-0.768,0.062-0.941,0.029
		c-0.611-0.072-1.24-0.127-1.847-0.252c-1.13-0.229-2.028-0.496-3.122-0.787c-0.3-0.109-1.589-0.188-1.591-0.171
		C-99.128-32.769-97.854-32.942-97.465-32.858z M-77.06-37.714c-0.376,0.312-0.865,0.549-1.047,0.613
		c-1.311,0.463-2.678,0.836-4.059,1.022c-2.567,0.319-4.737,0.34-7.258-0.146c-0.35-0.069-1.242-0.197-2.036-0.355
		c-0.798-0.146-1.481-0.362-1.477-0.371c-0.001,0.009,0.691,0.086,1.493,0.088c0.801,0.018,1.706-0.02,2.124,0.016
		c1.959,0.127,3.882,0.323,5.852,0.187c0.795-0.06,2.653-0.125,4.267-0.458c0.805-0.163,1.546-0.398,2.032-0.688
		c0.495-0.277,0.69-0.604,0.692-0.601C-76.473-38.407-76.666-38.015-77.06-37.714z M-86.353-40.675
		c-2.081,0.729-6.885,2.416-7.583,2.528c-0.697,0.115-2.706,1.021-2.706,1.021c0-0.002,2.048-1.04,2.706-1.28
		c0.66-0.233,4.068-1.686,5.711-2.269c0.665-0.233,2.901-0.938,4.361-1.12c1.458-0.205,2.747-0.119,2.744-0.123
		c-0.005-0.015-1.48,0.217-1.802,0.28C-84.102-41.495-85.234-41.064-86.353-40.675z M-89.896-33.54
		c0.708,0.223,2.343,0.887,3.879,0.83c1.554-0.016,2.73-0.888,2.716-0.869c-0.001-0.004-0.291,0.277-0.673,0.523
		c-0.377,0.252-0.846,0.455-1.027,0.496c-1.277,0.35-2.682,0.312-3.965-0.011c-2.4-0.6-4.129-1.556-6.403-2.099
		c-0.316-0.075-1.151-0.161-1.9-0.026c-0.751,0.117-1.375,0.427-1.375,0.421c0.001,0.008,0.539-0.406,1.293-0.675
		c0.747-0.278,1.676-0.354,2.091-0.31C-93.278-35.048-91.651-34.11-89.896-33.54z M-85.289-30.845
		c-1.456,0.044-2.597-0.299-3.909-0.729c-0.183-0.062-0.657-0.185-1.092-0.259c-0.435-0.073-0.831-0.094-0.831-0.096
		c0,0.002,0.384-0.062,0.834-0.062c0.45-0.008,0.957,0.031,1.186,0.076c1.076,0.205,2.071,0.578,3.139,0.658
		c0.424,0.036,1.441,0.114,2.276-0.22c0.844-0.312,1.384-0.948,1.387-0.938c0.019,0.01-0.585,0.739-0.799,0.829
		C-83.734-31.155-84.505-30.878-85.289-30.845z M-83.178-30.959c-0.607,0.222-1.211,0.501-1.85,0.669
		c-1.185,0.307-2.25,0.373-3.434,0.096c-0.335-0.059-1.655-0.379-1.652-0.391c0.002,0.01,1.323,0.075,1.711,0.094
		c0.914,0.101,1.817,0.162,2.732-0.003c0.37-0.062,1.227-0.222,1.977-0.45c0.752-0.221,1.401-0.461,1.402-0.459
		S-83.003-31.019-83.178-30.959z M-96.191-39.663c0.617-0.348,2.042-1.146,2.214-1.294c0.173-0.144,0.821-0.435,0.822-0.435
		c0,0-0.694,0.27-0.892,0.377c-0.197,0.104-1.275,0.621-1.764,0.894c-0.198,0.11-0.839,0.501-1.184,0.818
		c-0.35,0.312-0.587,0.646-0.588,0.644c-0.002-0.004,0.357-0.312,0.439-0.378C-96.868-39.295-96.521-39.478-96.191-39.663z"/>
	<path fill="#615F61" d="M156.383-2.043c-2.564,0.812-5.384,1.414-8.07,2.188c-2.783,0.803-5.547,1.193-8.262,2.355
		c-2.254,0.965-4.674,1.771-6.992,2.788c-2.8,1.229-9.551,3.054-12.553,3.068c-5.667,0.023-4.148-1.475-5.309-1.812
		c-1.387-0.403,1.139-1.291,2.404-1.38c1.265-0.088,4.558,0.738,6.008,0.843c0.838,0.062,6.252-2.685,8.783-3.668
		c2.434-0.942,3.338-1.209,8.771-2.198c2.772-0.509,5.13-0.86,7.799-1.269c2.625-0.396,5.188-1.335,8.086-1.731
		c1.372-0.188,2.558-0.521,3.938-0.593c1.102-0.056,3.562-0.729,4.979-0.66L156.383-2.043z M-55.987-32.577
		c0.66-0.373,1.344-0.787,1.984-1.117c0.653-0.307,1.411-0.425,2.189-0.586c0.803-0.139,1.569-0.496,2.256-0.771
		c0.673-0.277,1.468-0.414,2.225-0.652c1.518-0.435,3.012-0.93,4.565-1.225c1.542-0.309,3.171-0.36,4.725,0.006
		c1.536,0.39,2.988,1.211,4.137,2.304c1.221,1.165,2.055,2.778,1.707,4.379c-0.156,0.791-0.55,1.536-1.152,2.146
		c-0.601,0.604-1.404,1.873-2.149,1.502c-1.614-0.81-1.015-3.045-0.703-4.812c0.287-1.623-3.582-3.146-4.637-2.448
		c-2.386,1.57-6.342-0.807-9.103,0.104C-53.639-32.56-55.987-32.577-55.987-32.577z M-113.566-31.571
		c-1.591,1.521-4.317,2.443-6.402,2.707c-0.927,0.117-1.564,0.156-2.326-0.422c-0.954-0.723-1.479-1.324-2.311-1.771
		c-1.379-0.745-2.716-1.445-4.18-2.024c-1.692-0.669-3.449-1.558-5.145-2.18c-2.706-0.99-4.143-1.331-7.295-2.421
		c-0.774-0.271-3.362-1.139-6.035-1.784c-1.342-0.327-9.708-1.979-11.977-2.346c-2.902-0.468-5.923-0.771-8.84-1.271
		c-0.702-0.121-5.987-0.723-5.897-1.228c0.089-0.506,2.411-0.459,3.689-0.433c2.246,0.062,10.106,1.09,11.773,1.32
		c1.704,0.236,9.574,1.729,11.823,2.076c3.072,0.473,8.646,2.163,11.759,2.836c2.644,0.568,6.184,1.209,8.696,1.738
		c3.738,0.789,6.482,1.146,10.31,1.646C-114.987-34.987-111.977-33.094-113.566-31.571z M-183.068,9.993
		c2.185-0.18,2.878,1.391,4.618,2.281c1.977,1.015,3.76,1.104,5.999,1.326c4.721,0.459,9.281,1.259,14.267,1.018
		c4.205-0.204,24.216-0.684,24.674,4.936c-3.388,1.361-8.664-0.271-12.274-0.594c-4.346-0.387-8.433-0.296-12.667,0.324
		c-3.951,0.578-8.147,0.844-12.333,0.992c-3.193,0.108-10.357,4.051-12,1.667C-184.428,19.559-185.253,10.173-183.068,9.993z
		 M-96.954,50.943c2.557,1.167,5.86,1.73,7.328,2.338c2.238,0.918,4.254,2.993,6.842,2.999c2.333,0.004,6.103-1.327,5.832-3.533
		c-0.368-2.988-9.19-4.294-12.129-4.934c-4.437-0.968-4.335,1.687-8.503,0.63c-4.521-1.146-13.303-0.993-11.369,0
		C-107.249,49.318-99.511,49.776-96.954,50.943z M33.05,57.274c-1,1.5-2.981-0.438-5-1.215c-1.228-0.476-6.987-2.214-7.333-3.45
		c2.209-0.199,4.268,1.555,6.254,1.833c1.251,0.175,6.474,0.13,6.246,2L33.05,57.274z M145.384-21.726
		c2.308-3.904,6.853-10.625,9.5-14.334c1.972-2.765,7.011-9.568,9.251-12c2.383-2.584,7.924-6.021,10.256-7.332
		c3.104-1.744,8.354-2.771,10.327,2.332c0.375,1.504-6.596,0.854-7.834,1.543c-2.087,1.146-3.505,5.795-6.338,6.617
		c-3.446,1.008-1.662,13.995-7.495,15.174c-6.004,1.207-3.885,13.278-9.824,13.829c-3.676,0.337-10.676,6.005-16.843,7.345
		c-1.243,0.27-7.245,4.604-6.479,3.34c0.771-1.269,3.683-2.996,4.186-3.193C134.085-8.405,141.052-14.396,145.384-21.726z"/>
	<path fill="#504F4F" d="M161.271,28.255c-3.483-1.69-7.605-5.104-9.701-7.688c-0.818-1.019-5.814-5.784-8.996-8.021
		c-1.381-0.968-2.672-3.506-2.772-3.833c-0.233-0.751,0.06-1.305,0.353-1.824c0.397-0.707,6.23-3.521,8.412-4.399
		c2.396-0.976,5.341-2.437,7.787-3.115c3.334-0.932,7.231-1.99,10.746-2.691c-0.072,0.091-0.146,0.189-0.22,0.271
		c2.005,3.668,1.993,23.101,2.171,26.168c0.34,5.834,5.566,8.312,5.334,9.333c-0.104,0.453-0.244,0.843-0.418,1.188
		C169.729,34.052,164.592,29.871,161.271,28.255z M121.996-3.596c-3.936,1.49-7.973,1.747-12.245,1.378
		c-1.517-0.131-4.688-1.217-2.642-2.998c1.41-1.229,3.981-1.562,5.729-1.74c4.602-0.479,9.799,0.521,14.398,0.691
		c2.291,0.088,4.188-0.818,5.562-1.931c0.167-0.104,0.342-0.229,0.516-0.356l-0.086,0.131
		C130.382-5.604,125.627-4.974,121.996-3.596z M146.646-0.761c-3.271,0.361-6.465,1.181-9.707,1.655
		c-2.558,0.375-4.246,1.419-6.592,2.275c-1.965,0.725-3.771,1.543-5.623,2.446c-1.18,0.573-1.309,0.497-2.52,0.003
		c-1-0.408-1.92-0.466-2.995-0.509c-1.198-0.049-2.646,0.082-3.683,0.623c-0.949,0.497-1.594,1.062-2.758,1.181
		c-1.373,0.141-6.289-0.252-5.324-1.926c1.027-1.792,3.73-1.604,5.412-1.939c1.123-0.227,1.506-0.748,2.394-1.291
		c1.054-0.646,1.867-0.502,3.097-0.235c4.396,0.937,7.365-0.019,11.646-0.959c3.713-0.819,8.665-1.541,12.458-2.308
		c1.939-0.39,4.064-0.611,6.105-0.812c3.021-0.29,11.145-1.562,15.571-1.562c-0.521,0.149-6.044,1.061-8.146,1.438
		C152.9-2.103,149.773-1.108,146.646-0.761z M100.482-12.579c-2.373-0.856-4.738-1.705-7.115-2.562
		c-2.207-0.8-4.479-1.54-6.885-1.534c-2.354,0.006-4.646,0.125-7.006,0.125c-5.455,0-11.27-1.479-16.211-3.793
		c-4.562-2.146-7.757-3.771-12.039-6.488c-4.574-2.896-9.641-4.896-14.896-6.188c-2.109-0.521-4.072-0.771-5.938-1.938
		c-1.654-1.031-3.373-2.229-5.379-2.469c-0.531-1.25,8.327,0.377,12.344,2.25c3.75,1.75,8.307,2.053,12.119,3.004
		c4.272,1.062,8.899,1.42,13.256,2.743c5.053,1.53,8.479,5.918,13.375,7.53c2.685,0.889,5.455,2.14,8.25,2.476
		c2.252,0.271,4.479-0.17,6.75,0.021c9.875,0.854,16.625,6.854,15.125,8.604C106.232-10.802,102.367-11.897,100.482-12.579z
		 M-77.62-20.224c2.095-0.127,3.897-0.238,6-0.027c1.085,0.107,2.09,0.025,3.042-0.29c0.287-0.096-0.261,1.205-2.854,2.38
		c2.188,0.125,3.98-2.877,4.119-2.958c0.212-0.125,0.423-0.264,0.631-0.417c3.312-2.438,3-6.89,6.125-8.875
		c1.981-1.258,3.957-2.59,5.938-3.84c0.945-0.597,1.913-0.693,3-0.973c0.971-0.249,1.803-0.836,2.75-1.103
		c3.694-1.021,7-2.733,10.853-1.904c3.382,0.729,7.931,4.646,6.257,8.979c-1.25,3.229-5.445,3.967-7.958,6.059
		c-2.806,2.341-5.262,6.412-8.906,7.345c-1.945,0.496-3.815-0.243-5.872-0.243c-0.56,0-2.46,0.097-1.85,1.225
		c0.378,0.699,2.056,0.111,2.606,0.031c1.942-0.281,4.1-0.131,6.091-0.506c1.795-0.341,2.458-1.479,3.84-2.688
		c1.388-1.214,2.565-3.312,4-4.375c1.626-1.203,3-2.312,4.776-3.041c3.853-1.578,5.428-6.282,2.619-10.017
		c-2.475-3.287-5.423-3.945-9.333-3.942c-2.563,0.002-5.579-0.559-7.75,0.312c-2.489,0.996-4.449,2.688-7.028,3.396
		c-3.879,1.069-7.902,3.931-9.847,7.604c-0.55,1.037-1.545,2.088-2,3.125c-0.438,0.996-0.752,2.435-1.75,3.125
		C-72.037-20.522-77.62-20.224-77.62-20.224z M-179.056-23.933c-1.114,1.506-2.342,2.783-3.198,4.483
		c-0.877,1.744-1.387,3.162-1.76,5.024c-0.325,1.623-0.307,3.315-0.312,5.033c-0.005,1.758,0.475,3.39,0.21,5.139
		c-0.256,1.691-0.464,3.479-0.292,5.243c0.145,1.479,0.573,3.494,1.146,4.824c0.789,1.829,2.558,2.647,4.156,3.591
		c6.266,3.678,16.122,3.562,22.598,0.104c1.62-0.86,3.101-2.398,4.561-3.516c1.474-1.123,2.583-2.136,3.592-3.644
		c0.55-0.819,1.324-1.598,1.89-2.413c0.526-0.767,0.381-1.625,0.414-2.521c0.157-4.266,4.419-5.68,7.958-7.259
		c3.455-1.542,7.774-2.341,10.793-4.672c1.308-1.012,1.554-1.573,0.752-2.8c-0.588-0.896-0.565-1.281,0.418-1.974
		c0.994-0.689,2.359-1.229,3.439-1.777c1.209-0.612,4.835-1.493,4.112-3.54c-0.421-1.189-3.222-2.984-4.401-3.038
		c-3.629-0.166-15.081,0.232-17.187,0.548c-2.445,0.356-9.477,0.215-11.972,0.215c-2.382,0-15.13-0.867-17.504-0.867
		c-0.922,0-4.741-1.098-5.372-0.604C-176.158-27.45-178.195-25.095-179.056-23.933z M-186.525,24.487
		c0-1.769,0.299-3.372,0.21-5.144c-0.043-0.854-0.15-1.729-0.105-2.618c0.046-0.896,0.212-4.488,0.315-5.66
		c0.097-1.108,0.307-2.312,0.33-3.445c0.823-0.646,1.349,2.785,1.347,3.969c-0.002,1.75,0.078,3.566-0.005,5.238
		c-0.045,0.904,0.014,1.824,0.005,2.729c-0.008,0.944-0.42,2.41-0.554,3.266c-0.265,1.681-0.297,2.29-0.478,4.081
		c-0.13,1.287,0.542,2.705,0.613,4.09c0.063,1.246,0.616,2.598,0.401,3.856C-186.105,34.853-186.525,26.002-186.525,24.487z
		 M-180.12,37.776c-3.336,0.169-2.666-8.879-2.25-11.25c0.475-2.703,1.493-2.019,4-1.507c1.982,0.396,3.974,0.915,6,1.013
		c8.44,0.395,15.986,1.464,24.25,2.244c1.437,0.136,6.352,0.606,7.75,0.75c0.16,0.812-3.561,1.343-4.043,1.957
		c-3.962,0.565-8.505-1.731-12.707-0.401c-2.447,0.774-1.894,2.538-4.75,2.444c-2.012-0.066-4.104-1.461-4.793,1.462
		c-2.208,0.097-5.188-1.464-7.219-0.729c-0.857,0.312-1.405,1.402-2.238,1.95c-0.692,0.456-2.172,0.901-2.749,1.062L-180.12,37.776z
		 M-68.62,50.276c-2.07,0.964-5.4,1.358-7.858,1.121c-0.92-0.095-0.738-0.392-1.648-0.128c-0.919,0.262-1.242,1.18-2.043,1.689
		c-2.966,1.906-2.794,0.454-4.514-1.375c-1.167-1.24-4.377-1.836-4.398-3.771c4.481-0.213,9.641-0.638,13.961-0.037
		c2.405,0.332,4.442,0.708,6.944,0.438c1.669-0.176,5.738-0.945,6.806,0.562L-68.62,50.276z M33.548,55.777
		c3.443,1.27,3.126-2.078,5.472-3.029c0.146-1.558-0.718-2.424-0.265-4.133c0.491-1.854,0.491-2.14-0.874-3.521
		c-0.705,0.649-0.097,1.489-0.496,2.188c-0.492,0.854-1.088,0.404-1.812,1.029c-0.21,0.181,0.065,0.85-0.229,1.097
		c-0.299,0.25-0.787,0.206-0.972,0.359c-0.615,0.521-1.353,0.258-1.183,1.48c-1.211-0.017-1.403,1-1.502,2
		c-0.377-0.013-0.606,0.203-0.944,0.22c0.017,0.638,0.452,0.961,1.138,0.978L33.548,55.777z M51.881,42.11
		c-1.396,1.096-6.083-0.879-5.471,1.971c2.811,0.583,0.078,2.346,0.163,3.337c0.997,0.048,1.759,0.046,2.649-0.308
		c1.031-0.412,0.848-0.812,1.189-1.371c0.146-0.24-0.046-0.761,0.163-1.092c0.104-0.162,1.062-0.521,1.305-0.663
		c0.688-0.411,1.45-0.893,2.021-1.381c-0.205-0.178-0.549-0.403-0.854-0.494L51.881,42.11L51.881,42.11z M65.387,38.115
		c-1.212,0.444-1.863,0.933-3.006,1.329c-1.346,0.466-6.668,1.102-4.8,4.133c1.372,2.227,3.849-1.521,5.128-2.305
		c0.977-0.604,2.268-0.771,3.301-1.375c0.889-0.523,1.623-1.44,2.413-2.079c0.662-0.535,1.334-0.535,1.433-1.521
		c-0.541,0.021-0.992-0.119-1.475-0.188C68.381,36.11,66.318,37.771,65.387,38.115z M89.048,32.11
		c-0.435,1.77-2.134,1.458-3.491,1.838c-1.498,0.42-2.438,1.602-4.146,1.47c0.569-1.333-0.579-1.417-0.5-2.616
		c1.075-0.141,1.76,0.519,2.808,0.479c0.94-0.034,1.771-0.573,2.627-0.874c0.646-0.229,5.619-1.297,4.207-0.126L89.048,32.11z
		 M108.214,26.444c-2.17,0.746-4.08,3.024-5.702,4.287c-0.746,0.573-1.902,1.75-2.835,1.842c-2.351,0.229-0.243-1.023-0.604-2.087
		c1.797-0.936,3.713-1.58,5.521-2.501c1.764-0.897,3.129-2.07,5-2.685c0.215,0.033,0.164,0.188,0.288,0.31L108.214,26.444z
		 M133.214,11.11c-1.055,1.549-3.229,2.926-4.833,3.833c-1.035,0.586-2.128,0.641-3.171,1.171c-0.901,0.458-1.485,1.014-2.495,1.329
		c-1.979,0.616-4.029,1.247-5.621,2.545c-0.722,0.587-5.369,4.764-5.187,1.646c3.321-0.688,5.926-3.158,9.141-4.188
		c3.282-1.062,6.479-2.499,9.5-4.168L133.214,11.11z"/>
	<path fill="#424140" d="M188.167-51.366c-0.05,0.463-0.438,1.146-1.026,1.317c-0.273,0.112-0.66,0.104-0.727,0.104
		c-0.139,0.004-0.271,0.019-0.405,0.025c-2.151,0.206-3.7,2.346-4.866,4.436c-0.299,0.533-0.574,1.084-0.84,1.646
		c-0.258,0.533-0.472,1.098-0.677,1.68c-0.407,1.162-0.76,2.363-1.093,3.568c-0.662,2.413-1.24,4.854-1.77,7.312
		c-0.525,2.451-1.009,4.92-1.389,7.394c-0.186,1.229-0.355,2.479-0.396,3.66c0.01,1.356-0.332,2.68-0.688,3.905
		c-0.744,2.479-1.732,4.834-2.842,7.142c-0.561,1.146-1.148,2.276-1.799,3.393c-0.321,0.56-0.658,1.105-1.021,1.646
		c-0.181,0.271-0.363,0.539-0.562,0.805l-0.312,0.402l0.018,0.028l0.119,0.321c0.094,0.271,0.166,0.535,0.232,0.804
		c0.134,0.525,0.234,1.056,0.329,1.572c0.18,1.044,0.31,2.084,0.418,3.124c0.216,2.078,0.354,4.153,0.46,6.229
		c0.215,4.146,0.296,8.302,0.391,12.438c0.023,1.055,0.036,2.023,0.256,2.951c0.217,0.934,0.571,1.834,1.071,2.665
		c0.495,0.835,1.113,1.603,1.808,2.328c0.348,0.359,0.709,0.716,1.084,1.084c0.188,0.187,0.379,0.37,0.574,0.59
		c0.104,0.118,0.188,0.21,0.312,0.394c0.128,0.199,0.234,0.418,0.267,0.656c-0.007,0.118,0.003,0.236-0.022,0.355L175,32.903
		c-0.043,0.14-0.08,0.274-0.132,0.418c-0.097,0.272-0.218,0.554-0.365,0.815c-0.292,0.533-0.716,1.035-1.248,1.396
		c-1.082,0.729-2.375,0.809-3.479,0.674c-2.252-0.309-4.207-1.264-6.062-2.302c-1.838-1.062-3.604-2.303-5.19-3.698
		c-1.596-1.376-3.129-2.798-4.662-4.222c-3.062-2.854-6.094-5.738-9.188-8.552c-1.551-1.399-3.109-2.798-4.73-4.091
		c-0.81-0.629-1.653-1.284-2.479-1.689c-0.335-0.158-0.873-0.271-1.294-0.29c-0.443-0.021-0.882,0.043-1.3,0.201
		c-1.688,0.651-2.976,2.551-4.683,3.88c-0.815,0.681-1.666,1.378-2.66,1.926c-0.991,0.552-2.069,0.885-3.114,1.146
		c-1.888,0.494-3.627,1.761-5.401,2.9c-0.894,0.582-1.797,1.172-2.783,1.674c-0.933,0.459-1.783,1.006-2.642,1.625
		c-0.854,0.604-1.713,1.293-2.767,1.793c-0.254,0.12-0.549,0.231-0.795,0.319c-0.19,0.066-0.391,0.172-0.578,0.301
		c-0.381,0.259-0.739,0.612-1.1,0.986c-0.719,0.749-1.396,1.621-2.354,2.314c-0.479,0.348-1.063,0.636-1.702,0.725
		c-0.396,0.056-0.796,0.271-1.186,0.564c-0.776,0.604-1.496,1.438-2.401,2.135c-0.886,0.706-2.095,1.23-3.312,1.163
		c-0.635-0.035-1.101-0.142-1.643-0.188l-1.6-0.162l-3.221-0.305l-1.619-0.188c-0.576-0.084-0.996-0.144-1.496-0.086
		c-0.978,0.104-1.941,0.494-2.889,0.965c-0.959,0.475-1.846,1.033-2.918,1.514c-0.547,0.229-1.201,0.35-1.812,0.284
		c-0.604-0.058-1.129-0.199-1.646-0.284c-2.028-0.364-4.194-0.021-6.229,0.552c-1.016,0.302-2.006,0.694-2.896,1.229
		c-0.438,0.271-0.854,0.576-1.209,0.936c-0.386,0.392-0.793,0.787-1.239,1.146c-0.447,0.357-0.957,0.688-1.521,0.898
		c-0.563,0.218-1.162,0.309-1.729,0.346c-0.285,0.021-0.562,0.026-0.847,0.028c-0.303,0.003-0.519-0.006-0.707,0.05
		c-0.389,0.098-0.69,0.424-0.921,0.864c-0.477,0.888-0.616,1.995-1.182,3.08c-0.15,0.268-0.348,0.55-0.646,0.762
		c-0.291,0.201-0.583,0.31-0.864,0.396c-0.574,0.169-1.144,0.241-1.703,0.301c-1.129,0.101-2.25,0.093-3.371,0.02
		c-0.562-0.039-1.123-0.094-1.687-0.188c-0.468-0.082-0.896,0.021-1.325,0.291c-0.854,0.551-1.767,1.354-2.847,1.796
		c-1.067,0.482-2.242,0.605-3.293,0.832c-2.104,0.418-4.312,1.291-5.001,3.419c-0.477,1.035-1.062,2.04-1.857,2.896
		c-0.799,0.855-1.828,1.521-2.957,1.847c-1.373,0.407-3.039,0.479-4.654-0.078c-1.605-0.539-3.146-1.409-4.854-2.183
		c-3.389-1.586-7.4-2.883-11.892-3.797c-9-1.757-19.587-3.539-31.163-4.02c-2.892-0.105-5.846-0.111-8.834,0.072
		c-2.984,0.204-6.02,0.541-9.088,0.819c-6.139,0.586-12.424,1.205-18.797,1.597c-1.593,0.101-3.192,0.178-4.794,0.233
		c-1.605,0.047-3.205,0.081-4.793,0.313c-3.181,0.424-6.278,1.38-9.248,2.604c-1.488,0.611-2.947,1.291-4.419,1.938
		c-1.463,0.638-2.991,1.286-4.619,1.337c-1.622,0.135-3.227-0.353-4.646-1.068c-1.434-0.709-2.825-1.479-4.277-2.115
		c-2.896-1.289-5.935-2.185-8.987-2.809c-3.059-0.609-6.13-0.967-9.162-1.257c-2.941-0.272-5.847-0.471-8.709-0.637
		c7.311,0.408,14.489,1,19.629,2.246c11,2.665,11.601,6.382,17.278,5.445c3.724-0.611,10.486-5.783,20.393-6.057
		c9.679-0.271,20.998-1.561,32.329-2.618c12.874-1.206,30.079,1.419,41.169,3.562c14.666,2.835,16.002,7.349,21.333,6.335
		c2.405-0.455,4.169-2,5.502-5.169c1.129-2.683,4.667-3.146,6.5-3.5c3.667-0.699,4.162-3,6.162-2.666c2,0.332,6.146,0.396,7.338-0.5
		c1.333-1,0.996-4.834,3.329-4.834s3.333-0.224,5.333-2.274c2-2.056,6.333-3.06,9-3.06s3.334,1,5.334,0s4.332-2.666,6.666-2.332
		c2.334,0.332,6.104,0.556,8.005,0.835c3.671,0.545,4.996-3.5,7.329-3.835c2.333-0.334,3.666-3.668,5.666-4.334
		c2-0.664,3.333-2.331,6-3.666c2.667-1.334,5.668-4,8.334-4.668c2.666-0.666,3.667-1.332,6-3.332s3.837-4.665,7.171-3.665
		s18.432,16.513,23.333,20.167c4.425,3.3,12.283,7.403,13.667,1.333c0.23-1.021-4.996-3.499-5.334-9.333
		c-0.178-3.065-0.166-22.5-2.171-26.17c0.063-0.067,0.138-0.169,0.203-0.25c-0.185,0.026-3.753,0.979-5.134,1.354
		c-3.271,0.875-6.737,1.639-9.799,3.062l-2.847,1.24c-0.958,0.396-1.87,0.813-2.786,1.28c-1.826,0.921-3.617,1.915-5.396,2.978
		c-1.521,0.906-3.104,1.908-4.498,2.979l-1.795,1.27c-0.021-0.019,1.592-1.496,2.287-2.062c1.094-0.958,2.48-1.604,3.727-2.405
		c2.24-1.435,4.387-2.617,6.604-3.666c2.271-0.959,4.476-1.981,7-2.936c1.361-0.517,2.785-0.82,4.182-1.188l4.188-1.041
		c0.775-0.188,1.594-0.468,2.347-0.597c0.678-0.116,1.84-0.259,1.928-0.271c2.69-3.254,7.14-12.848,7.134-16.75
		c-0.004-4,3.303-19.68,5.329-24c2.507-5.332,4.672-6.666,7-6.666c2.688,0-0.659-9.166-11.885-5.793
		c-7.285,2.189-14.976,12.354-20.448,19.793c-6.499,8.847-18.326,29.736-23.693,29.315c-5.973-0.471-14.521-3.522-19.854-6.522
		s-10.118-5.606-12.118-7.272s-9.316-2.146-13.672-3.166c-5.661-1.334-14.986-6.668-19.661-10.334
		c-2.823-2.218-9.362-1.756-14.339-3.334c-6.829-2.166-13.666-9-18.666-9.666s-7.666,0.334-13-2s-37.333-9.187-47.667-7.925
		c-10.334,1.259-48.667,3.925-58,5.925s-40.461,6.328-48.164,5.666c-11.369-0.979-35.053-2.398-37.178-2.195
		c-2.362,0.225-5.222,2.188-3.761,3.848c0.904,1.027,12.109,2.265,17.372,3.267c15.931,3.026,20.231,5.381,26.064,7.423
		c5.822,2.034,8.848,4.452,9.522,5.034c0.492-0.043,0.954-0.075,1.331-0.101c0.906-0.082,4.565-0.935,5.34-1.438
		c-1.066-0.049-1.817-1.021-0.083-0.993c-0.183-0.146-1.769-0.188-1.421-0.99c0.482-1.105,0.083-0.586,0.411-0.675
		c-1.534-1.212-2.132-0.984-4.098-1.009c-1.959-0.021-5.417,0.765-6.805,0.137c-1.388-0.627-2.459-1.452-1.774-2.51
		c0.685-1.062,2.846-0.271,4.078,0c4.586,0.989,11.068,1.989,10.8,1.823c-0.584-0.407-1.323-0.505-2.052-0.604
		c-0.747-0.104-1.46-0.271-2.206-0.387l-5.561-0.997c0,0,1.286,0.131,1.571,0.176c1.021,0.163,2.068,0.265,3.098,0.409
		c0.957,0.136,1.837,0.278,2.701,0.437c0.833,0.146,2.238,0.218,3.03,0.851c0.217,0.152,0.846,0.895,0.93,1.338
		c1.398,0.09,2.953,0.097,4.364,0.012c2.607-0.158,4.428-0.826,6.446-2.384c1.049-0.812,1.897-1.671,2.874-2.621
		c0.433-0.422,2.021-1.812,2.414-1.808c0.306,0.008-0.438,1.229-0.925,2.062c1.286-0.578,2.511-1.774,3.994-1.563
		c-0.661,1.228-2.846,2.059-3.961,2.938c1.15-0.229,3.797-0.824,4.799-0.004c-0.1,0.046-0.204,0.062-0.313,0.037
		c-0.674,0.436-2.615,0.538-3.494,0.829c-1.109,0.364-2.173,0.875-3.212,1.297c-2.227,0.901-4.413,1.858-6.634,2.696
		c-2.341,0.885-6.515,2.403-8.989,2.938c-5.189,1.104-13.753,1.188-18.199,1.354c-6.949,0.256-12.724,0.705-19.618,0.424
		c-0.958-0.043-3.394-0.127-5.582-0.312c-1.63-0.123-3.111-0.343-3.762-0.442c-9.719-0.66-13.713-1.697-15.144-0.062
		c-2.298,2.635-5.537,8.946-6.702,12.44c-1.167,3.5-0.208,9.333-1.189,14s-0.814,18.379-1.684,23.833
		c-0.031,0.188-0.059,0.417-0.087,0.637c0.064-0.521,0.134-1.05,0.21-1.589c0.148-1.271,0.242-2.595,0.322-3.964
		c0.157-2.739,0.248-5.659,0.368-8.717c0.141-3.061,0.21-6.265,0.674-9.535c0.736-3.231,0.567-6.646,0.659-10.104
		c0.064-1.722,0.164-3.514,0.817-5.175c0.604-1.655,1.341-3.267,2.131-4.854c0.795-1.59,1.652-3.146,2.609-4.65
		c0.48-0.751,0.986-1.489,1.555-2.188c0.258-0.354,0.66-0.696,1.098-0.854c0.437-0.173,0.893-0.243,1.342-0.284
		c1.803-0.122,3.565,0.095,5.32,0.231l5.225,0.449c3.459,0.271,6.87,0.44,10.188,0.521c6.638,0.146,12.903-0.021,18.472-0.271
		c2.784-0.125,5.396-0.271,7.794-0.437c2.329-0.15,4.883-0.352,5.833-0.438c0.136,0.018,0.028-0.061-0.028-0.104l-0.179-0.146
		l-0.359-0.271c-0.267-0.191-0.4-0.287-0.803-0.551c-0.693-0.447-1.353-0.828-1.96-1.158c-2.341-1.295-4.84-2.188-7.387-3.1
		c-2.52-0.947-5.018-1.919-7.576-2.729c-5.11-1.631-10.366-2.8-15.646-3.826c-5.272-1.034-10.646-1.549-15.965-2.625
		c-0.667-0.146-1.327-0.291-2.001-0.554c-0.808-0.233-1.257-1.233-1-2.021c0.257-0.78,0.849-1.274,1.431-1.679
		c0.599-0.392,1.252-0.672,1.936-0.854c0.677-0.205,1.431-0.229,2.095-0.206l2.032,0.052l4.051,0.174
		c5.397,0.262,10.793,0.584,16.189,0.93l8.095,0.562l4.047,0.309c1.362,0.111,2.673,0.24,4.015,0.201
		c5.375-0.117,10.765-0.725,16.133-1.326c5.371-0.631,10.734-1.354,16.085-2.151c2.675-0.401,5.347-0.824,8.011-1.283
		c1.332-0.229,2.662-0.471,3.985-0.729c1.311-0.264,2.659-0.563,4.006-0.77c5.381-0.826,10.772-1.359,16.166-1.906
		c10.786-1.063,21.586-1.953,32.362-2.959c2.71-0.244,5.345-0.54,8.093-0.83c2.769-0.16,5.491,0.025,8.202,0.271
		c5.418,0.514,10.779,1.354,16.113,2.312c5.332,0.979,10.636,2.077,15.899,3.396c1.315,0.334,2.628,0.681,3.937,1.062
		c0.655,0.195,1.312,0.398,1.965,0.637c0.319,0.108,0.674,0.261,0.979,0.392c0.302,0.13,0.604,0.252,0.912,0.366
		c1.224,0.464,2.479,0.804,3.767,0.979c1.287,0.188,2.608,0.207,3.967,0.244c1.394,0.038,2.789,0.104,4.207,0.312
		c1.496,0.246,2.812,0.854,4.062,1.496c2.481,1.322,4.729,2.9,7.033,4.345c2.293,1.438,4.625,2.808,7.101,3.666
		c2.471,0.851,5.149,1.108,7.833,1.477c1.349,0.182,2.705,0.369,4.07,0.723c0.681,0.181,1.362,0.407,2.03,0.733
		c0.332,0.171,0.662,0.354,0.976,0.595l0.8,0.605c2.125,1.572,4.385,2.994,6.682,4.317c2.301,1.316,4.647,2.543,7.062,3.586
		c1.204,0.521,2.424,0.996,3.653,1.375c1.224,0.388,2.492,0.615,3.791,0.847c2.596,0.444,5.226,0.767,7.857,1.373
		c0.658,0.149,1.319,0.334,1.984,0.578c0.333,0.128,0.667,0.265,1.003,0.45c0.168,0.101,0.337,0.193,0.504,0.325l0.396,0.312
		c0.99,0.763,2.104,1.444,3.221,2.122c2.232,1.341,4.525,2.604,6.812,3.893c1.147,0.642,2.27,1.293,3.41,1.86
		c1.149,0.571,2.323,1.104,3.516,1.604c2.377,0.994,4.812,1.854,7.275,2.543c1.233,0.354,2.479,0.65,3.729,0.896
		c0.623,0.123,1.248,0.228,1.875,0.312l0.938,0.111l0.471,0.043c0.121,0.004,0.211,0.006,0.328-0.012
		c0.938-0.135,1.998-0.928,2.902-1.729c0.924-0.822,1.786-1.753,2.613-2.714c1.654-1.927,3.186-3.983,4.668-6.067
		c2.969-4.178,5.742-8.48,8.576-12.758c2.812-4.301,5.869-8.436,9.049-12.438c3.227-3.979,6.619-7.896,10.902-10.921
		c1.074-0.743,2.221-1.413,3.448-1.938c1.248-0.521,2.525-0.854,3.832-1.074c2.595-0.434,5.476-0.258,7.892,1.173
		c1.188,0.711,2.246,1.694,2.92,2.987C188-53.017,188.292-52.312,188.167-51.366z M-159.394-27.522
		c0.682,0.021,1.39,0.041,2.08,0.053c-1.955-0.069-3.736-0.165-5.364-0.271C-161.929-27.666-160.72-27.562-159.394-27.522z
		 M109.852-2.198c-0.062-0.004-0.104-0.008-0.104-0.009S109.787-2.205,109.852-2.198z M112.786-2.13
		c1.985,0.018,4-0.213,5.938-0.652c0.897-0.205,1.754-0.451,2.566-0.729c0.812-0.298,1.622-0.604,2.438-0.843
		c1.631-0.5,3.275-0.896,5.021-1.483c0.48-0.162,1.707-0.625,2.718-1.229c1.022-0.588,1.776-1.334,1.774-1.331
		c0.001-0.005-0.693,0.765-1.689,1.399c-0.982,0.658-2.222,1.191-2.803,1.408c-1.367,0.51-2.75,0.881-4.119,1.271
		c-0.688,0.195-1.363,0.396-2.04,0.63c-0.669,0.233-1.353,0.486-2.044,0.7c-1.115,0.365-3.812,0.935-6.242,0.959
		c-2.119,0.062-4.006-0.125-4.451-0.166C110.326-2.173,112.297-2.108,112.786-2.13z M-68.601-20.511
		c-0.181,0.053-0.361,0.104-0.545,0.146c-1.48,0.361-2.929,0-4.182-0.004c-2.518-0.06-4.294,0.127-4.294,0.104
		c0.001,0.021,1.738-0.201,4.25-0.207c1.259-0.03,2.707,0.299,4.13-0.075c0.172-0.04,0.351-0.091,0.533-0.151l0.068-0.021
		c0.007,0,0.149-0.068,0.272,0.069c0.102,0.225,0.021,0.245,0.018,0.314c-0.015,0.042-0.037,0.069-0.055,0.104
		c0.051-0.062,0.11-0.116,0.159-0.182c0.19-0.229,0.363-0.471,0.531-0.699c0.053-0.065,0.06-0.094,0.163-0.213
		c0.057-0.051,0.003-0.016,0.093-0.069l0.042-0.027l0.083-0.053c0.111-0.068,0.217-0.146,0.317-0.217
		c0.405-0.282,0.729-0.578,0.985-0.851c0.919-0.953,1.513-2.179,2.06-3.424c0.553-1.24,1.079-2.562,2.032-3.646
		c0.454-0.545,1.09-0.979,1.654-1.319l1.718-1.104l3.438-2.198c0.548-0.386,1.244-0.716,1.914-0.865
		c0.668-0.187,1.355-0.271,1.959-0.486c0.616-0.219,1.212-0.553,1.873-0.801c0.683-0.234,1.311-0.378,1.965-0.604
		c2.571-0.808,5.23-1.854,8.076-1.645c1.128,0.062,2.676,0.413,4.171,1.393c1.471,0.945,3.077,2.437,3.727,4.584
		c0.314,1.063,0.291,2.277-0.13,3.373c-0.402,1.113-1.243,2.043-2.208,2.729c-1.934,1.387-4.281,2.09-6.025,3.587
		c-1.734,1.506-3.132,3.283-4.664,4.678c-1.5,1.411-3.206,2.438-4.825,2.607c-1.61,0.146-2.896-0.226-3.792-0.298
		c-0.898-0.116-1.407-0.104-1.407-0.104c0,0.006,0.592-0.02,1.507,0.088c0.913,0.084,2.155,0.354,3.462,0.236
		c1.31-0.109,2.565-0.771,3.501-1.475c0.946-0.697,1.636-1.406,2.013-1.774c1.341-1.332,2.542-2.817,3.981-4.104
		c1.459-1.299,3.286-2.019,4.91-2.979c0.815-0.479,1.593-1.021,2.211-1.713c0.619-0.688,1.024-1.536,1.186-2.438
		c0.357-1.821-0.5-3.662-1.756-4.984c-1.182-1.245-2.676-2.188-4.256-2.628c-1.599-0.418-3.274-0.354-4.861-0.009
		c-1.597,0.336-3.135,0.897-4.696,1.396c-0.778,0.271-1.596,0.429-2.289,0.743c-0.706,0.313-1.494,0.727-2.32,0.885
		c-0.8,0.184-1.58,0.314-2.252,0.667c-0.659,0.377-1.362,0.849-2.042,1.271l-4.146,2.646c-1.389,0.812-2.196,2.312-2.875,3.845
		c-0.692,1.525-1.396,3.195-2.737,4.42c-0.245,0.229-0.566,0.489-0.972,0.752l-0.32,0.193c-0.041,0.033-0.144,0.182-0.218,0.274
		c-0.163,0.216-0.34,0.438-0.535,0.668c-0.39,0.449-0.847,0.927-1.414,1.314c-0.439,0.312-0.973,0.565-1.55,0.646
		c-0.123,0.062-0.244,0.137-0.368,0.188l-0.033-0.174c-0.024-0.002-0.048,0.004-0.072,0.004l-0.222-0.015l0.202-0.091
		c0.022-0.013,0.044-0.021,0.067-0.033l-0.03-0.162c0.142,0.006,0.281-0.013,0.419-0.033c0.513-0.254,1.018-0.534,1.478-0.895
		c0.296-0.23,0.579-0.486,0.803-0.788c0.055-0.075,0.106-0.153,0.145-0.237C-68.54-20.437-68.493-20.567-68.601-20.511z
		 M-181.286,40.743c0.402,0.24,0.621,0.471,1.242,0.54c0.224,0.456,0.021,0.752-0.506,0.716v0.104
		c-1.468-0.014-1.491-0.331-1.66-1.659C-181.458,39.884-181.582,40.565-181.286,40.743z M-178.243,41.37c0,0,0.75,0.274,1.059,0.839
		c-0.447,0.413-1.065,0.238-1.077,1.03c-0.554-0.111-0.388-0.967-1.135-0.604C-180.06,42.056-178.732,41.419-178.243,41.37z"/>
	<path fill="#CBCCD0" d="M-172.562-43.722c-0.241,0.051-0.23,0.459,0.005,1.121c0.144,0.399,0.626,1.348,1.196,1.192
		c0.134-0.183-0.265-0.44-0.279-0.979c-0.004-0.174,0.022-0.523,0.141-0.799c0.094-0.226,0.213-0.398,0.078-0.472
		C-171.657-43.767-172.296-43.778-172.562-43.722z M-169.823-43.344c-0.241,0.048-0.23,0.435,0.005,1.058
		c0.144,0.383,0.626,1.272,1.196,1.131c0.134-0.17-0.265-0.422-0.279-0.928c-0.004-0.163,0.022-0.492,0.141-0.753
		c0.094-0.208,0.213-0.376,0.078-0.44C-168.917-43.386-169.558-43.396-169.823-43.344z M-167.008-42.937
		c-0.241,0.045-0.23,0.412,0.005,1.012c0.144,0.365,0.626,1.215,1.196,1.08c0.134-0.163-0.265-0.402-0.279-0.889
		c-0.004-0.154,0.022-0.478,0.141-0.727c0.094-0.196,0.213-0.354,0.078-0.42C-166.104-42.978-166.745-42.987-167.008-42.937z
		 M-164.104-42.435c-0.241,0.049-0.23,0.438,0.005,1.076c0.144,0.392,0.626,1.299,1.196,1.146c0.134-0.174-0.265-0.43-0.279-0.942
		c-0.004-0.168,0.022-0.504,0.141-0.771c0.094-0.213,0.213-0.385,0.078-0.446C-163.199-42.479-163.837-42.489-164.104-42.435z
		 M-158.387-41.551c-0.241,0.049-0.23,0.438,0.005,1.07c0.144,0.388,0.626,1.283,1.196,1.146c0.134-0.172-0.265-0.426-0.279-0.938
		c-0.004-0.166,0.022-0.5,0.141-0.769c0.094-0.211,0.213-0.382,0.078-0.44C-157.479-41.594-158.122-41.604-158.387-41.551z
		 M-161.304-42.087c-0.241,0.048-0.23,0.438,0.005,1.062c0.144,0.387,0.626,1.274,1.196,1.139c0.134-0.17-0.265-0.424-0.279-0.937
		c-0.004-0.166,0.022-0.498,0.141-0.762c0.094-0.21,0.213-0.379,0.078-0.438C-160.396-42.13-161.038-42.14-161.304-42.087z
		 M-155.526-40.939c-0.241,0.052-0.23,0.448,0.005,1.102c0.144,0.396,0.626,1.32,1.196,1.174c0.134-0.177-0.265-0.438-0.279-0.963
		c-0.004-0.17,0.022-0.514,0.141-0.783c0.094-0.217,0.213-0.392,0.078-0.457C-154.622-40.983-155.262-40.993-155.526-40.939z
		 M-152.463-40.265c-0.241,0.049-0.23,0.435,0.005,1.059c0.144,0.383,0.626,1.271,1.196,1.129c0.134-0.17-0.265-0.42-0.279-0.926
		c-0.004-0.164,0.022-0.494,0.141-0.754c0.094-0.207,0.213-0.377,0.078-0.439C-151.559-40.306-152.2-40.317-152.463-40.265z
		 M-149.171-39.532c-0.241,0.047-0.23,0.418,0.005,1.021c0.144,0.367,0.626,1.225,1.196,1.088c0.134-0.164-0.265-0.404-0.279-0.896
		c-0.004-0.15,0.022-0.477,0.141-0.727c0.094-0.199,0.213-0.361,0.078-0.424C-148.267-39.573-148.908-39.583-149.171-39.532z
		 M-146.212-38.905c-0.241,0.054-0.23,0.439,0.005,1.071c0.144,0.388,0.626,1.288,1.196,1.146c0.134-0.176-0.265-0.43-0.279-0.938
		c-0.004-0.166,0.022-0.501,0.141-0.764c0.094-0.211,0.213-0.388,0.078-0.445C-145.308-38.948-145.949-38.96-146.212-38.905z
		 M-142.836-37.897c-0.241,0.049-0.23,0.426,0.005,1.03c0.144,0.375,0.626,1.241,1.196,1.104c0.134-0.166-0.265-0.412-0.279-0.906
		c-0.004-0.158,0.022-0.479,0.141-0.734c0.094-0.198,0.213-0.364,0.078-0.432C-141.932-37.941-142.57-37.948-142.836-37.897z
		 M-139.567-36.944c-0.241,0.054-0.23,0.438,0.005,1.056c0.144,0.384,0.626,1.267,1.196,1.123c0.134-0.168-0.265-0.418-0.279-0.92
		c-0.004-0.162,0.022-0.488,0.141-0.748c0.094-0.207,0.213-0.375,0.078-0.438C-138.663-36.985-139.304-36.996-139.567-36.944z
		 M-136.649-35.782c-0.241,0.049-0.23,0.438,0.005,1.062c0.144,0.384,0.626,1.272,1.196,1.135c0.134-0.171-0.265-0.423-0.279-0.931
		c-0.004-0.165,0.022-0.495,0.141-0.759c0.094-0.209,0.213-0.382,0.078-0.439C-135.745-35.823-136.383-35.835-136.649-35.782z
		 M-133.464-34.691c-0.221,0.048-0.21,0.391,0.004,0.938c0.132,0.339,0.573,1.128,1.094,1.002c0.123-0.148-0.243-0.373-0.255-0.82
		c-0.004-0.146,0.021-0.438,0.128-0.668c0.086-0.188,0.195-0.334,0.072-0.393C-132.637-34.728-133.223-34.735-133.464-34.691z
		 M-130.193-33.394c-0.228,0.038-0.218,0.354,0.005,0.862c0.136,0.312,0.592,1.039,1.13,0.929c0.127-0.144-0.25-0.349-0.264-0.763
		c-0.004-0.138,0.021-0.399,0.133-0.612c0.089-0.172,0.201-0.312,0.074-0.359C-129.336-33.427-129.942-33.437-130.193-33.394z
		 M-127.148-32.041c-0.222,0.038-0.212,0.349,0.004,0.854c0.132,0.311,0.575,1.021,1.099,0.903c0.124-0.137-0.244-0.338-0.256-0.744
		c-0.004-0.131,0.021-0.396,0.129-0.604c0.086-0.168,0.196-0.305,0.072-0.354C-126.315-32.075-126.904-32.083-127.148-32.041z
		 M-124.407-30.571c-0.201,0.041-0.191,0.368,0.004,0.899c0.12,0.325,0.521,1.081,0.995,0.96c0.111-0.146-0.221-0.357-0.232-0.787
		c-0.004-0.139,0.019-0.42,0.117-0.641c0.079-0.183,0.177-0.32,0.065-0.375C-123.651-30.608-124.186-30.616-124.407-30.571z"/>
	<path fill="#FFFFFF" d="M-174.823-45.005c-0.241,0.055-0.23,0.5,0.005,1.219c0.144,0.441,0.626,1.467,1.196,1.303
		c0.134-0.188-0.265-0.479-0.279-1.062c-0.004-0.188,0.022-0.565,0.141-0.868c0.094-0.236,0.213-0.438,0.078-0.507
		C-173.917-45.054-174.558-45.064-174.823-45.005z M-172.323-45.005c-0.241,0.055-0.23,0.5,0.005,1.219
		c0.144,0.441,0.626,1.467,1.196,1.303c0.134-0.188-0.265-0.479-0.279-1.062c-0.004-0.188,0.022-0.565,0.141-0.868
		c0.094-0.236,0.213-0.438,0.078-0.507C-171.417-45.054-172.058-45.064-172.323-45.005z M-169.823-44.796
		c-0.241,0.055-0.23,0.5,0.005,1.219c0.144,0.44,0.626,1.465,1.196,1.303c0.134-0.189-0.265-0.479-0.279-1.062
		c-0.004-0.188,0.022-0.567,0.141-0.869c0.094-0.237,0.213-0.437,0.078-0.506C-168.917-44.845-169.558-44.856-169.823-44.796z
		 M-166.823-44.579c-0.241,0.062-0.23,0.5,0.005,1.221c0.144,0.439,0.626,1.47,1.196,1.309c0.134-0.195-0.265-0.484-0.279-1.068
		c-0.004-0.188,0.022-0.562,0.141-0.864c0.094-0.235,0.213-0.438,0.078-0.511C-165.917-44.628-166.558-44.64-166.823-44.579z
		 M-161.167-43.926c-0.241,0.056-0.23,0.5,0.005,1.22c0.144,0.439,0.626,1.465,1.196,1.301c0.134-0.19-0.265-0.479-0.279-1.062
		c-0.004-0.188,0.022-0.569,0.141-0.868c0.094-0.24,0.213-0.438,0.078-0.507C-160.263-43.976-160.901-43.985-161.167-43.926z
		 M-163.99-44.376c-0.241,0.057-0.23,0.5,0.005,1.221c0.144,0.439,0.626,1.47,1.196,1.306c0.134-0.192-0.265-0.481-0.279-1.065
		c-0.004-0.188,0.022-0.562,0.141-0.867c0.094-0.232,0.213-0.435,0.078-0.508C-163.083-44.425-163.725-44.437-163.99-44.376z
		 M-158.49-43.509c-0.241,0.055-0.23,0.5,0.005,1.219c0.144,0.439,0.626,1.465,1.196,1.303c0.134-0.192-0.265-0.479-0.279-1.062
		c-0.004-0.188,0.022-0.569,0.141-0.869c0.094-0.239,0.213-0.438,0.078-0.506C-157.583-43.558-158.224-43.569-158.49-43.509z
		 M-155.532-42.833c-0.241,0.055-0.23,0.5,0.005,1.219c0.144,0.44,0.626,1.465,1.196,1.308c0.134-0.194-0.265-0.483-0.279-1.065
		c-0.004-0.188,0.022-0.567,0.141-0.869c0.094-0.232,0.213-0.434,0.078-0.506C-154.625-42.882-155.266-42.894-155.532-42.833z
		 M-152-42.222c-0.241,0.055-0.23,0.5,0.005,1.219c0.144,0.438,0.626,1.465,1.196,1.303c0.134-0.192-0.265-0.481-0.279-1.063
		c-0.004-0.188,0.022-0.566,0.141-0.866c0.094-0.239,0.213-0.438,0.078-0.509C-151.096-42.271-151.734-42.282-152-42.222z
		 M-148.948-41.546c-0.241,0.055-0.23,0.5,0.005,1.219c0.144,0.44,0.626,1.465,1.196,1.303c0.134-0.189-0.265-0.479-0.279-1.062
		c-0.004-0.188,0.022-0.567,0.141-0.869c0.094-0.237,0.213-0.437,0.078-0.506C-148.042-41.595-148.683-41.606-148.948-41.546z
		 M-145.698-40.935c-0.241,0.055-0.23,0.5,0.005,1.219c0.144,0.438,0.626,1.465,1.196,1.302c0.134-0.196-0.265-0.485-0.279-1.062
		c-0.004-0.188,0.022-0.566,0.141-0.869c0.094-0.236,0.213-0.438,0.078-0.506C-144.792-40.983-145.433-40.995-145.698-40.935z
		 M-142.531-40.259c-0.241,0.055-0.23,0.5,0.005,1.219c0.144,0.439,0.626,1.465,1.196,1.303c0.134-0.192-0.265-0.479-0.279-1.062
		c-0.004-0.188,0.022-0.569,0.141-0.869c0.094-0.239,0.213-0.438,0.078-0.506C-141.625-40.308-142.266-40.319-142.531-40.259z
		 M-139.448-39.431c-0.241,0.055-0.23,0.5,0.005,1.219c0.144,0.438,0.626,1.465,1.196,1.303c0.134-0.192-0.265-0.481-0.279-1.063
		c-0.004-0.188,0.022-0.566,0.141-0.866c0.094-0.239,0.213-0.438,0.078-0.509C-138.542-39.479-139.183-39.491-139.448-39.431z
		 M-136.413-38.606c-0.241,0.052-0.23,0.446,0.005,1.097c0.144,0.396,0.626,1.312,1.196,1.169c0.134-0.176-0.265-0.438-0.279-0.959
		c-0.004-0.169,0.022-0.512,0.141-0.779c0.094-0.215,0.213-0.39,0.078-0.455C-135.505-38.649-136.146-38.661-136.413-38.606z
		 M-133.8-38.087c-0.241,0.049-0.23,0.443,0.005,1.084c0.144,0.391,0.626,1.301,1.196,1.156c0.134-0.175-0.265-0.437-0.279-0.949
		c-0.004-0.168,0.022-0.505,0.141-0.771c0.094-0.213,0.213-0.385,0.078-0.442C-132.896-38.13-133.537-38.14-133.8-38.087z
		 M-130.698-37.321c-0.241,0.047-0.23,0.429,0.005,1.031c0.144,0.372,0.626,1.238,1.196,1.104c0.134-0.164-0.265-0.406-0.279-0.899
		c-0.004-0.159,0.022-0.479,0.141-0.731c0.094-0.198,0.213-0.362,0.078-0.431C-129.792-37.362-130.433-37.372-130.698-37.321z
		 M-127.773-36.801c-0.241,0.047-0.23,0.425,0.005,1.038c0.144,0.374,0.626,1.246,1.196,1.104c0.134-0.168-0.265-0.414-0.279-0.91
		c-0.004-0.155,0.022-0.479,0.141-0.733c0.094-0.203,0.213-0.369,0.078-0.437C-126.869-36.843-127.507-36.853-127.773-36.801z
		 M-124.782-36.032c-0.241,0.047-0.23,0.438,0.005,1.064c0.144,0.385,0.626,1.281,1.196,1.139c0.134-0.172-0.265-0.424-0.279-0.934
		c-0.004-0.165,0.022-0.498,0.141-0.762c0.094-0.209,0.213-0.382,0.078-0.44C-123.875-36.075-124.516-36.086-124.782-36.032z
		 M-121.99-35.577c-0.241,0.045-0.23,0.404,0.005,0.987c0.144,0.354,0.626,1.187,1.196,1.056c0.134-0.158-0.265-0.394-0.279-0.865
		c-0.004-0.146,0.022-0.461,0.141-0.698c0.094-0.192,0.213-0.354,0.078-0.409C-121.083-35.616-121.724-35.626-121.99-35.577z
		 M-119.007-35.217c-0.241,0.047-0.23,0.426,0.005,1.038c0.144,0.375,0.626,1.246,1.196,1.104c0.134-0.166-0.265-0.412-0.279-0.903
		c-0.004-0.161,0.022-0.484,0.141-0.739c0.094-0.204,0.213-0.37,0.078-0.438C-118.103-35.259-118.743-35.269-119.007-35.217z
		 M-116.163-34.747c-0.241,0.049-0.23,0.437,0.005,1.051c0.144,0.379,0.626,1.267,1.196,1.121c0.134-0.168-0.265-0.418-0.279-0.92
		c-0.004-0.162,0.022-0.49,0.141-0.748c0.094-0.205,0.213-0.373,0.078-0.436C-115.255-34.788-115.896-34.799-116.163-34.747z"/>
</symbol>
<symbol  id="logo" viewBox="-397.133 -81.146 794.267 162.294">
	<g id="druart-logo_2_">
		<g id="text_2_">
			<path fill="#D8D9DD" d="M-356.08,33.107c0.644,0.672,2.312,1.342,5.017,2.015c2.696,0.67,6.021,1.194,9.955,1.571
				c3.938,0.377,8.327,0.457,13.18,0.252c4.854-0.211,9.771-0.862,14.767-1.951c4.983-1.09,9.812-2.723,14.481-4.9
				c4.668-2.186,8.812-5.141,12.431-8.862c3.608-3.732,6.521-8.304,8.719-13.709c2.197-5.407,3.248-11.854,3.16-19.312
				c0-5.451-1.029-10.145-3.09-14.086c-2.062-3.938-4.692-7.295-7.896-10.062c-3.205-2.771-6.82-5.027-10.852-6.791
				c-4.025-1.771-7.986-3.121-11.877-4.092c-3.894-0.965-7.574-1.609-11.054-1.943c-3.479-0.336-6.271-0.504-8.375-0.504
				c-0.646,0-1.262,0.021-1.854,0.062c-0.594,0.039-1.258,0.105-1.988,0.189l-0.822-1.641l-2.475,0.128l-1.51-3.396l-1.513,0.375
				l-0.551-0.758c-0.365-0.5-0.603-0.759-0.688-0.759c-0.097,0.425-0.162,1.319-0.207,2.706c-0.049,1.385-0.113,3.079-0.205,5.094
				c-2.289,0.754-4.578,1.86-6.863,3.33c-2.289,1.469-4.371,3.354-6.248,5.658c-1.881,2.307-3.389,5.15-4.529,8.555
				c-1.146,3.396-1.717,7.438-1.717,12.14c0.361,0.754,0.729,1.297,1.102,1.631c0.271,0.262,0.551,0.313,0.822,0.188
				s0.412-0.772,0.412-1.946c0-0.841,0.408-1.765,1.23-2.769c0.824-1.009,1.94-1.992,3.358-2.955
				c1.421-0.966,3.14-1.895,5.147-2.771c2.015-0.881,4.259-1.605,6.729-2.189c-0.096,3.604-0.207,7.377-0.348,11.312
				c-0.141,3.943-0.271,7.816-0.412,11.64c-0.139,3.812-0.299,7.508-0.479,11.062c-0.188,3.562-0.412,6.854-0.688,9.875
				c-1.735-0.336-3.457-0.674-5.146-1.008c-1.693-0.334-3.41-0.752-5.146-1.256c-1.104,0.504-2.18,1.562-3.229,3.204
				c-1.056,1.636-1.854,3.5-2.398,5.597c-0.553,2.097-0.73,4.146-0.553,6.164C-358.098,30.214-357.36,31.849-356.08,33.107z
				 M-327.104-29.776c-0.095,1.93-0.117,3.838-0.065,5.725c0.045,1.887,0.065,3.584,0.065,5.092v5.156l-1.233-15.979h0.688
				L-327.104-29.776L-327.104-29.776z M-285.916-7.392c0.09,2.016-0.774,4.188-2.604,6.542c-1.834,2.347-4.42,4.59-7.758,6.729
				c-3.347,2.146-7.304,4.065-11.88,5.787c-4.575,1.715-9.521,2.952-14.827,3.709c-0.095-3.688-0.207-7.634-0.347-11.82
				c-0.137-4.188-0.271-8.316-0.412-12.393c-0.137-4.062-0.299-7.897-0.479-11.511c-0.186-3.604-0.316-6.707-0.408-9.308
				c4.301,0.334,8.719,1.231,13.25,2.698c4.525,1.471,8.646,3.248,12.354,5.354c3.709,2.096,6.772,4.383,9.198,6.854
				C-287.401-12.273-286.102-9.825-285.916-7.392z"/>
			<path fill="#D8D9DD" d="M-195.646,3.342c0-3.104-0.512-5.862-1.531-8.274c-1.021-2.41-2.365-4.537-4.035-6.375
				c-1.668-1.841-3.643-3.453-5.912-4.848c-2.271-1.396-4.66-2.572-7.164-3.562c2.688-4.252,4.564-8.771,5.638-13.549
				c1.062-4.785,1.092-9.062,0.065-12.815c0.188,2.86,0.049,5.479-0.418,7.854c-0.467,2.368-1.021,4.411-1.67,6.131
				c-0.834,2.041-1.764,3.842-2.779,5.396c0.931-2.938,1.718-5.771,2.363-8.465c0.559-2.289,0.994-4.601,1.318-6.933
				c0.324-2.328,0.256-4.146-0.207-5.457c-0.094,0.084-0.162,0.162-0.207,0.244c-0.049,0.084-0.119,0.164-0.211,0.25l-0.275,0.243
				c-0.277-0.493-0.604-0.899-0.975-1.229c-0.277-0.328-0.562-0.635-0.836-0.918c-0.277-0.287-0.516-0.432-0.693-0.432
				c-0.188-0.084-0.467-0.146-0.832-0.188c-0.373-0.038-0.793-0.104-1.256-0.188c-0.467-0.08-0.975-0.203-1.525-0.367l-1.256,1.229
				c-1.393,4.817-3.522,9.344-6.396,13.556c-2.875,4.206-5.847,8.028-8.904,11.463c-2.504-0.323-4.819-0.532-6.957-0.606
				c-2.135-0.086-3.938-0.125-5.424-0.125h-0.836c-0.188-1.883-0.324-3.603-0.416-5.146c-0.097-1.558-0.188-2.902-0.274-4.048
				c-0.097-1.312-0.188-2.452-0.277-3.438c-0.188-0.324-0.418-0.656-0.691-0.979c-0.188-0.327-0.418-0.694-0.693-1.104
				c-0.272-0.41-0.604-0.854-0.975-1.349c-0.188-0.332-0.439-0.735-0.771-1.229c-0.32-0.481-0.625-1.021-0.898-1.595
				c-0.371-0.653-0.744-1.354-1.111-2.086c-0.279-0.082-0.604-0.203-0.977-0.366c-0.648-0.328-1.211-0.729-1.672-1.229
				c-0.096-0.161-0.188-0.354-0.275-0.558c-0.094-0.203-0.23-0.471-0.418-0.797c-0.188-0.322-0.322-0.688-0.416-1.103l-1.111,0.123
				l-1.67-2.329l-0.562,0.242c-0.369,0.165-0.604,0.247-0.691,0.247c-0.371-0.163-0.676-0.473-0.902-0.919
				c-0.231-0.445-0.487-0.681-0.766-0.681c-0.098,0.494-0.188,1.722-0.277,3.687c-0.096,1.959-0.211,4.413-0.352,7.354
				c-0.144,2.939-0.273,6.271-0.416,9.996c-0.144,3.718-0.26,7.621-0.353,11.709c-2.136,1.146-4.081,2.696-5.845,4.66
				c-1.767,1.963-3.15,4.375-4.178,7.229c-0.095,0.243-0.255,0.938-0.482,2.087c-0.229,1.146-0.258,2.122-0.062,2.938
				c0.188-0.812,0.438-1.694,0.768-2.64c0.324-0.938,0.672-1.842,1.043-2.698c0.367-0.854,0.767-1.608,1.185-2.269
				c0.418-0.653,0.812-1.104,1.183-1.354c-1.301,2.369-2.181,4.604-2.644,6.688c-0.468,2.087-0.515,3.817-0.142,5.215
				c0.742-2.044,3.664-3.97,8.767-5.768c-0.188,4.086-0.396,8.053-0.625,11.896c-0.231,3.845-0.44,7.438-0.629,10.791
				c-2.688-0.327-5.521-0.812-8.483-1.471c-1.113,0.322-2.181,1.161-3.199,2.517c-1.021,1.352-1.78,2.84-2.295,4.479
				c-0.51,1.636-0.672,3.271-0.482,4.902c0.188,1.637,0.883,2.939,2.086,3.928c0.646,0.488,2.295,1.12,4.938,1.896
				c2.646,0.772,5.957,1.491,9.947,2.146c3.984,0.652,8.418,1.146,13.285,1.474c4.869,0.324,9.785,0.312,14.748-0.062
				c4.963-0.365,9.811-1.188,14.537-2.452c4.729-1.271,8.904-3.188,12.521-5.767c3.61-2.572,6.541-5.892,8.767-9.935
				C-196.612,14.198-195.555,9.23-195.646,3.342z M-206.496,6.776c0.095,1.715-0.676,3.352-2.295,4.898
				c-1.623,1.557-4.061,2.887-7.307,3.981c-3.246,1.104-7.262,1.944-12.033,2.521c-4.777,0.562-10.271,0.729-16.486,0.484
				c0.095-0.65,0.142-1.328,0.142-2.021c0-0.696,0-1.452,0-2.271c-0.094-3.927-0.229-7.867-0.418-11.832
				c-0.188-3.967-0.418-7.871-0.69-11.711c4.174,0,8.528,0.475,13.074,1.407c4.547,0.938,8.723,2.146,12.52,3.623
				c3.805,1.472,6.957,3.146,9.465,5.025C-208.026,2.771-206.688,4.733-206.496,6.776z"/>
			<path fill="#D8D9DD" d="M-195.6-4.19c-0.146,6.482,0.11,12.323,0.769,17.509c0.659,5.18,1.461,9.582,2.413,13.203
				c0.951,3.614,1.976,6.459,3.072,8.52c1.097,2.062,1.937,3.213,2.524,3.47c2.192,0.866,4.826,1.062,7.897,0.562
				c3.074-0.5,5.924-1.312,8.557-2.438c2.632-1.125,4.83-2.375,6.583-3.747c1.756-1.375,2.485-2.562,2.192-3.562
				c-3.657-12.981-5.45-23.377-5.375-31.179c0.072-7.806,0.988-13.828,2.744-18.066c1.754-4.248,3.765-7.057,6.033-8.43
				c2.264-1.375,3.689-2.062,4.278-2.062c1.021-0.136,2.666,0.312,4.937,1.311c2.266,0.996,4.529,2.686,6.799,5.059
				c2.268,2.373,4.244,5.438,5.925,9.178c1.679,3.744,2.524,8.361,2.524,13.854c0,6.488-0.365,11.896-1.098,16.197
				c-0.73,4.307-1.535,7.707-2.412,10.207c-1.025,2.995-2.123,5.236-3.292,6.736l-0.88,0.188c0.438,0.121,0.803,0.246,1.1,0.373
				c0.582,0.248,0.801,0.562,0.659,0.938c-0.147,0.118-0.405,0.312-0.769,0.562c-0.367,0.248-0.549,0.496-0.549,0.75
				c0,0.248,0.144,0.655,0.438,1.218c0.292,0.562,1.021,1.03,2.194,1.405c2.777,0.996,5.924,1.022,9.433,0.095
				c3.511-0.938,6.802-2.998,9.874-6.181c3.073-3.188,5.667-7.56,7.79-13.106c2.117-5.56,3.104-12.396,2.96-20.508
				c-0.146-6.994-1.207-13.578-3.181-19.758c-1.974-6.175-4.793-11.578-8.445-16.193c-3.657-4.616-8.085-8.271-13.272-10.957
				c-5.195-2.684-10.938-3.965-17.225-3.838c-7.168,0.125-13.531,1.775-19.09,4.961c-5.561,3.188-10.241,7.186-14.042,11.984
				c-3.806,4.807-6.729,10.051-8.776,15.729C-194.357-14.524-195.455-9.187-195.6-4.19z"/>
			<path fill="#D8D9DD" d="M-369.133-62.365c7.844,0.737,17.184,1.314,28.012,1.735c10.826,0.418,22.125,0.688,33.896,0.812
				c11.771,0.122,23.537,0.137,35.31,0.034c11.771-0.104,22.596-0.312,32.479-0.632c9.885-0.312,18.357-0.73,25.42-1.26
				c7.062-0.52,11.688-1.099,13.895-1.729h-0.938c-0.312,0-0.783,0.021-1.41,0.069l6.119-1.188l-3.767-0.146
				c1.25-0.299,2.508-0.562,3.767-0.812c0.941-0.245,1.721-0.491,2.354-0.735c0.625-0.248,0.779-0.42,0.469-0.521
				c-0.939-0.35-2.043-0.91-3.295-1.701c-0.633-0.396-1.256-0.812-1.881-1.258l-4.234,0.366
				c-12.238,0.245-24.562,0.319-36.951,0.229c-12.396-0.104-24.562-0.296-36.48-0.596c-11.932-0.296-23.383-0.683-34.362-1.146
				c-10.983-0.474-21.345-0.951-31.063-1.441c-7.854-0.396-14.283-0.315-19.302,0.228c-5.021,0.541-8.709,1.33-11.062,2.365
				c-2.354,1.032-3.299,2.219-2.822,3.551C-374.545-64.808-372.588-63.548-369.133-62.365z"/>
			<path fill="#D8D9DD" d="M41.478-43.794c0-0.412,0.261-1.141,0.792-2.186c0.521-1.037,1.048-2.113,1.567-3.226
				c0.523-1.104,1.053-2.188,1.58-3.226c0.521-1.038,0.789-1.696,0.789-1.978c-0.219-1.522-0.528-2.812-0.949-3.849
				c-0.418-1.035-0.842-1.978-1.256-2.812c-0.426-0.556-1.108-1.008-2.058-1.352c-0.938-0.354-1.629-0.661-2.048-0.938
				c-0.422-0.416-0.583-0.729-0.475-0.938c0.104-0.206-0.053-0.449-0.475-0.729c-0.427-0.271-0.947-0.479-1.576-0.622
				c-0.633-0.142-1.162-0.349-1.574-0.625c-1.057-0.271-2.209-0.413-3.473-0.413h-1.578c-3.361,0-7.888,2.812-13.559,8.422
				c-5.684,5.615-11.78,13-18.3,22.146c-1.053-0.279-2.159-0.559-3.312-0.829c-1.16-0.275-2.367-0.558-3.622-0.829
				c-3.578,0.271-8.205,0.312-13.883,0.104c-5.681-0.202-11.781-0.521-18.302-0.938c-6.515-0.414-13.091-0.938-19.715-1.562
				s-12.571-1.146-17.823-1.562c-3.58-4.568-7.312-9.109-11.198-13.615c-3.896-4.504-7.942-8.979-12.146-13.404
				c-0.845-0.271-1.372,0-1.575,0.826c-0.215,0.834-0.847,1.527-1.893,2.078c-0.424,0.273-1.162,0.242-2.211-0.104
				c-1.049-0.343-1.889-0.312-2.519,0.104c-0.219,0.142-0.424,0.599-0.636,1.354c-0.212,0.763-0.424,1.481-0.635,2.188l-0.629,2.907
				c-0.842,0-1.684,0.209-2.521,0.62c-1.682,0.555-2.835,1.522-3.471,2.911c-0.21,0.271-0.268,0.795-0.155,1.562
				c0.103,0.758,0.259,1.688,0.478,2.811c0.205,1.105,0.414,2.423,0.625,3.945c-0.625-0.556-1.258-0.967-1.895-1.248
				c-1.261-0.551-2-0.551-2.203,0c-0.424,1.392-0.679,2.738-0.79,4.058c-0.104,1.312,0.056,2.526,0.476,3.642
				c1.473,2.903,4.467,8.211,8.992,15.901c4.519,7.688,9.412,16.867,14.67,27.549c5.255,10.673,10.142,22.479,14.671,35.44
				c4.519,12.959,7.513,26.158,8.99,39.604c12.618,1.106,22.762,1.486,30.444,1.145c7.67-0.346,13.403-1.275,17.189-2.808
				c6.101,0.14,11.618-0.589,16.562-2.183c4.943-1.6,7.831-4.68,8.676-9.25c0.628-3.741,1.627-8.901,2.999-15.483
				C3.888,42.23,6.146,34.366,9.305,25.21c3.153-9.144,7.519-19.534,13.091-31.182C27.97-17.613,35.381-30.434,44.64-44.426
				c0.211-0.558,0.156-0.762-0.152-0.619c-0.314,0.131-0.742,0.377-1.263,0.729c-0.526,0.343-0.942,0.616-1.269,0.828
				C41.635-43.273,41.478-43.378,41.478-43.794z M-57.578-13.026c6.729,0.141,13.615,0.104,20.663-0.104
				c7.044-0.206,13.929-0.521,20.661-0.938C-20.037-8.113-23.717-2.047-27.295,4.12c-3.577,6.163-6.939,12.366-10.094,18.604
				c-3.365-6.521-6.681-12.72-9.936-18.604C-50.588-1.769-54.003-7.48-57.578-13.026z"/>
			<path fill="#D8D9DD" d="M202.992,28.253c0-4.838-1.156-9.133-3.471-12.887c-2.314-3.756-5.357-7.062-9.146-9.928
				c-3.793-2.865-8.26-5.38-13.408-7.542c-5.15-2.174-10.565-4.021-16.244-5.539c6.095-6.619,10.354-13.649,12.775-21.104
				c2.414-7.438,2.465-14.1,0.158-19.957c0.411,4.459,0.104,8.527-0.947,12.229c-1.055,3.688-2.314,6.871-3.789,9.551
				c-1.891,3.181-3.994,5.979-6.309,8.396c2.104-4.584,3.891-8.979,5.359-13.178c1.261-3.562,2.263-7.156,2.998-10.781
				c0.734-3.633,0.576-6.469-0.479-8.496c-0.213,0.129-0.37,0.258-0.475,0.385c-0.106,0.125-0.271,0.25-0.476,0.385l-0.631,0.384
				c-0.634-0.765-1.375-1.396-2.209-1.899c-0.634-0.519-1.262-0.984-1.894-1.438c-0.632-0.44-1.158-0.668-1.578-0.668
				c-0.418-0.123-1.05-0.219-1.892-0.285c-0.842-0.061-1.789-0.157-2.842-0.284c-1.052-0.125-2.201-0.312-3.465-0.563l-2.843,1.896
				c-3.151,7.519-7.991,14.543-14.509,21.104c-6.521,6.555-13.252,12.506-20.188,17.854c-5.679-0.514-10.938-0.828-15.771-0.955
				c-4.842-0.129-8.945-0.188-12.309-0.188h-1.894c-0.419-2.937-0.734-5.604-0.938-8.021c-0.214-2.418-0.425-4.521-0.634-6.301
				c-0.214-2.041-0.421-3.82-0.63-5.35c-0.425-0.506-0.945-1.021-1.575-1.521c-0.428-0.514-0.944-1.086-1.571-1.721
				c-0.638-0.639-1.379-1.336-2.211-2.105c-0.425-0.512-1.002-1.145-1.738-1.896c-0.74-0.771-1.416-1.604-2.047-2.48
				c-0.851-1.021-1.687-2.104-2.529-3.245c-0.628-0.13-1.37-0.315-2.202-0.567c-1.479-0.517-2.735-1.146-3.787-1.906
				c-0.215-0.258-0.418-0.543-0.633-0.861c-0.213-0.312-0.524-0.729-0.938-1.238c-0.425-0.512-0.74-1.075-0.949-1.723l-2.522,0.193
				l-3.78-3.627l-1.266,0.383c-0.848,0.254-1.374,0.381-1.581,0.381c-0.844-0.25-1.524-0.729-2.049-1.432
				c-0.522-0.699-1.103-1.058-1.733-1.058c-0.219,0.771-0.426,2.685-0.634,5.729c-0.215,3.051-0.476,6.871-0.785,11.453
				c-0.315,4.584-0.634,9.77-0.944,15.561c-0.312,5.791-0.582,11.867-0.787,18.234c-4.844,1.775-9.262,4.195-13.256,7.256
				c-3.994,3.053-7.147,6.812-9.459,11.271c-0.215,0.384-0.58,1.464-1.107,3.245c-0.523,1.777-0.579,3.312-0.148,4.579
				c0.409-1.271,0.993-2.644,1.73-4.104c0.734-1.47,1.521-2.867,2.367-4.199c0.843-1.336,1.74-2.517,2.684-3.532
				c0.941-1.021,1.84-1.722,2.682-2.104c-2.945,3.688-4.944,7.157-5.996,10.407c-1.049,3.246-1.156,5.942-0.312,8.11
				c1.686-3.187,8.305-6.181,19.875-8.978c-0.424,6.36-0.898,12.535-1.419,18.521c-0.524,5.98-1.002,11.582-1.422,16.81
				c-6.099-0.521-12.515-1.277-19.242-2.297c-2.521,0.51-4.938,1.812-7.255,3.916c-2.312,2.1-4.046,4.422-5.206,6.969
				c-1.151,2.545-1.521,5.09-1.104,7.637c0.422,2.543,2.006,4.584,4.731,6.109c1.479,0.764,5.206,1.75,11.2,2.959
				c5.994,1.209,13.512,2.322,22.557,3.342c9.041,1.019,19.088,1.781,30.122,2.291c11.046,0.506,22.188,0.479,33.438-0.097
				c11.242-0.572,22.242-1.854,32.966-3.82c10.729-1.976,20.188-4.965,28.394-8.976c8.207-4.015,14.826-9.166,19.877-15.472
				C200.783,45.151,203.199,37.417,202.992,28.253z M178.385,33.602c0.213,2.673-1.526,5.218-5.206,7.638
				c-3.685,2.414-9.199,4.481-16.562,6.203c-7.365,1.722-16.457,3.021-27.283,3.916c-10.838,0.887-23.299,1.146-37.385,0.765
				c0.205-1.021,0.312-2.065,0.312-3.146c0-1.084,0-2.269,0-3.532c-0.215-6.108-0.523-12.252-0.941-18.424
				c-0.427-6.184-0.949-12.253-1.578-18.232c9.463,0,19.35,0.729,29.659,2.188c10.3,1.468,19.763,3.343,28.394,5.636
				c8.619,2.291,15.771,4.896,21.441,7.828C174.918,27.362,177.965,30.417,178.385,33.602z"/>
			<path fill="#D8D9DD" d="M298.391,74.607c15.775-0.433,31.91-1.031,48.428-1.812c16.512-0.775,33.275-1.597,50.314-2.441
				c-0.426-1.99-1.377-4.299-2.836-6.927c-1.479-2.63-3.74-5.257-6.787-7.882c-3.049-2.627-6.938-5.146-11.67-7.562
				c-4.729-2.416-10.572-4.334-17.508-5.748c-7.994-0.287-15.674-0.533-23.031-0.746c-7.369-0.215-14.408-0.463-21.135-0.746
				c-0.424-10.793-1.215-21.616-2.373-32.478c-1.156-10.86-2.363-20.771-3.625-29.707c-1.477-10.36-3.049-20.312-4.729-29.812
				L296.5-61.688l-2.525,0.213l-5.049-7.666c-0.213,0.279-0.521,0.496-0.938,0.64c-0.854,0.28-1.791,0-2.848-0.853
				c-0.42-0.287-1.053-1.146-1.893-2.559c-0.428-0.564-0.74-1.203-0.943-1.918h-2.521l-4.104-4.264l-2.842,5.326
				c-0.424-1.277-0.938-2.479-1.574-3.619c-0.42-0.988-0.846-1.885-1.262-2.664c-0.424-0.774-0.85-1.17-1.266-1.17
				c-0.211,1.137-0.422,3.832-0.631,8.09c-0.212,4.266-0.369,9.551-0.479,15.865c-0.104,6.312-0.268,13.45-0.479,21.399
				c-0.214,7.946-0.423,16.146-0.639,24.601c-0.213,8.44-0.475,16.896-0.777,25.342c-0.314,8.445-0.689,16.438-1.107,23.957
				c-14.307-0.562-25.504-0.994-33.598-1.273c-8.105-0.283-13.521-0.5-16.246-0.645c-4.416-0.142-8.148,0.645-11.199,2.344
				c-3.045,1.705-5.413,3.867-7.098,6.498c-1.683,2.621-2.729,5.463-3.154,8.521c-0.424,3.051-0.262,5.924,0.476,8.625
				c0.739,2.688,1.998,5.004,3.782,6.92c1.787,1.916,4.16,3.016,7.104,3.301c7.998,0.707,16.719,1.205,26.184,1.49
				c9.461,0.281,19.562,0.426,30.283,0.426c1.268,0.854,2.416,1.42,3.469,1.705c1.896,0.426,4.203,0.778,6.941,1.062
				c2.729,0.279,5.621,0.394,8.678,0.312c3.043-0.068,6.096-0.393,9.146-0.957C292.445,76.807,295.438,75.886,298.391,74.607z"/>
		</g>
		<g id="pincel_2_">
			<g>
				<path fill="#211915" d="M-389.383-41.88c-1.58-1.135-3.201-3.104-4.104-4.283c1.705,3.438,3.646,6.767,4.646,10.438
					c-0.729-0.562-1.404-1.183-2.062-1.836c1.012,1.273,2.108,2.562,2.896,3.982c0.229,0.91,0.496,1.734,0.825,2.236l13.481,1.303
					c0.104-0.062,0.354-0.389,0.453-0.452c-0.146,0.146-0.25,0.259-0.256,0.253c0.012,0.021,2.441-1.693,3.037-2.396
					c1.439-1.553,2.562-3.295,3.693-5.063c0.475-0.719,1.396-2.479,1.984-4.146c0.611-1.66,0.936-3.178,0.938-3.176
					c0.016,0.008-0.713,1.649-0.863,2.021c-0.492,1.354-1.27,2.589-2.01,3.8c-0.562,0.903-1.107,1.724-1.666,2.519
					c0.227-0.479,0.434-0.947,0.617-1.435c-0.004,0.11-0.006,0.192-0.006,0.192c-0.043-0.021,0.795-2.092,0.98-2.726
					c0.373-1.521,0.604-3.041,1.145-4.521c0.219-0.598,0.646-2.01,1.111-3.24c0.446-1.231,1.043-2.229,1.061-2.229
					c-0.021-0.029-0.938,1.012-1.061,1.307c-0.49,0.98-1.104,1.937-1.547,2.945c-0.104,0.229-0.187,0.459-0.271,0.688
					c0.029-0.891,0.02-1.771-0.021-2.666c0.045-0.418,0.065-0.836,0.166-1.239c0.062-0.396,0.403-1.81,0.428-1.808
					c0.002,0-0.215,0.373-0.244,0.473c-0.104,0.316-0.266,0.641-0.359,0.973c-0.021,0.08-0.027,0.146-0.053,0.229
					c-0.281-3.897-1.102-7.776-2.021-11.659c-1.607-6.5-3.844-13.125-4.463-19.75c-0.371,1.875-1.607,3.5-2.104,5.375
					c-0.496-0.75-0.744-1.625-0.744-2.625c-1.486,3.125-4.672,7.062-6.441,10.125c-1.732,2.991-2.064,4.625-2.105,8.75
					c-0.991-2-0.868-5-0.247-7c-2.479,4.125-2.978,9.875-2.978,14.5c-0.869-2.875-0.869-6.125-0.99-9.125
					c-1.366,3.775-1.68,8.059-1.562,11.898c-0.631-1.078-1.131-2.246-1.266-3.409c0.135,2.61,0.818,5.069,1.557,7.604
					c0.062,0.623,0.139,1.219,0.213,1.774c-0.727-1-1.451-2.168-2.045-3.312C-390.916-45.087-389.783-42.185-389.383-41.88z"/>
				<path fill="#D8D9DD" d="M-382.145-64.155c0.021,0.51,0.021,1.021,0.012,1.538c0.566-0.305,0.926-0.979,1.564-1.078
					c0.146,1.648-1.521,3.129-1.455,4.726c0.918-0.836,1.521-2.429,2.693-2.904c-0.092,0.566-0.295,1.508,0.135,1.938
					c0.438-0.287,0.908-0.604,1.32-0.908c0.166,0.57,0.199,1.213,0.367,1.762c1.219-2.643,1.299,1.941,1.463,2.423
					c1.246-0.765,1.799-4.843,3.6-4.397c0.068,0.627,0.295,1.188,0.23,1.877c0.631-0.939,0.987-1.994,1.69-2.938
					c0.748,0.949,0.844,3.709,1.019,4.98c0.317-1.193,0.573-2.839,1.041-4.314c-1.605-6.479-3.83-13.09-4.449-19.69
					c-0.369,1.875-1.605,3.5-2.104,5.375c-0.494-0.75-0.74-1.625-0.74-2.625c-1.488,3.125-4.674,7.062-6.445,10.125
					c-0.961,1.654-1.485,2.896-1.774,4.384c0.104,0.301,0.235,0.586,0.479,0.866C-383.229-63.558-382.598-63.847-382.145-64.155z"/>
				<g>
					<path fill="#524543" d="M-382.629-39.233c0.025,0.354,0.021,1.257,0.062,2.06c0.025,0.805,0.102,1.512,0.096,1.512
						c0.006,0,0.166-0.688,0.387-1.452c0.215-0.771,0.48-1.618,0.543-2.021c0.021-0.179,0.041-0.354,0.062-0.531
						c0.021,0.341,0.049,0.869,0.1,1.359c0.06,0.61,0.154,1.146,0.152,1.146c0.002,0,0.123-0.479,0.305-1.022
						c-0.008,0.521-0.062,1.636-0.043,2.646c0.014,1.068,0.111,2.012,0.111,2.012s0.131-0.924,0.361-1.942
						c0.229-1.028,0.561-2.163,0.646-2.704c0.396-2.533,0.756-5.068,1.24-7.671c0.021-0.106,0.043-0.241,0.062-0.392
						c-0.002,0.021-0.004,0.031-0.013,0.058c-0.396,2.013-0.569,4.086-0.575,6.312c-0.011,0.621-0.101,2.188-0.22,3.591
						c-0.106,1.405-0.272,2.653-0.271,2.655c-0.002,0,0.391-1.172,0.748-2.547c0.367-1.371,0.729-2.931,0.828-3.66
						c0.172-1.312,0.312-2.604,0.479-3.896c-0.074,0.625-0.093,1.271,0.021,1.981c0.062,0.455,0.021,2.232,0.025,2.23
						c-0.004-0.006,0.293-0.502,0.568-1.021c-0.068,0.312-0.141,0.619-0.203,0.941c-0.104,0.486-0.449,1.688-0.74,2.771
						c-0.295,1.095-0.488,2.065-0.49,2.065c0.002,0,0.41-0.887,0.938-1.875c0.521-0.989,1.133-2.104,1.338-2.66
						c0.441-1.188,0.818-2.434,1.115-3.688c-0.078,0.688-0.146,1.389-0.187,2.17c-0.014,0.293-0.151,1.008-0.344,1.643
						c-0.187,0.637-0.396,1.189-0.396,1.189c-0.002,0,0.412-0.437,0.83-0.979c0.062-0.08,0.123-0.166,0.188-0.25
						c-0.029,0.168-0.062,0.32-0.092,0.494c-0.066,0.758-1.146,3.617-1.178,3.604c-0.002,0,0.489-0.566,1.004-1.28
						c0.521-0.707,1.047-1.562,1.203-1.987c0.33-0.871,0.562-1.758,0.752-2.649c0,0.163-0.013,0.317,0.008,0.495
						c0.035,0.355-0.229,1.674-0.229,1.674c0,0.011,0.457-0.381,0.822-0.756c-0.09,0.438-0.166,0.892-0.236,1.365
						c-0.043,0.285-0.271,0.967-0.529,1.562c-0.266,0.598-0.562,1.1-0.562,1.1c-0.002,0,0.477-0.347,0.963-0.826
						c0.383-0.367,0.756-0.812,0.979-1.146c-0.258,0.601-0.518,1.214-0.76,1.896c-0.166,0.592-1.529,2.604-1.561,2.59
						c0,0,0.521-0.312,1.092-0.732c0.562-0.419,1.17-0.956,1.383-1.268c0.99-1.432,1.518-3.06,2.174-4.631
						c0.273-0.638,0.688-2.215,0.795-3.646c0.129-1.436-0.018-2.678-0.012-2.674c0.014,0.015-0.373,1.424-0.434,1.729
						c-0.07,0.62-0.271,1.219-0.51,1.801c0.119-1.054,0.174-2.114,0.188-3.183c0.146-1.722-1.2-7.461-1.106-7.478
						c-0.012-0.002-0.18,1.74-0.123,2.123c0.125,1.062,0.09,2.146,0.062,3.205c-0.104-0.504-0.188-0.832-0.188-0.83
						c0.017,0.008-0.168,1.396-0.174,1.688c0.032,0.688-0.102,1.373-0.254,2.047c0-0.006,0-0.013,0-0.021
						c-0.029-0.794-0.195-1.466-0.188-1.464c0.008,0.014-0.315,0.781-0.336,0.943c-0.035,0.613-0.433,1.178-0.642,1.74
						c-0.062,0.166-0.119,0.317-0.182,0.479c0.08-0.438,0.162-0.895,0.252-1.34c0.184-0.846,0.361-2.848,0.332-4.625
						c-0.01-1.771-0.18-3.325-0.176-3.325c0.006,0.01-0.314,1.812-0.348,2.198c-0.033,1.229-0.351,2.449-0.617,3.647
						c0.01-0.696-0.016-1.521-0.062-2.299c-0.088-1.356-0.219-2.556-0.217-2.556c0.004,0.002-0.334,1.39-0.342,1.697
						c-0.016,1-0.285,2-0.465,2.979c0.016-0.196,0.049-0.396,0.057-0.604c0.111-1.135,0.01-3.736,0.074-6.029
						c0.035-2.305,0.535-4.283,0.549-4.272c0.004,0-0.268,0.528-0.486,1.158c-0.229,0.633-0.434,1.351-0.469,1.606
						c-0.271,1.9-0.602,3.846-0.754,5.74c-0.154,1.773-0.252,3.338-0.604,4.834c-0.063,0.311-0.146,0.619-0.215,0.93
						c0.049-0.559,0.104-1.117,0.229-1.674c0.107-0.48,0.207-1.646,0.197-2.68c0-1.041-0.131-1.939-0.127-1.939
						c0.006,0.008-0.357,1.029-0.385,1.252c-0.062,0.826-0.479,1.611-0.703,2.404c-0.188,0.672-0.354,1.299-0.465,1.938
						c0.03-0.233,0.061-0.479,0.098-0.729c0.309-1.67,0.498-3.443,0.613-5.188c0.131-1.422,0.049-4.729-0.445-7.623
						c-0.439-2.896-1.312-5.327-1.316-5.315c-0.004,0,0.146,0.729,0.246,1.561l0.248,2.049c0.396,2.347,0.271,4.771,0.18,7.119
						c-0.098,2.146-0.312,4.088-0.645,5.98c0.186-1.224,0.342-3.387,0.062-5.32c-0.271-2.229-1.097-4.02-1.087-4.016
						c-0.004,0,0.112,0.559,0.188,1.18l0.166,1.543c0.199,1.207,0.104,2.438-0.064,3.646c-0.021-0.3-0.039-0.479-0.039-0.479
						c0.016,0.014-0.373,1.271-0.424,1.539c-0.115,1.016-0.625,1.959-0.943,2.932c-0.008,0.021-0.016,0.041-0.021,0.062
						c0.164-0.901,0.367-2.479,0.438-3.912c0.093-1.664-0.04-3.119-0.038-3.117c0.014,0.011-0.369,1.675-0.427,2.035
						c-0.108,1.338-0.625,2.631-0.957,3.933C-382.299-43.905-382.84-41.827-382.629-39.233z"/>
					<path fill="#524543" d="M-385.672-42.095c0.18,0.461,0.703,2.293,0.717,2.287c-0.006-0.004,0.037-0.227,0.097-0.521
						c-0.062,0.778-0.328,2.071-0.349,2.071c-0.008-0.002,0.336-0.396,0.672-0.907c0.054-0.068,0.104-0.15,0.15-0.229
						c-0.018,0.426-0.031,0.944-0.023,1.451c0.009,0.812,0.078,1.524,0.074,1.524c0.004,0,0.162-0.693,0.4-1.466
						c0.229-0.771,0.555-1.604,0.635-2.01c0.367-1.912,0.646-3.826,1.021-5.854c0.432-1.688-0.279-7.561-0.244-7.551
						c-0.004-0.002-0.313,1.717-0.312,2.103c0.021,1.312-0.236,2.622-0.437,3.892c0.008-1.42-0.021-2.854-0.004-2.854
						c-0.002-0.002-0.476,1.166-0.492,1.438c-0.101,0.967-0.481,1.922-0.668,2.877c-0.151,0.797-0.271,1.521-0.354,2.24
						c-0.129-0.809-0.256-1.604-0.209-2.436c0.031-0.52-0.021-1.729,0.002-2.812c0.019-1.095,0.113-2.061,0.109-2.061
						c-0.008-0.006-0.549,1.035-0.578,1.293c-0.143,0.896-0.533,1.785-0.668,2.707C-386.373-45.2-386.379-43.726-385.672-42.095z"/>
					<path fill="#524543" d="M-369.957-59.413c-0.449-0.971-0.926-1.77-0.922-1.771c0.002,0.004,0.092,1.123,0.166,1.347
						c0.295,0.812,0.264,1.725,0.361,2.545c0.188,1.562,0.258,2.782,0.812,4.366c0.166,0.438,0.332,2.271,0.324,2.271
						c0.004,0.01,0.473-1.062,0.666-1.806c0.043,0.414,0.086,0.825,0.146,1.271c0.049,0.341,0.061,1.193-0.012,1.974
						c-0.053,0.771-0.188,1.459-0.188,1.459c-0.004,0,0.354-0.601,0.66-1.348c0.312-0.744,0.58-1.623,0.615-2.039
						c0.088-0.979,0.051-1.939-0.019-2.896c-0.051-0.938-0.168-1.965-0.37-2.93c-0.078-0.396-0.273-1.041-0.591-1.733
						c-0.31-0.696-0.717-1.443-1.09-2.146c-0.771-1.389-1.256-2.697-1.246-2.701c-0.024-0.004,0.164,1.668,0.334,2.01
						c0.492,1.229,0.832,2.55,1.146,3.752c0.24,0.923,0.354,1.768,0.41,2.604c-0.104-0.522-0.226-1.048-0.306-1.574
						C-369.11-57.288-369.494-58.447-369.957-59.413z"/>
				</g>
				<path fill="#8D694B" d="M-387.129-29.673c1.041-0.205,3.979-0.021,5.729,0.115c2.336,0.188,4.771,0.188,6.762,0.657
					c1.666,0.396,3.017,3.494-0.655,3.933c0.127,3.979-0.574,17.98-0.898,21.656c1.514,0.436,1.247,2.236,0,2.625
					c1.055,0.533,1.029,2.391-0.41,2.489c1.293,0.73,0.264,3.477-0.178,5.441c-0.518,2.354-14.756,72-19.42,73.572
					c-2.377-1.961,2.346-75.188,2.375-76.132c0.072-2.094-0.096-5.038,1.146-5.438c-1.041-0.593-0.883-1.521,0.097-1.919
					c-0.851-0.59-0.758-2.247,0.453-2.166c1.516-7.188,2.635-14.389,5.229-21.357C-388.856-26.839-388.856-29.019-387.129-29.673"/>
				<path fill="#654D35" d="M-393.832,4.693c-0.033,0.938-4.75,74.169-2.375,76.131c-0.602-14.666,6.605-75.938,6.752-76.517
					c-4.42-0.294,0,0-4.354-0.729C-393.812,3.967-393.817,4.342-393.832,4.693z"/>
				<path fill="#CECDCA" d="M-392.688-0.739c-1.025,0.323-1.086,2.428-1.119,4.319c4.354,0.729,13.021,1.703,17.438,1.996
					c0.402-1.604,0.713-3.229-0.237-3.771c1.44-0.104,1.469-1.956,0.41-2.487c1.247-0.388,1.514-2.189,0-2.625
					c0.325-3.675,1.026-17.682,0.899-21.656c3.396-0.402,2.5-3.074,1.029-3.791l0.271,0.021c0.101-0.286,0.211-1.017,0.31-1.306
					c-4.104-0.336-9.093-1.012-13.483-1.301c0,0.48,0.043,1.668,0.043,1.668c-1.729,0.654-1.729,2.834,0.219,3.488
					c-2.596,6.975-3.715,14.172-5.229,21.359c-1.213-0.082-1.303,1.571-0.45,2.166C-393.569-2.261-393.729-1.329-392.688-0.739z"/>
				<path fill="#FFFFFF" d="M-377.416-21.294c0.01-0.002,0.187,3.941,0.004,8.439c-0.146,4.497-0.58,9.543-0.912,11.715
					c-0.803,5.354-1.02,9.829-2.104,15.189c-0.229,1.146-1.266,6.392-2.1,8.521c-0.822,2.146-1.703,5.979-1.709,5.979
					c0.006,0,0.496-3.935,0.883-6.104c0.396-2.173,0.869-6.642,0.926-7.593c1.029-7.061,1.338-12.549,2.479-19.422
					c0.603-3.688,1.513-7.419,1.74-11.104C-378.121-16.688-377.385-21.292-377.416-21.294z"/>
			</g>
			<g>
				<path fill="#222222" d="M-387.264-29.644c0.076-0.029,0.131-0.048,0.121-0.057C-387.131-29.69-387.182-29.677-387.264-29.644z"
					/>
				<path fill="#222222" d="M-373.649-25.276c-0.242,0.149-0.509,0.26-0.771,0.344c-0.14,0.043-0.271,0.075-0.408,0.102
					c-0.133,0.031-0.152,0.029-0.234,0.045c-0.021,0.051,0,0.143-0.008,0.211l0.012,0.402l0.006,0.83
					c-0.002,2.217-0.062,4.498-0.137,6.783l-0.271,6.811l-0.168,3.312l-0.185,2.896l0.037,0.012c0.01,0.013,0.131,0.062,0.2,0.107
					c0.164,0.1,0.314,0.229,0.438,0.385c0.252,0.312,0.371,0.729,0.344,1.109c-0.024,0.385-0.182,0.747-0.416,1.03
					c-0.354,0.37-0.271,0.25-0.313,0.291c0.021,0.012,0.03,0.021,0.045,0.025c-0.021-0.021,0.062,0.067,0.106,0.149
					c0.054,0.078,0.097,0.162,0.136,0.248c0.151,0.342,0.198,0.717,0.137,1.082c-0.062,0.357-0.254,0.722-0.551,0.957
					c-0.058,0.051-0.188,0.129-0.188,0.132l-0.021,0.007c-0.009,0.005-0.021,0.005-0.021,0.009l0.021,0.021
					c0.01,0.021-0.015-0.039,0.075,0.146c0.117,0.269,0.166,0.521,0.188,0.769c0.041,0.479-0.01,0.921-0.068,1.317
					c-0.131,0.812-0.328,1.52-0.481,2.14c-2.72,12.721-5.431,25.321-8.405,37.812c-1.488,6.25-3.023,12.484-4.705,18.697
					c-0.847,3.104-1.722,6.209-2.697,9.289c-0.49,1.539-1.006,3.075-1.592,4.591c-0.295,0.757-0.604,1.51-0.974,2.247
					c-0.183,0.369-0.375,0.729-0.604,1.086c-0.119,0.175-0.235,0.351-0.389,0.517c-0.217,0.241-0.469,0.401-0.738,0.515
					c-0.156-0.146-0.272-0.306-0.36-0.527c-0.084-0.26-0.113-0.406-0.144-0.555c-0.062-0.312-0.102-0.619-0.137-0.935
					c-0.062-0.606-0.104-1.226-0.135-1.84c-0.062-1.225-0.084-2.449-0.1-3.675c-0.066-6.826,0.358-18.938,1.059-32.612
					c0.346-6.838,0.75-14.062,1.178-21.227l0.654-10.627c0.098-1.742,0.244-3.479,0.301-5.162c0.02-0.851,0.021-1.695,0.107-2.538
					c0.045-0.421,0.113-0.841,0.244-1.249c0.119-0.396,0.41-0.861,0.658-0.922c0.061-0.017,0.014-0.038-0.021-0.062
					c-0.035-0.021-0.07-0.041-0.104-0.064c-0.07-0.059-0.109-0.09-0.197-0.188c-0.154-0.183-0.271-0.43-0.263-0.688
					c0.003-0.266,0.142-0.496,0.31-0.664c0.098-0.099,0.168-0.146,0.229-0.188c0.058-0.047,0.183-0.063,0.188-0.106
					c-0.264-0.152-0.557-0.807-0.463-1.302c0.035-0.264,0.146-0.521,0.354-0.698c0.205-0.188,0.513-0.246,0.653-0.229
					c0.062-0.166,0.107-0.479,0.175-0.769l0.181-0.854l0.342-1.678l0.656-3.229c0.428-2.101,0.854-4.069,1.291-5.896
					c0.854-3.625,1.842-6.697,2.625-8.826c-0.652-0.205-1.248-0.764-1.396-1.34c-0.178-0.586,0.006-1.121,0.232-1.451
					c0.174-0.224,0.336-0.354,0.483-0.469c-0.156,0.117-0.334,0.284-0.5,0.531c-0.229,0.344-0.36,0.893-0.164,1.444
					c0.188,0.562,0.715,1.031,1.397,1.256c-1.021,2.822-2.131,6.755-2.959,10.701c-0.424,1.976-0.809,3.945-1.16,5.777l-0.514,2.622
					l-0.234,1.201c-0.086,0.396-0.135,0.707-0.26,1.205c-0.473-0.022-0.604,0.07-0.771,0.254c-0.146,0.181-0.195,0.419-0.194,0.638
					c0.002,0.229,0.062,0.438,0.146,0.604c0.045,0.146,0.342,0.416,0.539,0.556c-0.035,0.052-0.172,0.089-0.24,0.129
					c-0.131,0.065-0.262,0.134-0.361,0.214c-0.072,0.062-0.139,0.121-0.189,0.19c-0.104,0.142-0.157,0.308-0.139,0.471
					c0.021,0.164,0.105,0.322,0.229,0.456c0.146,0.187,0.543,0.354,0.616,0.479c-0.204,0.083-0.469,0.201-0.594,0.322
					c-0.096,0.104-0.156,0.216-0.221,0.341c-0.117,0.239-0.188,0.521-0.247,0.807c-0.106,0.562-0.146,1.146-0.171,1.729
					c-0.031,1.166-0.031,2.363-0.125,3.537l-0.404,7.071l-0.752,14.181c-0.469,9.468-0.896,18.939-1.229,28.375
					c-0.148,4.357-0.271,8.629-0.328,12.83c-0.023,2.104-0.035,4.188,0.002,6.25c0.021,1.032,0.051,2.062,0.113,3.077
					c0.025,0.509,0.068,1.015,0.137,1.509c0.031,0.246,0.064,0.493,0.119,0.729l0.029,0.137c0.002,0.006,0.008,0.018,0.018,0.02
					c0.021-0.011,0.021-0.008,0.043-0.028c0.115-0.127,0.225-0.285,0.33-0.443c0.205-0.323,0.393-0.672,0.562-1.029
					c0.351-0.715,0.652-1.461,0.943-2.212c0.574-1.504,1.087-3.034,1.568-4.562c0.973-3.071,1.832-6.157,2.664-9.243
					c1.66-6.175,3.176-12.354,4.658-18.584c1.479-6.232,2.922-12.523,4.362-18.949l2.162-9.748l1.086-4.967
					c0.369-1.66,0.695-3.365,1.166-5.03c0.119-0.479,0.259-1.038,0.33-1.663c0.035-0.312,0.051-0.643-0.004-0.971
					c-0.026-0.162-0.072-0.323-0.151-0.468c-0.109-0.196-0.431-0.416-0.662-0.573c0.231-0.05,0.875-0.116,0.989-0.278
					c0.19-0.146,0.326-0.371,0.377-0.626c0.054-0.256,0.021-0.536-0.084-0.789c-0.062-0.135-0.104-0.224-0.237-0.365
					c-0.144-0.139-0.355-0.271-0.535-0.363c0.834-0.271,1.123-0.692,1.195-1.267c0.024-0.271-0.054-0.562-0.228-0.778
					c-0.188-0.229-0.392-0.361-0.802-0.488l0.229-3.133l0.199-3.229l0.342-6.719c0.102-2.269,0.188-4.543,0.225-6.763v-1.655
					l-0.004-0.209c-0.018-0.078,0.111-0.039,0.164-0.062c0.139-0.021,0.271-0.05,0.398-0.068c0.26-0.062,0.521-0.138,0.756-0.254
					c0.479-0.228,0.896-0.627,0.996-1.15c0.104-0.518-0.064-1.051-0.354-1.467c-0.281-0.42-0.688-0.762-1.146-0.922
					c-0.475-0.131-0.943-0.209-1.41-0.279c-0.934-0.137-1.832-0.201-2.688-0.258c-1.703-0.09-3.217-0.229-4.48-0.312
					c-2.479-0.186-3.988-0.062-4.061-0.016l0.004,0.053l-0.006-0.052c0,0.001-0.012,0.002-0.012,0.003
					c0-0.001,0.012-0.002,0.012-0.003l-0.047-0.829l-0.027-0.688c-0.065-0.196,0.154-0.106,0.215-0.121l0.189,0.013
					c1.323,0.094,2.674,0.172,4,0.293c2.479,0.229,4.525,0.461,6.973,0.783l2.146,0.234c-0.166,0.622-0.271,1.134-0.311,1.25
					c0.24,0.146,0.459,0.336,0.641,0.557c0.336,0.409,0.59,0.936,0.57,1.521C-372.774-26.128-373.16-25.565-373.649-25.276z
					 M-373.924-29.128l0.072-0.418l0.086-0.438l-1.176-0.065l-0.963-0.075l-5.703-0.644l-4.188-0.43l-1.154-0.104
					c-0.086,0.008-0.188-0.043-0.195,0.017v0.229l0.004,0.459l0.021,0.867c0.062-0.049,1.541-0.188,3.974-0.041
					c1.244,0.062,2.729,0.188,4.41,0.256c0.844,0.043,1.729,0.094,2.657,0.207c0.465,0.055,0.938,0.131,1.416,0.233
					c0.238,0.049,0.465,0.146,0.674,0.271C-373.979-28.846-373.955-28.948-373.924-29.128z"/>
				<path fill="#222222" d="M-387.344-29.605c0.029-0.021,0.059-0.027,0.08-0.037C-387.283-29.635-387.312-29.62-387.344-29.605z"/>
				<path fill="#222222" d="M-387.643-29.427c0.045-0.033,0.086-0.062,0.127-0.086C-387.555-29.489-387.598-29.458-387.643-29.427z"
					/>
				<path fill="#222222" d="M-387.516-29.513c0.062-0.039,0.119-0.07,0.172-0.095C-387.395-29.583-387.451-29.551-387.516-29.513z"
					/>
				<path fill="#222222" d="M-376.944,5.673c0,0.108-2.736,0.121-3.56,0.021c-1.932-0.189-3.779-0.511-5.697-0.75
					c-1.557-0.168-7.166-1.172-7.146-1.271c-0.002,0.024,1.646,0.237,2.013,0.289c1.312,0.22,2.651,0.322,3.979,0.48
					c2.465,0.29,4.512,0.538,6.943,0.938C-379.742,5.52-376.959,5.781-376.944,5.673z"/>
				<path fill="#222222" d="M-386.098,0.479c-1.283-0.188-5.906-1.128-5.891-1.207c-0.008,0.021,1.354,0.229,1.652,0.275
					c1.08,0.2,2.188,0.319,3.285,0.483c2.032,0.303,3.723,0.562,5.719,1c0.561,0.127,2.844,0.504,2.848,0.488
					c-0.002,0.014-2.254-0.134-2.934-0.24C-382.994,1.05-384.52,0.729-386.098,0.479z"/>
				<path fill="#222222" d="M-386.877-2.331c2.105,0.312,3.853,0.562,5.922,0.979c0.572,0.131,2.945,0.432,2.953,0.383
					c-0.002,0.048-2.338-0.019-3.037-0.125c-1.646-0.213-3.225-0.529-4.854-0.777c-1.328-0.182-6.104-1.146-6.092-1.221
					c-0.003,0.02,1.401,0.225,1.717,0.276C-389.149-2.612-388.006-2.492-386.877-2.331z"/>
				<path fill="#222222" d="M-386.223-4.198c1.971,0.233,3.604,0.438,5.547,0.753c0.537,0.104,2.764,0.312,2.77,0.254
					c0,0.054-2.184,0.066-2.838-0.014c-1.541-0.146-3.021-0.397-4.553-0.599c-0.619-0.077-2.055-0.306-3.322-0.543
					c-1.272-0.229-2.379-0.513-2.377-0.521c0,0.021,1.31,0.215,1.604,0.26C-388.354-4.423-387.276-4.331-386.223-4.198z"/>
				<path fill="#222222" d="M-385.104-26.193l2.401,0.041c1.488,0.062,2.729,0.176,4.183,0.479l2.045,0.413l-2.104-0.23
					c-1.146-0.166-2.252-0.334-3.398-0.409c-0.936-0.081-4.336-0.276-4.336-0.271C-386.324-26.173-385.33-26.2-385.104-26.193z"/>
			</g>
		</g>
	</g>
</symbol>
<use xlink:href="#cachalote-cuerpo"  width="376.393" height="116.772" x="-188.197" y="-58.386" transform="matrix(1 0 0 -1 0.5 213)" overflow="visible"/>
<use xlink:href="#logo"  width="794.267" height="162.294" x="-397.133" y="-81.146" transform="matrix(0.0838 0 0 -0.0838 113.918 251.7998)" overflow="visible"/>
</svg>
