<svg id="cachalote" xmlns="http://www.w3.org/2000/svg" viewBox="0 0 400 125">
<path fill="#565556" d="M14.714,22.227c3.123-1.802,4.496-5.833,16.496-5.833c5.413,0,9.068-1.065,12.669-1.333
	c4.382-0.312,8.617,0.106,14.998-0.667c11.002-1.333,31.333-1,42.333-3.667s11.601-6.38,17.278-5.441
	c3.724,0.606,10.486,5.777,20.393,6.057c9.679,0.27,20.998,1.556,32.329,2.617c12.874,1.207,30.079-1.418,41.168-3.562
	c14.666-2.833,16.002-7.344,21.334-6.333c2.404,0.456,4.168,2,5.502,5.167c1.129,2.688,4.666,3.148,6.5,3.5
	c3.666,0.703,4.162,3,6.162,2.667s6.146-0.396,7.338,0.499c1.332,1,0.996,4.834,3.328,4.834c2.334,0,3.334,0.229,5.334,2.279
	s6.332,3.055,9,3.055c2.666,0,3.334-1,5.334,0s4.332,2.666,6.666,2.333s6.104-0.552,8.004-0.834c3.672-0.544,4.996,3.5,7.33,3.834
	c2.332,0.334,3.666,3.667,5.666,4.333s3.332,2.333,6,3.667c2.666,1.334,5.668,4,8.334,4.667s3.666,1.333,6,3.333
	c2.332,2,3.836,4.666,7.17,3.666s18.432-16.51,23.334-20.167c4.424-3.298,12.283-7.399,13.666-1.333
	c0.231,1.021-4.994,3.499-5.334,9.333c-0.178,3.068-0.166,22.5-2.17,26.168c2.666,3,7.342,13,7.338,17s3.301,19.687,5.328,24
	c2.506,5.332,4.672,6.666,7,6.666c2.688,0-0.66,9.166-11.883,5.796c-7.287-2.188-14.976-12.349-20.449-19.796
	c-6.496-8.835-18.324-29.725-23.691-29.304c-5.971,0.469-14.52,3.524-19.854,6.524c-5.332,3-10.117,5.604-12.117,7.271
	s-9.318,2.146-13.672,3.166c-5.662,1.334-14.988,6.668-19.662,10.334c-2.824,2.22-9.365,1.758-14.338,3.334
	c-6.83,2.166-13.666,9-18.666,9.666s-7.666-0.334-13,2s-37.333,9.188-47.667,7.926c-10.334-1.26-48.667-3.926-58-5.926
	s-40.461-6.326-48.164-5.666c-11.369,0.979-35.053,2.398-37.178,2.195c-2.362-0.229-5.222-2.188-3.761-3.854
	c0.904-1.021,12.109-2.26,17.372-3.262c15.931-3.031,20.231-5.379,26.064-7.421c6.667-2.334,9.669-5.166,9.669-5.166
	s-16.283-1.491-32.003-1.168c-16.164,0.334-21.997,2.5-23.795,0.44c-2.298-2.639-5.537-8.946-6.702-12.44
	c-1.167-3.5-0.208-9.333-1.189-14s-0.814-18.379-1.684-23.833C11.496,35.287,11.443,24.115,14.714,22.227z"/>
<path fill="#545353" d="M304.354,67.701c-15.709,2.938-33.164,6.691-49.357,5.914c-9.106-0.441-18.76-2.211-28.146-1.4
	c-8.578,0.74-17.203,3.531-25.966,4.012c-8.647,0.479-15.723-3.1-24-3.5c-8.255-0.396-16.474,3.271-24.418,5.448
	c1.056,0.464,2.104,1.206,3.066,2.112c1.532,1.395,2.929,3.172,4.664,4.678c1.744,1.497,4.091,2.2,6.025,3.587
	c0.965,0.686,1.806,1.61,2.208,2.729c0.421,1.098,0.445,2.312,0.13,3.37c-0.65,2.151-2.256,3.644-3.727,4.589
	c-1.495,0.979-3.043,1.32-4.171,1.393c-2.846,0.21-5.505-0.837-8.076-1.646c-0.654-0.224-1.283-0.357-1.965-0.602
	c-0.661-0.248-1.256-0.582-1.873-0.801c-0.604-0.215-1.292-0.307-1.959-0.486c-0.67-0.151-1.365-0.48-1.914-0.869l-3.438-2.195
	l-1.718-1.104c-0.564-0.341-1.2-0.777-1.654-1.321c-0.953-1.084-1.479-2.405-2.032-3.646c-0.546-1.245-1.141-2.471-2.06-3.426
	c-0.256-0.271-0.58-0.562-0.985-0.854c-0.02-0.015-0.042-0.021-0.062-0.042c-2.491,0.653-4.996,1.229-7.542,1.608
	c-7.345,1.104-18.554-1.791-25,0.975l-4.5,2c-4.186-1.854-3.216,2.104-1.822,3.354c2.041,1.816,7.956,1.525,6.458,4.789
	c-1.27,2.766-12.012,3.688-15.635,3.857c-5.863,0.283-21.779,3.607-34.229,5.529c-9.414,1.453-16.902,1.312-16.246,2.971
	c0.638,1.611,26.137-3.018,42.21-1.893c3.577,0.251,9.794-0.581,13.263-0.87c4.433-0.369,7.096-0.001,11.001,0.87
	c3.833,0.854,7.455-0.562,11.501-0.107c3.607,0.402,6.86,1.979,10.502,2.5c8.277,1.191,16.685,1.705,24.998,2.979
	c16.714,2.554,36.717,1.041,53.5-1.479c7.937-1.188,15.998-4.364,24-5.998c7.88-1.604,14.729-4.271,22.113-7.375
	c8.055-3.389,15.978-4.593,23.99-8.014c7.033-2.998,11.479-5.979,19.312-6.396c8.796-0.468,16.267-6.782,25.479-11.604
	C322.559,68.061,312.729,66.133,304.354,67.701z"/>
<path fill="#FFFFFF" d="M106.062,72.352c0.52,0,0.941,0.424,0.941,0.941s-0.421,0.938-0.941,0.938s-0.941-0.422-0.941-0.938
	C105.123,72.774,105.543,72.352,106.062,72.352z"/>
<path fill="#504F4F" d="M107.8,73.08c-0.375-0.188-0.679-0.401-1.087-0.635c-0.546-0.285-1.235-0.158-1.669,0.195
	c-0.188,0.146-0.34,0.334-0.497,0.482c-0.055,0.054-0.183,0.354-0.184,0.354c0,0,0.742-0.438,0.92-0.513
	c0.134-0.044,0.238-0.071,0.347-0.101c-0.016,0.047-0.03,0.096-0.03,0.146c0,0.257,0.208,0.466,0.465,0.466
	c0.257,0,0.465-0.209,0.465-0.466c0-0.058-0.014-0.104-0.031-0.154c0.08,0.026,0.162,0.062,0.252,0.12
	c0.312,0.188,0.691,0.271,1.007,0.438c0.089,0.044,0.556,0.062,0.552,0.062C108.294,73.498,107.939,73.172,107.8,73.08z"/>
<path fill="#504F4F" d="M95.106,73.053c0.559,0.021,1.171,0.123,1.458,0.154c1.344,0.141,2.673,0.449,3.957,0.99
	c1.044,0.402,4.836,2.072,4.85,2.047c-0.003,0.004-1.034-0.631-1.274-0.752c-0.869-0.418-1.693-0.965-2.572-1.396
	c-1.626-0.781-3.112-1.361-4.958-1.342c-0.255,0.006-0.897,0.006-1.464,0.096c-0.568,0.083-1.047,0.253-1.047,0.249
	C94.06,73.104,94.549,73.031,95.106,73.053z M98.238,74.729c-0.312-0.021-1.527,0.162-1.521,0.189
	c0.005-0.025,1.188,0.021,1.528,0.084c0.817,0.052,1.62,0.209,2.407,0.512c0.319,0.118,1.066,0.396,1.752,0.599
	c0.685,0.207,1.307,0.298,1.306,0.3l-0.839-0.303c-0.556-0.16-1.077-0.445-1.616-0.682C100.264,75.002,99.353,74.664,98.238,74.729z
	 M106.29,71.332c-0.266,0.083-0.931,0.344-1.407,0.748c-0.487,0.39-0.796,0.847-0.8,0.842c0.002,0.006,0.39-0.378,0.912-0.655
	c0.518-0.294,1.15-0.417,1.442-0.47c1.374-0.275,2.862-0.021,4.303,0.391c0.587,0.162,1.967,0.562,3.251,0.716
	c1.292,0.188,2.41-0.141,2.396-0.146c0-0.002-0.327,0.05-0.687,0.045c-0.36,0.001-0.75-0.056-0.892-0.062
	c-1.031-0.062-2.016-0.479-3.007-0.788c-0.926-0.307-1.786-0.58-2.688-0.74C108.221,71.049,107.25,70.997,106.29,71.332z
	 M104.842,69.729c0.894-0.132,1.755-0.354,2.6-0.6c0.806-0.256,1.656-0.346,2.516-0.273c0.698,0.021,2.309,0.334,3.787,0.604
	c1.483,0.271,2.809,0.139,2.803,0.131c-0.008,0.03-1.514-0.181-1.837-0.269c-1.199-0.166-2.337-0.686-3.567-0.938
	c-1.142-0.242-2.261-0.303-3.343-0.079c-1.049,0.269-1.994,0.565-3.094,0.868c-0.303,0.088-1.085,0.24-1.802,0.322
	c-0.715,0.09-1.36,0.107-1.359,0.117c0-0.01,0.624,0.094,1.353,0.137C103.627,69.799,104.461,69.787,104.842,69.729z
	 M106.346,67.451l-1.624,0.469c0.001-0.006,1.317-0.122,1.704-0.18c0.907-0.162,1.795-0.348,2.719-0.312
	c0.372,0.021,1.241,0.041,2,0.213c0.761,0.158,1.396,0.438,1.397,0.438c0.005-0.009-0.704-0.396-0.883-0.444
	c-0.615-0.199-1.251-0.408-1.907-0.487C108.535,67.004,107.495,67.09,106.346,67.451z M106.561,66.455
	c1.548,0.162,3.081,0.296,4.65,0.506c0.634,0.081,2.135,0.215,3.47,0.043c0.666-0.082,1.28-0.242,1.706-0.42
	c0.426-0.178,0.67-0.344,0.673-0.338c-0.001-0.002-0.319,0.13-0.681,0.221c-0.365,0.087-0.768,0.146-0.915,0.164
	c-1.054,0.195-2.148,0.021-3.21-0.109c-1.985-0.256-3.643-0.618-5.688-0.568c-0.284,0.011-1-0.016-1.642,0.021
	c-0.644,0.025-1.203,0.14-1.203,0.137c0.001,0.003,0.557,0,1.183,0.094L106.561,66.455z M118.255,71.779
	c0.919-0.104,1.801-0.275,2.72-0.285c0.371-0.002,1.232-0.03,1.995,0.066c0.765,0.096,1.403,0.35,1.404,0.344
	c0.007-0.014-0.715-0.359-0.897-0.396c-0.623-0.148-1.268-0.302-1.917-0.339c-1.208-0.062-2.208,0.041-3.362,0.312
	c-0.321,0.084-1.647,0.271-1.649,0.271C116.546,71.76,117.863,71.828,118.255,71.779z M120.934,72.699l-1.552,0.053
	c0.002-0.006,1.199,0.193,1.562,0.225l2.555,0.081c0.349,0.021,1.163,0.019,1.883-0.065c0.723-0.078,1.336-0.25,1.336-0.248
	l-0.901,0.062c-0.585,0.066-1.183,0.008-1.771-0.021C122.952,72.714,122.039,72.619,120.934,72.699z M124.545,74.072
	c0,0-0.721-0.104-0.881-0.104c-0.578-0.021-1.158-0.129-1.732-0.196c-1.071-0.136-1.958-0.254-3.04-0.256
	c-0.301-0.004-1.517-0.104-1.517-0.104s1.15,0.316,1.506,0.372c0.836,0.104,1.658,0.137,2.496,0.227
	C122.061,74.127,124.548,74.093,124.545,74.072z M113.069,74.188c-0.574,0.121-1.002,0.416-1.003,0.41
	c0.001,0.006,0.466-0.189,1.023-0.208c0.553-0.034,1.166,0.075,1.455,0.112c1.354,0.16,2.703,0.494,4.052,0.932
	c0.546,0.179,1.841,0.561,3.039,0.707c1.204,0.188,2.256-0.055,2.249-0.061c-0.001-0.004-0.309,0.021-0.646,0.001
	c-0.338-0.021-0.702-0.075-0.835-0.087c-0.965-0.08-1.888-0.457-2.808-0.771c-1.71-0.562-3.167-1.185-5.044-1.181
	C114.293,74.045,113.634,74.045,113.069,74.188z M123.479,78.311c-1.456-0.229-2.669-0.51-4.169-0.521
	c-0.417-0.029-2.097-0.062-2.095-0.022c0.009-0.021,1.601,0.312,2.079,0.396c1.138,0.158,2.262,0.271,3.411,0.453
	c0.464,0.068,1.562,0.188,2.544,0.129c0.988-0.035,1.809-0.334,1.805-0.332c-0.001,0.021-0.99,0.107-1.209,0.104
	C125.057,78.584,124.256,78.43,123.479,78.311z M123.767,79.111c-1.416-0.188-2.622-0.346-4.054-0.146
	c-0.402,0.023-1.997,0.271-1.992,0.291c0.005-0.02,1.566,0.037,2.029,0.064c1.096-0.018,2.176-0.021,3.281,0.102
	c0.447,0.048,1.492,0.125,2.427,0.156c0.936,0.035,1.758-0.008,1.757-0.006l-1.163-0.146
	C125.29,79.391,124.525,79.217,123.767,79.111z M118.597,80.551c1.194-0.146,2.401-0.182,3.628-0.031l2.696,0.279
	c1.04,0.104,1.96,0.115,1.959,0.111l-1.287-0.238c-0.847-0.1-1.687-0.342-2.539-0.484c-1.575-0.258-2.962-0.418-4.545-0.021
	c-0.218,0.06-0.772,0.186-1.247,0.359c-0.478,0.18-0.864,0.404-0.865,0.4c0.001,0.003,0.416-0.145,0.903-0.229
	C117.79,80.609,118.34,80.582,118.597,80.551z M114.713,77.574c-0.003,0.012-0.816-0.077-0.993-0.111
	c-0.649-0.059-1.275-0.285-1.899-0.475c-1.159-0.354-2.143-0.707-3.386-0.748c-0.344-0.059-1.726-0.021-1.722,0.015
	c0.009-0.03,1.321,0.188,1.703,0.29c0.92,0.15,1.826,0.332,2.741,0.604c0.37,0.105,1.246,0.326,2.049,0.412
	C114.009,77.66,114.715,77.572,114.713,77.574z M113.713,79.57c-0.002,0.004-0.552-0.041-0.671-0.062
	c-0.438-0.021-0.862-0.172-1.275-0.312c-0.77-0.264-1.406-0.555-2.235-0.658c-0.228-0.061-1.154-0.146-1.154-0.131
	c0.007-0.018,0.868,0.236,1.12,0.332c0.609,0.164,1.208,0.338,1.818,0.552c0.247,0.083,0.837,0.253,1.382,0.294
	C113.244,79.64,113.714,79.564,113.713,79.57z M107.514,79.423c-0.252-0.099-1.301-0.358-1.303-0.341
	c0.01-0.02,0.956,0.424,1.23,0.562l2.024,0.895c0.273,0.131,0.946,0.377,1.573,0.466c0.625,0.104,1.178,0.06,1.177,0.065
	c-0.002,0.004-0.635-0.104-0.772-0.133c-0.505-0.062-0.984-0.269-1.448-0.465C109.129,80.109,108.444,79.686,107.514,79.423z
	 M109.264,81.918c0.294,0.134,1.016,0.395,1.69,0.474c0.673,0.096,1.264,0.012,1.262,0.019c-0.002,0.012-0.683-0.062-0.83-0.098
	c-0.542-0.049-1.059-0.257-1.555-0.465c-0.926-0.387-1.671-0.84-2.691-1.057c-0.276-0.104-1.424-0.242-1.425-0.207
	c0.014-0.03,1.069,0.311,1.365,0.456C107.812,81.295,108.526,81.595,109.264,81.918z M100.297,79.227
	c0.843,0.061,1.583,0.018,1.582,0.021l-1.044-0.145c-0.685-0.049-1.362-0.229-2.037-0.361c-1.255-0.25-2.311-0.487-3.608-0.479
	c-0.361-0.021-1.812-0.018-1.811,0c0.006-0.016,1.389,0.247,1.802,0.32c0.982,0.117,1.952,0.215,2.938,0.396
	C98.521,79.049,99.458,79.18,100.297,79.227z M112.207,70.461c0.347,0.102,1.174,0.304,1.932,0.348
	c0.758,0.062,1.414-0.066,1.412-0.062c-0.002,0.013-0.768-0.021-0.935-0.052c-0.61-0.021-1.204-0.216-1.787-0.388
	c-1.085-0.312-1.999-0.674-3.165-0.729c-0.323-0.061-1.618-0.025-1.614,0.008c0.01-0.029,1.237,0.176,1.592,0.279
	C110.5,70.016,111.348,70.206,112.207,70.461z M101.77,70.699c0.338,0.111,1.148,0.336,1.891,0.389
	c0.742,0.066,1.389-0.021,1.388-0.016c-0.003,0.006-0.753-0.067-0.917-0.094c-0.599-0.033-1.181-0.229-1.746-0.408
	c-1.055-0.354-1.9-0.74-2.995-1.027l-1.518-0.458c0.005-0.007,1.096,0.577,1.437,0.728C100.12,70.143,100.937,70.408,101.77,70.699z
	 M98.909,71.779c-0.187-0.031-0.873-0.363-0.869-0.373c-0.008,0.006,0.596,0.463,0.82,0.529c0.5,0.205,1.019,0.278,1.542,0.356
	c0.213,0.03,0.713,0.062,1.155,0.021c0.442-0.021,0.825-0.095,0.825-0.093l-0.553-0.006c-0.36,0.021-0.725-0.031-1.08-0.074
	C100.085,72.064,99.555,71.949,98.909,71.779z M123.472,85.117c-0.543-0.039-1.828-0.064-2.953,0.15
	c-1.142,0.188-1.993,0.771-1.981,0.771c0.001,0.002,0.265-0.125,0.568-0.221c0.306-0.1,0.646-0.158,0.77-0.188
	c0.886-0.226,1.826-0.144,2.734-0.089c1.701,0.109,3.114,0.339,4.846,0.303c0.481,0.02,2.429,0.037,2.426,0.006
	c-0.008,0.028-1.857-0.354-2.42-0.438C126.128,85.271,124.816,85.22,123.472,85.117z M121.942,84.025
	c-0.946-0.079-4.399-0.005-4.397,0.021c0,0,1.002,0.127,1.226,0.129c0.803,0.021,1.613,0.151,2.417,0.229
	c1.498,0.125,2.748,0.201,4.248,0.062l2.11-0.103c-0.002,0-1.638-0.25-2.133-0.272C124.25,84.046,123.109,84.096,121.942,84.025z
	 M127.559,88.145c-0.24,0.006-0.798,0.057-1.284,0.157c-0.487,0.104-0.896,0.253-0.896,0.25l0.612-0.095
	c0.395-0.083,0.806-0.082,1.208-0.092c0.749-0.021,1.368,0.02,2.123-0.021c0.21-0.013,1.062,0.027,1.062,0.027
	s-0.812-0.198-1.065-0.226C128.729,88.109,128.148,88.137,127.559,88.145z M133.778,77.875c0.483,0.104,1.63,0.3,2.553,0.744
	c0.464,0.215,0.847,0.514,1.068,0.785c0.222,0.271,0.289,0.498,0.296,0.488c-0.004,0.002-0.053-0.265-0.209-0.521
	c-0.147-0.271-0.397-0.506-0.492-0.582c-0.705-0.521-1.518-0.914-2.356-1.164c-1.568-0.441-2.922-0.575-4.517-0.461l-2.242,0.098
	c0.002-0.008,1.738,0.27,2.259,0.306C131.37,77.629,132.576,77.627,133.778,77.875z M137.415,81.375
	c-0.706-0.621-1.215-1.258-2.037-1.787c-0.21-0.178-1.162-0.701-1.173-0.676c0.02-0.021,0.822,0.646,1.036,0.873
	c0.561,0.471,1.096,0.967,1.649,1.479c0.22,0.211,0.787,0.658,1.366,0.926c0.575,0.276,1.125,0.38,1.122,0.387
	c-0.004,0.006-0.591-0.264-0.714-0.326C138.192,82.044,137.792,81.709,137.415,81.375z M134.43,81.064
	c-0.13-0.099-0.716-0.338-0.719-0.32c0.008-0.014,0.52,0.318,0.646,0.441c0.336,0.246,0.626,0.562,0.788,0.953
	c0.064,0.159,0.198,0.541,0.224,0.904c0.037,0.361,0.004,0.684,0.007,0.683c0.002,0.001,0.077-0.366,0.073-0.456
	c0.002-0.301,0.005-0.609-0.072-0.92C135.229,81.793,134.93,81.344,134.43,81.064z M140.39,86.289
	c0.317,0.188,1.131,0.531,1.898,0.604c0.764,0.102,1.43,0,1.428,0.014c-0.002,0.008-0.773-0.072-0.94-0.104
	c-0.614-0.049-1.201-0.273-1.741-0.545c-1.01-0.5-1.733-1.135-2.757-1.688c-0.276-0.176-1.403-0.832-1.41-0.818l1.261,1.062
	C138.854,85.346,139.589,85.838,140.39,86.289z M143.879,89.406c-0.003,0.01-0.771-0.119-0.935-0.164
	c-0.611-0.102-1.17-0.396-1.669-0.73c-0.934-0.633-1.554-1.387-2.528-2.049c-0.25-0.215-1.366-0.909-1.381-0.879
	c0.024-0.021,0.951,0.838,1.209,1.113c0.667,0.592,1.325,1.188,2.055,1.754c0.287,0.229,1.055,0.688,1.818,0.842
	C143.208,89.465,143.881,89.396,143.879,89.406z M144.869,90.939c-0.875-0.33-1.594-0.639-2.52-0.836
	c-0.128-0.021-0.449-0.107-0.743-0.166c-0.296-0.062-0.558-0.025-0.554-0.021c0-0.011,0.249,0.01,0.521,0.12l0.72,0.298
	c0.685,0.237,1.37,0.438,2.058,0.692c0.278,0.104,0.938,0.312,1.545,0.434c0.606,0.134,1.153,0.113,1.152,0.109
	c-0.004,0.017-0.619-0.108-0.751-0.149C145.806,91.324,145.335,91.115,144.869,90.939z M146.452,82.078
	c-0.571-0.648-1.206-1.281-2.022-1.562c-0.76-0.298-1.562-0.479-2.438-0.523c-0.244-0.02-0.855-0.068-1.406-0.067
	c-0.55-0.017-1.038,0.021-1.038,0.021c0.011-0.021,1.871,0.341,2.405,0.482c0.646,0.123,1.282,0.26,1.902,0.459
	c0.635,0.19,1.184,0.459,1.663,0.938c0.406,0.343,1.242,1.287,2.102,2.058c0.431,0.379,0.901,0.674,1.286,0.789
	c0.384,0.123,0.644,0.082,0.642,0.09c0.001-0.002-0.299-0.025-0.584-0.172c-0.29-0.131-0.554-0.355-0.656-0.43
	C147.57,83.602,147.078,82.783,146.452,82.078z M149.103,87.746c-0.688-0.872-0.962-1.824-1.677-2.77
	c-0.096-0.134-0.333-0.471-0.578-0.736c-0.241-0.279-0.486-0.493-0.485-0.494c-0.001,0,0.194,0.254,0.377,0.562
	c0.187,0.312,0.357,0.68,0.449,0.846c0.44,0.765,0.82,1.562,1.324,2.341c0.189,0.312,0.793,0.986,1.505,1.312
	c0.695,0.341,1.366,0.434,1.361,0.438c-0.005,0.009-0.721-0.291-0.869-0.371C149.938,88.633,149.467,88.211,149.103,87.746z
	 M149.793,89.564c-0.907-0.391-1.557-1.178-2.124-1.961c-1.062-1.461-1.738-2.941-3.228-4.156c-0.201-0.176-0.713-0.604-1.233-0.89
	c-0.514-0.298-1.015-0.454-1.012-0.46c-0.002,0.004,0.45,0.252,0.885,0.625c0.444,0.364,0.856,0.854,1.056,1.071
	c0.963,1.007,1.769,2.168,2.588,3.378c0.327,0.48,1.185,1.625,2.283,2.25c1.09,0.65,2.216,0.643,2.202,0.657
	c0.002-0.009-0.309-0.063-0.633-0.188C150.25,89.793,149.917,89.619,149.793,89.564z M142.019,83.865
	c0.357,0.131,0.71,0.25,1.052,0.424l1.309,0.604c0,0-0.277-0.187-0.342-0.22c-0.235-0.121-0.457-0.271-0.69-0.396
	c-0.434-0.238-0.812-0.424-1.296-0.531l-0.672-0.176L142.019,83.865z M141.046,76.91c-0.005,0.016-1.044-0.121-1.266-0.188
	c-0.825-0.107-1.59-0.492-2.317-0.88c-1.358-0.721-2.405-1.521-3.873-2.116c-0.203-0.087-0.705-0.314-1.17-0.498
	c-0.464-0.185-0.888-0.305-0.888-0.306c0,0.001,0.385,0.196,0.802,0.456l1.094,0.702l3.158,1.789
	c0.432,0.243,1.498,0.752,2.526,0.936C140.142,77.02,141.05,76.904,141.046,76.91z M144.05,74.365
	c-1.076-0.225-1.979-0.482-3.105-0.487c-0.313-0.033-1.568,0.012-1.564,0.041c0.007-0.026,1.203,0.157,1.554,0.237
	c0.843,0.104,1.676,0.229,2.526,0.402c0.344,0.068,1.16,0.192,1.894,0.186c0.736-0.006,1.361-0.174,1.359-0.172
	c-0.001,0.01-0.744,0.025-0.907,0.021C145.217,74.619,144.627,74.481,144.05,74.365z M148.535,74.238
	c-0.004,0.006-0.156-0.227-0.373-0.436c-0.21-0.218-0.484-0.41-0.59-0.474c-0.763-0.427-1.629-0.713-2.502-0.821
	c-1.63-0.188-2.946-0.056-4.518-0.011c-0.22,0.008-0.777-0.022-1.271-0.136c-0.495-0.104-0.915-0.279-0.915-0.276
	c0-0.004,0.37,0.25,0.854,0.442c0.48,0.197,1.058,0.343,1.328,0.361c1.273,0.131,2.483-0.062,3.713-0.004
	c0.496,0.021,1.66,0.027,2.632,0.354C147.878,73.562,148.537,74.248,148.535,74.238z M141.274,71.085
	c-0.205,0.017-0.725,0.021-1.192-0.021c-0.469-0.031-0.879-0.144-0.879-0.142c0-0.002,0.376,0.175,0.841,0.3
	c0.462,0.131,0.999,0.227,1.249,0.229c1.171,0.056,2.291-0.104,3.434-0.02c0.46,0.033,1.541,0.075,2.444,0.391
	c0.922,0.275,1.534,0.916,1.53,0.904c-0.003,0.01-0.145-0.197-0.347-0.396c-0.198-0.197-0.451-0.384-0.552-0.438
	c-0.711-0.389-1.506-0.672-2.313-0.797C143.98,70.889,142.743,70.963,141.274,71.085z M135.234,68.432
	c1.54-0.102,3.028-0.33,4.562-0.252c0.616,0.036,2.066,0.062,3.29,0.422c0.61,0.186,1.143,0.473,1.47,0.766
	c0.329,0.291,0.463,0.549,0.47,0.543c-0.004,0.004-0.126-0.312-0.37-0.604c-0.235-0.303-0.59-0.54-0.722-0.617
	c-0.967-0.513-2.048-0.832-3.128-0.977c-2.017-0.241-3.7-0.146-5.651,0.229c-0.543,0.113-2.771,0.358-2.776,0.331
	C132.376,68.301,134.582,68.484,135.234,68.432z M131.279,70.714c1.199,0.058,2.317-0.213,3.464-0.345
	c0.466-0.057,1.534-0.238,2.496-0.271c0.964-0.045,1.804,0.146,1.802,0.146c0.008-0.02-0.953-0.317-1.187-0.312
	c-0.802-0.062-1.627-0.104-2.434-0.048c-1.504,0.111-2.695,0.336-4.157,0.459c-0.204,0.021-0.725,0.014-1.19-0.062
	c-0.467-0.064-0.872-0.189-0.872-0.188c0-0.003,0.366,0.191,0.824,0.353C130.481,70.6,131.025,70.705,131.279,70.714z
	 M154.847,89.27l1.82,2.832c0.247,0.386,0.924,1.28,1.798,1.748c0.876,0.484,1.764,0.385,1.75,0.396
	c-0.01,0.021-0.956-0.188-1.133-0.312c-0.724-0.266-1.24-0.882-1.681-1.482c-0.823-1.149-1.312-2.278-2.27-3.401
	c-0.133-0.154-0.451-0.562-0.777-0.892c-0.322-0.334-0.662-0.562-0.66-0.563c-0.001,0.002,0.279,0.287,0.53,0.662
	C154.479,88.621,154.714,89.07,154.847,89.27z M160.211,95.167c-0.653-0.044-1.277-0.29-1.878-0.533
	c-1.121-0.456-2.025-0.979-3.249-1.249c-0.332-0.115-1.707-0.332-1.709-0.297c0.016-0.029,1.275,0.424,1.634,0.597
	c0.886,0.316,1.754,0.661,2.642,1.042c0.358,0.152,1.228,0.468,2.043,0.549c0.814,0.104,1.522-0.033,1.52-0.029
	C161.211,95.252,160.392,95.201,160.211,95.167z M155.21,84.564l0.665,0.737l1.964,1.97c0.268,0.271,0.97,0.859,1.735,1.125
	c0.765,0.281,1.479,0.168,1.472,0.182c-0.006,0.021-0.798-0.104-0.958-0.182c-0.619-0.146-1.133-0.561-1.597-0.977
	c-0.867-0.789-1.467-1.6-2.424-2.35c-0.132-0.104-0.454-0.387-0.764-0.604c-0.309-0.226-0.607-0.384-0.606-0.385
	C154.7,84.085,154.957,84.293,155.21,84.564z M107.15,92.435c1.252-0.306,2.396-0.352,2.395-0.353
	c0.004-0.021-1.337-0.104-1.637-0.036c-1.062,0.144-2.152,0.278-3.198,0.53c-1.952,0.466-3.483,0.97-5.401,1.357
	c-0.267,0.062-0.958,0.137-1.587,0.104c-0.628-0.021-1.186-0.112-1.186-0.106c0-0.006,0.517,0.193,1.148,0.325
	c0.629,0.146,1.367,0.195,1.706,0.166c1.601-0.112,3.041-0.667,4.529-1.069C104.526,93.199,105.896,92.726,107.15,92.435z
	 M102.535,94.861c0.903-0.119,1.727-0.428,2.59-0.635c0.351-0.084,1.148-0.318,1.875-0.476c0.726-0.156,1.383-0.181,1.382-0.185
	c0.002-0.014-0.768-0.062-0.941-0.029c-0.611,0.072-1.24,0.127-1.847,0.252c-1.13,0.229-2.028,0.496-3.122,0.787
	c-0.3,0.108-1.589,0.188-1.591,0.171C100.872,94.771,102.146,94.945,102.535,94.861z M122.939,99.717
	c-0.376-0.312-0.865-0.549-1.047-0.613c-1.311-0.463-2.678-0.836-4.059-1.021c-2.567-0.319-4.737-0.34-7.258,0.146
	c-0.35,0.069-1.242,0.197-2.036,0.355c-0.798,0.146-1.481,0.362-1.477,0.371c-0.001-0.009,0.691-0.086,1.493-0.088
	c0.801-0.019,1.706,0.02,2.124-0.017c1.959-0.127,3.882-0.322,5.852-0.187c0.795,0.06,2.653,0.125,4.267,0.458
	c0.805,0.163,1.546,0.397,2.032,0.688c0.495,0.277,0.69,0.604,0.692,0.602C123.526,100.41,123.333,100.018,122.939,99.717z
	 M113.646,102.678c-2.081-0.729-6.885-2.416-7.583-2.527c-0.697-0.115-2.706-1.021-2.706-1.021c0,0.002,2.048,1.04,2.706,1.28
	c0.66,0.232,4.068,1.686,5.711,2.269c0.665,0.233,2.901,0.938,4.361,1.12c1.458,0.205,2.747,0.119,2.744,0.123
	c-0.005,0.015-1.48-0.217-1.802-0.28C115.897,103.498,114.766,103.067,113.646,102.678z M110.104,95.543
	c0.708-0.223,2.343-0.887,3.879-0.83c1.554,0.016,2.73,0.888,2.716,0.869c-0.001,0.004-0.291-0.277-0.673-0.523
	c-0.377-0.252-0.846-0.455-1.027-0.496c-1.277-0.35-2.682-0.312-3.965,0.012c-2.4,0.6-4.129,1.556-6.403,2.099
	c-0.316,0.075-1.151,0.161-1.9,0.026c-0.751-0.117-1.375-0.428-1.375-0.421c0.001-0.009,0.539,0.405,1.293,0.675
	c0.747,0.277,1.676,0.354,2.091,0.31C106.722,97.051,108.349,96.113,110.104,95.543z M114.71,92.848
	c-1.456-0.044-2.597,0.299-3.909,0.729c-0.183,0.062-0.657,0.185-1.092,0.259c-0.435,0.073-0.831,0.094-0.831,0.096
	c0-0.002,0.384,0.062,0.834,0.062c0.45,0.008,0.957-0.031,1.186-0.076c1.076-0.205,2.071-0.578,3.139-0.658
	c0.424-0.036,1.441-0.114,2.276,0.22c0.844,0.312,1.384,0.948,1.387,0.938c0.019-0.01-0.585-0.739-0.799-0.829
	C116.266,93.158,115.495,92.881,114.71,92.848z M116.821,92.962c-0.607-0.222-1.211-0.501-1.85-0.669
	c-1.185-0.307-2.25-0.373-3.434-0.096c-0.335,0.059-1.655,0.379-1.652,0.391c0.002-0.01,1.323-0.075,1.711-0.094
	c0.914-0.102,1.817-0.162,2.732,0.003c0.37,0.062,1.227,0.222,1.977,0.45c0.752,0.221,1.401,0.461,1.402,0.459
	S116.997,93.021,116.821,92.962z M103.809,101.666c0.617,0.348,2.042,1.146,2.214,1.294c0.173,0.144,0.821,0.435,0.822,0.435
	c0,0-0.694-0.27-0.892-0.377c-0.197-0.104-1.275-0.621-1.764-0.894c-0.198-0.11-0.839-0.501-1.184-0.818
	c-0.35-0.312-0.587-0.646-0.588-0.644c-0.002,0.004,0.357,0.312,0.439,0.378C103.131,101.298,103.479,101.48,103.809,101.666z"/>
<path fill="#615F61" d="M356.383,64.046c-2.564-0.812-5.385-1.414-8.07-2.188c-2.783-0.804-5.547-1.193-8.262-2.355
	c-2.254-0.965-4.674-1.771-6.992-2.788c-2.801-1.229-9.551-3.054-12.553-3.068c-5.668-0.022-4.148,1.476-5.31,1.812
	c-1.387,0.403,1.14,1.291,2.404,1.38c1.265,0.088,4.558-0.738,6.008-0.843c0.838-0.062,6.252,2.685,8.783,3.668
	c2.435,0.941,3.338,1.209,8.771,2.198c2.772,0.509,5.131,0.859,7.799,1.269c2.625,0.396,5.188,1.335,8.086,1.731
	c1.373,0.188,2.559,0.521,3.938,0.593c1.103,0.056,3.562,0.729,4.979,0.66L356.383,64.046z M144.013,94.58
	c0.66,0.373,1.344,0.787,1.984,1.117c0.653,0.307,1.411,0.425,2.189,0.586c0.803,0.139,1.569,0.496,2.256,0.771
	c0.673,0.277,1.468,0.414,2.225,0.652c1.518,0.435,3.012,0.93,4.565,1.225c1.542,0.31,3.171,0.36,4.725-0.006
	c1.536-0.39,2.988-1.211,4.137-2.304c1.221-1.165,2.055-2.778,1.707-4.379c-0.156-0.791-0.55-1.536-1.152-2.146
	c-0.601-0.604-1.404-1.873-2.149-1.502c-1.614,0.811-1.015,3.045-0.703,4.812c0.287,1.623-3.582,3.146-4.637,2.447
	c-2.386-1.569-6.342,0.808-9.103-0.104C146.36,94.562,144.013,94.58,144.013,94.58z M86.434,93.574
	c-1.591-1.521-4.317-2.443-6.402-2.707c-0.927-0.117-1.564-0.156-2.326,0.422c-0.954,0.723-1.479,1.324-2.311,1.771
	c-1.379,0.745-2.716,1.445-4.18,2.024c-1.692,0.669-3.449,1.558-5.145,2.18c-2.706,0.99-4.143,1.331-7.295,2.421
	c-0.774,0.271-3.362,1.14-6.035,1.784c-1.342,0.327-9.708,1.979-11.977,2.346c-2.902,0.469-5.923,0.771-8.84,1.271
	c-0.702,0.121-5.987,0.723-5.897,1.228c0.089,0.507,2.411,0.459,3.689,0.434c2.246-0.062,10.106-1.09,11.773-1.32
	c1.704-0.235,9.574-1.729,11.823-2.076c3.072-0.473,8.646-2.163,11.759-2.836c2.644-0.567,6.184-1.209,8.696-1.737
	c3.738-0.789,6.482-1.146,10.31-1.646C85.013,96.99,88.022,95.097,86.434,93.574z M16.932,52.01c2.185,0.18,2.878-1.391,4.618-2.281
	c1.977-1.015,3.76-1.104,5.999-1.325c4.721-0.459,9.281-1.26,14.267-1.019c4.205,0.204,24.216,0.685,24.674-4.936
	c-3.388-1.361-8.664,0.271-12.274,0.594c-4.346,0.387-8.433,0.296-12.667-0.324c-3.951-0.578-8.147-0.844-12.333-0.992
	c-3.193-0.107-10.357-4.051-12-1.667C15.571,42.444,14.747,51.83,16.932,52.01z M103.045,11.06c2.557-1.167,5.86-1.729,7.328-2.338
	c2.238-0.918,4.254-2.993,6.842-2.999c2.333-0.004,6.103,1.327,5.832,3.533c-0.368,2.988-9.19,4.294-12.129,4.934
	c-4.437,0.969-4.335-1.687-8.503-0.63c-4.521,1.146-13.303,0.993-11.369,0C92.75,12.685,100.488,12.227,103.045,11.06z
	 M233.049,4.729c-1-1.5-2.98,0.438-5,1.216c-1.228,0.476-6.986,2.214-7.332,3.449c2.209,0.199,4.268-1.555,6.254-1.833
	c1.251-0.175,6.474-0.13,6.246-2L233.049,4.729z M345.383,83.729c2.309,3.904,6.854,10.625,9.5,14.334
	c1.973,2.766,7.012,9.568,9.252,12c2.383,2.584,7.924,6.021,10.256,7.332c3.104,1.744,8.354,2.771,10.326-2.332
	c0.375-1.504-6.596-0.854-7.834-1.543c-2.086-1.146-3.504-5.795-6.338-6.616c-3.445-1.009-1.662-13.995-7.494-15.175
	c-6.004-1.207-3.885-13.277-9.824-13.828c-3.676-0.338-10.676-6.006-16.844-7.346c-1.242-0.27-7.244-4.604-6.479-3.34
	c0.771,1.27,3.684,2.996,4.186,3.193C334.084,70.408,341.051,76.399,345.383,83.729z"/>
<path fill="#504F4F" d="M361.271,33.748c-3.483,1.689-7.604,5.104-9.701,7.688c-0.817,1.02-5.813,5.784-8.995,8.021
	c-1.382,0.968-2.673,3.506-2.773,3.833c-0.232,0.751,0.061,1.305,0.354,1.824c0.396,0.707,6.23,3.521,8.412,4.398
	c2.396,0.977,5.342,2.438,7.787,3.115c3.334,0.932,7.23,1.99,10.746,2.691c-0.072-0.092-0.146-0.189-0.221-0.271
	c2.006-3.668,1.994-23.101,2.172-26.168c0.34-5.834,5.566-8.312,5.334-9.333c-0.104-0.453-0.244-0.843-0.418-1.188
	C369.729,27.951,364.592,32.132,361.271,33.748z M321.996,65.599c-3.937-1.489-7.974-1.747-12.246-1.378
	c-1.517,0.131-4.688,1.217-2.642,2.998c1.41,1.229,3.981,1.562,5.729,1.74c4.602,0.479,9.799-0.521,14.397-0.691
	c2.291-0.088,4.188,0.818,5.562,1.932c0.168,0.104,0.343,0.229,0.517,0.355l-0.086-0.131
	C330.381,67.606,325.627,66.977,321.996,65.599z M346.646,62.764c-3.271-0.36-6.465-1.181-9.707-1.654
	c-2.558-0.375-4.246-1.42-6.592-2.275c-1.966-0.725-3.771-1.543-5.623-2.446c-1.181-0.573-1.31-0.497-2.521-0.003
	c-1,0.408-1.92,0.466-2.994,0.509c-1.198,0.05-2.646-0.082-3.684-0.623c-0.949-0.496-1.594-1.062-2.758-1.181
	c-1.373-0.141-6.289,0.252-5.324,1.926c1.027,1.792,3.73,1.604,5.412,1.939c1.123,0.227,1.506,0.748,2.395,1.291
	c1.054,0.646,1.867,0.502,3.097,0.234c4.396-0.937,7.364,0.02,11.646,0.959c3.713,0.819,8.666,1.541,12.459,2.309
	c1.938,0.39,4.063,0.611,6.104,0.812c3.021,0.29,11.146,1.562,15.571,1.562c-0.521-0.149-6.045-1.062-8.146-1.438
	C352.899,64.105,349.772,63.111,346.646,62.764z M300.481,74.582c-2.373,0.855-4.737,1.705-7.114,2.562
	c-2.207,0.801-4.479,1.54-6.886,1.534c-2.354-0.006-4.646-0.125-7.006-0.125c-5.455,0-11.271,1.479-16.211,3.793
	c-4.562,2.146-7.757,3.771-12.039,6.488c-4.574,2.896-9.642,4.896-14.896,6.188c-2.109,0.521-4.072,0.771-5.938,1.938
	c-1.654,1.031-3.373,2.229-5.379,2.469c-0.531,1.25,8.327-0.377,12.344-2.25c3.75-1.75,8.308-2.053,12.119-3.004
	c4.272-1.062,8.899-1.42,13.256-2.743c5.054-1.529,8.479-5.918,13.375-7.529c2.685-0.89,5.455-2.141,8.25-2.477
	c2.252-0.271,4.479,0.17,6.75-0.021c9.875-0.854,16.625-6.854,15.125-8.604C306.231,72.805,302.367,73.9,300.481,74.582z
	 M122.379,82.227c2.095,0.127,3.897,0.238,6,0.027c1.085-0.107,2.09-0.025,3.042,0.29c0.287,0.096-0.261-1.205-2.854-2.38
	c2.188-0.125,3.98,2.877,4.119,2.958c0.212,0.125,0.423,0.264,0.631,0.417c3.312,2.438,3,6.89,6.125,8.875
	c1.981,1.258,3.957,2.59,5.938,3.84c0.945,0.597,1.913,0.693,3,0.973c0.971,0.249,1.803,0.836,2.75,1.104
	c3.694,1.021,7,2.732,10.853,1.904c3.382-0.729,7.931-4.646,6.257-8.979c-1.25-3.229-5.445-3.967-7.958-6.059
	c-2.806-2.342-5.262-6.412-8.906-7.346c-1.945-0.496-3.815,0.243-5.872,0.243c-0.56,0-2.46-0.097-1.85-1.225
	c0.378-0.699,2.056-0.111,2.606-0.031c1.942,0.281,4.1,0.131,6.091,0.506c1.795,0.341,2.458,1.479,3.84,2.688
	c1.388,1.214,2.565,3.312,4,4.375c1.626,1.203,3,2.312,4.776,3.041c3.853,1.578,5.428,6.281,2.619,10.017
	c-2.475,3.287-5.423,3.945-9.333,3.942c-2.563-0.002-5.579,0.559-7.75-0.312c-2.489-0.996-4.449-2.688-7.028-3.396
	c-3.879-1.069-7.902-3.932-9.847-7.604c-0.55-1.037-1.545-2.088-2-3.125c-0.438-0.996-0.752-2.435-1.75-3.125
	C127.962,82.525,122.379,82.227,122.379,82.227z M20.943,85.936c-1.114-1.506-2.342-2.782-3.198-4.482
	c-0.877-1.744-1.387-3.162-1.76-5.024c-0.325-1.623-0.307-3.314-0.312-5.033c-0.005-1.758,0.475-3.39,0.21-5.139
	c-0.256-1.69-0.464-3.479-0.292-5.243c0.145-1.479,0.573-3.494,1.146-4.824c0.789-1.828,2.558-2.646,4.156-3.591
	c6.266-3.678,16.122-3.562,22.598-0.104c1.62,0.859,3.101,2.397,4.561,3.516c1.474,1.123,2.583,2.136,3.592,3.645
	c0.55,0.818,1.324,1.598,1.89,2.413c0.526,0.767,0.381,1.625,0.414,2.521c0.157,4.266,4.419,5.68,7.958,7.259
	c3.455,1.542,7.774,2.341,10.793,4.672c1.308,1.013,1.554,1.573,0.752,2.801c-0.588,0.896-0.565,1.28,0.418,1.974
	c0.994,0.689,2.359,1.229,3.439,1.777c1.209,0.611,4.835,1.492,4.112,3.54C81,87.8,78.199,89.595,77.02,89.649
	c-3.629,0.165-15.081-0.232-17.187-0.549c-2.445-0.355-9.477-0.215-11.972-0.215c-2.382,0-15.13,0.867-17.504,0.867
	c-0.922,0-4.741,1.098-5.372,0.604C23.841,89.453,21.805,87.098,20.943,85.936z M13.475,37.516c0,1.77,0.299,3.372,0.21,5.145
	c-0.043,0.854-0.15,1.729-0.105,2.618c0.046,0.896,0.212,4.487,0.315,5.659c0.097,1.108,0.307,2.312,0.33,3.445
	c0.823,0.646,1.349-2.785,1.347-3.969c-0.002-1.75,0.078-3.566-0.005-5.238c-0.045-0.904,0.014-1.824,0.005-2.729
	c-0.008-0.944-0.42-2.41-0.554-3.267c-0.265-1.681-0.297-2.29-0.478-4.081c-0.13-1.287,0.542-2.705,0.613-4.09
	c0.063-1.246,0.616-2.598,0.401-3.855C13.895,27.15,13.475,36.001,13.475,37.516z M19.879,24.227
	c-3.336-0.169-2.666,8.879-2.25,11.25c0.475,2.703,1.493,2.02,4,1.508c1.982-0.396,3.974-0.915,6-1.014
	c8.44-0.395,15.986-1.464,24.25-2.244c1.437-0.136,6.352-0.605,7.75-0.75c0.16-0.812-3.561-1.343-4.043-1.957
	c-3.962-0.564-8.505,1.731-12.707,0.401c-2.447-0.774-1.894-2.538-4.75-2.444c-2.012,0.066-4.104,1.461-4.793-1.462
	c-2.208-0.097-5.188,1.464-7.219,0.729c-0.857-0.312-1.405-1.402-2.238-1.95c-0.692-0.456-2.172-0.901-2.749-1.062L19.879,24.227z
	 M131.379,11.727c-2.07-0.964-5.4-1.357-7.858-1.121c-0.92,0.096-0.738,0.393-1.648,0.129c-0.919-0.263-1.242-1.181-2.043-1.689
	c-2.966-1.906-2.794-0.454-4.514,1.375c-1.167,1.24-4.377,1.836-4.398,3.771c4.481,0.213,9.641,0.638,13.961,0.036
	c2.405-0.332,4.442-0.708,6.944-0.438c1.669,0.176,5.738,0.945,6.806-0.562L131.379,11.727z M233.547,6.226
	c3.443-1.27,3.127,2.078,5.473,3.029c0.146,1.558-0.719,2.424-0.266,4.133c0.492,1.854,0.492,2.141-0.873,3.521
	c-0.705-0.649-0.098-1.489-0.496-2.188c-0.492-0.854-1.088-0.403-1.812-1.028c-0.21-0.182,0.065-0.851-0.229-1.098
	c-0.299-0.25-0.787-0.206-0.973-0.358c-0.615-0.521-1.353-0.259-1.183-1.48c-1.211,0.017-1.403-1-1.502-2
	c-0.377,0.013-0.606-0.203-0.944-0.22c0.018-0.639,0.452-0.961,1.139-0.979L233.547,6.226z M251.881,19.893
	c-1.396-1.096-6.084,0.879-5.471-1.971c2.811-0.583,0.077-2.346,0.162-3.337c0.997-0.048,1.76-0.046,2.649,0.308
	c1.03,0.412,0.848,0.812,1.188,1.371c0.146,0.24-0.045,0.762,0.164,1.092c0.104,0.162,1.062,0.521,1.305,0.663
	c0.688,0.411,1.449,0.894,2.021,1.382c-0.205,0.178-0.549,0.402-0.854,0.493L251.881,19.893L251.881,19.893z M265.387,23.888
	c-1.213-0.443-1.863-0.933-3.006-1.329c-1.346-0.466-6.668-1.102-4.801-4.133c1.373-2.227,3.85,1.521,5.129,2.305
	c0.977,0.604,2.268,0.771,3.301,1.375c0.889,0.523,1.623,1.44,2.412,2.079c0.662,0.535,1.334,0.535,1.434,1.521
	c-0.541-0.021-0.992,0.119-1.475,0.188C268.381,25.893,266.317,24.231,265.387,23.888z M289.047,29.893
	c-0.435-1.77-2.133-1.458-3.49-1.838c-1.498-0.42-2.438-1.602-4.146-1.47c0.569,1.333-0.578,1.417-0.5,2.616
	c1.075,0.141,1.76-0.52,2.809-0.479c0.939,0.034,1.771,0.573,2.627,0.874c0.646,0.229,5.619,1.297,4.207,0.126L289.047,29.893z
	 M308.213,35.559c-2.17-0.746-4.08-3.023-5.701-4.287c-0.746-0.572-1.902-1.75-2.836-1.842c-2.35-0.229-0.242,1.023-0.604,2.087
	c1.797,0.937,3.713,1.58,5.521,2.501c1.764,0.897,3.129,2.07,5,2.686c0.215-0.033,0.164-0.188,0.287-0.311L308.213,35.559z
	 M333.213,50.893c-1.055-1.549-3.229-2.926-4.832-3.833c-1.035-0.586-2.129-0.641-3.172-1.171c-0.9-0.458-1.484-1.014-2.494-1.329
	c-1.979-0.615-4.029-1.247-5.621-2.545c-0.723-0.587-5.369-4.764-5.188-1.646c3.321,0.688,5.926,3.158,9.141,4.188
	c3.283,1.062,6.479,2.499,9.5,4.168L333.213,50.893z"/>
<path fill="#424140" d="M388.166,113.369c-0.049-0.463-0.438-1.146-1.025-1.317c-0.273-0.112-0.66-0.104-0.727-0.104
	c-0.14-0.004-0.271-0.02-0.406-0.025c-2.15-0.206-3.699-2.346-4.865-4.436c-0.299-0.533-0.574-1.084-0.84-1.646
	c-0.258-0.533-0.473-1.098-0.678-1.68c-0.406-1.162-0.76-2.363-1.092-3.568c-0.662-2.413-1.24-4.854-1.771-7.312
	c-0.525-2.451-1.009-4.92-1.39-7.395c-0.186-1.229-0.354-2.479-0.396-3.66c0.01-1.355-0.332-2.68-0.688-3.904
	c-0.744-2.479-1.731-4.834-2.842-7.143c-0.561-1.146-1.148-2.275-1.799-3.393c-0.32-0.561-0.658-1.105-1.021-1.646
	c-0.181-0.271-0.362-0.539-0.562-0.805l-0.312-0.402l0.018-0.027l0.119-0.321c0.094-0.271,0.166-0.535,0.232-0.804
	c0.133-0.525,0.233-1.057,0.328-1.572c0.18-1.044,0.311-2.084,0.418-3.124c0.217-2.078,0.354-4.153,0.461-6.229
	c0.215-4.146,0.295-8.302,0.391-12.438c0.023-1.055,0.035-2.023,0.256-2.951c0.217-0.934,0.57-1.834,1.07-2.665
	c0.496-0.835,1.113-1.603,1.809-2.328c0.348-0.358,0.709-0.716,1.084-1.084c0.188-0.187,0.379-0.37,0.574-0.59
	c0.104-0.118,0.188-0.21,0.312-0.394c0.127-0.199,0.233-0.418,0.266-0.656c-0.006-0.118,0.004-0.236-0.021-0.355L375,29.1
	c-0.043-0.14-0.08-0.273-0.133-0.418c-0.097-0.271-0.218-0.554-0.365-0.814c-0.291-0.533-0.715-1.035-1.248-1.396
	c-1.082-0.729-2.375-0.809-3.479-0.674c-2.252,0.309-4.207,1.264-6.062,2.302c-1.838,1.062-3.604,2.304-5.189,3.698
	c-1.596,1.376-3.129,2.798-4.662,4.222c-3.062,2.854-6.094,5.738-9.188,8.553c-1.551,1.398-3.109,2.798-4.73,4.091
	c-0.811,0.629-1.652,1.284-2.479,1.688c-0.336,0.158-0.873,0.271-1.295,0.29c-0.442,0.021-0.881-0.043-1.299-0.201
	c-1.688-0.65-2.977-2.551-4.684-3.88c-0.814-0.681-1.666-1.378-2.66-1.926c-0.99-0.552-2.068-0.885-3.113-1.146
	c-1.889-0.494-3.627-1.762-5.401-2.9c-0.894-0.582-1.798-1.172-2.783-1.674c-0.933-0.459-1.783-1.006-2.642-1.625
	c-0.854-0.604-1.713-1.293-2.768-1.793c-0.254-0.12-0.549-0.231-0.795-0.319c-0.189-0.065-0.391-0.172-0.578-0.301
	c-0.381-0.259-0.738-0.612-1.1-0.986c-0.719-0.749-1.396-1.621-2.354-2.313c-0.479-0.349-1.063-0.637-1.703-0.726
	c-0.396-0.056-0.795-0.271-1.186-0.563c-0.775-0.604-1.496-1.438-2.4-2.135c-0.887-0.706-2.096-1.23-3.312-1.163
	c-0.635,0.035-1.102,0.142-1.643,0.188l-1.601,0.162l-3.221,0.305l-1.619,0.188c-0.576,0.084-0.996,0.144-1.496,0.086
	c-0.978-0.104-1.94-0.494-2.89-0.965c-0.959-0.476-1.846-1.033-2.918-1.515c-0.547-0.229-1.2-0.35-1.812-0.283
	c-0.604,0.058-1.129,0.198-1.646,0.283c-2.028,0.364-4.194,0.021-6.229-0.552c-1.016-0.302-2.006-0.693-2.896-1.229
	c-0.438-0.271-0.854-0.576-1.209-0.937c-0.387-0.392-0.793-0.787-1.239-1.146c-0.447-0.357-0.957-0.688-1.521-0.898
	c-0.563-0.218-1.162-0.309-1.729-0.346c-0.285-0.021-0.562-0.026-0.847-0.028c-0.303-0.003-0.52,0.006-0.707-0.05
	c-0.389-0.098-0.69-0.424-0.922-0.864c-0.477-0.888-0.615-1.995-1.182-3.08c-0.15-0.268-0.348-0.55-0.646-0.762
	c-0.291-0.201-0.582-0.31-0.863-0.396c-0.574-0.169-1.145-0.241-1.703-0.302c-1.129-0.101-2.25-0.093-3.371-0.02
	c-0.562,0.039-1.123,0.094-1.688,0.188c-0.467,0.082-0.896-0.021-1.324-0.291c-0.854-0.551-1.768-1.354-2.848-1.796
	c-1.066-0.481-2.242-0.604-3.293-0.832c-2.104-0.418-4.312-1.291-5-3.419c-0.478-1.035-1.062-2.04-1.857-2.896
	c-0.799-0.855-1.828-1.521-2.957-1.848c-1.373-0.406-3.039-0.479-4.654,0.078c-1.605,0.539-3.146,1.409-4.854,2.184
	c-3.389,1.586-7.4,2.883-11.893,3.797c-9,1.757-19.587,3.539-31.163,4.02c-2.892,0.105-5.846,0.111-8.834-0.071
	c-2.984-0.204-6.02-0.541-9.088-0.819c-6.139-0.586-12.424-1.205-18.797-1.597c-1.593-0.102-3.192-0.179-4.794-0.233
	c-1.605-0.047-3.205-0.081-4.793-0.313c-3.181-0.424-6.278-1.38-9.248-2.604c-1.488-0.611-2.947-1.291-4.419-1.938
	c-1.463-0.638-2.991-1.285-4.619-1.337c-1.622-0.135-3.227,0.354-4.646,1.068c-1.434,0.709-2.825,1.479-4.277,2.115
	c-2.896,1.289-5.935,2.185-8.987,2.809c-3.059,0.609-6.13,0.967-9.162,1.257c-2.941,0.272-5.847,0.472-8.709,0.638
	c7.311-0.408,14.489-1,19.629-2.246c11-2.665,11.601-6.382,17.278-5.445c3.724,0.611,10.486,5.783,20.393,6.057
	c9.679,0.271,20.998,1.562,32.329,2.618c12.874,1.206,30.079-1.419,41.168-3.562c14.666-2.835,16.002-7.35,21.334-6.335
	c2.404,0.455,4.168,2,5.502,5.169c1.129,2.683,4.666,3.146,6.5,3.5c3.666,0.699,4.162,3,6.162,2.666c2-0.332,6.146-0.396,7.338,0.5
	c1.332,1,0.996,4.834,3.328,4.834c2.334,0,3.334,0.224,5.334,2.273c2,2.057,6.332,3.061,9,3.061c2.666,0,3.334-1,5.334,0
	s4.332,2.666,6.666,2.332c2.334-0.332,6.104-0.557,8.004-0.835c3.672-0.545,4.996,3.5,7.33,3.835
	c2.332,0.334,3.666,3.668,5.666,4.334c2,0.664,3.332,2.331,6,3.666c2.666,1.334,5.668,4,8.334,4.668
	c2.666,0.666,3.666,1.332,6,3.332c2.332,2,3.836,4.665,7.17,3.665s18.433-16.514,23.334-20.167c4.425-3.3,12.283-7.403,13.666-1.333
	c0.23,1.021-4.996,3.499-5.334,9.333c-0.178,3.064-0.166,22.5-2.17,26.17c0.062,0.066,0.138,0.169,0.203,0.25
	c-0.186-0.026-3.754-0.979-5.135-1.354c-3.271-0.875-6.736-1.639-9.799-3.062l-2.848-1.24c-0.957-0.396-1.869-0.812-2.785-1.28
	c-1.826-0.921-3.617-1.915-5.396-2.978c-1.521-0.906-3.104-1.908-4.498-2.979l-1.795-1.27c-0.021,0.019,1.592,1.496,2.287,2.062
	c1.094,0.958,2.48,1.604,3.727,2.405c2.24,1.436,4.388,2.617,6.604,3.666c2.271,0.959,4.476,1.981,7,2.937
	c1.361,0.517,2.785,0.819,4.183,1.188l4.188,1.041c0.775,0.188,1.594,0.468,2.348,0.597c0.678,0.116,1.84,0.26,1.928,0.271
	c2.689,3.254,7.14,12.848,7.134,16.75c-0.005,4,3.303,19.68,5.329,24c2.507,5.332,4.672,6.666,7,6.666
	c2.688,0-0.659,9.166-11.885,5.793c-7.285-2.189-14.977-12.354-20.449-19.793c-6.498-8.847-18.325-29.736-23.692-29.315
	c-5.974,0.472-14.521,3.522-19.854,6.522c-5.332,3-10.117,5.605-12.117,7.271s-9.316,2.146-13.672,3.166
	c-5.661,1.334-14.986,6.668-19.661,10.334c-2.823,2.219-9.362,1.757-14.339,3.334c-6.83,2.166-13.666,9-18.666,9.666
	s-7.666-0.334-13,2s-37.333,9.188-47.667,7.926c-10.334-1.26-48.667-3.926-58-5.926s-40.461-6.327-48.164-5.666
	c-11.369,0.979-35.053,2.398-37.178,2.195c-2.362-0.225-5.222-2.188-3.761-3.848c0.904-1.027,12.109-2.266,17.372-3.268
	c15.931-3.025,20.231-5.381,26.064-7.423c5.822-2.034,8.848-4.452,9.522-5.034c0.492,0.043,0.954,0.075,1.331,0.102
	c0.906,0.082,4.565,0.935,5.34,1.438c-1.066,0.049-1.817,1.021-0.083,0.993c-0.183,0.146-1.769,0.188-1.421,0.99
	c0.482,1.104,0.083,0.586,0.411,0.675c-1.534,1.212-2.132,0.984-4.098,1.009c-1.959,0.021-5.417-0.765-6.805-0.137
	c-1.388,0.627-2.459,1.452-1.774,2.51c0.685,1.062,2.846,0.271,4.078,0c4.586-0.988,11.068-1.988,10.8-1.823
	c-0.584,0.407-1.323,0.506-2.052,0.604c-0.747,0.104-1.46,0.271-2.206,0.387l-5.561,0.997c0,0,1.286-0.131,1.571-0.176
	c1.021-0.163,2.068-0.265,3.098-0.409c0.957-0.136,1.837-0.278,2.701-0.437c0.833-0.146,2.238-0.219,3.03-0.852
	c0.217-0.151,0.846-0.895,0.93-1.338c1.398-0.09,2.953-0.097,4.364-0.012c2.607,0.158,4.428,0.826,6.446,2.384
	c1.049,0.812,1.897,1.671,2.874,2.621c0.433,0.422,2.021,1.812,2.414,1.808c0.306-0.008-0.438-1.229-0.925-2.062
	c1.286,0.578,2.511,1.773,3.994,1.562c-0.661-1.228-2.846-2.059-3.961-2.938c1.15,0.229,3.797,0.824,4.799,0.004
	c-0.1-0.046-0.204-0.062-0.313-0.037c-0.674-0.436-2.615-0.538-3.494-0.829c-1.109-0.364-2.173-0.875-3.212-1.297
	c-2.227-0.901-4.413-1.858-6.634-2.696c-2.341-0.885-6.515-2.402-8.989-2.938c-5.189-1.104-13.753-1.188-18.199-1.354
	c-6.949-0.256-12.724-0.705-19.618-0.424c-0.958,0.043-3.394,0.127-5.582,0.312c-1.63,0.123-3.111,0.343-3.762,0.441
	c-9.719,0.66-13.713,1.697-15.144,0.062c-2.298-2.635-5.537-8.946-6.702-12.44c-1.167-3.5-0.208-9.333-1.189-14
	s-0.814-18.379-1.684-23.833c-0.031-0.188-0.059-0.417-0.087-0.637c0.064,0.521,0.134,1.05,0.21,1.589
	c0.148,1.271,0.242,2.595,0.322,3.964c0.157,2.739,0.248,5.659,0.368,8.717c0.141,3.062,0.21,6.266,0.674,9.535
	c0.736,3.231,0.567,6.646,0.659,10.104c0.064,1.722,0.164,3.514,0.817,5.175c0.604,1.655,1.341,3.267,2.131,4.854
	c0.795,1.591,1.652,3.146,2.609,4.65c0.48,0.751,0.986,1.489,1.555,2.188c0.258,0.354,0.66,0.695,1.098,0.854
	c0.437,0.173,0.893,0.243,1.342,0.284c1.803,0.122,3.565-0.095,5.32-0.231l5.225-0.448c3.459-0.271,6.87-0.44,10.188-0.521
	c6.638-0.146,12.903,0.021,18.472,0.271c2.784,0.125,5.396,0.271,7.794,0.437c2.329,0.15,4.883,0.352,5.833,0.438
	c0.136-0.019,0.028,0.061-0.028,0.104l-0.179,0.146l-0.359,0.271c-0.267,0.191-0.4,0.287-0.803,0.551
	c-0.693,0.447-1.353,0.828-1.96,1.158c-2.341,1.295-4.84,2.188-7.387,3.1c-2.52,0.947-5.018,1.92-7.576,2.729
	c-5.11,1.631-10.366,2.8-15.646,3.826c-5.272,1.034-10.646,1.549-15.965,2.625c-0.667,0.146-1.327,0.291-2.001,0.554
	c-0.808,0.233-1.257,1.233-1,2.021c0.257,0.779,0.849,1.273,1.431,1.679c0.599,0.392,1.252,0.672,1.936,0.854
	c0.677,0.205,1.431,0.229,2.095,0.206l2.032-0.052l4.051-0.174c5.397-0.262,10.793-0.584,16.189-0.93l8.095-0.562l4.047-0.309
	c1.362-0.111,2.673-0.24,4.015-0.201c5.375,0.117,10.765,0.725,16.133,1.326c5.371,0.631,10.734,1.354,16.085,2.15
	c2.675,0.401,5.347,0.824,8.011,1.283c1.332,0.229,2.662,0.471,3.985,0.729c1.311,0.264,2.659,0.562,4.006,0.77
	c5.381,0.826,10.772,1.359,16.166,1.906c10.786,1.062,21.586,1.953,32.362,2.959c2.71,0.244,5.345,0.54,8.093,0.83
	c2.769,0.16,5.491-0.025,8.202-0.271c5.418-0.514,10.779-1.354,16.113-2.312c5.332-0.979,10.636-2.077,15.899-3.396
	c1.314-0.334,2.627-0.681,3.937-1.062c0.655-0.195,1.312-0.398,1.965-0.638c0.319-0.107,0.675-0.261,0.979-0.392
	c0.302-0.13,0.604-0.252,0.912-0.366c1.224-0.464,2.479-0.804,3.767-0.979c1.287-0.188,2.608-0.207,3.967-0.244
	c1.394-0.038,2.789-0.104,4.207-0.312c1.496-0.245,2.812-0.854,4.062-1.495c2.481-1.322,4.729-2.9,7.033-4.346
	c2.293-1.438,4.625-2.808,7.102-3.666c2.471-0.851,5.148-1.107,7.833-1.477c1.349-0.183,2.704-0.369,4.069-0.724
	c0.682-0.181,1.362-0.406,2.03-0.732c0.332-0.171,0.662-0.354,0.976-0.595l0.801-0.605c2.125-1.572,4.385-2.994,6.682-4.317
	c2.301-1.315,4.646-2.543,7.062-3.586c1.203-0.521,2.424-0.996,3.652-1.375c1.225-0.388,2.492-0.614,3.791-0.847
	c2.596-0.444,5.227-0.767,7.857-1.373c0.658-0.148,1.318-0.334,1.984-0.578c0.332-0.128,0.666-0.265,1.002-0.45
	c0.168-0.101,0.338-0.192,0.504-0.324l0.396-0.312c0.99-0.763,2.104-1.443,3.221-2.122c2.232-1.341,4.525-2.604,6.812-3.893
	c1.146-0.643,2.27-1.293,3.41-1.86c1.148-0.571,2.322-1.104,3.516-1.604c2.377-0.994,4.812-1.854,7.275-2.543
	c1.232-0.354,2.479-0.65,3.729-0.896c0.623-0.123,1.248-0.228,1.875-0.312l0.938-0.111l0.471-0.043
	c0.121-0.004,0.211-0.006,0.328,0.012c0.938,0.135,1.998,0.929,2.901,1.729c0.925,0.821,1.787,1.753,2.613,2.714
	c1.654,1.927,3.187,3.982,4.668,6.066c2.969,4.179,5.742,8.48,8.576,12.759c2.812,4.301,5.869,8.436,9.049,12.438
	c3.228,3.979,6.619,7.896,10.902,10.921c1.074,0.743,2.221,1.413,3.447,1.938c1.248,0.521,2.525,0.854,3.832,1.074
	c2.596,0.434,5.477,0.258,7.893-1.174c1.188-0.711,2.246-1.693,2.92-2.986C388,115.02,388.291,114.314,388.166,113.369z
	 M40.605,89.525c0.682-0.021,1.39-0.041,2.08-0.054c-1.955,0.069-3.736,0.165-5.364,0.271C38.07,89.669,39.279,89.564,40.605,89.525
	z M309.852,64.201c-0.062,0.004-0.104,0.008-0.104,0.009S309.787,64.208,309.852,64.201z M312.785,64.133
	c1.985-0.018,4,0.213,5.938,0.652c0.897,0.205,1.754,0.451,2.565,0.729c0.812,0.298,1.623,0.604,2.438,0.843
	c1.631,0.5,3.274,0.896,5.021,1.483c0.48,0.162,1.707,0.625,2.719,1.229c1.021,0.588,1.775,1.334,1.773,1.331
	c0.002,0.005-0.693-0.766-1.688-1.399c-0.982-0.658-2.222-1.191-2.804-1.408c-1.367-0.51-2.75-0.881-4.119-1.271
	c-0.688-0.195-1.362-0.396-2.039-0.63c-0.67-0.233-1.354-0.486-2.045-0.7c-1.114-0.365-3.812-0.936-6.241-0.959
	c-2.119-0.062-4.007,0.125-4.451,0.166C310.326,64.176,312.297,64.111,312.785,64.133z M131.398,82.514
	c-0.181-0.053-0.361-0.104-0.545-0.146c-1.48-0.361-2.929,0-4.182,0.004c-2.518,0.06-4.294-0.127-4.294-0.104
	c0.001-0.021,1.738,0.201,4.25,0.207c1.259,0.03,2.707-0.299,4.13,0.075c0.172,0.04,0.351,0.091,0.533,0.151l0.068,0.021
	c0.007,0,0.149,0.068,0.272-0.068c0.102-0.226,0.021-0.245,0.018-0.314c-0.015-0.042-0.037-0.069-0.055-0.104
	c0.051,0.062,0.11,0.115,0.159,0.182c0.19,0.229,0.363,0.471,0.531,0.699c0.053,0.064,0.06,0.094,0.163,0.213
	c0.057,0.051,0.003,0.016,0.093,0.068l0.042,0.027l0.083,0.053c0.111,0.068,0.217,0.146,0.317,0.218
	c0.405,0.281,0.729,0.577,0.985,0.851c0.919,0.953,1.513,2.179,2.06,3.424c0.553,1.24,1.079,2.562,2.032,3.646
	c0.454,0.545,1.09,0.979,1.654,1.318l1.718,1.104l3.438,2.198c0.548,0.386,1.244,0.716,1.914,0.864
	c0.668,0.188,1.355,0.271,1.959,0.486c0.616,0.219,1.212,0.553,1.873,0.801c0.683,0.234,1.311,0.378,1.965,0.604
	c2.571,0.808,5.23,1.854,8.076,1.645c1.128-0.062,2.676-0.413,4.171-1.393c1.471-0.945,3.077-2.438,3.727-4.584
	c0.314-1.063,0.291-2.277-0.13-3.373c-0.402-1.113-1.243-2.043-2.208-2.729c-1.934-1.387-4.281-2.09-6.025-3.587
	c-1.734-1.506-3.132-3.283-4.664-4.678c-1.5-1.411-3.206-2.438-4.825-2.607c-1.61-0.146-2.896,0.227-3.792,0.299
	c-0.898,0.115-1.407,0.104-1.407,0.104c0-0.006,0.592,0.021,1.507-0.088c0.913-0.084,2.155-0.354,3.462-0.236
	c1.31,0.109,2.565,0.771,3.501,1.476c0.946,0.696,1.636,1.405,2.013,1.773c1.341,1.332,2.542,2.817,3.981,4.104
	c1.459,1.299,3.286,2.019,4.91,2.979c0.815,0.479,1.593,1.021,2.211,1.713c0.619,0.688,1.024,1.536,1.186,2.438
	c0.357,1.821-0.5,3.662-1.756,4.983c-1.182,1.245-2.676,2.188-4.256,2.629c-1.599,0.418-3.274,0.354-4.861,0.009
	c-1.597-0.336-3.135-0.897-4.696-1.396c-0.778-0.271-1.596-0.429-2.289-0.743c-0.706-0.312-1.494-0.727-2.32-0.885
	c-0.8-0.184-1.58-0.313-2.252-0.667c-0.659-0.377-1.362-0.849-2.042-1.271l-4.146-2.646c-1.389-0.812-2.196-2.312-2.875-3.845
	c-0.692-1.525-1.396-3.195-2.737-4.42c-0.245-0.229-0.566-0.489-0.972-0.752l-0.32-0.193c-0.041-0.033-0.144-0.182-0.218-0.273
	c-0.163-0.217-0.34-0.438-0.535-0.668c-0.39-0.449-0.847-0.928-1.414-1.314c-0.439-0.312-0.973-0.565-1.55-0.646
	c-0.123-0.062-0.244-0.137-0.368-0.188l-0.033,0.174c-0.024,0.002-0.048-0.004-0.072-0.004l-0.222,0.015l0.202,0.092
	c0.022,0.013,0.044,0.021,0.067,0.032l-0.03,0.162c0.142-0.006,0.281,0.014,0.419,0.033c0.513,0.254,1.018,0.534,1.478,0.896
	c0.296,0.229,0.579,0.485,0.803,0.787c0.055,0.075,0.106,0.153,0.145,0.237C131.459,82.439,131.506,82.57,131.398,82.514z
	 M18.713,21.26c0.402-0.24,0.621-0.471,1.242-0.54c0.224-0.456,0.021-0.752-0.506-0.716V19.9c-1.468,0.014-1.491,0.33-1.66,1.658
	C18.542,22.119,18.417,21.438,18.713,21.26z M21.756,20.633c0,0,0.75-0.273,1.059-0.839c-0.447-0.413-1.065-0.238-1.077-1.03
	c-0.554,0.111-0.388,0.967-1.135,0.604C19.939,19.947,21.268,20.584,21.756,20.633z"/>
<path fill="#CBCCD0" d="M27.438,105.725c-0.241-0.051-0.23-0.459,0.005-1.121c0.144-0.398,0.626-1.348,1.196-1.191
	c0.134,0.183-0.265,0.439-0.279,0.979c-0.004,0.174,0.022,0.523,0.141,0.799c0.094,0.227,0.213,0.398,0.078,0.473
	C28.342,105.77,27.704,105.781,27.438,105.725z M30.176,105.347c-0.241-0.048-0.23-0.435,0.005-1.058
	c0.144-0.383,0.626-1.272,1.196-1.131c0.134,0.17-0.265,0.422-0.279,0.928c-0.004,0.163,0.022,0.492,0.141,0.753
	c0.094,0.208,0.213,0.376,0.078,0.44C31.083,105.389,30.441,105.399,30.176,105.347z M32.992,104.939
	c-0.241-0.045-0.23-0.411,0.005-1.012c0.144-0.365,0.626-1.215,1.196-1.08c0.134,0.163-0.265,0.402-0.279,0.89
	c-0.004,0.153,0.022,0.478,0.141,0.727c0.094,0.196,0.213,0.354,0.078,0.42C33.896,104.98,33.254,104.99,32.992,104.939z
	 M35.896,104.438c-0.241-0.049-0.23-0.438,0.005-1.075c0.144-0.393,0.626-1.3,1.196-1.146c0.134,0.174-0.265,0.43-0.279,0.942
	c-0.004,0.168,0.022,0.504,0.141,0.771c0.094,0.213,0.213,0.385,0.078,0.446C36.8,104.481,36.163,104.492,35.896,104.438z
	 M41.612,103.554c-0.241-0.049-0.23-0.438,0.005-1.069c0.144-0.389,0.626-1.283,1.196-1.146c0.134,0.172-0.265,0.426-0.279,0.938
	c-0.004,0.166,0.022,0.5,0.141,0.769c0.094,0.211,0.213,0.382,0.078,0.44C42.521,103.597,41.877,103.606,41.612,103.554z
	 M38.695,104.09c-0.241-0.048-0.23-0.438,0.005-1.062c0.144-0.388,0.626-1.274,1.196-1.14c0.134,0.17-0.265,0.424-0.279,0.938
	c-0.004,0.166,0.022,0.498,0.141,0.762c0.094,0.21,0.213,0.379,0.078,0.438C39.604,104.133,38.961,104.143,38.695,104.09z
	 M44.474,102.942c-0.241-0.053-0.23-0.448,0.005-1.103c0.144-0.396,0.626-1.32,1.196-1.174c0.134,0.177-0.265,0.438-0.279,0.963
	c-0.004,0.17,0.022,0.514,0.141,0.783c0.094,0.217,0.213,0.392,0.078,0.457C45.377,102.986,44.737,102.996,44.474,102.942z
	 M47.537,102.268c-0.241-0.049-0.23-0.435,0.005-1.059c0.144-0.383,0.626-1.271,1.196-1.129c0.134,0.17-0.265,0.42-0.279,0.926
	c-0.004,0.164,0.022,0.494,0.141,0.754c0.094,0.207,0.213,0.377,0.078,0.439C48.44,102.309,47.799,102.32,47.537,102.268z
	 M50.829,101.535c-0.241-0.047-0.23-0.418,0.005-1.021c0.144-0.367,0.626-1.225,1.196-1.088c0.134,0.164-0.265,0.404-0.279,0.896
	c-0.004,0.149,0.022,0.477,0.141,0.727c0.094,0.199,0.213,0.361,0.078,0.424C51.732,101.576,51.091,101.586,50.829,101.535z
	 M53.788,100.908c-0.241-0.055-0.23-0.439,0.005-1.071c0.144-0.388,0.626-1.288,1.196-1.146c0.134,0.176-0.265,0.43-0.279,0.938
	c-0.004,0.166,0.022,0.501,0.141,0.764c0.094,0.211,0.213,0.389,0.078,0.445C54.691,100.951,54.05,100.963,53.788,100.908z
	 M57.164,99.9c-0.241-0.05-0.23-0.427,0.005-1.03c0.144-0.375,0.626-1.241,1.196-1.104c0.134,0.166-0.265,0.412-0.279,0.906
	c-0.004,0.158,0.022,0.479,0.141,0.734c0.094,0.197,0.213,0.363,0.078,0.432C58.067,99.944,57.43,99.951,57.164,99.9z
	 M60.433,98.947c-0.241-0.055-0.23-0.438,0.005-1.057c0.144-0.384,0.626-1.267,1.196-1.123c0.134,0.168-0.265,0.418-0.279,0.92
	c-0.004,0.162,0.022,0.488,0.141,0.748c0.094,0.207,0.213,0.375,0.078,0.438C61.336,98.988,60.695,98.999,60.433,98.947z
	 M63.351,97.785c-0.241-0.049-0.23-0.438,0.005-1.062c0.144-0.384,0.626-1.271,1.196-1.135c0.134,0.171-0.265,0.423-0.279,0.931
	c-0.004,0.165,0.022,0.495,0.141,0.76c0.094,0.209,0.213,0.382,0.078,0.438C64.254,97.826,63.617,97.838,63.351,97.785z
	 M66.536,96.694c-0.221-0.049-0.21-0.392,0.004-0.938c0.132-0.339,0.573-1.128,1.094-1.002c0.123,0.148-0.243,0.373-0.255,0.82
	c-0.004,0.146,0.021,0.438,0.128,0.668c0.086,0.188,0.195,0.334,0.072,0.393C67.362,96.73,66.776,96.738,66.536,96.694z
	 M69.807,95.396c-0.228-0.037-0.218-0.354,0.005-0.861c0.136-0.312,0.592-1.039,1.13-0.93c0.127,0.145-0.25,0.35-0.264,0.764
	c-0.004,0.138,0.021,0.398,0.133,0.611c0.089,0.173,0.201,0.312,0.074,0.359C70.664,95.43,70.058,95.439,69.807,95.396z
	 M72.852,94.044c-0.222-0.038-0.212-0.349,0.004-0.854c0.132-0.311,0.575-1.021,1.099-0.902c0.124,0.137-0.244,0.338-0.256,0.744
	c-0.004,0.131,0.021,0.396,0.129,0.604c0.086,0.168,0.196,0.305,0.072,0.354C73.685,94.078,73.096,94.086,72.852,94.044z
	 M75.592,92.574c-0.201-0.041-0.191-0.368,0.004-0.899c0.12-0.325,0.521-1.081,0.995-0.96c0.111,0.146-0.221,0.357-0.232,0.787
	c-0.004,0.139,0.019,0.42,0.117,0.641c0.079,0.184,0.177,0.32,0.065,0.375C76.349,92.611,75.813,92.619,75.592,92.574z"/>
<path fill="#FFFFFF" d="M25.176,107.008c-0.241-0.055-0.23-0.5,0.005-1.219c0.144-0.441,0.626-1.467,1.196-1.303
	c0.134,0.188-0.265,0.479-0.279,1.062c-0.004,0.188,0.022,0.565,0.141,0.868c0.094,0.236,0.213,0.438,0.078,0.507
	C26.083,107.057,25.441,107.067,25.176,107.008z M27.676,107.008c-0.241-0.055-0.23-0.5,0.005-1.219
	c0.144-0.441,0.626-1.467,1.196-1.303c0.134,0.188-0.265,0.479-0.279,1.062c-0.004,0.188,0.022,0.565,0.141,0.868
	c0.094,0.236,0.213,0.438,0.078,0.507C28.583,107.057,27.941,107.067,27.676,107.008z M30.176,106.799
	c-0.241-0.055-0.23-0.5,0.005-1.219c0.144-0.44,0.626-1.465,1.196-1.303c0.134,0.188-0.265,0.479-0.279,1.062
	c-0.004,0.188,0.022,0.567,0.141,0.869c0.094,0.237,0.213,0.437,0.078,0.506C31.083,106.848,30.441,106.859,30.176,106.799z
	 M33.176,106.582c-0.241-0.062-0.23-0.5,0.005-1.221c0.144-0.439,0.626-1.471,1.196-1.31c0.134,0.195-0.265,0.484-0.279,1.068
	c-0.004,0.188,0.022,0.562,0.141,0.864c0.094,0.234,0.213,0.438,0.078,0.511C34.083,106.631,33.441,106.643,33.176,106.582z
	 M38.833,105.929c-0.241-0.056-0.23-0.5,0.005-1.22c0.144-0.439,0.626-1.465,1.196-1.301c0.134,0.189-0.265,0.479-0.279,1.062
	c-0.004,0.188,0.022,0.569,0.141,0.868c0.094,0.24,0.213,0.438,0.078,0.507C39.736,105.979,39.099,105.988,38.833,105.929z
	 M36.009,106.379c-0.241-0.057-0.23-0.5,0.005-1.221c0.144-0.439,0.626-1.471,1.196-1.307c0.134,0.192-0.265,0.481-0.279,1.065
	c-0.004,0.188,0.022,0.562,0.141,0.867c0.094,0.231,0.213,0.435,0.078,0.508C36.917,106.428,36.274,106.439,36.009,106.379z
	 M41.509,105.512c-0.241-0.055-0.23-0.5,0.005-1.219c0.144-0.439,0.626-1.465,1.196-1.303c0.134,0.191-0.265,0.479-0.279,1.062
	c-0.004,0.188,0.022,0.569,0.141,0.869c0.094,0.239,0.213,0.438,0.078,0.506C42.417,105.561,41.775,105.572,41.509,105.512z
	 M44.467,104.836c-0.241-0.055-0.23-0.5,0.005-1.219c0.144-0.44,0.626-1.465,1.196-1.309c0.134,0.194-0.265,0.483-0.279,1.065
	c-0.004,0.188,0.022,0.567,0.141,0.869c0.094,0.231,0.213,0.434,0.078,0.506C45.375,104.885,44.733,104.896,44.467,104.836z
	 M48,104.225c-0.241-0.055-0.23-0.5,0.005-1.219c0.144-0.438,0.626-1.465,1.196-1.303c0.134,0.191-0.265,0.48-0.279,1.062
	c-0.004,0.188,0.022,0.566,0.141,0.866c0.094,0.239,0.213,0.438,0.078,0.509C48.903,104.274,48.266,104.285,48,104.225z
	 M51.051,103.549c-0.241-0.055-0.23-0.5,0.005-1.219c0.144-0.44,0.626-1.465,1.196-1.303c0.134,0.188-0.265,0.479-0.279,1.062
	c-0.004,0.188,0.022,0.567,0.141,0.869c0.094,0.237,0.213,0.437,0.078,0.506C51.958,103.598,51.316,103.609,51.051,103.549z
	 M54.301,102.938c-0.241-0.055-0.23-0.5,0.005-1.219c0.144-0.438,0.626-1.465,1.196-1.302c0.134,0.196-0.265,0.485-0.279,1.062
	c-0.004,0.188,0.022,0.566,0.141,0.869c0.094,0.236,0.213,0.438,0.078,0.506C55.208,102.986,54.566,102.998,54.301,102.938z
	 M57.468,102.262c-0.241-0.055-0.23-0.5,0.005-1.219c0.144-0.439,0.626-1.465,1.196-1.303c0.134,0.191-0.265,0.479-0.279,1.062
	c-0.004,0.188,0.022,0.569,0.141,0.869c0.094,0.239,0.213,0.438,0.078,0.506C58.375,102.311,57.733,102.322,57.468,102.262z
	 M60.551,101.434c-0.241-0.055-0.23-0.5,0.005-1.219c0.144-0.438,0.626-1.465,1.196-1.303c0.134,0.191-0.265,0.48-0.279,1.062
	c-0.004,0.188,0.022,0.566,0.141,0.866c0.094,0.239,0.213,0.438,0.078,0.509C61.458,101.481,60.816,101.494,60.551,101.434z
	 M63.586,100.609c-0.241-0.053-0.23-0.446,0.005-1.098c0.144-0.396,0.626-1.312,1.196-1.169c0.134,0.176-0.265,0.438-0.279,0.959
	c-0.004,0.169,0.022,0.512,0.141,0.779c0.094,0.215,0.213,0.39,0.078,0.455C64.495,100.652,63.854,100.664,63.586,100.609z
	 M66.2,100.09c-0.241-0.049-0.23-0.443,0.005-1.084c0.144-0.391,0.626-1.301,1.196-1.156c0.134,0.176-0.265,0.438-0.279,0.949
	c-0.004,0.168,0.022,0.505,0.141,0.771c0.094,0.213,0.213,0.385,0.078,0.441C67.104,100.133,66.462,100.143,66.2,100.09z
	 M69.301,99.324c-0.241-0.047-0.23-0.43,0.005-1.031c0.144-0.372,0.626-1.238,1.196-1.104c0.134,0.164-0.265,0.406-0.279,0.899
	c-0.004,0.159,0.022,0.479,0.141,0.731c0.094,0.197,0.213,0.361,0.078,0.431C70.208,99.365,69.566,99.375,69.301,99.324z
	 M72.227,98.804c-0.241-0.047-0.23-0.425,0.005-1.038c0.144-0.374,0.626-1.246,1.196-1.104c0.134,0.168-0.265,0.414-0.279,0.91
	c-0.004,0.154,0.022,0.479,0.141,0.732c0.094,0.203,0.213,0.369,0.078,0.438C73.13,98.846,72.493,98.855,72.227,98.804z
	 M75.217,98.035c-0.241-0.047-0.23-0.438,0.005-1.064c0.144-0.385,0.626-1.281,1.196-1.139c0.134,0.172-0.265,0.424-0.279,0.934
	c-0.004,0.165,0.022,0.498,0.141,0.763c0.094,0.209,0.213,0.382,0.078,0.439C76.125,98.078,75.483,98.089,75.217,98.035z
	 M78.009,97.58c-0.241-0.045-0.23-0.404,0.005-0.987c0.144-0.354,0.626-1.187,1.196-1.056c0.134,0.158-0.265,0.394-0.279,0.865
	c-0.004,0.146,0.022,0.461,0.141,0.697c0.094,0.192,0.213,0.354,0.078,0.409C78.917,97.619,78.275,97.629,78.009,97.58z
	 M80.993,97.22c-0.241-0.047-0.23-0.426,0.005-1.038c0.144-0.375,0.626-1.246,1.196-1.104c0.134,0.166-0.265,0.412-0.279,0.902
	c-0.004,0.161,0.022,0.484,0.141,0.739c0.094,0.204,0.213,0.37,0.078,0.438C81.896,97.262,81.256,97.271,80.993,97.22z
	 M83.836,96.75c-0.241-0.049-0.23-0.438,0.005-1.051c0.144-0.379,0.626-1.268,1.196-1.121c0.134,0.168-0.265,0.418-0.279,0.92
	c-0.004,0.162,0.022,0.49,0.141,0.748c0.094,0.205,0.213,0.373,0.078,0.436C84.745,96.791,84.104,96.802,83.836,96.75z"/>
<g id="druart-logo_2_">
	<g id="text_2_">
		<path fill="#D8D9DC" d="M283.578,98.025c0.055-0.056,0.194-0.112,0.422-0.169c0.225-0.056,0.504-0.1,0.834-0.131
			c0.33-0.032,0.697-0.039,1.104-0.021c0.407,0.018,0.819,0.072,1.238,0.163c0.417,0.092,0.822,0.229,1.213,0.411
			c0.392,0.183,0.738,0.431,1.042,0.742c0.302,0.312,0.546,0.696,0.73,1.149s0.272,0.993,0.265,1.618
			c0,0.457-0.086,0.85-0.259,1.181c-0.173,0.329-0.394,0.61-0.661,0.843c-0.27,0.232-0.572,0.421-0.91,0.569
			c-0.337,0.148-0.669,0.261-0.995,0.343c-0.326,0.081-0.634,0.135-0.927,0.162c-0.291,0.028-0.525,0.043-0.701,0.043
			c-0.055,0-0.105-0.002-0.155-0.006c-0.05-0.003-0.105-0.009-0.167-0.016l-0.068,0.138l-0.207-0.011l-0.127,0.284l-0.127-0.031
			l-0.047,0.063c-0.029,0.042-0.05,0.063-0.057,0.063c-0.008-0.035-0.014-0.11-0.018-0.227s-0.01-0.258-0.018-0.427
			c-0.191-0.063-0.383-0.155-0.574-0.279c-0.192-0.123-0.367-0.28-0.523-0.474c-0.158-0.193-0.285-0.432-0.381-0.717
			s-0.143-0.623-0.143-1.018c0.029-0.063,0.061-0.108,0.092-0.137c0.022-0.021,0.046-0.026,0.068-0.016
			c0.023,0.011,0.035,0.064,0.035,0.163c0,0.07,0.034,0.147,0.104,0.232c0.068,0.084,0.162,0.166,0.281,0.247
			s0.263,0.159,0.431,0.232c0.169,0.073,0.356,0.135,0.563,0.184c-0.008-0.303-0.017-0.618-0.029-0.948
			c-0.012-0.33-0.021-0.655-0.033-0.976c-0.012-0.319-0.025-0.629-0.041-0.927c-0.016-0.299-0.034-0.574-0.058-0.827
			c-0.146,0.027-0.29,0.056-0.431,0.084c-0.143,0.028-0.286,0.063-0.432,0.105c-0.092-0.042-0.183-0.131-0.271-0.269
			c-0.089-0.137-0.155-0.293-0.201-0.469s-0.062-0.348-0.046-0.517S283.472,98.131,283.578,98.025z M286.007,103.295
			c-0.008-0.161-0.01-0.321-0.005-0.479c0.004-0.158,0.005-0.301,0.005-0.427v-0.432l-0.103,1.339h0.057L286.007,103.295
			L286.007,103.295z M289.459,101.419c0.007-0.169-0.065-0.351-0.219-0.548c-0.154-0.196-0.37-0.385-0.65-0.563
			c-0.28-0.18-0.611-0.341-0.995-0.485c-0.384-0.144-0.798-0.247-1.243-0.311c-0.008,0.309-0.017,0.64-0.028,0.99
			s-0.022,0.697-0.034,1.039c-0.012,0.34-0.025,0.661-0.041,0.964s-0.025,0.562-0.033,0.78c0.359-0.028,0.73-0.104,1.109-0.226
			c0.379-0.124,0.725-0.272,1.035-0.449c0.311-0.176,0.568-0.367,0.771-0.574C289.334,101.828,289.443,101.623,289.459,101.419z"/>
		<path fill="#D8D9DC" d="M297.023,100.52c0,0.261-0.043,0.491-0.129,0.693s-0.197,0.381-0.338,0.534
			c-0.14,0.154-0.305,0.29-0.496,0.406c-0.189,0.117-0.39,0.216-0.6,0.299c0.225,0.356,0.383,0.735,0.473,1.136
			c0.089,0.4,0.092,0.759,0.006,1.073c0.016-0.239,0.004-0.459-0.035-0.658c-0.039-0.198-0.086-0.369-0.141-0.514
			c-0.07-0.171-0.147-0.321-0.232-0.452c0.078,0.246,0.144,0.483,0.197,0.71c0.047,0.191,0.084,0.385,0.111,0.581
			c0.027,0.194,0.021,0.347-0.018,0.457c-0.008-0.007-0.014-0.014-0.018-0.021s-0.01-0.014-0.018-0.021l-0.023-0.02
			c-0.023,0.041-0.051,0.075-0.082,0.103c-0.022,0.027-0.047,0.054-0.069,0.077c-0.023,0.023-0.044,0.036-0.058,0.036
			c-0.016,0.007-0.039,0.012-0.07,0.016c-0.031,0.003-0.066,0.009-0.105,0.016s-0.082,0.018-0.127,0.031l-0.105-0.104
			c-0.117-0.403-0.295-0.783-0.536-1.136s-0.49-0.673-0.747-0.961c-0.209,0.027-0.403,0.045-0.582,0.051
			c-0.18,0.008-0.33,0.011-0.455,0.011h-0.07c-0.016,0.158-0.026,0.302-0.034,0.432c-0.009,0.13-0.017,0.243-0.022,0.339
			c-0.009,0.11-0.017,0.205-0.023,0.288c-0.016,0.027-0.035,0.055-0.059,0.082c-0.016,0.027-0.035,0.059-0.058,0.093
			s-0.051,0.071-0.082,0.112c-0.016,0.028-0.036,0.062-0.064,0.104c-0.026,0.04-0.052,0.086-0.075,0.134
			c-0.031,0.055-0.062,0.113-0.094,0.175c-0.023,0.007-0.05,0.017-0.081,0.03c-0.055,0.027-0.102,0.062-0.14,0.104
			c-0.009,0.013-0.017,0.029-0.023,0.047c-0.008,0.017-0.02,0.039-0.035,0.066s-0.027,0.058-0.035,0.093l-0.093-0.011l-0.14,0.195
			l-0.047-0.021c-0.031-0.014-0.051-0.021-0.059-0.021c-0.031,0.014-0.057,0.04-0.076,0.077c-0.019,0.037-0.04,0.057-0.063,0.057
			c-0.009-0.041-0.017-0.144-0.023-0.309c-0.008-0.164-0.018-0.37-0.029-0.616c-0.013-0.246-0.022-0.525-0.035-0.838
			c-0.012-0.312-0.021-0.639-0.029-0.981c-0.179-0.096-0.343-0.226-0.489-0.391c-0.148-0.164-0.265-0.366-0.351-0.605
			c-0.009-0.021-0.021-0.078-0.04-0.175c-0.02-0.096-0.021-0.178-0.006-0.246c0.016,0.068,0.037,0.142,0.064,0.222
			c0.027,0.078,0.057,0.154,0.088,0.226c0.03,0.071,0.064,0.135,0.099,0.19c0.035,0.055,0.068,0.092,0.099,0.113
			c-0.108-0.198-0.182-0.386-0.221-0.561s-0.043-0.32-0.012-0.437c0.062,0.171,0.307,0.332,0.734,0.482
			c-0.016-0.342-0.033-0.675-0.053-0.996c-0.02-0.322-0.037-0.624-0.053-0.904c-0.225,0.027-0.463,0.067-0.711,0.123
			c-0.093-0.027-0.182-0.098-0.268-0.211s-0.149-0.238-0.192-0.375c-0.043-0.138-0.056-0.274-0.04-0.411
			c0.016-0.138,0.074-0.246,0.174-0.329c0.055-0.041,0.193-0.094,0.414-0.159c0.223-0.064,0.5-0.125,0.834-0.18
			s0.705-0.096,1.113-0.123s0.82-0.026,1.236,0.005c0.416,0.03,0.822,0.1,1.218,0.205c0.396,0.106,0.746,0.268,1.05,0.483
			c0.302,0.216,0.547,0.494,0.734,0.833C296.941,99.61,297.031,100.026,297.023,100.52z M296.113,100.232
			c0.008-0.144-0.057-0.281-0.191-0.411c-0.137-0.13-0.341-0.241-0.613-0.333c-0.271-0.093-0.607-0.163-1.008-0.211
			s-0.861-0.062-1.381-0.041c0.008,0.055,0.012,0.111,0.012,0.169c0,0.059,0,0.122,0,0.19c-0.008,0.329-0.02,0.659-0.035,0.992
			c-0.016,0.332-0.035,0.659-0.059,0.98c0.35,0,0.715-0.039,1.096-0.117c0.381-0.079,0.731-0.18,1.049-0.304
			c0.319-0.123,0.584-0.264,0.794-0.421C295.986,100.567,296.098,100.403,296.113,100.232z"/>
		<path fill="#D8D9DC" d="M297.027,101.151c-0.013-0.544,0.009-1.033,0.064-1.468c0.055-0.434,0.122-0.803,0.201-1.106
			c0.08-0.303,0.166-0.541,0.258-0.714s0.162-0.269,0.212-0.291c0.184-0.072,0.404-0.089,0.661-0.047
			c0.258,0.042,0.497,0.11,0.717,0.204c0.221,0.095,0.405,0.199,0.553,0.314c0.146,0.115,0.208,0.215,0.184,0.299
			c-0.307,1.088-0.457,1.959-0.451,2.612c0.006,0.654,0.083,1.159,0.23,1.514c0.146,0.356,0.315,0.592,0.506,0.707
			c0.189,0.115,0.309,0.173,0.357,0.173c0.086,0.011,0.225-0.026,0.414-0.11c0.19-0.083,0.38-0.225,0.57-0.424
			c0.189-0.199,0.355-0.456,0.496-0.769c0.141-0.314,0.212-0.701,0.212-1.161c0-0.544-0.03-0.997-0.093-1.357
			c-0.061-0.361-0.128-0.646-0.201-0.855c-0.086-0.251-0.178-0.438-0.276-0.564l-0.073-0.016c0.036-0.011,0.066-0.021,0.092-0.031
			c0.049-0.021,0.066-0.047,0.055-0.079c-0.012-0.01-0.033-0.026-0.064-0.047c-0.03-0.021-0.045-0.042-0.045-0.062
			c0-0.021,0.012-0.055,0.036-0.103c0.024-0.047,0.085-0.086,0.185-0.117c0.232-0.084,0.496-0.086,0.789-0.009
			c0.295,0.079,0.57,0.252,0.828,0.519s0.475,0.634,0.652,1.098c0.178,0.467,0.261,1.039,0.248,1.719
			c-0.012,0.586-0.101,1.138-0.266,1.656c-0.166,0.518-0.402,0.97-0.708,1.356c-0.307,0.387-0.678,0.693-1.112,0.918
			c-0.436,0.226-0.916,0.333-1.443,0.322c-0.601-0.011-1.134-0.148-1.6-0.416c-0.467-0.267-0.858-0.603-1.177-1.004
			c-0.319-0.403-0.563-0.843-0.735-1.318S297.039,101.569,297.027,101.151z"/>
		<path fill="#D8D9DC" d="M282.484,106.026c0.658-0.062,1.44-0.11,2.348-0.146c0.908-0.035,1.854-0.058,2.841-0.068
			c0.986-0.01,1.972-0.012,2.959-0.003c0.986,0.009,1.894,0.026,2.722,0.053s1.538,0.062,2.13,0.106
			c0.592,0.043,0.979,0.092,1.165,0.145h-0.079c-0.026,0-0.065-0.002-0.118-0.006l0.513,0.1l-0.315,0.012
			c0.104,0.025,0.21,0.048,0.315,0.068c0.079,0.021,0.145,0.041,0.197,0.062c0.053,0.021,0.065,0.035,0.04,0.044
			c-0.079,0.029-0.172,0.076-0.277,0.143c-0.053,0.033-0.104,0.068-0.156,0.105l-0.355-0.031c-1.025-0.021-2.059-0.026-3.097-0.019
			c-1.038,0.009-2.058,0.024-3.057,0.05c-1,0.024-1.96,0.058-2.88,0.096c-0.92,0.04-1.789,0.08-2.604,0.121
			c-0.657,0.033-1.196,0.026-1.617-0.02c-0.42-0.045-0.729-0.111-0.927-0.198c-0.197-0.086-0.276-0.186-0.236-0.297
			C282.031,106.23,282.195,106.125,282.484,106.026z"/>
		<path fill="#D8D9DC" d="M316.894,104.47c0,0.034,0.022,0.096,0.066,0.184c0.044,0.087,0.088,0.177,0.132,0.271
			c0.043,0.092,0.088,0.183,0.132,0.27s0.066,0.143,0.066,0.166c-0.019,0.128-0.044,0.235-0.079,0.322s-0.071,0.166-0.105,0.236
			c-0.036,0.046-0.094,0.084-0.173,0.113s-0.136,0.055-0.171,0.078c-0.036,0.035-0.049,0.062-0.041,0.079
			c0.01,0.017-0.004,0.037-0.039,0.061c-0.036,0.022-0.08,0.04-0.133,0.053c-0.053,0.012-0.097,0.029-0.131,0.052
			c-0.089,0.022-0.186,0.035-0.291,0.035h-0.133c-0.281,0-0.661-0.236-1.137-0.706c-0.476-0.471-0.986-1.09-1.533-1.855
			c-0.088,0.023-0.181,0.047-0.277,0.069c-0.098,0.022-0.198,0.047-0.303,0.069c-0.301-0.022-0.688-0.026-1.164-0.009
			c-0.477,0.017-0.987,0.044-1.533,0.078c-0.547,0.035-1.098,0.079-1.652,0.131c-0.555,0.053-1.054,0.097-1.494,0.132
			c-0.3,0.382-0.612,0.763-0.938,1.141c-0.327,0.377-0.666,0.752-1.019,1.123c-0.071,0.022-0.114,0-0.132-0.069
			s-0.07-0.128-0.158-0.174c-0.036-0.023-0.098-0.021-0.186,0.009c-0.088,0.028-0.158,0.026-0.211-0.009
			c-0.019-0.012-0.035-0.051-0.054-0.113c-0.018-0.064-0.035-0.124-0.054-0.184l-0.053-0.244c-0.07,0-0.141-0.017-0.211-0.052
			c-0.141-0.046-0.237-0.127-0.291-0.244c-0.018-0.022-0.021-0.066-0.013-0.131c0.009-0.063,0.022-0.141,0.04-0.235
			c0.018-0.093,0.035-0.203,0.053-0.33c-0.053,0.046-0.105,0.081-0.158,0.104c-0.106,0.046-0.168,0.046-0.186,0
			c-0.035-0.117-0.057-0.229-0.066-0.34c-0.008-0.11,0.005-0.212,0.041-0.306c0.123-0.243,0.373-0.688,0.753-1.332
			c0.378-0.645,0.788-1.414,1.229-2.309c0.439-0.895,0.85-1.884,1.229-2.971c0.379-1.086,0.631-2.191,0.754-3.318
			c1.058-0.093,1.908-0.124,2.551-0.096c0.643,0.029,1.123,0.106,1.441,0.235c0.511-0.012,0.973,0.049,1.387,0.183
			c0.415,0.134,0.656,0.393,0.728,0.775c0.053,0.313,0.136,0.746,0.251,1.297c0.115,0.552,0.305,1.211,0.568,1.979
			c0.265,0.767,0.631,1.637,1.098,2.613c0.467,0.976,1.088,2.05,1.863,3.222c0.018,0.047,0.014,0.064-0.012,0.052
			c-0.027-0.011-0.062-0.031-0.106-0.061s-0.079-0.052-0.106-0.069C316.906,104.426,316.894,104.435,316.894,104.47z
			 M308.593,101.892c0.563-0.012,1.142-0.009,1.731,0.009s1.168,0.044,1.731,0.078c-0.317-0.499-0.625-1.007-0.925-1.523
			s-0.582-1.037-0.846-1.56c-0.282,0.547-0.561,1.066-0.833,1.56C309.179,100.948,308.893,101.427,308.593,101.892z"/>
		<path fill="#D8D9DC" d="M330.428,98.433c0,0.405-0.096,0.765-0.29,1.08c-0.194,0.314-0.449,0.592-0.767,0.831
			c-0.318,0.24-0.691,0.451-1.123,0.633s-0.886,0.337-1.361,0.464c0.51,0.555,0.867,1.144,1.07,1.769
			c0.202,0.623,0.207,1.182,0.014,1.672c0.033-0.373,0.008-0.714-0.08-1.024c-0.088-0.309-0.193-0.576-0.317-0.801
			c-0.159-0.266-0.335-0.501-0.528-0.703c0.176,0.384,0.326,0.753,0.449,1.104c0.105,0.298,0.189,0.6,0.25,0.903
			c0.062,0.305,0.049,0.542-0.039,0.712c-0.018-0.011-0.031-0.021-0.04-0.032s-0.022-0.021-0.04-0.032l-0.053-0.032
			c-0.053,0.064-0.115,0.117-0.186,0.159c-0.053,0.043-0.105,0.082-0.158,0.12c-0.053,0.037-0.098,0.057-0.133,0.057
			c-0.035,0.01-0.088,0.018-0.158,0.023c-0.07,0.005-0.15,0.014-0.238,0.024c-0.088,0.01-0.184,0.025-0.29,0.047l-0.238-0.159
			c-0.265-0.63-0.67-1.219-1.216-1.769c-0.547-0.549-1.111-1.048-1.691-1.496c-0.477,0.043-0.917,0.069-1.322,0.08
			c-0.406,0.011-0.75,0.016-1.031,0.016h-0.158c-0.035,0.246-0.062,0.47-0.079,0.673c-0.019,0.202-0.036,0.378-0.054,0.527
			c-0.018,0.171-0.035,0.32-0.053,0.448c-0.035,0.043-0.078,0.086-0.131,0.128c-0.037,0.043-0.08,0.091-0.133,0.144
			c-0.053,0.054-0.115,0.112-0.185,0.177c-0.036,0.043-0.084,0.096-0.146,0.159c-0.062,0.064-0.119,0.134-0.172,0.208
			c-0.071,0.085-0.142,0.176-0.212,0.271c-0.053,0.011-0.114,0.026-0.185,0.048c-0.124,0.043-0.229,0.096-0.317,0.159
			c-0.019,0.021-0.035,0.046-0.053,0.072c-0.019,0.026-0.044,0.062-0.079,0.104c-0.035,0.043-0.062,0.091-0.079,0.145l-0.212-0.016
			l-0.316,0.304l-0.105-0.032c-0.072-0.021-0.115-0.032-0.133-0.032c-0.07,0.021-0.128,0.062-0.172,0.12s-0.092,0.089-0.145,0.089
			c-0.02-0.064-0.037-0.225-0.054-0.48c-0.019-0.255-0.04-0.575-0.065-0.959c-0.027-0.385-0.054-0.819-0.08-1.305
			c-0.025-0.485-0.049-0.994-0.065-1.527c-0.405-0.149-0.776-0.352-1.11-0.608c-0.336-0.256-0.6-0.571-0.793-0.944
			c-0.018-0.032-0.049-0.123-0.093-0.272c-0.044-0.148-0.049-0.277-0.013-0.383c0.034,0.106,0.084,0.221,0.145,0.344
			c0.062,0.123,0.128,0.24,0.199,0.352c0.07,0.112,0.146,0.211,0.225,0.296c0.078,0.086,0.154,0.145,0.225,0.177
			c-0.246-0.31-0.414-0.601-0.502-0.872c-0.088-0.272-0.098-0.498-0.026-0.68c0.142,0.267,0.696,0.518,1.665,0.752
			c-0.035-0.533-0.075-1.051-0.119-1.552c-0.043-0.501-0.084-0.971-0.119-1.409c-0.511,0.044-1.049,0.107-1.611,0.192
			c-0.212-0.042-0.414-0.151-0.608-0.328c-0.194-0.176-0.339-0.37-0.437-0.584c-0.096-0.213-0.127-0.426-0.092-0.64
			c0.035-0.213,0.168-0.384,0.396-0.512c0.123-0.064,0.436-0.146,0.938-0.248s1.133-0.194,1.891-0.28
			c0.758-0.085,1.6-0.149,2.523-0.191c0.926-0.043,1.859-0.041,2.803,0.008c0.941,0.048,1.863,0.155,2.763,0.32
			s1.691,0.416,2.38,0.752c0.688,0.336,1.242,0.768,1.665,1.297C330.243,97.017,330.445,97.664,330.428,98.433z M328.366,97.984
			c0.019-0.225-0.128-0.438-0.437-0.641c-0.309-0.202-0.771-0.375-1.387-0.52c-0.617-0.145-1.38-0.253-2.287-0.328
			c-0.908-0.074-1.952-0.096-3.133-0.064c0.018,0.086,0.026,0.174,0.026,0.264c0,0.091,0,0.19,0,0.296
			c-0.019,0.513-0.044,1.027-0.079,1.544c-0.035,0.519-0.08,1.027-0.133,1.528c0.793,0,1.622-0.062,2.486-0.184
			c0.863-0.123,1.656-0.28,2.379-0.473c0.723-0.191,1.322-0.41,1.797-0.655C328.076,98.507,328.331,98.251,328.366,97.984z"/>
		<path fill="#D8D9DC" d="M338.423,94.548c1.321,0.036,2.674,0.087,4.058,0.152c1.385,0.064,2.789,0.134,4.217,0.204
			c-0.035,0.167-0.115,0.36-0.238,0.581c-0.123,0.22-0.312,0.44-0.568,0.66s-0.581,0.431-0.978,0.634
			c-0.396,0.202-0.886,0.363-1.468,0.481c-0.67,0.024-1.312,0.045-1.93,0.062s-1.207,0.039-1.771,0.062
			c-0.035,0.904-0.102,1.812-0.198,2.722s-0.198,1.74-0.304,2.489c-0.124,0.868-0.256,1.702-0.396,2.498l-0.582,0.875l-0.211-0.019
			l-0.424,0.643c-0.018-0.023-0.043-0.041-0.078-0.054c-0.071-0.023-0.15,0-0.238,0.071c-0.035,0.024-0.088,0.097-0.158,0.215
			c-0.037,0.047-0.062,0.101-0.08,0.161h-0.211l-0.344,0.356l-0.238-0.446c-0.035,0.107-0.078,0.208-0.132,0.304
			c-0.035,0.083-0.071,0.158-0.106,0.224c-0.035,0.064-0.07,0.098-0.105,0.098c-0.018-0.096-0.035-0.321-0.053-0.678
			c-0.018-0.357-0.031-0.801-0.04-1.33c-0.009-0.528-0.022-1.127-0.04-1.793s-0.035-1.353-0.054-2.062
			c-0.019-0.707-0.04-1.416-0.065-2.123c-0.025-0.708-0.058-1.378-0.093-2.008c-1.198,0.047-2.137,0.083-2.815,0.106
			c-0.68,0.023-1.133,0.042-1.361,0.054c-0.37,0.013-0.683-0.054-0.938-0.196c-0.255-0.143-0.454-0.324-0.595-0.544
			s-0.229-0.458-0.264-0.714c-0.036-0.256-0.022-0.497,0.039-0.724c0.062-0.225,0.168-0.419,0.317-0.579
			c0.149-0.161,0.349-0.253,0.595-0.277c0.67-0.059,1.401-0.101,2.194-0.125c0.793-0.023,1.64-0.035,2.538-0.035
			c0.105-0.071,0.202-0.119,0.291-0.143c0.158-0.036,0.352-0.065,0.581-0.09c0.229-0.022,0.472-0.032,0.728-0.025
			c0.255,0.006,0.511,0.032,0.766,0.08C337.924,94.363,338.176,94.44,338.423,94.548z"/>
	</g>
	<g id="pincel_2_">
		<g>
			<path fill="#201813" d="M280.788,104.31c-0.132,0.095-0.269,0.26-0.344,0.358c0.143-0.288,0.306-0.566,0.39-0.874
				c-0.062,0.047-0.118,0.099-0.174,0.153c0.086-0.106,0.178-0.215,0.243-0.333c0.02-0.077,0.042-0.146,0.069-0.188l1.129-0.109
				c0.01,0.005,0.03,0.032,0.039,0.038c-0.013-0.013-0.021-0.022-0.021-0.021c0-0.002,0.204,0.142,0.254,0.201
				c0.121,0.13,0.215,0.275,0.31,0.424c0.04,0.061,0.117,0.208,0.167,0.348c0.051,0.139,0.078,0.267,0.078,0.266
				c0.001,0-0.061-0.138-0.072-0.169c-0.041-0.113-0.106-0.217-0.168-0.318c-0.048-0.076-0.094-0.145-0.141-0.211
				c0.02,0.04,0.037,0.079,0.053,0.12c-0.001-0.01-0.001-0.017-0.001-0.017c-0.004,0.002,0.066,0.176,0.082,0.229
				c0.031,0.128,0.05,0.255,0.096,0.379c0.019,0.05,0.054,0.169,0.093,0.271c0.037,0.104,0.088,0.187,0.09,0.187
				c-0.002,0.003-0.079-0.084-0.09-0.109c-0.041-0.082-0.092-0.162-0.129-0.246c-0.009-0.02-0.016-0.039-0.023-0.058
				c0.003,0.074,0.002,0.148-0.002,0.223c0.004,0.035,0.006,0.07,0.015,0.104c0.005,0.033,0.034,0.151,0.036,0.151
				c0,0-0.019-0.031-0.021-0.04c-0.008-0.026-0.021-0.054-0.029-0.081c-0.002-0.007-0.002-0.013-0.004-0.02
				c-0.024,0.326-0.093,0.651-0.17,0.978c-0.135,0.544-0.322,1.1-0.374,1.654c-0.031-0.157-0.135-0.293-0.177-0.45
				c-0.041,0.062-0.062,0.137-0.062,0.22c-0.124-0.262-0.391-0.592-0.539-0.848c-0.146-0.251-0.174-0.388-0.177-0.733
				c-0.083,0.167-0.073,0.419-0.021,0.586c-0.207-0.346-0.25-0.827-0.25-1.215c-0.072,0.241-0.072,0.514-0.082,0.765
				c-0.115-0.316-0.141-0.675-0.131-0.997c-0.053,0.091-0.096,0.188-0.106,0.286c0.011-0.219,0.068-0.425,0.13-0.638
				c0.006-0.052,0.012-0.102,0.018-0.148c-0.061,0.084-0.121,0.182-0.17,0.277C280.66,104.578,280.754,104.335,280.788,104.31z"/>
			<path fill="#D8D9DC" d="M281.395,106.176c0.002-0.042,0.002-0.085,0.001-0.129c0.048,0.025,0.077,0.082,0.132,0.091
				c0.012-0.139-0.128-0.263-0.123-0.396c0.078,0.07,0.128,0.204,0.227,0.243c-0.008-0.047-0.025-0.126,0.011-0.162
				c0.037,0.024,0.076,0.051,0.11,0.076c0.014-0.048,0.018-0.102,0.031-0.147c0.102,0.222,0.109-0.163,0.123-0.203
				c0.104,0.064,0.15,0.406,0.301,0.368c0.006-0.053,0.025-0.1,0.02-0.157c0.053,0.079,0.083,0.167,0.142,0.246
				c0.063-0.079,0.071-0.311,0.085-0.417c0.027,0.1,0.049,0.238,0.088,0.361c-0.135,0.543-0.32,1.097-0.373,1.65
				c-0.031-0.157-0.135-0.294-0.176-0.45c-0.042,0.062-0.062,0.136-0.062,0.22c-0.125-0.262-0.392-0.592-0.54-0.849
				c-0.081-0.139-0.124-0.243-0.148-0.367c0.009-0.025,0.02-0.049,0.04-0.073C281.304,106.126,281.356,106.15,281.395,106.176z"/>
			<g>
				<path fill="#514443" d="M281.354,104.088c0.002-0.03,0.002-0.105,0.006-0.173c0.002-0.067,0.008-0.127,0.008-0.127
					s0.014,0.058,0.033,0.122c0.018,0.064,0.039,0.136,0.045,0.169c0.002,0.016,0.004,0.03,0.006,0.045
					c0.001-0.028,0.004-0.073,0.008-0.114c0.005-0.051,0.013-0.096,0.013-0.096s0.011,0.04,0.025,0.086
					c-0.001-0.044-0.005-0.138-0.003-0.222c0-0.09,0.009-0.169,0.009-0.169s0.011,0.077,0.03,0.162
					c0.02,0.087,0.047,0.182,0.055,0.228c0.033,0.212,0.062,0.424,0.104,0.643c0.002,0.009,0.004,0.02,0.005,0.032
					c0-0.001-0.001-0.002-0.001-0.005c-0.033-0.168-0.048-0.342-0.049-0.528c0-0.052-0.008-0.184-0.018-0.301
					c-0.01-0.118-0.023-0.223-0.023-0.223s0.033,0.098,0.062,0.213c0.031,0.115,0.062,0.246,0.07,0.307
					c0.014,0.11,0.025,0.219,0.04,0.327c-0.007-0.053-0.008-0.106,0.001-0.166c0.006-0.038,0.002-0.188,0.002-0.188
					c0,0.001,0.025,0.042,0.049,0.086c-0.006-0.026-0.012-0.052-0.018-0.079c-0.009-0.04-0.037-0.142-0.062-0.231
					c-0.024-0.092-0.041-0.174-0.041-0.174s0.035,0.074,0.079,0.157s0.095,0.177,0.112,0.223c0.037,0.1,0.068,0.204,0.094,0.31
					c-0.007-0.058-0.013-0.116-0.016-0.182c-0.002-0.024-0.014-0.085-0.029-0.138c-0.016-0.054-0.033-0.1-0.033-0.1
					s0.035,0.036,0.069,0.082c0.005,0.007,0.011,0.014,0.017,0.021c-0.003-0.014-0.006-0.026-0.008-0.041
					c-0.006-0.063-0.097-0.304-0.1-0.302c0,0,0.041,0.047,0.084,0.106c0.044,0.06,0.088,0.131,0.102,0.167
					c0.027,0.073,0.047,0.147,0.062,0.222c0-0.014-0.001-0.026,0.001-0.041c0.003-0.03-0.019-0.141-0.019-0.141
					c0-0.001,0.037,0.032,0.068,0.063c-0.008-0.037-0.014-0.075-0.02-0.114c-0.004-0.024-0.023-0.081-0.045-0.131
					c-0.021-0.051-0.047-0.093-0.047-0.093s0.04,0.029,0.08,0.069c0.033,0.031,0.064,0.068,0.082,0.097
					c-0.021-0.051-0.043-0.103-0.062-0.159c-0.015-0.05-0.129-0.219-0.131-0.217c0,0,0.043,0.025,0.091,0.061
					s0.099,0.08,0.116,0.106c0.082,0.12,0.127,0.257,0.182,0.389c0.023,0.053,0.059,0.186,0.066,0.305
					c0.012,0.121-0.001,0.225,0,0.225c0-0.001-0.031-0.119-0.037-0.145c-0.006-0.053-0.022-0.103-0.043-0.151
					c0.01,0.089,0.016,0.177,0.016,0.267c0.013,0.145-0.1,0.625-0.092,0.627c-0.002,0-0.016-0.146-0.011-0.178
					c0.011-0.089,0.008-0.18,0.005-0.269c-0.008,0.042-0.016,0.069-0.016,0.069c0.002-0.001-0.014-0.117-0.014-0.142
					c0.002-0.058-0.01-0.115-0.021-0.172c0,0.001,0,0.001,0,0.002c-0.003,0.066-0.017,0.123-0.016,0.123
					c0-0.001-0.027-0.065-0.029-0.079c-0.002-0.052-0.035-0.099-0.053-0.146c-0.006-0.015-0.01-0.027-0.016-0.04
					c0.007,0.036,0.014,0.074,0.021,0.111c0.016,0.071,0.029,0.239,0.027,0.388c-0.001,0.148-0.016,0.279-0.015,0.279
					c0.001-0.001-0.026-0.152-0.029-0.185c-0.003-0.103-0.029-0.205-0.052-0.306c0.001,0.059-0.001,0.128-0.005,0.192
					c-0.007,0.114-0.019,0.215-0.019,0.215s-0.027-0.117-0.028-0.143c-0.001-0.084-0.024-0.168-0.039-0.249
					c0.001,0.016,0.004,0.032,0.005,0.05c0.01,0.096,0,0.313,0.006,0.506c0.004,0.192,0.045,0.358,0.047,0.357
					c0,0-0.023-0.044-0.041-0.097c-0.02-0.053-0.037-0.113-0.039-0.135c-0.023-0.159-0.051-0.322-0.064-0.481
					c-0.012-0.148-0.021-0.279-0.05-0.404c-0.005-0.026-0.013-0.052-0.019-0.078c0.004,0.047,0.01,0.094,0.02,0.141
					c0.009,0.04,0.018,0.138,0.017,0.224c0,0.088-0.011,0.163-0.011,0.163c0-0.001-0.029-0.086-0.032-0.105
					c-0.005-0.068-0.04-0.135-0.06-0.201c-0.016-0.056-0.029-0.108-0.038-0.162c0.003,0.02,0.005,0.04,0.008,0.061
					c0.026,0.141,0.042,0.289,0.052,0.436c0.011,0.119,0.004,0.396-0.037,0.639c-0.037,0.242-0.11,0.446-0.111,0.445
					c0,0,0.014-0.062,0.021-0.131l0.021-0.172c0.033-0.196,0.022-0.399,0.015-0.597c-0.008-0.18-0.025-0.343-0.054-0.501
					c0.016,0.103,0.028,0.284,0.005,0.446c-0.021,0.187-0.092,0.336-0.09,0.336c-0.001,0,0.009-0.047,0.016-0.099l0.014-0.13
					c0.016-0.101,0.008-0.204-0.006-0.305c-0.002,0.024-0.003,0.04-0.003,0.04c0.001-0.001-0.031-0.106-0.036-0.129
					c-0.01-0.085-0.052-0.164-0.078-0.246c-0.001-0.002-0.002-0.003-0.002-0.005c0.014,0.075,0.03,0.208,0.037,0.327
					c0.008,0.14-0.004,0.262-0.004,0.262c0.001-0.001-0.031-0.141-0.035-0.171c-0.01-0.112-0.053-0.22-0.081-0.329
					C281.382,104.479,281.336,104.305,281.354,104.088z"/>
				<path fill="#514443" d="M281.1,104.327c0.015-0.038,0.059-0.191,0.06-0.191c-0.001,0,0.003,0.02,0.009,0.044
					c-0.006-0.065-0.028-0.174-0.029-0.174c-0.002,0,0.027,0.033,0.056,0.076c0.005,0.006,0.009,0.013,0.013,0.02
					c-0.002-0.036-0.003-0.079-0.002-0.122c0-0.068,0.006-0.128,0.006-0.128s0.014,0.059,0.033,0.123s0.047,0.135,0.054,0.169
					c0.03,0.16,0.054,0.32,0.085,0.49c0.037,0.142-0.022,0.634-0.02,0.633c0,0-0.026-0.144-0.026-0.177
					c0.002-0.109-0.02-0.22-0.036-0.326c0,0.119-0.002,0.239-0.001,0.239c0,0-0.04-0.098-0.041-0.12
					c-0.009-0.081-0.04-0.161-0.056-0.241c-0.014-0.066-0.023-0.127-0.03-0.188c-0.011,0.067-0.021,0.134-0.017,0.204
					c0.002,0.043-0.002,0.145,0,0.235c0.001,0.092,0.009,0.173,0.009,0.173c-0.001,0.001-0.046-0.087-0.049-0.108
					c-0.012-0.075-0.044-0.149-0.056-0.227C281.041,104.588,281.04,104.464,281.1,104.327z"/>
				<path fill="#514443" d="M282.416,105.778c-0.037,0.082-0.078,0.148-0.077,0.148c0,0,0.007-0.094,0.014-0.112
					c0.024-0.068,0.022-0.145,0.03-0.214c0.016-0.131,0.021-0.232,0.068-0.365c0.014-0.037,0.027-0.19,0.027-0.19
					c0-0.001,0.039,0.089,0.055,0.151c0.004-0.035,0.008-0.069,0.013-0.106c0.005-0.029,0.005-0.101-0.001-0.166
					c-0.004-0.064-0.016-0.122-0.016-0.122s0.029,0.051,0.055,0.113c0.027,0.062,0.049,0.136,0.053,0.171
					c0.007,0.082,0.004,0.162-0.002,0.242c-0.004,0.079-0.014,0.165-0.031,0.246c-0.006,0.033-0.023,0.087-0.049,0.145
					c-0.026,0.059-0.061,0.121-0.092,0.181c-0.064,0.116-0.105,0.226-0.104,0.226c-0.002,0.001,0.014-0.14,0.028-0.168
					c0.041-0.104,0.069-0.214,0.096-0.314c0.02-0.077,0.029-0.148,0.034-0.219c-0.009,0.044-0.019,0.088-0.025,0.133
					C282.486,105.601,282.455,105.698,282.416,105.778z"/>
			</g>
			<path fill="#8A674A" d="M280.977,103.286c0.088,0.018,0.334,0.002,0.48-0.009c0.195-0.017,0.4-0.017,0.566-0.056
				c0.14-0.033,0.253-0.293-0.055-0.329c0.011-0.334-0.048-1.507-0.075-1.815c0.127-0.036,0.104-0.187,0-0.22
				c0.089-0.045,0.087-0.2-0.034-0.208c0.108-0.062,0.021-0.292-0.016-0.456c-0.043-0.197-1.236-6.034-1.627-6.166
				c-0.199,0.165,0.197,6.301,0.199,6.38c0.006,0.176-0.008,0.423,0.096,0.456c-0.087,0.05-0.074,0.128,0.008,0.161
				c-0.07,0.049-0.062,0.188,0.039,0.181c0.127,0.603,0.221,1.206,0.438,1.79C280.832,103.049,280.832,103.231,280.977,103.286"/>
			<path fill="#644D35" d="M280.416,100.406c-0.004-0.078-0.398-6.215-0.199-6.379c-0.051,1.229,0.553,6.363,0.565,6.412
				c-0.37,0.024,0,0-0.365,0.061C280.417,100.468,280.416,100.437,280.416,100.406z"/>
			<path fill="#CECCC9" d="M280.512,100.862c-0.086-0.027-0.092-0.204-0.094-0.362c0.364-0.062,1.09-0.143,1.461-0.167
				c0.033,0.134,0.06,0.271-0.02,0.315c0.12,0.009,0.123,0.164,0.033,0.209c0.105,0.032,0.127,0.184,0,0.22
				c0.027,0.308,0.086,1.481,0.076,1.814c0.284,0.034,0.209,0.258,0.086,0.318l0.023-0.002c0.008,0.023,0.018,0.085,0.025,0.109
				c-0.344,0.028-0.762,0.085-1.13,0.108c0-0.04,0.003-0.14,0.003-0.14c-0.145-0.055-0.145-0.237,0.02-0.292
				c-0.219-0.585-0.312-1.188-0.439-1.79c-0.102,0.007-0.108-0.132-0.037-0.182C280.438,100.989,280.424,100.911,280.512,100.862z"
				/>
			<path fill="#FFFFFF" d="M281.791,102.584c0.001,0.001,0.016-0.33,0-0.707c-0.012-0.377-0.049-0.8-0.076-0.981
				c-0.067-0.448-0.086-0.823-0.176-1.272c-0.02-0.097-0.106-0.536-0.176-0.715c-0.07-0.18-0.144-0.501-0.145-0.501
				c0.001,0,0.042,0.33,0.074,0.512c0.033,0.183,0.073,0.557,0.078,0.637c0.086,0.592,0.111,1.052,0.207,1.627
				c0.051,0.31,0.127,0.622,0.146,0.931C281.732,102.198,281.793,102.584,281.791,102.584z"/>
		</g>
		<g>
			<path fill="#222121" d="M280.966,103.284c0.007,0.002,0.011,0.004,0.01,0.005C280.977,103.288,280.973,103.287,280.966,103.284z"
				/>
			<path fill="#222121" d="M282.106,102.918c-0.021-0.013-0.042-0.021-0.064-0.028c-0.012-0.004-0.022-0.007-0.034-0.009
				c-0.012-0.003-0.013-0.003-0.02-0.004c-0.002-0.004,0-0.012-0.001-0.018l0.001-0.034l0.001-0.069
				c-0.001-0.186-0.005-0.377-0.012-0.568l-0.022-0.57l-0.014-0.278l-0.016-0.242l0.002-0.001c0.002-0.001,0.012-0.005,0.018-0.009
				c0.014-0.009,0.026-0.02,0.037-0.032c0.021-0.026,0.03-0.062,0.028-0.093c-0.002-0.033-0.015-0.063-0.035-0.087
				c-0.029-0.031-0.022-0.021-0.026-0.024c0.002-0.001,0.003-0.002,0.004-0.002c-0.002,0.002,0.006-0.006,0.01-0.013
				c0.004-0.006,0.008-0.014,0.011-0.021c0.013-0.028,0.017-0.061,0.011-0.091c-0.004-0.03-0.021-0.061-0.045-0.08
				c-0.006-0.004-0.016-0.011-0.016-0.011l-0.002-0.001c-0.002,0-0.002,0-0.002-0.001l0.002-0.002c0-0.001-0.002,0.004,0.006-0.012
				c0.01-0.022,0.014-0.044,0.016-0.064c0.004-0.04-0.001-0.077-0.006-0.11c-0.011-0.068-0.027-0.128-0.04-0.18
				c-0.228-1.065-0.455-2.121-0.704-3.168c-0.125-0.524-0.254-1.047-0.395-1.567c-0.07-0.26-0.145-0.52-0.227-0.778
				c-0.041-0.129-0.084-0.258-0.133-0.385c-0.025-0.063-0.051-0.126-0.082-0.188c-0.016-0.03-0.031-0.061-0.051-0.091
				c-0.01-0.015-0.02-0.029-0.032-0.043c-0.019-0.021-0.039-0.034-0.062-0.043c-0.014,0.012-0.023,0.025-0.03,0.044
				c-0.007,0.021-0.009,0.034-0.013,0.047c-0.004,0.025-0.008,0.052-0.011,0.078c-0.005,0.051-0.009,0.103-0.011,0.154
				c-0.006,0.103-0.008,0.205-0.01,0.308c-0.005,0.572,0.031,1.587,0.09,2.732c0.029,0.573,0.062,1.179,0.098,1.779l0.056,0.891
				c0.008,0.146,0.021,0.291,0.024,0.433c0.002,0.071,0.002,0.142,0.01,0.213c0.004,0.035,0.01,0.07,0.02,0.104
				c0.011,0.033,0.035,0.072,0.056,0.077c0.005,0.001,0.001,0.003-0.001,0.005c-0.004,0.002-0.006,0.004-0.01,0.006
				c-0.006,0.005-0.009,0.007-0.016,0.016c-0.014,0.015-0.023,0.036-0.022,0.058c0,0.022,0.012,0.041,0.026,0.056
				c0.008,0.008,0.014,0.012,0.019,0.016s0.016,0.005,0.017,0.009c-0.023,0.013-0.047,0.067-0.039,0.109
				c0.002,0.021,0.012,0.043,0.029,0.059s0.043,0.021,0.055,0.019c0.006,0.015,0.009,0.04,0.015,0.064l0.015,0.072l0.029,0.141
				l0.055,0.271c0.036,0.176,0.072,0.341,0.108,0.494c0.071,0.304,0.154,0.561,0.22,0.739c-0.055,0.018-0.104,0.063-0.117,0.112
				c-0.015,0.049,0.001,0.094,0.02,0.121c0.016,0.02,0.028,0.03,0.041,0.04c-0.014-0.01-0.028-0.024-0.042-0.045
				c-0.019-0.028-0.03-0.074-0.014-0.121c0.016-0.047,0.06-0.086,0.116-0.105c-0.085-0.236-0.178-0.565-0.247-0.896
				c-0.036-0.165-0.067-0.33-0.097-0.484l-0.044-0.22l-0.02-0.101c-0.007-0.033-0.011-0.059-0.021-0.101
				c-0.04,0.002-0.051-0.006-0.065-0.021c-0.012-0.015-0.016-0.035-0.016-0.054s0.006-0.036,0.012-0.05
				c0.004-0.013,0.029-0.035,0.045-0.047c-0.002-0.005-0.014-0.008-0.02-0.011c-0.011-0.006-0.021-0.012-0.03-0.018
				c-0.006-0.006-0.012-0.011-0.016-0.017c-0.009-0.012-0.013-0.025-0.012-0.039c0.002-0.014,0.009-0.027,0.019-0.038
				c0.013-0.016,0.047-0.03,0.053-0.04c-0.018-0.008-0.039-0.018-0.051-0.027c-0.008-0.009-0.013-0.019-0.018-0.028
				c-0.01-0.021-0.016-0.044-0.021-0.068c-0.008-0.047-0.012-0.096-0.014-0.145c-0.003-0.098-0.003-0.198-0.011-0.296l-0.034-0.593
				l-0.062-1.188c-0.039-0.794-0.075-1.587-0.104-2.378c-0.012-0.365-0.022-0.723-0.027-1.075c-0.002-0.176-0.003-0.351,0-0.523
				c0.002-0.087,0.005-0.173,0.01-0.258c0.002-0.043,0.006-0.085,0.012-0.127c0.002-0.021,0.006-0.041,0.01-0.061l0.002-0.012
				c0-0.001,0.001-0.002,0.002-0.002c0.002,0.001,0.002,0.001,0.004,0.003c0.01,0.011,0.019,0.023,0.027,0.037
				c0.018,0.026,0.033,0.056,0.047,0.086c0.029,0.06,0.055,0.122,0.079,0.186c0.048,0.126,0.091,0.254,0.132,0.382
				c0.082,0.258,0.153,0.517,0.223,0.774c0.14,0.518,0.267,1.036,0.391,1.558c0.124,0.522,0.245,1.05,0.365,1.588l0.182,0.817
				l0.091,0.416c0.031,0.139,0.058,0.282,0.098,0.421c0.011,0.04,0.022,0.087,0.028,0.14c0.002,0.026,0.004,0.054-0.001,0.081
				c-0.002,0.014-0.006,0.027-0.013,0.04c-0.009,0.016-0.036,0.034-0.055,0.048c0.019,0.004,0.072,0.01,0.082,0.023
				c0.016,0.012,0.027,0.03,0.031,0.052c0.005,0.021,0.002,0.045-0.006,0.066c-0.006,0.012-0.01,0.019-0.021,0.03
				c-0.013,0.012-0.03,0.023-0.045,0.03c0.069,0.023,0.095,0.059,0.101,0.106c0.002,0.022-0.005,0.047-0.02,0.065
				c-0.016,0.02-0.033,0.03-0.066,0.041l0.019,0.263l0.017,0.271l0.029,0.562c0.008,0.19,0.016,0.381,0.018,0.567v0.139v0.018
				c-0.001,0.006,0.01,0.003,0.014,0.005c0.012,0.002,0.023,0.004,0.033,0.006c0.022,0.005,0.045,0.012,0.064,0.021
				c0.039,0.019,0.074,0.052,0.083,0.096s-0.005,0.088-0.03,0.123c-0.023,0.035-0.057,0.063-0.096,0.077
				c-0.039,0.011-0.078,0.018-0.118,0.023c-0.078,0.012-0.153,0.017-0.226,0.021c-0.143,0.008-0.27,0.02-0.375,0.026
				c-0.207,0.016-0.334,0.005-0.34,0.001v-0.004v0.004h-0.002h0.002l-0.004,0.07l-0.003,0.058c-0.005,0.016,0.013,0.009,0.019,0.01
				l0.016-0.001c0.111-0.008,0.224-0.015,0.335-0.024c0.208-0.02,0.38-0.039,0.585-0.066l0.18-0.02
				c-0.014-0.052-0.023-0.095-0.026-0.104c0.021-0.012,0.038-0.028,0.054-0.047c0.027-0.034,0.049-0.078,0.047-0.127
				C282.18,102.989,282.147,102.942,282.106,102.918z M282.084,103.241l0.006,0.034l0.007,0.037l-0.099,0.006l-0.08,0.006
				l-0.479,0.054l-0.351,0.036l-0.097,0.009c-0.008-0.001-0.016,0.004-0.017-0.001v-0.02l0.001-0.038l0.001-0.073
				c0.005,0.005,0.13,0.016,0.333,0.004c0.104-0.006,0.229-0.016,0.369-0.021c0.071-0.004,0.146-0.008,0.223-0.018
				c0.039-0.005,0.079-0.011,0.119-0.02c0.02-0.004,0.039-0.012,0.057-0.022C282.079,103.217,282.081,103.226,282.084,103.241z"/>
			<path fill="#222121" d="M280.959,103.281c0.002,0.001,0.005,0.002,0.007,0.003C280.964,103.283,280.961,103.282,280.959,103.281z
				"/>
			<path fill="#222121" d="M280.934,103.266c0.004,0.003,0.008,0.006,0.011,0.008C280.941,103.271,280.938,103.269,280.934,103.266z
				"/>
			<path fill="#222121" d="M280.944,103.273c0.005,0.003,0.011,0.006,0.015,0.008C280.955,103.279,280.95,103.276,280.944,103.273z"
				/>
			<path fill="#222121" d="M281.83,100.324c0-0.009-0.229-0.01-0.298-0.001c-0.162,0.016-0.317,0.042-0.478,0.062
				c-0.131,0.014-0.601,0.098-0.599,0.106c-0.001-0.002,0.138-0.02,0.169-0.024c0.109-0.019,0.222-0.026,0.333-0.04
				c0.206-0.024,0.378-0.045,0.582-0.078C281.596,100.338,281.829,100.315,281.83,100.324z"/>
			<path fill="#222121" d="M281.063,100.76c-0.107,0.016-0.495,0.095-0.493,0.102c-0.002-0.002,0.113-0.02,0.138-0.023
				c0.091-0.017,0.184-0.026,0.275-0.04c0.171-0.025,0.312-0.048,0.479-0.084c0.047-0.011,0.238-0.042,0.238-0.041
				c0-0.001-0.188,0.011-0.246,0.02C281.324,100.712,281.195,100.739,281.063,100.76z"/>
			<path fill="#222121" d="M280.998,100.995c0.176-0.026,0.322-0.047,0.496-0.082c0.049-0.011,0.247-0.036,0.248-0.032
				c0-0.004-0.196,0.002-0.255,0.011c-0.138,0.018-0.271,0.044-0.407,0.065c-0.111,0.015-0.512,0.096-0.51,0.102
				c0-0.001,0.117-0.019,0.144-0.022C280.808,101.019,280.903,101.009,280.998,100.995z"/>
			<path fill="#222121" d="M281.053,101.151c0.166-0.02,0.303-0.036,0.465-0.062c0.045-0.009,0.232-0.026,0.232-0.021
				c0-0.005-0.184-0.006-0.238,0.001c-0.129,0.013-0.253,0.033-0.381,0.051c-0.053,0.006-0.172,0.025-0.279,0.045
				c-0.105,0.02-0.199,0.043-0.199,0.044c0-0.002,0.11-0.019,0.135-0.021C280.875,101.171,280.965,101.163,281.053,101.151z"/>
			<path fill="#222121" d="M281.146,102.995l0.201-0.004c0.125-0.005,0.229-0.015,0.351-0.04l0.171-0.034l-0.176,0.019
				c-0.096,0.015-0.188,0.028-0.285,0.035c-0.078,0.007-0.363,0.022-0.363,0.022S281.128,102.995,281.146,102.995z"/>
		</g>
	</g>
</g>
</svg>
