<svg id="codepen" xmlns="http://www.w3.org/2000/svg" viewBox="0 0 256 256">
<path fill="#EAEBED" d="M159.475,145.773c11.612-2.471,23.028,4.939,25.5,16.551c2.471,11.611-4.938,23.027-16.55,25.499
    s-23.028-4.938-25.499-16.55C140.453,159.662,147.863,148.246,159.475,145.773z M93.465,158.465l17.356,8.371
    c0.006,3.635,0.385,7.324,1.171,11.021c0.787,3.697,1.943,7.22,3.418,10.542l-12.442,14.714c-1.217,1.096-1.314,2.971-0.219,4.188
    l14.553,16.154c1.096,1.215,2.97,1.313,4.187,0.218l15.937-10.851c6.36,3.668,13.489,6.03,20.962,6.816l6.52,18.129
    c0.342,1.602,1.916,2.623,3.518,2.283l21.266-4.527c1.602-0.34,2.624-1.915,2.283-3.517l-1.428-19.214
    c6.506-3.76,12.055-8.82,16.369-14.762l18.975,3.422c1.557,0.505,3.229-0.348,3.735-1.905l6.713-20.681
    c0.505-1.557-0.347-3.229-1.904-3.735l-17.356-8.37c-0.006-3.636-0.385-7.324-1.172-11.021s-1.943-7.221-3.418-10.543l12.443-14.714
    c1.216-1.097,1.313-2.971,0.219-4.188l-14.554-16.154c-1.097-1.216-2.971-1.314-4.188-0.218l-15.937,10.851
    c-6.36-3.667-13.489-6.03-20.961-6.815L162.99,95.83c-0.34-1.602-1.915-2.624-3.517-2.283l-21.267,4.526
    c-1.602,0.341-2.623,1.916-2.283,3.518l1.43,19.214c-6.506,3.76-12.054,8.821-16.37,14.761l-18.974-3.421
    c-1.558-0.506-3.23,0.347-3.736,1.904l-6.713,20.68C91.055,156.286,91.908,157.959,93.465,158.465z M17.488,206.73l15.086-0.448
    c4.583,7.105,11.646,12.261,19.736,14.405l4.438,13.912c0.219,1.351,1.492,2.27,2.844,2.051l17.946-2.908
    c1.351-0.219,2.269-1.492,2.05-2.844l-0.436-14.684c6.953-4.647,11.968-11.808,14.004-20.014l14.301-4.562
    c1.352-0.22,2.27-1.492,2.051-2.844l-2.907-17.945c-0.219-1.352-1.492-2.27-2.844-2.051l-15.086,0.447
    c-4.583-7.104-11.646-12.26-19.735-14.404l-4.439-13.912c-0.219-1.352-1.492-2.27-2.844-2.051l-17.945,2.908
    c-1.352,0.219-2.27,1.49-2.05,2.844l0.437,14.683c-6.954,4.647-11.969,11.808-14.005,20.015l-14.3,4.562
    c-1.352,0.219-2.27,1.492-2.051,2.844l2.907,17.945C14.863,206.031,16.138,206.949,17.488,206.73z M58.72,176.176
    c6.303-1.034,12.266,3.316,13.316,9.717c1.05,6.398-3.208,12.426-9.513,13.461c-6.303,1.033-12.265-3.316-13.315-9.716
    C48.159,183.238,52.417,177.211,58.72,176.176z M147.31,64.372l13.816,6.074c1.087,8.385,5.251,16.074,11.636,21.485l-1.965,14.471
    c-0.383,1.314,0.371,2.69,1.688,3.073l17.454,5.082c1.313,0.382,2.69-0.373,3.073-1.688l5.912-13.448
    c8.274-1.211,15.879-5.522,21.242-12.059l14.874,2.022c1.315,0.382,2.69-0.373,3.073-1.688l5.082-17.455
    c0.383-1.314-0.373-2.69-1.688-3.073l-13.816-6.075c-1.087-8.384-5.251-16.073-11.636-21.484l1.966-14.471
    c0.383-1.314-0.371-2.69-1.688-3.073l-17.453-5.082c-1.314-0.383-2.69,0.372-3.072,1.688l-5.914,13.447
    c-8.274,1.21-15.879,5.522-21.242,12.06l-14.874-2.021c-1.314-0.383-2.69,0.373-3.073,1.687l-5.083,17.454
    C145.239,62.613,145.996,63.99,147.31,64.372z M197.668,54.488c6.137,1.773,9.652,8.262,7.854,14.494
    c-1.802,6.229-8.235,9.844-14.373,8.07c-6.137-1.773-9.651-8.262-7.852-14.492C185.098,56.329,191.531,52.714,197.668,54.488z"/>
<path fill="#4767A8" d="M183.609,128.227l-0.156-43.577l-0.902,0.003l0.213-0.119L101.51,39.047L20.257,84.534l0.239,0.134
    l-0.928,0.003l0.156,43.577l0.549-0.002l81.237,45.477l81.254-45.485l-0.014-0.008L183.609,128.227z M177.599,125.346l-33.868-18.96
    l33.732-18.884L177.599,125.346z M137.589,102.947l-33.078-18.518V47.604l65.97,36.931L137.589,102.947z M101.51,123.146
    l-29.938-16.76l29.938-16.76l29.938,16.76L101.51,123.146z M98.511,47.602v36.826l-33.08,18.52L32.54,84.534L98.511,47.602z
     M59.29,106.386l-33.576,18.797l-0.135-37.669L59.29,106.386z M65.431,109.824l32.93,18.435l0.128,36.896L32.54,128.237
    L65.431,109.824z M104.489,165.179l-0.127-36.754l33.227-18.601l32.892,18.414L104.489,165.179z"/>
</svg>
