<?xml version="1.0" encoding="utf-8"?>
<!-- Generator: Adobe Illustrator 15.0.0, SVG Export Plug-In . SVG Version: 6.00 Build 0)  -->
<!DOCTYPE svg PUBLIC "-//W3C//DTD SVG 1.1//EN" "http://www.w3.org/Graphics/SVG/1.1/DTD/svg11.dtd">
<svg version="1.1" id="communicate-science" xmlns="http://www.w3.org/2000/svg" xmlns:xlink="http://www.w3.org/1999/xlink"
	 x="0px" y="0px" width="300px" height="150px" viewBox="0 0 300 150" style="enable-background:new 0 0 300 150;"
	 xml:space="preserve">
<style type="text/css">
<![CDATA[
	.st0{fill:#818084;stroke:#413F3F;stroke-width:0.25;stroke-miterlimit:10;}
	.st1{fill:#413F3F;stroke:#413F3F;stroke-width:0.25;stroke-miterlimit:10;}
	.st2{fill:#C4C6CB;stroke:#413F3F;stroke-width:0.25;stroke-miterlimit:10;}
	.st3{fill:#67666A;stroke:#413F3F;stroke-width:0.25;stroke-miterlimit:10;}
	.st4{fill:#413F3F;}
]]>
</style>
<g id="line">
	<path class="st1" d="M142.335,15.616v12.437h4.198v2.771h-8.129V15.616H142.335z"/>
	<path class="st1" d="M156.55,15.616v15.207h-3.931V15.616H156.55z"/>
	<path class="st1" d="M170.657,30.823c-0.73-2.104-1.422-4.181-2.072-6.229c-0.65-2.049-1.266-4.082-1.845-6.104l0.106,12.332
		h-3.502V15.616h5.268c0.784,2.307,1.504,4.489,2.159,6.553c0.655,2.061,1.237,3.988,1.745,5.779l-0.107-12.332h3.557v15.207
		H170.657z"/>
	<path class="st1" d="M190.876,15.616v2.771h-4.386V21.5h4.212v2.771h-4.212v3.781h4.386v2.771h-8.195V15.616H190.876z"/>
</g>
<g id="texture">
	<path class="st4" d="M105.622,72.32V57.826h-2.419v-3.289h8.056v3.289h-2.396V72.32H105.622z"/>
	<path class="st4" d="M119.562,54.538v3.24h-3.69v3.642h3.544v3.24h-3.544v4.421h3.69v3.24h-6.897V54.538H119.562z"/>
	<path class="st4" d="M120.664,72.32l3.589-9.232l-3.263-8.55h3.454l1.631,5.639l1.643-5.639h3.454l-3.274,8.55l3.6,9.232h-3.51
		l-1.913-6.188l-1.913,6.188H120.664z"/>
	<path class="st4" d="M134.177,72.32V57.826h-2.419v-3.289h8.056v3.289h-2.396V72.32H134.177z"/>
	<path class="st4" d="M141.22,54.538h3.207v12.898c0,0.95,0.067,1.545,0.203,1.784c0.135,0.24,0.382,0.359,0.743,0.359
		c0.36,0,0.607-0.118,0.742-0.354c0.135-0.236,0.203-0.824,0.203-1.766V67.25V54.538h3.207v14.043c0,1.502-0.311,2.56-0.934,3.173
		c-0.623,0.613-1.695,0.919-3.218,0.919c-1.523,0-2.595-0.307-3.218-0.919c-0.623-0.613-0.934-1.671-0.934-3.173L141.22,54.538
		L141.22,54.538z"/>
	<path class="st4" d="M157.073,71.491v-5.48c0-0.471-0.123-0.822-0.365-1.054c-0.244-0.232-0.621-0.347-1.132-0.347
		c-0.067,0-0.147,0.004-0.241,0.013c-0.094,0.007-0.234,0.023-0.422,0.048v7.649h-3.14V54.538h4.433c1.2,0,2.143,0.288,2.824,0.864
		c0.684,0.577,1.023,1.369,1.023,2.375v2.594c0,0.771-0.198,1.389-0.596,1.852c-0.398,0.463-0.953,0.719-1.666,0.767
		c0.848,0.073,1.475,0.367,1.879,0.883c0.404,0.516,0.606,1.285,0.606,2.308v5.31c0.028,0.155,0.081,0.299,0.149,0.433
		c0.072,0.134,0.168,0.266,0.287,0.396h-3.205c-0.149-0.089-0.262-0.199-0.332-0.329C157.108,71.861,157.073,71.694,157.073,71.491z
		 M154.913,61.614c0.061,0.008,0.127,0.014,0.202,0.018s0.185,0.006,0.326,0.006c0.479,0,0.835-0.097,1.063-0.292
		c0.228-0.195,0.342-0.503,0.342-0.926v-1.595c0-0.406-0.117-0.707-0.354-0.902s-0.594-0.292-1.073-0.292
		c-0.136,0-0.238,0.002-0.311,0.006s-0.139,0.01-0.196,0.019L154.913,61.614L154.913,61.614z"/>
	<path class="st4" d="M169.224,54.538v3.24h-3.69v3.642h3.544v3.24h-3.544v4.421h3.69v3.24h-6.896V54.538H169.224z"/>
</g>
<g id="size">
	<path class="st1" d="M192.882,128.266h8.352c0,0.172-0.014,0.402-0.03,0.691c-0.021,0.289-0.026,0.498-0.026,0.621
		c0,1.393,0.207,2.363,0.621,2.91s1.112,0.816,2.103,0.816c1.006,0,1.717-0.199,2.131-0.605c0.415-0.406,0.622-1.109,0.622-2.111
		c0-1.283-0.223-2.271-0.666-2.969s-1.436-1.568-2.975-2.617c-2.211-1.484-3.801-2.58-4.77-3.283
		c-0.967-0.703-1.708-1.291-2.224-1.76c-0.826-0.719-1.431-1.299-1.806-1.736s-0.662-0.867-0.854-1.291
		c-0.22-0.438-0.37-0.992-0.459-1.666c-0.09-0.674-0.136-1.557-0.136-2.65c0-3.082,0.912-5.295,2.738-6.643
		c1.824-1.344,4.828-2.018,9.012-2.018c3.671,0,6.336,0.713,7.992,2.135c1.658,1.424,2.486,3.709,2.486,6.854
		c0,0.375-0.029,0.945-0.088,1.713c-0.021,0.107-0.029,0.195-0.029,0.262h-8.438v-1.104c0-1.408-0.174-2.361-0.52-2.863
		c-0.349-0.5-0.981-0.752-1.91-0.752c-0.945,0-1.627,0.209-2.041,0.623s-0.623,1.121-0.623,2.123c0,1.627,1.086,3.145,3.256,4.555
		c0.375,0.25,0.671,0.443,0.889,0.586c1.875,1.281,3.415,2.365,4.618,3.25c1.204,0.885,1.983,1.514,2.338,1.889
		c0.771,0.814,1.337,1.518,1.702,2.104s0.667,1.217,0.902,1.891c0.061,0.188,0.104,0.564,0.133,1.139
		c0.031,0.57,0.045,1.334,0.045,2.287c0,3.348-0.819,5.674-2.457,6.979c-1.639,1.307-4.489,1.961-8.555,1.961
		c-4.066,0-6.992-0.686-8.776-2.055c-1.786-1.367-2.679-3.604-2.679-6.699c0-0.359,0.02-0.984,0.059-1.877
		C192.841,128.664,192.862,128.438,192.882,128.266z"/>
	<path class="st3" d="M229.113,94.205v44.689h-8.702V94.205H229.113z"/>
	<path class="st0" d="M234.294,138.895v-12.688l11.248-41.117H234.71V73.429h19.688v11.032l-11.518,42.773h12.491v11.66H234.294
		L234.294,138.895z"/>
	<path class="st2" d="M278.429,54.538v15.368h-9.709V87.18h9.326v15.369h-9.326v20.977h9.709v15.369h-18.146V54.538H278.429z"/>
</g>
<g>
	<g id="space">
		<path class="st1" d="M57.008,110.281v-4.939c0.131,0,0.306,0.006,0.525,0.018c0.219,0.016,0.377,0.021,0.473,0.021
			c1.058,0,1.794-0.123,2.21-0.367c0.416-0.246,0.623-0.656,0.623-1.242c0-0.598-0.154-1.018-0.463-1.264
			c-0.309-0.244-0.844-0.367-1.604-0.367c-0.974,0-1.726,0.135-2.254,0.396c-0.529,0.262-1.191,0.85-1.987,1.76
			c-1.129,1.311-1.961,2.248-2.495,2.82c-0.535,0.572-0.98,1.01-1.337,1.311c-0.547,0.49-0.986,0.852-1.319,1.068
			c-0.332,0.223-0.659,0.393-0.979,0.508c-0.333,0.129-0.755,0.219-1.266,0.271c-0.511,0.051-1.183,0.078-2.015,0.078
			c-2.34,0-4.021-0.539-5.043-1.621c-1.022-1.078-1.533-2.855-1.533-5.332c0-2.172,0.541-3.748,1.622-4.729
			c1.081-0.979,2.815-1.475,5.204-1.475c0.285,0,0.719,0.021,1.301,0.057c0.083,0.012,0.149,0.021,0.196,0.021v4.988h-0.838
			c-1.069,0-1.794,0.104-2.174,0.311c-0.381,0.203-0.57,0.58-0.57,1.129c0,0.561,0.157,0.963,0.472,1.209
			c0.315,0.244,0.853,0.367,1.613,0.367c1.235,0,2.389-0.646,3.458-1.93c0.189-0.223,0.338-0.396,0.445-0.521
			c0.975-1.109,1.797-2.021,2.468-2.732c0.672-0.713,1.15-1.174,1.436-1.385c0.617-0.455,1.149-0.791,1.595-1.008
			c0.446-0.215,0.924-0.396,1.435-0.533c0.143-0.035,0.431-0.061,0.864-0.078c0.435-0.018,1.014-0.027,1.738-0.027
			c2.543,0,4.311,0.484,5.302,1.455c0.992,0.969,1.488,2.656,1.488,5.061c0,2.406-0.52,4.139-1.56,5.193
			c-1.039,1.059-2.735,1.586-5.088,1.586c-0.273,0-0.749-0.014-1.426-0.035C57.312,110.305,57.139,110.293,57.008,110.281z"/>
		<path class="st1" d="M65.083,94.15H39.06v-6.023c0-2.479,0.413-4.23,1.239-5.27c0.825-1.039,2.201-1.562,4.126-1.562h6.131
			c1.842,0,3.196,0.459,4.063,1.375c0.867,0.918,1.301,2.354,1.301,4.301v2.188h9.161v4.992H65.083L65.083,94.15z M43.659,89.156
			h7.646c0.024-0.092,0.039-0.189,0.045-0.287c0.006-0.1,0.009-0.23,0.009-0.396c0-0.76-0.163-1.303-0.49-1.629
			c-0.326-0.328-0.87-0.488-1.631-0.488h-3.653c-0.689,0-1.188,0.168-1.497,0.508c-0.309,0.338-0.464,0.875-0.464,1.609
			c0,0.176,0.004,0.312,0.01,0.41C43.638,88.984,43.647,89.076,43.659,89.156z"/>
		<path class="st1" d="M65.083,81.082l-26.021-4.379v-6.849l26.021-4.379v5.272l-4.562,0.578v3.905l4.562,0.578V81.082z
			 M55.778,74.689v-2.785l-12.262,1.367L55.778,74.689z"/>
		<path class="st1" d="M58.808,50.763c2.543,0,4.311,0.481,5.302,1.445c0.992,0.963,1.488,2.694,1.488,5.193
			c0,2.51-0.493,4.244-1.479,5.201c-0.985,0.958-2.756,1.438-5.311,1.438H45.334c-2.566,0-4.34-0.479-5.319-1.438
			c-0.98-0.957-1.471-2.691-1.471-5.201c0-2.499,0.496-4.23,1.488-5.193c0.992-0.964,2.76-1.445,5.302-1.445h2.924v5.062h-2.816
			c-0.832,0-1.429,0.125-1.791,0.376c-0.362,0.251-0.544,0.663-0.544,1.235c0,0.549,0.176,0.942,0.526,1.182
			c0.351,0.24,0.93,0.359,1.737,0.359h13.402c0.832,0,1.417-0.114,1.756-0.342s0.508-0.627,0.508-1.199
			c0-0.584-0.187-0.999-0.562-1.244c-0.374-0.245-1.019-0.367-1.934-0.367h-3.065v-5.062H58.808z"/>
		<path class="st1" d="M39.06,37.066h4.741v5.745h5.329v-5.517h4.74v5.517h6.47v-5.745h4.741v10.737H39.06V37.066z"/>
	</g>
	<path class="st4" d="M21.571,10.417V137h61V10.417H21.571z M82.071,136.5h-60V10.917h60V136.5z"/>
	<polygon class="st4" points="25.258,73.48 35.712,73.48 35.712,75.855 36.212,75.855 36.212,70.605 35.712,70.605 35.712,72.98 
		25.258,72.98 25.258,70.605 24.758,70.605 24.758,75.855 25.258,75.855 	"/>
	<polygon class="st4" points="68.431,73.48 78.884,73.48 78.884,75.855 79.384,75.855 79.384,70.605 78.884,70.605 78.884,72.98 
		68.431,72.98 68.431,70.605 67.931,70.605 67.931,75.855 68.431,75.855 	"/>
	<polygon class="st4" points="55.192,30.667 52.817,30.667 52.817,14.292 55.192,14.292 55.192,13.792 49.942,13.792 49.942,14.292 
		52.317,14.292 52.317,30.667 49.942,30.667 49.942,31.167 55.192,31.167 	"/>
	<polygon class="st4" points="55.192,133.125 52.817,133.125 52.817,116.75 55.192,116.75 55.192,116.25 49.942,116.25 
		49.942,116.75 52.317,116.75 52.317,133.125 49.942,133.125 49.942,133.625 55.192,133.625 	"/>
</g>
<path class="st4" d="M199.222,12.97v20.5h20.975v-20.5H199.222z M219.696,13.47v3.5h-19.975v-3.5H219.696z M199.722,24.97v-3.5
	h19.975v3.5H199.722z M219.696,25.47v3.5h-19.975v-3.5H219.696z M199.722,20.97v-3.5h19.975v3.5H199.722z M199.722,32.97v-3.5
	h19.975v3.5H199.722z"/>
<path class="st4" d="M241.711,12.911h-0.731h-5.122h-0.731h-5.119h-0.731h-1.739v3.167v0.685v4.795v0.685v4.795v0.685v5.807h6.202
	h0.731h5.12h0.731h5.12h0.731h2.338v-2.605v-0.685v-4.796v-0.685v-4.795v-0.685v-6.367H241.711z M228.036,33.029v-4.838l5.168,4.838
	H228.036z M233.936,33.029l-5.899-5.523v-4.795l4.861,4.552l6.158,5.766H233.936z M239.787,33.029l-11.751-11.003v-4.795
	l7.049,6.601l9.822,9.197H239.787z M248.011,33.029h-2.372l-17.603-16.483v-3.135h1.773l18.201,17.045V33.029z M248.011,29.771
	l-6.07-5.685l-11.399-10.675h5.119l12.351,11.564V29.771z M248.011,24.29l-5.407-5.063l-6.212-5.816h5.122l6.497,6.084V24.29z
	 M248.011,13.411v5.399l-5.766-5.399H248.011z"/>
<path class="st4" d="M277.196,30.83l-0.002,0.001V12.97h-13.268h-1.58h-6.125v6.33l0.024-0.047l-0.021,7.489l-0.003-0.007v6.735
	h4.975h0.978h11.978l0.002-0.001l3.043,0.001V30.83z M256.722,13.47h4.327c-0.062,0.029-0.116,0.07-0.177,0.101
	c-0.315,0.159-0.622,0.333-0.919,0.523c-0.084,0.053-0.169,0.103-0.251,0.159c-0.355,0.241-0.696,0.503-1.02,0.788
	c-0.066,0.058-0.127,0.121-0.191,0.181c-0.264,0.243-0.514,0.5-0.753,0.77c-0.075,0.085-0.151,0.169-0.224,0.257
	c-0.277,0.335-0.54,0.683-0.774,1.052c-0.006,0.008-0.013,0.016-0.019,0.024V13.47z M256.722,32.97v-4.053
	c0.021,0.038,0.048,0.071,0.069,0.108c0.182,0.314,0.378,0.618,0.585,0.913c0.059,0.083,0.116,0.166,0.176,0.247
	c0.241,0.326,0.493,0.641,0.765,0.94c0.036,0.04,0.075,0.077,0.112,0.116c0.245,0.264,0.503,0.514,0.771,0.755
	c0.077,0.069,0.153,0.139,0.231,0.206c0.308,0.263,0.626,0.516,0.96,0.749c0.008,0.006,0.016,0.013,0.023,0.019H256.722z
	 M261.338,32.97c-0.017-0.01-0.032-0.022-0.049-0.032c-0.484-0.295-0.945-0.62-1.378-0.977c-0.011-0.009-0.021-0.019-0.031-0.028
	c-0.439-0.366-0.854-0.761-1.233-1.186c-0.001-0.001-0.002-0.001-0.003-0.002c-0.383-0.428-0.733-0.885-1.052-1.366
	c-0.005-0.007-0.01-0.014-0.015-0.021c-0.311-0.472-0.586-0.97-0.829-1.488c-0.009-0.018-0.019-0.034-0.026-0.052v-9.487
	c0.087-0.167,0.185-0.325,0.28-0.486c0.065-0.111,0.125-0.226,0.194-0.334c0.102-0.156,0.215-0.302,0.323-0.452
	c0.082-0.112,0.157-0.229,0.243-0.337c0.109-0.137,0.229-0.264,0.345-0.396c0.098-0.11,0.188-0.226,0.29-0.331
	c0.119-0.124,0.248-0.236,0.373-0.353c0.109-0.102,0.213-0.21,0.326-0.307c0.159-0.136,0.327-0.259,0.494-0.384
	c0.191-0.145,0.388-0.281,0.589-0.411c0.158-0.102,0.313-0.209,0.478-0.302c0.124-0.07,0.254-0.128,0.381-0.193
	c0.157-0.08,0.312-0.166,0.474-0.238c0.128-0.057,0.262-0.1,0.392-0.151c0.163-0.063,0.323-0.132,0.488-0.187h5.398
	c0.181,0.067,0.357,0.142,0.529,0.222c2.423,1.128,4.093,3.515,4.313,6.239c0,0.006,0.001,0.013,0.001,0.019
	c0.252,3.27-2.109,6.215-5.333,6.676c-0.071,0.01-0.143,0.019-0.214,0.027c-0.007,0-0.015,0.001-0.021,0.002
	c-0.03,0.003-0.061,0.006-0.091,0.008c-0.127,0.01-0.254,0.015-0.38,0.015c-0.001,0-0.001,0-0.001,0
	c-2.457,0-4.464-1.871-4.668-4.356l-0.008-0.11c-0.109-2.05,1.448-3.887,3.472-4.097c0.103-0.011,0.211-0.026,0.306-0.016
	c1.521,0,2.763,1.153,2.896,2.685c0,0,0,0.001,0,0.001v0c0.001,0.006,0.001,0.012,0.002,0.018c0,0.001,0,0.001,0,0.002
	c0.065,0.829-0.31,1.65-0.979,2.145c-0.339,0.25-0.737,0.405-1.152,0.448c-0.013,0.003-0.022,0.002-0.034,0.003
	c-0.025,0.002-0.051,0.004-0.076,0.005c-0.026,0.001-0.054,0.002-0.081,0.002c-0.932,0-1.692-0.708-1.77-1.648l-0.498,0.041
	c0,0,0,0.001,0,0.002c0.097,1.188,1.053,2.087,2.232,2.105h0.001c0,0,0.001,0,0.002,0h0.001c0.001,0,0.001,0,0.001,0
	c0.001,0,0.002,0,0.003,0c0.009,0,0.017,0,0.024,0c0,0,0.001,0,0.003,0c0,0,0,0,0.001,0c0.077,0,0.156-0.004,0.235-0.012
	c0.507-0.052,0.992-0.24,1.404-0.544c0.811-0.599,1.263-1.591,1.18-2.59c0,0,0-0.001,0-0.001c-0.146-1.803-1.605-3.163-3.396-3.163
	c-0.078,0.006-0.184,0.004-0.276,0.011c-0.026,0.002-0.054,0.004-0.08,0.007c-0.009,0-0.017,0.001-0.024,0.002
	c-2.305,0.25-4.012,2.264-3.896,4.599c0.001,0.006,0.001,0.013,0.001,0.019l0.009,0.13c0,0.002,0.001,0.004,0.001,0.005
	c0,0.003,0,0.007,0.001,0.011c0.232,2.734,2.45,4.794,5.165,4.794c0.142,0,0.283-0.006,0.442-0.019
	c0.043-0.003,0.087-0.008,0.133-0.012c0.006-0.001,0.012-0.001,0.018-0.002c3.568-0.394,6.233-3.644,5.943-7.254
	c-0.221-2.729-1.808-5.141-4.143-6.42h7.706v17.765c-0.286,0.232-0.595,0.448-0.904,0.663c-0.121,0.083-0.23,0.176-0.355,0.257
	c-0.449,0.292-0.922,0.563-1.411,0.815H261.338z M276.696,32.97l-1.628,0c0.102-0.06,0.188-0.132,0.288-0.193
	c0.318-0.196,0.621-0.403,0.919-0.616c0.137-0.098,0.289-0.181,0.421-0.282V32.97z"/>
<g id="texture-one">
	<path class="st4" d="M100.451,86.043v52.582h18.239V86.043H100.451z M100.951,138.125v-0.699c0.185,0.48,0.574,0.594,0.861,0.664
		c0.105,0.021,0.208,0.027,0.31,0.035H100.951z M118.19,138.125h-0.933c0.125-0.02,0.344-0.057,0.56-0.252
		c0.253-0.209,0.243-0.633,0.109-0.836c-0.248-0.447-0.596-0.656-0.587-0.666l0.204,0.545c0.092,0.139,0.121,0.33,0.073,0.441
		c-0.053,0.111-0.122,0.1-0.224,0.133c-0.203,0.041-0.481,0.016-0.723-0.021c-0.247-0.049-0.494-0.066-0.69-0.217
		c-0.068-0.039-0.1-0.266,0.013-0.463c0.099-0.201,0.245-0.348,0.242-0.348c0.001,0.004-0.204,0.041-0.431,0.189
		c-0.112,0.074-0.23,0.191-0.301,0.346c-0.075,0.152-0.075,0.338-0.042,0.439c0.183,0.49,0.577,0.604,0.867,0.674
		c0.105,0.021,0.207,0.027,0.31,0.035h-6.636c0.125-0.02,0.344-0.057,0.559-0.252c0.252-0.209,0.242-0.633,0.108-0.838
		c-0.248-0.445-0.596-0.654-0.587-0.664l0.205,0.545c0.092,0.139,0.121,0.33,0.073,0.441c-0.054,0.111-0.122,0.1-0.224,0.133
		c-0.203,0.041-0.481,0.016-0.723-0.021c-0.247-0.049-0.494-0.066-0.69-0.217c-0.067-0.039-0.1-0.266,0.013-0.463
		c0.099-0.201,0.245-0.348,0.242-0.348c0.001,0.004-0.204,0.041-0.431,0.189c-0.112,0.074-0.23,0.191-0.301,0.346
		c-0.075,0.152-0.075,0.338-0.042,0.438c0.182,0.492,0.577,0.605,0.867,0.676c0.105,0.021,0.207,0.027,0.31,0.035h-6.636
		c0.125-0.02,0.344-0.057,0.559-0.252c0.252-0.209,0.242-0.633,0.108-0.838c-0.248-0.445-0.596-0.654-0.587-0.664l0.205,0.545
		c0.092,0.139,0.121,0.33,0.073,0.441c-0.054,0.111-0.122,0.1-0.224,0.133c-0.203,0.041-0.481,0.016-0.723-0.021
		c-0.247-0.049-0.494-0.066-0.69-0.217c-0.068-0.039-0.101-0.266,0.012-0.463c0.099-0.201,0.245-0.348,0.242-0.348
		c0.001,0.004-0.204,0.041-0.431,0.189c-0.112,0.074-0.23,0.191-0.301,0.346c-0.022,0.045-0.026,0.092-0.036,0.141v-2.775
		c0.185,0.48,0.574,0.594,0.861,0.664c0.312,0.062,0.607,0.062,0.92,0.037c0.124-0.018,0.35-0.053,0.571-0.254
		c0.252-0.209,0.242-0.633,0.108-0.838c-0.248-0.445-0.596-0.654-0.587-0.664l0.205,0.545c0.092,0.139,0.121,0.33,0.073,0.441
		c-0.054,0.111-0.122,0.1-0.224,0.133c-0.203,0.041-0.481,0.016-0.723-0.021c-0.247-0.049-0.494-0.066-0.69-0.217
		c-0.068-0.039-0.101-0.266,0.012-0.467c0.099-0.197,0.245-0.344,0.242-0.344c0.001,0.004-0.204,0.041-0.431,0.189
		c-0.112,0.074-0.23,0.191-0.301,0.346c-0.022,0.045-0.026,0.092-0.036,0.141v-2.775c0.185,0.48,0.574,0.594,0.861,0.664
		c0.312,0.062,0.607,0.062,0.92,0.037c0.124-0.018,0.35-0.053,0.571-0.254c0.252-0.209,0.242-0.633,0.108-0.838
		c-0.248-0.445-0.596-0.654-0.587-0.664l0.205,0.545c0.092,0.139,0.121,0.33,0.073,0.441c-0.054,0.111-0.122,0.1-0.224,0.133
		c-0.203,0.041-0.481,0.016-0.723-0.021c-0.247-0.049-0.494-0.066-0.69-0.217c-0.068-0.039-0.101-0.266,0.012-0.467
		c0.099-0.197,0.245-0.344,0.242-0.344c0.001,0.004-0.204,0.041-0.431,0.189c-0.112,0.074-0.23,0.191-0.301,0.346
		c-0.022,0.045-0.026,0.092-0.036,0.141v-2.775c0.185,0.48,0.574,0.594,0.861,0.664c0.312,0.062,0.607,0.062,0.92,0.037
		c0.124-0.018,0.35-0.053,0.571-0.254c0.252-0.209,0.242-0.633,0.108-0.838c-0.248-0.445-0.596-0.654-0.587-0.664l0.205,0.545
		c0.092,0.139,0.121,0.33,0.073,0.441c-0.054,0.111-0.122,0.1-0.224,0.133c-0.203,0.041-0.481,0.016-0.723-0.021
		c-0.247-0.049-0.494-0.066-0.69-0.217c-0.068-0.039-0.101-0.266,0.012-0.467c0.099-0.197,0.245-0.344,0.242-0.344
		c0.001,0.004-0.204,0.041-0.431,0.189c-0.112,0.074-0.23,0.191-0.301,0.346c-0.022,0.045-0.026,0.092-0.036,0.141v-2.775
		c0.185,0.48,0.574,0.594,0.861,0.664c0.311,0.062,0.606,0.062,0.919,0.037c0.125-0.016,0.35-0.053,0.572-0.254
		c0.252-0.209,0.243-0.633,0.108-0.836c-0.248-0.445-0.596-0.654-0.587-0.666l0.205,0.545c0.092,0.139,0.121,0.33,0.073,0.441
		c-0.054,0.111-0.122,0.1-0.224,0.133c-0.204,0.043-0.482,0.016-0.724-0.02c-0.246-0.051-0.493-0.068-0.689-0.219
		c-0.068-0.039-0.101-0.266,0.012-0.467c0.099-0.197,0.245-0.344,0.242-0.344c0.001,0.004-0.204,0.041-0.431,0.189
		c-0.112,0.074-0.23,0.191-0.301,0.346c-0.022,0.045-0.026,0.092-0.036,0.141v-2.775c0.185,0.48,0.574,0.594,0.861,0.664
		c0.311,0.062,0.606,0.062,0.919,0.037c0.125-0.016,0.35-0.053,0.572-0.254c0.252-0.209,0.243-0.633,0.108-0.836
		c-0.248-0.445-0.596-0.654-0.587-0.666l0.205,0.545c0.092,0.139,0.121,0.33,0.073,0.441c-0.054,0.111-0.122,0.1-0.224,0.133
		c-0.204,0.043-0.482,0.016-0.724-0.02c-0.246-0.051-0.493-0.068-0.689-0.219c-0.068-0.039-0.101-0.266,0.012-0.467
		c0.099-0.197,0.245-0.344,0.242-0.344c0.001,0.004-0.204,0.041-0.431,0.189c-0.112,0.074-0.23,0.191-0.301,0.346
		c-0.022,0.045-0.026,0.092-0.036,0.141v-2.773c0.186,0.48,0.575,0.592,0.862,0.662c0.311,0.062,0.606,0.062,0.919,0.037
		c0.124-0.016,0.349-0.053,0.571-0.254c0.252-0.209,0.242-0.633,0.108-0.836c-0.248-0.445-0.596-0.654-0.587-0.666l0.205,0.545
		c0.092,0.139,0.121,0.33,0.073,0.439c-0.054,0.113-0.122,0.102-0.224,0.135c-0.203,0.043-0.481,0.016-0.723-0.02
		c-0.247-0.049-0.494-0.068-0.69-0.219c-0.068-0.037-0.101-0.266,0.012-0.465c0.099-0.197,0.245-0.344,0.242-0.344
		c0.001,0.002-0.204,0.041-0.431,0.188c-0.112,0.076-0.23,0.191-0.301,0.346c-0.022,0.045-0.026,0.094-0.036,0.141v-2.773
		c0.186,0.48,0.575,0.592,0.862,0.662c0.311,0.062,0.606,0.062,0.919,0.037c0.124-0.016,0.349-0.053,0.571-0.254
		c0.252-0.209,0.242-0.633,0.108-0.836c-0.248-0.445-0.596-0.654-0.587-0.666l0.205,0.545c0.092,0.139,0.121,0.33,0.073,0.439
		c-0.054,0.113-0.122,0.102-0.224,0.135c-0.203,0.043-0.481,0.016-0.723-0.02c-0.247-0.049-0.494-0.068-0.69-0.219
		c-0.068-0.037-0.101-0.266,0.012-0.465c0.099-0.197,0.245-0.344,0.242-0.344c0.001,0.002-0.204,0.041-0.431,0.188
		c-0.112,0.076-0.23,0.191-0.301,0.346c-0.022,0.045-0.026,0.094-0.036,0.141v-2.773c0.187,0.48,0.574,0.592,0.861,0.664
		c0.311,0.061,0.606,0.062,0.919,0.035c0.125-0.016,0.35-0.053,0.572-0.254c0.252-0.209,0.242-0.633,0.108-0.836
		c-0.248-0.445-0.596-0.654-0.587-0.666l0.204,0.545c0.092,0.139,0.121,0.33,0.073,0.439c-0.054,0.113-0.122,0.102-0.224,0.135
		c-0.203,0.043-0.481,0.018-0.723-0.02c-0.247-0.049-0.494-0.068-0.69-0.219c-0.068-0.037-0.101-0.266,0.012-0.465
		c0.099-0.197,0.245-0.344,0.242-0.344c0.001,0.002-0.204,0.041-0.431,0.188c-0.112,0.076-0.23,0.191-0.301,0.346
		c-0.021,0.045-0.025,0.092-0.035,0.137v-2.771c0.185,0.482,0.574,0.594,0.861,0.666c0.311,0.061,0.606,0.062,0.919,0.035
		c0.125-0.016,0.35-0.053,0.572-0.252c0.252-0.209,0.243-0.633,0.108-0.838c-0.248-0.445-0.596-0.654-0.587-0.664l0.205,0.545
		c0.092,0.139,0.121,0.33,0.073,0.438c-0.054,0.113-0.122,0.104-0.224,0.135c-0.203,0.043-0.481,0.018-0.723-0.02
		c-0.247-0.049-0.494-0.068-0.69-0.221c-0.068-0.035-0.101-0.264,0.012-0.463c0.099-0.197,0.245-0.344,0.242-0.344
		c0.001,0.002-0.204,0.041-0.431,0.188c-0.112,0.076-0.23,0.191-0.301,0.346c-0.022,0.045-0.026,0.094-0.036,0.141v-2.775
		c0.185,0.482,0.574,0.594,0.861,0.666c0.311,0.061,0.606,0.062,0.919,0.037c0.125-0.018,0.35-0.055,0.572-0.254
		c0.252-0.209,0.243-0.633,0.108-0.838c-0.248-0.445-0.596-0.654-0.587-0.664l0.205,0.545c0.092,0.139,0.121,0.33,0.073,0.438
		c-0.054,0.115-0.122,0.104-0.224,0.137c-0.204,0.041-0.482,0.016-0.724-0.021c-0.246-0.049-0.493-0.068-0.689-0.221
		c-0.068-0.035-0.101-0.264,0.012-0.463c0.099-0.197,0.245-0.344,0.242-0.344c0.001,0.002-0.204,0.041-0.431,0.188
		c-0.112,0.076-0.23,0.191-0.301,0.346c-0.022,0.045-0.026,0.094-0.036,0.141v-2.775c0.185,0.482,0.574,0.594,0.861,0.666
		c0.311,0.061,0.606,0.062,0.919,0.037c0.125-0.018,0.35-0.055,0.572-0.254c0.252-0.209,0.243-0.633,0.108-0.838
		c-0.248-0.445-0.596-0.654-0.587-0.664l0.205,0.545c0.092,0.139,0.121,0.33,0.073,0.438c-0.054,0.115-0.122,0.104-0.224,0.137
		c-0.204,0.041-0.482,0.016-0.724-0.021c-0.246-0.053-0.493-0.068-0.689-0.221c-0.068-0.035-0.101-0.264,0.012-0.463
		c0.099-0.197,0.245-0.344,0.242-0.344c0.001,0.002-0.204,0.041-0.431,0.188c-0.112,0.076-0.23,0.191-0.301,0.346
		c-0.022,0.045-0.026,0.094-0.036,0.141v-2.775c0.185,0.482,0.574,0.594,0.861,0.666c0.311,0.061,0.606,0.062,0.919,0.037
		c0.125-0.018,0.35-0.055,0.572-0.254c0.252-0.209,0.243-0.633,0.108-0.838c-0.248-0.445-0.596-0.654-0.587-0.664l0.205,0.545
		c0.092,0.139,0.121,0.33,0.073,0.438c-0.054,0.115-0.122,0.104-0.224,0.137c-0.204,0.041-0.482,0.016-0.724-0.021
		c-0.246-0.053-0.493-0.068-0.689-0.221c-0.068-0.035-0.101-0.264,0.012-0.463c0.099-0.197,0.245-0.344,0.242-0.344
		c0.001,0.002-0.204,0.039-0.431,0.188c-0.112,0.076-0.23,0.191-0.301,0.346c-0.022,0.045-0.026,0.094-0.036,0.141v-2.775
		c0.185,0.482,0.574,0.594,0.861,0.666c0.311,0.061,0.606,0.062,0.919,0.037c0.125-0.018,0.35-0.055,0.572-0.254
		c0.252-0.209,0.243-0.633,0.108-0.838c-0.248-0.445-0.596-0.654-0.587-0.664l0.205,0.545c0.092,0.139,0.121,0.33,0.073,0.438
		c-0.054,0.115-0.122,0.104-0.224,0.137c-0.204,0.041-0.482,0.016-0.724-0.021c-0.246-0.053-0.493-0.068-0.689-0.221
		c-0.068-0.039-0.101-0.264,0.012-0.463c0.099-0.199,0.245-0.346,0.242-0.346c0.001,0.004-0.204,0.041-0.431,0.189
		c-0.112,0.076-0.23,0.191-0.301,0.346c-0.022,0.045-0.026,0.094-0.036,0.141V94.25c0.185,0.482,0.574,0.594,0.861,0.666
		c0.311,0.061,0.606,0.062,0.919,0.037c0.125-0.018,0.35-0.055,0.572-0.254c0.252-0.209,0.243-0.633,0.108-0.838
		c-0.248-0.445-0.596-0.654-0.587-0.664l0.205,0.545c0.092,0.139,0.121,0.33,0.073,0.438c-0.054,0.115-0.122,0.104-0.224,0.137
		c-0.204,0.041-0.482,0.016-0.724-0.021c-0.246-0.053-0.493-0.068-0.689-0.221c-0.068-0.039-0.101-0.264,0.012-0.463
		c0.099-0.199,0.245-0.346,0.242-0.346c0.001,0.004-0.204,0.041-0.431,0.189c-0.112,0.076-0.23,0.191-0.301,0.346
		c-0.022,0.045-0.026,0.094-0.036,0.141v-2.775c0.185,0.482,0.574,0.594,0.861,0.666c0.311,0.057,0.606,0.062,0.919,0.037
		c0.125-0.018,0.35-0.055,0.572-0.254c0.252-0.209,0.243-0.633,0.108-0.838c-0.248-0.445-0.596-0.654-0.587-0.664l0.205,0.545
		c0.092,0.139,0.121,0.33,0.073,0.438c-0.054,0.113-0.122,0.104-0.224,0.135c-0.204,0.043-0.482,0.014-0.724-0.02
		c-0.246-0.053-0.493-0.068-0.689-0.221c-0.068-0.039-0.101-0.264,0.012-0.463c0.099-0.199,0.245-0.346,0.242-0.346
		c0.001,0.004-0.204,0.041-0.431,0.189c-0.112,0.076-0.23,0.191-0.301,0.346c-0.022,0.045-0.026,0.094-0.036,0.141v-2.775
		c0.185,0.482,0.574,0.594,0.861,0.666c0.311,0.057,0.606,0.062,0.919,0.037c0.125-0.021,0.35-0.055,0.572-0.254
		c0.252-0.209,0.243-0.633,0.108-0.838c-0.248-0.445-0.596-0.654-0.587-0.664l0.205,0.545c0.092,0.139,0.121,0.33,0.073,0.438
		c-0.054,0.113-0.122,0.104-0.224,0.135c-0.204,0.043-0.482,0.014-0.724-0.02c-0.246-0.053-0.493-0.068-0.689-0.221
		c-0.068-0.039-0.101-0.264,0.012-0.463c0.099-0.199,0.245-0.346,0.242-0.346c0.001,0.004-0.204,0.041-0.431,0.189
		c-0.112,0.076-0.23,0.191-0.301,0.346c-0.022,0.045-0.026,0.094-0.036,0.141v-1.23h17.239V138.125z"/>
	<path class="st4" d="M109.069,88.748c0.311,0.057,0.606,0.062,0.919,0.037c0.125-0.021,0.35-0.055,0.572-0.254
		c0.252-0.209,0.243-0.633,0.108-0.838c-0.248-0.445-0.596-0.654-0.587-0.664l0.204,0.545c0.092,0.139,0.121,0.33,0.073,0.438
		c-0.054,0.113-0.122,0.104-0.224,0.135c-0.203,0.043-0.481,0.014-0.723-0.02c-0.247-0.053-0.494-0.068-0.69-0.221
		c-0.067-0.039-0.1-0.264,0.013-0.463c0.099-0.199,0.245-0.346,0.242-0.346c0.001,0.004-0.204,0.041-0.431,0.189
		c-0.112,0.076-0.23,0.191-0.301,0.346c-0.074,0.154-0.075,0.336-0.042,0.439C108.385,88.564,108.779,88.676,109.069,88.748z"/>
	<path class="st4" d="M109.069,91.832c0.311,0.057,0.606,0.062,0.919,0.037c0.125-0.018,0.35-0.055,0.572-0.254
		c0.252-0.209,0.243-0.633,0.108-0.838c-0.248-0.445-0.596-0.654-0.587-0.664l0.204,0.545c0.092,0.139,0.121,0.33,0.073,0.438
		c-0.054,0.113-0.122,0.104-0.224,0.135c-0.203,0.043-0.481,0.014-0.723-0.02c-0.247-0.053-0.494-0.068-0.69-0.221
		c-0.067-0.039-0.1-0.264,0.013-0.463c0.099-0.199,0.245-0.346,0.242-0.346c0.001,0.004-0.204,0.041-0.431,0.189
		c-0.112,0.076-0.23,0.191-0.301,0.346c-0.074,0.154-0.075,0.336-0.042,0.439C108.385,91.648,108.779,91.76,109.069,91.832z"/>
	<path class="st4" d="M109.069,94.916c0.311,0.061,0.606,0.062,0.919,0.037c0.125-0.018,0.35-0.055,0.572-0.254
		c0.252-0.209,0.243-0.633,0.108-0.838c-0.248-0.445-0.596-0.654-0.587-0.664l0.204,0.545c0.092,0.139,0.121,0.33,0.073,0.438
		c-0.054,0.115-0.122,0.104-0.224,0.137c-0.203,0.041-0.481,0.016-0.723-0.021c-0.247-0.053-0.494-0.068-0.69-0.221
		c-0.067-0.039-0.1-0.264,0.013-0.463c0.099-0.199,0.245-0.346,0.242-0.346c0.001,0.004-0.204,0.041-0.431,0.189
		c-0.112,0.076-0.23,0.191-0.301,0.346c-0.074,0.154-0.075,0.336-0.042,0.439C108.385,94.732,108.779,94.844,109.069,94.916z"/>
	<path class="st4" d="M109.069,98c0.311,0.061,0.606,0.062,0.919,0.037c0.125-0.018,0.35-0.055,0.572-0.254
		c0.252-0.209,0.243-0.633,0.108-0.838c-0.248-0.445-0.596-0.654-0.587-0.664l0.204,0.545c0.092,0.139,0.121,0.33,0.073,0.438
		c-0.054,0.115-0.122,0.104-0.224,0.137c-0.203,0.041-0.481,0.016-0.723-0.021c-0.247-0.053-0.494-0.068-0.69-0.221
		c-0.067-0.039-0.1-0.264,0.013-0.463c0.099-0.199,0.245-0.346,0.242-0.346c0.001,0.004-0.204,0.041-0.431,0.189
		c-0.112,0.076-0.23,0.191-0.301,0.346c-0.074,0.154-0.075,0.336-0.042,0.439C108.385,97.816,108.779,97.928,109.069,98z"/>
	<path class="st4" d="M109.069,101.084c0.311,0.061,0.606,0.062,0.919,0.037c0.125-0.018,0.35-0.055,0.572-0.254
		c0.252-0.209,0.243-0.633,0.108-0.838c-0.248-0.445-0.596-0.654-0.587-0.664l0.204,0.545c0.092,0.139,0.121,0.33,0.073,0.438
		c-0.054,0.115-0.122,0.104-0.224,0.137c-0.203,0.041-0.481,0.016-0.723-0.021c-0.247-0.053-0.494-0.068-0.69-0.221
		c-0.067-0.035-0.1-0.264,0.013-0.463c0.099-0.197,0.245-0.344,0.242-0.344c0.001,0.002-0.204,0.039-0.431,0.188
		c-0.112,0.076-0.23,0.191-0.301,0.346c-0.074,0.154-0.075,0.336-0.042,0.439C108.385,100.9,108.779,101.012,109.069,101.084z"/>
	<path class="st4" d="M109.069,104.168c0.311,0.061,0.606,0.062,0.919,0.037c0.125-0.018,0.35-0.055,0.572-0.254
		c0.252-0.209,0.243-0.633,0.108-0.838c-0.248-0.445-0.596-0.654-0.587-0.664l0.204,0.545c0.092,0.139,0.121,0.33,0.073,0.438
		c-0.054,0.115-0.122,0.104-0.224,0.137c-0.203,0.041-0.481,0.016-0.723-0.021c-0.247-0.053-0.494-0.068-0.69-0.221
		c-0.067-0.035-0.1-0.264,0.013-0.463c0.099-0.197,0.245-0.344,0.242-0.344c0.001,0.002-0.204,0.041-0.431,0.188
		c-0.112,0.076-0.23,0.191-0.301,0.346c-0.074,0.154-0.075,0.336-0.042,0.439C108.385,103.984,108.779,104.096,109.069,104.168z"/>
	<path class="st4" d="M109.069,107.252c0.311,0.061,0.606,0.062,0.919,0.037c0.125-0.018,0.35-0.055,0.572-0.254
		c0.252-0.209,0.243-0.633,0.108-0.838c-0.248-0.445-0.596-0.654-0.587-0.664l0.204,0.545c0.092,0.139,0.121,0.33,0.073,0.438
		c-0.054,0.115-0.122,0.104-0.224,0.137c-0.203,0.041-0.481,0.016-0.723-0.021c-0.247-0.049-0.494-0.068-0.69-0.221
		c-0.067-0.035-0.1-0.264,0.013-0.463c0.099-0.197,0.245-0.344,0.242-0.344c0.001,0.002-0.204,0.041-0.431,0.188
		c-0.112,0.076-0.23,0.191-0.301,0.346c-0.074,0.154-0.075,0.34-0.042,0.439C108.385,107.068,108.779,107.18,109.069,107.252z"/>
	<path class="st4" d="M109.069,110.336c0.311,0.061,0.606,0.062,0.919,0.035c0.125-0.016,0.35-0.053,0.572-0.252
		c0.252-0.209,0.242-0.633,0.108-0.838c-0.248-0.445-0.596-0.654-0.587-0.664l0.204,0.545c0.092,0.139,0.121,0.33,0.073,0.438
		c-0.054,0.113-0.122,0.104-0.224,0.135c-0.203,0.043-0.481,0.018-0.723-0.02c-0.247-0.049-0.493-0.068-0.69-0.221
		c-0.067-0.035-0.1-0.264,0.013-0.465c0.099-0.195,0.245-0.342,0.242-0.342c0.001,0.002-0.204,0.041-0.431,0.188
		c-0.112,0.076-0.23,0.191-0.301,0.346c-0.075,0.154-0.075,0.34-0.042,0.439C108.385,110.152,108.779,110.264,109.069,110.336z"/>
	<path class="st4" d="M109.069,113.42c0.311,0.061,0.606,0.062,0.919,0.035c0.125-0.016,0.35-0.053,0.572-0.254
		c0.252-0.209,0.242-0.633,0.108-0.836c-0.248-0.445-0.596-0.654-0.587-0.666l0.204,0.545c0.092,0.139,0.121,0.33,0.073,0.439
		c-0.054,0.113-0.122,0.102-0.224,0.135c-0.203,0.043-0.481,0.018-0.723-0.02c-0.247-0.049-0.493-0.068-0.69-0.219
		c-0.068-0.037-0.1-0.266,0.013-0.465c0.099-0.197,0.245-0.344,0.242-0.344c0.001,0.002-0.204,0.041-0.431,0.188
		c-0.112,0.076-0.23,0.191-0.301,0.346c-0.075,0.154-0.075,0.34-0.042,0.439C108.385,113.236,108.779,113.348,109.069,113.42z"/>
	<path class="st4" d="M108.978,114.855c0.001,0.002-0.204,0.041-0.431,0.188c-0.112,0.076-0.23,0.191-0.301,0.346
		c-0.075,0.154-0.075,0.34-0.042,0.439c0.183,0.492,0.577,0.602,0.867,0.674c0.311,0.062,0.606,0.062,0.919,0.037
		c0.124-0.016,0.35-0.053,0.571-0.254c0.252-0.209,0.242-0.633,0.108-0.836c-0.248-0.445-0.596-0.654-0.587-0.666l0.205,0.545
		c0.092,0.139,0.121,0.33,0.073,0.439c-0.054,0.113-0.122,0.102-0.224,0.135c-0.203,0.043-0.481,0.016-0.723-0.02
		c-0.247-0.049-0.493-0.068-0.69-0.219c-0.068-0.037-0.1-0.266,0.013-0.467C108.834,115.002,108.98,114.855,108.978,114.855z"/>
	<path class="st4" d="M108.203,118.912c0.183,0.492,0.577,0.602,0.867,0.674c0.311,0.062,0.606,0.062,0.919,0.037
		c0.124-0.016,0.35-0.053,0.571-0.254c0.252-0.209,0.242-0.633,0.108-0.836c-0.248-0.445-0.596-0.654-0.587-0.666l0.205,0.545
		c0.092,0.139,0.121,0.33,0.073,0.439c-0.054,0.113-0.122,0.102-0.224,0.135c-0.203,0.043-0.481,0.016-0.723-0.02
		c-0.247-0.049-0.493-0.068-0.69-0.219c-0.068-0.037-0.1-0.266,0.013-0.467c0.099-0.195,0.245-0.342,0.242-0.342
		c0.001,0.002-0.204,0.041-0.431,0.188c-0.112,0.076-0.23,0.191-0.301,0.346C108.17,118.627,108.17,118.812,108.203,118.912z"/>
	<path class="st4" d="M110.081,120.951l0.204,0.543c0.092,0.141,0.121,0.33,0.073,0.441c-0.054,0.111-0.122,0.1-0.224,0.133
		c-0.203,0.045-0.481,0.018-0.723-0.02c-0.247-0.049-0.494-0.066-0.69-0.219c-0.067-0.037-0.1-0.264,0.013-0.465
		c0.099-0.197,0.245-0.344,0.242-0.344c0.001,0.002-0.204,0.041-0.431,0.188c-0.112,0.076-0.23,0.193-0.301,0.346
		c-0.074,0.154-0.075,0.34-0.042,0.439c0.183,0.492,0.577,0.604,0.867,0.676c0.311,0.062,0.606,0.062,0.919,0.037
		c0.125-0.016,0.35-0.053,0.572-0.254c0.252-0.209,0.243-0.633,0.108-0.836C110.42,121.172,110.072,120.963,110.081,120.951z"/>
	<path class="st4" d="M110.081,124.035l0.204,0.545c0.092,0.139,0.121,0.33,0.073,0.441c-0.054,0.111-0.122,0.1-0.224,0.133
		c-0.203,0.043-0.481,0.016-0.723-0.02c-0.247-0.051-0.494-0.068-0.69-0.219c-0.067-0.039-0.1-0.266,0.013-0.467
		c0.099-0.197,0.245-0.344,0.242-0.344c0.001,0.004-0.204,0.041-0.431,0.189c-0.112,0.074-0.23,0.191-0.301,0.346
		c-0.074,0.152-0.075,0.338-0.042,0.438c0.183,0.492,0.577,0.604,0.867,0.676c0.311,0.062,0.606,0.062,0.919,0.037
		c0.125-0.016,0.35-0.053,0.572-0.254c0.252-0.209,0.243-0.633,0.108-0.836C110.42,124.256,110.072,124.047,110.081,124.035z"/>
	<path class="st4" d="M110.081,127.119l0.205,0.545c0.092,0.139,0.121,0.33,0.073,0.441c-0.054,0.111-0.122,0.1-0.224,0.133
		c-0.203,0.041-0.481,0.016-0.723-0.021c-0.247-0.049-0.494-0.066-0.69-0.217c-0.067-0.039-0.1-0.266,0.013-0.467
		c0.099-0.197,0.245-0.344,0.242-0.344c0.001,0.004-0.204,0.041-0.431,0.189c-0.112,0.074-0.23,0.191-0.301,0.346
		c-0.075,0.152-0.075,0.338-0.042,0.438c0.182,0.492,0.577,0.604,0.867,0.676c0.311,0.062,0.606,0.062,0.919,0.037
		c0.124-0.018,0.35-0.053,0.571-0.254c0.252-0.209,0.242-0.633,0.108-0.838C110.42,127.338,110.072,127.129,110.081,127.119z"/>
	<path class="st4" d="M110.081,130.203l0.205,0.545c0.092,0.139,0.121,0.33,0.073,0.441c-0.054,0.111-0.122,0.1-0.224,0.133
		c-0.203,0.041-0.481,0.016-0.723-0.021c-0.247-0.049-0.494-0.066-0.69-0.217c-0.067-0.039-0.1-0.266,0.013-0.467
		c0.099-0.197,0.245-0.344,0.242-0.344c0.001,0.004-0.204,0.041-0.431,0.189c-0.112,0.074-0.23,0.191-0.301,0.346
		c-0.075,0.152-0.075,0.338-0.042,0.438c0.182,0.492,0.577,0.605,0.867,0.676c0.311,0.062,0.606,0.062,0.919,0.037
		c0.124-0.018,0.35-0.053,0.571-0.254c0.252-0.209,0.242-0.633,0.108-0.838C110.42,130.422,110.072,130.213,110.081,130.203z"/>
	<path class="st4" d="M110.081,133.287l0.205,0.545c0.092,0.139,0.121,0.33,0.073,0.441c-0.054,0.111-0.122,0.1-0.224,0.133
		c-0.203,0.041-0.481,0.016-0.723-0.021c-0.247-0.049-0.494-0.066-0.69-0.217c-0.067-0.039-0.1-0.266,0.013-0.467
		c0.099-0.197,0.245-0.344,0.242-0.344c0.001,0.004-0.204,0.041-0.431,0.189c-0.112,0.074-0.23,0.191-0.301,0.346
		c-0.075,0.152-0.075,0.338-0.042,0.438c0.182,0.492,0.577,0.605,0.867,0.676c0.311,0.062,0.606,0.062,0.919,0.037
		c0.124-0.018,0.35-0.053,0.571-0.254c0.252-0.209,0.242-0.633,0.108-0.838C110.42,133.506,110.072,133.297,110.081,133.287z"/>
	<path class="st4" d="M116.326,88.748c0.311,0.057,0.606,0.062,0.919,0.037c0.125-0.021,0.35-0.055,0.572-0.254
		c0.252-0.209,0.243-0.633,0.109-0.836c-0.248-0.447-0.596-0.656-0.587-0.666l0.203,0.545c0.092,0.139,0.121,0.33,0.073,0.438
		c-0.053,0.113-0.122,0.104-0.224,0.135c-0.203,0.043-0.481,0.014-0.723-0.02c-0.247-0.053-0.494-0.068-0.69-0.221
		c-0.067-0.039-0.1-0.264,0.013-0.463c0.099-0.199,0.245-0.346,0.242-0.346c0.001,0.004-0.204,0.041-0.431,0.189
		c-0.112,0.076-0.23,0.191-0.301,0.346c-0.074,0.154-0.075,0.336-0.042,0.439C115.642,88.564,116.036,88.676,116.326,88.748z"/>
	<path class="st4" d="M116.326,91.832c0.311,0.057,0.606,0.062,0.919,0.037c0.125-0.018,0.35-0.055,0.572-0.254
		c0.252-0.209,0.243-0.633,0.109-0.836c-0.248-0.447-0.596-0.656-0.587-0.666l0.203,0.545c0.092,0.139,0.121,0.33,0.073,0.438
		c-0.053,0.113-0.122,0.104-0.224,0.135c-0.203,0.043-0.481,0.014-0.723-0.02c-0.247-0.053-0.494-0.068-0.69-0.221
		c-0.067-0.039-0.1-0.264,0.013-0.463c0.099-0.199,0.245-0.346,0.242-0.346c0.001,0.004-0.204,0.041-0.431,0.189
		c-0.112,0.076-0.23,0.191-0.301,0.346c-0.074,0.154-0.075,0.336-0.042,0.439C115.642,91.648,116.036,91.76,116.326,91.832z"/>
	<path class="st4" d="M116.326,94.916c0.311,0.061,0.606,0.062,0.919,0.037c0.125-0.018,0.35-0.055,0.572-0.254
		c0.252-0.209,0.243-0.633,0.109-0.836c-0.248-0.447-0.596-0.656-0.587-0.666l0.203,0.545c0.092,0.139,0.121,0.33,0.073,0.438
		c-0.053,0.115-0.122,0.104-0.224,0.137c-0.203,0.041-0.481,0.016-0.723-0.021c-0.247-0.053-0.494-0.068-0.69-0.221
		c-0.067-0.039-0.1-0.264,0.013-0.463c0.099-0.199,0.245-0.346,0.242-0.346c0.001,0.004-0.204,0.041-0.431,0.189
		c-0.112,0.076-0.23,0.191-0.301,0.346c-0.074,0.154-0.075,0.336-0.042,0.439C115.642,94.732,116.036,94.844,116.326,94.916z"/>
	<path class="st4" d="M116.326,98c0.311,0.061,0.606,0.062,0.919,0.037c0.125-0.018,0.35-0.055,0.572-0.254
		c0.252-0.209,0.243-0.633,0.109-0.836c-0.248-0.447-0.596-0.656-0.587-0.666l0.203,0.545c0.092,0.139,0.121,0.33,0.073,0.438
		c-0.053,0.115-0.122,0.104-0.224,0.137c-0.203,0.041-0.481,0.016-0.723-0.021c-0.247-0.053-0.494-0.068-0.69-0.221
		c-0.067-0.039-0.1-0.264,0.013-0.463c0.099-0.199,0.245-0.346,0.242-0.346c0.001,0.004-0.204,0.041-0.431,0.189
		c-0.112,0.076-0.23,0.191-0.301,0.346c-0.074,0.154-0.075,0.336-0.042,0.439C115.642,97.816,116.036,97.928,116.326,98z"/>
	<path class="st4" d="M116.326,101.084c0.311,0.061,0.606,0.062,0.919,0.037c0.125-0.018,0.35-0.055,0.572-0.254
		c0.252-0.209,0.243-0.633,0.109-0.836c-0.248-0.447-0.596-0.656-0.587-0.666l0.203,0.545c0.092,0.139,0.121,0.33,0.073,0.438
		c-0.053,0.115-0.122,0.104-0.224,0.137c-0.203,0.041-0.481,0.016-0.723-0.021c-0.247-0.053-0.494-0.068-0.69-0.221
		c-0.067-0.035-0.1-0.264,0.013-0.463c0.099-0.197,0.245-0.344,0.242-0.344c0.001,0.002-0.204,0.039-0.431,0.188
		c-0.112,0.076-0.23,0.191-0.301,0.346c-0.074,0.154-0.075,0.336-0.042,0.439C115.642,100.9,116.036,101.012,116.326,101.084z"/>
	<path class="st4" d="M116.326,104.168c0.311,0.061,0.606,0.062,0.919,0.037c0.125-0.018,0.35-0.055,0.572-0.254
		c0.252-0.209,0.243-0.633,0.109-0.836c-0.248-0.447-0.596-0.656-0.587-0.666l0.203,0.545c0.092,0.139,0.121,0.33,0.073,0.438
		c-0.053,0.115-0.122,0.104-0.224,0.137c-0.203,0.041-0.481,0.016-0.723-0.021c-0.247-0.053-0.494-0.068-0.69-0.221
		c-0.067-0.035-0.1-0.264,0.013-0.463c0.099-0.197,0.245-0.344,0.242-0.344c0.001,0.002-0.204,0.041-0.431,0.188
		c-0.112,0.076-0.23,0.191-0.301,0.346c-0.074,0.154-0.075,0.336-0.042,0.439C115.642,103.984,116.036,104.096,116.326,104.168z"/>
	<path class="st4" d="M116.326,107.252c0.311,0.061,0.606,0.062,0.919,0.037c0.125-0.018,0.35-0.055,0.572-0.254
		c0.252-0.209,0.243-0.633,0.109-0.836c-0.248-0.447-0.596-0.656-0.587-0.666l0.203,0.545c0.092,0.139,0.121,0.33,0.073,0.438
		c-0.053,0.115-0.122,0.104-0.224,0.137c-0.203,0.041-0.481,0.016-0.723-0.021c-0.247-0.049-0.494-0.068-0.69-0.221
		c-0.067-0.035-0.1-0.264,0.013-0.463c0.099-0.197,0.245-0.344,0.242-0.344c0.001,0.002-0.204,0.041-0.431,0.188
		c-0.112,0.076-0.23,0.191-0.301,0.346c-0.074,0.154-0.075,0.34-0.042,0.439C115.642,107.068,116.036,107.18,116.326,107.252z"/>
	<path class="st4" d="M116.326,110.336c0.311,0.061,0.606,0.062,0.919,0.035c0.125-0.016,0.35-0.053,0.572-0.252
		c0.253-0.209,0.243-0.633,0.109-0.838c-0.248-0.445-0.596-0.654-0.587-0.664l0.203,0.545c0.092,0.139,0.121,0.33,0.073,0.438
		c-0.053,0.113-0.122,0.104-0.224,0.135c-0.203,0.043-0.481,0.018-0.723-0.02c-0.247-0.049-0.493-0.068-0.69-0.221
		c-0.068-0.035-0.1-0.264,0.013-0.465c0.099-0.195,0.245-0.342,0.242-0.342c0.001,0.002-0.204,0.041-0.431,0.188
		c-0.112,0.076-0.23,0.191-0.301,0.346c-0.075,0.154-0.075,0.34-0.042,0.439C115.642,110.152,116.036,110.264,116.326,110.336z"/>
	<path class="st4" d="M117.339,111.699l0.205,0.545c0.092,0.139,0.121,0.33,0.073,0.439c-0.054,0.113-0.122,0.102-0.224,0.135
		c-0.204,0.043-0.482,0.018-0.724-0.02c-0.247-0.049-0.493-0.068-0.69-0.219c-0.068-0.037-0.1-0.266,0.013-0.465
		c0.099-0.197,0.245-0.344,0.242-0.344c0.001,0.002-0.204,0.041-0.431,0.188c-0.112,0.076-0.23,0.191-0.301,0.346
		c-0.075,0.154-0.075,0.34-0.042,0.439c0.183,0.492,0.577,0.604,0.867,0.676c0.311,0.061,0.606,0.062,0.919,0.035
		c0.125-0.016,0.35-0.053,0.572-0.254c0.252-0.209,0.242-0.633,0.108-0.836C117.678,111.92,117.33,111.711,117.339,111.699z"/>
	<path class="st4" d="M117.339,114.783l0.204,0.545c0.092,0.139,0.121,0.33,0.073,0.439c-0.053,0.113-0.122,0.102-0.224,0.135
		c-0.203,0.043-0.481,0.016-0.723-0.02c-0.247-0.049-0.493-0.068-0.69-0.219c-0.068-0.037-0.1-0.266,0.013-0.467
		c0.099-0.195,0.245-0.342,0.242-0.342c0.001,0.002-0.204,0.041-0.431,0.188c-0.112,0.076-0.23,0.191-0.301,0.346
		c-0.075,0.154-0.075,0.34-0.042,0.439c0.183,0.492,0.577,0.604,0.867,0.674c0.311,0.062,0.606,0.062,0.919,0.037
		c0.124-0.016,0.35-0.053,0.571-0.254c0.253-0.209,0.243-0.633,0.109-0.836C117.678,115.004,117.33,114.795,117.339,114.783z"/>
	<path class="st4" d="M117.339,117.867l0.204,0.545c0.092,0.139,0.121,0.33,0.073,0.439c-0.053,0.113-0.122,0.102-0.224,0.135
		c-0.203,0.043-0.481,0.016-0.723-0.02c-0.247-0.049-0.493-0.068-0.69-0.219c-0.068-0.037-0.1-0.266,0.013-0.467
		c0.099-0.195,0.245-0.342,0.242-0.342c0.001,0.002-0.204,0.041-0.431,0.188c-0.112,0.076-0.23,0.191-0.301,0.346
		c-0.075,0.154-0.075,0.34-0.042,0.439c0.183,0.492,0.577,0.604,0.867,0.674c0.311,0.062,0.606,0.062,0.919,0.037
		c0.124-0.016,0.35-0.053,0.571-0.254c0.253-0.209,0.243-0.633,0.109-0.836C117.678,118.088,117.33,117.879,117.339,117.867z"/>
	<path class="st4" d="M116.233,121.021c0.001,0.002-0.204,0.041-0.431,0.188c-0.112,0.076-0.23,0.193-0.301,0.346
		c-0.074,0.154-0.075,0.34-0.042,0.439c0.183,0.492,0.577,0.604,0.867,0.676c0.311,0.062,0.606,0.062,0.919,0.037
		c0.125-0.016,0.35-0.053,0.572-0.254c0.252-0.207,0.243-0.633,0.109-0.836c-0.248-0.445-0.596-0.654-0.587-0.666l0.203,0.543
		c0.092,0.141,0.121,0.33,0.073,0.441c-0.053,0.111-0.122,0.1-0.224,0.133c-0.203,0.045-0.481,0.018-0.723-0.02
		c-0.247-0.049-0.494-0.066-0.69-0.219c-0.067-0.037-0.1-0.264,0.013-0.465C116.09,121.168,116.236,121.021,116.233,121.021z"/>
	<path class="st4" d="M116.326,125.754c0.311,0.062,0.606,0.062,0.919,0.037c0.125-0.016,0.35-0.053,0.572-0.254
		c0.252-0.207,0.243-0.633,0.109-0.836c-0.248-0.445-0.596-0.654-0.587-0.666l0.203,0.545c0.092,0.139,0.121,0.33,0.073,0.441
		c-0.053,0.111-0.122,0.1-0.224,0.133c-0.203,0.043-0.481,0.016-0.723-0.02c-0.247-0.051-0.494-0.068-0.69-0.219
		c-0.067-0.039-0.1-0.266,0.013-0.467c0.099-0.197,0.245-0.344,0.242-0.344c0.001,0.004-0.204,0.041-0.431,0.189
		c-0.112,0.074-0.23,0.191-0.301,0.346c-0.074,0.152-0.075,0.338-0.042,0.438C115.642,125.57,116.036,125.682,116.326,125.754z"/>
	<path class="st4" d="M117.339,127.119l0.204,0.545c0.092,0.139,0.121,0.33,0.073,0.441c-0.053,0.111-0.122,0.1-0.224,0.133
		c-0.203,0.041-0.481,0.016-0.723-0.021c-0.247-0.049-0.494-0.066-0.69-0.217c-0.068-0.039-0.1-0.266,0.013-0.467
		c0.099-0.197,0.245-0.344,0.242-0.344c0.001,0.004-0.204,0.041-0.431,0.189c-0.112,0.074-0.23,0.191-0.301,0.346
		c-0.075,0.152-0.075,0.338-0.042,0.439c0.183,0.49,0.577,0.602,0.867,0.674c0.311,0.062,0.606,0.062,0.919,0.037
		c0.124-0.018,0.35-0.053,0.571-0.254c0.253-0.209,0.243-0.633,0.109-0.836C117.678,127.338,117.33,127.129,117.339,127.119z"/>
	<path class="st4" d="M117.339,130.203l0.204,0.545c0.092,0.139,0.121,0.33,0.073,0.441c-0.053,0.111-0.122,0.1-0.224,0.133
		c-0.203,0.041-0.481,0.016-0.723-0.021c-0.247-0.049-0.494-0.066-0.69-0.217c-0.068-0.039-0.1-0.266,0.013-0.467
		c0.099-0.197,0.245-0.344,0.242-0.344c0.001,0.004-0.204,0.041-0.431,0.189c-0.112,0.074-0.23,0.191-0.301,0.346
		c-0.075,0.152-0.075,0.338-0.042,0.439c0.183,0.49,0.577,0.604,0.867,0.674c0.311,0.062,0.606,0.062,0.919,0.037
		c0.124-0.018,0.35-0.053,0.571-0.254c0.253-0.209,0.243-0.633,0.109-0.836C117.678,130.422,117.33,130.213,117.339,130.203z"/>
	<path class="st4" d="M117.339,133.287l0.204,0.545c0.092,0.139,0.121,0.33,0.073,0.441c-0.053,0.111-0.122,0.1-0.224,0.133
		c-0.203,0.041-0.481,0.016-0.723-0.021c-0.247-0.049-0.494-0.066-0.69-0.217c-0.068-0.039-0.1-0.266,0.013-0.467
		c0.099-0.197,0.245-0.344,0.242-0.344c0.001,0.004-0.204,0.041-0.431,0.189c-0.112,0.074-0.23,0.191-0.301,0.346
		c-0.075,0.152-0.075,0.338-0.042,0.439c0.183,0.49,0.577,0.604,0.867,0.674c0.311,0.062,0.606,0.062,0.919,0.037
		c0.124-0.018,0.35-0.053,0.571-0.254c0.253-0.209,0.243-0.633,0.109-0.836C117.678,133.506,117.33,133.297,117.339,133.287z"/>
</g>
<g id="texture-two">
	<path class="st4" d="M126.618,86.043v52.582h18.239V86.043H126.618z M144.357,138.125h-17.239V86.543h17.239V138.125z"/>
	<rect x="127.488" y="86.705" class="st4" width="0.5" height="0.5"/>
	<rect x="127.488" y="105.93" class="st4" width="0.5" height="0.986"/>
	<rect x="127.488" y="103.959" class="st4" width="0.5" height="0.986"/>
	<rect x="127.488" y="101.988" class="st4" width="0.5" height="0.984"/>
	<rect x="127.488" y="98.047" class="st4" width="0.5" height="0.984"/>
	<rect x="127.488" y="107.9" class="st4" width="0.5" height="0.986"/>
	<rect x="127.488" y="109.871" class="st4" width="0.5" height="0.986"/>
	<rect x="127.488" y="111.844" class="st4" width="0.5" height="0.984"/>
	<rect x="127.488" y="96.074" class="st4" width="0.5" height="0.986"/>
	<rect x="127.488" y="88.191" class="st4" width="0.5" height="0.984"/>
	<rect x="127.488" y="90.162" class="st4" width="0.5" height="0.984"/>
	<rect x="127.488" y="94.104" class="st4" width="0.5" height="0.986"/>
	<rect x="127.488" y="92.133" class="st4" width="0.5" height="0.986"/>
	<rect x="127.488" y="100.018" class="st4" width="0.5" height="0.984"/>
	<rect x="127.488" y="125.641" class="st4" width="0.5" height="0.984"/>
	<rect x="127.488" y="129.582" class="st4" width="0.5" height="0.986"/>
	<rect x="127.488" y="127.611" class="st4" width="0.5" height="0.984"/>
	<rect x="127.488" y="131.553" class="st4" width="0.5" height="0.986"/>
	<rect x="127.488" y="133.523" class="st4" width="0.5" height="0.986"/>
	<rect x="127.488" y="135.494" class="st4" width="0.5" height="0.986"/>
	<rect x="127.488" y="115.785" class="st4" width="0.5" height="0.984"/>
	<rect x="127.488" y="117.756" class="st4" width="0.5" height="0.986"/>
	<rect x="127.488" y="119.727" class="st4" width="0.5" height="0.986"/>
	<rect x="127.488" y="113.814" class="st4" width="0.5" height="0.984"/>
	<rect x="127.488" y="123.668" class="st4" width="0.5" height="0.986"/>
	<rect x="127.488" y="121.697" class="st4" width="0.5" height="0.986"/>
	<rect x="127.488" y="137.463" class="st4" width="0.5" height="0.5"/>
	<rect x="131.488" y="86.705" class="st4" width="0.5" height="0.5"/>
	<rect x="131.488" y="100.018" class="st4" width="0.5" height="0.984"/>
	<rect x="131.488" y="103.959" class="st4" width="0.5" height="0.986"/>
	<rect x="131.488" y="101.988" class="st4" width="0.5" height="0.984"/>
	<rect x="131.488" y="105.93" class="st4" width="0.5" height="0.986"/>
	<rect x="131.488" y="109.871" class="st4" width="0.5" height="0.986"/>
	<rect x="131.488" y="111.844" class="st4" width="0.5" height="0.984"/>
	<rect x="131.488" y="107.9" class="st4" width="0.5" height="0.986"/>
	<rect x="131.488" y="88.191" class="st4" width="0.5" height="0.984"/>
	<rect x="131.488" y="96.074" class="st4" width="0.5" height="0.986"/>
	<rect x="131.488" y="90.162" class="st4" width="0.5" height="0.984"/>
	<rect x="131.488" y="94.104" class="st4" width="0.5" height="0.986"/>
	<rect x="131.488" y="92.133" class="st4" width="0.5" height="0.986"/>
	<rect x="131.488" y="98.047" class="st4" width="0.5" height="0.984"/>
	<rect x="131.488" y="129.582" class="st4" width="0.5" height="0.986"/>
	<rect x="131.488" y="131.553" class="st4" width="0.5" height="0.986"/>
	<rect x="131.488" y="127.611" class="st4" width="0.5" height="0.984"/>
	<rect x="131.488" y="135.494" class="st4" width="0.5" height="0.986"/>
	<rect x="131.488" y="125.641" class="st4" width="0.5" height="0.984"/>
	<rect x="131.488" y="133.523" class="st4" width="0.5" height="0.986"/>
	<rect x="131.488" y="117.756" class="st4" width="0.5" height="0.986"/>
	<rect x="131.488" y="119.727" class="st4" width="0.5" height="0.986"/>
	<rect x="131.488" y="113.814" class="st4" width="0.5" height="0.984"/>
	<rect x="131.488" y="115.785" class="st4" width="0.5" height="0.984"/>
	<rect x="131.488" y="121.697" class="st4" width="0.5" height="0.986"/>
	<rect x="131.488" y="123.668" class="st4" width="0.5" height="0.986"/>
	<rect x="131.488" y="137.463" class="st4" width="0.5" height="0.5"/>
	<rect x="135.488" y="86.705" class="st4" width="0.5" height="0.5"/>
	<rect x="135.488" y="103.959" class="st4" width="0.5" height="0.986"/>
	<rect x="135.488" y="105.93" class="st4" width="0.5" height="0.986"/>
	<rect x="135.488" y="101.988" class="st4" width="0.5" height="0.984"/>
	<rect x="135.488" y="107.9" class="st4" width="0.5" height="0.986"/>
	<rect x="135.488" y="98.047" class="st4" width="0.5" height="0.984"/>
	<rect x="135.488" y="109.871" class="st4" width="0.5" height="0.986"/>
	<rect x="135.488" y="92.133" class="st4" width="0.5" height="0.986"/>
	<rect x="135.488" y="88.191" class="st4" width="0.5" height="0.984"/>
	<rect x="135.488" y="96.074" class="st4" width="0.5" height="0.986"/>
	<rect x="135.488" y="90.162" class="st4" width="0.5" height="0.984"/>
	<rect x="135.488" y="94.104" class="st4" width="0.5" height="0.986"/>
	<rect x="135.488" y="111.844" class="st4" width="0.5" height="0.984"/>
	<rect x="135.488" y="100.018" class="st4" width="0.5" height="0.984"/>
	<rect x="135.488" y="131.553" class="st4" width="0.5" height="0.986"/>
	<rect x="135.488" y="129.582" class="st4" width="0.5" height="0.986"/>
	<rect x="135.488" y="127.611" class="st4" width="0.5" height="0.984"/>
	<rect x="135.488" y="113.814" class="st4" width="0.5" height="0.984"/>
	<rect x="135.488" y="125.641" class="st4" width="0.5" height="0.984"/>
	<rect x="135.488" y="135.494" class="st4" width="0.5" height="0.986"/>
	<rect x="135.488" y="133.523" class="st4" width="0.5" height="0.986"/>
	<rect x="135.488" y="117.756" class="st4" width="0.5" height="0.986"/>
	<rect x="135.488" y="119.727" class="st4" width="0.5" height="0.986"/>
	<rect x="135.488" y="115.785" class="st4" width="0.5" height="0.984"/>
	<rect x="135.488" y="123.668" class="st4" width="0.5" height="0.986"/>
	<rect x="135.488" y="121.697" class="st4" width="0.5" height="0.986"/>
	<rect x="135.488" y="137.463" class="st4" width="0.5" height="0.5"/>
	<rect x="139.488" y="86.705" class="st4" width="0.5" height="0.5"/>
	<rect x="139.488" y="103.959" class="st4" width="0.5" height="0.986"/>
	<rect x="139.488" y="101.988" class="st4" width="0.5" height="0.984"/>
	<rect x="139.488" y="100.018" class="st4" width="0.5" height="0.984"/>
	<rect x="139.488" y="105.93" class="st4" width="0.5" height="0.986"/>
	<rect x="139.488" y="109.871" class="st4" width="0.5" height="0.986"/>
	<rect x="139.488" y="107.9" class="st4" width="0.5" height="0.986"/>
	<rect x="139.488" y="96.074" class="st4" width="0.5" height="0.986"/>
	<rect x="139.488" y="98.047" class="st4" width="0.5" height="0.984"/>
	<rect x="139.488" y="111.844" class="st4" width="0.5" height="0.984"/>
	<rect x="139.488" y="90.162" class="st4" width="0.5" height="0.984"/>
	<rect x="139.488" y="92.133" class="st4" width="0.5" height="0.986"/>
	<rect x="139.488" y="94.104" class="st4" width="0.5" height="0.986"/>
	<rect x="139.488" y="88.191" class="st4" width="0.5" height="0.984"/>
	<rect x="139.488" y="133.523" class="st4" width="0.5" height="0.986"/>
	<rect x="139.488" y="131.553" class="st4" width="0.5" height="0.986"/>
	<rect x="139.488" y="129.582" class="st4" width="0.5" height="0.986"/>
	<rect x="139.488" y="113.814" class="st4" width="0.5" height="0.984"/>
	<rect x="139.488" y="127.611" class="st4" width="0.5" height="0.984"/>
	<rect x="139.488" y="135.494" class="st4" width="0.5" height="0.986"/>
	<rect x="139.488" y="121.697" class="st4" width="0.5" height="0.986"/>
	<rect x="139.488" y="115.785" class="st4" width="0.5" height="0.984"/>
	<rect x="139.488" y="119.727" class="st4" width="0.5" height="0.986"/>
	<rect x="139.488" y="117.756" class="st4" width="0.5" height="0.986"/>
	<rect x="139.488" y="123.668" class="st4" width="0.5" height="0.986"/>
	<rect x="139.488" y="125.641" class="st4" width="0.5" height="0.984"/>
	<rect x="139.488" y="137.463" class="st4" width="0.5" height="0.5"/>
	<rect x="143.488" y="86.705" class="st4" width="0.5" height="0.5"/>
	<rect x="143.488" y="101.988" class="st4" width="0.5" height="0.984"/>
	<rect x="143.488" y="100.018" class="st4" width="0.5" height="0.984"/>
	<rect x="143.488" y="103.959" class="st4" width="0.5" height="0.986"/>
	<rect x="143.488" y="105.93" class="st4" width="0.5" height="0.986"/>
	<rect x="143.488" y="107.9" class="st4" width="0.5" height="0.986"/>
	<rect x="143.488" y="98.047" class="st4" width="0.5" height="0.984"/>
	<rect x="143.488" y="109.871" class="st4" width="0.5" height="0.986"/>
	<rect x="143.488" y="90.162" class="st4" width="0.5" height="0.984"/>
	<rect x="143.488" y="96.074" class="st4" width="0.5" height="0.986"/>
	<rect x="143.488" y="88.191" class="st4" width="0.5" height="0.984"/>
	<rect x="143.488" y="94.104" class="st4" width="0.5" height="0.986"/>
	<rect x="143.488" y="92.133" class="st4" width="0.5" height="0.986"/>
	<rect x="143.488" y="135.494" class="st4" width="0.5" height="0.986"/>
	<rect x="143.488" y="127.611" class="st4" width="0.5" height="0.984"/>
	<rect x="143.488" y="123.668" class="st4" width="0.5" height="0.986"/>
	<rect x="143.488" y="129.582" class="st4" width="0.5" height="0.986"/>
	<rect x="143.488" y="125.641" class="st4" width="0.5" height="0.984"/>
	<rect x="143.488" y="133.523" class="st4" width="0.5" height="0.986"/>
	<rect x="143.488" y="131.553" class="st4" width="0.5" height="0.986"/>
	<rect x="143.488" y="113.814" class="st4" width="0.5" height="0.984"/>
	<rect x="143.488" y="121.697" class="st4" width="0.5" height="0.986"/>
	<rect x="143.488" y="115.785" class="st4" width="0.5" height="0.984"/>
	<rect x="143.488" y="111.844" class="st4" width="0.5" height="0.984"/>
	<rect x="143.488" y="119.727" class="st4" width="0.5" height="0.986"/>
	<rect x="143.488" y="117.756" class="st4" width="0.5" height="0.986"/>
	<rect x="143.488" y="137.463" class="st4" width="0.5" height="0.5"/>
</g>
<g id="texture-three">
	<path class="st4" d="M153.04,86.043v52.582h18.239V86.043H153.04z M170.779,138.125H153.54V86.543h17.239V138.125z"/>
	<ellipse class="st4" cx="154.96" cy="136.369" rx="1.2" ry="1.637"/>
	<ellipse class="st4" cx="154.96" cy="130.439" rx="1.148" ry="1.566"/>
	<ellipse class="st4" cx="154.96" cy="124.511" rx="1.045" ry="1.427"/>
	<ellipse class="st4" cx="154.96" cy="118.759" rx="0.941" ry="1.284"/>
	<ellipse class="st4" cx="154.96" cy="113.359" rx="0.838" ry="1.141"/>
	<ellipse class="st4" cx="154.96" cy="108.317" rx="0.733" ry="0.999"/>
	<ellipse class="st4" cx="154.96" cy="103.671" rx="0.629" ry="0.858"/>
	<ellipse class="st4" cx="154.96" cy="99.157" rx="0.526" ry="0.718"/>
	<ellipse class="st4" cx="154.96" cy="94.91" rx="0.422" ry="0.576"/>
	<ellipse class="st4" cx="154.96" cy="90.84" rx="0.318" ry="0.434"/>
	<ellipse class="st4" cx="154.96" cy="87.122" rx="0.215" ry="0.292"/>
	<ellipse class="st4" cx="159.763" cy="136.369" rx="1.201" ry="1.637"/>
	<ellipse class="st4" cx="159.763" cy="130.439" rx="1.146" ry="1.566"/>
	<ellipse class="st4" cx="159.763" cy="124.511" rx="1.045" ry="1.427"/>
	<ellipse class="st4" cx="159.763" cy="118.759" rx="0.939" ry="1.284"/>
	<ellipse class="st4" cx="159.763" cy="113.359" rx="0.838" ry="1.141"/>
	<ellipse class="st4" cx="159.763" cy="108.317" rx="0.731" ry="0.999"/>
	<ellipse class="st4" cx="159.763" cy="103.671" rx="0.631" ry="0.858"/>
	<ellipse class="st4" cx="159.763" cy="99.157" rx="0.523" ry="0.718"/>
	<ellipse class="st4" cx="159.763" cy="94.91" rx="0.422" ry="0.576"/>
	<ellipse class="st4" cx="159.763" cy="90.84" rx="0.315" ry="0.434"/>
	<ellipse class="st4" cx="159.763" cy="87.122" rx="0.215" ry="0.292"/>
	<ellipse class="st4" cx="164.566" cy="136.369" rx="1.2" ry="1.637"/>
	<ellipse class="st4" cx="164.566" cy="130.439" rx="1.149" ry="1.566"/>
	<ellipse class="st4" cx="164.566" cy="124.511" rx="1.045" ry="1.427"/>
	<ellipse class="st4" cx="164.567" cy="118.759" rx="0.941" ry="1.284"/>
	<ellipse class="st4" cx="164.567" cy="113.359" rx="0.838" ry="1.141"/>
	<ellipse class="st4" cx="164.567" cy="108.317" rx="0.734" ry="0.999"/>
	<ellipse class="st4" cx="164.567" cy="103.671" rx="0.63" ry="0.858"/>
	<ellipse class="st4" cx="164.567" cy="99.157" rx="0.525" ry="0.718"/>
	<ellipse class="st4" cx="164.567" cy="94.91" rx="0.422" ry="0.576"/>
	<ellipse class="st4" cx="164.567" cy="90.84" rx="0.318" ry="0.434"/>
	<ellipse class="st4" cx="164.567" cy="87.122" rx="0.214" ry="0.292"/>
	<ellipse class="st4" cx="169.37" cy="136.369" rx="1.201" ry="1.637"/>
	<ellipse class="st4" cx="169.37" cy="130.439" rx="1.149" ry="1.566"/>
	<ellipse class="st4" cx="169.37" cy="124.511" rx="1.045" ry="1.427"/>
	<ellipse class="st4" cx="169.37" cy="118.759" rx="0.941" ry="1.284"/>
	<ellipse class="st4" cx="169.37" cy="113.359" rx="0.838" ry="1.141"/>
	<ellipse class="st4" cx="169.37" cy="108.317" rx="0.733" ry="0.999"/>
	<ellipse class="st4" cx="169.371" cy="103.671" rx="0.63" ry="0.858"/>
	<ellipse class="st4" cx="169.371" cy="99.157" rx="0.526" ry="0.718"/>
	<ellipse class="st4" cx="169.37" cy="94.91" rx="0.422" ry="0.576"/>
	<ellipse class="st4" cx="169.37" cy="90.84" rx="0.318" ry="0.434"/>
	<ellipse class="st4" cx="169.37" cy="87.122" rx="0.215" ry="0.292"/>
</g>
<g id="color">
	<path class="st4" d="M195.386,63.552c-1.248,0-2.11,0.372-2.588,1.118s-0.715,2.095-0.715,4.047v10.25
		c0,1.943,0.237,3.289,0.715,4.041c0.478,0.75,1.34,1.125,2.588,1.125c1.244,0,2.104-0.379,2.584-1.133
		c0.479-0.754,0.719-2.098,0.719-4.033V76.43h-2.52v2.332c0,0.699-0.062,1.189-0.184,1.473c-0.122,0.285-0.328,0.428-0.618,0.428
		c-0.286,0-0.485-0.129-0.598-0.387c-0.112-0.26-0.171-0.703-0.171-1.336V68.746c0-0.615,0.062-1.055,0.181-1.322
		c0.118-0.267,0.317-0.4,0.588-0.4c0.284,0,0.489,0.138,0.614,0.413c0.125,0.276,0.188,0.73,0.188,1.363v2.142h2.52v-2.224
		c0-1.934-0.24-3.278-0.719-4.033C197.489,63.929,196.63,63.552,195.386,63.552z"/>
	<path class="st4" d="M203.306,63.552c-1.248,0-2.109,0.372-2.586,1.118c-0.479,0.746-0.715,2.095-0.715,4.047v10.25
		c0,1.943,0.236,3.289,0.715,4.041c0.477,0.75,1.338,1.125,2.586,1.125c1.238,0,2.095-0.373,2.572-1.119
		c0.477-0.746,0.715-2.094,0.715-4.047v-10.25c0-1.952-0.238-3.301-0.715-4.047C205.402,63.925,204.544,63.552,203.306,63.552z
		 M204.111,78.707c0,0.779-0.062,1.297-0.185,1.561c-0.121,0.264-0.34,0.395-0.651,0.395c-0.269,0-0.462-0.143-0.584-0.428
		c-0.124-0.285-0.187-0.736-0.187-1.35V68.798c0-0.632,0.063-1.086,0.189-1.363c0.126-0.275,0.33-0.413,0.613-0.413
		c0.298,0,0.506,0.126,0.623,0.379c0.119,0.253,0.181,0.727,0.181,1.423V78.707z"/>
	<polygon class="st4" points="210.819,63.945 208.257,63.945 208.257,83.738 213.554,83.738 213.554,80.133 210.819,80.133 	"/>
	<path class="st4" d="M217.981,63.552c-1.248,0-2.111,0.372-2.588,1.118s-0.715,2.095-0.715,4.047v10.25
		c0,1.943,0.238,3.289,0.715,4.041c0.477,0.75,1.34,1.125,2.588,1.125c1.236,0,2.093-0.373,2.57-1.119s0.715-2.094,0.715-4.047
		v-10.25c0-1.952-0.238-3.302-0.715-4.047C220.076,63.925,219.218,63.552,217.981,63.552z M218.784,78.707
		c0,0.779-0.062,1.297-0.184,1.561c-0.122,0.264-0.342,0.395-0.653,0.395c-0.269,0-0.463-0.143-0.583-0.428
		c-0.124-0.285-0.186-0.736-0.186-1.35V68.798c0-0.632,0.064-1.086,0.188-1.363c0.125-0.275,0.33-0.413,0.614-0.413
		c0.296,0,0.504,0.126,0.623,0.379s0.18,0.727,0.18,1.423V78.707z"/>
	<path class="st4" d="M229.56,83.297c-0.055-0.146-0.094-0.307-0.116-0.479v-5.912c0-1.139-0.158-1.995-0.472-2.569
		s-0.799-0.901-1.455-0.983c0.553-0.054,0.981-0.339,1.289-0.854c0.31-0.515,0.461-1.202,0.461-2.061v-2.888
		c0-1.121-0.264-2.002-0.793-2.644c-0.528-0.641-1.258-0.962-2.187-0.962h-3.435V83.74h2.433v-8.515
		c0.144-0.028,0.254-0.046,0.326-0.055c0.073-0.009,0.135-0.013,0.187-0.013c0.397,0,0.688,0.128,0.877,0.386
		c0.188,0.258,0.283,0.65,0.283,1.174v6.102c0,0.225,0.027,0.41,0.084,0.553s0.143,0.266,0.26,0.365h2.48
		C229.689,83.594,229.616,83.445,229.56,83.297z M226.783,70.494c0,0.47-0.089,0.813-0.267,1.031
		c-0.176,0.217-0.451,0.325-0.822,0.325c-0.109,0-0.195-0.002-0.253-0.007c-0.06-0.005-0.111-0.012-0.156-0.021l0.002-4.405
		c0.046-0.009,0.095-0.016,0.151-0.021c0.053-0.005,0.135-0.007,0.238-0.007c0.373,0,0.65,0.109,0.832,0.326
		c0.183,0.217,0.274,0.551,0.274,1.003V70.494z"/>
</g>
</svg>
