<svg id="cookie" xmlns="http://www.w3.org/2000/svg" viewBox="0 0 256 256">
<path d="M208.5,117.833c2.945,0,5.334,2.388,5.334,5.333c0,2.946-2.389,5.333-5.334,5.333s-5.334-2.388-5.334-5.333
	C203.166,120.221,205.555,117.833,208.5,117.833z M112.5,117.833c2.945,0,5.333,2.388,5.333,5.333c0,2.946-2.388,5.333-5.333,5.333
	s-5.333-2.388-5.333-5.333C107.167,120.221,109.555,117.833,112.5,117.833z M155.166,171.166c2.946,0,5.334,2.389,5.334,5.334
	s-2.388,5.334-5.334,5.334c-2.945,0-5.332-2.389-5.332-5.334S152.221,171.166,155.166,171.166z M112.5,181.834
	c2.945,0,5.333,2.387,5.333,5.332c0,2.946-2.388,5.334-5.333,5.334s-5.333-2.388-5.333-5.334
	C107.167,184.221,109.555,181.834,112.5,181.834z M197.834,64.5c2.945,0,5.332,2.388,5.332,5.333c0,2.945-2.387,5.333-5.332,5.333
	c-2.946,0-5.334-2.388-5.334-5.333C192.5,66.888,194.888,64.5,197.834,64.5z M205.834,43.167c4.418,0,8,3.582,8,8
	c0,4.418-3.582,8-8,8c-4.419,0-8-3.582-8-8C197.834,46.749,201.415,43.167,205.834,43.167z M67.167,96.5c4.418,0,8,3.582,8,8
	s-3.582,8-8,8c-4.418,0-8-3.582-8-8S62.749,96.5,67.167,96.5z M88.5,117.833c4.418,0,8,3.582,8,8s-3.582,8-8,8s-8-3.582-8-8
	S84.082,117.833,88.5,117.833z M141.834,181.834c4.418,0,8,3.581,8,8c0,4.418-3.582,8-8,8c-4.419,0-8-3.582-8-8
	C133.834,185.415,137.415,181.834,141.834,181.834z M101.833,75.167c-8.821,0-16,7.179-16,16s7.179,16,16,16s16-7.179,16-16
	S110.655,75.167,101.833,75.167z M101.833,96.5c-2.946,0-5.333-2.388-5.333-5.333c0-2.945,2.388-5.333,5.333-5.333
	c2.945,0,5.333,2.388,5.333,5.333C107.167,94.112,104.779,96.5,101.833,96.5z M197.834,83.167c4.418,0,8,3.582,8,8
	c0,4.418-3.582,8-8,8c-4.419,0-8-3.582-8-8C189.834,86.749,193.415,83.167,197.834,83.167z M216.5,61.833c4.418,0,8,3.582,8,8
	c0,4.418-3.582,8-8,8s-8-3.582-8-8C208.5,65.415,212.082,61.833,216.5,61.833z M211.604,150.889
	c-0.063,0.021-6.389,1.644-11.071,1.644c-11.766,0-21.333-9.579-21.333-21.333c0-3.062,2.752-11.147,4.703-14.785
	c1.003-1.707,1.142-4.811,0.086-6.496c-2.006-3.189-5.6-2.901-7.488-2.752c-8.821,0-16-7.179-16-16
	c0-9.088,6.293-16.885,11.947-18.197c2.865-0.677,4.641-3.55,3.963-6.417c-0.372-1.573-1.438-2.893-2.896-3.588
	c-0.064-0.032-7.68-3.893-7.68-9.13c0-2.709,0.777-6.048,1.748-7.445c1.679-2.407,1.088-5.718-1.318-7.396
	c-0.314-0.219-0.652-0.404-1.006-0.551c-12.758-5.354-26.453-6.038-36.971-6.038c-52.928,0-96,43.062-96,96
	c0,52.939,43.072,96,96,96c35.178,0,67.563-18.848,82.497-48.032c3.615-7.062,7.114-18.272,7.253-18.741
	c2.849-0.747,4.554-3.662,3.806-6.512c-0.747-2.85-3.662-4.553-6.512-3.807c-1.776,0.467-3.188,1.813-3.736,3.566L211.604,150.889z
	 M201.279,171.519c-13.121,25.653-41.771,42.219-72.993,42.219c-47.04,0-85.333-38.282-85.333-85.333
	c0-47.05,38.293-85.333,85.333-85.333c11.659,0,20.341,1.024,27.862,3.381c-0.635,2.41-0.964,4.89-0.982,7.381
	c0,5.653,2.891,10.059,6.027,13.184c-7.243,5.918-11.419,14.796-11.359,24.149c0,13.12,9.525,24.054,22.016,26.262
	c-1.729,4.533-3.317,10.026-3.317,13.771c0,19.082,16.896,33.962,36.405,31.732C203.876,165.859,202.654,168.726,201.279,171.519z"
	/>
</svg>
