<svg id="css" xmlns="http://www.w3.org/2000/svg" viewBox="0 0 256 256">
<path fill="#1A70AD" d="M195.104,53H60.896l11.842,134.211L128,203l55.262-15.789L195.104,53z"/>
<path fill="#228ECD" d="M128,64.843v125.912l44.21-12.623l9.868-113.289H128z"/>
<path fill="#FFFFFF" d="M163.93,84.579H128v15.79h19.334l-1.169,15.789H128v15.79h17.361l-1.169,17.763L128,155.229v16.596
	l31.177-10.271l2.777-45.396L163.93,84.579z"/>
<path fill="#EFEEEE" d="M128,84.579v15.79H92.877l-1.188-15.79H128z M109.835,116.158l0.805,15.79H128v-15.79H109.835z
	 M111.426,139.843h-15.79l1.184,21.711L128,171.824v-16.596l-16.192-5.518L111.426,139.843z"/>
</svg>
