<svg id="data" xmlns="http://www.w3.org/2000/svg" viewBox="0 0 256 256">
<path fill="#EAEBED" d="M159.475,145.773c11.612-2.471,23.028,4.939,25.5,16.551c2.471,11.611-4.938,23.027-16.55,25.499
    s-23.028-4.938-25.499-16.55C140.453,159.662,147.863,148.246,159.475,145.773z M93.465,158.465l17.356,8.371
    c0.006,3.635,0.385,7.324,1.171,11.021c0.787,3.697,1.943,7.22,3.418,10.542l-12.442,14.714c-1.217,1.096-1.314,2.971-0.219,4.188
    l14.553,16.154c1.096,1.215,2.97,1.313,4.187,0.218l15.937-10.851c6.36,3.668,13.489,6.03,20.962,6.816l6.52,18.129
    c0.342,1.602,1.916,2.623,3.518,2.283l21.266-4.527c1.602-0.34,2.624-1.915,2.283-3.517l-1.428-19.214
    c6.506-3.76,12.055-8.82,16.369-14.762l18.975,3.422c1.557,0.505,3.229-0.348,3.735-1.905l6.713-20.681
    c0.505-1.557-0.347-3.229-1.904-3.735l-17.356-8.37c-0.006-3.636-0.385-7.324-1.172-11.021s-1.943-7.221-3.418-10.543l12.443-14.714
    c1.216-1.097,1.313-2.971,0.219-4.188l-14.554-16.154c-1.097-1.216-2.971-1.314-4.188-0.218l-15.937,10.851
    c-6.36-3.667-13.489-6.03-20.961-6.815L162.99,95.83c-0.34-1.602-1.915-2.624-3.517-2.283l-21.267,4.526
    c-1.602,0.341-2.623,1.916-2.283,3.518l1.43,19.214c-6.506,3.76-12.054,8.821-16.37,14.761l-18.974-3.421
    c-1.558-0.506-3.23,0.347-3.736,1.904l-6.713,20.68C91.055,156.286,91.908,157.959,93.465,158.465z M17.488,206.73l15.086-0.448
    c4.583,7.105,11.646,12.261,19.736,14.405l4.438,13.912c0.219,1.351,1.492,2.27,2.844,2.051l17.946-2.908
    c1.351-0.219,2.269-1.492,2.05-2.844l-0.436-14.684c6.953-4.647,11.968-11.808,14.004-20.014l14.301-4.562
    c1.352-0.22,2.27-1.492,2.051-2.844l-2.907-17.945c-0.219-1.352-1.492-2.27-2.844-2.051l-15.086,0.447
    c-4.583-7.104-11.646-12.26-19.735-14.404l-4.439-13.912c-0.219-1.352-1.492-2.27-2.844-2.051l-17.945,2.908
    c-1.352,0.219-2.27,1.49-2.05,2.844l0.437,14.683c-6.954,4.647-11.969,11.808-14.005,20.015l-14.3,4.562
    c-1.352,0.219-2.27,1.492-2.051,2.844l2.907,17.945C14.863,206.031,16.138,206.949,17.488,206.73z M58.72,176.176
    c6.303-1.034,12.266,3.316,13.316,9.717c1.05,6.398-3.208,12.426-9.513,13.461c-6.303,1.033-12.265-3.316-13.315-9.716
    C48.159,183.238,52.417,177.211,58.72,176.176z M147.31,64.372l13.816,6.074c1.087,8.385,5.251,16.074,11.636,21.485l-1.965,14.471
    c-0.383,1.314,0.371,2.69,1.688,3.073l17.454,5.082c1.313,0.382,2.69-0.373,3.073-1.688l5.912-13.448
    c8.274-1.211,15.879-5.522,21.242-12.059l14.874,2.022c1.315,0.382,2.69-0.373,3.073-1.688l5.082-17.455
    c0.383-1.314-0.373-2.69-1.688-3.073l-13.816-6.075c-1.087-8.384-5.251-16.073-11.636-21.484l1.966-14.471
    c0.383-1.314-0.371-2.69-1.688-3.073l-17.453-5.082c-1.314-0.383-2.69,0.372-3.072,1.688l-5.914,13.447
    c-8.274,1.21-15.879,5.522-21.242,12.06l-14.874-2.021c-1.314-0.383-2.69,0.373-3.073,1.687l-5.083,17.454
    C145.239,62.613,145.996,63.99,147.31,64.372z M197.668,54.488c6.137,1.773,9.652,8.262,7.854,14.494
    c-1.802,6.229-8.235,9.844-14.373,8.07c-6.137-1.773-9.651-8.262-7.852-14.492C185.098,56.329,191.531,52.714,197.668,54.488z"/>
<path fill="#4767A8" d="M180.946,157.134H37.746v11.161h-6v-11.161h-9.671v-6h9.671V44.475h6v106.659h143.201V157.134z
     M45.242,135.762c0-5.249,4.271-9.52,9.521-9.52c0.829,0,1.628,0.117,2.395,0.317l17.229-32.383
    c-1.262-1.616-2.022-3.642-2.022-5.846c0-5.25,4.271-9.521,9.521-9.521s9.521,4.271,9.521,9.521c0,0.933-0.141,1.833-0.392,2.686
    l22.657,18.742c1.588-1.188,3.551-1.9,5.683-1.9c1.134,0,2.218,0.209,3.227,0.575l30.897-34.938
    c-1.018-1.515-1.612-3.335-1.612-5.292c0-5.25,4.271-9.522,9.521-9.522s9.521,4.271,9.521,9.522c0,5.25-4.271,9.521-9.521,9.521
    c-1.107,0-2.166-0.2-3.155-0.548l-30.929,34.975c0.991,1.502,1.573,3.298,1.573,5.229c0,5.25-4.271,9.521-9.521,9.521
    s-9.521-4.271-9.521-9.521c0-0.933,0.141-1.833,0.392-2.686L87.57,95.952c-1.588,1.188-3.552,1.9-5.683,1.9
    c-0.858,0-1.687-0.125-2.478-0.338l-17.201,32.33c1.296,1.627,2.077,3.683,2.077,5.919c0,5.251-4.271,9.522-9.521,9.522
    S45.242,141.013,45.242,135.762z M157.867,68.204c0,1.941,1.58,3.521,3.521,3.521s3.521-1.58,3.521-3.521
    c0-1.942-1.58-3.522-3.521-3.522S157.867,66.262,157.867,68.204z M115.834,117.379c0,1.941,1.58,3.521,3.521,3.521
    c1.941,0,3.521-1.58,3.521-3.521s-1.58-3.521-3.521-3.521C117.414,113.858,115.834,115.438,115.834,117.379z M78.366,88.33
    c0,1.942,1.58,3.521,3.521,3.521c1.942,0,3.521-1.58,3.521-3.521c0-1.941-1.58-3.521-3.521-3.521
    C79.945,84.809,78.366,86.389,78.366,88.33z M51.242,135.762c0,1.942,1.58,3.522,3.521,3.522c1.942,0,3.521-1.58,3.521-3.522
    c0-1.94-1.58-3.52-3.521-3.52C52.822,132.242,51.242,133.821,51.242,135.762z"/>
</svg>
