<svg id="docker" xmlns="http://www.w3.org/2000/svg" viewBox="0 0 256 256">
<path fill="#354547" d="M145.984,103.962h20.604v21.062h10.417c4.812,0,9.759-0.857,14.314-2.401
	c2.239-0.759,4.752-1.815,6.96-3.145c-2.908-3.797-4.394-8.591-4.829-13.317c-0.595-6.429,0.702-14.796,5.053-19.828l2.166-2.505
	l2.581,2.075c6.497,5.22,11.962,12.515,12.925,20.831c7.824-2.301,17.011-1.757,23.906,2.223l2.829,1.633l-1.488,2.907
	c-5.833,11.382-18.026,14.909-29.947,14.284c-17.838,44.43-56.675,65.464-103.763,65.464c-24.328,0-46.647-9.095-59.357-30.679
	l-0.208-0.352l-1.852-3.768c-4.297-9.501-5.724-19.908-4.756-30.309l0.291-3.115h17.619v-21.062h20.603V83.358h41.207V62.755h24.726
	V103.962"/>
<path fill="#2894B8" d="M212.735,111.754c1.382-10.737-6.652-19.17-11.636-23.174c-5.742,6.639-6.635,24.038,2.374,31.363
	c-5.027,4.466-15.621,8.513-26.469,8.513H44.96c-1.054,11.324,0.934,21.751,5.474,30.676l1.503,2.748
	c0.951,1.613,1.99,3.172,3.112,4.672c5.43,0.348,10.435,0.468,15.014,0.367h0.002c8.999-0.198,16.342-1.262,21.906-3.189
	c0.837-0.261,1.727,0.207,1.986,1.043c0.248,0.8-0.166,1.654-0.947,1.953c-0.741,0.258-1.512,0.498-2.309,0.726h-0.003
	c-4.382,1.252-9.081,2.093-15.143,2.468c0.36,0.006-0.375,0.054-0.377,0.054c-0.206,0.013-0.466,0.043-0.673,0.054
	c-2.386,0.135-4.962,0.162-7.595,0.162c-2.879,0-5.715-0.054-8.886-0.216l-0.081,0.054c11.002,12.366,28.205,19.782,49.769,19.782
	c45.637,0,84.346-20.229,101.487-65.647c12.16,1.248,23.848-1.853,29.164-12.231C229.896,107.044,219.006,108.602,212.735,111.754"
	/>
<path fill="#3AA4C6" d="M212.735,111.754c1.382-10.737-6.652-19.17-11.636-23.174c-5.742,6.639-6.635,24.038,2.374,31.363
	c-5.027,4.466-15.621,8.513-26.469,8.513H52.779c-0.539,17.342,5.896,30.505,17.282,38.463h0.003
	c8.999-0.198,16.342-1.262,21.906-3.189c0.837-0.261,1.727,0.207,1.986,1.043c0.248,0.8-0.166,1.654-0.947,1.953
	c-0.741,0.258-1.512,0.498-2.309,0.726h-0.003c-4.382,1.252-9.484,2.201-15.547,2.575c-0.002,0-0.146-0.14-0.148-0.14
	c15.531,7.967,38.052,7.938,63.871-1.979c28.951-11.123,55.892-32.312,74.688-56.547
	C213.279,111.489,213.003,111.62,212.735,111.754"/>
<path fill="#217A9A" d="M45.208,142.215c0.82,6.066,2.595,11.745,5.226,16.918l1.503,2.748c0.95,1.613,1.99,3.173,3.112,4.672
	c5.43,0.348,10.436,0.468,15.016,0.367c8.999-0.198,16.342-1.262,21.906-3.189c0.837-0.261,1.727,0.207,1.986,1.043
	c0.248,0.8-0.166,1.654-0.947,1.953c-0.741,0.258-1.512,0.498-2.309,0.726h-0.003c-4.382,1.252-9.457,2.147-15.52,2.522
	c-0.208,0.012-0.571,0.016-0.781,0.027c-2.384,0.133-4.934,0.215-7.567,0.215c-2.879,0-5.823-0.055-8.992-0.217
	c11.002,12.366,28.312,19.81,49.875,19.81c39.069,0,73.061-14.829,92.789-47.595H45.208"/>
<path fill="#2387A7" d="M53.968,142.215c2.336,10.65,7.948,19.012,16.097,24.705c8.999-0.198,16.342-1.262,21.906-3.189
	c0.837-0.261,1.727,0.207,1.986,1.043c0.248,0.8-0.166,1.654-0.947,1.953c-0.741,0.258-1.512,0.498-2.309,0.726h-0.003
	c-4.382,1.252-9.564,2.147-15.628,2.522c15.53,7.965,37.985,7.851,63.804-2.066c15.619-6.001,30.651-14.934,44.137-25.693H53.968"/>
<path fill="#3EA4C3" d="M83.485,107.396h17.858v17.857H83.484L83.485,107.396L83.485,107.396z M104.09,86.792h17.856v17.856H104.09
	V86.792z M124.693,107.396h17.857v17.857h-17.857V107.396z M124.693,66.188h17.857v17.858h-17.857V66.188z"/>
<path fill="#2897B3" d="M62.882,107.396h17.857v17.857H62.882V107.396z M83.485,86.792h17.858v17.856H83.484L83.485,86.792
	L83.485,86.792z M104.09,107.396h17.856v17.857H104.09V107.396z M124.693,86.792h17.857v17.856h-17.857V86.792z M145.297,107.396
	h17.856v17.857h-17.856V107.396z"/>
<path fill="#354547" d="M64.37,108.884h1.409v14.881H64.37V108.884z M67.019,108.884h1.466v14.881H67.02L67.019,108.884
	L67.019,108.884z M69.724,108.884h1.466v14.881h-1.466V108.884z M72.431,108.884h1.465v14.881h-1.465V108.884z M75.137,108.884
	h1.465v14.881h-1.465V108.884L75.137,108.884z M77.841,108.884h1.411v14.881h-1.411V108.884z M84.974,88.281h1.409v14.88h-1.409
	V88.281z M87.623,88.281h1.465v14.88h-1.464L87.623,88.281L87.623,88.281z M90.328,88.281h1.465v14.88h-1.465V88.281z
	 M93.034,88.281h1.465v14.88h-1.465V88.281z M95.739,88.281h1.467v14.88h-1.467V88.281z M98.444,88.281h1.411v14.88h-1.411V88.281z
	 M84.974,108.884h1.409v14.881h-1.409V108.884z M87.623,108.884h1.465v14.881h-1.464L87.623,108.884L87.623,108.884z
	 M90.328,108.884h1.465v14.881h-1.465V108.884z M93.034,108.884h1.465v14.881h-1.465V108.884z M95.739,108.884h1.467v14.881h-1.467
	V108.884z M98.444,108.884h1.411v14.881h-1.411V108.884z M105.577,108.884h1.408v14.881h-1.408V108.884z M108.227,108.884h1.465
	v14.881h-1.465V108.884z M110.933,108.884h1.465v14.881h-1.465V108.884z M113.638,108.884h1.466v14.881h-1.466V108.884z
	 M116.343,108.884h1.467v14.881h-1.467V108.884z M119.049,108.884h1.409v14.881h-1.409V108.884z M105.577,88.281h1.408v14.88h-1.408
	V88.281z M108.227,88.281h1.465v14.88h-1.465V88.281z M110.933,88.281h1.465v14.88h-1.465V88.281z M113.638,88.281h1.466v14.88
	h-1.466V88.281z M116.343,88.281h1.467v14.88h-1.467V88.281z M119.049,88.281h1.409v14.88h-1.409V88.281z M126.182,108.884h1.408
	v14.881h-1.408V108.884z M128.831,108.884h1.465v14.881h-1.465V108.884z M131.536,108.884h1.465v14.881h-1.465V108.884z
	 M134.242,108.884h1.466v14.881h-1.466V108.884z M136.947,108.884h1.467v14.881h-1.467V108.884z M139.653,108.884h1.409v14.881
	h-1.409V108.884z M126.182,88.281h1.408v14.88h-1.408V88.281z M128.831,88.281h1.465v14.88h-1.465V88.281z M131.536,88.281h1.465
	v14.88h-1.465V88.281z M134.242,88.281h1.466v14.88h-1.466V88.281z M136.947,88.281h1.467v14.88h-1.467V88.281z M139.653,88.281
	h1.409v14.88h-1.409V88.281z M126.182,67.675h1.408v14.882h-1.408V67.675L126.182,67.675z M128.831,67.675h1.465v14.882h-1.465
	V67.675L128.831,67.675z M131.536,67.675h1.465v14.882h-1.465V67.675L131.536,67.675z M134.242,67.675h1.466v14.882h-1.466V67.675
	L134.242,67.675z M136.947,67.675h1.467v14.882h-1.467V67.675L136.947,67.675z M139.653,67.675h1.409v14.882h-1.409V67.675
	L139.653,67.675z M146.783,108.884h1.41v14.881h-1.409L146.783,108.884L146.783,108.884z M149.433,108.884h1.466v14.881h-1.465
	L149.433,108.884L149.433,108.884z M152.14,108.884h1.466v14.881h-1.466V108.884z M154.845,108.884h1.466v14.881h-1.466V108.884z
	 M157.551,108.884h1.466v14.881h-1.466V108.884z M160.256,108.884h1.409v14.881h-1.409V108.884z"/>
<path fill="#CFE4E5" d="M100.226,154.204c2.721-0.036,4.955,2.141,4.991,4.861s-2.141,4.956-4.861,4.991
	c-0.044,0.001-0.088,0.001-0.132,0c-2.721-0.036-4.896-2.271-4.86-4.992C95.399,156.395,97.556,154.239,100.226,154.204"/>
<path fill="#354547" d="M100.226,155.602c0.45,0,0.88,0.085,1.276,0.238c-0.688,0.4-0.922,1.281-0.522,1.969
	c0.257,0.443,0.729,0.716,1.241,0.717c0.545,0,1.019-0.302,1.264-0.748c0.747,1.799-0.106,3.863-1.905,4.609
	c-1.8,0.748-3.864-0.105-4.611-1.904c-0.746-1.801,0.106-3.864,1.906-4.611C99.302,155.693,99.762,155.602,100.226,155.602
	 M13.09,143.995h229.162c-4.989-1.265-15.787-2.976-14.007-9.515c-9.073,10.499-30.953,7.365-36.476,2.189
	c-6.149,8.918-41.947,5.527-44.444-1.42c-7.71,9.047-31.598,9.047-39.307,0c-2.499,6.947-38.297,10.338-44.446,1.419
	c-5.521,5.177-27.401,8.311-36.475-2.188C28.878,141.02,18.081,142.73,13.09,143.995"/>
<path fill="#BAD4D2" d="M113.32,189.703c-12.2-5.789-18.896-13.659-22.622-22.25c-4.532,1.293-9.979,2.12-16.309,2.475
	c-2.385,0.134-4.893,0.203-7.524,0.203c-3.034,0-6.232-0.091-9.59-0.269c11.188,11.183,24.952,19.791,50.438,19.947
	C109.594,189.81,111.461,189.774,113.32,189.703"/>
<path fill="#CFE4E5" d="M95.229,175.381c-1.688-2.291-3.324-5.172-4.528-7.93c-4.532,1.295-9.981,2.122-16.312,2.479
	C78.738,172.289,84.956,174.477,95.229,175.381"/>
</svg>
