<svg id="dreamer" xmlns="http://www.w3.org/2000/svg" viewBox="0 0 256 256">
<path d="M219.096,256l-85.678-3.319c-0.178-1.909-0.967-4.418-3.75-6.141c-2.275-1.407-6.635-3.812-11.814-5.487
	c-1.64-1.421-6.002-4.604-11.464-5.334v-18.812c0,0,8.312-0.646,8.312-5.966c0-1.678-2.018-8.936-1.94-18.847
	c0.172-21.535,0.771-59.036,0.054-62.021c-0.302-1.257-3.422-9.802-3.848-12.896c-0.381-2.764,0.115-5.135-1.223-7.958
	s-4.015-8.211-4.015-8.211v-1.15c23.396-4.335,41.179-24.857,41.179-49.488C144.908,22.595,122.312,0,94.539,0
	c-14.94,0-28.342,6.574-37.572,16.94L41.591,4.322c0.377-0.457,0.633-1.021,0.633-1.663c0-1.47-1.191-2.66-2.66-2.66
	s-2.659,1.19-2.659,2.66c0,1.47,1.19,2.66,2.659,2.66c0.628,0,1.18-0.25,1.634-0.613L53.94,20.681
	c-6.113,8.337-9.77,18.582-9.77,29.688c0,17.239,8.713,32.47,21.957,41.553c0.18,1.067,0.756,2.026,1.745,2.527l0.298,0.151
	c-0.195,0.093-0.586,0.164-0.597,0.281c-0.023,0.283,0.729,0.74,0.706,1.036c-0.021,0.298-0.817,0.437-0.84,0.748
	c-0.019,0.259,0.731,0.732,0.716,0.997c-0.021,0.304-0.806,0.4-0.823,0.709c-0.019,0.299,0.757,0.774,0.739,1.078
	c-0.015,0.32-0.823,0.468-0.836,0.787c-0.009,0.205,0.76,0.501,0.753,0.709c-0.007,0.236-0.792,0.384-0.8,0.621
	c-0.006,0.236,0.598,0.722,0.593,0.958c-0.004,0.233-0.618,0.22-0.622,0.455c-0.004,0.251,0.666,0.626,0.663,0.875
	c0,0.265-0.671,0.405-0.668,0.665c0.001,0.281,0.787,0.559,0.793,0.831c0.008,0.309-0.764,0.613-0.751,0.914
	c0.015,0.325,0.896,0.564,0.917,0.873c0.017,0.262-0.827,0.603-0.805,0.854c0.031,0.351,0.926,0.649,0.971,0.974
	c0.036,0.26-0.785,0.551-0.742,0.79c0.068,0.392,0.901,0.628,0.992,0.956c0.107,0.385-0.521,0.85-0.38,1.132
	c0.137,0.273,0.895,0.284,1.045,0.53c0.143,0.231-0.322,0.698-0.168,0.909c0.247,0.335,0.934-0.073,1.206,0.213
	c0.133,0.138-0.158,0.987-0.021,1.117c0.155,0.146,0.817-0.291,0.977-0.161c0.16,0.129-0.185,0.826-0.021,0.94
	c0.19,0.135,0.784-0.392,0.978-0.275c0.205,0.125,0.011,0.894,0.219,1c0.041,0.021,0.12-0.016,0.211-0.075
	c0.172,0.535,0.487,0.987,0.885,1.376c-0.233,3.021-0.269,5.992-1.646,7.13c-1.957,1.618-4.127,5.839-4.514,9.283
	c-0.289,2.566-1.607,53.135,0.407,53.64c2.015,0.503,0.874,3.901,2.442,4.695c1.569,0.795,6.297,1.582,7.646,0
	c1.352-1.582,2.525-5.498,3.729-6.48c1.202-0.981,1.207,3.265,1.188,5.938c-0.002,0.302,0.796,1.175,0.778,1.834
	c-0.136,5.213-1.494,19.826-1.363,21.54c0.147,1.933,3.407,1.909,3.407,1.909v18.873c0,0-0.89,2.574-2.953,5.67
	c-1.374,2.061-0.807,7.842-0.318,11.26L39.563,256H219.096z M90.44,217.031l4.96-0.579l5.67,0.649l0.057,21.348
	c0,0-7.181-2.363-10.687-2.8V217.031z M49.489,50.369c0-24.841,20.209-45.049,45.05-45.049c24.84,0,45.05,20.208,45.05,45.049
	c0,21.691-15.412,39.844-35.859,44.102v-9.32c6.551-1.231,12.316-3.641,15.852-7.467c2.385-2.58-0.066-9.587-0.011-11.057
	c0.055-1.447,0.769-3.67,0.769-5.247c0-1.433-0.884-3.325-2.608-4.132c-0.992-0.465,0.488-3.083-0.615-3.535
	c-2.143-0.877-6.557,0-7.529-2.618c-0.437-1.174-0.767-7.678-0.3-8.203c0.689-0.776,2.948,0.159,3.756-0.558
	c0.68-0.605-0.814-2.483-0.998-3.657c2.771-0.556,9.252-1.48,8.424-2.439c-1.277-1.48-8.213-3.416-10.729-4.919
	c-1.124-0.673-0.464-2.727-0.574-4.057c-1.283,0.348-5.837,0.376-7.314,0.553c-1.814-1.631-3.484-3.203-3.397-5.281
	c-1.995,3.99-6.114,5.732-6.669,8.06c-0.69-0.307-1.976-0.823-3.383-0.821c-0.761,0-8.538-1.509-9.427-1.449
	c-0.033,1.138,1.438,2.55,1.527,3.426c-3.236,0.369-6.423,0.784-8.463,0.831c-0.195,1.701-1.22,3.769-0.443,5.099
	c-6.037-0.052-7.868,0.998-7.868,0.998c0.28,5.13-1.856,10.218-1.466,16.998c0.877,15.213,11.364,27.821,25.83,30.081l-0.033,9.143
	c-3.786-0.548-7.433-1.525-10.854-2.957c-0.249-0.917-0.838-1.711-1.713-2.155l-4.177-2.12c-0.737-0.374-1.554-0.426-2.323-0.234
	C57.225,79.296,49.489,65.725,49.489,50.369z M80.188,104.93c-1.82,1.542-3.777,4.012-5.022,6.146
	c-0.369,0.111-0.719,0.283-1.047,0.509c-0.105-0.148-0.063-0.672-0.192-0.784c-0.188-0.167-0.861,0.132-1.033-0.089
	c-0.17-0.218,0.161-0.956,0.02-1.239c-0.095-0.21-1.036-0.363-1.099-0.797c-0.034-0.234,0.8-0.673,0.775-0.961
	c-0.02-0.218-0.763-0.452-0.775-0.701c-0.014-0.25,0.7-0.515,0.692-0.79c-0.008-0.266-0.688-0.46-0.692-0.749
	c-0.005-0.28,0.666-0.654,0.666-0.956c0-0.26-0.669-0.522-0.666-0.79c0.003-0.296,0.678-0.603,0.685-0.914
	c0.005-0.299-0.693-0.688-0.685-0.998c0.009-0.289,0.725-0.494,0.736-0.79c0.008-0.234-0.747-0.637-0.736-0.873
	c0.011-0.289,0.791-0.411,0.805-0.704c0.015-0.278-0.818-0.473-0.805-0.751c0.016-0.275,0.881-0.636,0.897-0.914
	c0.015-0.221-0.582-0.361-0.566-0.582c0.01-0.136,0.212-0.297,0.393-0.452c0.737,0.233,1.522,0.208,2.244-0.062
	c4.158,1.779,8.614,2.977,13.254,3.579l-0.001,0.372C88.034,100.642,84.119,101.6,80.188,104.93z"/>
</svg>
