<?xml version="1.0" encoding="utf-8"?>
<!-- Generator: Adobe Illustrator 15.0.0, SVG Export Plug-In . SVG Version: 6.00 Build 0)  -->
<!DOCTYPE svg PUBLIC "-//W3C//DTD SVG 1.1//EN" "http://www.w3.org/Graphics/SVG/1.1/DTD/svg11.dtd">
<svg version="1.1" id="email-animated" xmlns="http://www.w3.org/2000/svg" xmlns:xlink="http://www.w3.org/1999/xlink" x="0px"
	 y="0px" width="400px" height="400px" viewBox="0 0 400 400" style="enable-background:new 0 0 400 400;" xml:space="preserve">
<style type="text/css">
<![CDATA[
	.st0{fill:#7AB864;}
	.st1{fill:#480200;}
	.st2{fill:none;stroke:#D1DDE9;stroke-width:8;stroke-linecap:round;stroke-miterlimit:10;}
	.st3{fill:#166184;}
	.st4{fill:#4A732C;}
	.st5{fill:#E6B637;}
	.st6{fill:#E7E3B0;}
	.st7{fill:#81211C;}
	.st8{fill:#1B88BE;}
	.st9{fill:#1E9E4E;}
	.st10{fill:#209F4E;}
	.st11{fill:#294D97;}
	.st12{fill:none;stroke:#FFFFFF;stroke-width:6;stroke-linecap:round;stroke-miterlimit:10;}
	.st13{fill:#906A3D;}
	.st14{fill:#C29B35;}
	.st15{fill:#971F1C;}
	.st16{fill:#C8C7B5;}
	.st17{fill:#61B05A;}
	.st18{fill:#65B15A;}
	.st19{fill:#6B512D;}
	.st20{fill:#39A855;}
	.st21{fill:#729849;}
]]>
</style>
<g id="email-logo">
	<g id="map">
		<g id="location_1_">
			<path class="st13" d="M361.289,171.117c4.536-5.061,7.249-11.296,7.249-18.069c0-16.828-16.554-30.471-36.971-30.471
				c-1.555,0-3.078,0.105-4.583,0.257c-15.027-15.876-65.511-27.555-125.509-27.555c-71.847,0-130.092,16.741-130.092,37.391
				c0,0.99,0.175,1.966,0.438,2.936c-24.935,3.48-43.608,17.573-43.608,34.457c0,19.495,26.339,57.716,57.03,57.716
				c23.187,0,99.323,130.442,119.262,132.473c19.939,2.032,60.677-118.416,60.677-118.416
				c10.283,24.971,13.169-10.002,35.559,12.783c13.971,14.219,30.868-49.257,49.292-49.257c18.425,0,33.359-7.902,33.359-17.649
				C383.392,180.058,374.164,173.561,361.289,171.117z"/>
			<path class="st19" d="M357.269,129.751c-3.593,10.637-25.229-4.547-34.026,1.143c-15.984,10.334-26.482-11.709-39.103-13.157
				c-3.375-0.387-8.597,1.949-10.899,4.592c-2.465,2.831,0.64,4.825-3.979,4.589c-1.777-0.091-3.99-2.593-5.354-3.571
				c-4.455-3.198-7.456-5.327-12.237-2.291c-6.047,3.844-7.259,7.75-14.876,3.433c-4.389-2.489-8.88-6.08-14.211-6.179
				c-4.442-0.083-10.062,2.462-14.297,3.588c-11.891,3.168-21.771,8.62-34.802,6.04c-10.925-2.165-25.434-8.396-36.573-6.053
				c-4.434,0.935-10.468,1.536-14.625,3.461c-2.728,1.262-2.967,2.589-6.031,3.289c-2.237,0.51-6.014,0.363-8.288-0.126
				c-4.302-0.927-6.734-4.321-10.595-6.039c-3.878-1.726-7.401-0.924-11.427-0.002c-3.326,0.759-10.339,5.655-14.449,4.866
				c-0.048,0.422-0.112,0.845-0.112,1.273c0,0.966,0.169,1.918,0.42,2.865c5.281,6.526,11.781,0.484,19.125,2.313
				c1.255,0.313,2.576,1.079,3.886,2.015c-0.186,5.718-0.123,11.59-0.061,17.133c0.034,3.706,0.393,12.514,0.465,20.388
				c0.109,7.877-0.226,14.856-0.219,14.862c-0.012,0.02,1.785-7.128,3.038-15.995c1.276-8.84,2.181-18.939,1.922-23.627
				c-0.188-3.143-0.702-6.333-1.029-9.499c0.801,0.649,1.574,1.25,2.292,1.716c4.467,2.904,7.354,3.652,12.801,3.303
				c8.875-0.569,15.459-6.468,23.795-9.582c10.611-3.965,18.581,1.417,26.328,8.324c1.502,1.339,2.988,2.428,4.536,3.343
				c0.119,0.775,0.215,1.547,0.215,2.303c0.049,9.729-1.169,19.751-1.307,29.654c-0.146,9.217,1.408,28.34,3.216,44.877
				c1.788,16.564,3.715,30.664,3.708,30.666l-0.696-28.546c-0.327-15.146-0.503-32.006-0.612-38.991
				c-0.199-11.339-0.25-23.246-0.338-34.575c-0.012-0.931,0.056-2.131,0.148-3.47c0.688,0.214,1.364,0.44,2.106,0.589
				c5.233,1.056,14.683,2.703,19.815,1.041c13.115-4.243,18.798-15.221,33.037-7.892c1.2,0.618,2.399,1.203,3.604,1.762
				l0.203,15.694c0.056,3.329,0.356,11.385,0.926,18.606c0.538,7.223,1.455,13.536,1.446,13.531
				c0.007-0.003,0.282-6.992,0.943-14.87c0.632-7.886,1.51-16.775,1.237-21.094c-0.213-3.425-0.885-6.917-1.234-10.363
				c5.934,2.327,11.993,3.446,18.362,1.453c5.72-1.792,8.229-1.476,14.697-0.141c5.845,1.206,16.065,6.647,20.247,2.287
				c1.31-1.363,2.208-4.424,2.45-6.263c2.994,2.244,7.019,2.679,10.334,3.962c1.987,0.77,4.595,3.765,6.591,4.014
				c2.704,0.335,6.52-1.829,9.792-1.771c3.574,0.063,7.231,0.478,10.9,0.542c0.092,1.521,0.182,3.048,0.229,4.552
				c0.099,3.14,1.059,15.473,1.186,15.461l2.05-7.114c1.062-3.785,2.048-8.176,1.71-10.304c-0.191-1.286-0.686-2.563-1.116-3.833
				c3.815-1.945,16.195,0.013,20.457-0.421c3.046-0.312,9.085-3.26,12.132-7.272C363.547,136.224,360.567,132.847,357.269,129.751z"
				/>
			<path class="st21" d="M83.082,126.531c4.187-0.922,7.849-1.723,11.885,0.002c4.015,1.718,6.541,5.112,11.015,6.039
				c2.363,0.491,6.291,0.637,8.618,0.127c3.187-0.7,3.434-2.027,6.267-3.289c4.325-1.927,10.599-2.528,15.211-3.461
				c11.579-2.343,26.666,3.888,38.021,6.053c13.552,2.58,23.829-2.871,36.188-6.04c4.397-1.126,10.246-3.671,14.864-3.588
				c5.543,0.099,10.214,3.69,14.775,6.179c7.92,4.317,9.177,0.411,15.466-3.434c4.97-3.035,8.093-0.907,12.727,2.292
				c1.418,0.978,3.719,3.479,5.562,3.571c4.803,0.235,1.579-1.758,4.139-4.589c2.393-2.645,7.824-4.979,11.334-4.592
				c13.12,1.448,24.037,23.491,40.65,13.157c9.147-5.69,32.621,8.611,36.352-2.026l0,0c-7.015-6.337-17.264-10.354-28.713-10.354
				c-1.604,0-3.185,0.105-4.742,0.257c-15.568-15.876-67.859-27.555-130.007-27.555c-72.877,0-132.203,16.057-134.633,36.117
				C72.337,132.187,79.63,127.291,83.082,126.531z"/>
			<path class="st5" d="M200.97,51.84c-39.627,0.806-45.064,49.064-45.064,49.064h90.127
				C246.032,100.904,240.597,51.034,200.97,51.84z"/>
			<path class="st14" d="M200.97,51.84v49.064h45.062C246.032,100.904,240.597,51.034,200.97,51.84z"/>
			<path class="st6" d="M183.821,100.859l0.131-1.571c1.583-18.729,2.373-28.13,16.501-28.182c0.041,0,0.079,0,0.121,0
				c12.717,0,13.247,7.208,14.4,22.941c0.156,2.111,0.321,4.38,0.532,6.812H183.821z"/>
		</g>
		<path class="st8" d="M400.001,367.5V183.726c-1.178,0.113-2.361,0.186-3.562,0.186c-17.363,0-32.43-11.83-39.688-29.016
			c-7.262,17.186-22.323,29.016-39.688,29.016c-17.363,0-32.427-11.83-39.688-29.016c-7.262,17.186-22.323,29.016-39.687,29.016
			c-17.366,0-32.427-11.83-39.687-29.016c-7.263,17.186-22.326,29.016-39.689,29.016c-17.364,0-32.426-11.83-39.689-29.016
			c-7.26,17.186-22.323,29.016-39.688,29.016c-17.363,0-32.425-11.83-39.686-29.016c-7.196,17.022-22.043,28.783-39.198,29.007
			V367.5H400.001z"/>
		<path class="st11" d="M396.418,178.021c-15.102,0-28.672-9.867-35.418-25.753l-4.5-10.594l-4.503,10.593
			c-6.752,15.884-20.321,25.754-35.417,25.754c-15.097,0-28.668-9.867-35.42-25.754l-4.502-10.592l-4.501,10.593
			c-6.75,15.886-20.318,25.753-35.415,25.753s-28.667-9.867-35.416-25.753l-4.5-10.593l-4.502,10.592
			c-6.75,15.884-20.324,25.754-35.418,25.754s-28.667-9.867-35.418-25.753l-4.501-10.593l-4.5,10.593
			c-6.75,15.886-20.32,25.753-35.418,25.753c-15.094,0-28.664-9.867-35.414-25.753l-4.501-10.593l-4.501,10.593
			c-6.354,14.953-18.752,24.567-32.778,25.644v11.802c14.977-0.915,28.535-9.576,37.279-23.537
			c9.256,14.777,23.902,23.628,39.917,23.628c16.018,0,30.664-8.851,39.918-23.628c9.256,14.777,23.903,23.628,39.919,23.628
			c16.017,0,30.663-8.85,39.919-23.628c9.255,14.777,23.901,23.628,39.918,23.628c16.017,0,30.661-8.851,39.916-23.628
			c9.257,14.777,23.904,23.628,39.92,23.628c16.014,0,30.659-8.851,39.919-23.626c9.253,14.776,23.898,23.626,39.92,23.626
			c1.272,0,2.53-0.075,3.781-0.185v-11.815C398.954,177.939,397.691,178.021,396.418,178.021z"/>
	</g>
	<g id="wifi">
		<path class="st16" d="M227.751,46.546c-1.014,0.37-1.539,1.494-1.172,2.515c0.363,1.02,1.48,1.548,2.495,1.179
			c1.013-0.367,1.537-1.491,1.172-2.513C229.88,46.706,228.763,46.178,227.751,46.546z"/>
		<path class="st16" d="M225.036,37.385c-0.346,0.131,0.756,3.157,1.084,3.03c3.922-1.52,8.541,0.648,10.006,4.731
			c0.103,0.286,3.108-0.809,3.008-1.092C237.071,38.3,230.718,35.312,225.036,37.385z"/>
		<path class="st16" d="M226.618,41.8c-0.3,0.129,0.841,3.138,1.085,3.031c1.636-0.593,3.446,0.263,4.038,1.913
			c0.105,0.295,3.107-0.812,3.008-1.096C233.56,42.329,229.715,40.6,226.618,41.8z"/>
		<path class="st16" d="M243.312,42.534c-2.894-8.075-12.32-12.242-19.786-9.358c-0.588,0.235,0.476,3.261,1.088,3.03
			c6.358-2.311,13.396,1.02,15.69,7.423C240.405,43.912,243.413,42.818,243.312,42.534z"/>
	</g>
	<g id="plane">
		<path class="st9" d="M133.608,140.343l-65.835,31.088l-0.049,0.022l21.521,8.958l2.771,1.143l-0.007,0.007l0.103,0.042
			c0,0,0.451,14.187,0.488,15.339c0.037,1.151,1.35,0.978,1.999,0.199c0.407-0.49,8.955-10.372,9.244-10.703l0.152-0.06
			l17.313,7.573l0.129,0.057l12.266-53.71L133.608,140.343z"/>
		<polygon class="st20" points="133.608,140.343 67.773,171.431 106.68,167.026 		"/>
		<polygon class="st10" points="106.68,167.026 67.773,171.431 67.724,171.455 89.245,180.412 92.017,181.556 		"/>
		<polygon class="st0" points="133.699,140.3 133.608,140.343 106.68,167.026 106.68,167.026 121.305,193.953 121.433,194.01 		"/>
		<path class="st18" d="M106.68,167.026l-14.664,14.53l11.824,4.881c0.049-0.057,0.08-0.092,0.08-0.092l17.385,7.605L106.68,167.026
			L106.68,167.026z"/>
		<path class="st17" d="M92.017,181.556l-0.007,0.007l0.103,0.042c0,0,0.451,14.187,0.487,15.339c0.038,1.151,1.35,0.978,2,0.199
			c0.406-0.491,3.957-4.594,6.555-7.598l-5.25-6.384L92.017,181.556z"/>
		<path class="st9" d="M95.903,183.161l5.248,6.384c1.324-1.53,2.401-2.775,2.688-3.105L95.903,183.161z"/>
	</g>
	<g id="meta">
		<path class="st15" d="M288.748,60.257c0-7.981-6.47-14.452-14.45-14.452c-7.982,0-14.452,6.471-14.452,14.452
			c0,7.746,4.349,10.02,7.729,16c4.128,7.304,3.323,14.006,6.722,13.942c3.397-0.061,2.877-6.637,6.619-13.939
			C283.976,70.279,288.748,68.004,288.748,60.257z"/>
		<path class="st7" d="M280.915,76.26c3.061-5.981,7.833-8.256,7.833-16.003c0-7.981-6.47-14.452-14.45-14.452h-0.001V90.2
			C277.692,90.137,277.173,83.562,280.915,76.26z"/>
		<circle class="st1" cx="274.298" cy="59.598" r="5.062"/>
	</g>
	<ellipse id="shadow-meta" class="st4" cx="274.972" cy="107.845" rx="9.74" ry="3.578"/>
	<ellipse id="shadow-plane" class="st3" cx="93.592" cy="217.152" rx="11.396" ry="4.808"/>
	<g id="lines">
		<path id="way" class="st2" d="M141.617,138.408c8.987-7.642,23.247-20.574,30.764-31.456
			c36.439-52.747-18.692-78.66-44.246-56.998c-28.265,23.959-12.592,68.593,36.883,56.455c44.312-10.872,71.11-26.767,89.183-16.06"
			/>
		<path id="way-2" class="st12" d="M82.196,193.951c0,0-45.947,31.53-26.368,54.006c16.753,19.23,77.872-7.122,103.646,9.971
			c25.774,17.095,4.986,43.091,4.986,43.091"/>
	</g>
</g>
</svg>
