<?xml version="1.0" encoding="utf-8"?>
<!-- Generator: Adobe Illustrator 15.0.0, SVG Export Plug-In . SVG Version: 6.00 Build 0)  -->
<!DOCTYPE svg PUBLIC "-//W3C//DTD SVG 1.1//EN" "http://www.w3.org/Graphics/SVG/1.1/DTD/svg11.dtd">
<svg version="1.1" id="icon" xmlns="http://www.w3.org/2000/svg" xmlns:xlink="http://www.w3.org/1999/xlink" x="0px" y="0px"
	 width="382.924px" height="294.583px" viewBox="0 0 382.924 294.583" style="enable-background:new 0 0 382.924 294.583;"
	 xml:space="preserve">
<style type="text/css">
<![CDATA[
	.st0{fill:none;}
]]>
</style>
<g id="favicon">
	<path id="background" class="st0" d="M380.924,284.583c0,4.418-3.582,8-8,8H10c-4.418,0-8-3.582-8-8V10c0-4.418,3.582-8,8-8
		h362.924c4.418,0,8,3.582,8,8V284.583z"/>
	<path id="shape" d="M372.924,0H10C4.486,0,0,4.485,0,10v274.583c0,5.514,4.486,10,10,10h362.924c5.514,0,10-4.486,10-10V10
		C382.924,4.485,378.438,0,372.924,0z M372.924,290.583H10c-3.309,0-6-2.691-6-6V38.843h374.924v245.739
		C378.924,287.891,376.233,290.583,372.924,290.583z M317.92,25.627c-3.592,0-6.503-2.911-6.503-6.502s2.911-6.502,6.503-6.502
		c3.591,0,6.502,2.911,6.502,6.502S321.511,25.627,317.92,25.627z M338.92,25.627c-3.592,0-6.503-2.911-6.503-6.502
		s2.911-6.502,6.503-6.502c3.591,0,6.502,2.911,6.502,6.502S342.511,25.627,338.92,25.627z M358.92,25.627
		c-3.592,0-6.503-2.911-6.503-6.502s2.911-6.502,6.503-6.502c3.591,0,6.502,2.911,6.502,6.502S362.511,25.627,358.92,25.627z"/>
	<path d="M183.564,281.67c-3.123-3.121-8.19-3.121-11.312,0l-5.964,5.963c-5.706-3.576-12.048-6.217-18.819-7.717v-8.979
		c0-4.418-3.582-8-8-8h-10c-4.418,0-8,3.582-8,8v8.979c-6.658,1.475-12.905,4.049-18.537,7.535l-6.576-6.576
		c-3.123-3.123-8.189-3.123-11.312,0l-7.072,7.072c-1.301,1.301-2.052,2.939-2.269,4.635h117.059
		c-0.326-1.406-1.029-2.744-2.126-3.84L183.564,281.67z"/>
	<path d="M238.107,156.389c0.002-2.299-2.004-4.162-4.479-4.164h-13.601c-1.326-6.937-3.478-13.587-6.351-19.843l11.146-8.098
		c2.002-1.455,2.529-4.142,1.179-6.002l-14.863-20.455c-1.352-1.861-4.067-2.191-6.071-0.738l-11.041,8.023
		c-5.062-4.746-10.687-8.896-16.766-12.338l4.262-13.115c0.765-2.355-0.388-4.838-2.574-5.549l-24.049-7.813
		c-2.187-0.711-4.579,0.619-5.346,2.973l-4.201,12.933c-3.556-0.444-7.177-0.675-10.852-0.675c-3.377,0-6.708,0.2-9.985,0.576
		l-4.255-13.096c-0.765-2.355-3.158-3.687-5.344-2.977l-24.048,7.815c-2.188,0.709-3.341,3.192-2.578,5.547l4.21,12.954
		c-6.115,3.381-11.781,7.476-16.888,12.171l-11.176-8.119c-2.003-1.456-4.721-1.126-6.073,0.732l-14.861,20.459
		c-1.353,1.859-0.826,4.545,1.175,6.002l11.014,8c-2.937,6.229-5.158,12.855-6.554,19.779H35.376c-2.476,0-4.483,1.863-4.483,4.164
		l0.001,25.285c-0.001,2.299,2.004,4.162,4.48,4.164h13.598c1.326,6.938,3.477,13.59,6.349,19.844l-11.144,8.096
		c-2.003,1.457-2.532,4.146-1.179,6.008l14.864,20.455c1.35,1.861,4.068,2.189,6.073,0.736l11.04-8.023
		c5.061,4.748,10.687,8.898,16.765,12.34l-4.26,13.113c-0.765,2.355,0.387,4.84,2.575,5.551l24.048,7.812
		c2.187,0.713,4.579-0.617,5.346-2.975l4.2-12.932c3.556,0.443,7.177,0.676,10.852,0.676c3.377,0,6.708-0.201,9.987-0.576
		l4.254,13.096c0.766,2.354,3.158,3.688,5.345,2.979l24.048-7.814c2.187-0.709,3.34-3.193,2.577-5.549l-4.209-12.953
		c6.115-3.381,11.782-7.475,16.89-12.17l11.174,8.117c2.004,1.455,4.723,1.127,6.072-0.732l14.86-20.459
		c1.354-1.857,0.828-4.545-1.177-6.002l-11.012-8c2.937-6.227,5.157-12.854,6.553-19.777l13.763-0.002
		c2.478,0,4.481-1.863,4.481-4.162V156.389z M134.5,210.868c-23.302,0-42.26-18.959-42.26-42.262
		c0-23.302,18.958-42.259,42.26-42.259c23.303,0,42.26,18.957,42.26,42.259C176.76,191.909,157.803,210.868,134.5,210.868z"/>
	<path d="M355.126,85.16l-7.17,2.328c-3.672-6.142-8.358-11.468-13.771-15.831l3.728-7.31c2.004-3.934,0.438-8.754-3.496-10.758
		l-8.912-4.541c-3.932-2.005-8.752-0.438-10.758,3.494l-3.828,7.515c-6.531-1.637-13.383-2.189-20.283-1.522l-2.772-8.539
		c-1.365-4.202-5.881-6.502-10.084-5.136l-9.508,3.09c-4.205,1.365-6.504,5.879-5.138,10.08l2.772,8.538
		c-5.875,3.46-11.021,7.841-15.301,12.895l-8.287-4.223c-3.935-2.005-8.754-0.439-10.758,3.496l-4.541,8.911
		c-2.006,3.937-0.438,8.754,3.496,10.761l7.952,4.053c-1.778,6.445-2.495,13.225-2.019,20.078l-8.48,2.754
		c-4.199,1.365-6.502,5.881-5.137,10.08l3.092,9.512c1.365,4.201,5.877,6.5,10.08,5.136l7.836-2.544
		c3.434,6.201,7.877,11.628,13.055,16.134l-3.681,7.223c-2.003,3.938-0.438,8.754,3.496,10.762l8.911,4.539
		c3.934,2.008,8.755,0.439,10.758-3.494l3.35-6.572c6.813,1.979,14.015,2.754,21.287,2.191l2.25,6.928
		c1.365,4.197,5.882,6.5,10.082,5.135l9.515-3.09c4.195-1.363,6.499-5.881,5.134-10.078l-2.095-6.443
		c6.477-3.645,12.083-8.408,16.675-13.943l6.23,3.178c3.938,2.004,8.756,0.436,10.764-3.498l4.538-8.912
		c2.005-3.934,0.438-8.754-3.495-10.757l-6.132-3.124c1.83-6.9,2.452-14.169,1.693-21.494l6.983-2.269
		c4.195-1.365,6.498-5.882,5.134-10.081l-3.09-9.512C363.838,86.096,359.323,83.794,355.126,85.16z M305.413,146.085
		c-15.298,4.97-31.783-3.431-36.752-18.729c-4.972-15.294,3.43-31.781,18.725-36.75c15.297-4.97,31.782,3.43,36.753,18.725
		C329.108,124.628,320.708,141.116,305.413,146.085z"/>
</g>
</svg>
