<svg id="git" xmlns="http://www.w3.org/2000/svg" viewBox="0 0 256 256">
<path fill="#BD533F" d="M207.493,122.989c3.043,3.044,3.043,7.978,0,11.022l-73.482,73.481c-3.043,3.045-7.978,3.044-11.022,0
	l-73.482-73.481c-3.042-3.044-3.042-7.978,0-11.022l73.482-73.482c3.044-3.043,7.979-3.043,11.022,0L207.493,122.989z"/>
<path fill="#FFFFFF" d="M175.098,130.556c0,6.831-5.536,12.367-12.367,12.367c-6.83,0-12.367-5.536-12.367-12.367
	c0-1.16,0.172-2.279,0.47-3.344l-16.403-16.434v41.979c3.836,2.1,6.438,6.171,6.438,10.851c0,6.83-5.537,12.367-12.368,12.367
	c-6.83,0-12.367-5.537-12.367-12.367c0-4.574,2.491-8.559,6.183-10.697v-45.988c-3.834-2.1-6.437-6.172-6.437-10.853
	c0-1.178,0.175-2.313,0.483-3.391l-18.26-18.293l8.573-8.559l18.297,18.329c1.043-0.287,2.138-0.452,3.274-0.452
	c6.83,0,12.366,5.537,12.366,12.367c0,1.143-0.167,2.245-0.456,3.295l19.252,19.288c1.06-0.295,2.17-0.465,3.322-0.465
	C169.562,118.188,175.098,123.725,175.098,130.556z"/>
</svg>
