<?xml version="1.0" encoding="utf-8"?>
<!-- Generator: Adobe Illustrator 15.0.0, SVG Export Plug-In . SVG Version: 6.00 Build 0)  -->
<!DOCTYPE svg PUBLIC "-//W3C//DTD SVG 1.1//EN" "http://www.w3.org/Graphics/SVG/1.1/DTD/svg11.dtd">
<svg version="1.1" id="graphic-design" xmlns="http://www.w3.org/2000/svg" xmlns:xlink="http://www.w3.org/1999/xlink" x="0px"
	 y="0px" width="300px" height="150px" viewBox="0 0 300 150" style="enable-background:new 0 0 300 150;" xml:space="preserve">
<style type="text/css">
<![CDATA[
	.st0{fill:#818084;stroke:#413F3F;stroke-width:0.25;stroke-miterlimit:10;}
	.st1{fill:#413F3F;stroke:#413F3F;stroke-width:0.25;stroke-miterlimit:10;}
	.st2{fill:#C4C6CB;stroke:#413F3F;stroke-width:0.25;stroke-miterlimit:10;}
	.st3{fill:#A4A3A8;stroke:#413F3F;stroke-width:0.25;stroke-miterlimit:10;}
	.st4{fill:#67666A;stroke:#413F3F;stroke-width:0.25;stroke-miterlimit:10;}
	.st5{fill:none;stroke:#413F3F;stroke-width:0.25;stroke-miterlimit:10;}
	.st6{fill:#FFFFFF;}
	.st7{fill:#413F3F;}
]]>
</style>
<g id="compas">
	<path class="st7" d="M54.385,123.57c-0.68-0.174-1.408,0.158-1.761,0.688c-0.366,0.531-0.428,1.205-0.218,1.789
		c0.078,0.236,0.311,0.622,0.743,0.855c0.423,0.244,1.031,0.252,1.465,0c0.442-0.243,0.68-0.666,0.752-0.978
		c0.082-0.315,0.04-0.521,0.048-0.519c-0.004-0.002-0.035,0.24-0.157,0.464c-0.114,0.226-0.3,0.413-0.366,0.475
		c-0.222,0.253-0.568,0.373-0.879,0.339c-0.316-0.029-0.581-0.195-0.769-0.408c-0.684-0.819-0.201-2.152,1.039-2.164
		c0.17-0.012,0.627,0.154,0.875,0.524c0.264,0.351,0.28,0.78,0.283,0.774c-0.008,0.006,0.115-0.403-0.066-0.887
		C55.223,124.031,54.684,123.619,54.385,123.57z"/>
	<path class="st7" d="M54.231,128.486c-0.258,0.091-0.506,0.105-0.505,0.115c-0.001-0.011,0.237,0.094,0.534,0.127
		c0.297,0.047,0.649,0.02,0.799-0.037c0.71-0.281,1.175-0.881,1.573-1.457c0.172-0.233,0.422-0.869,0.464-1.447
		c0.058-0.576-0.019-1.069-0.012-1.068l-0.215,0.678c-0.057,0.445-0.319,0.84-0.543,1.188c-0.442,0.651-0.853,1.042-1.483,1.604
		C54.753,128.266,54.493,128.41,54.231,128.486z"/>
	<path class="st7" d="M55.687,121.182c-0.077,0.108-0.019,0.307-0.106,0.406c-0.08,0.086-0.048,0.541-0.044,0.538
		c0.001-0.001,0.2-0.021,0.21-0.036c0.039-0.076,0.213-0.074,0.294-0.121c0.146-0.09,0.229-0.177,0.091-0.47
		c-0.038-0.081-0.031-0.308-0.031-0.308C56.102,121.189,55.721,121.135,55.687,121.182z"/>
	<path class="st7" d="M49.642,123.689c-0.036,0.088-0.154,0.246-0.15,0.244c0.012-0.002,0.221,0.299,0.236,0.293
		c0.076,0,0.152-0.18,0.251-0.146c0.063,0.009,0.398-0.173,0.408-0.17c0.002,0-0.055-0.183-0.08-0.183
		c-0.076-0.016-0.135-0.185-0.222-0.229C49.935,123.398,49.757,123.393,49.642,123.689z"/>
	<path class="st7" d="M57.998,124.895c0.132,0.056,0.293,0.026,0.311-0.287c0.011-0.086,0.06-0.269,0.056-0.266
		c-0.011,0.008-0.267-0.232-0.279-0.23c-0.048,0.02-0.07,0.195-0.163,0.195c-0.069-0.006-0.297,0.305-0.288,0.307
		c0.002-0.002,0.125,0.138,0.137,0.134C57.831,124.732,57.925,124.867,57.998,124.895z"/>
	<path class="st7" d="M52.58,120.939c-0.086-0.004-0.234-0.033-0.233-0.03c0.004,0.009-0.283,0.207-0.282,0.208
		c0.014,0.037,0.179,0.045,0.177,0.115c-0.008,0.061,0.298,0.18,0.295,0.164c-0.001,0,0.133-0.119,0.131-0.125
		c-0.014-0.033,0.119-0.11,0.153-0.158C52.883,121.04,52.876,120.936,52.58,120.939z"/>
	<path class="st7" d="M62.533,93.081c-1.063-0.271-2.213,0.203-2.815,1.041c-0.62,0.832-0.756,1.944-0.395,2.899
		c0.133,0.383,0.512,1.013,1.216,1.401c0.689,0.4,1.681,0.438,2.417,0.043c0.749-0.376,1.183-1.077,1.325-1.604
		c0.161-0.53,0.098-0.889,0.112-0.885c-0.007-0.004-0.027,0.412-0.213,0.812c-0.075,0.177-0.177,0.341-0.278,0.482
		c-0.129-0.088-0.34-0.23-0.41-0.253c-0.366-0.113-0.686-0.386-1.037-0.551c-0.311-0.146-0.667-0.295-0.942-0.361
		c-0.284-0.082-0.601-0.172-0.99-0.197c-0.129-0.027-0.48-0.084-0.735-0.118c0.025-0.295,0.096-0.582,0.219-0.841
		c0.017-0.036,0.041-0.069,0.06-0.105c0.199,0.14,0.439,0.307,0.557,0.354c0.517,0.171,1.084,0.161,1.596,0.335
		c0.209,0.072,0.709,0.156,1.142,0.271c0.437,0.107,0.788,0.299,0.787,0.303c0.015-0.002-0.296-0.408-0.409-0.448
		c-0.345-0.169-0.665-0.438-1.021-0.595c-0.667-0.291-1.2-0.445-1.948-0.395c-0.106-0.001-0.364-0.014-0.592-0.022
		c0.457-0.684,1.292-1.159,2.279-1.025c0.306,0.011,1.107,0.343,1.516,1.001c0.441,0.631,0.441,1.363,0.447,1.354
		c-0.012,0.01,0.129-0.69-0.227-1.457C63.882,93.736,62.995,93.15,62.533,93.081z M61.932,96.915
		c0.347,0.143,1.532,0.355,1.932,0.412c-0.117,0.157-0.228,0.278-0.29,0.336c-0.409,0.451-1.022,0.696-1.609,0.671
		c-0.592-0.02-1.136-0.29-1.526-0.686c-0.464-0.467-0.672-1.076-0.667-1.672c0.19,0.161,0.424,0.362,0.536,0.433
		C60.776,96.654,61.443,96.745,61.932,96.915z"/>
	<path class="st7" d="M62.115,106.863c-0.377-0.75-1.074-1.187-1.6-1.33c-0.532-0.162-0.889-0.1-0.886-0.114
		c-0.002,0.007,0.413,0.026,0.811,0.222c0.177,0.074,0.34,0.176,0.481,0.277c-0.089,0.13-0.229,0.338-0.251,0.41
		c-0.115,0.363-0.386,0.681-0.552,1.033c-0.149,0.309-0.298,0.664-0.367,0.938c-0.083,0.284-0.173,0.601-0.201,0.99
		c-0.027,0.128-0.085,0.48-0.121,0.735c-0.294-0.025-0.582-0.097-0.84-0.221c-0.036-0.017-0.069-0.041-0.104-0.06
		c0.141-0.199,0.31-0.441,0.357-0.56c0.173-0.517,0.167-1.082,0.34-1.595c0.072-0.209,0.156-0.709,0.274-1.141
		c0.108-0.437,0.302-0.787,0.305-0.786c-0.003-0.016-0.409,0.295-0.449,0.406c-0.17,0.346-0.439,0.664-0.596,1.021
		c-0.29,0.666-0.448,1.198-0.399,1.947c-0.001,0.106-0.016,0.368-0.025,0.597c-0.683-0.458-1.16-1.297-1.022-2.285
		c0.012-0.307,0.346-1.106,1.007-1.514c0.631-0.439,1.364-0.438,1.353-0.443c0.011,0.016-0.692-0.129-1.457,0.226
		c-0.785,0.306-1.373,1.19-1.446,1.653c-0.271,1.062,0.196,2.213,1.032,2.817c0.83,0.622,1.944,0.761,2.9,0.404
		c0.385-0.132,1.015-0.511,1.406-1.212C62.467,108.592,62.507,107.6,62.115,106.863z M61.29,109.38
		c-0.468,0.463-1.08,0.669-1.675,0.661c0.161-0.19,0.364-0.425,0.435-0.536c0.248-0.468,0.339-1.134,0.511-1.622
		c0.144-0.346,0.359-1.522,0.417-1.926c0.157,0.117,0.278,0.229,0.335,0.291c0.449,0.41,0.693,1.021,0.665,1.609
		C61.959,108.447,61.689,108.991,61.29,109.38z"/>
	<path class="st7" d="M54.083,124.984c0.004,0.007-0.163-0.043-0.374,0.064c-0.223,0.098-0.359,0.432-0.324,0.57
		c0.054,0.314,0.287,0.572,0.596,0.664c0.31,0.095,0.609-0.084,0.776-0.309c0.068-0.086,0.136-0.222,0.158-0.427
		c0.028-0.22-0.047-0.468-0.226-0.573c-0.184-0.107-0.389-0.043-0.495,0.004c-0.112,0.051-0.162,0.094-0.165,0.092
		c0.019-0.012,0.335,0.068,0.343,0.101c0.088,0.001,0.136,0.108,0.101,0.188c-0.033,0.09-0.083,0.084-0.127,0.148
		c-0.119,0.155-0.114,0.077-0.126,0.11c0.002,0.024-0.111,0.071-0.298-0.085c-0.041-0.034-0.099-0.178-0.03-0.321
		C53.952,125.07,54.087,124.986,54.083,124.984z"/>
	<path class="st7" d="M67.018,72.406c-0.003-0.002-0.016,0.128-0.056,0.304c0.013-0.101,0.031-0.2,0.031-0.304
		c0-0.325-0.066-0.634-0.183-0.917c0.225,0.478,0.232,0.926,0.235,0.917c-0.011,0.012,0.128-0.658-0.226-1.38
		c-0.311-0.741-1.168-1.273-1.602-1.339c-1.004-0.235-2.093,0.176-2.687,0.961c-0.614,0.773-0.756,1.849-0.393,2.752
		c0.134,0.364,0.511,0.952,1.188,1.302c0.664,0.358,1.59,0.387,2.294,0.031c0.715-0.344,1.145-0.993,1.288-1.49
		C67.067,72.742,67.004,72.403,67.018,72.406z M66.724,71.323c0.019,0.032,0.036,0.064,0.052,0.096
		C66.761,71.386,66.74,71.355,66.724,71.323z"/>
	<path class="st7" d="M101.123,124.447c-0.22-0.996-0.624-1.527-0.604-1.532c-0.008,0.001,0.357,0.672,0.469,1.493
		c0.14,0.816-0.01,1.703-0.087,2.015c-0.238,1.138-0.939,2.163-1.879,2.827c-0.152,0.109-0.317,0.194-0.48,0.284
		c0.057-0.078,0.112-0.157,0.104-0.175c-0.038-0.106-0.226-0.174-0.241-0.305c-0.009-0.101-0.339-0.424-0.339-0.424
		s-0.136,0.151-0.13,0.176c0.021,0.088-0.105,0.215-0.122,0.318c-0.038,0.188-0.001,0.359,0.324,0.43
		c0.056,0.015,0.14,0.062,0.203,0.099c-0.68,0.339-1.429,0.509-2.172,0.526c0.052-0.029,0.096-0.057,0.096-0.072
		c0-0.107-0.16-0.211-0.139-0.318c0.018-0.087-0.226-0.402-0.226-0.402s-0.168,0.092-0.168,0.109c0,0.077-0.153,0.15-0.196,0.223
		c-0.081,0.141-0.097,0.254,0.184,0.391c0.031,0.016,0.069,0.049,0.104,0.084c-0.003,0-0.006,0-0.009,0
		c-0.992-0.059-1.862-0.668-2.509-1.385c-0.342-0.384-0.633-0.808-0.869-1.255c0.027-0.062,0.051-0.135,0.109-0.146
		c0.066-0.01,0.25-0.331,0.253-0.331c0,0-0.132-0.132-0.15-0.129c-0.062,0.022-0.179-0.099-0.263-0.113
		c-0.099-0.019-0.187,0.001-0.234,0.099c-0.081-0.21-0.152-0.423-0.207-0.638c-0.122-0.484-0.145-1.006-0.106-1.531
		c0.006,0.028,0.013,0.055,0.026,0.06c0.122,0.055,0.274-0.07,0.362-0.028c0.08,0.034,0.382-0.142,0.389-0.136
		c0.002,0.001-0.028-0.182-0.05-0.193c-0.065-0.014-0.097-0.178-0.15-0.234c-0.101-0.105-0.133-0.129-0.332,0.092
		c-0.041,0.05-0.152,0.084-0.208,0.098c0.042-0.329,0.098-0.657,0.182-0.977c0.263-0.938,0.792-1.852,1.678-2.453
		c0.241-0.167,0.712-0.426,1.334-0.551c0.618-0.131,1.367-0.137,2.055,0.004c0.029,0.006,0.055,0.015,0.084,0.021
		c0.002,0.009,0.005,0.024,0.005,0.024l-0.004-0.024c1.356,0.286,2.3,1.154,2.288,1.141c0.008,0.016-0.846-0.965-2.276-1.389
		c-0.019-0.006-0.038-0.009-0.057-0.014l-1.708-10.128l-2.215-13.741c-1.25-7.375-2.408-14.816-3.55-22.272
		c0.946,0.092,3.11,0.294,3.892,0.294c0.807,0,1.606-0.019,2.402-0.042l2.661-0.072l-0.026-2.274l-0.76-0.002
		c-1.412-0.012-5.553,0.116-7.654,0.185c-0.02-0.033-0.035-0.06-0.035-0.06s-0.041,0.028-0.09,0.064
		c-0.275,0.009-0.498,0.017-0.681,0.022c-1.206-7.893-2.398-15.797-3.658-23.655l-0.383-2.344c2.808-2.519,4.426-5.996,4.426-9.711
		c0-7.03-5.805-12.816-13.185-13.438l0.029-6.84l1.65-1.235l-2.113,1.131h-0.142c-0.466-0.064-1.487-0.132-1.82-0.192
		c0.008-0.02-0.257-0.217-0.431-0.353l-0.55-0.421l-0.298-0.224c0.236,0.026,0.543,0.068,0.664,0.068
		c0.49-0.064,0.997-0.232,1.521-0.189c0.21,0.018,0.705-0.006,1.148,0.01c0.444,0.008,0.831,0.077,0.831,0.081
		c0.009-0.007-0.393-0.298-0.503-0.313c-0.367-0.075-0.725-0.273-1.103-0.346c-0.341-0.063-0.665-0.099-0.985-0.077
		c0.046-0.326,0.108-0.79,0.107-0.937c-0.015-0.834,0.118-1.684,0.137-2.523c0.038-1.564,0.014-2.852-0.272-4.392
		C74.385,5.855,74.3,4.138,74.3,4.099c0.388,0.027,0.777-0.019,1.164,0.017c0.198,0.022,0.67-0.024,1.073-0.152
		c0.411-0.114,0.705-0.35,0.701-0.348c-0.008,0.012-0.432,0.018-0.515,0.017c-0.306,0.075-0.64-0.055-0.946-0.099
		c-0.582-0.087-1.047-0.166-1.688-0.008c-0.178,0.052-0.878-0.003-0.879-0.008c-0.007,0.002,0.568,0.509,0.784,0.545
		c0.101,0.021,0.203,0.029,0.304,0.036c-0.01,0.035-0.381,1.702-0.37,2.219c0.003,1.219,0.193,2.395,0.207,3.606
		c0.019,0.802,0.226,3.314,0.294,4.218c-0.308,0.03-0.613,0.112-0.928,0.286c-0.137,0.053-0.514,0.235-0.726,0.355l-0.062-0.047
		c-0.112-0.081-0.099-0.079-0.101-0.087l-0.008-0.021c0.012-0.037,0.018,0.033,0.021-0.236c0.023-2.191-0.034-4.348-0.086-6.505
		l-0.063-3.238l-0.004-0.402c-0.003-0.064-0.001-0.072,0.044-0.173c0.092-0.2,0.218-0.396,0.367-0.57
		c0.296-0.351,0.687-0.62,1.13-0.785c0.67-0.226,2.243-0.624,3.252,0.468c0.252,0.263,0.464,0.601,0.623,0.976
		c0.071,0.167,0.164,0.434,0.165,0.513l0.012,0.684l0.056,2.79l0.166,6.891c0,0,0.376-3.75,0.386-4.595
		c0.015-1.505,0.108-3.018,0.211-4.535l0.079-1.138c0.006-0.065,0.021-0.275-0.021-0.412c-0.023-0.113-0.047-0.215-0.076-0.32
		c-0.057-0.208-0.129-0.41-0.215-0.61c-0.332-0.79-0.981-1.562-1.881-1.915c-0.41-0.165-0.842-0.24-1.255-0.254
		c-0.391-0.012-0.779,0.011-1.17,0.081c-0.777,0.138-1.555,0.484-2.151,1.046c-0.298,0.278-0.552,0.599-0.752,0.957
		c-0.053,0.097-0.09,0.167-0.147,0.297c-0.06,0.147-0.127,0.293-0.116,0.453l-0.01,0.554l-0.005,1.933
		c0.014,2.572,0.12,5.138,0.371,7.931l0.037,0.67l2.075,1.19l0.02,6.685c-7.234,0.753-12.879,6.477-12.879,13.41
		c0,3.658,1.6,7.089,4.343,9.603l-0.119,0.714l-1.996,12.413l-2.054,12.94c-0.975-0.083-3.688-0.308-4.635-0.308
		c-1.001,0-1.991,0.022-2.977,0.048l-3.224,0.075l0.017,2.266l0.653,0.002c0.432,0.003,1.088-0.003,1.859-0.016
		c0.027,0.082,0.046,0.139,0.046,0.139s0.06-0.073,0.109-0.142c2.68-0.046,6.648-0.161,7.856-0.197l-2.049,12.911
		c-1.452,9.085-2.832,17.48-3.888,23.598c-1.022,5.939-1.731,9.723-1.771,9.938c-1.296,0.382-2.132,1.238-2.123,1.225
		c-0.011,0.013,0.96-0.811,2.312-1.032c0.607-0.111,1.259-0.092,1.829,0.014c-0.042,0.132-0.03,0.298-0.114,0.408
		c-0.095,0.107-0.083,0.652-0.076,0.646c0.001-0.002,0.211-0.058,0.222-0.082c0.041-0.096,0.224-0.118,0.315-0.182
		c0.158-0.122,0.267-0.251,0.134-0.572c-0.011-0.027-0.017-0.071-0.021-0.117c0.459,0.138,0.823,0.332,1.055,0.478
		c1.346,0.837,1.975,2.512,2.009,4.132c0.005,0.529-0.1,1.063-0.28,1.578c-0.101-0.02-0.235,0.049-0.31-0.003
		c-0.076-0.053-0.428,0.084-0.426,0.086c0,0,0.024,0.187,0.042,0.193c0.063,0.02,0.073,0.187,0.112,0.248
		c0.081,0.115,0.131,0.159,0.365-0.035c0.005-0.005,0.016-0.009,0.023-0.014c-0.384,0.832-0.976,1.587-1.705,2.137
		c-0.384,0.293-1.017,0.649-1.835,0.723c0.086-0.039,0.297-0.138,0.297-0.174c0-0.107-0.16-0.211-0.139-0.318
		c0.018-0.087-0.226-0.402-0.226-0.402s-0.167,0.092-0.168,0.109c0,0.077-0.153,0.15-0.196,0.223
		c-0.081,0.141-0.097,0.254,0.184,0.391c0.069,0.034,0.169,0.148,0.195,0.179c-0.298,0.022-0.619,0.008-0.963-0.063
		c-0.498-0.07-1.009-0.238-1.494-0.484c0.085-0.008,0.354-0.048,0.377-0.106c0.053-0.14-0.06-0.321-0.004-0.446
		c0.047-0.106-0.098-0.545-0.098-0.545s-0.189,0.07-0.196,0.096c-0.021,0.09-0.193,0.143-0.256,0.216
		c-0.119,0.144-0.168,0.243,0.042,0.491c0.048,0.054,0.083,0.215,0.094,0.271c-0.75-0.389-1.434-0.965-1.899-1.681
		c-0.813-1.175-0.941-2.603-0.765-3.565c0.169-0.98,0.543-1.527,0.523-1.531c0.009,0-0.427,0.621-0.63,1.436
		c-0.228,0.814-0.16,1.766-0.077,2.098c0.252,1.198,0.915,2.321,1.883,3.123c0.777,0.651,1.749,1.069,2.771,1.207l1.204,2.221
		c0.467,0.841,1.017,1.854,1.705,2.979c0.161,0.285,0.392,0.568,0.676,0.806c-0.072,0.464-0.24,1.467-0.246,1.83
		c0.004,0.567,0.041,1.123,0.075,1.682l0.044,0.842l0.012,0.551c0.058,0.079,0.181,0.127,0.267,0.191l0.19,0.125l0.167,0.109
		c0.051,0.041,0.076,0.027,0.089,0.07l0.164,0.521l0.43,1.354l0.543,1.703c0.001,0-0.067-0.985-0.122-1.193
		c-0.188-0.757-0.233-1.562-0.397-2.334l-0.081-0.35c-0.002-0.098-0.072-0.143-0.145-0.186l-0.164-0.115
		c-0.117-0.084-0.358-0.248-0.303-0.219l-0.001-0.729c-0.016-0.667-0.078-1.334-0.223-2.06l-0.228-1.739
		c0.285,0.224,0.617,0.402,0.991,0.487c0.388,0.094,0.797,0.109,1.199,0.062c0.204-0.024,0.393-0.06,0.608-0.116
		c0.089-0.025,0.179-0.056,0.269-0.085c-0.082,0.411-0.276,1.43-0.272,1.793c0.007,0.538,0.053,1.067,0.095,1.597l0.027,0.405
		c-0.281,0.008-0.555,0.17-0.84,0.152c-0.232-0.017-1.077,0.229-1.077,0.229s0.246,0.167,0.301,0.171
		c0.198,0,0.399,0.149,0.599,0.191c0.065,0.014,0.126,0.021,0.188,0.029c-0.061,0.045-0.122,0.097-0.184,0.084
		c-0.083-0.016-0.384,0.228-0.384,0.228s0.088,0.167,0.109,0.167c0.07,0,0.141,0.153,0.212,0.196
		c0.131,0.081,0.241,0.095,0.371-0.185c0.002-0.006,0.012-0.014,0.016-0.02l-0.106,0.503c-0.081,0.416-0.159,0.892-0.227,1.337
		l-0.229,1.688c-0.002,0,0.347-0.871,0.392-1.073c0.154-0.724,0.465-1.425,0.688-2.125c0.052-0.161,0.113-0.367,0.113-0.319
		l0.015-0.003l0.104-0.062l0.209-0.127l0.354-0.228c0.097-0.022,0.043-0.132,0.058-0.198v-0.232l-0.01-0.496
		c-0.026-0.635-0.099-1.264-0.249-1.949c-0.067-0.308-0.177-1.367-0.218-1.771c0.143-0.05,0.282-0.106,0.404-0.181l0.148-1.171
		l0.14-1.009l0.304-2.082l0.666-4.354l1.41-8.903l2.235-14.188l3.382-23.089l-1.04-3.673l0.5-4.307
		c0.222,0.07,0.444,0.131,0.559,0.132c0.645,0.005,1.272-0.15,1.916-0.125c0.365,0.015,1.393-0.092,1.985-0.158
		c-0.091,1.71-0.195,3.423-0.241,5.127l-0.056,2.575l0.827,1.181l2.988,0.027l0.908-1.023l-0.02-2.964l-0.077-2.67
		c-0.029-0.698-0.071-1.409-0.115-2.121c0.234,0.074,0.478,0.142,0.599,0.142c0.639,0,1.258-0.161,1.895-0.14
		c0.309,0.011,1.099-0.071,1.688-0.14l0.577,4.465l-0.981,3.68l3.903,23.717c0.837,5.149,3.302,20.324,4.642,30.846
		c0.254,0.129,0.536,0.21,0.824,0.266c-0.028,0.214-0.347,2.703-0.351,3.485c-0.003,0.68,0.015,1.356,0.038,2.03l0.035,1.162
		l0.029,1.65l1.469-1.928c0.241-0.305,0.625-0.819,1.066-1.422l0.185-0.252c0.13-0.09,0.058-0.307,0.073-0.385l-0.021-0.604
		l-0.047-1.221c-0.07-1.603-0.084-3.01-0.073-3.01c-0.003-0.001-0.017,0.089-0.035,0.22c0.003-0.073,0.006-0.156,0.01-0.222
		l-0.085,0.018c0.245-0.204,0.451-0.447,0.604-0.709c0.692-1.102,1.256-2.113,1.733-2.949l1.213-2.174
		c0.183-0.017,0.367-0.041,0.55-0.076c1.391-0.243,2.834-1.18,3.601-2.473C101.287,126.914,101.348,125.424,101.123,124.447z
		 M59.714,141.898c-0.019-0.04-0.039-0.077-0.058-0.109c0.069,0.001,0.14-0.003,0.208-0.016l-0.139,0.09
		C59.721,141.872,59.718,141.888,59.714,141.898z M97.388,72.581l0.497,0.01c0.116,0.002,0.072,0.003,0.091,0.005l0.014,0.002
		c-0.004,0.154-0.006,0.811-0.005,0.98l-1.991,0.061c-0.636,0.03-1.29,0.075-1.958,0.131c0.042-0.039,0.084-0.081,0.084-0.097
		c0-0.11,0.153-0.223,0.196-0.333c0.081-0.207,0.097-0.379-0.184-0.584c-0.079-0.057-0.206-0.289-0.206-0.289
		s-0.339,0.226-0.339,0.294c0,0.162,0.16,0.318,0.139,0.478c-0.014,0.103,0.131,0.412,0.194,0.54
		c-0.136,0.012-0.267,0.02-0.405,0.033c-0.269,0.025-0.803,0.055-1.405,0.084c0.002-0.005,0.01-0.015,0.01-0.019
		c0-0.141,0.153-0.283,0.196-0.425c0.081-0.263,0.097-0.481-0.184-0.742c-0.068-0.062-0.166-0.278-0.194-0.341
		c1.215,0.021,2.438,0.103,3.659,0.156c0.024,0.132,0.149,0.261,0.13,0.394c-0.018,0.118,0.226,0.549,0.226,0.549
		s0.168-0.125,0.168-0.154c0-0.101,0.153-0.202,0.196-0.304c0.071-0.163,0.08-0.304-0.103-0.46c0.052,0.002,0.105,0.005,0.157,0.006
		L97.388,72.581z M89.938,72.271c-0.055,0.047-0.102,0.091-0.102,0.116c0,0.162,0.16,0.318,0.139,0.478
		c-0.018,0.13,0.226,0.604,0.226,0.604s0.168-0.138,0.168-0.17c0-0.11,0.153-0.223,0.196-0.333c0.081-0.207,0.097-0.379-0.184-0.584
		c-0.023-0.016-0.049-0.048-0.076-0.084c0.479,0.034,0.947,0.063,1.138,0.063c0.15,0,0.301,0.007,0.452,0.009
		c-0.071,0.061-0.309,0.273-0.309,0.349c0,0.204,0.16,0.402,0.139,0.607c-0.012,0.107,0.085,0.391,0.156,0.583
		c-0.807,0.038-1.682,0.073-2.196,0.093c-0.09-0.591-0.184-1.18-0.274-1.771C89.566,72.244,89.744,72.257,89.938,72.271z
		 M86.788,36.469c0,2.166-0.732,4.231-2.038,5.958l-1.016-6.223l-1.777,0.192l-1.4,0.161c-0.439-0.082-0.412,0.416-0.555,0.696
		l-0.207,0.688l-0.291,1.057l-1.069,4.183l-0.589,2.409c-0.439-0.263-0.922-0.458-1.438-0.583c0.035-6.17,0.145-12.391,0.181-18.568
		l0.002-0.399C82.32,26.634,86.788,31.082,86.788,36.469z M74.731,58.046c0.249,0.027,0.494-0.116,0.73-0.088
		c0.142,0.02,0.539-0.099,0.751-0.168c0.007,0.926,0.012,1.498,0.013,1.628l-2.09-0.048l0.086-4.196
		c0.097,0.11,0.222,0.238,0.289,0.244c0.261,0.029,0.521-0.113,0.772-0.085c0.182,0.025,0.764-0.156,0.91-0.204
		c0.007,0.984,0.014,1.829,0.019,2.506c-0.045-0.032-0.088-0.061-0.106-0.061c-0.161,0-0.322-0.155-0.479-0.202
		c-0.295-0.089-0.521-0.117-0.84,0.13c-0.087,0.074-0.443,0.142-0.445,0.141C74.335,57.644,74.619,58.036,74.731,58.046z
		 M76.192,55.092C76.129,55.045,76,54.95,75.965,54.95c-0.171,0-0.342-0.154-0.509-0.201c-0.314-0.089-0.555-0.119-0.893,0.127
		c-0.058,0.045-0.219,0.088-0.338,0.115l0.013-0.611c0.301,0.053,0.609,0.089,0.926,0.089c0.351,0,0.693-0.035,1.023-0.099
		C76.188,54.621,76.19,54.855,76.192,55.092z M76.095,41.238c-0.02-0.015-0.177-0.171-0.214-0.175
		c-0.15-0.012-0.286-0.18-0.43-0.241c-0.269-0.114-0.489-0.159-0.808,0.072c-0.041,0.031-0.135,0.06-0.224,0.082l-0.008-1.415
		c0.046,0.058,0.09,0.107,0.12,0.112c0.209,0.036,0.434-0.09,0.638-0.039c0.166,0.047,0.81-0.127,0.807-0.141
		c-0.005,0.002-0.167-0.176-0.202-0.18c-0.14-0.014-0.262-0.183-0.394-0.245c-0.248-0.116-0.456-0.165-0.761,0.067
		c-0.039,0.03-0.126,0.061-0.21,0.085l-0.01-1.86c0.079,0.117,0.214,0.308,0.281,0.32c0.221,0.042,0.464-0.076,0.678-0.014
		c0.123,0.033,0.502-0.007,0.714-0.032C76.079,38.837,76.087,40.043,76.095,41.238z M76.071,37.434
		c-0.017-0.017-0.033-0.031-0.043-0.033c-0.151-0.033-0.274-0.214-0.42-0.286c-0.27-0.136-0.502-0.195-0.833,0.028
		c-0.068,0.047-0.274,0.094-0.376,0.114l-0.008-1.589c0.106,0.091,0.233,0.19,0.291,0.191c0.247,0.002,0.489-0.155,0.734-0.126
		c0.116,0.008,0.417-0.05,0.645-0.09C76.063,36.238,76.067,36.835,76.071,37.434z M76.021,28.463
		c-0.009-0.004-0.021-0.012-0.025-0.012c-0.151,0-0.303-0.153-0.455-0.196c-0.282-0.081-0.516-0.097-0.795,0.184
		c-0.077,0.078-0.384,0.202-0.393,0.205l-0.008-1.507c0.103,0.096,0.242,0.214,0.302,0.21c0.226-0.012,0.43-0.188,0.651-0.185
		c0.141,0.003,0.54-0.175,0.716-0.255C76.017,27.413,76.019,27.933,76.021,28.463z M74.364,30.545
		c0.087,0.091,0.19,0.189,0.235,0.19c0.199,0.002,0.398-0.153,0.595-0.118c0.152,0.018,0.771-0.131,0.777-0.124
		c0.001,0-0.143-0.196-0.184-0.204c-0.141-0.021-0.269-0.192-0.415-0.249c-0.27-0.106-0.507-0.128-0.774,0.15
		c-0.041,0.042-0.146,0.098-0.235,0.141l-0.009-1.683c0.008,0.009,0.307,0.336,0.398,0.336c0.219,0,0.432-0.16,0.651-0.139
		c0.113,0.011,0.415-0.083,0.62-0.154c0.005,1.074,0.011,2.191,0.017,3.34c-0.157-0.049-0.302-0.193-0.459-0.255
		c-0.326-0.129-0.619-0.186-0.989,0.063c-0.042,0.026-0.13,0.06-0.22,0.091L74.364,30.545z M74.373,32.265
		c0.072,0.06,0.141,0.113,0.178,0.117c0.251,0.022,0.522-0.104,0.78-0.046c0.123,0.027,0.457-0.004,0.71-0.039
		c0.005,1.005,0.011,2.03,0.017,3.068c-0.155-0.047-0.305-0.169-0.461-0.215c-0.326-0.096-0.6-0.114-0.921,0.164
		c-0.049,0.043-0.178,0.1-0.286,0.143l-0.008-1.464c0.028,0.022,0.056,0.046,0.075,0.048c0.232,0.024,0.461-0.121,0.682-0.09
		c0.183,0.03,0.839-0.204,0.837-0.207c-0.001,0.001-0.188-0.168-0.23-0.168c-0.15-0.002-0.298-0.158-0.445-0.207
		c-0.276-0.092-0.492-0.122-0.792,0.13c-0.025,0.022-0.074,0.044-0.129,0.064L74.373,32.265z M76.014,26.803
		c-0.06-0.042-0.132-0.087-0.155-0.084c-0.151,0.013-0.317-0.125-0.471-0.156c-0.287-0.057-0.513-0.056-0.774,0.24
		c-0.043,0.051-0.171,0.117-0.269,0.164l-0.005-0.954c0.313-0.023,0.628-0.044,0.948-0.044c0.244,0,0.482,0.02,0.723,0.033
		C76.012,26.267,76.013,26.53,76.014,26.803z M74.414,44.22c0.083,0.1,0.229,0.264,0.286,0.264c0.19,0,0.374-0.16,0.564-0.139
		c0.154,0.017,0.713-0.227,0.713-0.227s-0.164-0.167-0.199-0.167c-0.131,0-0.264-0.153-0.395-0.196
		c-0.244-0.081-0.447-0.097-0.689,0.184c-0.047,0.056-0.193,0.133-0.278,0.175c0.004-0.417,0.007-0.806,0.009-1.152
		c0.041,0.049,0.079,0.088,0.106,0.092c0.213,0.036,0.437-0.093,0.641-0.044c0.168,0.042,0.804-0.133,0.805-0.142
		c-0.006,0.002-0.164-0.18-0.202-0.184c-0.14-0.013-0.265-0.182-0.398-0.242c-0.251-0.114-0.456-0.159-0.758,0.074
		c-0.036,0.029-0.115,0.055-0.193,0.078c0-0.088,0.001-0.189,0.001-0.271l-0.005-1.01c0.052,0.062,0.104,0.115,0.138,0.12
		c0.227,0.039,0.466-0.089,0.685-0.041c0.174,0.043,0.818-0.125,0.852-0.146c0.008,1.25,0.017,2.483,0.024,3.689
		c-0.31-0.057-0.628-0.092-0.956-0.092c-0.259,0-0.508,0.037-0.757,0.073C74.409,44.673,74.411,44.446,74.414,44.22z M74.291,16.724
		L76,16.719l0,1.57c-0.058-0.043-0.122-0.088-0.146-0.088c-0.162,0.001-0.329-0.15-0.496-0.188c-0.31-0.072-0.585-0.069-0.857,0.244
		c-0.035,0.039-0.12,0.096-0.201,0.147L74.291,16.724z M74.301,18.656c0.105,0.072,0.223,0.145,0.27,0.141
		c0.221-0.027,0.429-0.201,0.66-0.19c0.139,0.004,0.571-0.137,0.769-0.204l0,1.255c-0.051-0.041-0.107-0.082-0.128-0.082
		c-0.151,0-0.303-0.153-0.455-0.196c-0.282-0.081-0.516-0.097-0.795,0.184c-0.054,0.054-0.215,0.129-0.314,0.171L74.301,18.656z
		 M74.317,21.637c0.053,0.053,0.103,0.097,0.13,0.098c0.186,0.002,0.372-0.153,0.556-0.122c0.146,0.011,0.704-0.141,0.715-0.121
		c0.006,0.003-0.116-0.208-0.159-0.211c-0.135-0.025-0.256-0.193-0.394-0.248c-0.253-0.101-0.469-0.12-0.718,0.157
		c-0.025,0.027-0.077,0.06-0.132,0.092l-0.007-1.427c0.098,0.1,0.256,0.254,0.319,0.254c0.219,0,0.432-0.16,0.651-0.139
		c0.133,0.013,0.532-0.122,0.721-0.189v0.008c-0.002,0.859-0.001,1.955,0.002,3.214c-0.238-0.011-0.472-0.034-0.713-0.034
		c-0.325,0-0.644,0.026-0.964,0.045L74.317,21.637z M63.788,36.469c0-5.289,4.309-9.665,9.888-10.385l0.01,3.248
		c0.036,4.3,0.097,8.677,0.194,13.312l0.026,2.367c-0.626,0.153-1.205,0.413-1.713,0.766l-0.138-0.568
		c-0.626-2.53-1.21-5.015-1.933-7.594c-0.046-0.154-0.1-0.328-0.159-0.492l-0.089-0.251c-0.004-0.055-0.046-0.065-0.096-0.064
		l-0.135-0.017l-0.937-0.112l-1.981-0.22l-0.973,5.864C64.494,40.614,63.788,38.586,63.788,36.469z M50.792,73.595l-0.017-0.003
		c0.006-0.199,0.009-1.289,0.008-0.981l0.311-0.004c0.021,0.228,0.151,0.451,0.131,0.679c-0.006,0.065,0.017,0.187,0.048,0.319
		l-0.361-0.006C50.794,73.597,50.792,73.595,50.792,73.595z M51.744,73.614c0.029-0.057,0.057-0.115,0.071-0.172
		c0.076-0.298,0.085-0.552-0.144-0.842l0.195-0.002l0.613-0.017c-0.055,0.058-0.098,0.113-0.098,0.147
		c-0.023,0.254,0.129,0.492,0.102,0.728c-0.005,0.04,0.003,0.104,0.016,0.175L51.744,73.614z M58.17,73.827
		c-0.558,0-1.118-0.016-1.68-0.036c0-0.001,0.004-0.005,0.004-0.006c0-0.121,0.153-0.243,0.196-0.364
		c0.081-0.226,0.097-0.413-0.184-0.637c-0.079-0.061-0.206-0.315-0.206-0.315s-0.339,0.246-0.339,0.321
		c0,0.175,0.16,0.346,0.139,0.521c-0.011,0.087,0.075,0.307,0.144,0.471c-1.062-0.042-2.127-0.098-3.189-0.132
		c0.004-0.011,0.011-0.023,0.015-0.034c0.086-0.299,0.108-0.532-0.146-0.843c-0.033-0.035-0.062-0.118-0.084-0.202l0.503-0.014
		c0.207-0.008,0.419-0.021,0.627-0.03c0.024,0.133,0.149,0.261,0.13,0.394c-0.018,0.118,0.226,0.549,0.226,0.549
		s0.168-0.125,0.168-0.154c0-0.101,0.153-0.202,0.196-0.304c0.079-0.181,0.09-0.333-0.164-0.511
		c0.615-0.033,1.237-0.072,1.883-0.125c0.373-0.03,1.188-0.068,2.048-0.103c-0.101,0.059-0.246,0.149-0.246,0.188
		c0,0.131,0.16,0.259,0.139,0.39c-0.018,0.107,0.226,0.494,0.226,0.494s0.168-0.113,0.168-0.138c0-0.09,0.153-0.182,0.196-0.273
		c0.081-0.169,0.097-0.31-0.184-0.477c-0.054-0.032-0.129-0.129-0.172-0.189c0.921-0.037,1.87-0.069,2.372-0.086l-0.284,1.789
		C59.999,73.923,58.566,73.827,58.17,73.827z M60.64,136.805c-0.679,0.354-1.484,0.459-2.194,0.315
		c-0.724-0.144-1.302-0.644-1.641-1.203c-0.713-1.097-1.293-2.099-1.783-2.926l-1.266-2.188c0.237,0.031,0.475,0.062,0.716,0.061
		c1.272-0.034,2.306-0.749,3.052-1.546c0.752-0.816,1.29-1.786,1.54-2.854c0.243-1.099,0.085-2.182-0.261-3.217
		c-0.363-1.024-1.077-2.007-2.117-2.529c-0.283-0.147-0.808-0.376-1.462-0.459c-0.65-0.09-1.411-0.046-2.095,0.14
		c-0.06,0.015-0.113,0.036-0.17,0.054c0.048-0.221,1.052-4.999,2.083-10.33c0.83-4.267,1.687-8.868,2.202-11.733
		c0.304,0.566,0.756,1.343,1.008,1.616c0.92,1.077,1.956,1.979,2.894,3.027c0.597,0.677,2.608,2.581,3.427,3.352
		C63.857,112.015,61.771,126.569,60.64,136.805z M66.229,93.8l-1.589,12.048c-0.016,0.127-0.033,0.265-0.05,0.402
		c-0.209-0.285-0.456-0.612-0.555-0.717c-0.665-0.7-1.226-1.518-1.855-2.256c-1.17-1.377-2.168-2.484-3.54-3.658
		c-0.266-0.207-0.942-0.947-1.36-1.434c0.127-0.711,0.232-1.311,0.308-1.752l8.274-47.687l0.312-1.802
		c0.342,0.258,0.683,0.518,1.053,0.748l1.587-2.546c-0.76-0.474-1.442-1.026-2.046-1.635l0.985-5.694l1.156,0.136
		c-0.032-0.229,0.238,0.802,0.404,1.428l1.037,4.164l0.771,3.243c-0.632,0.803-1.02,1.789-1.02,2.867
		c0,1.503,0.744,2.83,1.882,3.713l-0.915,6.438l-0.593,4.126l-0.034,0.232c-0.001,0.006,0.001,0.014-0.004,0.018l-0.231,0.292
		l-0.648,0.815l-1.429,1.798L66.78,78.646l1.044,3.65L66.229,93.8z M69.205,73.823c-0.091,0.031-0.295,0.068-0.506,0.102
		l0.182-1.568c0.007,0.001,0.022,0.005,0.027,0.005c0.048,0,0.097,0.008,0.146,0.011c-0.014,0.014-0.036,0.028-0.037,0.04
		c-0.027,0.175,0.119,0.341,0.093,0.49c-0.027,0.128,0.216,0.568,0.216,0.566c0,0,0.168-0.126,0.167-0.153
		c0.001-0.101,0.156-0.2,0.202-0.296c0.089-0.182,0.11-0.307-0.14-0.519c-0.019-0.013-0.036-0.037-0.051-0.065
		c0.23,0.046,0.461,0.1,0.69,0.123c0.146,0.015,0.283,0.023,0.421,0.032c-0.011,0.021-0.029,0.047-0.029,0.062
		c0.002,0.238,0.166,0.468,0.159,0.708c-0.005,0.055,0.017,0.146,0.051,0.247C70.271,73.591,69.769,73.635,69.205,73.823z
		 M72.882,73.862c-0.442-0.003-0.891-0.159-1.336-0.205c-0.091-0.01-0.176-0.014-0.264-0.022c0.025-0.057,0.048-0.114,0.06-0.168
		c0.06-0.293,0.073-0.531-0.211-0.826c-0.008-0.008-0.018-0.027-0.026-0.04c0.437-0.005,0.865-0.061,1.338-0.229
		c0.129-0.046,0.49-0.109,0.767-0.153c-0.022,0.564-0.05,1.128-0.08,1.693C73.024,73.885,72.925,73.862,72.882,73.862z
		 M76.06,81.709l-1.765,0.01l-0.047-0.068l-0.185-0.26l-0.001-0.108c0.158,0.168,0.374,0.397,0.431,0.393
		c0.238-0.034,0.477-0.373,0.757-0.342c0.174,0.012,0.769-0.295,0.981-0.4l0.017,0.548L76.06,81.709z M74.677,64.883l0.713,0.07
		l0.416,0.041l0.284,0.045l0.101,0.311c0.062,0.16,0.149,0.374,0.156,0.425l-0.017,0.091l-0.017,0.179l-0.033,0.374l-0.013,0.148
		c-0.05-0.079-0.19-0.303-0.225-0.304c-0.165-0.005-0.315-0.317-0.47-0.414c-0.29-0.179-0.54-0.235-0.9,0.3
		c-0.102,0.149-0.469,0.381-0.466,0.383c0.007-0.001,0.291,0.695,0.388,0.704c0.238,0.019,0.503-0.279,0.747-0.22
		c0.181,0.05,0.79-0.307,0.922-0.393l-0.047,0.552l-0.115,1.474c-0.068,0.942-0.113,1.771-0.113,2.291
		c0,0.401,0.009,0.798,0.014,1.197c-0.064-0.092-0.144-0.196-0.174-0.194c-0.167,0.01-0.365-0.279-0.544-0.346
		c-0.332-0.126-0.538-0.133-0.788,0.44c-0.065,0.166-0.412,0.41-0.417,0.41c-0.016,0,0.339,0.689,0.468,0.679
		c0.274-0.011,0.482-0.357,0.718-0.34c0.154,0.003,0.569-0.327,0.74-0.456c0.006,0.499,0.009,1,0.02,1.497
		c-0.087-0.179-0.3-0.597-0.376-0.597c-0.225-0.001-0.447,0.318-0.671,0.271c-0.177-0.035-0.86,0.421-0.865,0.419
		c-0.001,0,0.177,0.345,0.223,0.346c0.158,0.009,0.31,0.321,0.47,0.41c0.064,0.037,0.125,0.062,0.186,0.082
		c-0.12,0.036-0.245,0.159-0.392,0.431c-0.083,0.153-0.396,0.382-0.396,0.382c-0.001,0,0.243,0.697,0.331,0.703
		c0.208,0.016,0.429-0.293,0.635-0.239c0.171,0.048,0.8-0.431,0.794-0.431c-0.001,0-0.173-0.339-0.211-0.337
		c-0.138-0.002-0.268-0.311-0.401-0.405c-0.057-0.039-0.111-0.069-0.165-0.089c0.152-0.024,0.302-0.143,0.465-0.452
		c0.068-0.129,0.295-0.317,0.376-0.381c0.019,0.797,0.04,1.592,0.065,2.386l0.134,4.445c-0.072-0.101-0.167-0.224-0.203-0.223
		c-0.202-0.005-0.406-0.314-0.621-0.396c-0.391-0.154-0.766-0.164-1.079,0.449c-0.049,0.087-0.167,0.219-0.267,0.328l-0.05-3.097
		l-0.123-4.711l-0.246-7.709l0.44-0.663l-0.534,0.632c-0.098,1.235-0.269,3.459-0.269,4.105c0,0.85-0.022,1.703-0.056,2.557
		c-0.274-0.097-0.638-0.214-0.794-0.214c-0.62,0-1.221,0.161-1.84,0.14c-0.306-0.01-1.099,0.076-1.675,0.146l0.52-4.478l1.087-1.379
		l0.597-0.756l0.298-0.378l0.206-0.259c0.111-0.096,0.121-0.235,0.136-0.372l0.543-3.874l0.905-6.526
		c0.258,0.104,0.532,0.177,0.81,0.239l0.057,5.108l2.158-0.02c0,0.019,0,0.05,0,0.05l0-0.05h0.023l-0.023,0l0.025-1.641
		c0.06-0.02,0.101-0.034,0.1-0.034c0,0-0.046-0.038-0.099-0.078l0.05-3.331c0.181-0.04,0.354-0.098,0.526-0.156l0.835,5.852
		l0.611,4.126l0.042,0.282l0.038,0.248c0,0.088,0.029,0.163,0.095,0.223l0.419,0.523l0.653,0.812l1.173,1.454l0.544,4.214
		c-0.146-0.041-0.278-0.07-0.356-0.069c-0.613,0.008-1.205,0.175-1.818,0.162c-0.216-0.005-0.679,0.043-1.133,0.099
		c-0.002-0.003-0.007-0.012-0.007-0.012s-0.017,0.01-0.024,0.016c-0.261,0.032-0.508,0.064-0.71,0.092
		c-0.038-0.467-0.068-0.923-0.113-1.402c-0.083-0.876-0.192-3.143-0.277-5.129l-0.518-0.941l-2.245,0.09L74.677,64.883z
		 M80.231,73.631c-0.82-0.081-1.502-0.097-2.315,0.184c-0.104,0.036-0.354,0.082-0.595,0.121c-0.033-0.509-0.076-1.034-0.117-1.555
		c0.089,0.022,0.17,0.039,0.208,0.039c0.063-0.001,0.126,0.007,0.19,0.013c0.036,0.122,0.141,0.24,0.123,0.362
		c-0.018,0.118,0.226,0.549,0.226,0.549s0.168-0.125,0.168-0.154c0-0.101,0.153-0.202,0.196-0.304
		c0.052-0.12,0.068-0.228,0.004-0.339c0.123,0.022,0.245,0.043,0.367,0.054c0.4,0.036,0.766,0.054,1.13,0.027
		c0.056,0.093,0.158,0.188,0.147,0.302c-0.008,0.108,0.238,0.537,0.237,0.539c0,0,0.167-0.127,0.168-0.155
		c-0.001-0.101,0.149-0.21,0.189-0.319c0.06-0.167,0.058-0.33-0.124-0.467c0.155-0.037,0.311-0.078,0.474-0.139
		c0.072-0.027,0.218-0.061,0.38-0.093l0.197,1.524C81.069,73.807,80.648,73.671,80.231,73.631z M84.253,93.57L82.493,82.3
		l0.985-3.655l-1.484-11.497l-1.319-1.63l-0.606-0.748l-0.303-0.374l-0.096-0.117c-0.02-0.016-0.022-0.041-0.025-0.065l-0.571-3.757
		l-1.017-6.863c1.307-0.871,2.168-2.309,2.168-3.938c0-1.221-0.496-2.325-1.287-3.175l0.247-1.039c0.61-2.5,1.22-5.069,1.91-7.504
		c0.044-0.077,0.018-0.211,0.119-0.212l0.457-0.05l1.038-0.114l1.024,6.027c-0.629,0.621-1.342,1.18-2.136,1.657l1.546,2.571
		c0.41-0.246,0.798-0.514,1.174-0.792l6.794,39.977c0.657,3.812,1.299,7.486,1.909,10.937c-0.42,0.415-1.301,1.237-1.601,1.562
		c-0.905,1.059-1.701,2.174-2.667,3.189c-0.505,0.539-1.81,2.062-2.662,3.064c-0.033-0.227-0.068-0.469-0.099-0.677L84.253,93.57z
		 M90.533,138.073c-0.025-0.522-0.042-0.936-0.046-1.02c0.017,0.004,0.034,0.008,0.051,0.011L90.533,138.073z M95.045,132.865
		c-0.498,0.82-1.092,1.818-1.809,2.894c-0.261,0.413-0.625,0.752-1.078,0.94l-0.885,0.177c-0.167,0.002-0.338-0.011-0.509-0.038
		c-0.168-0.025-0.351-0.068-0.506-0.115c-0.109-0.041-0.241-0.07-0.32-0.144l-0.071-0.81l-0.103-1.021l-0.227-2.101l-0.509-4.379
		l-1.113-8.953c-0.679-5.302-1.33-10.147-1.787-13.308c0.14-0.117,0.259-0.222,0.312-0.278c0.665-0.701,1.449-1.305,2.144-1.986
		c1.289-1.273,2.326-2.371,3.279-3.924c0.205-0.3,0.844-1.246,1.178-1.77c0.834,4.714,1.607,8.993,2.262,12.504
		c0.956,5.146,1.657,8.664,1.854,9.647c-0.685-0.201-1.453-0.27-2.14-0.185c-0.713,0.08-1.314,0.344-1.656,0.562
		c-0.816,0.506-1.41,1.297-1.754,2.145c-0.351,0.853-0.478,1.756-0.465,2.646c0.017,0.926,0.329,1.797,0.76,2.571
		c0.443,0.772,1.018,1.476,1.747,2.023c0.294,0.221,0.718,0.489,1.282,0.66c0.411,0.134,0.887,0.162,1.375,0.12L95.045,132.865z"/>
	<path class="st7" d="M97.494,126.761c0.655-0.565,0.788-1.52,0.416-2.214c-0.342-0.711-1.289-1.107-2.005-0.74
		c-0.201,0.074-0.66,0.381-0.832,0.803c-0.196,0.408-0.137,0.805-0.143,0.8c0.002,0.005,0.077-0.388,0.347-0.665
		c0.26-0.301,0.643-0.393,0.794-0.415c0.37-0.097,0.791,0.002,1.083,0.313c0.29,0.301,0.413,0.808,0.239,1.229
		c-0.063,0.167-0.208,0.445-0.502,0.648c-0.285,0.205-0.735,0.276-1.112,0.123c-0.382-0.147-0.651-0.482-0.758-0.758
		c-0.118-0.277-0.11-0.482-0.117-0.479c0.005-0.002-0.053,0.229-0.005,0.496c0.036,0.268,0.183,0.551,0.266,0.63
		c0.267,0.299,0.638,0.534,1.073,0.596C96.667,127.195,97.15,127.066,97.494,126.761z"/>
	<path class="st7" d="M93.234,124.719c0.001-0.005-0.151,0.579-0.118,0.715c0.059,0.459,0.031,0.971,0.219,1.448
		c0.337,0.866,1.035,1.534,1.98,1.597c0.131,0.008,0.44,0.06,0.716,0.053c0.275,0.008,0.512-0.038,0.512-0.03
		c0.001-0.008-0.233-0.079-0.467-0.208c-0.239-0.116-0.467-0.285-0.582-0.328c-0.532-0.205-1.106-0.466-1.437-1.004
		c-0.131-0.209-0.446-0.706-0.602-1.23C93.288,125.212,93.24,124.717,93.234,124.719z"/>
	<path class="st7" d="M95.073,120.714c-0.095-0.004-0.324-0.132-0.324-0.132c-0.001-0.002-0.172,0.363-0.135,0.426
		c0.083,0.133,0.301,0.172,0.36,0.317c0.053,0.101,0.461,0.394,0.462,0.403c0.001,0.002,0.097-0.187,0.083-0.217
		c-0.045-0.102,0.038-0.277,0.015-0.396C95.498,120.883,95.415,120.734,95.073,120.714z"/>
	<path class="st7" d="M94.085,121.248c0.001,0.001-0.169,0.348-0.139,0.385c0.07,0.1,0.268,0.107,0.316,0.221
		c0.038,0.086,0.424,0.289,0.425,0.293c0.001,0.002,0.098-0.172,0.085-0.198c-0.04-0.079,0.048-0.234,0.034-0.339
		c-0.02-0.193-0.095-0.325-0.419-0.299C94.295,121.318,94.085,121.248,94.085,121.248z"/>
	<path class="st7" d="M100.014,124.006c0.07-0.013,0.16,0.123,0.223,0.167c0.128,0.067,0.181,0.091,0.341-0.177
		c0.038-0.071,0.226-0.159,0.23-0.157c0.012,0.003-0.076-0.366-0.151-0.383c-0.14-0.011-0.274,0.13-0.391,0.123
		c-0.114-0.022-0.406,0.285-0.396,0.282C99.872,123.861,99.998,124.009,100.014,124.006z"/>
	<path class="st7" d="M97.981,121.043c-0.069-0.037-0.152-0.173-0.151-0.176c0.004-0.012-0.347-0.049-0.365,0.002
		c-0.028,0.076,0.112,0.188,0.076,0.234c-0.022,0.037,0.152,0.258,0.146,0.272c-0.001,0.002,0.172,0.021,0.179,0.007
		c0.019-0.044,0.182-0.047,0.234-0.082C98.206,121.223,98.227,121.193,97.981,121.043z"/>
	<path class="st7" d="M88.289,98.786c0.702,0.075,1.46-0.153,2.007-0.642c1.043-0.904,1.242-2.434,0.652-3.539
		c-0.555-1.127-2.004-1.78-3.214-1.28c-0.337,0.094-1.141,0.563-1.475,1.276c-0.373,0.688-0.298,1.385-0.307,1.375
		c0.005,0.008,0.063-0.675,0.505-1.231c0.416-0.586,1.144-0.851,1.462-0.905c0.729-0.178,1.532,0.051,2.071,0.613
		c-0.23-0.027-0.475-0.039-0.579,0.003c-0.519,0.171-0.971,0.463-1.504,0.599c-0.214,0.053-0.7,0.25-1.111,0.484
		c-0.419,0.225-0.711,0.529-0.707,0.529c0.002-0.014,0.473-0.123,0.564-0.15c0.329-0.16,0.732-0.135,1.095-0.201
		c0.674-0.121,1.268-0.263,1.841-0.746c0.085-0.083,0.352-0.212,0.575-0.306c0.214,0.284,0.37,0.616,0.432,0.976
		c-0.085-0.013-0.195-0.025-0.316-0.022c-0.259-0.007-0.541,0.032-0.651,0.086c-0.529,0.267-0.874,0.575-1.455,0.735
		c-0.374,0.121-1.527,0.684-1.842,0.822c-0.096-0.149-0.176-0.298-0.227-0.438c-0.196-0.493-0.167-0.852-0.18-0.848
		c0.008-0.004-0.061,0.4,0.055,0.851c0.093,0.448,0.369,0.901,0.508,1.03C86.942,98.355,87.581,98.717,88.289,98.786z
		 M86.861,97.294c0.369-0.117,0.789-0.096,1.17-0.18c0.371-0.084,0.639-0.149,0.988-0.287c0.333-0.149,0.598-0.363,0.856-0.638
		c0.092-0.128,0.5-0.354,0.725-0.461c0.05,0.373,0.023,0.76-0.122,1.115c-0.118,0.314-0.406,0.842-0.973,1.197
		c-0.553,0.361-1.391,0.464-2.071,0.166c-0.475-0.195-0.833-0.547-1.073-0.906C86.517,97.309,86.787,97.316,86.861,97.294z"/>
	<path class="st7" d="M93.297,107.271c-0.097-0.336-0.57-1.14-1.282-1.473c-0.688-0.371-1.385-0.294-1.376-0.303
		c-0.009,0.005,0.677,0.062,1.234,0.502c0.588,0.415,0.858,1.143,0.911,1.46c0.184,0.729-0.044,1.539-0.61,2.077
		c0.027-0.231,0.039-0.479-0.004-0.584c-0.173-0.52-0.467-0.971-0.603-1.503c-0.055-0.214-0.253-0.7-0.489-1.11
		c-0.227-0.418-0.533-0.71-0.533-0.705c0.015,0.002,0.125,0.473,0.155,0.564c0.161,0.328,0.137,0.732,0.205,1.094
		c0.124,0.675,0.266,1.27,0.751,1.84c0.084,0.084,0.213,0.352,0.308,0.575c-0.284,0.214-0.615,0.369-0.975,0.432
		c0.013-0.085,0.026-0.195,0.023-0.315c0.005-0.258-0.036-0.54-0.088-0.65c-0.271-0.527-0.579-0.872-0.742-1.451
		c-0.122-0.373-0.686-1.52-0.827-1.838c0.149-0.098,0.299-0.179,0.439-0.23c0.493-0.198,0.849-0.172,0.845-0.185
		c0.003,0.009-0.402-0.059-0.85,0.056c-0.449,0.098-0.902,0.373-1.031,0.514c-0.496,0.455-0.853,1.096-0.92,1.804
		c-0.076,0.703,0.155,1.46,0.645,2.007c0.911,1.041,2.438,1.236,3.542,0.642C93.15,109.932,93.801,108.48,93.297,107.271z
		 M89.788,110.023c-0.315-0.114-0.841-0.402-1.2-0.969c-0.366-0.549-0.469-1.386-0.173-2.07c0.193-0.472,0.542-0.829,0.899-1.071
		c-0.007,0.156-0.013,0.423,0.012,0.496c0.117,0.368,0.099,0.789,0.184,1.17c0.085,0.371,0.152,0.636,0.291,0.987
		c0.147,0.332,0.362,0.597,0.638,0.854c0.13,0.092,0.358,0.498,0.465,0.723C90.531,110.193,90.145,110.168,89.788,110.023z"/>
	<path class="st7" d="M96.114,126.4c0.203-0.024,0.381-0.174,0.477-0.336c0.089-0.14,0.109-0.342,0.064-0.494
		c-0.025-0.092-0.098-0.303-0.242-0.389c-0.096-0.067-0.172-0.084-0.218-0.093c-0.022-0.025-0.057-0.062-0.113-0.104
		c-0.083-0.069-0.225-0.11-0.271-0.104c-0.348-0.004-0.64,0.432-0.526,0.854C95.314,126.02,95.686,126.49,96.114,126.4z
		 M95.782,125.211c0.094-0.13,0.288-0.113,0.383-0.1c0.022,0.038,0.071,0.125,0.059,0.223c-0.01,0.129-0.116,0.155-0.111,0.169
		c-0.004,0.019-0.014,0.07-0.007,0.082c-0.029,0.062-0.004,0.06-0.025,0.097c-0.025,0.064-0.128,0.073-0.167-0.008
		c-0.021-0.031-0.082-0.119-0.119-0.197C95.761,125.421,95.724,125.307,95.782,125.211z"/>
	<path class="st7" d="M87.487,74.456c1.024-0.826,1.241-2.312,0.643-3.357c-0.566-1.063-1.941-1.627-3.082-1.167
		c-0.317,0.092-1.087,0.517-1.42,1.181c-0.065,0.115-0.113,0.229-0.153,0.34c-0.014,0.033-0.023,0.068-0.036,0.102
		c-0.006,0.019-0.012,0.037-0.018,0.056c-0.088,0.25-0.146,0.516-0.146,0.796c0,0.053,0.012,0.102,0.016,0.153
		c-0.008,0.148-0.01,0.385,0.06,0.647c0.091,0.427,0.367,0.849,0.5,0.969c0.444,0.46,1.053,0.784,1.721,0.85
		C86.235,75.101,86.953,74.905,87.487,74.456z"/>
	<path class="st7" d="M75.725,78.38c-0.252-0.028-0.5,0.278-0.724,0.222c-0.188-0.045-0.858,0.409-0.861,0.402
		c-0.005,0,0.166,0.35,0.211,0.352c0.156,0.013,0.299,0.321,0.446,0.416c0.278,0.177,0.481,0.221,0.808-0.309
		c0.088-0.152,0.45-0.347,0.457-0.342C76.079,79.12,75.843,78.389,75.725,78.38z"/>
	<path class="st7" d="M74.589,78.025c0.242-0.015,0.433-0.352,0.652-0.326c0.17,0.009,0.775-0.482,0.795-0.471
		c0.005,0-0.177-0.344-0.229-0.345c-0.16,0-0.337-0.299-0.51-0.375c-0.318-0.136-0.544-0.147-0.78,0.429
		c-0.063,0.164-0.38,0.428-0.383,0.428C74.124,77.365,74.479,78.037,74.589,78.025z"/>
	<path class="st7" d="M74.779,71.062c0.247,0.186,0.493,0.245,0.811-0.299c0.09-0.148,0.403-0.395,0.399-0.396
		c-0.011,0-0.264-0.683-0.339-0.691c-0.19-0.011-0.419,0.288-0.625,0.226c-0.164-0.057-0.852,0.383-0.84,0.393
		c0.005,0.001,0.17,0.339,0.205,0.342C74.53,70.645,74.645,70.962,74.779,71.062z"/>
	<path class="st7" d="M74.861,69.198c0.241,0.165,0.489,0.197,0.713-0.382c0.067-0.158,0.303-0.445,0.298-0.445
		c-0.015,0.002-0.325-0.642-0.379-0.641c-0.152,0.01-0.316,0.333-0.5,0.289c-0.141-0.037-0.711,0.44-0.708,0.442
		c0.001,0,0.158,0.337,0.192,0.339C74.605,68.802,74.729,69.109,74.861,69.198z"/>
	<path class="st7" d="M72.532,6.44c0.019,1.16,0.265,2.258,0.334,3.396c0.027,0.462,0.175,1.524,0.286,2.471
		c0.115,0.947,0.173,1.787,0.174,1.787c0.003,0.002,0.154-0.982,0.142-1.203c-0.032-0.786,0.062-1.594,0.043-2.385
		c-0.034-1.475-0.129-2.672-0.435-4.109c-0.106-0.4-0.165-2.055-0.151-2.057C72.913,4.333,72.503,5.939,72.532,6.44z"/>
	<path class="st7" d="M75.701,14.219c0,0,0.168-0.99,0.168-1.212c0-0.793,0.153-1.598,0.196-2.395
		c0.081-1.485,0.097-2.717-0.184-4.189c-0.079-0.409-0.206-2.079-0.206-2.079s-0.339,1.622-0.339,2.114
		c0,1.155,0.16,2.275,0.139,3.428C75.457,10.821,75.701,14.219,75.701,14.219z"/>
	<path class="st7" d="M76.951,13.969c0-0.001,0.176-0.964,0.178-1.179c0.016-0.772,0.191-1.551,0.263-2.325
		c0.134-1.441,0.203-2.646-0.041-4.09c-0.062-0.402-0.175-2.032-0.176-2.031c0.001,0.002-0.351,1.575-0.37,2.052
		c-0.028,1.121,0.087,2.217,0.024,3.34C76.761,10.647,76.936,13.971,76.951,13.969z"/>
	<path class="st7" d="M76.101,56.243c-0.001,0.001-0.188-0.168-0.23-0.168c-0.15-0.002-0.299-0.158-0.445-0.207
		c-0.275-0.091-0.49-0.12-0.791,0.131c-0.083,0.073-0.417,0.148-0.419,0.145c-0.007,0.001,0.261,0.388,0.365,0.397
		c0.233,0.025,0.462-0.12,0.683-0.089C75.448,56.482,76.103,56.246,76.101,56.243z"/>
</g>
<g id="rapidograph">
	<path class="st7" d="M167.755,101.438l-5.146,7.543l-0.281-0.203l0.347-0.523c1.145-1.646,3.618-5.207,4.277-6.197l3.437-5.104
		l3.639-5.328l-3.928-2.893l-7.252-5.273l-3.4,4.359l-3.125,4.062l-3.146,4.149l-2.982,4.004l-0.13-0.094l8.547-11.31l9.08-12.175
		l16.553-22.032c0,0-13.309,16.882-17.268,22.071l-17.454,23.049l-0.097-0.07l-2.958,4.141l0.308,0.216l-1.683,2.34l-0.297-0.212
		l-5.566,7.913l-0.644,2.428l0.195,0.14l-1.238,2.379l-2.038,2.854l0.482,0.336l-0.664,1.521l-0.865,2.057l0.437,0.297l-0.656,1.361
		l-0.751,1.617l-0.741,1.66l-0.804,1.856l0.375,0.246c0.069,0.043,0.15,0.096,0.242,0.155c-0.665,0.921-0.627,0.897-1.422,2.08
		l0.636,0.418l0.367,0.218l-0.529,0.739l-0.654,0.973c-0.428,0.654-0.843,1.34-1.258,2.082c-0.124,0.218-0.332,0.564-0.678,1.096
		l0.778,0.503l-2.852,3.963l0.442,0.318l2.861-3.976l-0.179-0.129l0.875,0.566l-0.027,0.041c0,0,0.018-0.021,0.033-0.037l0.016,0.01
		l-0.014-0.013c0.169-0.191,1.085-1.23,1.28-1.507c0.383-0.536,0.8-1.048,1.222-1.562l0.633-0.77l0.312-0.387l0.297-0.393
		c0.063,0.04,0.122,0.077,0.18,0.114l0.555,0.399l-0.007,0.011c0,0,0.008-0.009,0.009-0.01l0.032,0.022l0.198-0.276
		c0.298-0.329,0.783-0.872,0.91-1.048l0.372-0.503c0.388,0.265,0.637,0.435,0.671,0.457l-0.034,0.035c0,0,0.027-0.024,0.037-0.033
		c0.001,0.001,0.01,0.007,0.01,0.007l-0.009-0.008c0.199-0.176,2.263-2.008,2.724-2.462l1.269-1.224l1.318-1.237l0.306,0.22
		l0.331-0.302l0.882-0.72l0.951-0.79l0.388-0.329l0.337-0.298l0.149-0.136c0.153,0.105,0.251,0.172,0.284,0.194l-0.026,0.038
		l0.028-0.036c0.006,0.004,0.021,0.015,0.021,0.015s-0.014-0.012-0.02-0.017l2.004-2.534l-0.092-0.07l1.903-1.823l0.371,0.263
		l1.882-1.185l5.457-7.784c0,0-3.296,4.295-4.004,5.285l-1.663,2.277l-1.657,0.979l-6.432-4.804l-3.595-2.626l-1.419-1.042
		l0.513-1.881l2.629-3.692l1.326-1.896l0.665-0.959c0.213-0.308,0.505-0.728,0.496-0.729l3.801,2.562
		c0.987,0.659,3.547,2.433,5.741,3.959l3.569,2.566l0.038-0.054l0.001,0.001l-0.001-0.001l2.069-2.876l-2.746-1.975
		c1.435,0.986,2.655,1.831,2.763,1.905l-0.028,0.04l0.03-0.039c0.004,0.003,0.02,0.014,0.02,0.014s-0.015-0.012-0.019-0.015
		l2.463-3.188l0.117,0.084l32.09-47.804l-9.141,13.204L167.755,101.438z M130.949,141.625l-0.524-0.482l-0.54-0.488l-0.288-0.26
		c-0.031-0.039-0.051-0.072-0.062-0.096c0.038-0.029,0.067-0.049,0.089-0.062l0.213-0.247c0.141-0.169,0.259-0.32,0.339-0.429
		c0.464-0.645,0.9-1.297,1.332-1.949l1.16-1.746l0.205,0.141l0.409,0.296l0.437,0.312l0.253,0.177l0.133,0.086L130.949,141.625z
		 M137.618,136.178l-0.628-0.515l0.032-0.043c-0.578-0.438-0.83-0.666-1.222-0.993c-0.362-0.303-0.725-0.609-1.097-0.898
		l-0.77-0.595l-1.064-0.784c-0.001,0.002-0.002,0.004-0.004,0.006l-0.197-0.152l-0.01-0.008c0.714-1.463,2.096-4.45,2.784-5.941
		l0.043,0.029l0.822,0.541l0.291,0.187l1.099,0.789l2.072,1.472l2.713,1.881L137.618,136.178z M146.561,129.095
		c-0.03-0.024-0.121-0.099-0.262-0.214l0.052-0.048l-1.202-0.89c-1.313-1.066-3.17-2.561-3.974-3.137l-2.151-1.519l-0.009-0.007
		c1.068,0.697,2.174,1.291,3.224,2.025c0.923,0.646,4.454,2.744,4.454,2.744s-0.894-0.809-1.116-0.958
		c-0.792-0.536-1.51-1.208-2.282-1.782c-1.437-1.072-2.659-1.92-4.286-2.683c-0.453-0.212-2.191-1.235-2.191-1.235
		s0.88,0.847,1.497,1.373l-1.813-1.318l1.37-1.985l1.003,0.697l1.251,0.845c0.483,0.322,0.977,0.646,1.478,0.972l1.753,1.234
		l4.915,3.396L146.561,129.095z M148.468,126.488l-0.634-0.479c-0.257-0.185-0.507-0.385-0.763-0.573
		c-1.331-1.08-3.271-2.64-4.099-3.234l-2.465-1.739l-0.387-0.266l-1.828-1.345l1.016-2.029l1.708,1.219l0.595,0.419l8.618,6.103
		L148.468,126.488z M153.25,107.559l-3.045-2.156l-2.789-1.938l2.14-3.067l12.922,9.258l-2.295,3.308
		C159.964,112.786,154.88,108.729,153.25,107.559z"/>
	<path class="st7" d="M156.293,107.916c-1.793-1.327-3.312-2.387-5.292-3.404c-0.551-0.283-2.691-1.596-2.691-1.596
		s1.816,1.656,2.424,2.074c1.43,0.98,2.906,1.8,4.322,2.796c1.148,0.805,5.494,3.491,5.494,3.491s-1.131-0.978-1.404-1.166
		C158.166,109.438,157.256,108.629,156.293,107.916z"/>
	<path class="st7" d="M155.932,106.57c1.147,0.805,5.493,3.492,5.493,3.492s-1.131-0.979-1.403-1.168
		c-0.98-0.674-1.891-1.481-2.854-2.194c-1.793-1.326-3.312-2.386-5.292-3.403c-0.551-0.283-2.691-1.596-2.691-1.596
		s1.816,1.656,2.424,2.074C153.038,104.756,154.516,105.574,155.932,106.57z"/>
	<path class="st7" d="M142.967,115.688c-0.545-0.295-2.654-1.655-2.654-1.655s1.778,1.696,2.378,2.129
		c1.407,1.012,2.865,1.864,4.258,2.891c1.128,0.833,5.412,3.614,5.412,3.614s-1.108-1.004-1.379-1.199
		c-0.966-0.695-1.857-1.525-2.803-2.259C146.417,117.84,144.924,116.749,142.967,115.688z"/>
	<path class="st7" d="M137.644,120.244c0,0,1.434,1.373,1.927,1.705c1.155,0.777,2.365,1.398,3.508,2.191
		c0.926,0.643,4.464,2.729,4.464,2.729s-0.897-0.807-1.119-0.955c-0.795-0.533-1.515-1.202-2.289-1.773
		c-1.441-1.064-2.666-1.91-4.295-2.668C139.386,121.264,137.644,120.244,137.644,120.244z"/>
	<path class="st7" d="M202.904,46.87c-2.818-2.082-3.928-2.904-6.659-4.811l-0.935,1.353l-0.724,1.078l-1.457,2.255
		c-0.155,0.246-0.429,0.661-0.755,1.149l-1.498-1.058l-3.419,4.911l-1.161-0.854l-2.261,3.165l1.582,1.104l1.301,0.88
		c0.877,0.588,1.783,1.175,2.729,1.779c1.117,0.71,5.479,3.697,5.707,3.853l-0.027,0.04l0.03-0.038
		c0.004,0.003,0.019,0.013,0.019,0.013s-0.014-0.011-0.018-0.015l1.979-2.508l-0.813-0.615c-0.076-0.055-0.15-0.115-0.227-0.17
		l3.326-4.816c0,0-2.084,2.612-2.521,3.219l-0.563,0.772l-0.476,0.635l-4.771-3.644l-3.298-2.434l1.516-2.123l0.854-1.228
		l0.424-0.62l0.197-0.291l0.043-0.081l0.996,0.646c-1.108,1.651-2.555,3.769-2.555,3.769s1.613-1.955,2.887-3.554l1.465,0.95
		c0.753,0.48,2.952,1.975,4.419,2.976l-2.741,3.967c0,0,1.957-2.434,2.371-3.003c0.195-0.271,0.406-0.535,0.605-0.804
		c0.682,0.466,1.157,0.792,1.157,0.792s-0.444-0.363-1.088-0.885c1.276-1.715,2.615-3.403,3.894-5.119L202.904,46.87z
		 M186.43,54.898c0.263-0.218,0.557-0.474,0.659-0.616c0.088-0.123,0.171-0.249,0.252-0.376c0.038-0.069,0.015-0.056,0.035-0.109
		c0.015-0.003,0.038-0.001,0.069,0.008c0.056,0.026,0.199,0.115,0.293,0.172c0.213,0.13,0.421,0.266,0.619,0.416l0.203,0.143
		l0.146,0.082l-0.773,1.325l-0.628-0.443L186.43,54.898z M189.89,57.326c0.283-0.229,0.644-0.534,0.759-0.694
		c0.06-0.083,0.166-0.238,0.179-0.267c0.001-0.012,0.004-0.031,0.012-0.059c0.013-0.005,0.035-0.005,0.068,0.003l0.348,0.205
		c0.233,0.142,0.463,0.288,0.683,0.454l0.277,0.193c0.094,0.06,0.122,0.069,0.212,0.12l-0.075,0.15l-0.178,0.3l-0.361,0.612
		l-0.187,0.321C190.924,58.107,190.286,57.612,189.89,57.326z M193.206,59.928c0.248-0.185,0.787-0.596,0.925-0.789
		c0.062-0.084,0.165-0.239,0.18-0.269c0-0.013,0.002-0.034,0.012-0.066c0.012-0.005,0.031-0.006,0.062,0
		c0.033,0.008,0.187,0.104,0.274,0.154c0.205,0.122,0.406,0.251,0.597,0.397l0.218,0.151l0.158,0.085
		c-0.031,0.07-0.074,0.166-0.221,0.405l-0.337,0.581l-0.336,0.591C194.341,60.845,193.797,60.404,193.206,59.928z M197.049,59.213
		l-1.692,2.46c-0.047-0.038-0.268-0.219-0.608-0.497c0.075-0.062,0.478-0.395,0.551-0.496c0.129-0.175,0.277-0.334,0.434-0.489
		c0.121-0.109,0.381-0.4,0.649-0.722l-0.274-0.228l-0.512-0.413l-0.373-0.287c-0.125-0.092-0.252-0.178-0.385-0.259
		c-0.171-0.111-0.466-0.303-0.671-0.421c-0.123,0.203-0.235,0.401-0.334,0.585c-0.081,0.163-0.104,0.253-0.156,0.392
		c-0.067,0.195-0.379,0.78-0.523,1.046c-0.468-0.377-0.961-0.772-1.431-1.144c0.143-0.127,0.293-0.267,0.336-0.327
		c0.129-0.182,0.281-0.35,0.44-0.514c0.092-0.098,0.134-0.126,0.271-0.281l0.391-0.457l-0.396-0.325l-0.505-0.408l-0.423-0.322
		c-0.143-0.103-0.288-0.199-0.434-0.292l-0.717-0.444c-0.123,0.2-0.235,0.395-0.332,0.577c-0.082,0.158-0.109,0.25-0.162,0.386
		c-0.061,0.161-0.279,0.572-0.451,0.887l-1.648-1.164c0.073-0.069,0.134-0.131,0.159-0.166c0.149-0.206,0.323-0.394,0.504-0.579
		l0.285-0.293l0.442-0.529l-0.185-0.148l-0.585-0.463l-0.395-0.304c-0.131-0.096-0.266-0.189-0.401-0.277l-0.694-0.448
		c-0.146,0.238-0.312,0.51-0.404,0.687c-0.065,0.142-0.127,0.291-0.186,0.447c-0.054,0.144-0.234,0.486-0.396,0.784l-1.255-0.863
		l1.461-2.113l0.657,0.47l-0.001,0.001l1.863,1.336l2.997,2.12l4.174,2.903l0.02-0.028L197.049,59.213z M198.321,52.443
		c-1.362-1.103-3.413-2.749-4.277-3.371l-1.306-0.922c0.375-0.476,0.698-0.896,0.9-1.177l1.488-2.11l0.729-1.056
		c0.219-0.316,0.574-0.829,0.541-0.796l0.068,0.04l0.253,0.173l0.58,0.4l1.159,0.804l2.312,1.646l1.31,0.931L198.321,52.443z"/>
	<path class="st6" d="M160.271,98.645c-0.346-0.248-0.639-0.42-0.881-0.515c-0.24-0.093-0.466-0.146-0.674-0.155
		c-0.209-0.011-0.4,0.027-0.576,0.115c-0.178,0.086-0.334,0.223-0.469,0.41c-0.182,0.254-0.266,0.514-0.248,0.779
		c0.016,0.266,0.12,0.529,0.309,0.796c0.189,0.266,0.492,0.547,0.904,0.844c0.654,0.472,1.209,0.695,1.665,0.675
		c0.38-0.018,0.69-0.195,0.931-0.533c0.186-0.254,0.271-0.513,0.25-0.781c-0.016-0.266-0.121-0.529-0.311-0.797
		C160.98,99.219,160.682,98.939,160.271,98.645z M160.881,100.809c-0.141,0.196-0.355,0.293-0.643,0.291
		c-0.285-0.002-0.713-0.209-1.285-0.621c-0.573-0.412-0.912-0.768-1.02-1.066c-0.08-0.236-0.054-0.453,0.09-0.65
		s0.358-0.299,0.643-0.297c0.285,0.002,0.715,0.209,1.289,0.622c0.57,0.411,0.904,0.75,0.998,1.021S161.023,100.611,160.881,100.809
		z"/>
	
		<rect x="162.11" y="98.487" transform="matrix(-0.8118 -0.584 0.584 -0.8118 236.5554 273.8261)" class="st6" width="0.6" height="0.601"/>
	<path class="st6" d="M163.252,97.261c-0.043-0.104-0.079-0.22-0.104-0.349c-0.021-0.127-0.051-0.398-0.082-0.809
		c-0.039-0.498-0.086-0.864-0.139-1.104c-0.055-0.24-0.129-0.439-0.223-0.591c-0.094-0.154-0.209-0.281-0.35-0.384
		c-0.273-0.195-0.573-0.264-0.9-0.201c-0.328,0.062-0.609,0.26-0.85,0.594c-0.238,0.332-0.342,0.659-0.312,0.979
		c0.031,0.32,0.201,0.613,0.507,0.881l0.361-0.407c-0.218-0.161-0.343-0.345-0.378-0.558s0.021-0.422,0.17-0.629
		c0.141-0.197,0.312-0.312,0.516-0.35c0.205-0.038,0.391,0.005,0.562,0.127c0.16,0.116,0.283,0.305,0.369,0.568
		c0.086,0.266,0.15,0.697,0.188,1.301c0.023,0.387,0.064,0.699,0.126,0.939c0.062,0.237,0.147,0.443,0.263,0.614
		c0.068,0.106,0.156,0.194,0.262,0.265l1.658-2.306l-0.412-0.296L163.252,97.261z"/>
	<path class="st6" d="M166.042,92.711c-0.192-0.266-0.491-0.544-0.899-0.838c-0.346-0.249-0.641-0.421-0.881-0.516
		c-0.242-0.094-0.467-0.146-0.676-0.155c-0.207-0.011-0.398,0.028-0.576,0.114c-0.177,0.088-0.332,0.224-0.467,0.412
		c-0.184,0.254-0.266,0.512-0.25,0.776c0.016,0.267,0.121,0.531,0.311,0.796c0.189,0.268,0.49,0.549,0.903,0.846
		c0.654,0.471,1.21,0.695,1.665,0.674c0.379-0.018,0.689-0.195,0.932-0.531c0.186-0.256,0.27-0.516,0.25-0.781
		C166.338,93.242,166.232,92.977,166.042,92.711z M165.752,94.036c-0.143,0.196-0.355,0.294-0.643,0.292
		c-0.285-0.003-0.715-0.21-1.286-0.621c-0.573-0.412-0.911-0.768-1.019-1.068c-0.082-0.236-0.055-0.453,0.088-0.648
		c0.145-0.199,0.359-0.301,0.645-0.299s0.715,0.209,1.289,0.621c0.57,0.412,0.902,0.752,0.996,1.022
		C165.917,93.605,165.893,93.84,165.752,94.036z"/>
</g>
<g id="color-scale">
	<rect x="220.938" y="22.759" class="st1" width="19.176" height="13.404"/>
	<rect x="220.938" y="40" class="st4" width="19.176" height="13.404"/>
	<rect x="220.938" y="57.759" class="st0" width="19.176" height="13.404"/>
	<rect x="220.938" y="75" class="st3" width="19.176" height="13.404"/>
	<rect x="220.938" y="91.759" class="st2" width="19.176" height="13.404"/>
	<rect x="220.938" y="109" class="st5" width="19.176" height="13.404"/>
</g>
</svg>
