<svg id="grunt" xmlns="http://www.w3.org/2000/svg" viewBox="0 0 256 256">
<path fill="#C5923F" d="M185.896,117.596c-1.197-3.997-7.596-9.594-7.596-9.594s-1.599-9.993-0.398-12.392
	c1.197-2.398,8.395-8.396,4.396-12.792c-3.993-4.397-11.192-4.397-11.192-4.397l-9.19,0.799l-2.199-6.696
	c0,0,1.402-9.017,10.521-9.319c2.222-0.074,3.563-0.085,4.334-0.06l7.266-4.589c0,0-8.32-2.299-16.732-2.235
	c-8.41,0.061-13.687,5.649-15.552,8.442c-1.858,2.794-5.586,3.414-5.586,3.414l-2.397-0.012c-4.688-1.438-9.971-2.356-15.625-2.135
	c-4.73,0.185-9.051,0.995-12.899,2.13l-3.509,0.017c0,0-3.723-0.62-5.586-3.414c-1.863-2.793-7.139-8.382-15.549-8.442
	c-8.41-0.063-16.731,2.235-16.731,2.235l7.263,4.589c0.769-0.025,2.111-0.015,4.333,0.061c9.115,0.303,10.519,9.319,10.519,9.319
	l-1.018,6.696c0,0-6.795-2.398-12.792,0c-5.997,2.399-7.192,0-5.993,6.796c0,0,2.798,10.793,3.197,14.391
	c0.401,3.598-7.195,11.592-7.195,15.589c0,3.998,1.597,11.192,10.391,14.792c8.795,3.598,9.993,12.791,9.993,18.386
	c0,5.599-3.197,16.392-3.197,16.392s-1.998,26.779,8.794,31.578c10.792,4.797,8.394,4.797,10.792,4.797
	c2.397,0,19.987,7.197,30.381,4.396c10.393-2.799,13.188-5.997,13.188-5.997s10.394,0.802,13.591-8.396
	c3.197-9.192,5.195-28.381,3.997-37.176c-1.199-8.795-2.797-20.388,4.396-24.385C179.503,126.39,187.098,121.595,185.896,117.596z"
	/>
<path fill="#BB793A" d="M111.754,145.531L111.754,145.531L111.754,145.531L111.754,145.531z M111.754,145.531
	c-0.021,0.031-7.924,12.115-13.722,20.693c-0.899,1.326,5.806,1.422,5.806,1.422L111.754,145.531z M84.642,71.627
	c1.397,6.054,5.946,8.163,5.946,8.163l9.417-7.464c0,0-1.627-3.492-7.216-7.915c-5.585-4.423-13.966-2.792-13.966-2.792
	C84.176,62.783,83.245,65.575,84.642,71.627z M92.946,78.225l3.326,1.663c-0.318,0.514-0.471,0.821-0.471,0.821l3.413,1.552
	c0,0,8.332,6.037,13.438,9.918c-1.701-5.242-6.699-13.477-6.699-13.477s-1.416-3.783,1.61-7.975
	C101.395,73.861,92.946,78.225,92.946,78.225z M107.563,70.727c0,0.001,0,0.001,0,0.002
	C107.563,70.728,107.563,70.728,107.563,70.727L107.563,70.727z M96.366,99.269c-8.094-0.633-11.938,2.229-11.938,2.229
	s13.257,0.562,17.079,5.58c1.392,1.827,2.909,3.322,4.461,4.536c-5.533-2.272-16.831-6.046-16.831-3.407
	c0,3.26,0.93,14.899,10.009,18.159c3.469,1.244,6.323,1.162,8.529,0.587c-0.549,5.499-2.676,7.732-2.676,7.732
	s5.41-1.707,6.829-5.141c1.307-3.156,3.694-9.109,3.694-9.109l0,0l-1.858-0.26c-0.387-2.176-1.806-4.346-3.196-5.812
	c4.837,2.217,9.167,2.024,10.189,0.76c-1.919,0.097-4.03-0.854-6.29-2.991c-1.412-1.337-2.555-3.514-3.7-5.14
	C107.061,101.872,101.114,99.639,96.366,99.269z M94.991,139.184c-0.202-5.317-0.954-11.979-6.703-14.081l0,0
	c0,0-7.903-2.717-11.021-6.184c1.252-1.018,3.328-3.538,4.12-9.383c1.164-8.614-1.397-16.063-1.397-16.063s0.233,11.872-1.163,14.2
	c-0.376,0.626-0.734,1.132-1.089,1.599c-0.176-1.482-0.792-2.259-0.792-2.259s-8.213,6.132-6.121,12.649
	c1.286,4,3.443,6.896,15.293,12.449c2.961,5.498,3.155,13.287,2.701,19.502c-0.447,3.197-1.594,11.261-2.206,14.402
	c2.136,0.43,3.933-0.828,6.518,0.232c0.622-1.71,2.794-8.616,3.492-14.896c0.836-7.527,0.532-18.539,0.532-18.539
	S96.161,136.652,94.991,139.184z M113.479,192.986c5.935,0,7.683-9.006,7.683-10.864l-16.412,0.205
	C104.752,182.325,106.496,192.986,113.479,192.986z M144.247,145.531l7.913,22.115c0,0,6.707-0.096,5.809-1.422
	C152.169,157.646,144.27,145.564,144.247,145.531z M144.247,145.531L144.247,145.531L144.247,145.531L144.247,145.531z
	 M171.357,71.627c1.396-6.052,0.467-8.846,5.818-10.008c0,0-8.381-1.632-13.969,2.791c-5.588,4.425-7.219,7.916-7.219,7.916
	l9.42,7.464C165.411,79.79,169.962,77.681,171.357,71.627z M135.346,115.124c1.021,1.265,5.354,1.457,10.189-0.762
	c-1.395,1.469-2.811,3.639-3.199,5.815l-1.859,0.26l0,0c0,0,2.391,5.953,3.691,9.109c1.421,3.431,6.83,5.14,6.83,5.14
	s-2.127-2.232-2.676-7.731c2.205,0.575,5.062,0.657,8.531-0.587c9.08-3.26,10.012-14.898,10.012-18.159
	c0-2.641-11.309,1.138-16.84,3.41c1.554-1.214,3.072-2.711,4.466-4.539c3.821-5.019,17.079-5.58,17.079-5.58
	s-3.842-2.861-11.938-2.229c-4.748,0.37-10.69,2.604-14.299,7.726c-1.146,1.626-2.29,3.803-3.701,5.14
	C139.375,114.27,137.264,115.221,135.346,115.124z M179.055,107.014c0,0-0.615,0.775-0.791,2.257
	c-0.354-0.467-0.712-0.973-1.087-1.598c-1.396-2.328-1.163-14.2-1.163-14.2s-2.56,7.449-1.396,16.063
	c0.79,5.844,2.864,8.363,4.118,9.381c-3.12,3.467-11.021,6.185-11.021,6.185c-5.752,2.103-6.5,8.763-6.703,14.085
	c-1.166-2.53-2.16-6.373-2.16-6.373s-0.308,11.011,0.529,18.537c0.7,6.282,2.871,13.189,3.494,14.896
	c2.587-1.062,4.382,0.191,6.516-0.23c-0.611-3.142-1.757-11.188-2.205-14.393c-0.455-6.217-0.263-14.012,2.699-19.518
	c11.852-5.551,14.008-8.447,15.295-12.447C187.271,113.145,179.055,107.014,179.055,107.014z M143.348,92.178
	c5.107-3.881,13.438-9.918,13.438-9.918l3.414-1.553c0,0-0.152-0.306-0.47-0.82l3.324-1.663c0,0-8.449-4.363-14.615-7.498
	c3.024,4.191,1.606,7.976,1.606,7.976S145.05,86.937,143.348,92.178z M128.001,198.451c-18.918-0.018-25.327-9.624-25.327-9.624
	l2.963,7.217c1.117,3.115,13.025,12.799,22.34,12.833l0,0c0.008,0,0.017,0,0.023,0c0.007,0,0.016,0,0.023,0l0,0
	c9.312-0.031,21.222-9.718,22.338-12.833l2.963-7.217C153.326,188.829,146.914,198.436,128.001,198.451z M142.521,192.986
	c6.979,0,8.728-10.659,8.728-10.659l-16.411-0.205C134.838,183.98,136.59,192.986,142.521,192.986z M127.997,105.342l0.005-0.899
	l0.005,0.899c6.329,0,10.384-7.105,10.384-7.105c-3.098,2.224-7.228,2.311-10.389,2.311c-3.166,0-7.292-0.086-10.389-2.312
	C117.612,98.235,121.667,105.342,127.997,105.342z"/>
<path fill="#FFFFFF" d="M113.887,117.977c0,0-4.346,4.345-11.019,2.947c-6.674-1.396-10.711-4.346-11.02-9.467
	c-0.31-5.122,1.398-7.139,1.398-7.139s7.448,2.329,11.02,5.434C107.834,112.855,110.473,117.821,113.887,117.977L113.887,117.977z
	 M103.461,173.616c-0.277-1.595-0.305-3.109,0.032-4.599c-1.344-1.012-3.753-1.386-5.562-1.971
	c-1.479-0.938-9.048,0.957-14.537-5.688c-6.88-8.32-5.433-13.287-5.433-13.287c-1.765,1.96-3.474,1.213-6.162,10.352
	c-2.693,9.143,1.264,15.512,8.637,21.908c3.483,3.021,8.408,4.268,12.644,4.742c-1.419-1.426,2.424-1.566,5.072-2.561
	c-0.211-2.139,0.144-4.216,1.737-5.886c0.962-1.008,2.199-1.61,3.482-2.092c0.072-0.164,0.132-0.317,0.201-0.478
	C103.527,173.916,103.491,173.768,103.461,173.616z M142.111,117.977c0,0,4.347,4.345,11.018,2.947
	c6.676-1.396,10.712-4.346,11.021-9.467c0.31-5.122-1.396-7.139-1.396-7.139s-7.449,2.329-11.02,5.434
	C148.163,112.857,145.527,117.821,142.111,117.977z M152.535,173.616c0.279-1.595,0.306-3.109-0.031-4.599
	c1.346-1.012,3.754-1.386,5.562-1.971c1.479-0.938,9.05,0.957,14.539-5.688c6.881-8.32,5.431-13.287,5.431-13.287
	c1.766,1.96,3.476,1.213,6.164,10.352c2.692,9.143-1.265,15.512-8.638,21.908c-3.484,3.021-8.408,4.268-12.646,4.742
	c1.419-1.426-2.425-1.566-5.068-2.561c0.211-2.139-0.146-4.216-1.738-5.886c-0.959-1.008-2.199-1.61-3.48-2.092
	c-0.07-0.164-0.136-0.317-0.199-0.478C152.471,173.918,152.51,173.771,152.535,173.616L152.535,173.616L152.535,173.616z"/>
<path fill="#CAC9C9" d="M108.628,116.424c0,0-3.769,1.721-7.982,0.318c-5.515-1.84-5.882-7.574-5.882-7.574
	s-3.383,9.926,6.103,11.838c7.607,1.532,12.106-2.876,12.106-2.876L108.628,116.424L108.628,116.424L108.628,116.424z
	 M98.12,182.462c-0.153-0.448-0.27-0.905-0.383-1.366c-0.122-0.504-0.731-1.928,0.02-0.3c-0.193-0.419-0.32-0.848-0.413-1.278
	c-11.942-0.017-22.33-8.215-20.323-25.451c-1.563-2.073-3.753,4.186-3.753,4.186s-5.978,17.357,9.461,24.088
	c5.145,2.243,9.691,3.854,10.763,3.201c2.234,0.456,4.252-1.104,5.009-2.127C98.359,183.098,98.229,182.779,98.12,182.462
	L98.12,182.462z M147.37,116.424c0,0,3.771,1.721,7.983,0.318c5.518-1.84,5.883-7.574,5.883-7.574s3.381,9.926-6.104,11.838
	c-7.606,1.532-12.108-2.876-12.108-2.876L147.37,116.424L147.37,116.424L147.37,116.424z M157.88,182.462
	c0.155-0.448,0.271-0.905,0.384-1.366c0.123-0.504,0.732-1.928-0.02-0.3c0.193-0.419,0.318-0.848,0.413-1.278
	c11.94-0.017,22.329-8.215,20.319-25.451c1.562-2.073,3.754,4.186,3.754,4.186s5.979,17.357-9.461,24.088
	c-5.146,2.243-9.689,3.854-10.767,3.201c-2.233,0.456-4.253-1.104-5.007-2.127C157.641,183.098,157.773,182.779,157.88,182.462
	L157.88,182.462z"/>
<path fill="#423011" d="M86.278,106.72c-0.365,3.199,1.667,6.108,1.667,6.108c0.207-2.38,0.706-4.074,1.285-5.282
	c0.138,3.285,1.013,7.509,4.073,10.895c2.197,2.434,11.36,7.457,17.508,1.948c0.321,0.78,0.659,1.7,0.944,2.702
	c0.93,3.274-0.849,8.06-0.849,8.06s4.805-5.44,4.434-10.376c3.448-0.149,6.837-2.685,6.742-6.227c0,0-6.016,3.321-11.331-2.793
	c-3.104-3.568-13.047-13.408-26.532-10.138c1.385,0.305,2.839,0.754,4.319,1.314c-0.013,0.006-0.024,0.01-0.038,0.015
	C87.193,103.519,86.461,105.139,86.278,106.72z M109.664,117.958L109.664,117.958L109.664,117.958L109.664,117.958
	c0,0,0.003,0.008,0.004,0.01c-1.833,1.064-6.923,3.33-12.116-0.529c-3.319-2.468-3.17-8.402-2.224-11.298
	C101.559,109.645,107.282,114.334,109.664,117.958z M120.583,180.704c0.704,0.728,0.479,1.644,0.281,2.127
	c-0.342,0.849-1.759,3.606-4.158,6.172c-0.859,0.918-2.108,1.424-3.519,1.424c-1.376,0-2.78-0.497-3.752-1.34
	c-0.746-0.642-3.264-2.958-4.375-5.792c-0.415-1.059-0.322-1.906,0.279-2.518c0.415-0.418,1.275-0.916,3.023-0.916l1.243-0.002
	c1.48-0.002,3.974-0.002,6.105-0.002h2.043C119.084,179.857,120.036,180.146,120.583,180.704z M140.663,120.771
	c-0.373,4.935,4.433,10.377,4.433,10.377s-1.779-4.784-0.849-8.062c0.282-1.002,0.62-1.921,0.94-2.701
	c6.146,5.508,15.311,0.484,17.508-1.947c3.062-3.387,3.937-7.613,4.074-10.897c0.58,1.208,1.078,2.904,1.285,5.284
	c0,0,2.03-2.91,1.666-6.108c-0.183-1.581-0.912-3.203-2.223-3.777c-0.016-0.006-0.021-0.01-0.037-0.016
	c1.479-0.56,2.936-1.011,4.32-1.315c-13.483-3.27-23.432,6.57-26.534,10.139c-5.313,6.114-11.327,2.793-11.327,2.793
	C133.825,118.087,137.214,120.621,140.663,120.771z M160.672,106.143c0.947,2.896,1.096,8.83-2.225,11.298
	c-5.195,3.86-10.286,1.592-12.116,0.528c0.002-0.003,0.005-0.009,0.005-0.009C148.719,114.334,154.441,109.646,160.672,106.143z
	 M150.659,180.779c0.603,0.611,0.694,1.457,0.28,2.518c-1.108,2.837-3.627,5.15-4.373,5.792c-0.979,0.843-2.375,1.341-3.752,1.341
	c-1.41,0-2.658-0.507-3.52-1.427c-2.398-2.563-3.818-5.323-4.162-6.17c-0.195-0.481-0.419-1.401,0.284-2.127
	c0.548-0.558,1.499-0.847,2.828-0.847h2.044c2.131,0,4.623,0,6.104,0.002l1.244,0.003
	C149.387,179.861,150.246,180.359,150.659,180.779z M119.286,100.514c3.175,1.921,6.01,2.588,8.716,2.646
	c2.706-0.059,5.54-0.725,8.715-2.646c0,0-4.627,5.641-8.693,5.686v0.003c-0.008,0-0.017-0.002-0.021-0.002
	c-0.009,0-0.017,0.002-0.023,0.002V106.2C123.911,106.154,119.286,100.514,119.286,100.514z M178.184,147.559
	c-0.762,5.705-4.158,10.803-7.846,13.963c-0.979-7.252-1.184-17.715-1.182-19.912c0-4.688,3.027-7.824,3.89-8.319h-0.001
	c0.811-0.472,1.712-0.951,2.655-1.458c5.745-3.074,12.897-6.9,12.897-13.957c0-5.156-2.969-7.395-4.931-8.875
	c-0.248-0.188-0.479-0.362-0.688-0.529c-0.666-0.537-1.189-0.96-1.381-1.392c-1.391-3.126-1.137-10.931-0.533-12.006
	c0.179-0.207,5.34-6.681,3.756-12.495c-0.647-2.371-2.203-4.248-4.506-5.425c-1.693-0.866-3.789-1.348-6.229-1.436
	c-0.025-0.632-0.161-1.256-0.295-1.874c-0.186-0.832-0.367-1.692-0.292-2.576c0.125-1.483,0.243-2.882,0.688-3.589
	c2.693-4.255,9.205-5.616,9.271-5.63l3.913-0.768l-2.598-3.031c-0.045-0.056-5.514-5.575-14.771-5.575
	c-2.524,0-5.112,0.42-7.688,1.251c-7.73,2.493-13.682,9.733-15.752,12.532c-1.002-0.312-2.021-0.596-3.057-0.853
	c-1.336-5.043,2.857-12.279,2.857-12.279s-4.324-0.962-10.743,4.863c-0.83-2.072-2.575-6.544-0.562-11.884
	c-9.4,3.32-11.782,8.389-12.483,12.984c-2.418-1.73-2.149-7.357-2.282-8.801c-2.404,0.288-9.307,6.984-8.997,15.422
	c-0.63,0.172-1.254,0.354-1.872,0.545c-2.07-2.799-8.019-10.039-15.752-12.531c-2.573-0.832-5.158-1.252-7.683-1.252
	c-9.259,0-14.727,5.52-14.774,5.576l-2.593,3.031l3.911,0.768c0.064,0.014,6.575,1.376,9.268,5.629
	c0.446,0.708,0.567,2.106,0.69,3.59c0.078,0.883-0.11,1.744-0.289,2.575c-0.135,0.619-0.267,1.244-0.296,1.877
	c-2.442,0.09-4.539,0.57-6.232,1.437c-2.3,1.176-3.856,3.053-4.502,5.424c-1.585,5.815,3.578,12.289,3.753,12.496
	c0.603,1.074,0.857,8.88-0.533,12.005c-0.191,0.431-0.716,0.854-1.38,1.392c-0.208,0.167-0.44,0.342-0.687,0.529
	c-1.961,1.48-4.928,3.718-4.928,8.875c0,7.055,7.151,10.882,12.899,13.958c0.943,0.505,1.843,0.985,2.657,1.456
	c0.859,0.495,3.885,3.631,3.888,8.318c0,2.199-0.205,12.664-1.183,19.914c-3.687-3.16-7.084-8.258-7.846-13.965
	c0,0-9.329,7.199-6.588,22.606c1.675,9.418,7.391,14.7,14.984,17.463c2.807,6.09,9.376,14.604,21.484,15.847
	c4.609,3.771,10.987,6.217,20.28,6.223v0.004c0.008,0,0.015-0.004,0.023-0.004c0.006,0,0.015,0.004,0.022,0.004v-0.004
	c9.293-0.006,15.67-2.449,20.277-6.223c12.108-1.24,18.679-9.755,21.485-15.847c7.592-2.763,13.308-8.045,14.982-17.463
	C187.514,154.758,178.184,147.559,178.184,147.559z M164.292,58.331c1.801-0.583,3.694-0.876,5.638-0.876
	c3.512,0,6.362,0.957,7.879,1.6c-0.981,0.442-2.045,1.004-3.094,1.702c-0.77-0.133-1.773-0.251-2.936-0.251
	c-3.354,0-6.525,0.984-9.174,2.846c-3.935,2.764-5.754,5.396-6.59,7.136c-0.701-0.402-1.449-0.801-2.254-1.192
	c-0.498-0.244-1.007-0.478-1.518-0.706C154.206,65.722,158.602,60.165,164.292,58.331z M163.805,77.133
	c-0.723-1.001-1.796-2.239-3.354-3.563c0.46-1.532,1.766-5.149,4.322-7.185c1.754-1.397,3.846-2.149,6.223-2.242
	c-0.262,0.331-0.508,0.677-0.736,1.04c-1.058,1.67-1.229,3.71-1.396,5.683c-0.174,2.05-0.34,3.997-1.396,5.416
	C166.134,76.531,164.893,76.833,163.805,77.133z M88.539,76.282c-1.057-1.419-1.225-3.366-1.396-5.418
	c-0.167-1.972-0.339-4.014-1.396-5.684c-0.23-0.361-0.476-0.707-0.735-1.037c2.375,0.093,4.465,0.846,6.219,2.242
	c2.557,2.034,3.861,5.647,4.322,7.183c-1.561,1.324-2.634,2.564-3.356,3.564C91.109,76.833,89.869,76.531,88.539,76.282z
	 M99.986,70.485c-0.839-1.738-2.66-4.371-6.59-7.134c-2.65-1.86-5.821-2.846-9.176-2.846c-1.159,0-2.162,0.118-2.931,0.251
	c-1.048-0.699-2.111-1.261-3.094-1.703c1.516-0.643,4.366-1.601,7.878-1.601c1.94,0,3.838,0.295,5.639,0.876
	c5.69,1.835,10.084,7.39,12.044,10.258c-0.511,0.228-1.017,0.463-1.518,0.707C101.435,69.686,100.686,70.083,99.986,70.485z
	 M85.282,129.255c-0.867-0.5-1.773-0.989-2.685-1.481c-4.741-2.562-9.644-5.212-9.644-9.736c0-3.54,1.377-4.647,2.833-5.82
	l0.157-0.128c0.227-0.184,0.462-0.375,0.696-0.576c-0.297,2.305-0.608,4.261-0.858,4.761c0,0,3.872-4.804,5.02-14.149
	c0.452-3.682-0.349-10.941-1.631-13.735c0.053,1.557,0.004,3.111-0.104,4.588c-0.125-0.264-0.263-0.498-0.413-0.688
	c-1.026-1.28-3.775-5.59-2.984-8.484c0.302-1.105,0.997-1.925,2.13-2.504c1.199-0.615,2.819-0.927,4.813-0.927
	c3.916,0,8.26,1.192,10.502,1.901c8.008,2.539,17.671,9.857,20.442,12.041c0.08,0.06,0.126,0.096,0.135,0.102l1.773,1.233
	l-1.108-1.854c-0.063-0.107-6.097-10.018-16.963-14.844c0.641-0.921,2.345-2.595,6.887-4.808c6.842-3.338,14.825-5.031,23.721-5.034
	c8.897,0.003,16.877,1.695,23.717,5.034c4.546,2.214,6.251,3.888,6.892,4.81c-10.861,4.824-16.896,14.734-16.961,14.842
	l-1.105,1.854l1.771-1.233c0.012-0.006,0.058-0.042,0.137-0.102c2.771-2.184,12.438-9.502,20.441-12.041
	c2.239-0.708,6.586-1.901,10.5-1.901c1.996,0,3.612,0.312,4.812,0.927c1.134,0.579,1.831,1.398,2.132,2.504
	c0.791,2.895-1.96,7.204-2.983,8.484c-0.149,0.189-0.289,0.426-0.414,0.69c-0.107-1.476-0.157-3.033-0.104-4.59
	c-1.279,2.794-2.081,10.054-1.63,13.735c1.147,9.347,5.021,14.149,5.021,14.149c-0.25-0.501-0.562-2.457-0.858-4.763
	c0.235,0.202,0.473,0.394,0.7,0.579l0.154,0.127c1.457,1.173,2.834,2.28,2.834,5.82c0,4.524-4.902,7.175-9.645,9.736
	c-0.914,0.494-1.82,0.982-2.688,1.481c-2.771,1.597-5.756,5.337-6.086,10.91c-0.279,4.67,0.278,15.927,1.092,24.209
	c-3.975,1.539-8.524,2.045-12.666,2.164c-0.646-1.315-1.252-2.729-1.752-4.192c-0.215-0.627-6.25-16.296-8.422-19.865
	c1.741,12.44,5.59,23.512,7.5,28.597c-1.104-0.147-2.338-0.235-3.731-0.235l-18.631-0.012h-0.044
	c-5.368,0.004-18.629,0.012-18.629,0.012c-1.397,0-2.634,0.088-3.735,0.235c1.911-5.083,5.76-16.152,7.501-28.597
	c-2.173,3.569-8.208,19.238-8.421,19.865c-0.5,1.465-1.105,2.877-1.753,4.192c-4.14-0.119-8.692-0.625-12.664-2.164
	c0.81-8.282,1.369-19.539,1.091-24.209C91.035,134.592,88.05,130.85,85.282,129.255z M77.818,175.434
	c-3.875-6.373-2.789-17.256-1.196-18.851c3.481,10.983,15.067,14.124,23.743,14.503c-0.855,1.331-1.644,2.426-2.228,3.191
	c-0.165,0.158-0.319,0.312-0.462,0.468c-2.306,2.489-2.742,5.918-1.305,10.175C89.169,184.807,81.643,181.727,77.818,175.434z
	 M92.429,189.29c1.919,0.358,3.906,0.608,5.937,0.767c1.104,2.57,2.367,5.076,3.922,7.393
	C97.672,195.582,94.5,192.337,92.429,189.29z M128,205.279c-19.327-0.023-24.984-14.623-27.09-20.655
	c-1.166-3.347-1.076-5.824,0.272-7.36c0.922-1.053,3.039-2.308,7.863-2.308l5.041-0.004c3.718-0.003,8.388-0.005,13.917-0.009
	c5.526,0.004,10.198,0.008,13.916,0.009l5.036,0.004c4.827,0,6.941,1.255,7.865,2.308c1.348,1.538,1.436,4.014,0.271,7.36l0,0
	C152.984,190.654,147.326,205.255,128,205.279z M153.717,197.441c1.555-2.312,2.812-4.818,3.918-7.387
	c2.029-0.156,4.018-0.406,5.936-0.766C161.5,192.337,158.326,195.576,153.717,197.441z M178.184,175.434
	c-3.824,6.293-11.354,9.373-18.551,9.487c1.436-4.258,0.999-7.685-1.306-10.173c-0.144-0.155-0.3-0.314-0.468-0.475
	c-0.584-0.771-1.371-1.856-2.227-3.188c8.68-0.38,20.264-3.521,23.742-14.502C180.971,158.178,182.057,169.061,178.184,175.434z"/>
</svg>
