<svg id="html" xmlns="http://www.w3.org/2000/svg" viewBox="0 0 256 256">
<path fill="#C85233" d="M73.947,187.766L61.936,53h132.127l-12.012,134.766L127.854,203"/>
<path fill="#CB633B" d="M128.146,191.281l43.651-12.012l10.254-115.43h-53.905"/>
<path fill="#ECEBEB" d="M128.146,113.938h-21.972l-1.465-16.993h23.438V80.539H86.545l4.395,50.099h37.207V113.938z
	 M127.854,157.004l-18.458-4.98l-1.172-13.184H91.819l2.051,26.074l33.984,9.375V157.004z"/>
<path fill="#FFFFFF" d="M127.854,113.938v16.699h20.507l-2.051,21.386l-18.457,4.98v17.285l33.984-9.375l4.688-50.976H127.854z
	 M127.854,80.539v16.407h40.135l1.466-16.407H127.854z"/>
</svg>
