<svg id="icon-svg" xmlns="http://www.w3.org/2000/svg" viewBox="0 0 256 256">
<g id="icon-alert">
	<path id="global-shadow" opacity="0.1" fill="#201813" enable-background="new    " d="M241.259,199.228l-86.22-156.346
		c0-0.004-0.004-0.007-0.004-0.009c-4.354-8.058-12.88-13.535-22.699-13.535c-8.966,0-17.755,4.769-23.509,15.199L23.046,200.143
		c-3.225,7.562-2.765,16.531,2.023,23.964c5.087,7.908,13.788,12.088,22.558,11.792c0.012,0,0.023,0.009,0.035,0.009l169.906,0.014
		h0.143c9.1,0.086,17.96-4.644,22.73-13.113C244.689,215.259,244.703,206.501,241.259,199.228z"/>
	<path id="color_1_" fill="#6B859F" d="M232.536,189.968l-86.22-156.345c-0.003-0.005-0.004-0.007-0.007-0.01
		c-4.354-8.058-12.88-13.535-22.694-13.535c-8.971,0-17.758,4.769-23.51,15.199L14.322,190.883
		c-3.225,7.562-2.764,16.531,2.023,23.965c5.087,7.907,13.787,12.088,22.557,11.791c0.012,0,0.024,0.01,0.035,0.01l169.906,0.013
		h0.145c9.099,0.086,17.958-4.643,22.728-13.113C235.965,206,235.979,197.242,232.536,189.968z"/>
	<g id="shadow">
		<path fill="#52677B" d="M225.02,208.296c2.748-7.438,0.004-13.975-3.098-20.672c0,0-79.832-146.187-79.835-146.188
			c-3.905-7.402-9.381-12.44-18.185-12.461v190.184c40.596,0.004,81.283,0.011,81.283,0.011
			C213.372,219.248,221.932,216.651,225.02,208.296z"/>
		<path opacity="0.15" fill="#201813" enable-background="new    " d="M232.536,189.968l-10.948-19.849L90.916,51.945L79.513,72.63
			l153.309,138.64C235.902,204.279,235.639,196.523,232.536,189.968z"/>
		<path opacity="0.15" fill="#201813" enable-background="new    " d="M74.351,81.999L47.83,130.104l106.763,96.55l54.25,0.005
			h0.145c6.512,0.061,12.879-2.383,17.737-6.865L74.351,81.999z"/>
		<path fill="#B5C5D3" d="M232.536,189.968l-86.22-156.345c-0.003-0.005-0.004-0.007-0.007-0.01
			c-4.354-8.058-12.88-13.535-22.694-13.535c-8.971,0-17.758,4.769-23.51,15.199L14.322,190.883
			c-3.225,7.562-2.764,16.531,2.023,23.965c5.087,7.907,13.787,12.088,22.557,11.791c0.012,0,0.024,0.01,0.035,0.01l169.906,0.013
			h0.145c9.099,0.086,17.958-4.643,22.728-13.113C235.965,206,235.979,197.242,232.536,189.968z M225.02,208.296
			c-3.088,8.354-11.647,10.951-19.835,10.872c0,0-161.99-0.023-162-0.023c-7.895,0.275-15.335-2.772-19.789-11.404
			c-3.708-7.188-0.782-12.311,2.123-19.278l79.438-145.498c5.177-9.6,10.827-13.993,18.898-13.993
			c8.831,0,14.32,5.043,18.234,12.463c0.001,0.002,79.835,146.188,79.835,146.188C225.023,194.321,227.768,200.864,225.02,208.296z"
			/>
	</g>
	<g id="signal">
		<path fill="#FFFFFF" d="M139.605,159.917c0-2.254-1.882-4.08-4.196-4.08h-23.585c-2.315,0-4.193,1.826-4.193,4.08v17.35
			c0,2.26,1.877,4.089,4.193,4.089h23.585c2.314,0,4.196-1.829,4.196-4.089V159.917z"/>
		<path fill="#FFFFFF" d="M141.802,94.343c0-1.835-2.103-3.327-4.697-3.327h-26.981c-2.592,0-4.693,1.491-4.693,3.327l3.519,51.534
			c0,1.835,2.102,3.327,4.693,3.327h19.947c2.591,0,4.691-1.492,4.691-3.327L141.802,94.343z"/>
	</g>
</g>
</svg>
