<?xml version="1.0" encoding="utf-8"?>
<!-- Generator: Adobe Illustrator 15.0.0, SVG Export Plug-In . SVG Version: 6.00 Build 0)  -->
<!DOCTYPE svg PUBLIC "-//W3C//DTD SVG 1.1//EN" "http://www.w3.org/Graphics/SVG/1.1/DTD/svg11.dtd">
<svg version="1.1" id="icon-svg" xmlns="http://www.w3.org/2000/svg" xmlns:xlink="http://www.w3.org/1999/xlink" x="0px" y="0px"
	 width="100px" height="100px" viewBox="0 0 100 100" style="enable-background:new 0 0 100 100;" xml:space="preserve">
<g id="icon-alert">
	<path id="global-shadow" style="opacity:0.1;fill:#211915;" d="M98.928,80.77L61.682,13.23c-0.001-0.002-0.002-0.003-0.003-0.004
		c-1.88-3.481-5.564-5.847-9.805-5.847c-3.874,0-7.671,2.06-10.156,6.566L4.661,81.165c-1.393,3.267-1.194,7.142,0.874,10.352
		c2.198,3.416,5.956,5.222,9.745,5.094c0.005,0,0.01,0.004,0.015,0.004l73.398,0.006h0.062c3.931,0.037,7.758-2.006,9.819-5.665
		C100.409,87.696,100.415,83.912,98.928,80.77z"/>
	<path id="color_1_" style="fill:#6E8AA6;" d="M95.159,76.77L57.913,9.23c-0.001-0.002-0.002-0.003-0.003-0.004
		c-1.88-3.481-5.564-5.847-9.804-5.847c-3.875,0-7.671,2.06-10.156,6.566L0.892,77.165c-1.393,3.267-1.194,7.142,0.874,10.352
		c2.198,3.416,5.956,5.222,9.745,5.094c0.005,0,0.01,0.004,0.015,0.004l73.398,0.006h0.062c3.931,0.037,7.758-2.006,9.819-5.665
		C96.641,83.696,96.646,79.912,95.159,76.77z"/>
	<g id="shadow">
		<path style="fill:#53697E;" d="M91.912,84.688c1.188-3.213,0.002-6.037-1.338-8.931c0,0-34.487-63.151-34.488-63.152
			c-1.688-3.198-4.053-5.374-7.856-5.383V89.38c17.537,0.002,35.114,0.005,35.114,0.005C86.881,89.419,90.578,88.297,91.912,84.688z
			"/>
		<path style="opacity:0.15;fill:#211915;" d="M95.159,76.77l-4.729-8.574l-56.45-51.051l-4.926,8.936l66.228,59.892
			C96.613,82.952,96.5,79.602,95.159,76.77z"/>
		<path style="opacity:0.15;fill:#211915;" d="M26.824,30.128L15.367,50.909l46.121,41.709l23.436,0.002h0.062
			c2.814,0.026,5.564-1.029,7.662-2.966L26.824,30.128z"/>
		<path style="fill:#B7C8D7;" d="M95.159,76.77L57.913,9.23c-0.001-0.002-0.002-0.003-0.003-0.004
			c-1.88-3.481-5.564-5.847-9.804-5.847c-3.875,0-7.671,2.06-10.156,6.566L0.892,77.165c-1.393,3.267-1.194,7.142,0.874,10.352
			c2.198,3.416,5.956,5.222,9.745,5.094c0.005,0,0.01,0.004,0.015,0.004l73.398,0.006h0.062c3.931,0.037,7.758-2.006,9.819-5.665
			C96.641,83.696,96.646,79.912,95.159,76.77z M91.912,84.688c-1.334,3.608-5.031,4.73-8.568,4.696c0,0-69.979-0.01-69.983-0.01
			c-3.411,0.119-6.625-1.198-8.549-4.927c-1.602-3.104-0.338-5.318,0.917-8.328l34.317-62.854c2.236-4.147,4.677-6.045,8.164-6.045
			c3.816,0,6.186,2.179,7.877,5.384c0.001,0.001,34.488,63.152,34.488,63.152C91.914,78.651,93.1,81.476,91.912,84.688z"/>
	</g>
	<g id="signal">
		<path style="fill:#FFFFFF;" d="M55.013,63.788c0-0.974-0.812-1.763-1.812-1.763H43.012c-1,0-1.811,0.789-1.811,1.763v7.495
			c0,0.976,0.811,1.766,1.811,1.766h10.189c1,0,1.812-0.79,1.812-1.766V63.788z"/>
		<path style="fill:#FFFFFF;" d="M55.963,35.461c0-0.793-0.908-1.437-2.029-1.437H42.278c-1.12,0-2.028,0.644-2.028,1.437
			l1.52,22.262c0,0.793,0.908,1.437,2.028,1.437h8.617c1.119,0,2.027-0.644,2.027-1.437L55.963,35.461z"/>
	</g>
</g>
</svg>
