<svg id="illustrator" xmlns="http://www.w3.org/2000/svg" viewBox="0 0 256 256">
<path fill="#DE9F3E" d="M50.994,53h154.012v150H50.994V53z"/>
<path fill="#3A3322" d="M62.726,65.042h130.241v125.916H62.726V65.042z"/>
<path fill="#322C1A" d="M161.179,94.976c0.308,0.205-8.642,9.568-8.642,9.568l11.539,9.091l-10.613,7.884L126.92,95.901
	l-12.654,3.086l-8.024,25.617l-14.506,34.876l44.443,31.481h56.79v-70.37C192.969,120.593,160.871,94.771,161.179,94.976z
	 M62.726,65.038h130.241v4.32H62.726V65.038z"/>
<path fill="#DE9F3E" d="M109.33,141.442l-5.469,18.009H91.887l20.366-63.55h14.803l20.649,63.55h-12.446l-5.752-18.009H109.33
	L109.33,141.442z M127.527,132.674l-4.997-15.652c-1.226-3.866-2.263-8.203-3.206-11.881h-0.188
	c-0.942,3.678-1.886,8.109-3.018,11.881l-4.902,15.652H127.527L127.527,132.674z M164.676,100.709c0,3.488-2.546,6.223-6.601,6.223
	c-3.866,0-6.411-2.734-6.411-6.223c0-3.583,2.64-6.317,6.506-6.317C162.13,94.392,164.581,97.126,164.676,100.709z M152.324,159.451
	v-45.918h11.691v45.918H152.324L152.324,159.451z"/>
</svg>
