<?xml version="1.0" encoding="utf-8"?>
<!-- Generator: Adobe Illustrator 15.0.0, SVG Export Plug-In . SVG Version: 6.00 Build 0)  -->
<!DOCTYPE svg PUBLIC "-//W3C//DTD SVG 1.1//EN" "http://www.w3.org/Graphics/SVG/1.1/DTD/svg11.dtd">
<svg version="1.1" id="logo" xmlns="http://www.w3.org/2000/svg" xmlns:xlink="http://www.w3.org/1999/xlink" x="0px" y="0px"
	 width="800px" height="176px" viewBox="0 0 800 176" style="enable-background:new 0 0 800 176;" xml:space="preserve">
<style type="text/css">
<![CDATA[
	.st0{fill:#524543;}
	.st1{fill:#8D694B;}
	.st2{fill:#211915;}
	.st3{fill:#222222;}
	.st4{fill:#FFFFFF;}
	.st5{fill:#654D35;}
	.st6{fill:#CECDCA;}
	.st7{fill:#D8D9DD;}
]]>
</style>
<g id="druart-logo">
	<g id="text">
		<path class="st7" d="M44.41,54.001c0.641-0.672,2.312-1.342,5.014-2.014c2.698-0.67,6.016-1.195,9.955-1.572
			c3.936-0.377,8.329-0.457,13.18-0.252c4.852,0.211,9.771,0.863,14.762,1.951c4.988,1.09,9.816,2.723,14.486,4.903
			c4.668,2.183,8.81,5.138,12.425,8.867c3.614,3.732,6.522,8.299,8.72,13.709C125.149,85,126.2,91.439,126.111,98.9
			c0,5.451-1.03,10.145-3.089,14.086c-2.061,3.943-4.693,7.295-7.895,10.064c-3.206,2.768-6.821,5.027-10.849,6.791
			c-4.027,1.764-7.988,3.121-11.878,4.088c-3.891,0.963-7.574,1.613-11.052,1.947c-3.479,0.336-6.271,0.504-8.376,0.504
			c-0.643,0-1.26-0.021-1.855-0.062c-0.594-0.039-1.258-0.105-1.989-0.189l-0.824,1.637l-2.472-0.127l-1.51,3.393l-1.512-0.375
			l-0.55,0.758c-0.366,0.5-0.597,0.758-0.686,0.758c-0.093-0.424-0.163-1.324-0.207-2.707c-0.048-1.383-0.114-3.08-0.206-5.092
			c-2.289-0.754-4.578-1.863-6.865-3.33c-2.29-1.469-4.371-3.354-6.248-5.66c-1.879-2.305-3.387-5.156-4.53-8.553
			c-1.146-3.396-1.717-7.441-1.717-12.139c0.365-0.754,0.731-1.297,1.097-1.631c0.275-0.256,0.551-0.314,0.826-0.189
			c0.272,0.125,0.412,0.773,0.412,1.947c0,0.84,0.41,1.764,1.234,2.768c0.825,1.006,1.945,1.992,3.363,2.955
			c1.418,0.965,3.136,1.889,5.15,2.77c2.012,0.881,4.255,1.613,6.729,2.197c-0.092-3.604-0.207-7.377-0.344-11.316
			c-0.139-3.943-0.274-7.816-0.412-11.637c-0.138-3.812-0.299-7.503-0.479-11.065c-0.187-3.562-0.413-6.855-0.688-9.875
			c-1.737,0.336-3.457,0.674-5.148,1.008c-1.695,0.334-3.41,0.752-5.147,1.256c-1.101-0.504-2.177-1.57-3.229-3.205
			c-1.054-1.635-1.854-3.5-2.401-5.596c-0.551-2.096-0.734-4.15-0.551-6.164C42.395,56.894,43.127,55.259,44.41,54.001z
			 M73.382,116.885c-0.092-1.928-0.116-3.836-0.069-5.723c0.045-1.887,0.069-3.584,0.069-5.092v-5.156l-1.237,15.975h0.688
			L73.382,116.885L73.382,116.885z M114.574,94.5c0.09-2.016-0.777-4.191-2.607-6.542c-1.834-2.346-4.42-4.59-7.758-6.729
			c-3.344-2.14-7.301-4.066-11.877-5.787c-4.579-1.716-9.521-2.953-14.83-3.709c-0.092,3.688-0.207,7.633-0.344,11.823
			c-0.137,4.192-0.273,8.32-0.412,12.39c-0.136,4.066-0.299,7.902-0.48,11.51c-0.184,3.604-0.32,6.707-0.412,9.305
			c4.301-0.334,8.719-1.236,13.249-2.703c4.53-1.465,8.651-3.248,12.356-5.346c3.709-2.096,6.773-4.383,9.2-6.854
			C113.085,99.381,114.391,96.934,114.574,94.5z"/>
		<path class="st7" d="M204.844,83.765c0,3.107-0.512,5.868-1.531,8.28c-1.021,2.41-2.366,4.537-4.035,6.375
			c-1.669,1.84-3.641,3.453-5.913,4.844c-2.274,1.395-4.661,2.576-7.165,3.559c2.689,4.252,4.568,8.77,5.636,13.549
			c1.065,4.785,1.091,9.059,0.069,12.816c0.186-2.861,0.047-5.477-0.418-7.852c-0.465-2.369-1.02-4.412-1.67-6.131
			c-0.834-2.041-1.762-3.842-2.781-5.396c0.928,2.941,1.715,5.768,2.365,8.463c0.558,2.289,0.996,4.6,1.32,6.932
			c0.325,2.328,0.256,4.145-0.207,5.457c-0.093-0.084-0.162-0.162-0.208-0.244c-0.048-0.084-0.118-0.164-0.21-0.25l-0.277-0.244
			c-0.278,0.494-0.604,0.9-0.974,1.227c-0.278,0.328-0.558,0.635-0.835,0.918c-0.279,0.287-0.512,0.432-0.695,0.432
			c-0.186,0.084-0.465,0.145-0.832,0.184c-0.373,0.039-0.793,0.105-1.254,0.189c-0.467,0.08-0.975,0.203-1.529,0.367l-1.254-1.229
			c-1.391-4.82-3.527-9.34-6.4-13.551c-2.875-4.207-5.844-8.033-8.904-11.463c-2.504,0.324-4.824,0.533-6.957,0.607
			c-2.134,0.086-3.943,0.125-5.424,0.125h-0.835c-0.187,1.883-0.325,3.602-0.417,5.15c-0.094,1.553-0.187,2.902-0.278,4.047
			c-0.093,1.309-0.188,2.453-0.278,3.436c-0.187,0.324-0.418,0.656-0.695,0.979c-0.187,0.328-0.417,0.695-0.696,1.105
			c-0.276,0.41-0.604,0.855-0.972,1.348c-0.188,0.332-0.441,0.736-0.768,1.23c-0.323,0.488-0.625,1.02-0.904,1.594
			c-0.371,0.654-0.744,1.352-1.113,2.086c-0.279,0.082-0.604,0.203-0.973,0.367c-0.652,0.328-1.209,0.734-1.67,1.229
			c-0.094,0.162-0.187,0.348-0.278,0.551c-0.093,0.205-0.233,0.471-0.419,0.797c-0.187,0.324-0.324,0.693-0.416,1.102l-1.113-0.123
			l-1.67,2.33l-0.558-0.244c-0.372-0.166-0.603-0.248-0.695-0.248c-0.372,0.164-0.674,0.469-0.904,0.918
			c-0.233,0.449-0.488,0.678-0.765,0.678c-0.094-0.494-0.188-1.719-0.277-3.682c-0.096-1.959-0.211-4.414-0.349-7.359
			c-0.14-2.941-0.276-6.273-0.417-9.996c-0.139-3.717-0.258-7.621-0.348-11.709c-2.134-1.145-4.081-2.697-5.844-4.66
			c-1.761-1.963-3.152-4.375-4.174-7.234c-0.093-0.244-0.254-0.941-0.486-2.086c-0.232-1.143-0.258-2.123-0.068-2.939
			c0.186,0.816,0.438,1.697,0.766,2.639c0.324,0.939,0.672,1.84,1.043,2.699c0.367,0.855,0.764,1.611,1.183,2.266
			c0.417,0.656,0.811,1.104,1.182,1.352c-1.302-2.369-2.181-4.6-2.644-6.686c-0.465-2.086-0.512-3.82-0.14-5.213
			c0.743,2.043,3.665,3.967,8.766,5.764c-0.187-4.086-0.396-8.051-0.626-11.895c-0.232-3.843-0.441-7.438-0.627-10.791
			c-2.69,0.328-5.52,0.815-8.486,1.469c-1.114-0.324-2.179-1.162-3.198-2.514c-1.021-1.349-1.786-2.839-2.296-4.478
			c-0.509-1.633-0.672-3.268-0.487-4.904c0.187-1.635,0.882-2.942,2.086-3.926c0.651-0.49,2.295-1.121,4.94-1.897
			c2.643-0.775,5.958-1.492,9.947-2.146c3.988-0.654,8.418-1.145,13.287-1.471c4.871-0.326,9.786-0.31,14.748,0.061
			c4.962,0.367,9.809,1.187,14.539,2.453c4.73,1.271,8.904,3.188,12.521,5.765c3.615,2.573,6.541,5.889,8.766,9.932
			C203.877,72.91,204.936,77.878,204.844,83.765z M193.994,80.332c0.092-1.715-0.675-3.352-2.295-4.902
			c-1.623-1.553-4.059-2.883-7.305-3.985c-3.248-1.104-7.26-1.945-12.035-2.517c-4.777-0.567-10.274-0.733-16.486-0.489
			c0.091,0.655,0.139,1.329,0.139,2.021c0,0.697,0,1.453,0,2.271c-0.094,3.926-0.232,7.868-0.418,11.831
			c-0.186,3.968-0.418,7.871-0.695,11.712c4.174,0,8.533-0.471,13.078-1.408c4.543-0.941,8.719-2.146,12.522-3.623
			c3.802-1.471,6.957-3.146,9.461-5.028C192.461,84.337,193.805,82.375,193.994,80.332z"/>
		<path class="st7" d="M204.891,91.299c-0.146-6.489,0.11-12.327,0.768-17.508c0.659-5.18,1.461-9.582,2.413-13.203
			c0.952-3.617,1.976-6.459,3.073-8.52c1.096-2.062,1.936-3.213,2.524-3.466c2.192-0.87,4.826-1.059,7.897-0.562
			c3.074,0.5,5.924,1.312,8.557,2.434c2.632,1.125,4.83,2.375,6.583,3.748c1.756,1.375,2.485,2.56,2.192,3.558
			c-3.657,12.985-5.45,23.377-5.375,31.179c0.072,7.803,0.988,13.828,2.744,18.066c1.755,4.248,3.765,7.057,6.034,8.43
			c2.264,1.375,3.689,2.059,4.278,2.059c1.02,0.133,2.666-0.309,4.937-1.307c2.265-0.996,4.529-2.686,6.799-5.059
			c2.267-2.373,4.243-5.43,5.924-9.174c1.679-3.748,2.524-8.365,2.524-13.857c0-6.488-0.365-11.892-1.097-16.197
			c-0.731-4.307-1.535-7.707-2.412-10.207c-1.026-2.996-2.123-5.24-3.292-6.74l-0.88-0.188c0.438-0.121,0.803-0.246,1.1-0.373
			c0.581-0.248,0.801-0.562,0.659-0.938c-0.148-0.121-0.406-0.309-0.769-0.561c-0.367-0.248-0.548-0.496-0.548-0.75
			c0-0.248,0.143-0.656,0.438-1.217c0.292-0.564,1.021-1.031,2.194-1.406c2.778-0.996,5.924-1.027,9.433-0.094
			c3.51,0.936,6.802,2.998,9.874,6.18c3.073,3.184,5.667,7.555,7.79,13.107c2.117,5.559,3.105,12.395,2.96,20.507
			c-0.146,6.994-1.207,13.578-3.181,19.758c-1.973,6.174-4.793,11.578-8.445,16.193c-3.658,4.619-8.085,8.271-13.273,10.957
			c-5.195,2.684-10.937,3.965-17.224,3.838c-7.168-0.125-13.532-1.775-19.09-4.961c-5.56-3.184-10.241-7.18-14.042-11.984
			c-3.805-4.807-6.73-10.051-8.776-15.729C206.132,101.633,205.035,96.295,204.891,91.299z"/>
		<path class="st7" d="M31.358,149.475c7.842-0.74,17.183-1.318,28.011-1.738c10.827-0.418,22.125-0.689,33.892-0.812
			c11.77-0.123,23.537-0.135,35.305-0.037c11.77,0.102,22.596,0.311,32.483,0.629c9.884,0.318,18.358,0.738,25.419,1.26
			c7.062,0.518,11.688,1.098,13.889,1.734h-0.942c-0.315,0-0.786-0.021-1.413-0.074l6.121,1.188l-3.765,0.145
			c1.249,0.299,2.506,0.568,3.765,0.816c0.942,0.246,1.72,0.492,2.353,0.736c0.625,0.248,0.78,0.42,0.47,0.52
			c-0.94,0.346-2.044,0.912-3.295,1.703c-0.633,0.395-1.257,0.811-1.881,1.256l-4.235-0.369c-12.24-0.246-24.561-0.32-36.954-0.223
			c-12.399,0.098-24.56,0.295-36.483,0.592c-11.929,0.295-23.382,0.68-34.363,1.145c-10.988,0.471-21.344,0.951-31.068,1.443
			c-7.85,0.395-14.284,0.32-19.301-0.223c-5.023-0.541-8.709-1.33-11.062-2.367c-2.353-1.035-3.296-2.217-2.823-3.549
			C25.946,151.916,27.903,150.656,31.358,149.475z"/>
		<path class="st7" d="M441.967,130.902c0,0.412,0.261,1.141,0.792,2.186c0.521,1.037,1.048,2.113,1.567,3.221
			c0.525,1.109,1.053,2.186,1.58,3.223c0.523,1.039,0.789,1.697,0.789,1.975c-0.217,1.525-0.528,2.809-0.949,3.844
			c-0.418,1.037-0.842,1.977-1.256,2.812c-0.426,0.553-1.108,1.006-2.056,1.348c-0.938,0.35-1.629,0.662-2.048,0.938
			c-0.422,0.416-0.583,0.73-0.475,0.936c0.104,0.207-0.053,0.451-0.473,0.729c-0.427,0.275-0.949,0.482-1.578,0.623
			c-0.631,0.139-1.162,0.346-1.574,0.625c-1.055,0.273-2.209,0.414-3.471,0.414h-1.58c-3.361,0-7.886-2.809-13.557-8.422
			c-5.686-5.615-11.781-12.998-18.302-22.141c-1.053,0.281-2.159,0.555-3.312,0.83c-1.161,0.277-2.368,0.555-3.623,0.83
			c-3.578-0.275-8.205-0.312-13.882-0.105c-5.681,0.205-11.782,0.521-18.302,0.936c-6.515,0.414-13.091,0.938-19.715,1.559
			c-6.624,0.623-12.571,1.146-17.823,1.562c-3.58,4.57-7.312,9.111-11.198,13.617c-3.897,4.504-7.943,8.977-12.147,13.406
			c-0.845,0.275-1.372,0-1.575-0.828c-0.215-0.834-0.847-1.529-1.893-2.078c-0.424-0.277-1.162-0.244-2.21,0.104
			c-1.05,0.34-1.89,0.312-2.519-0.104c-0.219-0.139-0.424-0.596-0.636-1.354c-0.212-0.76-0.424-1.484-0.634-2.186l-0.629-2.908
			c-0.843,0-1.684-0.209-2.522-0.621c-1.682-0.553-2.835-1.525-3.471-2.912c-0.21-0.275-0.267-0.795-0.155-1.559
			c0.103-0.758,0.259-1.691,0.477-2.807c0.205-1.109,0.414-2.422,0.626-3.949c-0.626,0.555-1.259,0.967-1.895,1.248
			c-1.261,0.551-2,0.551-2.203,0c-0.424-1.387-0.679-2.738-0.79-4.053c-0.104-1.316,0.055-2.531,0.475-3.639
			c1.473-2.906,4.467-8.211,8.992-15.904c4.519-7.691,9.412-16.869,14.671-27.547c5.254-10.672,10.141-22.484,14.67-35.445
			c4.519-12.959,7.513-26.16,8.991-39.604c12.618-1.109,22.761-1.488,30.444-1.144c7.67,0.347,13.403,1.281,17.189,2.808
			c6.101-0.14,11.619,0.588,16.563,2.18c4.943,1.598,7.831,4.678,8.676,9.252c0.628,3.744,1.627,8.906,2.999,15.488
			c1.365,6.584,3.624,14.449,6.782,23.602c3.154,9.144,7.518,19.537,13.091,31.182c5.571,11.646,12.983,24.469,22.241,38.461
			c0.211,0.557,0.156,0.762-0.152,0.619c-0.316-0.131-0.744-0.377-1.263-0.727c-0.526-0.342-0.942-0.619-1.269-0.83
			C442.125,130.381,441.967,130.486,441.967,130.902z M342.912,100.135c6.73-0.139,13.615-0.105,20.663,0.104
			c7.044,0.207,13.929,0.521,20.661,0.938c-3.783-5.957-7.464-12.021-11.042-18.19c-3.577-6.164-6.939-12.367-10.093-18.604
			c-3.366,6.517-6.681,12.717-9.936,18.604C349.901,88.877,346.486,94.59,342.912,100.135z"/>
		<path class="st7" d="M603.48,58.855c0,4.838-1.155,9.133-3.469,12.887c-2.316,3.756-5.359,7.063-9.146,9.928
			c-3.793,2.865-8.26,5.379-13.408,7.542c-5.151,2.172-10.566,4.014-16.245,5.539c6.095,6.619,10.354,13.65,12.776,21.102
			c2.414,7.445,2.465,14.1,0.158,19.957c0.412-4.459,0.104-8.527-0.947-12.223c-1.054-3.689-2.315-6.871-3.789-9.551
			c-1.89-3.18-3.994-5.98-6.308-8.398c2.103,4.584,3.89,8.975,5.359,13.174c1.261,3.564,2.263,7.16,2.998,10.785
			c0.735,3.629,0.577,6.465-0.478,8.498c-0.213-0.127-0.371-0.256-0.475-0.383c-0.107-0.125-0.27-0.25-0.475-0.385l-0.631-0.383
			c-0.633,0.764-1.375,1.398-2.209,1.906c-0.633,0.512-1.261,0.984-1.893,1.436c-0.631,0.441-1.158,0.668-1.578,0.668
			c-0.418,0.123-1.05,0.219-1.891,0.285c-0.842,0.061-1.789,0.158-2.842,0.285c-1.052,0.125-2.201,0.318-3.465,0.57l-2.842-1.902
			c-3.152-7.512-7.992-14.543-14.508-21.104c-6.521-6.555-13.252-12.506-20.189-17.854c-5.678,0.514-10.938,0.828-15.771,0.955
			c-4.843,0.129-8.946,0.189-12.31,0.189h-1.892c-0.419,2.932-0.735,5.604-0.94,8.02c-0.213,2.418-0.424,4.521-0.633,6.301
			c-0.213,2.041-0.42,3.82-0.629,5.35c-0.425,0.506-0.947,1.02-1.576,1.521c-0.427,0.514-0.945,1.086-1.572,1.721
			c-0.637,0.639-1.379,1.336-2.211,2.105c-0.424,0.512-1.002,1.145-1.738,1.904c-0.74,0.764-1.416,1.598-2.047,2.48
			c-0.85,1.023-1.686,2.104-2.529,3.246c-0.628,0.129-1.37,0.322-2.202,0.574c-1.479,0.51-2.737,1.146-3.788,1.906
			c-0.214,0.258-0.418,0.543-0.632,0.861c-0.213,0.316-0.526,0.732-0.94,1.242c-0.424,0.508-0.74,1.078-0.949,1.719l-2.523-0.193
			l-3.781,3.627l-1.264-0.383c-0.847-0.254-1.374-0.381-1.581-0.381c-0.844,0.25-1.526,0.73-2.049,1.432
			c-0.524,0.699-1.103,1.053-1.735,1.053c-0.217-0.766-0.424-2.68-0.632-5.732c-0.215-3.051-0.475-6.871-0.786-11.453
			c-0.316-4.584-0.633-9.77-0.945-15.561s-0.582-11.867-0.787-18.234c-4.844-1.779-9.262-4.199-13.256-7.259
			c-3.993-3.052-7.147-6.811-9.459-11.265c-0.215-0.384-0.58-1.464-1.107-3.248c-0.525-1.781-0.579-3.31-0.15-4.582
			c0.41,1.272,0.994,2.643,1.732,4.104c0.734,1.469,1.521,2.867,2.367,4.199c0.843,1.336,1.74,2.516,2.683,3.533
			c0.943,1.021,1.839,1.721,2.681,2.104c-2.945-3.69-4.944-7.158-5.996-10.408c-1.049-3.246-1.156-5.948-0.312-8.116
			c1.684,3.186,8.303,6.18,19.875,8.977c-0.424-6.361-0.9-12.535-1.419-18.521c-0.526-5.98-1.002-11.582-1.422-16.802
			c-6.099,0.513-12.515,1.273-19.242,2.293c-2.522-0.51-4.938-1.815-7.255-3.916c-2.312-2.1-4.046-4.422-5.206-6.969
			c-1.153-2.545-1.522-5.09-1.104-7.637c0.422-2.543,2.006-4.584,4.732-6.109c1.479-0.764,5.206-1.75,11.2-2.959
			s13.511-2.322,22.556-3.342c9.041-1.018,19.088-1.781,30.122-2.291C492.607,6.783,503.75,6.811,515,7.386
			c11.242,0.572,22.242,1.849,32.966,3.82c10.728,1.975,20.188,4.965,28.392,8.975c8.207,4.009,14.828,9.166,19.877,15.466
			C601.272,41.957,603.688,49.691,603.48,58.855z M578.875,53.507c0.213-2.672-1.526-5.217-5.206-7.637
			c-3.685-2.414-9.199-4.484-16.562-6.203c-7.365-1.721-16.457-3.023-27.283-3.916c-10.838-0.887-23.299-1.145-37.385-0.764
			c0.207,1.021,0.314,2.069,0.314,3.149c0,1.084,0,2.263,0,3.533c-0.215,6.109-0.523,12.252-0.941,18.424
			c-0.427,6.177-0.951,12.252-1.58,18.232c9.463,0,19.351-0.729,29.661-2.189c10.298-1.467,19.761-3.342,28.392-5.635
			c8.619-2.291,15.772-4.9,21.443-7.828C575.408,59.746,578.455,56.691,578.875,53.507z"/>
		<path class="st7" d="M698.882,12.501c15.774,0.428,31.91,1.031,48.421,1.812c16.511,0.782,33.281,1.596,50.321,2.448
			c-0.426,1.99-1.377,4.295-2.836,6.922c-1.481,2.627-3.741,5.255-6.788,7.88c-3.048,2.627-6.937,5.146-11.669,7.561
			c-4.731,2.416-10.572,4.334-17.509,5.748c-7.994,0.287-15.673,0.533-23.03,0.746c-7.369,0.215-14.409,0.463-21.136,0.746
			c-0.423,10.793-1.215,21.617-2.372,32.477c-1.156,10.861-2.363,20.765-3.626,29.707c-1.475,10.361-3.048,20.305-4.731,29.814
			l-6.938,10.434l-2.525-0.213l-5.048,7.666c-0.213-0.281-0.526-0.496-0.942-0.639c-0.849-0.281-1.792,0-2.842,0.852
			c-0.42,0.287-1.052,1.139-1.892,2.553c-0.428,0.57-0.74,1.205-0.943,1.918h-2.527l-4.097,4.262l-2.842-5.326
			c-0.424,1.277-0.942,2.48-1.574,3.619c-0.42,0.988-0.845,1.885-1.261,2.664c-0.424,0.777-0.85,1.17-1.266,1.17
			c-0.211-1.137-0.422-3.832-0.63-8.09c-0.211-4.262-0.371-9.549-0.473-15.865c-0.11-6.316-0.268-13.451-0.479-21.402
			c-0.212-7.949-0.421-16.15-0.634-24.598c-0.211-8.443-0.471-16.894-0.782-25.342c-0.314-8.445-0.686-16.433-1.107-23.957
			c-14.306,0.567-25.503,0.995-33.598,1.278c-8.104,0.285-13.515,0.5-16.245,0.64c-4.416,0.141-8.149-0.64-11.2-2.343
			c-3.045-1.705-5.413-3.868-7.097-6.498c-1.682-2.622-2.73-5.461-3.154-8.518c-0.424-3.051-0.262-5.924,0.475-8.625
			c0.739-2.693,1.998-5.004,3.782-6.92c1.788-1.916,4.16-3.016,7.101-3.301c7.998-0.707,16.719-1.205,26.184-1.49
			c9.461-0.283,19.558-0.426,30.283-0.426c1.267-0.854,2.415-1.42,3.469-1.705c1.893-0.426,4.203-0.779,6.94-1.064
			c2.731-0.283,5.621-0.391,8.678-0.317c3.043,0.071,6.096,0.391,9.148,0.957C692.935,10.302,695.929,11.222,698.882,12.501z"/>
	</g>
	<g id="pincel">
		<g>
			<path class="st2" d="M11.108,128.988c-1.581,1.135-3.202,3.104-4.103,4.283c1.706-3.438,3.646-6.76,4.651-10.432
				c-0.731,0.562-1.405,1.178-2.066,1.836c1.012-1.281,2.113-2.57,2.9-3.99c0.225-0.91,0.497-1.734,0.826-2.236l13.486-1.303
				c0.101,0.062,0.354,0.389,0.454,0.455c-0.145-0.148-0.25-0.256-0.255-0.252c0.01-0.021,2.442,1.697,3.037,2.396
				c1.441,1.553,2.559,3.295,3.695,5.066c0.473,0.717,1.395,2.484,1.986,4.15c0.615,1.66,0.934,3.178,0.938,3.176
				c0.014-0.008-0.711-1.656-0.865-2.021c-0.492-1.35-1.267-2.588-2.008-3.799c-0.559-0.904-1.109-1.717-1.666-2.512
				c0.225,0.473,0.432,0.947,0.619,1.428c-0.004-0.111-0.006-0.193-0.006-0.193c-0.044,0.02,0.795,2.092,0.984,2.725
				c0.373,1.516,0.601,3.041,1.141,4.52c0.217,0.598,0.643,2.01,1.113,3.24c0.449,1.238,1.043,2.236,1.059,2.229
				c-0.021,0.029-0.941-1.012-1.059-1.307c-0.492-0.98-1.104-1.93-1.545-2.945c-0.102-0.234-0.184-0.459-0.275-0.688
				c0.031,0.891,0.016,1.777-0.02,2.666c0.045,0.418,0.067,0.836,0.166,1.246c0.059,0.396,0.404,1.803,0.426,1.801
				c0.002,0-0.214-0.373-0.244-0.467c-0.105-0.322-0.264-0.639-0.363-0.971c-0.023-0.08-0.03-0.15-0.052-0.229
				c-0.282,3.904-1.097,7.783-2.021,11.662c-1.611,6.5-3.842,13.125-4.462,19.75c-0.372-1.875-1.611-3.5-2.107-5.375
				c-0.495,0.75-0.743,1.625-0.743,2.625c-1.488-3.125-4.672-7.061-6.445-10.125c-1.734-2.994-2.066-4.625-2.107-8.75
				c-0.992,2-0.868,5-0.248,7c-2.479-4.125-2.975-9.875-2.975-14.5c-0.868,2.875-0.868,6.125-0.992,9.125
				c-1.367-3.779-1.678-8.055-1.561-11.902c-0.63,1.078-1.129,2.246-1.262,3.41c0.133-2.611,0.82-5.07,1.553-7.602
				c0.064-0.623,0.137-1.219,0.212-1.781c-0.722,1-1.452,2.168-2.045,3.318C9.574,132.195,10.706,129.293,11.108,128.988z"/>
			<path class="st7" d="M18.348,151.264c0.025-0.506,0.02-1.025,0.009-1.539c0.569,0.303,0.925,0.982,1.568,1.08
				c0.147-1.652-1.519-3.127-1.456-4.723c0.918,0.836,1.523,2.428,2.697,2.904c-0.092-0.566-0.294-1.508,0.131-1.934
				c0.438,0.287,0.912,0.602,1.324,0.908c0.166-0.572,0.199-1.213,0.367-1.762c1.219,2.643,1.299-1.941,1.464-2.422
				c1.245,0.764,1.798,4.842,3.595,4.404c0.072-0.627,0.295-1.191,0.235-1.877c0.63,0.939,0.989,1.994,1.694,2.936
				c0.748-0.949,0.841-3.709,1.014-4.98c0.322,1.193,0.576,2.838,1.041,4.314c-1.609,6.48-3.83,13.09-4.448,19.697
				c-0.372-1.875-1.611-3.5-2.107-5.375c-0.495,0.75-0.743,1.625-0.743,2.625c-1.488-3.125-4.67-7.061-6.445-10.125
				c-0.961-1.66-1.49-2.902-1.779-4.383c0.104-0.301,0.24-0.586,0.477-0.867C17.258,150.666,17.895,150.955,18.348,151.264z"/>
			<g>
				<path class="st0" d="M17.861,126.342c0.028-0.357,0.023-1.256,0.06-2.059c0.029-0.805,0.098-1.512,0.096-1.512
					c0.002,0,0.166,0.689,0.383,1.455c0.215,0.771,0.484,1.621,0.543,2.025c0.023,0.178,0.041,0.355,0.062,0.531
					c0.025-0.34,0.048-0.869,0.097-1.359c0.058-0.615,0.157-1.146,0.155-1.146c0.002,0,0.123,0.484,0.302,1.029
					c-0.006-0.52-0.062-1.635-0.043-2.646c0.014-1.068,0.114-2.012,0.113-2.012c0.001,0,0.131,0.924,0.367,1.949
					c0.225,1.029,0.555,2.164,0.642,2.705c0.401,2.533,0.755,5.068,1.241,7.67c0.021,0.107,0.043,0.242,0.065,0.385
					c-0.003-0.02-0.005-0.031-0.008-0.051c-0.397-2.012-0.574-4.086-0.581-6.311c-0.005-0.621-0.096-2.184-0.215-3.59
					c-0.111-1.406-0.276-2.654-0.275-2.656c-0.002,0,0.387,1.172,0.748,2.547c0.367,1.371,0.73,2.93,0.828,3.66
					c0.172,1.316,0.316,2.609,0.484,3.895c-0.073-0.625-0.09-1.27,0.019-1.988c0.058-0.455,0.021-2.232,0.029-2.23
					c-0.004,0.006,0.292,0.502,0.569,1.021c-0.07-0.312-0.14-0.619-0.205-0.941c-0.1-0.486-0.449-1.688-0.74-2.775
					c-0.295-1.088-0.492-2.066-0.494-2.066c0.002,0,0.415,0.887,0.938,1.875c0.521,0.99,1.131,2.105,1.336,2.66
					c0.445,1.195,0.822,2.434,1.12,3.695c-0.081-0.688-0.149-1.389-0.185-2.17c-0.012-0.293-0.154-1.008-0.342-1.643
					c-0.184-0.637-0.398-1.189-0.396-1.189c-0.002,0,0.412,0.43,0.831,0.979c0.062,0.08,0.122,0.166,0.185,0.25
					c-0.029-0.168-0.061-0.32-0.087-0.494c-0.071-0.758-1.145-3.617-1.177-3.607c-0.002,0,0.491,0.574,1.004,1.287
					c0.518,0.707,1.045,1.559,1.203,1.988c0.331,0.871,0.559,1.758,0.752,2.65c0-0.164-0.012-0.318,0.006-0.496
					c0.036-0.355-0.23-1.672-0.232-1.672c0-0.006,0.457,0.379,0.822,0.754c-0.085-0.438-0.165-0.885-0.236-1.365
					c-0.044-0.285-0.267-0.967-0.532-1.562c-0.263-0.596-0.563-1.098-0.562-1.098c-0.002,0,0.475,0.346,0.963,0.826
					c0.381,0.367,0.754,0.812,0.976,1.15c-0.257-0.6-0.515-1.213-0.759-1.896c-0.167-0.592-1.531-2.605-1.56-2.59
					c0,0,0.524,0.312,1.092,0.738c0.568,0.418,1.171,0.957,1.382,1.262c0.992,1.432,1.516,3.059,2.173,4.631
					c0.276,0.637,0.686,2.215,0.795,3.645c0.129,1.43-0.015,2.672-0.011,2.67c0.013-0.01-0.373-1.42-0.432-1.723
					c-0.07-0.621-0.27-1.219-0.506-1.801c0.119,1.053,0.169,2.115,0.187,3.182c0.144,1.717-1.201,7.461-1.108,7.471
					c-0.01,0.002-0.178-1.74-0.123-2.123c0.125-1.059,0.088-2.146,0.058-3.205c-0.099,0.504-0.185,0.832-0.183,0.83
					c0.014-0.006-0.169-1.393-0.174-1.688c0.033-0.688-0.099-1.373-0.254-2.047c0,0.006,0,0.012,0,0.018
					c-0.029,0.793-0.196,1.465-0.191,1.463c0.007-0.008-0.32-0.781-0.337-0.943c-0.035-0.613-0.429-1.178-0.638-1.74
					c-0.063-0.166-0.119-0.324-0.179-0.48c0.081,0.443,0.163,0.895,0.253,1.34c0.18,0.846,0.361,2.848,0.332,4.625
					c-0.011,1.775-0.18,3.326-0.176,3.326c0.006-0.008-0.318-1.807-0.344-2.199c-0.037-1.23-0.35-2.449-0.621-3.648
					c0.01,0.697-0.012,1.521-0.062,2.293c-0.086,1.363-0.215,2.555-0.213,2.555c0.001-0.002-0.335-1.389-0.342-1.697
					c-0.014-1-0.285-2-0.463-2.982c0.014,0.203,0.047,0.402,0.055,0.605c0.113,1.135,0.006,3.736,0.073,6.029
					c0.038,2.305,0.538,4.283,0.55,4.279c0.003,0-0.266-0.535-0.49-1.164c-0.232-0.627-0.43-1.344-0.465-1.607
					c-0.27-1.9-0.6-3.846-0.755-5.74c-0.157-1.779-0.252-3.338-0.605-4.834c-0.067-0.311-0.14-0.619-0.214-0.93
					c0.049,0.559,0.103,1.117,0.228,1.674c0.11,0.48,0.208,1.643,0.2,2.68c0,1.041-0.131,1.939-0.127,1.939
					c0.006-0.008-0.359-1.029-0.383-1.252c-0.062-0.826-0.479-1.611-0.704-2.404c-0.19-0.672-0.355-1.299-0.465-1.938
					c0.034,0.24,0.06,0.484,0.097,0.729c0.305,1.67,0.498,3.443,0.615,5.184c0.129,1.422,0.047,4.732-0.447,7.623
					c-0.443,2.902-1.311,5.33-1.319,5.322c-0.003,0,0.144-0.736,0.247-1.561l0.248-2.049c0.395-2.34,0.274-4.768,0.177-7.119
					c-0.096-2.141-0.308-4.088-0.64-5.98c0.18,1.219,0.34,3.383,0.062,5.32c-0.273,2.23-1.096,4.02-1.086,4.016
					c-0.004,0,0.113-0.559,0.19-1.18l0.165-1.543c0.201-1.207,0.105-2.436-0.066-3.646c-0.02,0.295-0.039,0.48-0.039,0.48
					c0.013-0.014-0.373-1.271-0.424-1.539c-0.116-1.016-0.625-1.959-0.945-2.932c-0.006-0.02-0.014-0.041-0.02-0.061
					c0.165,0.902,0.369,2.473,0.436,3.912c0.092,1.664-0.041,3.119-0.039,3.117c0.012-0.01-0.37-1.674-0.424-2.035
					c-0.111-1.338-0.625-2.631-0.958-3.932C18.192,131.014,17.65,128.936,17.861,126.342z"/>
				<path class="st0" d="M14.819,129.203c0.179-0.461,0.703-2.293,0.715-2.287c-0.005,0.004,0.038,0.223,0.094,0.52
					c-0.065-0.779-0.327-2.072-0.346-2.072c-0.006,0.002,0.336,0.4,0.672,0.908c0.052,0.074,0.102,0.156,0.152,0.236
					c-0.016-0.426-0.033-0.949-0.025-1.453c0.006-0.814,0.078-1.529,0.075-1.529c0.003,0,0.163,0.697,0.403,1.465
					c0.232,0.77,0.553,1.604,0.633,2.01c0.369,1.912,0.643,3.826,1.017,5.852c0.431,1.688-0.28,7.561-0.245,7.551
					c-0.004,0.002-0.318-1.717-0.31-2.1c0.021-1.307-0.238-2.623-0.433-3.887c0.006,1.42-0.021,2.852-0.004,2.854
					c-0.002,0.002-0.471-1.166-0.493-1.438c-0.099-0.967-0.484-1.922-0.667-2.877c-0.155-0.797-0.273-1.521-0.354-2.24
					c-0.129,0.801-0.256,1.604-0.209,2.428c0.031,0.52-0.021,1.73,0.002,2.82c0.016,1.09,0.113,2.053,0.109,2.053
					c-0.006,0.006-0.547-1.035-0.578-1.293c-0.141-0.896-0.533-1.785-0.668-2.707C14.117,132.309,14.112,130.834,14.819,129.203z"/>
				<path class="st0" d="M30.533,146.521c-0.449,0.971-0.926,1.77-0.922,1.771c0.002-0.004,0.092-1.123,0.167-1.346
					c0.294-0.807,0.262-1.721,0.363-2.545c0.187-1.557,0.255-2.783,0.809-4.367c0.167-0.439,0.332-2.27,0.326-2.27
					c0.003-0.006,0.471,1.066,0.665,1.803c0.044-0.414,0.086-0.826,0.146-1.27c0.049-0.34,0.059-1.197-0.006-1.973
					c-0.053-0.773-0.191-1.459-0.189-1.459c-0.003,0,0.355,0.6,0.66,1.348c0.314,0.744,0.58,1.623,0.617,2.039
					c0.087,0.979,0.049,1.939-0.015,2.891c-0.048,0.939-0.167,1.963-0.372,2.928c-0.078,0.395-0.277,1.041-0.589,1.736
					c-0.307,0.699-0.714,1.447-1.087,2.148c-0.771,1.387-1.256,2.697-1.248,2.701c-0.027,0.004,0.165-1.668,0.334-2.01
					c0.494-1.227,0.832-2.547,1.143-3.752c0.242-0.92,0.355-1.76,0.411-2.602c-0.107,0.523-0.223,1.047-0.302,1.574
					C31.377,144.396,30.996,145.555,30.533,146.521z"/>
			</g>
			<path class="st1" d="M13.362,116.781c1.04,0.205,3.977,0.025,5.729-0.115c2.336-0.189,4.765-0.189,6.761-0.658
				c1.665-0.395,3.011-3.496-0.661-3.932c0.127-3.98-0.574-17.982-0.9-21.656c1.512-0.436,1.248-2.24,0-2.625
				c1.053-0.535,1.031-2.39-0.412-2.492c1.293-0.735,0.261-3.474-0.174-5.446c-0.517-2.351-14.756-72-19.42-73.572
				C1.908,8.246,6.627,81.473,6.66,82.416c0.072,2.092-0.096,5.039,1.142,5.434c-1.041,0.591-0.882,1.522,0.095,1.917
				c-0.848,0.59-0.756,2.248,0.455,2.166c1.513,7.189,2.633,14.389,5.227,21.363C11.63,113.947,11.63,116.127,13.362,116.781"/>
			<path class="st5" d="M6.658,82.415C6.625,81.475,1.907,8.246,4.283,6.284c-0.6,14.666,6.607,75.938,6.751,76.516
				c-4.419,0.293,0,0-4.353,0.727C6.676,83.141,6.67,82.766,6.658,82.415z"/>
			<path class="st6" d="M7.8,87.848c-1.029-0.327-1.085-2.424-1.118-4.322c4.353-0.727,13.016-1.704,17.436-1.997
				c0.402,1.606,0.712,3.233-0.24,3.776c1.443,0.103,1.467,1.957,0.412,2.49c1.248,0.385,1.512,2.189,0,2.625
				c0.326,3.674,1.027,17.678,0.9,21.656c3.393,0.402,2.5,3.074,1.033,3.791l0.273-0.02c0.098,0.289,0.211,1.012,0.307,1.301
				c-4.106,0.336-9.092,1.012-13.486,1.301c0-0.482,0.043-1.668,0.043-1.668c-1.729-0.654-1.729-2.834,0.217-3.488
				c-2.594-6.975-3.714-14.172-5.227-21.363c-1.213,0.082-1.303-1.574-0.456-2.166C6.918,89.369,6.759,88.438,7.8,87.848z"/>
			<path class="st4" d="M23.074,108.402c0.009,0.002,0.184-3.941,0.004-8.439c-0.146-4.498-0.581-9.543-0.912-11.715
				c-0.802-5.356-1.02-9.829-2.105-15.194c-0.23-1.145-1.266-6.387-2.101-8.524c-0.821-2.144-1.703-5.978-1.709-5.976
				c0.006,0,0.499,3.933,0.884,6.104c0.395,2.173,0.869,6.64,0.926,7.593c1.029,7.055,1.334,12.547,2.475,19.421
				c0.598,3.689,1.507,7.418,1.739,11.102C22.369,103.797,23.106,108.4,23.074,108.402z"/>
		</g>
		<g>
			<path class="st3" d="M13.229,116.752c0.076,0.029,0.129,0.047,0.121,0.053C13.359,116.799,13.31,116.785,13.229,116.752z"/>
			<path class="st3" d="M26.838,112.385c-0.242-0.154-0.507-0.258-0.776-0.342c-0.134-0.043-0.27-0.076-0.407-0.102
				c-0.134-0.031-0.156-0.029-0.238-0.045c-0.024-0.047-0.001-0.135-0.005-0.211l0.009-0.402l0.006-0.83
				c-0.002-2.217-0.066-4.498-0.137-6.783l-0.269-6.811l-0.167-3.305l-0.181-2.896l0.037-0.012c0.011-0.006,0.132-0.059,0.202-0.107
				c0.164-0.1,0.316-0.23,0.439-0.385c0.253-0.311,0.372-0.725,0.342-1.109c-0.025-0.385-0.179-0.747-0.415-1.032
				c-0.352-0.373-0.272-0.25-0.315-0.291c0.018-0.01,0.031-0.019,0.045-0.03c-0.02,0.021,0.057-0.068,0.107-0.15
				c0.053-0.078,0.096-0.162,0.134-0.248c0.153-0.342,0.2-0.717,0.138-1.082c-0.061-0.363-0.254-0.722-0.551-0.957
				c-0.056-0.051-0.189-0.129-0.191-0.132l-0.016-0.007c-0.007-0.005-0.026-0.004-0.024-0.008l0.022-0.019
				c0.01-0.02-0.012,0.039,0.077-0.145c0.118-0.263,0.166-0.521,0.187-0.763c0.041-0.483-0.01-0.92-0.073-1.324
				c-0.131-0.811-0.327-1.512-0.483-2.133c-2.717-12.72-5.429-25.327-8.408-37.817c-1.49-6.25-3.025-12.484-4.707-18.697
				c-0.843-3.107-1.718-6.209-2.697-9.289c-0.492-1.539-1.006-3.076-1.592-4.591C6.636,9.573,6.325,8.82,5.962,8.083
				C5.781,7.714,5.586,7.35,5.358,6.997C5.239,6.822,5.12,6.646,4.97,6.481C4.755,6.239,4.503,6.079,4.231,5.973
				C4.074,6.116,3.955,6.272,3.869,6.5C3.785,6.76,3.753,6.906,3.726,7.055c-0.06,0.312-0.099,0.619-0.133,0.928
				C3.527,8.596,3.489,9.208,3.458,9.822c-0.061,1.225-0.084,2.449-0.096,3.675c-0.071,6.826,0.362,18.936,1.055,32.612
				c0.344,6.838,0.749,14.068,1.177,21.227l0.655,10.627c0.096,1.742,0.248,3.473,0.3,5.162c0.018,0.848,0.022,1.696,0.111,2.538
				c0.046,0.421,0.113,0.841,0.245,1.249c0.119,0.396,0.41,0.861,0.657,0.922c0.067,0.014,0.014,0.038-0.021,0.059
				c-0.034,0.021-0.07,0.041-0.101,0.068c-0.071,0.055-0.11,0.09-0.197,0.188c-0.159,0.182-0.272,0.429-0.263,0.689
				c0.003,0.262,0.141,0.496,0.309,0.664c0.095,0.096,0.169,0.146,0.232,0.186c0.055,0.047,0.181,0.07,0.187,0.113
				c-0.262,0.152-0.556,0.801-0.461,1.299c0.034,0.26,0.145,0.521,0.354,0.701c0.205,0.188,0.511,0.246,0.655,0.227
				c0.06,0.166,0.11,0.486,0.173,0.768l0.179,0.854l0.341,1.678l0.656,3.23c0.428,2.098,0.853,4.074,1.291,5.893
				c0.854,3.625,1.842,6.697,2.625,8.826c-0.653,0.205-1.247,0.764-1.393,1.34c-0.176,0.586,0.004,1.121,0.236,1.451
				c0.172,0.224,0.335,0.361,0.486,0.469c-0.158-0.117-0.334-0.284-0.501-0.531c-0.226-0.344-0.362-0.893-0.164-1.449
				c0.189-0.559,0.714-1.033,1.402-1.254c-1.025-2.826-2.131-6.752-2.959-10.703c-0.424-1.971-0.808-3.947-1.162-5.779l-0.512-2.623
				l-0.237-1.201c-0.085-0.396-0.132-0.707-0.257-1.205c-0.471,0.023-0.602-0.074-0.771-0.254C7.544,91.357,7.49,91.119,7.491,90.9
				c0.001-0.225,0.058-0.432,0.146-0.602c0.044-0.146,0.342-0.416,0.539-0.555c-0.035-0.051-0.17-0.088-0.24-0.129
				c-0.131-0.066-0.262-0.133-0.366-0.213c-0.072-0.057-0.135-0.121-0.185-0.191c-0.104-0.141-0.159-0.307-0.136-0.471
				c0.02-0.164,0.108-0.322,0.232-0.456c0.141-0.183,0.542-0.351,0.616-0.481C7.892,87.719,7.63,87.6,7.505,87.477
				c-0.094-0.104-0.157-0.213-0.219-0.338c-0.119-0.243-0.191-0.522-0.248-0.803c-0.109-0.562-0.147-1.146-0.171-1.729
				c-0.032-1.165-0.032-2.363-0.124-3.536l-0.406-7.072L5.586,59.818c-0.469-9.466-0.898-18.939-1.229-28.374
				c-0.15-4.358-0.274-8.63-0.33-12.831c-0.024-2.103-0.034-4.187,0.002-6.25c0.021-1.032,0.051-2.061,0.115-3.077
				c0.031-0.508,0.073-1.015,0.135-1.509C4.312,7.531,4.348,7.284,4.4,7.053l0.031-0.137C4.434,6.91,4.438,6.898,4.446,6.896
				c0.018,0.011,0.018,0.008,0.042,0.036c0.117,0.127,0.225,0.285,0.33,0.443C5.025,7.698,5.21,8.047,5.385,8.404
				C5.733,9.119,6.04,9.865,6.33,10.616c0.577,1.504,1.087,3.035,1.572,4.567c0.969,3.072,1.833,6.158,2.665,9.244
				c1.66,6.174,3.174,12.353,4.658,18.584c1.481,6.232,2.922,12.523,4.364,18.949l2.163,9.748l1.086,4.967
				c0.37,1.66,0.695,3.365,1.165,5.03c0.12,0.48,0.259,1.038,0.331,1.663c0.035,0.311,0.051,0.643-0.003,0.971
				c-0.028,0.162-0.074,0.323-0.153,0.467c-0.111,0.197-0.429,0.416-0.664,0.574c0.235,0.05,0.875,0.116,0.992,0.278
				c0.192,0.146,0.326,0.371,0.377,0.626c0.051,0.256,0.022,0.537-0.085,0.789c-0.063,0.135-0.102,0.224-0.24,0.368
				c-0.141,0.136-0.356,0.268-0.534,0.367c0.834,0.264,1.123,0.693,1.197,1.261c0.025,0.273-0.053,0.561-0.227,0.785
				c-0.189,0.227-0.387,0.361-0.799,0.488l0.23,3.133l0.199,3.223l0.342,6.719c0.099,2.268,0.188,4.543,0.221,6.762v1.656
				l-0.004,0.209c-0.014,0.078,0.114,0.039,0.164,0.062c0.139,0.016,0.272,0.045,0.402,0.07c0.26,0.062,0.52,0.137,0.756,0.254
				c0.476,0.221,0.894,0.627,0.996,1.15c0.101,0.518-0.067,1.051-0.35,1.467c-0.284,0.42-0.685,0.762-1.15,0.922
				c-0.472,0.131-0.946,0.209-1.411,0.279c-0.932,0.137-1.831,0.201-2.684,0.258c-1.705,0.09-3.217,0.229-4.484,0.312
				c-2.477,0.184-3.99,0.061-4.056,0.014l0.001-0.053l-0.003,0.052c-0.001-0.001-0.011-0.002-0.011-0.003
				c0,0.001,0.01,0.002,0.011,0.003l-0.047,0.829l-0.031,0.691c-0.067,0.197,0.157,0.107,0.215,0.121l0.192-0.012
				c1.327-0.094,2.672-0.172,4.001-0.293c2.478-0.225,4.528-0.461,6.969-0.783l2.146-0.236c-0.166-0.623-0.27-1.133-0.308-1.25
				c0.24-0.147,0.458-0.336,0.638-0.555c0.335-0.41,0.59-0.936,0.573-1.521C27.712,113.236,27.329,112.674,26.838,112.385z
				 M26.567,116.236l0.073,0.418l0.087,0.439l-1.176,0.066l-0.963,0.076l-5.703,0.643l-4.189,0.426l-1.154,0.1
				c-0.086-0.008-0.188,0.043-0.199-0.014v-0.23l0.005-0.459l0.018-0.867c0.065,0.047,1.541,0.186,3.971,0.041
				c1.246-0.066,2.73-0.189,4.412-0.256c0.841-0.043,1.73-0.094,2.658-0.207c0.465-0.055,0.937-0.131,1.416-0.236
				c0.239-0.047,0.465-0.146,0.675-0.273C26.511,115.954,26.535,116.056,26.567,116.236z"/>
			<path class="st3" d="M13.146,116.715c0.032,0.016,0.058,0.027,0.083,0.037C13.206,116.743,13.176,116.729,13.146,116.715z"/>
			<path class="st3" d="M12.85,116.535c0.044,0.033,0.086,0.061,0.127,0.086C12.937,116.598,12.894,116.566,12.85,116.535z"/>
			<path class="st3" d="M12.977,116.621c0.066,0.039,0.118,0.071,0.169,0.094C13.097,116.691,13.039,116.659,12.977,116.621z"/>
			<path class="st3" d="M23.542,81.436c0-0.109-2.736-0.121-3.556-0.018c-1.929,0.19-3.779,0.51-5.697,0.75
				c-1.556,0.168-7.166,1.172-7.148,1.268c-0.002-0.025,1.64-0.238,2.008-0.289c1.309-0.215,2.656-0.323,3.979-0.481
				c2.466-0.29,4.512-0.538,6.945-0.942C20.748,81.59,23.531,81.327,23.542,81.436z"/>
			<path class="st3" d="M14.394,86.629c-1.285,0.188-5.908,1.127-5.89,1.207c-0.004-0.025,1.354-0.229,1.657-0.28
				c1.08-0.203,2.191-0.321,3.284-0.485c2.036-0.304,3.723-0.564,5.72-1c0.556-0.128,2.839-0.504,2.843-0.489
				c-0.002-0.014-2.253,0.132-2.929,0.24C17.495,86.059,15.973,86.379,14.394,86.629z"/>
			<path class="st3" d="M13.614,89.439c2.106-0.305,3.848-0.562,5.92-0.972c0.574-0.131,2.946-0.432,2.954-0.383
				c-0.002-0.048-2.337,0.016-3.038,0.125c-1.645,0.213-3.221,0.529-4.854,0.777c-1.329,0.182-6.108,1.152-6.092,1.221
				c-0.002-0.02,1.402-0.225,1.716-0.277C11.337,89.721,12.485,89.602,13.614,89.439z"/>
			<path class="st3" d="M14.269,91.307c1.969-0.236,3.603-0.434,5.545-0.752c0.54-0.105,2.764-0.309,2.77-0.252
				c0-0.053-2.183-0.072-2.839,0.008c-1.54,0.152-3.021,0.404-4.551,0.598c-0.62,0.078-2.053,0.305-3.324,0.543
				c-1.274,0.229-2.378,0.512-2.376,0.521c0-0.016,1.307-0.213,1.601-0.256C12.138,91.531,13.211,91.439,14.269,91.307z"/>
			<path class="st3" d="M15.382,113.301l2.404-0.041c1.49-0.064,2.731-0.174,4.18-0.482l2.045-0.414l-2.107,0.234
				c-1.142,0.166-2.252,0.334-3.404,0.412c-0.93,0.082-4.334,0.277-4.334,0.27C14.166,113.281,15.16,113.309,15.382,113.301z"/>
		</g>
	</g>
</g>
</svg>
