<svg id="logo-reverse" xmlns="http://www.w3.org/2000/svg" viewBox="0 0 256 60">
<g id="text">
	<path fill="#FFFFFF" d="M2.161,15.403c0.215-0.206,0.775-0.41,1.681-0.617c0.905-0.205,2.018-0.367,3.338-0.481
		c1.319-0.116,2.792-0.14,4.419-0.078c1.626,0.064,3.276,0.265,4.949,0.598c1.673,0.334,3.291,0.835,4.857,1.502
		c1.565,0.668,2.954,1.573,4.166,2.716c1.212,1.144,2.187,2.542,2.923,4.2c0.737,1.656,1.089,3.627,1.06,5.913
		c0,1.67-0.345,3.108-1.035,4.314c-0.691,1.209-1.573,2.235-2.647,3.083c-1.075,0.848-2.287,1.54-3.637,2.08
		c-1.351,0.54-2.678,0.957-3.982,1.253c-1.305,0.296-2.54,0.493-3.706,0.597s-2.102,0.154-2.808,0.154
		c-0.215,0-0.422-0.006-0.622-0.02c-0.2-0.012-0.422-0.032-0.667-0.06l-0.276,0.502l-0.829-0.038l-0.506,1.039l-0.506-0.115
		l-0.185,0.23c-0.123,0.154-0.2,0.232-0.23,0.232c-0.031-0.129-0.054-0.405-0.069-0.828c-0.016-0.424-0.038-0.943-0.069-1.561
		c-0.768-0.23-1.535-0.57-2.302-1.019c-0.769-0.45-1.466-1.028-2.095-1.734c-0.63-0.706-1.136-1.579-1.519-2.62
		c-0.384-1.04-0.576-2.279-0.576-3.718c0.123-0.23,0.245-0.397,0.368-0.5c0.092-0.078,0.185-0.097,0.276-0.058
		c0.092,0.037,0.139,0.237,0.139,0.597c0,0.257,0.138,0.54,0.414,0.847c0.277,0.309,0.652,0.611,1.128,0.906
		s1.051,0.578,1.727,0.848c0.675,0.27,1.427,0.494,2.256,0.674c-0.032-1.104-0.069-2.261-0.116-3.468s-0.092-2.394-0.138-3.564
		c-0.046-1.168-0.1-2.297-0.161-3.389c-0.062-1.091-0.139-2.1-0.231-3.025c-0.583,0.104-1.159,0.207-1.726,0.309
		c-0.569,0.103-1.144,0.23-1.726,0.385c-0.369-0.154-0.729-0.481-1.083-0.981c-0.353-0.501-0.621-1.073-0.805-1.714
		c-0.185-0.642-0.246-1.271-0.185-1.888C1.486,16.289,1.731,15.788,2.161,15.403z M11.876,34.664
		c-0.031-0.591-0.039-1.175-0.023-1.753s0.023-1.098,0.023-1.559v-1.58l-0.415,4.893h0.229L11.876,34.664L11.876,34.664z
		 M25.688,27.807c0.03-0.617-0.261-1.284-0.875-2.003c-0.615-0.718-1.481-1.406-2.601-2.06c-1.121-0.655-2.447-1.247-3.982-1.773
		c-1.536-0.525-3.193-0.905-4.973-1.136c-0.031,1.13-0.069,2.337-0.115,3.622c-0.046,1.284-0.092,2.548-0.138,3.795
		c-0.046,1.246-0.101,2.42-0.162,3.524c-0.062,1.104-0.107,2.057-0.138,2.85c1.442-0.103,2.923-0.378,4.443-0.826
		c1.519-0.449,2.9-0.996,4.143-1.639c1.243-0.641,2.271-1.342,3.084-2.099C25.189,29.303,25.626,28.553,25.688,27.807z"/>
	<path fill="#FFFFFF" d="M55.955,24.52c0,0.952-0.171,1.797-0.514,2.536c-0.342,0.739-0.793,1.391-1.352,1.953
		c-0.56,0.563-1.221,1.059-1.983,1.483c-0.762,0.427-1.562,0.791-2.402,1.09c0.902,1.302,1.532,2.686,1.89,4.149
		c0.357,1.465,0.365,2.775,0.023,3.926c0.062-0.877,0.016-1.678-0.14-2.404c-0.156-0.727-0.342-1.352-0.56-1.877
		c-0.279-0.625-0.591-1.177-0.933-1.652c0.311,0.9,0.575,1.766,0.793,2.592c0.187,0.701,0.334,1.408,0.443,2.123
		c0.109,0.713,0.086,1.27-0.069,1.67c-0.031-0.024-0.055-0.049-0.07-0.074c-0.016-0.025-0.04-0.051-0.071-0.076l-0.093-0.076
		c-0.093,0.151-0.202,0.275-0.326,0.377c-0.094,0.1-0.187,0.193-0.28,0.281s-0.171,0.131-0.233,0.131
		c-0.062,0.025-0.156,0.045-0.279,0.057c-0.125,0.012-0.266,0.031-0.42,0.057c-0.156,0.024-0.326,0.063-0.513,0.113l-0.42-0.375
		c-0.466-1.478-1.183-2.861-2.146-4.15s-1.959-2.461-2.985-3.513c-0.839,0.101-1.617,0.164-2.333,0.187
		c-0.715,0.027-1.322,0.039-1.819,0.039h-0.28c-0.062,0.576-0.109,1.102-0.14,1.576c-0.032,0.477-0.063,0.891-0.093,1.24
		c-0.032,0.4-0.063,0.752-0.094,1.053c-0.062,0.1-0.14,0.201-0.232,0.299c-0.062,0.102-0.14,0.214-0.233,0.339
		c-0.093,0.126-0.203,0.263-0.326,0.413c-0.062,0.102-0.148,0.225-0.257,0.377c-0.109,0.15-0.21,0.312-0.303,0.488
		c-0.125,0.2-0.25,0.413-0.374,0.639c-0.093,0.025-0.202,0.062-0.326,0.112c-0.219,0.102-0.405,0.227-0.561,0.376
		c-0.031,0.05-0.062,0.106-0.093,0.17c-0.032,0.062-0.078,0.145-0.141,0.243c-0.062,0.101-0.109,0.213-0.14,0.339l-0.373-0.038
		l-0.56,0.714L34.45,41.35c-0.125-0.05-0.203-0.076-0.233-0.076c-0.125,0.05-0.226,0.144-0.303,0.281
		c-0.078,0.138-0.164,0.208-0.257,0.208c-0.031-0.152-0.062-0.527-0.092-1.129c-0.032-0.601-0.071-1.352-0.117-2.254
		c-0.047-0.9-0.093-1.922-0.139-3.062c-0.047-1.139-0.087-2.334-0.117-3.587c-0.715-0.351-1.368-0.826-1.959-1.427
		c-0.59-0.602-1.058-1.34-1.399-2.216c-0.031-0.075-0.085-0.288-0.164-0.639c-0.077-0.35-0.086-0.65-0.022-0.9
		c0.062,0.25,0.146,0.52,0.256,0.808c0.109,0.288,0.226,0.563,0.35,0.827c0.123,0.263,0.256,0.493,0.396,0.694
		c0.14,0.201,0.271,0.338,0.396,0.414c-0.436-0.727-0.731-1.409-0.886-2.047c-0.156-0.639-0.172-1.171-0.047-1.597
		c0.249,0.626,1.229,1.214,2.939,1.766c-0.062-1.252-0.133-2.467-0.21-3.644c-0.078-1.177-0.148-2.278-0.21-3.305
		c-0.902,0.101-1.851,0.25-2.846,0.45c-0.374-0.099-0.73-0.356-1.073-0.77c-0.342-0.413-0.598-0.869-0.77-1.371
		c-0.17-0.5-0.225-1.001-0.163-1.503c0.062-0.5,0.295-0.901,0.699-1.202c0.218-0.15,0.77-0.343,1.657-0.582
		c0.886-0.237,1.997-0.457,3.335-0.657c1.337-0.201,2.822-0.351,4.455-0.451c1.633-0.1,3.281-0.094,4.945,0.02
		c1.664,0.112,3.289,0.363,4.875,0.751c1.586,0.389,2.985,0.977,4.198,1.766c1.212,0.789,2.193,1.804,2.939,3.042
		C55.63,21.195,55.986,22.717,55.955,24.52z M52.317,23.468c0.031-0.525-0.227-1.027-0.769-1.502
		c-0.544-0.476-1.36-0.883-2.449-1.221c-1.089-0.338-2.434-0.595-4.036-0.77c-1.601-0.174-3.444-0.225-5.527-0.15
		c0.03,0.201,0.047,0.408,0.047,0.62c0,0.213,0,0.446,0,0.696c-0.032,1.202-0.078,2.41-0.141,3.624
		c-0.062,1.215-0.14,2.411-0.232,3.587c1.399,0,2.86-0.144,4.385-0.432c1.523-0.288,2.923-0.658,4.198-1.11
		c1.275-0.45,2.333-0.963,3.172-1.54C51.803,24.695,52.254,24.094,52.317,23.468z"/>
	<path fill="#FFFFFF" d="M55.971,26.827c-0.049-1.988,0.037-3.776,0.257-5.363s0.489-2.935,0.809-4.044
		c0.319-1.108,0.662-1.979,1.03-2.61c0.367-0.631,0.649-0.984,0.846-1.061c0.735-0.267,1.618-0.325,2.648-0.172
		c1.031,0.153,1.986,0.401,2.869,0.745c0.882,0.344,1.619,0.728,2.207,1.148c0.589,0.422,0.833,0.784,0.735,1.09
		c-1.226,3.977-1.827,7.16-1.802,9.55c0.024,2.391,0.331,4.236,0.92,5.535c0.588,1.303,1.262,2.162,2.022,2.582
		c0.76,0.422,1.237,0.631,1.435,0.631c0.342,0.04,0.894-0.094,1.656-0.4c0.759-0.305,1.518-0.822,2.279-1.549
		c0.76-0.727,1.423-1.662,1.987-2.81c0.562-1.148,0.846-2.562,0.846-4.245c0-1.988-0.123-3.642-0.368-4.961
		c-0.245-1.319-0.514-2.361-0.809-3.125c-0.344-0.918-0.711-1.605-1.104-2.065l-0.295-0.058c0.147-0.037,0.269-0.076,0.369-0.115
		c0.195-0.076,0.268-0.172,0.221-0.287c-0.05-0.038-0.136-0.095-0.258-0.172c-0.123-0.076-0.184-0.153-0.184-0.229
		s0.048-0.201,0.146-0.373c0.098-0.173,0.342-0.316,0.736-0.43c0.932-0.306,1.987-0.315,3.164-0.029
		c1.176,0.287,2.28,0.918,3.311,1.893c1.03,0.976,1.9,2.314,2.611,4.015c0.71,1.702,1.041,3.796,0.993,6.282
		c-0.049,2.142-0.405,4.159-1.067,6.051c-0.662,1.891-1.606,3.547-2.832,4.96c-1.227,1.417-2.711,2.534-4.45,3.357
		c-1.743,0.822-3.667,1.214-5.775,1.176c-2.404-0.038-4.537-0.545-6.401-1.52c-1.864-0.976-3.434-2.199-4.708-3.671
		c-1.275-1.473-2.257-3.079-2.942-4.818C56.387,29.993,56.019,28.358,55.971,26.827z"/>
	<path fill="#FFFFFF" d="M4.646,57.536c-0.198-0.383-0.34-0.971-0.431-1.488c-0.09-0.518,0.199-1.054,0.202-1.608
		c0.004-0.554,0.374-1.106,0.445-1.655c0.072-0.55,0.506-1.053,0.639-1.509c0.132-0.456,0.29-0.845,0.473-1.163
		c0.183-0.32,0.043-0.523,0.247-0.611l-0.003,0.043C6.216,49.56,6.207,49.58,6.19,49.608l0.382-0.26l0.032,0.18
		c0.095-0.051,0.183-0.104,0.262-0.158c0.079-0.038,0.157-0.069,0.234-0.094c0.078-0.022,0.131-0.027,0.159-0.009
		c0.103,0.051,0.272,0.116,0.509,0.193c0.118,0.038,0.243,0.076,0.377,0.117l-0.127,0.19c-0.118,0.568-0.185,1.143-0.198,1.727
		c-0.013,0.584,0.005,1.158,0.053,1.725s0.126,1.113,0.23,1.639s0.215,1.021,0.332,1.488c0.093,0.378,0.048,0.678-0.136,0.9
		c-0.183,0.224-0.437,0.379-0.762,0.465c-0.325,0.086-0.793,0.417-1.198,0.365C5.935,58.024,5.434,58.118,4.646,57.536z"/>
	<path fill="#FFFFFF" d="M135.461,38.958c0,0.126,0.088,0.35,0.266,0.669c0.174,0.317,0.352,0.647,0.527,0.987
		c0.174,0.339,0.352,0.668,0.529,0.986c0.174,0.318,0.264,0.52,0.264,0.605c-0.072,0.467-0.176,0.859-0.318,1.176
		c-0.141,0.318-0.283,0.605-0.422,0.861c-0.143,0.17-0.371,0.309-0.688,0.413c-0.314,0.106-0.547,0.202-0.688,0.286
		c-0.141,0.128-0.193,0.225-0.158,0.287s-0.018,0.137-0.16,0.223c-0.141,0.085-0.316,0.147-0.529,0.189
		c-0.211,0.043-0.389,0.105-0.527,0.191c-0.354,0.084-0.74,0.127-1.164,0.127h-0.529c-1.127,0-2.645-0.859-4.545-2.578
		c-1.906-1.721-3.951-3.981-6.137-6.781c-0.353,0.086-0.724,0.17-1.11,0.254c-0.389,0.086-0.794,0.17-1.214,0.255
		c-1.2-0.085-2.751-0.096-4.655-0.032c-1.904,0.062-3.95,0.159-6.136,0.285c-2.185,0.128-4.39,0.287-6.611,0.479
		c-2.221,0.19-4.215,0.35-5.976,0.478c-1.201,1.401-2.452,2.792-3.755,4.172c-1.307,1.38-2.664,2.749-4.073,4.107
		c-0.284,0.083-0.46,0-0.528-0.255c-0.072-0.256-0.284-0.468-0.635-0.637c-0.143-0.085-0.39-0.075-0.741,0.033
		c-0.352,0.104-0.634,0.096-0.845-0.033c-0.073-0.043-0.142-0.182-0.213-0.414c-0.071-0.232-0.142-0.454-0.213-0.67l-0.21-0.891
		c-0.283,0-0.564-0.063-0.846-0.189c-0.564-0.17-0.95-0.467-1.164-0.893c-0.07-0.085-0.089-0.243-0.052-0.479
		c0.035-0.23,0.087-0.518,0.161-0.859c0.068-0.34,0.138-0.741,0.209-1.21c-0.209,0.171-0.422,0.297-0.635,0.383
		c-0.423,0.169-0.671,0.169-0.739,0c-0.143-0.425-0.228-0.84-0.265-1.241c-0.035-0.404,0.019-0.775,0.159-1.115
		c0.494-0.891,1.498-2.515,3.015-4.871c1.515-2.356,3.156-5.168,4.919-8.438c1.762-3.269,3.4-6.888,4.919-10.857
		c1.515-3.969,2.519-8.013,3.015-12.129c4.23-0.34,7.631-0.456,10.208-0.351c2.571,0.105,4.494,0.393,5.764,0.859
		c2.045-0.042,3.896,0.181,5.553,0.668c1.658,0.489,2.626,1.433,2.909,2.833c0.211,1.146,0.546,2.728,1.005,4.745
		c0.458,2.016,1.215,4.426,2.274,7.229c1.058,2.802,2.52,5.985,4.388,9.552c1.869,3.567,4.355,7.494,7.459,11.781
		c0.07,0.17,0.053,0.232-0.053,0.189c-0.105-0.04-0.248-0.115-0.422-0.223c-0.176-0.104-0.316-0.189-0.424-0.255
		C135.516,38.798,135.461,38.831,135.461,38.958z M102.249,29.534c2.256-0.042,4.565-0.033,6.928,0.033
		c2.362,0.062,4.67,0.159,6.928,0.286c-1.268-1.824-2.502-3.682-3.702-5.572c-1.2-1.888-2.327-3.788-3.385-5.698
		c-1.129,1.996-2.24,3.895-3.332,5.698C104.593,26.086,103.447,27.834,102.249,29.534z"/>
	<path fill="#FFFFFF" d="M189.617,16.889c0,1.482-0.389,2.798-1.164,3.948c-0.775,1.151-1.797,2.165-3.066,3.041
		c-1.271,0.878-2.77,1.647-4.496,2.31c-1.727,0.665-3.543,1.228-5.447,1.696c2.045,2.028,3.471,4.182,4.285,6.463
		c0.809,2.281,0.826,4.318,0.053,6.113c0.139-1.365,0.035-2.611-0.318-3.744c-0.354-1.13-0.775-2.104-1.27-2.925
		c-0.635-0.975-1.34-1.833-2.115-2.573c0.705,1.404,1.305,2.75,1.797,4.035c0.422,1.092,0.758,2.195,1.006,3.305
		c0.246,1.111,0.193,1.98-0.16,2.604c-0.072-0.039-0.125-0.078-0.16-0.118c-0.035-0.038-0.09-0.076-0.158-0.118l-0.213-0.117
		c-0.211,0.233-0.461,0.43-0.74,0.585c-0.211,0.157-0.422,0.302-0.633,0.438c-0.213,0.136-0.389,0.204-0.529,0.204
		c-0.143,0.038-0.354,0.067-0.635,0.088c-0.283,0.02-0.6,0.048-0.953,0.088c-0.352,0.038-0.738,0.099-1.162,0.175l-0.951-0.583
		c-1.059-2.301-2.68-4.454-4.865-6.464c-2.186-2.006-4.441-3.83-6.77-5.467c-1.904,0.157-3.666,0.254-5.287,0.292
		c-1.623,0.04-3,0.058-4.127,0.058H150.9c-0.139,0.898-0.246,1.716-0.314,2.457c-0.07,0.742-0.143,1.385-0.211,1.93
		c-0.072,0.625-0.143,1.172-0.211,1.64c-0.143,0.155-0.318,0.312-0.529,0.466c-0.143,0.157-0.318,0.332-0.527,0.526
		c-0.213,0.196-0.463,0.409-0.742,0.645c-0.143,0.157-0.336,0.351-0.582,0.585c-0.248,0.232-0.475,0.488-0.688,0.76
		c-0.283,0.313-0.564,0.644-0.848,0.994c-0.211,0.039-0.459,0.099-0.738,0.176c-0.496,0.156-0.918,0.352-1.27,0.584
		c-0.072,0.078-0.141,0.166-0.213,0.264c-0.07,0.098-0.176,0.226-0.314,0.381c-0.143,0.154-0.248,0.33-0.318,0.525l-0.848-0.059
		l-1.268,1.111l-0.424-0.117c-0.283-0.078-0.459-0.118-0.529-0.118c-0.283,0.077-0.512,0.224-0.688,0.438
		c-0.176,0.214-0.369,0.322-0.582,0.322c-0.072-0.234-0.141-0.82-0.211-1.756c-0.072-0.935-0.158-2.104-0.264-3.508
		s-0.213-2.992-0.316-4.768c-0.105-1.773-0.195-3.634-0.264-5.585c-1.623-0.546-3.105-1.287-4.443-2.224
		c-1.34-0.935-2.398-2.085-3.172-3.451c-0.074-0.117-0.195-0.448-0.373-0.994c-0.176-0.546-0.193-1.014-0.049-1.404
		c0.137,0.39,0.332,0.81,0.58,1.258c0.246,0.449,0.51,0.878,0.793,1.286c0.283,0.409,0.584,0.77,0.9,1.082s0.617,0.527,0.898,0.645
		c-0.988-1.13-1.658-2.194-2.01-3.189c-0.354-0.994-0.389-1.822-0.105-2.486c0.564,0.976,2.785,1.892,6.664,2.75
		c-0.143-1.948-0.301-3.839-0.477-5.673c-0.176-1.833-0.336-3.547-0.477-5.147c-2.045,0.157-4.195,0.39-6.451,0.702
		c-0.846-0.155-1.656-0.555-2.433-1.199c-0.775-0.643-1.357-1.354-1.746-2.134c-0.387-0.781-0.511-1.559-0.37-2.34
		c0.141-0.779,0.672-1.404,1.586-1.871c0.495-0.234,1.745-0.536,3.755-0.907c2.01-0.37,4.531-0.711,7.562-1.023
		s6.4-0.546,10.102-0.702c3.703-0.156,7.439-0.146,11.213,0.029c3.77,0.175,7.457,0.565,11.053,1.17
		c3.596,0.604,6.77,1.521,9.52,2.749c2.75,1.228,4.971,2.808,6.664,4.737C188.877,11.713,189.686,14.082,189.617,16.889z
		 M181.367,15.251c0.07-0.818-0.512-1.599-1.746-2.339c-1.236-0.741-3.084-1.375-5.553-1.901c-2.471-0.526-5.52-0.926-9.148-1.198
		c-3.635-0.272-7.812-0.351-12.535-0.234c0.07,0.312,0.105,0.634,0.105,0.964c0,0.333,0,0.693,0,1.083
		c-0.072,1.871-0.176,3.752-0.316,5.644c-0.143,1.892-0.318,3.753-0.529,5.584c3.174,0,6.488-0.223,9.945-0.671
		c3.453-0.45,6.627-1.023,9.52-1.726c2.891-0.702,5.289-1.501,7.189-2.398C180.205,17.163,181.227,16.226,181.367,15.251z"/>
	<path fill="#FFFFFF" d="M221.604,2.691c5.289,0.13,10.701,0.315,16.236,0.554c5.535,0.24,11.158,0.488,16.873,0.75
		c-0.145,0.61-0.463,1.315-0.951,2.12c-0.496,0.805-1.254,1.609-2.275,2.414c-1.023,0.805-2.326,1.576-3.914,2.316
		c-1.586,0.741-3.545,1.327-5.871,1.76c-2.68,0.089-5.254,0.164-7.721,0.229c-2.473,0.065-4.832,0.141-7.088,0.229
		c-0.141,3.306-0.406,6.621-0.795,9.947c-0.387,3.328-0.793,6.361-1.215,9.1c-0.494,3.175-1.021,6.22-1.588,9.133l-2.326,3.195
		l-0.846-0.065l-1.693,2.349c-0.072-0.087-0.176-0.151-0.316-0.195c-0.283-0.087-0.602,0-0.953,0.26
		c-0.141,0.089-0.352,0.349-0.633,0.782c-0.145,0.174-0.248,0.369-0.316,0.588h-0.848l-1.373,1.306l-0.953-1.632
		c-0.143,0.393-0.316,0.761-0.529,1.108c-0.139,0.304-0.283,0.577-0.422,0.817c-0.143,0.238-0.283,0.357-0.424,0.357
		c-0.07-0.348-0.141-1.174-0.211-2.478c-0.07-1.306-0.125-2.925-0.158-4.86c-0.037-1.935-0.092-4.12-0.16-6.556
		c-0.07-2.435-0.141-4.947-0.213-7.534c-0.072-2.586-0.158-5.174-0.262-7.763c-0.107-2.586-0.23-5.033-0.373-7.338
		c-4.797,0.174-8.551,0.306-11.264,0.392c-2.719,0.088-4.533,0.153-5.447,0.196c-1.482,0.044-2.734-0.196-3.756-0.717
		c-1.021-0.522-1.816-1.185-2.379-1.99c-0.564-0.803-0.916-1.673-1.059-2.609c-0.141-0.935-0.088-1.814,0.16-2.642
		c0.248-0.825,0.67-1.532,1.266-2.12c0.602-0.587,1.396-0.924,2.383-1.011c2.682-0.217,5.605-0.369,8.779-0.457
		c3.172-0.086,6.557-0.13,10.154-0.13c0.422-0.262,0.809-0.436,1.162-0.522c0.633-0.131,1.408-0.239,2.328-0.326
		c0.914-0.087,1.885-0.118,2.908-0.098c1.02,0.022,2.043,0.12,3.068,0.294C219.611,2.018,220.615,2.299,221.604,2.691z"/>
</g>
<g id="pincel">
	<g>
		<path fill="#7C7C7F" d="M43.546,55.597c-0.939,1.264-2.691,2.643-3.75,3.418c3.183-1.591,6.224-3.341,9.71-4.449
			c-0.468,0.59-1,1.143-1.572,1.69c1.145-0.865,2.287-1.799,3.593-2.515c0.869-0.258,1.646-0.541,2.102-0.831l-0.197-9.927
			c-0.073-0.065-0.417-0.217-0.496-0.281c0.163,0.089,0.278,0.154,0.275,0.158c0.021-0.008-1.929-1.6-2.677-1.96
			c-1.678-0.888-3.506-1.521-5.368-2.163c-0.751-0.27-2.586-0.758-4.282-1.018c-1.693-0.276-3.214-0.352-3.212-0.354
			c0.006-0.011,1.701,0.346,2.076,0.421c1.374,0.219,2.674,0.653,3.94,1.067c0.947,0.314,1.801,0.631,2.64,0.953
			c-0.485-0.115-0.976-0.216-1.463-0.305c0.109-0.008,0.188-0.016,0.188-0.016c-0.016,0.034-2.135-0.361-2.775-0.436
			c-1.524-0.116-3.044-0.123-4.55-0.365c-0.609-0.096-2.04-0.26-3.295-0.477c-1.264-0.2-2.306-0.527-2.298-0.539
			c-0.026,0.018,1.094,0.578,1.396,0.633c1.014,0.257,2.008,0.604,3.054,0.821c0.241,0.048,0.47,0.085,0.704,0.129
			c-0.876,0.069-1.745,0.173-2.61,0.286c-0.414,0.012-0.825,0.037-1.24,0.008c-0.393-0.002-1.808-0.107-1.808-0.124
			c0,0,0.388,0.117,0.482,0.131c0.329,0.043,0.654,0.126,0.99,0.163c0.081,0.009,0.153,0.008,0.23,0.016
			c-3.796,0.604-7.506,1.596-11.203,2.663c-6.191,1.836-12.438,4.136-18.859,5.267c1.877,0.076,3.604,0.811,5.495,0.979
			c-0.68,0.437-1.511,0.706-2.49,0.81c3.223,0.759,7.424,2.667,10.621,3.642c3.123,0.95,4.756,1.025,8.801,0.632
			c-1.851,0.925-4.803,1.144-6.83,0.897c4.311,1.377,9.998,1.147,14.528,0.672c-2.722,0.926-5.906,1.26-8.831,1.656
			c3.851,0.605,8.071,0.393,11.83-0.089c-0.988,0.568-2.078,1.051-3.203,1.267c2.543-0.363,4.877-1.115,7.275-1.906
			c0.603-0.111,1.179-0.224,1.723-0.337c-0.9,0.629-1.965,1.276-3.028,1.825C40.571,57.039,43.291,55.919,43.546,55.597z"/>
		<path fill="#FFFFFF" d="M20.937,52.625c0.492-0.071,1.004-0.12,1.506-0.163c-0.356-0.385-1.063-0.571-1.229-1.031
			c1.604-0.275,3.229,0.783,4.786,0.574c-0.919-0.58-2.545-0.856-3.14-1.661c0.566,0.011,1.507,0.061,1.878-0.292
			c-0.329-0.289-0.687-0.601-1.034-0.868c0.542-0.179,1.167-0.27,1.685-0.448c-2.722-0.615,1.761-1.141,2.213-1.31
			c-0.884-0.824-4.939-0.812-4.708-2.159c0.606-0.117,1.136-0.337,1.812-0.363c-0.987-0.361-2.061-0.516-3.059-0.93
			c0.849-0.641,3.542-0.99,4.769-1.247c-1.205-0.112-2.843-0.126-4.341-0.312c-6.173,1.834-12.404,4.124-18.809,5.251
			c1.877,0.077,3.604,0.811,5.495,0.979c-0.68,0.437-1.511,0.707-2.49,0.81c3.223,0.759,7.423,2.667,10.621,3.642
			c1.731,0.527,3.005,0.783,4.485,0.842c0.284-0.105,0.547-0.234,0.799-0.436C21.641,53.354,21.289,52.922,20.937,52.625z"/>
		<g>
			<path fill="#4A4A4B" d="M45.401,50.422c0.349-0.058,1.227-0.146,2.01-0.253c0.783-0.105,1.468-0.228,1.468-0.226
				c0-0.002-0.691-0.05-1.467-0.13c-0.779-0.076-1.642-0.186-2.043-0.186c-0.177,0.001-0.351,0.006-0.527,0.009
				c0.33-0.055,0.846-0.124,1.321-0.21c0.598-0.104,1.107-0.231,1.107-0.23c0-0.001-0.49-0.039-1.043-0.112
				c0.509-0.05,1.608-0.122,2.599-0.242c1.047-0.118,1.958-0.288,1.958-0.288s-0.919,0-1.951-0.064
				c-1.033-0.06-2.181-0.181-2.721-0.19c-2.524-0.031-5.046-0.026-7.648-0.114c-0.107-0.005-0.242-0.007-0.38-0.008
				c0.016,0.001,0.031,0,0.047,0.001c2.015,0.082,4.065-0.003,6.245-0.227c0.609-0.06,2.149-0.153,3.539-0.213
				c1.391-0.062,2.63-0.07,2.633-0.072c0,0.002-1.19-0.159-2.577-0.282c-1.382-0.125-2.949-0.229-3.676-0.225
				c-1.308,0.01-2.591,0.035-3.868,0.048c0.62-0.013,1.253-0.065,1.949-0.219c0.439-0.088,2.184-0.243,2.182-0.251
				c-0.005,0.006-0.524-0.158-1.062-0.309c0.31,0.02,0.622,0.039,0.944,0.053c0.487,0.021,1.702,0.154,2.8,0.253
				c1.097,0.103,2.077,0.146,2.077,0.147c0-0.002-0.914-0.211-1.939-0.49c-1.026-0.275-2.186-0.604-2.751-0.697
				c-1.219-0.201-2.473-0.347-3.742-0.436c0.682-0.011,1.376-0.033,2.146-0.088c0.288-0.023,1.005,0.008,1.646,0.08
				c0.643,0.068,1.208,0.167,1.207,0.166c0.001,0.001-0.464-0.256-1.046-0.503c-0.085-0.036-0.176-0.072-0.265-0.108
				c0.167,0.003,0.32,0.011,0.494,0.014c0.75-0.025,3.668,0.459,3.662,0.48c0,0.003-0.616-0.297-1.371-0.596
				c-0.749-0.303-1.639-0.598-2.079-0.67c-0.889-0.15-1.782-0.223-2.678-0.272c0.16-0.019,0.312-0.025,0.485-0.056
				c0.344-0.062,1.663-0.004,1.663-0.003c0.004,0-0.421-0.292-0.828-0.52c0.436,0.017,0.883,0.028,1.363,0.032
				c0.285,0.002,0.977,0.094,1.589,0.226c0.612,0.13,1.136,0.298,1.136,0.297c0,0.001-0.391-0.311-0.917-0.616
				c-0.4-0.237-0.88-0.463-1.233-0.59c0.614,0.126,1.243,0.249,1.943,0.355c0.596,0.062,2.72,0.846,2.705,0.867
				c0,0-0.365-0.349-0.842-0.715c-0.471-0.37-1.064-0.754-1.386-0.875c-1.508-0.574-3.16-0.788-4.771-1.104
				c-0.654-0.135-2.244-0.27-3.657-0.203c-1.415,0.054-2.615,0.285-2.614,0.283c0.008-0.01,1.432,0.125,1.734,0.136
				c0.617-0.013,1.224,0.071,1.819,0.182c-1.044,0.022-2.09,0.095-3.137,0.192c-1.697,0.072-7.177,1.638-7.197,1.57
				c0,0.008,1.725-0.048,2.093-0.127c1.023-0.201,2.093-0.285,3.134-0.371c-0.483,0.123-0.796,0.219-0.794,0.219
				c0.004-0.011,1.382-0.021,1.672-0.049c0.67-0.094,1.356-0.068,2.032-0.025c-0.006,0-0.012,0-0.018,0.001
				c-0.773,0.104-1.413,0.294-1.412,0.29c0.006-0.007,0.799,0.153,0.96,0.148c0.604-0.037,1.2,0.189,1.774,0.283
				c0.169,0.029,0.331,0.055,0.494,0.079c-0.447-0.013-0.895-0.026-1.34-0.047c-0.849-0.044-2.829,0.031-4.567,0.233
				c-1.741,0.19-3.238,0.473-3.238,0.47c0.003-0.006,1.8,0.046,2.191,0.022c1.209-0.098,2.438,0.003,3.642,0.076
				c-0.684,0.064-1.489,0.165-2.239,0.283c-1.326,0.201-2.479,0.418-2.479,0.416c0.001,0,1.396,0.101,1.699,0.074
				c0.981-0.092,1.99,0.001,2.972,0.03c-0.2,0.011-0.398,0.008-0.597,0.022c-1.124,0.033-3.662,0.379-5.916,0.565
				c-2.259,0.207-4.253,0.048-4.251,0.04c0-0.004,0.553,0.136,1.194,0.236c0.64,0.104,1.363,0.174,1.627,0.172
				c1.892,0,3.831,0.041,5.705-0.041c1.76-0.068,3.297-0.159,4.802-0.055c0.31,0.018,0.621,0.037,0.934,0.059
				c-0.552,0.023-1.107,0.04-1.664,0.007c-0.484-0.03-1.632,0.019-2.647,0.13c-1.019,0.107-1.885,0.295-1.885,0.291
				c0.005-0.004,1.047,0.154,1.268,0.148c0.815-0.039,1.63,0.184,2.431,0.266c0.679,0.07,1.311,0.125,1.946,0.139
				c-0.238,0-0.48,0.008-0.722,0.006c-1.669-0.049-3.429-0.008-5.145,0.083c-1.407,0.054-4.641,0.452-7.418,1.108
				c-2.794,0.619-5.078,1.499-5.07,1.504c0,0.002,0.706-0.179,1.5-0.34l1.979-0.39c2.25-0.526,4.64-0.688,6.954-0.859
				c2.107-0.149,4.038-0.196,5.93-0.147c-1.213-0.006-3.351,0.1-5.218,0.5c-2.157,0.428-3.82,1.207-3.815,1.199
				c0,0.003,0.535-0.139,1.135-0.26l1.493-0.276c1.161-0.271,2.372-0.327,3.578-0.325c-0.287,0.043-0.463,0.076-0.463,0.076
				c0.008-0.01,1.282,0.141,1.553,0.15c1.004-0.021,1.988,0.252,2.972,0.384c0.022,0.003,0.042,0.007,0.062,0.009
				c-0.902-0.027-2.462-0.016-3.879,0.084c-1.64,0.104-3.051,0.351-3.049,0.349c0.007-0.009,1.678,0.097,2.04,0.099
				c1.323-0.056,2.646,0.186,3.954,0.293C40.789,50.659,42.883,50.842,45.401,50.422z"/>
			<path fill="#4A4A4B" d="M42.931,52.923c0.432-0.176,2.169-0.744,2.162-0.753c-0.003,0.004-0.223-0.005-0.519-0.016
				c0.772-0.03,2.068,0.025,2.07,0.04c-0.001,0.004-0.431-0.203-0.963-0.395c-0.08-0.032-0.166-0.059-0.249-0.088
				c0.418-0.033,0.934-0.074,1.426-0.131c0.799-0.09,1.491-0.215,1.491-0.213c0-0.002-0.702-0.047-1.479-0.143
				c-0.779-0.09-1.633-0.236-2.038-0.253c-1.913-0.073-3.817-0.073-5.842-0.138c-1.699-0.141-7.374,0.979-7.368,0.953
				c-0.001,0.002,1.714,0.055,2.089,0.008c1.277-0.149,2.595-0.096,3.854-0.085c-1.392,0.142-2.791,0.309-2.795,0.294
				c-0.001,0.004,1.194,0.223,1.464,0.212c0.958-0.027,1.936,0.155,2.891,0.188c0.798,0.032,1.519,0.043,2.233,0.027
				c-0.77,0.176-1.543,0.351-2.355,0.402c-0.513,0.029-1.692,0.192-2.763,0.287c-1.07,0.102-2.023,0.128-2.023,0.131
				c-0.005,0.004,1.074,0.291,1.33,0.287c0.893,0.008,1.807,0.203,2.724,0.208C39.965,53.751,41.41,53.604,42.931,52.923z"/>
			<path fill="#4A4A4B" d="M24.254,43.288c-0.902,0.428-1.634,0.855-1.637,0.852c0.004-0.001,1.091-0.181,1.3-0.258
				c0.756-0.297,1.655-0.366,2.453-0.525c1.503-0.295,2.699-0.471,4.19-1.035c0.41-0.166,2.185-0.475,2.185-0.47
				c0.005-0.003-1.096-0.23-1.836-0.298c0.401-0.074,0.8-0.146,1.226-0.236c0.328-0.07,1.167-0.166,1.933-0.199
				c0.764-0.041,1.45-0.01,1.45-0.012c0,0.004-0.626-0.195-1.393-0.34c-0.763-0.152-1.653-0.254-2.064-0.238
				c-0.966,0.034-1.905,0.163-2.831,0.307c-0.913,0.132-1.903,0.322-2.825,0.568c-0.38,0.099-0.99,0.311-1.639,0.607
				c-0.651,0.295-1.34,0.668-1.986,1.009c-1.274,0.7-2.505,1.188-2.51,1.184c-0.001,0.021,1.615-0.291,1.932-0.448
				c1.146-0.484,2.402-0.865,3.551-1.215c0.873-0.271,1.683-0.438,2.501-0.564c-0.501,0.131-1.001,0.269-1.509,0.379
				C26.243,42.458,25.149,42.854,24.254,43.288z"/>
		</g>
		<path fill="#E0E1E4" d="M55.257,52.71c-0.313-0.735-0.46-2.887-0.512-4.174c-0.069-1.717-0.337-3.479-0.093-4.977
			c0.205-1.25,3.096-2.547,3.923,0.076c3.884-0.5,17.677-1.428,21.312-1.569c0.262-1.144,2.058-1.136,2.571-0.269
			c0.409-0.82,2.228-0.993,2.485,0.043c0.582-1.014,3.375-0.545,5.355-0.434c2.358,0.135,72.135,3.33,74.186,6.555
			c-1.662,1.928-73.908,6.014-74.832,6.086c-2.058,0.162-4.925,0.587-5.446-0.271c-0.464,0.816-1.394,0.797-1.887,0.129
			c-0.486,0.674-2.12,0.78-2.171-0.108c-7.209-0.361-14.382-0.437-21.497-1.603C58.222,53.673,56.086,53.897,55.257,52.71"/>
		<path fill="#B8B8BE" d="M89.652,54.05c0.924-0.073,73.168-4.158,74.831-6.086c-14.301,1.939-75.105,2.992-75.687,2.947
			c0.195,3.239,0,0-0.235,3.234C88.938,54.112,89.306,54.076,89.652,54.05z"/>
		<path fill="#AEADB2" d="M84.205,53.778c0.434,0.713,2.492,0.54,4.357,0.367c0.235-3.234,0.25-9.625,0.054-12.865
			c-1.618-0.127-3.246-0.184-3.673,0.562c-0.257-1.037-2.076-0.863-2.485-0.045c-0.513-0.867-2.31-0.873-2.571,0.27
			c-3.634,0.143-17.428,1.069-21.312,1.569c-0.764-2.422-3.284-1.501-3.826-0.362l-0.01-0.201c-0.293-0.039-1.014-0.048-1.308-0.09
			c0.119,3.018,0.001,6.707,0.197,9.928c0.473-0.051,1.629-0.201,1.629-0.201c0.83,1.188,2.965,0.963,3.393-0.516
			c7.115,1.167,14.288,1.241,21.497,1.603c0.052,0.889,1.686,0.782,2.172,0.108C82.811,54.574,83.741,54.593,84.205,53.778z"/>
		<path fill="#FFFFFF" d="M62.404,44.796c-0.003-0.008,3.841-0.539,8.266-0.871c4.422-0.354,9.411-0.557,11.575-0.538
			c5.333,0.032,9.74-0.269,15.114-0.03c1.146,0.049,6.394,0.265,8.58,0.651c2.189,0.378,6.041,0.624,6.04,0.628
			c0-0.005-3.906,0.04-6.076-0.016c-2.171-0.062-6.599,0.05-7.539,0.107c-7.023-0.023-12.435,0.317-19.294,0.195
			c-3.679-0.057-7.43-0.332-11.062-0.125C66.993,44.835,62.403,44.773,62.404,44.796z"/>
	</g>
	<g>
		<path fill="#666566" d="M164.752,47.692c-0.076-0.098-0.189-0.195-0.332-0.283c-0.143-0.09-0.309-0.166-0.477-0.238l-0.182-0.068
			l-0.143-0.051c-0.377-0.131-0.754-0.231-1.131-0.324c-0.752-0.184-1.502-0.328-2.254-0.46c-1.502-0.262-3-0.47-4.496-0.661
			c-2.994-0.379-5.977-0.681-8.951-0.957c-5.955-0.547-11.885-0.983-17.864-1.379c-11.957-0.785-24.107-1.4-37.039-1.933
			c-0.82-0.034-1.845-0.065-3.044-0.171c-0.6-0.043-1.247-0.092-1.937-0.081c-0.345,0.009-0.702,0.03-1.066,0.108
			c-0.182,0.04-0.366,0.096-0.543,0.187c-0.099,0.055-0.149,0.085-0.198,0.132c-0.053,0.039-0.094,0.107-0.129,0.149
			c-0.021-0.084-0.061-0.164-0.117-0.233l-0.051-0.057l-0.076-0.068c-0.053-0.042-0.11-0.079-0.169-0.112
			c-0.24-0.13-0.51-0.174-0.775-0.167c-0.266,0.006-0.533,0.062-0.781,0.175c-0.124,0.057-0.245,0.128-0.352,0.218
			c-0.076,0.064-0.142,0.143-0.188,0.232c-0.049-0.062-0.116-0.152-0.193-0.211c-0.094-0.077-0.226-0.156-0.35-0.206
			c-0.255-0.107-0.534-0.154-0.812-0.142c-0.277,0.014-0.56,0.088-0.802,0.247c-0.121,0.079-0.229,0.181-0.314,0.302
			c-0.041,0.058-0.081,0.131-0.105,0.186c-0.021,0.05-0.039,0.103-0.051,0.156l-2.527,0.148l-2.667,0.172l-5.456,0.391
			c-3.651,0.283-7.297,0.556-10.605,0.944c-0.155-0.486-0.423-0.945-0.837-1.224c-0.41-0.283-0.931-0.342-1.394-0.244
			c-0.466,0.095-0.895,0.322-1.223,0.635c-0.163,0.158-0.302,0.34-0.385,0.545c-0.043,0.103-0.064,0.208-0.076,0.318
			c-0.016,0.109-0.03,0.217-0.039,0.325c-0.081,0.866-0.029,1.691,0.021,2.458c0.055,0.768,0.116,1.479,0.143,2.129
			c0.059,1.297,0.157,2.336,0.266,3.045c0.103,0.712,0.252,1.072,0.255,1.068c-0.003,0.004-0.147-0.355-0.241-1.064
			c-0.1-0.705-0.185-1.74-0.229-3.035c-0.019-0.65-0.071-1.363-0.118-2.129c-0.042-0.766-0.084-1.588,0.005-2.443
			c-0.053-0.883,0.762-1.531,1.635-1.717c0.439-0.088,0.917-0.027,1.288,0.232c0.186,0.128,0.343,0.299,0.47,0.496
			c0.063,0.1,0.119,0.203,0.167,0.313l0.038,0.091c0.018,0.041,0.033,0.084,0.048,0.127l0.088,0.262l0.753-0.084l0.625-0.062
			l1.271-0.113l2.612-0.205c1.768-0.131,3.582-0.254,5.405-0.371l5.469-0.329l2.693-0.146l2.857-0.128
			c0.033-0.12,0.067-0.239,0.108-0.362c0.02-0.05,0.018-0.039,0.025-0.055l0.016-0.031l0.038-0.058
			c0.053-0.073,0.122-0.138,0.203-0.19c0.164-0.106,0.375-0.164,0.589-0.172s0.435,0.031,0.623,0.113
			c0.045,0.02,0.09,0.044,0.133,0.068l0.061,0.039l0.028,0.021l0.048,0.041c0.165,0.166,0.329,0.469,0.469,0.664
			c0.135-0.22,0.286-0.541,0.449-0.699c0.079-0.066,0.158-0.111,0.251-0.154c0.185-0.083,0.397-0.127,0.601-0.131
			c0.204-0.003,0.401,0.037,0.544,0.117c0.036,0.02,0.068,0.042,0.097,0.064l0.041,0.037c0.027,0.039,0.055,0.074,0.082,0.117
			c0.09,0.251,0.2,0.627,0.273,0.863l0.41-0.602l0.053-0.076l0.053-0.051l0.106-0.103c0.044-0.03,0.065-0.038,0.102-0.058
			c0.136-0.063,0.299-0.109,0.468-0.141c0.341-0.062,0.706-0.074,1.063-0.073c0.717,0.008,1.417,0.075,2.085,0.131
			c1.349,0.124,2.537,0.152,3.527,0.21c12.16,0.603,24.155,1.238,36.12,2.023c5.982,0.396,11.955,0.828,17.931,1.367
			c2.986,0.273,5.975,0.57,8.957,0.943c1.49,0.188,2.98,0.393,4.461,0.648c0.738,0.131,1.475,0.271,2.201,0.447
			c0.361,0.09,0.721,0.186,1.066,0.304l0.225,0.083l0.104,0.045c0.064,0.033,0.135,0.069,0.178,0.131
			c-0.047,0.051-0.127,0.07-0.193,0.093l-0.105,0.029l-0.23,0.056c-0.352,0.078-0.713,0.145-1.076,0.207
			c-0.725,0.122-1.455,0.226-2.188,0.322c-1.465,0.19-2.939,0.352-4.416,0.504c-6.508,0.678-18.127,1.61-31.26,2.529
			c-6.567,0.461-13.512,0.924-20.388,1.365l-10.203,0.645l-2.495,0.154c-0.824,0.055-1.651,0.089-2.464,0.174
			c-0.813,0.076-1.617,0.158-2.413,0.186c-0.397,0.012-0.794,0.01-1.18-0.033c-0.192-0.023-0.382-0.057-0.559-0.116
			c-0.091-0.032-0.165-0.061-0.254-0.115c-0.102-0.071-0.2-0.199-0.284-0.313c-0.034-0.035-0.066,0.06-0.101,0.106
			c-0.035,0.056-0.073,0.11-0.11,0.165c-0.039,0.052-0.079,0.102-0.119,0.141c-0.037,0.037-0.067,0.062-0.103,0.09
			c-0.142,0.107-0.31,0.174-0.483,0.188c-0.173,0.014-0.35-0.022-0.506-0.104c-0.082-0.045-0.142-0.08-0.235-0.168
			c-0.088-0.082-0.171-0.199-0.246-0.275c-0.088,0.113-0.188,0.23-0.301,0.314c-0.082,0.057-0.174,0.106-0.269,0.146
			c-0.191,0.078-0.397,0.123-0.603,0.133c-0.205,0.009-0.414-0.019-0.587-0.101c-0.175-0.096-0.288-0.188-0.318-0.511
			c-0.005-0.007-0.009-0.015-0.016-0.021l-0.034-0.002l-0.068-0.003l-0.135-0.007l-0.243-0.012l-0.435-0.02l-0.86-0.037
			l-1.691-0.068l-3.255-0.13c-2.109-0.087-4.094-0.183-5.925-0.304c-1.831-0.122-3.509-0.27-5.006-0.437
			c-0.749-0.083-1.452-0.171-2.106-0.26l-1.841-0.265c-0.205,0.707-0.727,1.048-1.216,1.195c-0.494,0.144-0.948,0.088-1.277-0.028
			c-0.333-0.118-0.548-0.294-0.675-0.422c-0.126-0.131-0.174-0.212-0.176-0.21c0.002-0.002,0.055,0.088,0.186,0.231
			c0.134,0.136,0.362,0.319,0.709,0.433c0.342,0.115,0.805,0.16,1.295,0.008c0.483-0.14,1-0.541,1.181-1.154
			c1.397,0.221,3.115,0.48,4.958,0.678c1.847,0.203,3.838,0.366,5.826,0.492c1.988,0.129,3.973,0.225,5.81,0.312l2.625,0.125
			l1.197,0.061l0.562,0.029l0.252,0.014l0.09,0.006l0.044,0.002c0.016,0,0.032-0.001,0.028,0.02
			c0.003,0.045,0.016,0.088,0.032,0.129c0.03,0.062,0.075,0.139,0.129,0.192c0.106,0.115,0.239,0.185,0.368,0.231
			c0.261,0.089,0.517,0.091,0.749,0.063c0.233-0.028,0.448-0.094,0.637-0.188c0.048-0.022,0.093-0.049,0.137-0.075l0.062-0.042
			l0.034-0.025c0.045-0.036,0.086-0.076,0.119-0.119c0.036,0.029,0.074,0.084,0.113,0.117c0.02,0.019,0.043,0.039,0.076,0.063
			c0.039,0.028,0.08,0.056,0.122,0.081c0.084,0.048,0.175,0.088,0.269,0.117c0.188,0.057,0.393,0.067,0.587,0.024
			c0.194-0.042,0.375-0.136,0.523-0.263c0.086-0.074,0.106-0.102,0.146-0.15c0.018-0.021,0.033-0.046,0.049-0.068
			c0.015-0.023,0.029-0.065,0.045-0.021c0.027,0.037,0.062,0.07,0.098,0.098c0.02,0.014,0.038,0.025,0.059,0.037
			c0.035,0.021,0.07,0.038,0.105,0.055c0.142,0.066,0.288,0.107,0.433,0.14c0.291,0.062,0.581,0.085,0.869,0.096
			c0.576,0.019,1.146-0.014,1.714-0.055l1.696-0.146c0.563-0.053,1.125-0.074,1.693-0.109l6.806-0.385l13.643-0.787
			c9.104-0.539,18.214-1.104,27.281-1.769c4.5-0.332,8.902-0.677,13.227-1.067c2.162-0.196,4.307-0.403,6.434-0.645
			c1.064-0.122,2.123-0.252,3.18-0.406c0.527-0.077,1.055-0.16,1.584-0.263l0.398-0.081l0.199-0.045l0.283-0.072
			c0.242-0.066,0.488-0.146,0.656-0.252c0.166-0.113,0.24-0.211,0.389-0.353L164.752,47.692z"/>
		<path fill="#666566" d="M53.654,52.853l-0.004-0.076l-0.01-0.193l-0.016-0.39l-0.019-0.781l-0.013-1.563
			c-0.013-1.936,0.006-3.545-0.09-5.465l-0.029-0.648l-0.021-0.443c0.01-0.143-0.085-0.369,0.131-0.287
			c0.611,0.027,1.156,0.046,1.156,0.059c0.001-0.012-0.53-0.058-1.134-0.11l-0.14-0.018l-0.091-0.011l0.002,0.092l0.002,0.262
			l0.002,0.451l0.004,0.701c0.027,1.504,0.058,2.967,0.067,4.471c0.003,0.609,0.032,2.023,0.104,3.283l0.029,0.464l0.016,0.237
			l0.002,0.035c0.001,0.006,0,0.012,0.002,0.016l0.018-0.002l0.067-0.007l0.113-0.014l0.75-0.101l0.705-0.1l-1.562,0.158
			C53.675,52.874,53.647,52.884,53.654,52.853z"/>
		<path fill="#666566" d="M88.583,53.771c-0.004,0.018-0.007,0.03-0.008,0.03C88.577,53.801,88.58,53.788,88.583,53.771z"/>
		<path fill="#666566" d="M88.73,51.577c-0.032,1.072-0.117,2.021-0.147,2.193c0.02-0.081,0.073-0.326,0.114-0.603
			c0.052-0.335,0.097-0.706,0.106-0.841c0.069-0.975,0.177-1.96,0.23-2.939c0.093-1.824,0.13-3.346-0.015-5.154
			c-0.021-0.251-0.056-0.89-0.112-1.463c-0.028-0.288-0.062-0.558-0.1-0.754c-0.036-0.197-0.084-0.313-0.084-0.312
			c0,0,0.036,0.115,0.052,0.311c0.019,0.193,0.027,0.46,0.029,0.746l-0.012,1.521c0.023,1.414,0.07,2.791,0.023,4.205
			C88.795,49.062,88.776,50.392,88.73,51.577z"/>
		<path fill="#666566" d="M84.476,48.865l-0.168,2.559c-0.062,0.983-0.168,1.843-0.188,1.838c0.024,0.007,0.211-0.989,0.227-1.214
			c0.083-0.805,0.202-1.619,0.278-2.43c0.14-1.508,0.227-2.764,0.207-4.268c0-0.418,0.017-2.121,0.001-2.121
			c0.015,0.002-0.159,1.646-0.191,2.147C84.582,46.552,84.565,47.694,84.476,48.865z"/>
		<path fill="#666566" d="M82.253,45.36c-0.03,1.211-0.034,2.391-0.116,3.602l-0.16,2.643c-0.063,1.016-0.167,1.904-0.181,1.9
			c0.017,0.006,0.206-1.023,0.223-1.256c0.083-0.832,0.203-1.673,0.277-2.51c0.134-1.559,0.212-2.859,0.151-4.412L82.41,44.07
			c-0.017-0.493-0.075-0.93-0.081-0.929c0.005,0,0.021,0.425-0.006,0.916C82.301,44.548,82.259,45.102,82.253,45.36z"/>
		<path fill="#666566" d="M80.119,51.195c-0.041,0.948-0.15,1.774-0.159,1.772c0.014,0.004,0.196-0.954,0.206-1.172
			c0.07-0.777,0.164-1.564,0.21-2.348c0.082-1.457,0.108-2.672-0.011-4.117c-0.017-0.201-0.046-0.713-0.09-1.171
			c-0.038-0.46-0.118-0.861-0.125-0.858c0.006-0.001,0.047,0.394,0.043,0.852l-0.008,1.215c0.021,1.13,0.061,2.229,0.021,3.359
			C80.189,49.187,80.169,50.248,80.119,51.195z"/>
		<path fill="#666566" d="M58.193,46.066c-0.038,0.853,0.01,1.68,0.049,2.528c0.01,0.691,0.334,3.172,0.342,3.17
			c-0.001,0-0.04-0.727-0.055-0.89c-0.06-0.58-0.078-1.173-0.107-1.757c-0.052-1.088-0.068-1.988-0.091-3.07
			c-0.017-0.303,0.056-1.529,0.062-1.529C58.387,44.518,58.199,45.7,58.193,46.066z"/>
	</g>
</g>
</svg>
