<?xml version="1.0" encoding="utf-8"?>
<!-- Generator: Adobe Illustrator 15.0.0, SVG Export Plug-In . SVG Version: 6.00 Build 0)  -->
<!DOCTYPE svg PUBLIC "-//W3C//DTD SVG 1.1//EN" "http://www.w3.org/Graphics/SVG/1.1/DTD/svg11.dtd">
<svg version="1.1" id="logo-reverse" xmlns="http://www.w3.org/2000/svg" xmlns:xlink="http://www.w3.org/1999/xlink" x="0px"
	 y="0px" width="800px" height="176px" viewBox="0 0 800 176" style="enable-background:new 0 0 800 176;" xml:space="preserve">
<style type="text/css">
<![CDATA[
	.st0{fill:#7C7C80;}
	.st1{fill:#AEADB3;}
	.st2{fill:#E0E1E5;}
	.st3{fill:#4A4A4B;}
	.st4{fill:#B8B8BE;}
	.st5{fill:#FFFFFF;}
	.st6{fill:#666666;}
]]>
</style>
<g id="text">
	<path class="st5" d="M10.921,45.221c0.646-0.617,2.332-1.233,5.056-1.854c2.722-0.617,6.067-1.103,10.04-1.448
		c3.968-0.349,8.398-0.422,13.291-0.233c4.893,0.194,9.854,0.796,14.887,1.798c5.03,1.006,9.898,2.511,14.607,4.519
		c4.708,2.011,8.884,4.731,12.529,8.169c3.646,3.439,6.578,7.646,8.793,12.631c2.217,4.979,3.276,10.909,3.187,17.783
		c0,5.023-1.038,9.348-3.114,12.977c-2.078,3.636-4.732,6.722-7.962,9.273c-3.233,2.55-6.879,4.631-10.94,6.256
		c-4.062,1.623-8.055,2.876-11.977,3.768c-3.924,0.888-7.639,1.485-11.146,1.795c-3.508,0.31-6.323,0.465-8.446,0.465
		c-0.647,0-1.271-0.021-1.87-0.062c-0.6-0.034-1.27-0.096-2.007-0.177l-0.831,1.509l-2.492-0.116l-1.523,3.127l-1.523-0.347
		l-0.555,0.695c-0.369,0.462-0.602,0.697-0.692,0.697c-0.093-0.39-0.163-1.22-0.208-2.492c-0.048-1.273-0.115-2.837-0.208-4.691
		c-2.308-0.692-4.616-1.717-6.923-3.065c-2.311-1.354-4.409-3.09-6.301-5.215c-1.895-2.124-3.416-4.749-4.569-7.881
		C8.87,99.974,8.293,96.247,8.293,91.92c0.369-0.694,0.737-1.196,1.107-1.504c0.277-0.233,0.555-0.29,0.832-0.175
		c0.275,0.112,0.416,0.714,0.416,1.795c0,0.772,0.414,1.623,1.245,2.549c0.832,0.926,1.961,1.836,3.392,2.723
		c1.43,0.89,3.162,1.739,5.193,2.554c2.029,0.81,4.291,1.483,6.785,2.022c-0.094-3.319-0.208-6.798-0.348-10.429
		c-0.139-3.632-0.275-7.2-0.414-10.72c-0.139-3.515-0.301-6.91-0.483-10.192c-0.188-3.282-0.416-6.315-0.694-9.099
		c-1.753,0.311-3.486,0.621-5.191,0.929c-1.711,0.31-3.439,0.692-5.192,1.157c-1.108-0.463-2.194-1.447-3.255-2.952
		c-1.062-1.507-1.869-3.227-2.422-5.156c-0.555-1.93-0.74-3.823-0.555-5.679C8.891,47.887,9.628,46.38,10.921,45.221z
		 M40.14,103.152c-0.093-1.775-0.117-3.533-0.07-5.271c0.046-1.738,0.07-3.303,0.07-4.69v-4.75l-1.247,14.717h0.691L40.14,103.152
		L40.14,103.152z M81.68,82.529c0.09-1.855-0.785-3.862-2.63-6.025c-1.849-2.16-4.456-4.229-7.823-6.197
		c-3.372-1.97-7.361-3.748-11.977-5.332c-4.619-1.58-9.604-2.721-14.955-3.416c-0.094,3.399-0.209,7.031-0.346,10.894
		c-0.139,3.861-0.277,7.664-0.416,11.413c-0.139,3.747-0.302,7.279-0.486,10.603c-0.186,3.318-0.322,6.181-0.414,8.57
		c4.337-0.31,8.791-1.139,13.361-2.488c4.567-1.351,8.724-2.994,12.461-4.926c3.738-1.93,6.83-4.036,9.276-6.314
		C80.178,87.027,81.495,84.771,81.68,82.529z"/>
	<path class="st5" d="M172.71,72.641c0,2.862-0.516,5.406-1.545,7.627c-1.028,2.224-2.385,4.183-4.067,5.875
		c-1.685,1.693-3.672,3.183-5.963,4.461c-2.293,1.283-4.699,2.375-7.226,3.277c2.713,3.918,4.607,8.078,5.685,12.48
		c1.073,4.408,1.098,8.347,0.069,11.809c0.187-2.637,0.047-5.045-0.422-7.23c-0.469-2.185-1.029-4.065-1.684-5.648
		c-0.84-1.88-1.777-3.538-2.805-4.97c0.936,2.711,1.729,5.312,2.385,7.795c0.562,2.109,1.004,4.236,1.332,6.386
		c0.328,2.146,0.258,3.82-0.209,5.025c-0.094-0.076-0.164-0.148-0.209-0.226c-0.049-0.078-0.121-0.149-0.213-0.229l-0.279-0.228
		c-0.281,0.455-0.609,0.83-0.982,1.131c-0.281,0.304-0.562,0.584-0.842,0.847c-0.281,0.265-0.516,0.396-0.701,0.396
		c-0.188,0.076-0.469,0.133-0.84,0.17c-0.375,0.035-0.799,0.095-1.264,0.172c-0.471,0.072-0.982,0.188-1.543,0.339l-1.264-1.13
		c-1.402-4.442-3.557-8.604-6.455-12.483c-2.899-3.875-5.893-7.399-8.979-10.562c-2.525,0.302-4.865,0.492-7.017,0.562
		c-2.152,0.079-3.976,0.115-5.47,0.115h-0.842c-0.188,1.733-0.328,3.315-0.42,4.743c-0.095,1.432-0.189,2.677-0.281,3.729
		c-0.095,1.205-0.189,2.26-0.281,3.164c-0.188,0.299-0.422,0.604-0.7,0.901c-0.188,0.303-0.421,0.642-0.702,1.019
		c-0.279,0.377-0.609,0.789-0.98,1.241c-0.189,0.305-0.445,0.678-0.773,1.134c-0.327,0.452-0.631,0.938-0.912,1.468
		c-0.375,0.604-0.75,1.244-1.124,1.922c-0.28,0.076-0.608,0.188-0.979,0.338c-0.657,0.305-1.219,0.681-1.685,1.132
		c-0.094,0.149-0.188,0.319-0.28,0.509c-0.095,0.188-0.235,0.435-0.422,0.732c-0.188,0.3-0.328,0.64-0.42,1.017l-1.123-0.112
		l-1.684,2.146l-0.562-0.226c-0.375-0.151-0.608-0.229-0.701-0.229c-0.375,0.149-0.68,0.432-0.912,0.846
		c-0.235,0.413-0.492,0.624-0.772,0.624c-0.094-0.455-0.188-1.583-0.278-3.394c-0.096-1.806-0.213-4.065-0.352-6.777
		c-0.141-2.711-0.279-5.781-0.42-9.209c-0.141-3.425-0.26-7.021-0.352-10.787c-2.151-1.056-4.115-2.485-5.893-4.294
		c-1.775-1.809-3.18-4.029-4.209-6.665c-0.094-0.226-0.257-0.866-0.491-1.921c-0.233-1.053-0.259-1.957-0.069-2.708
		c0.188,0.751,0.442,1.562,0.772,2.428c0.328,0.867,0.679,1.695,1.052,2.487c0.371,0.789,0.771,1.483,1.193,2.088
		c0.42,0.604,0.816,1.018,1.191,1.244c-1.312-2.185-2.199-4.237-2.666-6.158c-0.469-1.922-0.516-3.521-0.141-4.803
		c0.749,1.883,3.696,3.651,8.84,5.311c-0.188-3.765-0.399-7.418-0.632-10.959c-0.235-3.539-0.444-6.852-0.632-9.94
		c-2.713,0.304-5.566,0.752-8.559,1.354c-1.123-0.298-2.196-1.071-3.226-2.314c-1.028-1.241-1.8-2.614-2.315-4.123
		c-0.512-1.505-0.676-3.013-0.49-4.521c0.188-1.505,0.888-2.711,2.104-3.615c0.656-0.453,2.314-1.032,4.982-1.75
		c2.665-0.713,6.007-1.373,10.031-1.977c4.021-0.604,8.488-1.055,13.398-1.355c4.912-0.299,9.868-0.282,14.873,0.058
		c5.004,0.339,9.891,1.093,14.662,2.26c4.77,1.169,8.979,2.938,12.627,5.309c3.646,2.373,6.596,5.427,8.84,9.151
		C171.735,62.641,172.804,67.219,172.71,72.641z M161.769,69.479c0.092-1.579-0.681-3.088-2.313-4.518
		c-1.638-1.431-4.092-2.656-7.367-3.673c-3.275-1.017-7.319-1.791-12.137-2.317c-4.816-0.522-10.359-0.676-16.625-0.451
		c0.092,0.604,0.142,1.227,0.142,1.863c0,0.642,0,1.34,0,2.092c-0.095,3.617-0.235,7.25-0.423,10.9
		c-0.188,3.654-0.422,7.25-0.7,10.788c4.209,0,8.604-0.433,13.188-1.298c4.582-0.867,8.791-1.979,12.627-3.338
		c3.836-1.354,7.016-2.897,9.541-4.631C160.224,73.169,161.581,71.361,161.769,69.479z"/>
	<path class="st5" d="M172.759,79.581c-0.148-5.979,0.11-11.356,0.772-16.129c0.664-4.772,1.473-8.827,2.435-12.163
		c0.959-3.334,1.991-5.951,3.098-7.85c1.104-1.897,1.953-2.959,2.545-3.191c2.211-0.803,4.867-0.977,7.965-0.518
		c3.1,0.459,5.973,1.206,8.629,2.239c2.654,1.035,4.869,2.188,6.637,3.452c1.771,1.27,2.506,2.358,2.211,3.278
		c-3.688,11.962-5.496,21.535-5.42,28.723c0.074,7.189,0.996,12.739,2.768,16.646c1.77,3.916,3.797,6.5,6.084,7.767
		c2.285,1.269,3.721,1.896,4.314,1.896c1.029,0.12,2.689-0.283,4.98-1.203c2.283-0.918,4.566-2.476,6.855-4.659
		c2.287-2.188,4.279-5.002,5.975-8.451c1.693-3.452,2.545-7.706,2.545-12.767c0-5.979-0.369-10.955-1.106-14.923
		c-0.736-3.967-1.547-7.1-2.432-9.4c-1.035-2.761-2.141-4.829-3.32-6.211l-0.887-0.173c0.443-0.112,0.809-0.228,1.109-0.345
		c0.586-0.229,0.807-0.518,0.664-0.862c-0.15-0.113-0.408-0.285-0.775-0.517c-0.369-0.229-0.553-0.459-0.553-0.689
		c0-0.229,0.145-0.604,0.441-1.122c0.295-0.521,1.029-0.95,2.213-1.294c2.803-0.919,5.975-0.948,9.514-0.087
		c3.539,0.862,6.859,2.762,9.957,5.692c3.098,2.935,5.715,6.959,7.855,12.075c2.135,5.12,3.131,11.418,2.985,18.895
		c-0.147,6.442-1.217,12.508-3.209,18.198c-1.99,5.688-4.832,10.666-8.516,14.919c-3.689,4.259-8.154,7.621-13.385,10.097
		c-5.24,2.472-11.029,3.651-17.369,3.535c-7.23-0.114-13.646-1.638-19.252-4.57c-5.607-2.933-10.326-6.614-14.16-11.041
		c-3.836-4.427-6.787-9.259-8.85-14.489C174.009,89.102,172.904,84.186,172.759,79.581z"/>
	<path class="st5" d="M18.393,171.944c-0.596-1.155-1.023-2.922-1.296-4.479c-0.271-1.556,0.598-3.168,0.608-4.836
		c0.013-1.668,1.125-3.328,1.338-4.979c0.216-1.653,1.521-3.166,1.92-4.539c0.397-1.372,0.873-2.538,1.424-3.498
		c0.549-0.961,0.13-1.573,0.742-1.84l-0.01,0.133c-0.002,0.045-0.031,0.108-0.082,0.192l1.15-0.78l0.096,0.541
		c0.286-0.155,0.549-0.313,0.789-0.476c0.235-0.115,0.471-0.209,0.702-0.281c0.235-0.07,0.394-0.082,0.479-0.029
		c0.31,0.154,0.818,0.351,1.531,0.581c0.354,0.116,0.731,0.231,1.133,0.353l-0.383,0.571c-0.356,1.71-0.555,3.44-0.596,5.195
		c-0.04,1.756,0.014,3.483,0.16,5.188c0.145,1.702,0.379,3.346,0.691,4.926c0.313,1.582,0.647,3.074,0.998,4.479
		c0.279,1.135,0.144,2.036-0.408,2.707c-0.551,0.672-1.314,1.137-2.291,1.396c-0.977,0.261-2.385,1.256-3.604,1.099
		C22.271,173.41,20.764,173.692,18.393,171.944z"/>
	<path class="st5" d="M411.834,116.065c0,0.381,0.265,1.051,0.8,2.013c0.524,0.956,1.057,1.946,1.582,2.968
		c0.528,1.021,1.061,2.012,1.592,2.969c0.528,0.957,0.797,1.563,0.797,1.818c-0.219,1.405-0.532,2.585-0.957,3.54
		c-0.422,0.956-0.851,1.819-1.269,2.589c-0.428,0.51-1.116,0.926-2.071,1.242c-0.947,0.32-1.644,0.609-2.065,0.863
		c-0.425,0.383-0.586,0.672-0.478,0.86c0.104,0.189-0.054,0.414-0.478,0.67c-0.429,0.256-0.957,0.445-1.593,0.572
		c-0.637,0.127-1.17,0.318-1.586,0.575c-1.063,0.254-2.229,0.383-3.502,0.383h-1.59c-3.391,0-7.953-2.586-13.672-7.757
		c-5.734-5.172-11.883-11.973-18.459-20.396c-1.062,0.261-2.176,0.513-3.34,0.766c-1.17,0.258-2.388,0.512-3.652,0.766
		c-3.609-0.254-8.275-0.287-14-0.097c-5.729,0.188-11.881,0.479-18.455,0.859c-6.572,0.384-13.203,0.863-19.883,1.437
		c-6.68,0.574-12.676,1.055-17.973,1.438c-3.611,4.214-7.375,8.396-11.293,12.546c-3.931,4.149-8.011,8.27-12.25,12.354
		c-0.853,0.252-1.384,0-1.589-0.765c-0.217-0.769-0.854-1.409-1.909-1.915c-0.429-0.257-1.173-0.227-2.228,0.097
		c-1.059,0.312-1.908,0.288-2.541-0.097c-0.221-0.128-0.428-0.548-0.641-1.246c-0.215-0.699-0.428-1.367-0.642-2.014l-0.633-2.68
		c-0.852,0-1.698-0.19-2.545-0.572c-1.697-0.508-2.858-1.403-3.5-2.683c-0.211-0.255-0.268-0.731-0.156-1.437
		c0.104-0.697,0.263-1.56,0.482-2.587c0.205-1.021,0.416-2.229,0.631-3.639c-0.631,0.512-1.27,0.894-1.91,1.151
		c-1.272,0.507-2.018,0.507-2.223,0c-0.428-1.278-0.684-2.524-0.797-3.733c-0.104-1.214,0.057-2.332,0.479-3.354
		c1.486-2.679,4.504-7.562,9.068-14.649c4.557-7.087,9.492-15.543,14.795-25.378c5.299-9.832,10.228-20.716,14.795-32.655
		c4.555-11.938,7.576-24.099,9.066-36.481c12.725-1.021,22.953-1.372,30.701-1.054c7.733,0.316,13.516,1.181,17.334,2.584
		c6.151-0.127,11.717,0.544,16.702,2.011c4.986,1.47,7.898,4.309,8.748,8.522c0.636,3.448,1.644,8.205,3.025,14.27
		c1.377,6.064,3.654,13.312,6.84,21.741c3.182,8.425,7.58,18,13.201,28.728c5.619,10.729,13.094,22.541,22.43,35.432
		c0.213,0.513,0.158,0.701-0.155,0.57c-0.318-0.119-0.75-0.347-1.272-0.669c-0.531-0.313-0.949-0.571-1.275-0.765
		C411.996,115.585,411.834,115.683,411.834,116.065z M311.944,87.721c6.787-0.127,13.73-0.098,20.836,0.099
		c7.105,0.188,14.047,0.479,20.836,0.86c-3.813-5.487-7.526-11.073-11.133-16.76c-3.608-5.679-6.998-11.393-10.18-17.138
		c-3.396,6.003-6.736,11.715-10.021,17.138C318.994,77.352,315.547,82.611,311.944,87.721z"/>
	<path class="st5" d="M574.713,49.691c0,4.457-1.166,8.414-3.497,11.873c-2.337,3.461-5.406,6.509-9.226,9.146
		c-3.824,2.641-8.33,4.955-13.521,6.947c-5.195,2-10.656,3.694-16.383,5.102c6.146,6.101,10.439,12.576,12.885,19.439
		c2.436,6.858,2.486,12.986,0.16,18.385c0.416-4.106,0.104-7.854-0.955-11.26c-1.064-3.398-2.336-6.33-3.822-8.797
		c-1.906-2.931-4.027-5.513-6.361-7.739c2.119,4.224,3.922,8.271,5.406,12.138c1.271,3.283,2.281,6.598,3.023,9.938
		c0.742,3.343,0.582,5.955-0.48,7.828c-0.215-0.116-0.375-0.235-0.479-0.354c-0.107-0.116-0.271-0.23-0.479-0.354l-0.637-0.353
		c-0.637,0.701-1.387,1.29-2.227,1.758c-0.639,0.472-1.271,0.906-1.908,1.318c-0.639,0.409-1.168,0.615-1.592,0.615
		c-0.424,0.112-1.061,0.203-1.906,0.264c-0.852,0.059-1.807,0.146-2.865,0.264c-1.061,0.115-2.221,0.295-3.494,0.527l-2.865-1.754
		c-3.18-6.92-8.061-13.398-14.631-19.44c-6.576-6.036-13.361-11.521-20.359-16.444c-5.727,0.472-11.029,0.763-15.902,0.879
		c-4.885,0.119-9.023,0.176-12.414,0.176h-1.912c-0.422,2.7-0.742,5.162-0.949,7.389c-0.213,2.229-0.426,4.164-0.635,5.804
		c-0.215,1.88-0.426,3.521-0.635,4.929c-0.43,0.466-0.955,0.938-1.592,1.403c-0.43,0.471-0.953,0.999-1.586,1.583
		c-0.641,0.59-1.391,1.229-2.229,1.938c-0.428,0.471-1.012,1.055-1.754,1.758c-0.746,0.701-1.428,1.472-2.064,2.284
		c-0.854,0.944-1.697,1.938-2.551,2.992c-0.633,0.117-1.381,0.296-2.221,0.528c-1.492,0.47-2.76,1.056-3.82,1.756
		c-0.215,0.237-0.422,0.5-0.637,0.793c-0.215,0.296-0.531,0.679-0.949,1.146c-0.428,0.467-0.746,0.993-0.957,1.582l-2.545-0.178
		l-3.814,3.342l-1.273-0.354c-0.854-0.233-1.385-0.353-1.592-0.353c-0.854,0.23-1.541,0.674-2.068,1.318
		c-0.529,0.645-1.111,0.971-1.75,0.971c-0.219-0.705-0.426-2.47-0.635-5.281c-0.219-2.812-0.48-6.329-0.793-10.553
		c-0.32-4.223-0.641-8.999-0.953-14.337c-0.318-5.333-0.588-10.931-0.795-16.798c-4.883-1.641-9.338-3.869-13.365-6.688
		c-4.029-2.811-7.211-6.271-9.539-10.377c-0.219-0.353-0.588-1.348-1.119-2.991c-0.53-1.642-0.584-3.048-0.151-4.222
		c0.414,1.174,1.002,2.436,1.748,3.783c0.739,1.352,1.534,2.641,2.387,3.868c0.85,1.23,1.756,2.316,2.705,3.255
		c0.951,0.939,1.854,1.585,2.703,1.938c-2.973-3.4-4.986-6.597-6.047-9.591c-1.06-2.989-1.166-5.479-0.314-7.477
		c1.697,2.936,8.373,5.69,20.043,8.27c-0.428-5.858-0.908-11.547-1.432-17.062c-0.531-5.511-1.012-10.669-1.436-15.479
		c-6.148,0.471-12.619,1.173-19.403,2.111c-2.546-0.467-4.981-1.67-7.317-3.605c-2.332-1.933-4.08-4.072-5.25-6.418
		c-1.164-2.347-1.535-4.688-1.113-7.037c0.422-2.343,2.021-4.222,4.771-5.627c1.489-0.705,5.25-1.612,11.295-2.728
		c6.047-1.113,13.625-2.139,22.746-3.078c9.116-0.938,19.25-1.642,30.377-2.11c11.142-0.468,22.377-0.44,33.724,0.088
		c11.338,0.526,22.428,1.701,33.243,3.52c10.815,1.817,20.359,4.573,28.632,8.267c8.272,3.692,14.952,8.444,20.043,14.247
		C572.49,34.126,574.922,41.25,574.713,49.691z M549.899,44.766c0.214-2.461-1.539-4.807-5.25-7.034
		c-3.715-2.227-9.276-4.134-16.702-5.718c-7.427-1.584-16.595-2.785-27.513-3.604c-10.931-0.818-23.496-1.056-37.699-0.704
		c0.209,0.939,0.316,1.907,0.316,2.901c0,1,0,2.084,0,3.256c-0.216,5.627-0.527,11.285-0.949,16.973
		c-0.431,5.689-0.959,11.287-1.594,16.796c9.543,0,19.514-0.672,29.911-2.019c10.386-1.353,19.929-3.078,28.632-5.19
		c8.69-2.11,15.905-4.514,21.625-7.212C546.404,50.514,549.476,47.698,549.899,44.766z"/>
	<path class="st5" d="M670.919,6.99c15.906,0.393,32.18,0.949,48.83,1.667c16.648,0.721,33.562,1.469,50.744,2.256
		c-0.43,1.834-1.387,3.957-2.857,6.377c-1.494,2.42-3.773,4.84-6.846,7.259c-3.074,2.42-6.994,4.74-11.768,6.965
		c-4.771,2.228-10.664,3.992-17.658,5.295c-8.062,0.267-15.803,0.492-23.223,0.688c-7.435,0.197-14.533,0.425-21.316,0.688
		c-0.426,9.941-1.225,19.912-2.391,29.916c-1.166,10.007-2.385,19.13-3.658,27.367c-1.484,9.547-3.071,18.706-4.77,27.468
		l-6.998,9.611l-2.545-0.197l-5.093,7.063c-0.216-0.261-0.53-0.457-0.95-0.588c-0.854-0.261-1.809,0-2.865,0.782
		c-0.424,0.267-1.06,1.05-1.908,2.353c-0.43,0.524-0.746,1.11-0.951,1.767h-2.549l-4.129,3.927l-2.867-4.907
		c-0.428,1.179-0.951,2.288-1.588,3.334c-0.422,0.914-0.852,1.735-1.271,2.456c-0.43,0.718-0.855,1.076-1.275,1.076
		c-0.213-1.045-0.426-3.529-0.635-7.451c-0.213-3.926-0.375-8.796-0.479-14.617c-0.109-5.818-0.27-12.393-0.48-19.717
		s-0.424-14.88-0.641-22.66c-0.213-7.778-0.475-15.562-0.788-23.347c-0.317-7.779-0.69-15.138-1.116-22.069
		c-14.428,0.524-25.721,0.918-33.881,1.177c-8.174,0.265-13.631,0.461-16.385,0.59c-4.453,0.132-8.219-0.59-11.295-2.157
		c-3.068-1.57-5.459-3.562-7.154-5.984c-1.695-2.416-2.756-5.031-3.182-7.848c-0.426-2.812-0.266-5.457,0.479-7.945
		c0.746-2.482,2.016-4.609,3.812-6.375c1.803-1.766,4.195-2.779,7.162-3.042c8.064-0.651,16.859-1.108,26.404-1.373
		c9.539-0.26,19.721-0.392,30.539-0.392c1.273-0.787,2.436-1.31,3.498-1.571c1.904-0.395,4.234-0.718,7-0.981
		c2.752-0.261,5.668-0.356,8.748-0.293c3.068,0.066,6.146,0.361,9.227,0.884C664.923,4.964,667.942,5.811,670.919,6.99z"/>
</g>
<g id="pincel">
	<g>
		<path class="st0" d="M135.389,166.108c-2.825,3.801-8.094,7.948-11.279,10.28c9.573-4.785,18.719-10.047,29.205-13.379
			c-1.408,1.771-3.008,3.437-4.73,5.082c3.443-2.603,6.879-5.41,10.806-7.562c2.614-0.774,4.95-1.628,6.321-2.5l-0.592-29.856
			c-0.218-0.197-1.256-0.651-1.49-0.847c0.49,0.269,0.837,0.466,0.826,0.476c0.062-0.023-5.801-4.808-8.051-5.894
			c-5.047-2.671-10.547-4.574-16.145-6.506c-2.26-0.812-7.777-2.279-12.879-3.059c-5.092-0.832-9.668-1.06-9.662-1.066
			c0.02-0.031,5.117,1.043,6.244,1.268c4.132,0.657,8.041,1.966,11.85,3.212c2.85,0.944,5.417,1.896,7.941,2.864
			c-1.459-0.345-2.934-0.649-4.402-0.917c0.329-0.025,0.568-0.046,0.568-0.046c-0.047,0.104-6.422-1.087-8.348-1.311
			c-4.584-0.348-9.156-0.371-13.685-1.099c-1.833-0.286-6.134-0.78-9.912-1.431c-3.8-0.603-6.935-1.588-6.912-1.621
			c-0.079,0.054,3.29,1.74,4.197,1.903c3.05,0.771,6.041,1.815,9.185,2.469c0.725,0.146,1.413,0.258,2.115,0.389
			c-2.634,0.207-5.247,0.517-7.848,0.861c-1.246,0.033-2.483,0.111-3.731,0.021c-1.181-0.004-5.437-0.324-5.438-0.371
			c0,0,1.168,0.352,1.449,0.393c0.99,0.129,1.967,0.379,2.979,0.493c0.244,0.024,0.459,0.02,0.691,0.043
			c-11.418,1.817-22.576,4.8-33.694,8.011c-18.621,5.521-37.407,12.438-56.722,15.839c5.646,0.232,10.84,2.439,16.526,2.943
			c-2.046,1.313-4.543,2.125-7.489,2.435c9.694,2.283,22.327,8.021,31.944,10.952c9.39,2.859,14.304,3.087,26.47,1.902
			c-5.566,2.78-14.445,3.438-20.541,2.7c12.967,4.142,30.069,3.449,43.694,2.021c-8.187,2.784-17.761,3.786-26.558,4.98
			c11.582,1.82,24.274,1.181,35.578-0.268c-2.972,1.709-6.248,3.16-9.633,3.811c7.649-1.092,14.668-3.355,21.879-5.734
			c1.813-0.335,3.545-0.673,5.184-1.014c-2.708,1.892-5.91,3.839-9.109,5.49C126.442,170.447,134.622,167.078,135.389,166.108z"/>
		<path class="st5" d="M67.389,157.171c1.48-0.213,3.02-0.363,4.531-0.49c-1.072-1.155-3.198-1.719-3.697-3.1
			c4.824-0.831,9.711,2.352,14.393,1.725c-2.765-1.744-7.654-2.575-9.443-4.996c1.701,0.031,4.533,0.182,5.648-0.879
			c-0.99-0.866-2.066-1.805-3.109-2.61c1.631-0.539,3.508-0.81,5.068-1.349c-8.186-1.848,5.295-3.432,6.655-3.939
			c-2.658-2.479-14.854-2.438-14.16-6.491c1.823-0.352,3.418-1.014,5.451-1.096c-2.967-1.084-6.199-1.547-9.198-2.795
			c2.551-1.927,10.651-2.979,14.342-3.75c-3.623-0.336-8.55-0.379-13.054-0.94c-18.567,5.515-37.307,12.405-56.569,15.793
			c5.646,0.233,10.84,2.438,16.525,2.944c-2.046,1.312-4.543,2.125-7.488,2.434c9.693,2.283,22.326,8.021,31.943,10.952
			c5.206,1.585,9.039,2.358,13.49,2.532c0.853-0.316,1.646-0.705,2.404-1.31C69.508,159.366,68.448,158.065,67.389,157.171z"/>
		<g>
			<path class="st3" d="M140.97,150.545c1.048-0.174,3.69-0.439,6.044-0.763c2.355-0.314,4.416-0.683,4.416-0.676
				c0-0.007-2.079-0.151-4.412-0.39c-2.342-0.229-4.936-0.56-6.145-0.558c-0.532,0.002-1.056,0.019-1.586,0.025
				c0.992-0.163,2.545-0.373,3.973-0.631c1.796-0.312,3.328-0.696,3.328-0.692c0-0.004-1.473-0.119-3.137-0.338
				c1.533-0.151,4.836-0.368,7.816-0.729c3.148-0.354,5.889-0.867,5.889-0.865c0-0.002-2.765-0.002-5.867-0.198
				c-3.106-0.177-6.558-0.541-8.182-0.57c-7.593-0.094-15.177-0.08-23.002-0.344c-0.324-0.015-0.729-0.021-1.145-0.023
				c0.047,0.002,0.094-0.001,0.141,0.002c6.059,0.248,12.227-0.008,18.783-0.681c1.831-0.18,6.463-0.462,10.645-0.639
				c4.182-0.188,7.911-0.213,7.918-0.219c0,0.006-3.58-0.479-7.75-0.847c-4.158-0.379-8.869-0.69-11.055-0.677
				c-3.934,0.028-7.792,0.108-11.632,0.144c1.864-0.036,3.769-0.196,5.862-0.657c1.32-0.265,6.569-0.731,6.562-0.754
				c-0.017,0.015-1.576-0.479-3.196-0.928c0.932,0.057,1.869,0.115,2.84,0.159c1.465,0.062,5.119,0.462,8.42,0.759
				c3.3,0.307,6.248,0.438,6.248,0.441c0-0.005-2.748-0.634-5.832-1.472c-3.086-0.83-6.574-1.815-8.274-2.097
				c-3.667-0.604-7.438-1.044-11.254-1.309c2.051-0.034,4.14-0.1,6.453-0.264c0.866-0.07,3.021,0.024,4.95,0.237
				c1.932,0.206,3.631,0.504,3.629,0.5c0.002,0.004-1.395-0.77-3.148-1.511c-0.256-0.111-0.529-0.218-0.797-0.327
				c0.503,0.009,0.963,0.032,1.484,0.04c2.257-0.076,11.033,1.382,11.015,1.448c0,0.007-1.854-0.896-4.122-1.793
				c-2.253-0.909-4.928-1.795-6.253-2.014c-2.674-0.453-5.36-0.672-8.056-0.82c0.483-0.055,0.941-0.077,1.461-0.166
				c1.035-0.188,5-0.014,5.002-0.01c0.012,0-1.268-0.879-2.492-1.562c1.311,0.048,2.656,0.086,4.1,0.094
				c0.855,0.009,2.936,0.282,4.778,0.681c1.84,0.39,3.417,0.896,3.417,0.892c0,0.004-1.174-0.933-2.756-1.853
				c-1.205-0.713-2.646-1.392-3.709-1.775c1.846,0.38,3.736,0.749,5.842,1.072c1.793,0.185,8.18,2.541,8.135,2.606
				c0,0-1.098-1.047-2.533-2.151c-1.418-1.112-3.201-2.266-4.17-2.631c-4.535-1.726-9.502-2.369-14.35-3.317
				c-1.967-0.408-6.749-0.814-10.998-0.611c-4.255,0.161-7.865,0.856-7.861,0.85c0.023-0.03,4.305,0.375,5.215,0.409
				c1.854-0.038,3.681,0.214,5.472,0.546c-3.14,0.066-6.286,0.286-9.435,0.579c-5.104,0.218-21.586,4.925-21.646,4.724
				c-0.001,0.021,5.187-0.146,6.295-0.385c3.078-0.603,6.296-0.854,9.425-1.113c-1.453,0.369-2.393,0.656-2.387,0.656
				c0.013-0.031,4.158-0.062,5.029-0.146c2.015-0.282,4.078-0.208,6.113-0.077c-0.019,0.001-0.035,0.002-0.053,0.003
				c-2.326,0.312-4.251,0.884-4.246,0.874c0.02-0.021,2.405,0.459,2.889,0.443c1.818-0.11,3.61,0.571,5.336,0.854
				c0.51,0.09,0.994,0.163,1.485,0.239c-1.345-0.038-2.69-0.081-4.03-0.141c-2.551-0.131-8.508,0.093-13.735,0.699
				c-5.237,0.574-9.74,1.424-9.74,1.414c0.009-0.018,5.415,0.14,6.59,0.07c3.638-0.297,7.331,0.007,10.952,0.229
				c-2.057,0.194-4.479,0.494-6.734,0.85c-3.988,0.607-7.455,1.256-7.455,1.251c0.004,0,4.199,0.303,5.111,0.223
				c2.95-0.277,5.984,0.004,8.938,0.092c-0.602,0.031-1.199,0.022-1.795,0.065c-3.379,0.104-11.014,1.144-17.793,1.702
				c-6.795,0.623-12.793,0.146-12.787,0.121c0-0.011,1.664,0.409,3.591,0.711c1.924,0.312,4.099,0.521,4.894,0.515
				c5.688,0.003,11.521,0.123,17.158-0.122c5.294-0.205,9.917-0.479,14.441-0.166c0.931,0.055,1.869,0.112,2.809,0.178
				c-1.66,0.07-3.331,0.121-5.005,0.021c-1.457-0.092-4.908,0.055-7.961,0.389c-3.065,0.323-5.671,0.888-5.671,0.879
				c0.016-0.014,3.15,0.463,3.814,0.446c2.453-0.12,4.903,0.55,7.312,0.798c2.042,0.209,3.943,0.377,5.854,0.416
				c-0.717,0.002-1.445,0.022-2.17,0.019c-5.021-0.15-10.312-0.026-15.474,0.248c-4.231,0.161-13.958,1.36-22.312,3.334
				c-8.404,1.864-15.273,4.508-15.248,4.524c0,0.004,2.123-0.539,4.511-1.022l5.954-1.173c6.765-1.584,13.955-2.068,20.914-2.584
				c6.338-0.449,12.145-0.59,17.836-0.445c-3.649-0.018-10.078,0.3-15.695,1.505c-6.486,1.288-11.489,3.628-11.475,3.608
				c0.002,0.007,1.609-0.42,3.414-0.781l4.49-0.832c3.491-0.815,7.135-0.985,10.76-0.979c-0.862,0.129-1.392,0.23-1.392,0.23
				c0.024-0.03,3.856,0.422,4.672,0.451c3.021-0.062,5.978,0.759,8.937,1.155c0.066,0.009,0.125,0.02,0.189,0.027
				c-2.713-0.084-7.406-0.046-11.668,0.253c-4.933,0.312-9.176,1.054-9.17,1.048c0.02-0.028,5.046,0.291,6.135,0.295
				c3.979-0.166,7.957,0.558,11.892,0.881C127.097,151.261,133.396,151.808,140.97,150.545z"/>
			<path class="st3" d="M133.538,158.069c1.301-0.532,6.525-2.242,6.504-2.267c-0.01,0.013-0.67-0.016-1.562-0.047
				c2.324-0.092,6.219,0.077,6.227,0.12c-0.004,0.013-1.297-0.61-2.897-1.188c-0.241-0.095-0.499-0.175-0.75-0.261
				c1.258-0.102,2.808-0.224,4.289-0.393c2.403-0.271,4.485-0.646,4.485-0.642c0-0.004-2.111-0.14-4.447-0.428
				c-2.344-0.271-4.911-0.711-6.129-0.762c-5.754-0.218-11.481-0.221-17.571-0.414c-5.108-0.421-22.177,2.941-22.16,2.865
				c-0.005,0.008,5.156,0.165,6.282,0.024c3.843-0.448,7.806-0.287,11.593-0.254c-4.187,0.428-8.394,0.928-8.407,0.885
				c-0.004,0.009,3.59,0.668,4.403,0.636c2.881-0.082,5.822,0.468,8.694,0.569c2.4,0.095,4.566,0.127,6.717,0.08
				c-2.316,0.528-4.641,1.054-7.083,1.209c-1.542,0.09-5.09,0.58-8.31,0.863c-3.217,0.307-6.084,0.387-6.084,0.396
				c-0.016,0.013,3.229,0.875,4,0.864c2.687,0.024,5.434,0.61,8.192,0.625C124.618,160.558,128.964,160.119,133.538,158.069z"/>
			<path class="st3" d="M77.366,129.09c-2.713,1.284-4.914,2.571-4.923,2.562c0.011-0.004,3.28-0.545,3.91-0.778
				c2.274-0.89,4.978-1.101,7.378-1.577c4.52-0.889,8.116-1.418,12.602-3.117c1.232-0.498,6.572-1.424,6.572-1.41
				c0.016-0.01-3.296-0.694-5.523-0.897c1.205-0.225,2.406-0.438,3.687-0.709c0.985-0.212,3.509-0.499,5.813-0.6
				c2.296-0.125,4.361-0.029,4.361-0.035c0,0.01-1.884-0.59-4.188-1.024c-2.294-0.456-4.972-0.765-6.21-0.718
				c-2.906,0.106-5.73,0.492-8.512,0.926c-2.746,0.394-5.723,0.967-8.498,1.71c-1.143,0.294-2.976,0.931-4.928,1.824
				c-1.959,0.886-4.029,2.009-5.972,3.034c-3.834,2.108-7.535,3.576-7.549,3.56c-0.003,0.062,4.858-0.875,5.812-1.347
				c3.444-1.458,7.225-2.604,10.678-3.656c2.625-0.812,5.062-1.315,7.524-1.697c-1.508,0.396-3.013,0.808-4.54,1.142
				C83.349,126.593,80.058,127.786,77.366,129.09z"/>
		</g>
		<path class="st2" d="M170.611,157.425c-0.943-2.209-1.385-8.679-1.539-12.552c-0.209-5.163-1.013-10.46-0.279-14.967
			c0.615-3.759,9.312-7.659,11.799,0.23c11.68-1.506,53.166-4.295,64.097-4.721c0.787-3.438,6.19-3.417,7.733-0.809
			c1.229-2.466,6.698-2.986,7.473,0.132c1.748-3.05,10.15-1.643,16.107-1.305c7.092,0.403,216.957,10.014,223.123,19.716
			c-5,5.796-222.287,18.084-225.066,18.303c-6.188,0.486-14.814,1.764-16.381-0.816c-1.396,2.452-4.192,2.396-5.675,0.386
			c-1.461,2.026-6.375,2.346-6.531-0.326c-21.683-1.086-43.255-1.312-64.653-4.822C179.529,160.324,173.106,160.997,170.611,157.425
			"/>
		<path class="st4" d="M274.057,161.455c2.78-0.218,220.064-12.507,225.064-18.304c-43.011,5.834-225.891,9.002-227.638,8.864
			c0.588,9.744,0,0-0.706,9.729C271.91,161.642,273.018,161.535,274.057,161.455z"/>
		<path class="st1" d="M257.676,160.638c1.304,2.147,7.496,1.625,13.104,1.108c0.706-9.729,0.751-28.952,0.163-38.694
			c-4.866-0.382-9.762-0.555-11.049,1.689c-0.773-3.118-6.244-2.597-7.473-0.131c-1.543-2.609-6.946-2.629-7.733,0.808
			c-10.931,0.427-52.417,3.216-64.098,4.72c-2.297-7.285-9.877-4.514-11.508-1.088l-0.03-0.604c-0.884-0.122-3.05-0.147-3.933-0.271
			c0.357,9.074,0.002,20.17,0.592,29.855c1.422-0.149,4.899-0.605,4.899-0.605c2.495,3.572,8.917,2.899,10.205-1.551
			c21.398,3.512,42.971,3.736,64.653,4.822c0.156,2.672,5.069,2.354,6.531,0.326C253.483,163.033,256.28,163.091,257.676,160.638z"
			/>
		<path class="st5" d="M192.107,133.623c-0.008-0.021,11.553-1.619,24.862-2.617c13.301-1.064,28.305-1.674,34.812-1.62
			c16.041,0.099,29.294-0.806,45.456-0.09c3.446,0.148,19.229,0.795,25.806,1.958c6.583,1.136,18.168,1.876,18.164,1.888
			c-0.002-0.014-11.749,0.121-18.274-0.045c-6.532-0.19-19.847,0.149-22.675,0.322c-21.123-0.072-37.4,0.955-58.028,0.586
			c-11.065-0.168-22.348-0.998-33.27-0.373C205.909,133.741,192.104,133.556,192.107,133.623z"/>
	</g>
	<g>
		<path class="st6" d="M499.931,142.336c-0.229-0.296-0.574-0.587-0.998-0.854c-0.433-0.266-0.929-0.498-1.438-0.712l-0.543-0.209
			l-0.429-0.151c-1.137-0.394-2.269-0.697-3.401-0.976c-2.26-0.55-4.52-0.986-6.778-1.384c-4.517-0.786-9.026-1.414-13.527-1.989
			c-9.003-1.137-17.971-2.045-26.922-2.877c-17.905-1.645-35.743-2.957-53.724-4.148c-35.963-2.361-72.506-4.212-111.399-5.812
			c-2.468-0.105-5.55-0.197-9.155-0.512c-1.805-0.132-3.749-0.277-5.826-0.246c-1.038,0.025-2.111,0.09-3.208,0.326
			c-0.546,0.12-1.101,0.286-1.632,0.562c-0.298,0.164-0.448,0.256-0.597,0.396c-0.158,0.119-0.284,0.322-0.388,0.449
			c-0.065-0.252-0.184-0.493-0.352-0.701l-0.154-0.171l-0.227-0.204c-0.161-0.128-0.332-0.24-0.51-0.34
			c-0.723-0.388-1.535-0.522-2.331-0.504c-0.8,0.019-1.602,0.188-2.35,0.528c-0.372,0.17-0.736,0.386-1.057,0.656
			c-0.228,0.193-0.426,0.426-0.567,0.697c-0.147-0.185-0.348-0.458-0.579-0.633c-0.284-0.232-0.68-0.468-1.053-0.621
			c-0.766-0.323-1.604-0.463-2.441-0.424c-0.835,0.041-1.685,0.264-2.414,0.743c-0.362,0.237-0.689,0.545-0.944,0.905
			c-0.123,0.175-0.242,0.393-0.317,0.562c-0.062,0.147-0.116,0.306-0.154,0.466l-7.601,0.448l-8.023,0.519l-16.41,1.172
			c-10.982,0.852-21.946,1.673-31.897,2.841c-0.465-1.463-1.272-2.843-2.518-3.682c-1.234-0.851-2.801-1.027-4.193-0.734
			c-1.403,0.286-2.69,0.972-3.679,1.912c-0.491,0.474-0.907,1.022-1.157,1.638c-0.129,0.308-0.194,0.625-0.229,0.956
			c-0.049,0.328-0.092,0.653-0.117,0.979c-0.245,2.604-0.089,5.088,0.064,7.394c0.164,2.305,0.349,4.446,0.431,6.402
			c0.177,3.9,0.47,7.027,0.799,9.158c0.31,2.141,0.757,3.225,0.767,3.211c-0.01,0.014-0.442-1.068-0.725-3.199
			c-0.301-2.121-0.557-5.235-0.688-9.128c-0.059-1.956-0.216-4.1-0.354-6.403c-0.127-2.302-0.253-4.779,0.015-7.351
			c-0.16-2.655,2.293-4.606,4.918-5.16c1.32-0.267,2.758-0.085,3.873,0.697c0.559,0.384,1.033,0.898,1.414,1.493
			c0.19,0.297,0.358,0.61,0.504,0.942l0.113,0.271c0.053,0.125,0.1,0.254,0.145,0.385l0.265,0.786l2.265-0.251l1.877-0.188
			l3.822-0.342l7.857-0.619c5.317-0.393,10.771-0.762,16.256-1.114l16.448-0.99l8.1-0.437l8.592-0.386
			c0.099-0.361,0.203-0.718,0.324-1.09c0.059-0.149,0.053-0.115,0.075-0.164l0.047-0.093l0.113-0.174
			c0.161-0.221,0.368-0.414,0.612-0.572c0.491-0.32,1.125-0.493,1.771-0.517c0.644-0.024,1.307,0.093,1.871,0.339
			c0.138,0.062,0.272,0.133,0.4,0.207l0.184,0.118l0.085,0.065l0.146,0.121c0.495,0.502,0.99,1.411,1.411,1.999
			c0.405-0.661,0.86-1.627,1.349-2.104c0.236-0.2,0.475-0.336,0.757-0.465c0.557-0.248,1.194-0.381,1.806-0.391
			c0.613-0.011,1.205,0.112,1.638,0.35c0.107,0.059,0.203,0.127,0.292,0.195l0.122,0.111c0.082,0.118,0.166,0.223,0.245,0.355
			c0.27,0.753,0.601,1.882,0.82,2.595l1.235-1.809l0.159-0.23l0.16-0.154l0.321-0.307c0.132-0.092,0.197-0.116,0.305-0.174
			c0.408-0.19,0.898-0.326,1.407-0.42c1.025-0.189,2.123-0.224,3.196-0.221c2.159,0.023,4.265,0.223,6.273,0.393
			c4.058,0.371,7.629,0.457,10.607,0.631c36.572,1.812,72.65,3.725,108.632,6.084c17.992,1.193,35.958,2.49,53.931,4.115
			c8.984,0.819,17.971,1.715,26.941,2.834c4.482,0.565,8.965,1.183,13.414,1.953c2.223,0.391,4.439,0.815,6.62,1.344
			c1.088,0.268,2.169,0.56,3.208,0.914l0.678,0.248l0.309,0.135c0.196,0.103,0.404,0.209,0.537,0.396
			c-0.144,0.152-0.38,0.21-0.58,0.279l-0.317,0.088l-0.693,0.165c-1.062,0.236-2.147,0.438-3.237,0.624
			c-2.179,0.366-4.377,0.678-6.58,0.967c-4.408,0.575-8.842,1.061-13.285,1.52c-19.571,2.036-54.516,4.841-94.016,7.604
			c-19.751,1.386-40.639,2.781-61.317,4.106l-30.688,1.938l-7.503,0.464c-2.477,0.166-4.965,0.27-7.412,0.523
			c-2.446,0.229-4.863,0.479-7.258,0.558c-1.195,0.036-2.388,0.033-3.547-0.099c-0.577-0.071-1.15-0.172-1.68-0.349
			c-0.274-0.095-0.497-0.182-0.764-0.347c-0.305-0.213-0.6-0.598-0.853-0.942c-0.103-0.108-0.2,0.18-0.304,0.319
			c-0.106,0.168-0.219,0.333-0.332,0.495c-0.117,0.158-0.236,0.309-0.357,0.425c-0.11,0.11-0.203,0.188-0.31,0.271
			c-0.425,0.323-0.932,0.524-1.453,0.563c-0.521,0.042-1.054-0.067-1.524-0.312c-0.245-0.136-0.425-0.24-0.707-0.504
			c-0.265-0.248-0.515-0.599-0.741-0.828c-0.263,0.339-0.567,0.692-0.905,0.944c-0.248,0.174-0.523,0.321-0.81,0.44
			c-0.574,0.233-1.194,0.369-1.812,0.398c-0.617,0.027-1.243-0.055-1.765-0.303c-0.527-0.287-0.865-0.563-0.956-1.535
			c-0.016-0.02-0.026-0.044-0.047-0.062l-0.102-0.005l-0.204-0.009l-0.406-0.021l-0.731-0.034l-1.306-0.059l-2.588-0.112
			l-5.087-0.208l-9.79-0.388c-6.344-0.261-12.312-0.55-17.82-0.916c-5.508-0.366-10.554-0.811-15.057-1.311
			c-2.252-0.248-4.366-0.515-6.336-0.782l-5.537-0.795c-0.616,2.127-2.186,3.15-3.659,3.595c-1.485,0.431-2.85,0.262-3.84-0.087
			c-1.003-0.354-1.648-0.883-2.029-1.267c-0.379-0.395-0.523-0.64-0.531-0.634c0.008-0.006,0.164,0.266,0.558,0.699
			c0.404,0.408,1.09,0.959,2.133,1.302c1.028,0.344,2.42,0.479,3.895,0.024c1.453-0.422,3.008-1.627,3.551-3.474
			c4.203,0.664,9.368,1.446,14.912,2.038c5.555,0.61,11.543,1.101,17.522,1.483c5.98,0.383,11.95,0.674,17.474,0.938l7.897,0.377
			l3.599,0.181l1.691,0.089l0.758,0.041l0.271,0.015l0.134,0.008c0.047,0,0.097-0.004,0.085,0.058
			c0.01,0.136,0.046,0.266,0.096,0.387c0.09,0.189,0.226,0.418,0.388,0.579c0.319,0.347,0.719,0.557,1.107,0.696
			c0.784,0.268,1.554,0.273,2.253,0.191c0.702-0.086,1.349-0.281,1.916-0.564c0.143-0.07,0.278-0.15,0.412-0.229l0.188-0.126
			l0.101-0.075c0.137-0.11,0.259-0.229,0.357-0.362c0.109,0.089,0.222,0.257,0.341,0.355c0.059,0.056,0.131,0.116,0.229,0.19
			c0.117,0.087,0.24,0.166,0.365,0.242c0.254,0.146,0.526,0.267,0.809,0.354c0.567,0.173,1.182,0.204,1.766,0.075
			c0.585-0.126,1.128-0.41,1.574-0.79c0.258-0.223,0.319-0.306,0.439-0.452c0.053-0.065,0.099-0.139,0.147-0.208
			c0.045-0.07,0.088-0.195,0.137-0.062c0.082,0.11,0.185,0.209,0.295,0.291c0.058,0.043,0.113,0.077,0.177,0.114
			c0.104,0.061,0.211,0.114,0.317,0.164c0.429,0.198,0.867,0.322,1.304,0.42c0.875,0.186,1.747,0.254,2.612,0.287
			c1.732,0.058,3.447-0.041,5.154-0.164l5.101-0.438c1.693-0.16,3.384-0.224,5.093-0.329l20.469-1.159l41.033-2.367
			c27.38-1.619,54.784-3.315,82.051-5.317c13.533-0.998,26.771-2.033,39.781-3.209c6.504-0.592,12.953-1.215,19.35-1.941
			c3.201-0.366,6.385-0.755,9.562-1.219c1.588-0.234,3.174-0.484,4.766-0.791l1.193-0.243l0.601-0.136l0.853-0.218
			c0.728-0.2,1.469-0.439,1.973-0.756c0.498-0.341,0.722-0.636,1.168-1.062L499.931,142.336z"/>
		<path class="st6" d="M165.791,157.857l-0.012-0.229l-0.029-0.584l-0.047-1.171l-0.057-2.35l-0.038-4.703
			c-0.039-5.822,0.019-10.663-0.272-16.435l-0.088-1.951l-0.062-1.334c0.031-0.428-0.256-1.108,0.393-0.862
			c1.838,0.08,3.476,0.138,3.476,0.174c0.004-0.034-1.593-0.171-3.409-0.33l-0.422-0.053l-0.275-0.034l0.006,0.276l0.008,0.788
			l0.006,1.36l0.013,2.108c0.08,4.524,0.173,8.921,0.203,13.444c0.01,1.834,0.096,6.088,0.313,9.875l0.086,1.396l0.049,0.714
			l0.007,0.104c0.002,0.018,0.001,0.035,0.005,0.05l0.053-0.006l0.203-0.022l0.34-0.042l2.254-0.301l2.119-0.299l-4.698,0.475
			C165.853,157.919,165.77,157.95,165.791,157.857z"/>
		<path class="st6" d="M270.843,160.615c-0.013,0.055-0.022,0.092-0.023,0.092C270.825,160.708,270.833,160.671,270.843,160.615z"/>
		<path class="st6" d="M271.286,154.02c-0.097,3.225-0.352,6.078-0.443,6.596c0.059-0.243,0.218-0.982,0.342-1.811
			c0.156-1.008,0.29-2.123,0.319-2.53c0.207-2.929,0.531-5.895,0.691-8.841c0.281-5.484,0.393-10.06-0.044-15.5
			c-0.065-0.756-0.168-2.677-0.337-4.402c-0.085-0.865-0.187-1.677-0.3-2.268c-0.107-0.593-0.253-0.942-0.253-0.94
			c0,0,0.107,0.349,0.157,0.934c0.056,0.583,0.082,1.385,0.089,2.245l-0.037,4.576c0.069,4.253,0.21,8.393,0.069,12.648
			C271.48,146.452,271.424,150.454,271.286,154.02z"/>
		<path class="st6" d="M258.489,145.863l-0.506,7.696c-0.188,2.957-0.506,5.541-0.564,5.528c0.071,0.021,0.634-2.975,0.681-3.652
			c0.249-2.422,0.608-4.868,0.837-7.306c0.422-4.536,0.682-8.313,0.623-12.835c0.001-1.259,0.05-6.381,0.005-6.379
			c0.043,0.004-0.479,4.952-0.576,6.457C258.808,138.904,258.76,142.341,258.489,145.863z"/>
		<path class="st6" d="M251.805,135.321c-0.09,3.645-0.101,7.192-0.349,10.833l-0.48,7.947c-0.19,3.056-0.504,5.727-0.544,5.718
			c0.052,0.014,0.621-3.079,0.671-3.78c0.249-2.502,0.61-5.03,0.833-7.548c0.403-4.688,0.639-8.599,0.456-13.269l-0.116-3.78
			c-0.052-1.485-0.226-2.795-0.244-2.791c0.015,0,0.064,1.276-0.018,2.753C251.948,132.878,251.823,134.544,251.805,135.321z"/>
		<path class="st6" d="M245.387,152.871c-0.122,2.851-0.452,5.337-0.479,5.332c0.043,0.013,0.591-2.87,0.619-3.527
			c0.211-2.336,0.491-4.704,0.631-7.059c0.245-4.383,0.324-8.038-0.034-12.383c-0.051-0.606-0.139-2.142-0.272-3.521
			c-0.113-1.383-0.355-2.591-0.376-2.583c0.02-0.002,0.143,1.184,0.131,2.561l-0.024,3.655c0.063,3.398,0.183,6.705,0.062,10.104
			C245.596,146.828,245.536,150.022,245.387,152.871z"/>
		<path class="st6" d="M179.441,137.446c-0.113,2.564,0.03,5.051,0.149,7.602c0.029,2.08,1.005,9.543,1.027,9.537
			c-0.002,0-0.12-2.188-0.165-2.677c-0.181-1.745-0.233-3.527-0.322-5.284c-0.157-3.273-0.205-5.982-0.275-9.236
			c-0.05-0.907,0.168-4.597,0.189-4.596C180.025,132.787,179.46,136.346,179.441,137.446z"/>
	</g>
</g>
</svg>
