<svg id="logo" xmlns="http://www.w3.org/2000/svg" viewBox="0 0 256 60">
<g id="druart-logo">
	<g id="text">
		<path fill="#D8D9DC" d="M14.468,19.439c0.205-0.214,0.737-0.428,1.599-0.642c0.861-0.215,1.918-0.382,3.174-0.502
			c1.254-0.12,2.655-0.146,4.202-0.08c1.547,0.067,3.115,0.275,4.707,0.622c1.59,0.348,3.13,0.868,4.619,1.562
			c1.488,0.697,2.809,1.639,3.961,2.827c1.152,1.191,2.08,2.646,2.781,4.371c0.7,1.724,1.035,3.778,1.007,6.156
			c0,1.737-0.328,3.235-0.985,4.492s-1.496,2.325-2.518,3.209c-1.022,0.882-2.174,1.603-3.458,2.163
			c-1.284,0.563-2.547,0.997-3.787,1.305c-1.241,0.308-2.416,0.515-3.524,0.62c-1.109,0.107-2,0.16-2.67,0.16
			c-0.205,0-0.402-0.006-0.592-0.02c-0.189-0.012-0.401-0.033-0.634-0.059l-0.263,0.521l-0.788-0.039l-0.482,1.081l-0.482-0.119
			l-0.175,0.24c-0.117,0.16-0.191,0.243-0.219,0.243c-0.03-0.136-0.052-0.422-0.066-0.863c-0.016-0.44-0.036-0.982-0.066-1.624
			c-0.729-0.24-1.459-0.593-2.188-1.061c-0.73-0.469-1.394-1.07-1.993-1.806c-0.599-0.734-1.079-1.644-1.444-2.727
			c-0.365-1.083-0.547-2.372-0.547-3.871c0.116-0.24,0.233-0.413,0.35-0.52c0.088-0.083,0.176-0.101,0.264-0.06
			c0.086,0.04,0.131,0.245,0.131,0.62c0,0.269,0.131,0.562,0.394,0.882c0.263,0.321,0.62,0.636,1.072,0.943
			c0.452,0.307,1,0.603,1.642,0.884c0.642,0.279,1.357,0.513,2.146,0.699c-0.029-1.15-0.066-2.352-0.109-3.607
			c-0.044-1.258-0.087-2.493-0.132-3.711c-0.044-1.216-0.095-2.393-0.152-3.528c-0.06-1.136-0.132-2.186-0.22-3.148
			c-0.554,0.107-1.102,0.215-1.642,0.321c-0.54,0.106-1.087,0.24-1.641,0.4c-0.351-0.16-0.694-0.5-1.029-1.021
			c-0.336-0.521-0.591-1.116-0.766-1.784c-0.176-0.669-0.234-1.323-0.176-1.966C13.826,20.362,14.059,19.841,14.468,19.439z
			 M23.706,39.49c-0.03-0.616-0.037-1.225-0.021-1.825c0.014-0.603,0.021-1.143,0.021-1.625v-1.643l-0.395,5.094h0.22L23.706,39.49
			L23.706,39.49z M36.839,32.353c0.029-0.645-0.248-1.336-0.832-2.086c-0.584-0.748-1.409-1.464-2.474-2.146
			c-1.065-0.683-2.327-1.297-3.787-1.846c-1.46-0.547-3.036-0.94-4.729-1.183c-0.028,1.177-0.065,2.435-0.109,3.77
			c-0.043,1.337-0.087,2.652-0.131,3.95c-0.043,1.297-0.096,2.521-0.153,3.671c-0.059,1.149-0.102,2.138-0.131,2.966
			c1.372-0.106,2.78-0.394,4.225-0.861c1.443-0.467,2.758-1.035,3.939-1.704c1.182-0.668,2.159-1.397,2.933-2.187
			S36.781,33.128,36.839,32.353z"/>
		<path fill="#D8D9DC" d="M65.621,28.93c0,0.99-0.163,1.871-0.488,2.64c-0.325,0.769-0.755,1.446-1.287,2.032
			c-0.532,0.587-1.161,1.102-1.885,1.545c-0.725,0.444-1.486,0.821-2.284,1.136c0.856,1.355,1.457,2.795,1.797,4.318
			c0.339,1.527,0.348,2.89,0.022,4.088c0.059-0.913,0.015-1.746-0.133-2.504c-0.148-0.757-0.325-1.407-0.533-1.955
			c-0.266-0.651-0.562-1.225-0.887-1.721c0.296,0.938,0.547,1.84,0.754,2.698c0.178,0.73,0.317,1.466,0.42,2.21
			c0.104,0.743,0.082,1.321-0.066,1.74c-0.029-0.027-0.052-0.052-0.066-0.078c-0.015-0.026-0.037-0.052-0.066-0.079l-0.088-0.077
			c-0.089,0.156-0.193,0.286-0.311,0.39c-0.088,0.106-0.178,0.204-0.266,0.295c-0.089,0.09-0.163,0.137-0.221,0.137
			c-0.059,0.026-0.148,0.045-0.266,0.058c-0.119,0.012-0.252,0.034-0.4,0.061c-0.149,0.026-0.311,0.065-0.487,0.117l-0.4-0.393
			c-0.444-1.535-1.125-2.977-2.041-4.319c-0.917-1.342-1.863-2.562-2.839-3.654c-0.798,0.102-1.539,0.169-2.218,0.191
			c-0.681,0.029-1.258,0.041-1.73,0.041h-0.266c-0.06,0.601-0.104,1.149-0.133,1.643c-0.03,0.494-0.06,0.925-0.089,1.289
			c-0.029,0.418-0.061,0.784-0.088,1.096c-0.06,0.104-0.133,0.209-0.222,0.312c-0.059,0.105-0.132,0.223-0.222,0.353
			c-0.087,0.13-0.192,0.272-0.31,0.43c-0.06,0.106-0.14,0.234-0.244,0.393c-0.104,0.153-0.2,0.325-0.289,0.509
			c-0.118,0.207-0.237,0.431-0.354,0.664c-0.089,0.025-0.193,0.065-0.311,0.116c-0.208,0.104-0.385,0.235-0.533,0.393
			c-0.03,0.053-0.059,0.111-0.088,0.177c-0.03,0.064-0.075,0.148-0.134,0.253c-0.06,0.104-0.103,0.221-0.133,0.352l-0.355-0.039
			l-0.532,0.742l-0.178-0.076c-0.119-0.055-0.193-0.079-0.222-0.079c-0.119,0.052-0.215,0.147-0.288,0.292
			c-0.074,0.143-0.156,0.216-0.244,0.216c-0.03-0.158-0.06-0.548-0.088-1.175c-0.03-0.624-0.067-1.406-0.111-2.346
			c-0.044-0.938-0.087-1.999-0.132-3.187c-0.044-1.186-0.083-2.431-0.112-3.734c-0.681-0.364-1.3-0.859-1.863-1.484
			c-0.562-0.628-1.005-1.396-1.331-2.306c-0.031-0.08-0.081-0.301-0.156-0.667c-0.073-0.363-0.082-0.677-0.021-0.937
			c0.059,0.26,0.139,0.54,0.244,0.842c0.104,0.3,0.214,0.586,0.333,0.861c0.116,0.271,0.243,0.513,0.376,0.722
			c0.134,0.21,0.259,0.352,0.377,0.432c-0.415-0.758-0.695-1.468-0.843-2.134c-0.148-0.664-0.164-1.218-0.045-1.661
			c0.237,0.651,1.169,1.265,2.795,1.838c-0.059-1.303-0.126-2.567-0.2-3.793s-0.141-2.371-0.199-3.44
			c-0.858,0.104-1.761,0.26-2.706,0.469c-0.355-0.104-0.694-0.372-1.02-0.803c-0.325-0.43-0.569-0.904-0.732-1.427
			c-0.162-0.521-0.215-1.043-0.155-1.563c0.06-0.521,0.281-0.938,0.665-1.252c0.208-0.157,0.732-0.357,1.576-0.605
			c0.842-0.247,1.899-0.476,3.171-0.684c1.271-0.209,2.684-0.365,4.236-0.469c1.553-0.104,3.12-0.099,4.702,0.02
			c1.582,0.116,3.127,0.378,4.636,0.781c1.508,0.405,2.839,1.017,3.992,1.838c1.153,0.82,2.085,1.878,2.795,3.167
			C65.312,25.469,65.65,27.052,65.621,28.93z M62.161,27.835c0.03-0.547-0.214-1.069-0.731-1.562
			c-0.518-0.496-1.294-0.92-2.329-1.271c-1.036-0.353-2.315-0.62-3.837-0.802c-1.523-0.182-3.276-0.234-5.257-0.156
			c0.029,0.209,0.045,0.424,0.045,0.644c0,0.223,0,0.464,0,0.725c-0.03,1.251-0.074,2.509-0.134,3.772
			c-0.059,1.265-0.134,2.51-0.221,3.733c1.331,0,2.72-0.149,4.169-0.447c1.449-0.302,2.781-0.685,3.993-1.156
			c1.212-0.469,2.219-1.003,3.017-1.604C61.673,29.111,62.101,28.486,62.161,27.835z"/>
		<path fill="#D8D9DC" d="M65.636,31.331c-0.046-2.068,0.035-3.93,0.245-5.581c0.209-1.652,0.465-3.056,0.769-4.211
			c0.304-1.153,0.63-2.059,0.98-2.716c0.35-0.658,0.617-1.024,0.805-1.105c0.699-0.277,1.538-0.338,2.518-0.18
			c0.98,0.16,1.889,0.419,2.729,0.777c0.839,0.358,1.54,0.757,2.098,1.194c0.561,0.438,0.793,0.816,0.699,1.135
			c-1.166,4.14-1.738,7.453-1.713,9.94c0.023,2.488,0.315,4.409,0.875,5.761c0.56,1.354,1.201,2.25,1.923,2.688
			c0.722,0.438,1.177,0.656,1.365,0.656c0.325,0.042,0.85-0.099,1.574-0.417c0.722-0.319,1.443-0.856,2.167-1.613
			c0.723-0.757,1.353-1.731,1.889-2.924c0.536-1.195,0.805-2.668,0.805-4.42c0-2.067-0.116-3.791-0.35-5.164
			s-0.489-2.457-0.769-3.254c-0.327-0.955-0.677-1.671-1.049-2.149l-0.28-0.06c0.139-0.039,0.256-0.078,0.35-0.119
			c0.186-0.079,0.255-0.179,0.21-0.299c-0.047-0.039-0.129-0.099-0.244-0.179c-0.118-0.079-0.175-0.159-0.175-0.239
			c0-0.079,0.045-0.209,0.14-0.389c0.093-0.18,0.325-0.328,0.699-0.448c0.885-0.317,1.889-0.327,3.007-0.029
			c1.119,0.298,2.169,0.955,3.148,1.971c0.98,1.015,1.807,2.408,2.484,4.178c0.675,1.773,0.99,3.953,0.944,6.539
			c-0.047,2.23-0.385,4.329-1.015,6.299c-0.628,1.97-1.528,3.693-2.692,5.165c-1.167,1.472-2.578,2.635-4.232,3.492
			c-1.656,0.856-3.487,1.266-5.491,1.224c-2.286-0.04-4.314-0.565-6.086-1.581c-1.773-1.015-3.265-2.29-4.477-3.821
			c-1.213-1.532-2.146-3.205-2.798-5.015C66.031,34.627,65.682,32.925,65.636,31.331z"/>
		<path fill="#D8D9DC" d="M10.307,49.88c2.5-0.236,5.479-0.419,8.931-0.554c3.452-0.134,7.054-0.22,10.806-0.259
			c3.753-0.04,7.504-0.043,11.256-0.012c3.753,0.033,7.205,0.1,10.356,0.201c3.152,0.102,5.854,0.235,8.105,0.401
			c2.251,0.165,3.726,0.35,4.428,0.553h-0.3c-0.1,0-0.25-0.007-0.451-0.023l1.952,0.378l-1.201,0.047
			c0.399,0.095,0.799,0.18,1.201,0.26c0.3,0.079,0.548,0.157,0.75,0.234c0.199,0.08,0.248,0.135,0.15,0.166
			c-0.299,0.11-0.652,0.292-1.05,0.542c-0.202,0.127-0.401,0.261-0.6,0.401l-1.35-0.118c-3.903-0.077-7.831-0.102-11.782-0.07
			c-3.954,0.031-7.831,0.095-11.632,0.188c-3.804,0.094-7.456,0.216-10.956,0.366c-3.504,0.149-6.806,0.303-9.906,0.459
			c-2.503,0.126-4.555,0.102-6.154-0.07c-1.602-0.173-2.777-0.425-3.527-0.755c-0.75-0.33-1.051-0.708-0.9-1.131
			C8.581,50.659,9.206,50.258,10.307,49.88z"/>
		<path fill="#D8D9DC" d="M141.226,43.959c0,0.132,0.083,0.363,0.252,0.696c0.166,0.332,0.334,0.675,0.499,1.027
			c0.168,0.354,0.336,0.697,0.504,1.027c0.168,0.331,0.252,0.542,0.252,0.63c-0.068,0.486-0.168,0.896-0.303,1.226
			c-0.133,0.332-0.269,0.631-0.399,0.897c-0.137,0.176-0.354,0.319-0.656,0.429c-0.3,0.112-0.521,0.211-0.653,0.299
			c-0.134,0.134-0.187,0.233-0.151,0.3c0.033,0.065-0.017,0.143-0.151,0.231c-0.135,0.088-0.302,0.154-0.503,0.199
			c-0.201,0.044-0.37,0.11-0.501,0.199c-0.337,0.087-0.704,0.132-1.105,0.132h-0.506c-1.07,0-2.515-0.896-4.322-2.687
			c-1.813-1.788-3.756-4.144-5.835-7.059c-0.336,0.09-0.688,0.178-1.056,0.265c-0.37,0.088-0.755,0.177-1.155,0.266
			c-1.141-0.089-2.617-0.1-4.426-0.034c-1.812,0.064-3.757,0.165-5.836,0.299c-2.077,0.131-4.173,0.3-6.286,0.497
			c-2.112,0.198-4.008,0.365-5.683,0.498c-1.141,1.456-2.331,2.904-3.57,4.341c-1.243,1.437-2.533,2.863-3.873,4.275
			c-0.269,0.087-0.437,0-0.502-0.264c-0.068-0.268-0.27-0.489-0.603-0.664c-0.135-0.088-0.371-0.077-0.705,0.033
			c-0.334,0.109-0.603,0.101-0.803-0.033c-0.07-0.044-0.136-0.19-0.203-0.432c-0.067-0.242-0.135-0.472-0.202-0.697l-0.201-0.926
			c-0.269,0-0.537-0.067-0.805-0.199c-0.536-0.175-0.903-0.486-1.106-0.929c-0.067-0.087-0.084-0.253-0.049-0.496
			c0.033-0.241,0.083-0.538,0.152-0.896c0.065-0.354,0.132-0.771,0.2-1.258c-0.2,0.177-0.402,0.308-0.604,0.396
			c-0.401,0.178-0.638,0.178-0.702,0c-0.135-0.442-0.217-0.873-0.252-1.291c-0.034-0.421,0.017-0.808,0.151-1.161
			c0.47-0.928,1.425-2.618,2.867-5.07c1.44-2.452,3.001-5.379,4.678-8.783c1.675-3.403,3.234-7.169,4.677-11.302
			c1.441-4.131,2.396-8.341,2.867-12.628c4.023-0.354,7.256-0.474,9.707-0.364c2.445,0.11,4.273,0.408,5.479,0.896
			c1.946-0.045,3.705,0.188,5.281,0.695c1.576,0.509,2.498,1.491,2.767,2.949c0.199,1.194,0.518,2.84,0.956,4.938
			c0.436,2.1,1.155,4.606,2.162,7.525c1.006,2.916,2.396,6.229,4.174,9.942c1.776,3.713,4.139,7.803,7.091,12.264
			c0.067,0.178,0.051,0.242-0.048,0.196c-0.101-0.042-0.237-0.12-0.403-0.231c-0.167-0.109-0.3-0.198-0.403-0.265
			C141.275,43.793,141.226,43.826,141.226,43.959z M109.642,34.148c2.146-0.044,4.341-0.034,6.588,0.033
			c2.246,0.067,4.441,0.166,6.587,0.3c-1.206-1.899-2.379-3.833-3.521-5.801c-1.14-1.965-2.212-3.942-3.217-5.931
			c-1.074,2.077-2.13,4.055-3.168,5.931C111.87,30.56,110.782,32.381,109.642,34.148z"/>
		<path fill="#D8D9DC" d="M192.722,20.987c0,1.542-0.369,2.911-1.106,4.108s-1.708,2.252-2.916,3.165
			c-1.21,0.914-2.633,1.716-4.274,2.405c-1.643,0.692-3.368,1.28-5.181,1.766c1.944,2.11,3.303,4.353,4.073,6.729
			c0.771,2.373,0.787,4.496,0.053,6.364c0.13-1.422,0.031-2.72-0.304-3.898c-0.335-1.176-0.737-2.191-1.207-3.044
			c-0.604-1.015-1.274-1.907-2.012-2.679c0.67,1.461,1.24,2.862,1.708,4.199c0.402,1.138,0.721,2.284,0.957,3.441
			c0.234,1.156,0.184,2.06-0.153,2.708c-0.067-0.04-0.118-0.081-0.151-0.122c-0.034-0.04-0.086-0.079-0.15-0.123l-0.202-0.122
			c-0.201,0.244-0.438,0.446-0.704,0.608c-0.202,0.163-0.402,0.313-0.604,0.457c-0.201,0.142-0.37,0.213-0.503,0.213
			c-0.135,0.039-0.335,0.07-0.603,0.092c-0.27,0.02-0.571,0.05-0.907,0.09c-0.336,0.041-0.701,0.102-1.104,0.182l-0.907-0.606
			c-1.005-2.395-2.548-4.637-4.626-6.729c-2.078-2.089-4.224-3.987-6.437-5.691c-1.811,0.162-3.486,0.264-5.028,0.303
			c-1.544,0.043-2.853,0.062-3.926,0.062h-0.604c-0.132,0.935-0.233,1.786-0.299,2.557c-0.067,0.772-0.135,1.442-0.202,2.009
			c-0.067,0.651-0.134,1.22-0.199,1.706c-0.136,0.161-0.302,0.326-0.503,0.484c-0.137,0.165-0.301,0.347-0.502,0.549
			c-0.202,0.205-0.438,0.428-0.705,0.672c-0.136,0.163-0.318,0.365-0.553,0.607c-0.237,0.243-0.452,0.509-0.654,0.79
			c-0.271,0.327-0.537,0.671-0.805,1.035c-0.202,0.041-0.438,0.104-0.703,0.183c-0.473,0.164-0.874,0.366-1.208,0.607
			c-0.067,0.083-0.134,0.174-0.202,0.275c-0.067,0.103-0.167,0.233-0.3,0.396c-0.135,0.163-0.234,0.345-0.302,0.549l-0.804-0.062
			l-1.206,1.156l-0.403-0.122c-0.27-0.081-0.438-0.12-0.504-0.12c-0.269,0.079-0.486,0.232-0.653,0.455
			c-0.167,0.224-0.352,0.336-0.553,0.336c-0.069-0.243-0.137-0.854-0.202-1.827c-0.068-0.974-0.151-2.191-0.251-3.651
			c-0.102-1.461-0.201-3.115-0.3-4.961c-0.1-1.848-0.187-3.784-0.252-5.814c-1.545-0.567-2.952-1.339-4.227-2.314
			c-1.273-0.974-2.279-2.172-3.016-3.592c-0.068-0.122-0.186-0.467-0.353-1.036c-0.168-0.567-0.186-1.055-0.048-1.461
			c0.131,0.406,0.316,0.844,0.552,1.309c0.233,0.469,0.486,0.915,0.755,1.34s0.555,0.802,0.854,1.126
			c0.302,0.325,0.588,0.549,0.856,0.671c-0.938-1.177-1.577-2.282-1.912-3.318c-0.335-1.035-0.368-1.896-0.101-2.588
			c0.537,1.016,2.648,1.971,6.338,2.862c-0.136-2.028-0.288-3.997-0.453-5.905c-0.167-1.906-0.319-3.692-0.452-5.357
			c-1.945,0.163-3.991,0.406-6.137,0.731c-0.803-0.162-1.573-0.578-2.313-1.249c-0.735-0.669-1.289-1.41-1.659-2.222
			c-0.367-0.812-0.483-1.623-0.352-2.435c0.134-0.811,0.639-1.462,1.509-1.948c0.472-0.243,1.659-0.558,3.572-0.943
			c1.909-0.386,4.307-0.74,7.19-1.065c2.883-0.324,6.087-0.568,9.604-0.73c3.521-0.161,7.075-0.152,10.662,0.031
			c3.585,0.182,7.092,0.589,10.511,1.218c3.42,0.63,6.437,1.583,9.054,2.861c2.616,1.278,4.727,2.923,6.338,4.931
			C192.018,15.6,192.787,18.064,192.722,20.987z M184.876,19.281c0.068-0.851-0.485-1.663-1.659-2.435
			c-1.175-0.77-2.934-1.43-5.281-1.978c-2.347-0.549-5.246-0.964-8.698-1.248c-3.456-0.283-7.429-0.366-11.92-0.244
			c0.067,0.325,0.101,0.66,0.101,1.004c0,0.346,0,0.722,0,1.126c-0.068,1.948-0.168,3.907-0.3,5.874
			c-0.138,1.97-0.304,3.907-0.505,5.813c3.018,0,6.17-0.231,9.457-0.697c3.284-0.468,6.301-1.066,9.053-1.797
			c2.75-0.73,5.029-1.562,6.837-2.496C183.771,21.271,184.743,20.297,184.876,19.281z"/>
		<path fill="#D8D9DC" d="M223.14,6.207c5.029,0.137,10.174,0.329,15.438,0.578c5.264,0.25,10.611,0.509,16.044,0.78
			c-0.135,0.635-0.438,1.37-0.904,2.207c-0.472,0.838-1.192,1.676-2.164,2.513s-2.213,1.641-3.721,2.411
			c-1.508,0.77-3.371,1.382-5.582,1.833c-2.549,0.091-4.998,0.17-7.344,0.237c-2.349,0.068-4.594,0.147-6.738,0.238
			c-0.135,3.44-0.387,6.893-0.757,10.354c-0.369,3.463-0.752,6.621-1.154,9.473c-0.473,3.304-0.973,6.474-1.51,9.506l-2.213,3.325
			l-0.804-0.067l-1.609,2.444c-0.068-0.089-0.168-0.157-0.302-0.205c-0.271-0.088-0.571,0-0.906,0.274
			c-0.133,0.09-0.335,0.363-0.603,0.813c-0.137,0.181-0.236,0.384-0.301,0.611h-0.805l-1.308,1.359l-0.906-1.698
			c-0.135,0.405-0.301,0.79-0.501,1.154c-0.135,0.314-0.27,0.6-0.4,0.849c-0.138,0.247-0.272,0.372-0.406,0.372
			c-0.066-0.362-0.134-1.221-0.2-2.578c-0.066-1.359-0.118-3.045-0.151-5.059c-0.034-2.015-0.085-4.288-0.151-6.825
			c-0.068-2.533-0.134-5.148-0.203-7.843c-0.067-2.691-0.15-5.386-0.248-8.079c-0.102-2.693-0.221-5.239-0.354-7.639
			c-4.562,0.181-8.131,0.317-10.712,0.407c-2.586,0.091-4.311,0.159-5.181,0.204c-1.406,0.045-2.598-0.204-3.57-0.747
			c-0.972-0.544-1.727-1.233-2.263-2.072c-0.536-0.835-0.871-1.741-1.007-2.716c-0.134-0.972-0.084-1.889,0.152-2.75
			c0.234-0.858,0.637-1.595,1.205-2.206c0.57-0.61,1.326-0.962,2.264-1.052c2.552-0.226,5.332-0.385,8.351-0.476
			c3.016-0.091,6.235-0.136,9.653-0.136c0.404-0.272,0.771-0.453,1.107-0.544c0.604-0.136,1.34-0.248,2.212-0.339
			c0.871-0.091,1.793-0.125,2.768-0.102c0.97,0.023,1.944,0.126,2.916,0.306C221.244,5.507,222.199,5.8,223.14,6.207z"/>
	</g>
	<g id="pincel">
		<g>
			<path fill="#201813" d="M3.85,43.35c-0.504,0.36-1.021,0.988-1.308,1.364c0.544-1.097,1.163-2.156,1.483-3.326
				c-0.233,0.18-0.448,0.375-0.659,0.586c0.323-0.408,0.674-0.819,0.925-1.272c0.071-0.29,0.158-0.553,0.263-0.713l4.301-0.417
				c0.032,0.021,0.113,0.126,0.145,0.146c-0.047-0.048-0.08-0.081-0.082-0.08c0.003-0.007,0.778,0.541,0.968,0.764
				c0.459,0.494,0.816,1.05,1.178,1.615c0.15,0.229,0.444,0.792,0.634,1.323c0.196,0.529,0.297,1.013,0.299,1.013
				c0.004-0.003-0.227-0.528-0.276-0.645c-0.157-0.431-0.404-0.826-0.64-1.211c-0.179-0.289-0.354-0.548-0.531-0.801
				c0.072,0.15,0.137,0.301,0.197,0.454c-0.001-0.035-0.001-0.061-0.001-0.061c-0.014,0.007,0.253,0.666,0.313,0.87
				c0.12,0.481,0.191,0.969,0.364,1.439c0.069,0.19,0.205,0.642,0.355,1.034c0.143,0.394,0.333,0.712,0.338,0.709
				c-0.007,0.01-0.3-0.321-0.338-0.415c-0.157-0.312-0.352-0.616-0.493-0.94c-0.032-0.074-0.058-0.146-0.087-0.217
				c0.01,0.282,0.005,0.564-0.006,0.849c0.014,0.133,0.021,0.266,0.053,0.396c0.019,0.126,0.129,0.574,0.136,0.574
				c0,0-0.069-0.119-0.078-0.148c-0.034-0.103-0.084-0.204-0.115-0.31c-0.008-0.026-0.01-0.049-0.017-0.072
				c-0.09,1.243-0.35,2.48-0.645,3.718c-0.513,2.073-1.224,4.185-1.422,6.297c-0.119-0.599-0.514-1.116-0.672-1.714
				c-0.158,0.238-0.237,0.519-0.237,0.836c-0.474-0.995-1.489-2.251-2.054-3.228c-0.553-0.955-0.659-1.475-0.672-2.79
				c-0.316,0.638-0.277,1.594-0.079,2.232c-0.79-1.316-0.949-3.148-0.949-4.624c-0.276,0.917-0.276,1.954-0.316,2.91
				c-0.436-1.204-0.535-2.568-0.498-3.796c-0.201,0.345-0.36,0.716-0.402,1.088c0.042-0.832,0.262-1.616,0.495-2.423
				c0.021-0.2,0.044-0.39,0.067-0.569c-0.229,0.319-0.463,0.691-0.651,1.058C3.361,44.372,3.722,43.445,3.85,43.35z"/>
			<path fill="#D8D9DC" d="M6.159,50.45c0.008-0.16,0.006-0.326,0.002-0.49c0.182,0.097,0.295,0.313,0.5,0.345
				c0.047-0.526-0.485-0.998-0.464-1.506c0.292,0.266,0.485,0.774,0.86,0.926c-0.029-0.181-0.093-0.48,0.042-0.616
				c0.14,0.09,0.291,0.191,0.422,0.289c0.053-0.182,0.063-0.388,0.117-0.562c0.388,0.843,0.414-0.619,0.467-0.772
				c0.396,0.244,0.574,1.543,1.146,1.404c0.023-0.199,0.094-0.38,0.075-0.599c0.201,0.299,0.315,0.636,0.54,0.937
				c0.239-0.303,0.269-1.184,0.324-1.588c0.103,0.38,0.184,0.905,0.332,1.376c-0.514,2.065-1.221,4.173-1.418,6.279
				c-0.118-0.598-0.513-1.115-0.672-1.714c-0.158,0.238-0.237,0.518-0.237,0.837C7.72,54,6.706,52.745,6.14,51.769
				c-0.307-0.529-0.475-0.926-0.567-1.398c0.033-0.095,0.076-0.186,0.152-0.275C5.811,50.26,6.014,50.352,6.159,50.45z"/>
			<g>
				<path fill="#514443" d="M6.003,42.505c0.009-0.113,0.008-0.4,0.02-0.656c0.009-0.257,0.031-0.481,0.031-0.481
					c0,0,0.053,0.219,0.122,0.463c0.069,0.247,0.154,0.517,0.173,0.646c0.008,0.058,0.014,0.112,0.02,0.169
					c0.008-0.108,0.015-0.276,0.031-0.433c0.018-0.195,0.05-0.365,0.049-0.365c0,0,0.039,0.154,0.096,0.327
					c-0.002-0.165-0.021-0.521-0.014-0.843c0.004-0.341,0.036-0.643,0.036-0.643s0.042,0.296,0.116,0.622
					c0.072,0.327,0.177,0.69,0.205,0.861c0.128,0.809,0.241,1.618,0.396,2.447c0.007,0.033,0.014,0.076,0.021,0.123
					c-0.001-0.008-0.001-0.011-0.002-0.017c-0.126-0.643-0.183-1.304-0.185-2.012c-0.001-0.198-0.031-0.697-0.069-1.146
					c-0.035-0.448-0.087-0.847-0.087-0.849c0,0,0.123,0.376,0.238,0.813c0.117,0.438,0.233,0.935,0.264,1.167
					c0.055,0.42,0.101,0.832,0.154,1.241c-0.023-0.198-0.028-0.403,0.005-0.633c0.02-0.146,0.007-0.711,0.01-0.71
					c-0.001,0.002,0.093,0.159,0.182,0.325c-0.022-0.1-0.045-0.197-0.065-0.301c-0.033-0.155-0.144-0.538-0.237-0.886
					c-0.094-0.347-0.157-0.658-0.157-0.658c0,0,0.132,0.284,0.299,0.599s0.361,0.67,0.426,0.848
					c0.143,0.381,0.262,0.776,0.357,1.178c-0.026-0.219-0.047-0.442-0.059-0.69c-0.004-0.095-0.049-0.323-0.108-0.525
					c-0.06-0.201-0.128-0.379-0.127-0.379c-0.001,0,0.132,0.138,0.265,0.312c0.02,0.025,0.039,0.053,0.059,0.08
					c-0.01-0.054-0.019-0.103-0.028-0.157c-0.022-0.243-0.365-1.154-0.375-1.15c0,0,0.156,0.183,0.32,0.41
					c0.165,0.226,0.333,0.497,0.383,0.634c0.105,0.278,0.178,0.56,0.24,0.845c0-0.053-0.003-0.102,0.002-0.158
					c0.012-0.113-0.073-0.532-0.074-0.532c0-0.002,0.146,0.12,0.263,0.24c-0.028-0.14-0.053-0.283-0.076-0.436
					c-0.014-0.092-0.084-0.309-0.169-0.498c-0.083-0.19-0.18-0.351-0.179-0.351c0,0,0.151,0.112,0.307,0.264
					c0.122,0.116,0.241,0.259,0.312,0.367c-0.083-0.191-0.165-0.388-0.242-0.604c-0.053-0.189-0.489-0.831-0.498-0.826
					c0,0,0.167,0.101,0.349,0.235c0.181,0.133,0.374,0.306,0.441,0.402c0.316,0.455,0.483,0.976,0.693,1.477
					c0.087,0.203,0.218,0.706,0.253,1.162c0.041,0.456-0.005,0.852-0.004,0.852c0.005-0.003-0.119-0.453-0.137-0.549
					c-0.023-0.198-0.086-0.391-0.162-0.574c0.038,0.335,0.054,0.674,0.06,1.015c0.046,0.547-0.383,2.377-0.354,2.381
					c-0.002,0-0.056-0.556-0.039-0.677c0.04-0.338,0.029-0.685,0.019-1.022c-0.032,0.162-0.059,0.267-0.059,0.266
					c0.005-0.002-0.054-0.445-0.056-0.539c0.011-0.22-0.031-0.438-0.081-0.653c0,0.002,0,0.005,0,0.007
					c-0.009,0.254-0.062,0.469-0.061,0.468c0.002-0.004-0.103-0.251-0.107-0.301c-0.012-0.196-0.137-0.377-0.204-0.557
					c-0.021-0.052-0.038-0.104-0.057-0.152c0.025,0.142,0.052,0.285,0.081,0.429c0.057,0.269,0.115,0.906,0.106,1.473
					c-0.003,0.566-0.057,1.06-0.056,1.06c0.002-0.002-0.102-0.575-0.11-0.699c-0.012-0.393-0.111-0.781-0.198-1.163
					c0.003,0.222-0.004,0.483-0.02,0.731c-0.028,0.434-0.069,0.813-0.068,0.813s-0.107-0.442-0.109-0.54
					c-0.005-0.32-0.09-0.639-0.147-0.951c0.005,0.064,0.015,0.128,0.017,0.192c0.037,0.361,0.002,1.191,0.023,1.922
					c0.012,0.735,0.171,1.367,0.175,1.366c0.001,0-0.084-0.173-0.156-0.371c-0.075-0.201-0.138-0.43-0.149-0.514
					c-0.086-0.605-0.191-1.227-0.24-1.831c-0.05-0.567-0.08-1.063-0.192-1.54c-0.022-0.1-0.045-0.197-0.069-0.297
					c0.016,0.178,0.034,0.356,0.073,0.534c0.035,0.151,0.066,0.523,0.064,0.854c0,0.332-0.042,0.619-0.041,0.619
					c0.002-0.002-0.114-0.328-0.122-0.4c-0.02-0.263-0.152-0.514-0.224-0.765c-0.061-0.215-0.114-0.415-0.148-0.618
					c0.011,0.075,0.019,0.153,0.03,0.231c0.098,0.532,0.159,1.098,0.197,1.653c0.041,0.453,0.015,1.51-0.143,2.43
					c-0.141,0.926-0.418,1.7-0.42,1.697c-0.001,0,0.046-0.233,0.079-0.498l0.079-0.653c0.125-0.744,0.087-1.52,0.056-2.269
					C7.485,46,7.417,45.379,7.311,44.774c0.058,0.39,0.108,1.08,0.02,1.697c-0.087,0.711-0.349,1.28-0.346,1.28
					c-0.001,0,0.036-0.18,0.06-0.375l0.053-0.492c0.064-0.387,0.034-0.777-0.021-1.164c-0.006,0.095-0.012,0.153-0.012,0.153
					c0.004-0.004-0.119-0.405-0.135-0.49c-0.037-0.323-0.2-0.625-0.302-0.936c-0.002-0.006-0.004-0.014-0.006-0.02
					c0.053,0.288,0.118,0.79,0.139,1.247c0.029,0.531-0.014,0.996-0.013,0.995c0.004-0.003-0.118-0.534-0.135-0.65
					c-0.036-0.427-0.2-0.838-0.305-1.254C6.108,43.995,5.936,43.333,6.003,42.505z"/>
				<path fill="#514443" d="M5.033,43.417c0.058-0.147,0.225-0.731,0.229-0.729c-0.001,0.001,0.012,0.071,0.029,0.167
					c-0.021-0.248-0.104-0.661-0.11-0.661c-0.001,0,0.107,0.127,0.214,0.289c0.017,0.023,0.033,0.05,0.049,0.074
					c-0.005-0.135-0.01-0.301-0.008-0.462c0.001-0.26,0.025-0.488,0.024-0.488c0.001,0,0.052,0.223,0.128,0.468
					c0.075,0.245,0.176,0.511,0.202,0.642c0.118,0.609,0.205,1.218,0.324,1.865c0.138,0.537-0.089,2.41-0.078,2.407
					c-0.001,0.001-0.102-0.546-0.099-0.669c0.006-0.418-0.076-0.838-0.138-1.24c0.002,0.453-0.007,0.909-0.001,0.91
					c-0.001,0.001-0.15-0.371-0.158-0.458c-0.031-0.309-0.154-0.612-0.212-0.917c-0.049-0.255-0.087-0.485-0.113-0.715
					c-0.041,0.256-0.082,0.512-0.066,0.774c0.01,0.165-0.007,0.551,0,0.898c0.005,0.349,0.036,0.655,0.035,0.655
					C5.282,46.23,5.11,45.896,5.1,45.815c-0.045-0.286-0.17-0.57-0.213-0.863C4.81,44.407,4.808,43.936,5.033,43.417z"/>
				<path fill="#514443" d="M10.044,48.938C9.9,49.249,9.748,49.503,9.75,49.503c0-0.002,0.03-0.357,0.053-0.429
					c0.094-0.259,0.084-0.548,0.116-0.812c0.06-0.496,0.081-0.885,0.257-1.392c0.053-0.141,0.106-0.724,0.104-0.724
					c0.001-0.002,0.15,0.34,0.212,0.574c0.014-0.132,0.027-0.262,0.046-0.404c0.016-0.107,0.019-0.382-0.002-0.63
					c-0.017-0.246-0.061-0.464-0.06-0.464c-0.001,0,0.113,0.191,0.21,0.429c0.101,0.237,0.185,0.518,0.197,0.649
					c0.028,0.312,0.015,0.619-0.005,0.922c-0.015,0.3-0.053,0.627-0.118,0.934c-0.025,0.127-0.088,0.332-0.188,0.554
					c-0.098,0.224-0.228,0.462-0.347,0.686c-0.246,0.442-0.4,0.861-0.398,0.862c-0.008,0.001,0.053-0.532,0.106-0.642
					c0.158-0.392,0.266-0.812,0.365-1.195c0.077-0.294,0.113-0.562,0.131-0.829c-0.034,0.164-0.071,0.332-0.096,0.5
					C10.312,48.261,10.191,48.632,10.044,48.938z"/>
			</g>
			<path fill="#8A674A" d="M4.569,39.455c0.332,0.066,1.268,0.01,1.827-0.035c0.745-0.061,1.519-0.061,2.155-0.211
				c0.531-0.125,0.96-1.114-0.21-1.252c0.04-1.27-0.183-5.734-0.287-6.905c0.482-0.14,0.397-0.715,0-0.837
				c0.335-0.171,0.328-0.763-0.131-0.795c0.412-0.234,0.083-1.107-0.056-1.736C7.702,26.934,3.162,4.727,1.675,4.226
				C0.917,4.851,2.422,28.199,2.432,28.499c0.023,0.667-0.031,1.606,0.363,1.732c-0.332,0.188-0.281,0.485,0.031,0.612
				c-0.271,0.188-0.241,0.716,0.145,0.689c0.482,2.293,0.84,4.589,1.667,6.812C4.017,38.553,4.017,39.248,4.569,39.455"/>
			<path fill="#644D35" d="M2.432,28.499c-0.011-0.3-1.515-23.648-0.757-24.273C1.483,8.901,3.781,28.438,3.827,28.622
				c-1.409,0.093,0,0-1.388,0.23C2.437,28.73,2.435,28.611,2.432,28.499z"/>
			<path fill="#CECCC9" d="M2.795,30.23c-0.328-0.104-0.346-0.772-0.356-1.378c1.388-0.231,4.15-0.543,5.56-0.636
				c0.128,0.512,0.227,1.03-0.077,1.203c0.46,0.033,0.468,0.624,0.132,0.795c0.398,0.122,0.482,0.697,0,0.837
				c0.104,1.171,0.327,5.638,0.287,6.905c1.082,0.128,0.797,0.979,0.329,1.207l0.088-0.006c0.031,0.093,0.067,0.324,0.098,0.415
				c-1.31,0.106-2.899,0.323-4.301,0.415c0-0.153,0.014-0.533,0.014-0.533c-0.552-0.207-0.552-0.902,0.069-1.11
				c-0.827-2.225-1.185-4.52-1.667-6.812c-0.388,0.025-0.416-0.501-0.146-0.69C2.514,30.716,2.463,30.419,2.795,30.23z"/>
			<path fill="#FFFFFF" d="M7.666,36.784c0.003,0.001,0.059-1.256,0.001-2.689c-0.047-1.435-0.185-3.043-0.291-3.736
				c-0.255-1.708-0.326-3.134-0.671-4.844c-0.074-0.365-0.403-2.036-0.67-2.718c-0.262-0.685-0.543-1.906-0.545-1.905
				c0.002,0,0.159,1.254,0.282,1.946c0.126,0.692,0.277,2.116,0.295,2.42c0.328,2.25,0.425,4.001,0.789,6.192
				c0.19,1.177,0.48,2.365,0.554,3.54C7.441,35.315,7.675,36.784,7.666,36.784z"/>
		</g>
		<g>
			<path fill="#222121" d="M4.527,39.446c0.024,0.009,0.041,0.016,0.038,0.018C4.568,39.462,4.552,39.458,4.527,39.446z"/>
			<path fill="#222121" d="M8.865,38.055c-0.077-0.05-0.161-0.082-0.247-0.109c-0.042-0.014-0.086-0.024-0.13-0.032
				c-0.042-0.011-0.05-0.009-0.075-0.015c-0.008-0.015-0.001-0.042-0.002-0.067l0.003-0.129l0.002-0.264
				c0-0.707-0.021-1.434-0.043-2.162l-0.085-2.172l-0.054-1.054l-0.058-0.924l0.012-0.004c0.003-0.002,0.042-0.019,0.064-0.034
				c0.052-0.031,0.101-0.072,0.14-0.122c0.081-0.1,0.119-0.231,0.109-0.354c-0.008-0.122-0.057-0.238-0.132-0.328
				c-0.113-0.119-0.087-0.08-0.101-0.093c0.006-0.004,0.01-0.007,0.015-0.01C8.276,30.188,8.3,30.16,8.316,30.133
				c0.018-0.024,0.031-0.052,0.043-0.079c0.049-0.108,0.064-0.228,0.044-0.344c-0.02-0.116-0.082-0.23-0.176-0.306
				c-0.018-0.016-0.061-0.041-0.061-0.042L8.162,29.36c-0.002-0.002-0.009-0.002-0.008-0.003l0.007-0.006
				c0.003-0.006-0.003,0.013,0.024-0.047c0.038-0.083,0.053-0.166,0.06-0.242c0.013-0.155-0.003-0.294-0.023-0.423
				c-0.042-0.259-0.104-0.482-0.154-0.68c-0.867-4.056-1.731-8.075-2.681-12.058c-0.475-1.993-0.964-3.981-1.501-5.962
				c-0.269-0.99-0.548-1.979-0.86-2.961c-0.157-0.49-0.32-0.981-0.507-1.464C2.425,5.274,2.325,5.033,2.209,4.799
				c-0.058-0.117-0.12-0.233-0.192-0.346C1.979,4.396,1.941,4.341,1.894,4.288C1.824,4.211,1.745,4.16,1.657,4.126
				C1.607,4.172,1.57,4.222,1.542,4.294c-0.027,0.083-0.037,0.13-0.045,0.178c-0.019,0.1-0.032,0.196-0.043,0.295
				C1.433,4.962,1.421,5.157,1.411,5.354c-0.02,0.391-0.027,0.781-0.03,1.171c-0.023,2.177,0.115,6.038,0.337,10.399
				c0.108,2.179,0.238,4.484,0.375,6.768l0.209,3.388c0.03,0.556,0.079,1.107,0.096,1.646c0.005,0.271,0.007,0.54,0.035,0.809
				c0.015,0.135,0.036,0.269,0.078,0.398c0.039,0.127,0.13,0.274,0.209,0.294c0.021,0.004,0.005,0.013-0.006,0.019
				c-0.011,0.007-0.023,0.013-0.033,0.022c-0.022,0.017-0.035,0.028-0.062,0.06c-0.051,0.059-0.087,0.137-0.084,0.22
				c0.001,0.083,0.044,0.158,0.098,0.212c0.031,0.03,0.054,0.046,0.075,0.059c0.018,0.015,0.058,0.022,0.06,0.037
				c-0.084,0.048-0.178,0.255-0.147,0.414c0.011,0.082,0.046,0.165,0.113,0.223c0.065,0.061,0.163,0.078,0.209,0.073
				c0.019,0.053,0.035,0.153,0.056,0.244l0.057,0.273l0.108,0.534l0.209,1.029c0.137,0.669,0.273,1.3,0.412,1.88
				C4.055,36.682,4.37,37.66,4.62,38.34c-0.208,0.064-0.397,0.242-0.444,0.428c-0.056,0.185,0.001,0.357,0.075,0.462
				c0.055,0.071,0.107,0.115,0.155,0.149c-0.05-0.037-0.106-0.09-0.16-0.17C4.174,39.1,4.13,38.925,4.193,38.746
				c0.06-0.177,0.228-0.328,0.448-0.398c-0.327-0.901-0.68-2.152-0.944-3.412c-0.135-0.628-0.257-1.259-0.371-1.843l-0.164-0.836
				l-0.076-0.385c-0.027-0.126-0.042-0.225-0.082-0.384c-0.15,0.008-0.192-0.023-0.245-0.081c-0.046-0.058-0.064-0.134-0.064-0.203
				c0-0.071,0.019-0.138,0.046-0.192c0.015-0.046,0.109-0.133,0.172-0.177c-0.012-0.017-0.054-0.028-0.077-0.04
				c-0.042-0.022-0.083-0.043-0.117-0.069c-0.023-0.018-0.043-0.038-0.059-0.061c-0.034-0.045-0.051-0.098-0.044-0.15
				c0.007-0.052,0.035-0.103,0.074-0.145c0.045-0.06,0.173-0.113,0.197-0.153c-0.065-0.027-0.149-0.065-0.189-0.104
				c-0.029-0.033-0.049-0.068-0.07-0.108c-0.038-0.077-0.061-0.166-0.079-0.256c-0.035-0.179-0.047-0.365-0.055-0.552
				c-0.01-0.371-0.01-0.753-0.04-1.127l-0.13-2.255l-0.239-4.521c-0.149-3.018-0.286-6.038-0.392-9.047
				C1.649,10.858,1.61,9.496,1.592,8.156c-0.007-0.67-0.011-1.335,0-1.993C1.6,5.835,1.609,5.507,1.63,5.182
				c0.009-0.161,0.023-0.322,0.043-0.48c0.01-0.077,0.021-0.157,0.038-0.23l0.011-0.044c0.001-0.002,0.002-0.005,0.005-0.006
				c0.005,0.003,0.005,0.002,0.013,0.011c0.038,0.041,0.072,0.092,0.105,0.142C1.911,4.677,1.97,4.787,2.025,4.901
				c0.111,0.228,0.208,0.466,0.302,0.705c0.184,0.479,0.346,0.968,0.501,1.457c0.309,0.979,0.584,1.962,0.85,2.946
				c0.529,1.969,1.012,3.938,1.485,5.926c0.472,1.987,0.932,3.992,1.392,6.042l0.689,3.107l0.347,1.584
				c0.117,0.529,0.222,1.072,0.371,1.604c0.038,0.153,0.083,0.331,0.105,0.53c0.011,0.099,0.016,0.205-0.001,0.31
				c-0.009,0.052-0.024,0.103-0.049,0.148c-0.036,0.062-0.137,0.134-0.211,0.184c0.075,0.017,0.279,0.036,0.316,0.088
				c0.062,0.047,0.104,0.119,0.12,0.2c0.017,0.082,0.007,0.171-0.027,0.252c-0.021,0.043-0.033,0.07-0.077,0.117
				c-0.045,0.043-0.114,0.085-0.17,0.117c0.266,0.084,0.358,0.221,0.382,0.401c0.008,0.087-0.017,0.18-0.072,0.25
				c-0.06,0.073-0.123,0.115-0.255,0.156l0.073,0.999l0.064,1.027l0.108,2.143c0.031,0.723,0.061,1.447,0.071,2.155v0.528
				l-0.001,0.066c-0.004,0.025,0.036,0.014,0.052,0.021c0.044,0.005,0.087,0.015,0.129,0.021c0.082,0.021,0.166,0.045,0.24,0.082
				c0.152,0.071,0.285,0.199,0.317,0.366c0.033,0.165-0.021,0.336-0.112,0.468c-0.09,0.135-0.218,0.243-0.366,0.295
				c-0.15,0.041-0.301,0.065-0.451,0.089c-0.296,0.042-0.583,0.063-0.855,0.082c-0.544,0.028-1.026,0.072-1.43,0.099
				c-0.79,0.06-1.272,0.021-1.293,0.005l0-0.018L4.57,39.473c0-0.001-0.004-0.001-0.004-0.002c0,0.001,0.003,0.001,0.004,0.002
				l-0.016,0.264l-0.01,0.221c-0.021,0.062,0.05,0.033,0.068,0.038l0.062-0.004c0.423-0.029,0.852-0.054,1.276-0.093
				c0.79-0.071,1.444-0.147,2.222-0.251l0.684-0.074c-0.053-0.198-0.086-0.36-0.099-0.397c0.077-0.047,0.146-0.107,0.203-0.177
				c0.107-0.132,0.189-0.3,0.184-0.487C9.145,38.326,9.022,38.147,8.865,38.055z M8.779,39.283l0.023,0.133l0.028,0.139
				l-0.375,0.021l-0.307,0.025L6.33,39.807l-1.335,0.136l-0.368,0.031c-0.028-0.002-0.06,0.014-0.064-0.004v-0.073l0.002-0.147
				l0.006-0.276c0.021,0.016,0.491,0.061,1.266,0.014c0.397-0.021,0.871-0.061,1.407-0.081c0.268-0.014,0.552-0.03,0.847-0.066
				c0.148-0.018,0.299-0.041,0.452-0.075c0.076-0.015,0.148-0.047,0.215-0.087C8.761,39.192,8.769,39.226,8.779,39.283z"/>
			<path fill="#222121" d="M4.5,39.435c0.01,0.006,0.018,0.01,0.026,0.012C4.52,39.444,4.509,39.439,4.5,39.435z"/>
			<path fill="#222121" d="M4.405,39.379c0.015,0.01,0.028,0.019,0.041,0.026C4.433,39.397,4.42,39.389,4.405,39.379z"/>
			<path fill="#222121" d="M4.446,39.405c0.021,0.013,0.037,0.022,0.054,0.029C4.484,39.428,4.465,39.418,4.446,39.405z"/>
			<path fill="#222121" d="M7.815,28.187c0-0.034-0.873-0.038-1.134-0.005c-0.615,0.061-1.205,0.161-1.816,0.238
				c-0.496,0.054-2.285,0.374-2.279,0.405c0-0.008,0.523-0.077,0.641-0.093c0.417-0.068,0.847-0.104,1.268-0.153
				c0.786-0.093,1.438-0.171,2.215-0.301C6.924,28.235,7.812,28.152,7.815,28.187z"/>
			<path fill="#222121" d="M4.898,29.842c-0.41,0.061-1.883,0.359-1.878,0.386c-0.001-0.008,0.431-0.073,0.528-0.09
				c0.344-0.064,0.698-0.102,1.047-0.154c0.649-0.097,1.188-0.18,1.824-0.318c0.178-0.041,0.906-0.161,0.907-0.156
				c0-0.005-0.718,0.042-0.934,0.076C5.887,29.661,5.401,29.763,4.898,29.842z"/>
			<path fill="#222121" d="M4.649,30.739c0.672-0.098,1.227-0.18,1.887-0.311c0.183-0.042,0.939-0.138,0.941-0.123
				c0-0.015-0.745,0.005-0.968,0.04c-0.525,0.068-1.028,0.169-1.548,0.248c-0.423,0.059-1.947,0.368-1.942,0.39
				c0-0.007,0.447-0.071,0.547-0.089C3.923,30.828,4.289,30.791,4.649,30.739z"/>
			<path fill="#222121" d="M4.858,31.334c0.627-0.075,1.148-0.139,1.768-0.24c0.172-0.033,0.881-0.099,0.883-0.08
				c0-0.017-0.696-0.022-0.905,0.003c-0.491,0.048-0.963,0.129-1.451,0.19c-0.198,0.025-0.655,0.097-1.06,0.173
				c-0.406,0.073-0.759,0.163-0.758,0.167c0-0.006,0.417-0.068,0.511-0.082C4.179,31.405,4.521,31.377,4.858,31.334z"/>
			<path fill="#222121" d="M5.213,38.348l0.766-0.014c0.475-0.021,0.87-0.056,1.333-0.155l0.652-0.131l-0.671,0.074
				c-0.364,0.053-0.718,0.106-1.085,0.132c-0.296,0.026-1.382,0.089-1.382,0.086C4.825,38.341,5.143,38.35,5.213,38.348z"/>
		</g>
	</g>
</g>
</svg>
