<svg id="dreamer" xmlns="http://www.w3.org/2000/svg" viewBox="0 0 256 256">
<path fill="#030104" d="M118.705,230.06c-7.953,0.775-23.133,1.057-22.252-2.802c0.395-1.729,9.074-2.137,15.504-1.692
	c6.278,0.434,23.178-0.855,30.918-1.753c14.553-1.688,29.109-0.562,28.812,2.25C171.283,229.893,129.86,228.972,118.705,230.06z
	 M245.03,248.262c0-2.764-10.614-2.146-18.613,1.769c-10.797,5.283-27.92,2.306-26.771,5.965L220.857,256
	C235.992,255.534,245.03,251.526,245.03,248.262z M253.116,255.995c-0.558-0.451-0.993-1.034-1.42-1.607
	c-0.422-0.58-0.817-1.179-1.201-1.785c-0.604-0.958-1.172-1.936-1.727-2.926c-0.395,0.577-0.908,0.989-1.433,1.343
	c-1.25,0.785-2.588,1.326-3.955,1.755c1.27-0.654,2.542-1.33,3.607-2.226c0.523-0.439,1.025-0.94,1.252-1.493
	c0.056-0.137,0.088-0.271,0.097-0.394c0.01-0.144,0.006-0.314-0.009-0.469c-0.028-0.315-0.1-0.625-0.21-0.917
	c-0.448-1.178-1.465-2.052-2.674-2.532c-1.209-0.498-2.569-0.659-3.927-0.691c-2.732-0.053-5.502,0.492-8.197,1.225
	c-1.35,0.374-2.688,0.803-4.013,1.275c-1.337,0.451-2.587,1.027-4.048,1.49c-2.824,0.877-5.659,1.414-8.504,1.904
	c-2.846,0.475-5.695,0.86-8.575,1.139c-0.723,0.067-1.441,0.128-2.183,0.171c-0.711,0.038-1.391,0.087-2.08,0.16
	c-1.372,0.133-2.729,0.341-4.024,0.676c-1.289,0.337-2.536,0.806-3.538,1.484c-1,0.663-1.7,1.603-1.689,2.443l-2.516-0.051
	c0.01-1.01,0.407-1.961,0.931-2.69c0.529-0.742,1.186-1.313,1.867-1.776c1.376-0.919,2.854-1.442,4.319-1.826
	c1.471-0.376,2.947-0.598,4.417-0.733c0.731-0.064,1.478-0.104,2.193-0.131c0.685-0.031,1.39-0.081,2.09-0.138
	c2.808-0.234,5.627-0.578,8.42-1.008c2.788-0.438,5.581-0.951,8.231-1.716c1.041-0.308,2.157-0.731,3.289-1.104
	c-7.197-2.146-14.499-3.935-21.882-5.339c-8.172-1.656-16.427-2.883-24.672-4.171c1.894,1.924,4.288,3.346,6.866,4.176
	c-2.938-0.892-5.67-2.551-7.717-4.872c-1.951-2.188-3.28-4.902-3.985-7.74c-0.193,0.273-0.456,0.439-0.702,0.614
	c-0.341,0.224-0.701,0.403-1.065,0.567c-0.732,0.323-1.487,0.577-2.252,0.791c-1.53,0.428-3.093,0.708-4.662,0.905
	c1.562-0.253,3.11-0.588,4.613-1.066c0.751-0.239,1.489-0.518,2.193-0.859c0.351-0.172,0.694-0.359,1.007-0.582
	c0.303-0.211,0.628-0.495,0.712-0.771c0.063-0.688-0.318-1.431-0.87-1.91c-0.551-0.506-1.24-0.869-1.953-1.159
	c-1.439-0.571-2.985-0.886-4.532-1.126c-6.227-0.84-12.571-0.789-18.876-0.595c-6.307,0.131-12.598,0.817-18.906,1.333
	c-3.153,0.271-6.307,0.539-9.468,0.756c-3.154,0.196-6.345,0.435-9.524,0.225c-3.152-0.124-6.31-0.158-9.45,0.029
	c-1.569,0.099-3.135,0.25-4.672,0.528c-1.519,0.292-3.085,0.665-4.314,1.502c-0.553,0.386-0.954,0.919-1.006,1.54h0.01
	c-0.006,0.042-0.02,0.08-0.027,0.122c0,0.014-0.006,0.026-0.005,0.04c-0.028,0.707,0.315,1.363,0.854,1.856
	c1.106,0.986,2.658,1.467,4.155,1.836c3.05,0.7,6.219,0.898,9.366,1.007c6.311,0.152,12.637-0.126,18.948-0.534
	c6.326-0.385,12.655-0.294,18.98-0.472c-6.321,0.246-12.66,0.211-18.964,0.676c-6.304,0.543-12.631,0.985-18.977,0.842
	c-3.168-0.087-6.354-0.259-9.485-0.952c-1.544-0.378-3.148-0.827-4.442-1.949c-0.315-0.277-0.59-0.633-0.783-1.029
	c-0.306,0.85-0.732,1.625-1.239,2.348c-0.52,0.758-1.146,1.428-1.821,2.042l0.001,0.009c-0.004,0-0.008,0.001-0.012,0.001
	c-0.316,0.287-0.64,0.566-0.975,0.829c-2.135,1.64-4.636,2.721-7.188,3.509c2.546-0.81,5.035-1.912,7.146-3.562
	c0.307-0.237,0.598-0.494,0.88-0.761c-4.84,0.479-9.675,1.038-14.499,1.678c-0.639,1.908-3.853,2.165-3.853,2.165v6.998h0.804
	c1.126,0,0.666,0.009,0.666,0.916l0.047,0.727c0.274,0.349,0.491,0.655,0.67,0.934c1.552,0.609,2.742,1.488,3.289,1.962
	c2.475,0.801,4.918,1.095,6.006,1.768c0.951,0.588,1.145,1.677,1.206,2.112c0.778,0.178,0.49,1.428,0.515,1.688L124.709,256H49.311
	c0,0.001,0,0.001,0,0.002l-0.554-0.004c-0.011-0.203-0.421-0.546-0.765-0.794l-1.122-0.812c-0.751-0.56-1.479-1.185-2.109-1.912
	c-0.61-0.695-1.121-1.481-1.526-2.322c-0.25,0.741-0.596,1.441-1.022,2.08c-1.423,2.13-3.793,3.539-6.221,3.763
	c2.316-0.748,4.226-2.32,5.351-4.308c0.567-0.985,0.939-2.086,1.025-3.166c0.032-0.41-0.018-0.81-0.104-1.209
	c0-0.002-0.001-0.004-0.001-0.006h0c-0.026-0.119-0.04-0.239-0.075-0.358c-0.149-0.536-0.354-1.047-0.633-1.501
	c-1.094-1.885-3.491-2.486-5.796-2.695c-2.343-0.216-4.759-0.157-7.176-0.158c-2.419,0.018-4.856-0.016-7.286-0.179
	c-2.352-0.167-4.701,0.052-7.03,0.521c-4.64,0.921-9.273,2.751-14.229,2.965l-0.077-0.996c2.374-0.206,4.685-0.75,6.998-1.402
	c2.311-0.652,4.629-1.395,7.04-1.888c2.401-0.506,4.905-0.761,7.381-0.604c2.395,0.132,4.792,0.155,7.206,0.173
	c2.414,0.022,4.84-0.021,7.311,0.227c0.739,0.08,1.486,0.196,2.229,0.376c7.233-1.841,14.539-3.354,21.89-4.612
	c-0.365-0.122-0.713-0.344-0.746-0.768c-0.062-0.819,0.586-7.801,0.651-10.292c0.008-0.314-0.373-0.731-0.372-0.875
	c0.009-1.277,0.007-3.307-0.568-2.838c-0.574,0.47-1.135,2.341-1.781,3.097c-0.645,0.756-2.903,0.38-3.653,0
	c-0.749-0.38-0.204-2.003-1.167-2.243c-0.963-0.241-0.333-24.401-0.195-25.627c0.185-1.646,1.222-3.663,2.157-4.436
	c0.658-0.544,0.675-1.963,0.786-3.406c-0.19-0.187-0.341-0.402-0.423-0.658c-0.043,0.028-0.081,0.046-0.101,0.036
	c-0.099-0.051-0.006-0.418-0.104-0.478c-0.092-0.056-0.376,0.195-0.467,0.132c-0.078-0.055,0.087-0.388,0.01-0.45
	c-0.076-0.062-0.393,0.146-0.466,0.077c-0.066-0.062,0.073-0.468,0.009-0.533c-0.13-0.137-0.458,0.058-0.576-0.103
	c-0.073-0.101,0.149-0.323,0.081-0.434c-0.072-0.118-0.434-0.123-0.499-0.254c-0.067-0.135,0.233-0.357,0.181-0.541
	c-0.043-0.156-0.441-0.269-0.474-0.456c-0.021-0.113,0.372-0.253,0.355-0.377c-0.022-0.156-0.449-0.298-0.464-0.466
	c-0.01-0.12,0.393-0.283,0.385-0.408c-0.01-0.148-0.431-0.262-0.438-0.417c-0.006-0.144,0.362-0.289,0.358-0.437
	c-0.002-0.131-0.378-0.264-0.378-0.397c-0.001-0.124,0.319-0.191,0.319-0.317c0.001-0.119-0.318-0.298-0.317-0.418
	c0.002-0.112,0.295-0.105,0.297-0.217c0.002-0.113-0.286-0.346-0.283-0.458c0.004-0.113,0.379-0.184,0.382-0.298
	c0.003-0.098-0.364-0.24-0.36-0.338c0.006-0.152,0.392-0.224,0.399-0.377c0.008-0.145-0.362-0.372-0.353-0.515
	c0.008-0.147,0.383-0.193,0.393-0.339c0.008-0.126-0.351-0.353-0.342-0.476c0.011-0.149,0.392-0.215,0.402-0.357
	c0.011-0.143-0.349-0.36-0.337-0.496c0.005-0.056,0.191-0.089,0.285-0.134l-0.142-0.071c-0.473-0.239-0.748-0.698-0.833-1.208
	c-6.328-4.34-10.491-11.616-10.491-19.853c0-5.307,1.747-10.201,4.667-14.185l-6.088-7.632c-0.217,0.174-0.48,0.293-0.781,0.293
	c-0.702,0-1.271-0.568-1.271-1.271s0.569-1.271,1.271-1.271s1.271,0.569,1.271,1.271c0,0.306-0.122,0.576-0.303,0.794l7.347,6.028
	c4.41-4.952,10.812-8.094,17.951-8.094c13.269,0,24.065,10.796,24.065,24.065c0,11.768-8.497,21.572-19.674,23.644v0.55
	c0,0,1.279,2.574,1.918,3.923s0.402,2.482,0.584,3.802c0.204,1.478,1.694,5.561,1.838,6.161c0.285,1.185,0.903,25.331-0.729,24.007
	c0.622,1.589,0.717,3.884,0.704,5.626c-0.037,4.734,0.927,8.203,0.927,9.004c0,0.18-0.024,0.346-0.061,0.503
	c4.846-0.619,9.703-1.158,14.563-1.616c0.638-0.62,1.212-1.305,1.686-2.052c0.672-1.12,1.159-2.452,1.087-3.678h0.034
	c0.037-0.87,0.631-1.636,1.276-2.073c1.403-0.959,3.006-1.323,4.569-1.641c1.575-0.296,3.163-0.459,4.75-0.567
	c3.176-0.209,6.354-0.193,9.524-0.089c3.145,0.191,6.284-0.053,9.439-0.263c3.151-0.229,6.301-0.509,9.451-0.792
	c6.3-0.535,12.602-1.266,18.954-1.399c3.169-0.078,6.341-0.098,9.514-0.003c3.172,0.095,6.353,0.297,9.495,0.861
	c1.568,0.289,3.137,0.65,4.627,1.288c0.737,0.327,1.469,0.725,2.065,1.314c0.541,0.54,0.922,1.281,0.885,2.095l0.009-0.002
	c0.618,2.995,1.92,5.855,3.921,8.18c0.225,0.264,0.461,0.517,0.703,0.765l0.014-0.101c8.302,0.977,16.576,2.198,24.808,3.695
	c4.107,0.789,8.199,1.669,12.262,2.675c3.53,0.864,7.033,1.854,10.495,2.962c1.302-0.407,2.617-0.778,3.949-1.096
	c2.831-0.657,5.748-1.136,8.736-0.972c1.486,0.093,3.002,0.388,4.406,1.063c1.379,0.659,2.706,1.847,3.091,3.448
	c0.102,0.389,0.148,0.79,0.142,1.188c-0.002,0.105-0.018,0.21-0.027,0.313l0.031-0.015c0.526,1.31,1.093,2.616,1.703,3.896
	c0.308,0.639,0.627,1.272,0.974,1.891C252.26,254.864,252.617,255.484,253.116,255.995z M54.103,175.574l1.996,1.014
	c0.418,0.212,0.7,0.591,0.818,1.028c1.634,0.685,3.376,1.151,5.186,1.413l0.016-4.368c-6.911-1.079-11.922-7.104-12.34-14.372
	c-0.187-3.239,0.834-5.67,0.7-8.12c0,0,0.875-0.502,3.759-0.477c-0.371-0.636,0.119-1.623,0.212-2.437
	c0.975-0.022,2.498-0.221,4.043-0.396c-0.043-0.419-0.746-1.094-0.729-1.637c0.424-0.029,4.14,0.692,4.504,0.692
	c0.672-0.001,1.286,0.245,1.616,0.392c0.265-1.112,2.233-1.944,3.187-3.851c-0.042,0.993,0.756,1.743,1.623,2.523
	c0.706-0.085,2.882-0.099,3.495-0.265c0.053,0.636-0.263,1.617,0.274,1.938c1.202,0.718,4.516,1.643,5.126,2.351
	c0.396,0.458-2.7,0.899-4.024,1.165c0.088,0.561,0.801,1.458,0.477,1.747c-0.386,0.343-1.465-0.104-1.794,0.267
	c-0.223,0.251-0.065,3.358,0.143,3.92c0.465,1.249,2.574,0.831,3.597,1.249c0.527,0.217-0.18,1.468,0.294,1.69
	c0.824,0.386,1.246,1.289,1.246,1.974c0,0.753-0.341,1.816-0.367,2.507c-0.027,0.703,1.144,4.051,0.005,5.283
	c-1.689,1.828-4.444,2.979-7.574,3.567v4.453c9.77-2.034,17.133-10.707,17.133-21.07c0-11.869-9.656-21.523-21.523-21.523
	c-11.868,0-21.523,9.654-21.523,21.523c0,7.336,3.696,13.82,9.317,17.707C53.361,175.371,53.751,175.396,54.103,175.574z
	 M62.092,181.774l0-0.178c-2.217-0.287-4.346-0.859-6.333-1.71c-0.345,0.129-0.72,0.141-1.072,0.03
	c-0.086,0.073-0.183,0.151-0.187,0.215c-0.008,0.106,0.277,0.173,0.271,0.278c-0.008,0.133-0.421,0.306-0.429,0.437
	c-0.007,0.134,0.391,0.227,0.384,0.359c-0.006,0.14-0.379,0.198-0.384,0.337c-0.005,0.112,0.355,0.305,0.352,0.417
	c-0.005,0.141-0.348,0.238-0.352,0.377c-0.004,0.147,0.329,0.334,0.327,0.477c-0.003,0.148-0.325,0.295-0.327,0.437
	c-0.001,0.128,0.318,0.253,0.318,0.377c0,0.145-0.32,0.323-0.318,0.456c0.002,0.139,0.327,0.231,0.331,0.358
	c0.004,0.131-0.337,0.258-0.331,0.378c0.006,0.117,0.361,0.229,0.37,0.334c0.012,0.138-0.387,0.348-0.37,0.46
	c0.03,0.207,0.479,0.279,0.524,0.38c0.068,0.136-0.09,0.488-0.009,0.592c0.083,0.106,0.404-0.037,0.494,0.043
	c0.061,0.054,0.041,0.304,0.092,0.374c0.157-0.107,0.324-0.188,0.5-0.242c0.595-1.02,1.53-2.199,2.399-2.937
	C60.221,182.232,62.092,181.774,62.092,181.774z M68.354,244.319l-0.034-6.904l-2.709-0.31l-2.37,0.276l0.036,6.526h0.85
	c1.126,0,0.666,0.009,0.666,0.916l0.047,0.727c0.514,0.652,0.842,1.17,1.042,1.589c0.644,0.269,1.252,0.55,1.708,0.77
	c0.205-0.75,0.48-1.54,0.48-1.945l-0.237-0.804C67.833,244.375,67.669,244.32,68.354,244.319z M60.644,237.309
	c-7.34,1.275-14.632,2.808-21.848,4.66c0.271,0.083,0.541,0.172,0.809,0.28c1.212,0.479,2.373,1.358,3.054,2.537
	c0.348,0.58,0.589,1.204,0.758,1.832c0.045,0.15,0.057,0.312,0.086,0.469l0.043-0.008c0.024,0.48,0.092,0.893,0.201,1.312
	c0.1,0.427,0.242,0.84,0.397,1.248c0.323,0.812,0.759,1.58,1.301,2.277c0.538,0.702,1.18,1.328,1.873,1.912l1.069,0.876
	c0.181,0.153,0.362,0.309,0.538,0.496c0.156,0.177,0.352,0.403,0.379,0.759l9.435-1.44c-0.043-0.306-0.318-2.252,0.438-2.328
	c-0.466-0.19-0.223-2.342,0.311-3.143c0.131-0.197,0.251-0.389,0.364-0.575c0.092-0.908,0.682-2.326,0.682-2.921l-0.237-0.804
	c0-0.813-0.171-0.843,0.603-0.841v-6.585C60.898,237.322,60.795,237.322,60.644,237.309z M172.019,247.246
	c-5.133-0.781-12.108,1.416-12.108,1.919c0,1.653,5.478,0.512,12.133,1.081c6.688,0.572,12.062-1.298,12.047-1.8
	S178.622,248.251,172.019,247.246z M188.059,251.364c-0.3-0.479-0.522-1-0.682-1.539c-0.157-0.531-0.264-1.109-0.286-1.626h-0.002
	c-0.004-0.054-0.014-0.081-0.021-0.141c-0.059-0.29-0.238-0.519-0.396-0.647c-0.326-0.274-0.631-0.384-0.927-0.494
	c-0.589-0.198-1.156-0.306-1.722-0.401c-2.259-0.342-4.484-0.413-6.713-0.545c-2.234-0.129-4.43-0.271-6.677-0.524
	c-2.248-0.196-4.528-0.172-6.782,0.181c-1.125,0.186-2.244,0.447-3.332,0.843c-1.076,0.428-2.15,0.898-3.058,1.826
	c-0.111,0.121-0.219,0.255-0.314,0.412c-0.047,0.086-0.093,0.148-0.139,0.278c-0.053,0.133-0.069,0.214-0.079,0.271
	c-0.021,0.144-0.023,0.278-0.017,0.41c-0.043,0.307-0.166,0.666-0.33,0.967c-0.222,0.417-0.532,0.802-0.893,1.145
	c-0.726,0.685-1.638,1.201-2.595,1.598c1.008-0.24,2.01-0.602,2.908-1.208c0.445-0.305,0.863-0.674,1.208-1.125
	c0.068-0.094,0.132-0.189,0.194-0.286c0.43,0.436,0.975,0.593,1.432,0.709c1.182,0.249,2.31,0.223,3.436,0.193
	c2.245-0.065,4.464-0.26,6.694-0.267c1.115-0.008,2.228,0.019,3.344,0.072c1.122,0.042,2.23-0.135,3.34-0.235
	c-1.111,0.077-2.225,0.23-3.336,0.164c-1.109-0.095-2.227-0.19-3.343-0.235l-6.692-0.229c-1.101-0.065-2.223-0.115-3.223-0.363
	c-0.488-0.125-0.943-0.354-1.063-0.629c-0.07-0.115-0.079-0.34-0.056-0.469l0.022-0.103c0.007-0.021,0.013-0.017,0.017-0.026
	c-0.002-0.004,0.032-0.058,0.052-0.094c0.05-0.08,0.117-0.166,0.194-0.249c0.66-0.682,1.678-1.166,2.665-1.541
	c1.001-0.391,2.059-0.666,3.13-0.868c2.146-0.403,4.359-0.502,6.561-0.379c1.098,0.047,2.208,0.213,3.321,0.339l3.334,0.361
	c2.217,0.247,4.452,0.433,6.609,0.745c0.535,0.079,1.068,0.178,1.54,0.33c0.229,0.073,0.452,0.176,0.554,0.264
	c0.059,0.045,0.05,0.058,0.048,0.04c-0.003-0.023,0.001,0.038,0.005-0.057l-0.003,0.072c0.001,0.001,0.003-0.002-0.003,0.01
	c-0.03,0.095-0.212,0.262-0.395,0.407c-0.194,0.145-0.414,0.288-0.643,0.43c-0.459,0.282-0.951,0.551-1.438,0.885
	c0.589,0.039,1.164-0.026,1.736-0.171c0.286-0.071,0.571-0.171,0.853-0.317c0.072-0.038,0.146-0.078,0.219-0.122
	c0.088,0.236,0.179,0.471,0.287,0.701c0.268,0.564,0.602,1.099,1.011,1.569c0.807,0.955,1.969,1.571,3.152,1.682
	C189.611,253.078,188.645,252.327,188.059,251.364z M37.898,246.853c-2.131-2.3-11.53-0.027-17.15-0.994
	c-5.826-1.002-13.295,2.72-20.748,2.964l0,7.488L25.75,256C35.07,256,40.448,249.605,37.898,246.853z"/>
</svg>
