<svg id="node" xmlns="http://www.w3.org/2000/svg" viewBox="0 0 256 256">
<path fill="#333333" d="M57.891,103.058c0-1.022-0.539-1.96-1.42-2.469L32.948,87.057c-0.397-0.233-0.842-0.356-1.292-0.373h-0.244
	c-0.451,0.017-0.896,0.14-1.3,0.373l-23.52,13.532c-0.876,0.512-1.423,1.449-1.423,2.471l0.052,36.454
	c0,0.506,0.261,0.979,0.706,1.227c0.434,0.268,0.978,0.268,1.41,0l13.982-8.006c0.883-0.525,1.422-1.455,1.422-2.467v-17.03
	c0-1.016,0.539-1.955,1.419-2.46l5.953-3.429c0.442-0.255,0.928-0.382,1.422-0.382c0.487,0,0.983,0.125,1.413,0.382l5.951,3.428
	c0.881,0.505,1.421,1.443,1.421,2.459v17.03c0,1.01,0.545,1.942,1.424,2.465l13.974,8.002c0.438,0.262,0.985,0.262,1.421,0
	c0.432-0.248,0.705-0.721,0.705-1.228L57.891,103.058z M168.883,122.036c0,0.254-0.133,0.49-0.354,0.615l-8.08,4.656
	c-0.219,0.127-0.49,0.127-0.709,0l-8.08-4.656c-0.223-0.125-0.355-0.361-0.355-0.615v-9.328c0-0.252,0.133-0.486,0.35-0.616
	l8.074-4.664c0.226-0.128,0.496-0.128,0.717,0l8.082,4.664c0.224,0.129,0.354,0.363,0.354,0.616L168.883,122.036z M171.066,52.953
	c-0.441-0.246-0.978-0.239-1.412,0.014c-0.434,0.256-0.701,0.723-0.701,1.228V90.29c0,0.355-0.189,0.684-0.496,0.86
	c-0.307,0.179-0.686,0.179-0.994,0l-5.893-3.394c-0.877-0.507-1.957-0.507-2.838,0l-23.529,13.58
	c-0.881,0.506-1.422,1.443-1.422,2.454v27.167c0,1.018,0.541,1.951,1.422,2.461l23.529,13.588c0.877,0.506,1.961,0.506,2.842,0
	l23.529-13.594c0.877-0.512,1.422-1.443,1.422-2.461V63.248c0-1.031-0.562-1.979-1.461-2.482L171.066,52.953z M249.418,112.464
	c0.875-0.508,1.412-1.445,1.412-2.457v-6.583c0-1.013-0.539-1.948-1.414-2.458l-23.379-13.571c-0.883-0.513-1.965-0.513-2.85,0
	l-23.521,13.577c-0.885,0.512-1.422,1.444-1.422,2.46v27.155c0,1.021,0.549,1.968,1.432,2.474l23.375,13.321
	c0.861,0.494,1.914,0.5,2.787,0.017l14.139-7.857c0.443-0.25,0.729-0.723,0.729-1.232c0-0.512-0.272-0.987-0.717-1.237
	l-23.671-13.584c-0.442-0.25-0.717-0.721-0.717-1.227v-8.518c0-0.509,0.269-0.979,0.713-1.231l7.363-4.247
	c0.438-0.255,0.978-0.255,1.414,0l7.371,4.247c0.439,0.25,0.711,0.723,0.711,1.227v6.698c0,0.505,0.271,0.977,0.711,1.233
	c0.439,0.248,0.982,0.248,1.422-0.006L249.418,112.464z"/>
<path fill="#669860" d="M126.591,203.229c-0.811,0-1.616-0.213-2.327-0.621l-7.407-4.385c-1.106-0.617-0.566-0.839-0.201-0.964
	c1.475-0.518,1.774-0.633,3.349-1.526c0.166-0.094,0.382-0.062,0.551,0.039l5.691,3.377c0.205,0.11,0.497,0.11,0.687,0
	l22.185-12.808c0.205-0.116,0.34-0.354,0.34-0.6v-25.601c0-0.256-0.135-0.481-0.344-0.611l-22.176-12.795
	c-0.206-0.12-0.477-0.12-0.683,0l-22.172,12.795c-0.215,0.123-0.352,0.361-0.352,0.604v25.603c0,0.246,0.134,0.479,0.344,0.594
	l6.076,3.512c3.299,1.648,5.315-0.295,5.315-2.25v-25.268c0-0.359,0.283-0.639,0.644-0.639h2.81c0.35,0,0.639,0.276,0.639,0.639
	v25.279c0,4.397-2.399,6.924-6.569,6.924c-1.284,0-2.294,0-5.115-1.387l-5.82-3.355c-1.438-0.832-2.327-2.387-2.327-4.047v-25.603
	c0-1.663,0.889-3.219,2.327-4.043l22.208-12.811c1.405-0.793,3.271-0.793,4.666,0l22.18,12.815c1.434,0.828,2.326,2.379,2.326,4.043
	v25.601c0,1.661-0.894,3.211-2.326,4.043l-22.18,12.812c-0.71,0.412-1.517,0.621-2.339,0.621 M133.443,185.589
	c-9.707,0-11.741-4.457-11.741-8.192c0-0.355,0.286-0.642,0.642-0.642h2.866c0.317,0,0.583,0.229,0.633,0.543
	c0.433,2.923,1.721,4.394,7.591,4.394c4.676,0,6.664-1.055,6.664-3.535c0-1.428-0.564-2.486-7.828-3.197
	c-6.077-0.602-9.831-1.939-9.831-6.799c0-4.475,3.776-7.141,10.101-7.141c7.103,0,10.623,2.467,11.067,7.764
	c0.017,0.184-0.051,0.361-0.172,0.494c-0.123,0.127-0.295,0.207-0.473,0.207h-2.881c-0.301,0-0.562-0.211-0.623-0.502
	c-0.695-3.07-2.371-4.053-6.93-4.053c-5.104,0-5.698,1.774-5.698,3.108c0,1.614,0.7,2.088,7.586,3
	c6.817,0.903,10.058,2.183,10.058,6.976c0,4.832-4.033,7.602-11.062,7.602 M160.436,158.464h0.742c0.611,0,0.729-0.428,0.729-0.678
	c0-0.656-0.449-0.656-0.699-0.656h-0.769L160.436,158.464z M159.529,156.364h1.647c0.566,0,1.679,0,1.679,1.268
	c0,0.882-0.566,1.063-0.906,1.179c0.662,0.041,0.705,0.477,0.793,1.086c0.045,0.383,0.119,1.045,0.25,1.268h-1.014
	c-0.029-0.223-0.185-1.443-0.185-1.512c-0.067-0.271-0.162-0.406-0.5-0.406h-0.838v1.922h-0.931v-4.803L159.529,156.364
	L159.529,156.364z M157.545,158.753c0,1.986,1.605,3.599,3.578,3.599c1.986,0,3.594-1.646,3.594-3.599
	c0-1.994-1.627-3.576-3.6-3.576c-1.943,0-3.576,1.562-3.576,3.57 M165.404,158.764c0,2.354-1.928,4.276-4.275,4.276
	c-2.332,0-4.275-1.899-4.275-4.276c0-2.421,1.986-4.275,4.275-4.275c2.305,0,4.271,1.859,4.271,4.275 M224.27,111.193
	c0.166-0.099,0.375-0.099,0.543,0l4.517,2.604c0.168,0.098,0.271,0.276,0.271,0.472v5.215c0,0.193-0.104,0.374-0.271,0.472
	l-4.517,2.603c-0.168,0.1-0.377,0.1-0.543,0l-4.512-2.603c-0.172-0.098-0.277-0.278-0.277-0.472v-5.215
	c0-0.195,0.099-0.374,0.271-0.472L224.27,111.193z"/>
</svg>
