<svg id="note-svg" xmlns="http://www.w3.org/2000/svg" viewBox="0 0 72 98">
<g id="note">
	<path fill="#CBA742" d="M72,96.556c0,0.68-0.814,1.942-1.648,1.231C69.62,97.162,44.036,75.328,37.66,69.886
		c-0.901-0.77-2.316-0.72-3.371,0.185c-6.76,5.788-31.807,27.094-32.641,27.717C0.688,98.504,0,97.235,0,96.556V0h72V96.556z"/>
	<path fill="#B39339" d="M37.66,69.886c6.376,5.442,31.96,27.276,32.691,27.899C71.186,98.498,72,97.235,72,96.556V0H36.001v69.355
		C36.609,69.317,37.2,69.493,37.66,69.886z"/>
	<path fill="#D0C898" d="M65.543,93.567l-1.648-1.375l-0.002-1.377h1.649L65.543,93.567z M63.893,83.249h1.649v5.465h-1.649V83.249z
		 M63.893,75.679h1.649v5.469h-1.649V75.679z M63.893,68.113h1.649v5.464h-1.649V68.113z M63.893,60.545h1.649v5.466h-1.649V60.545z
		 M63.893,52.979h1.649v5.465h-1.649V52.979z M63.893,45.408h1.649v5.466h-1.649V45.408z M63.893,37.84h1.649v5.468h-1.649V37.84z
		 M63.893,30.272h1.649v5.466h-1.649V30.272z M63.893,22.704h1.649v5.466h-1.649V22.704z M63.893,15.137h1.649v5.466h-1.649V15.137z
		 M63.893,7.569h1.649v5.467h-1.649V7.569z M63.893,0.001h1.649v5.466h-1.649V0.001z"/>
	<path fill="#E1D8A5" d="M8.107,92.192l-1.649,1.375l-0.001-2.752h1.648L8.107,92.192z M6.457,83.249h1.648v5.465H6.457V83.249z
		 M6.457,75.679h1.648v5.469H6.457V75.679z M6.457,68.113h1.648v5.464H6.457V68.113z M6.457,60.545h1.648v5.466H6.457V60.545z
		 M6.457,52.979h1.648v5.465H6.457V52.979z M6.457,45.408h1.648v5.466H6.457V45.408z M6.457,37.84h1.648v5.468H6.457V37.84z
		 M6.457,30.272h1.648v5.466H6.457V30.272z M6.457,22.704h1.648v5.466H6.457V22.704z M6.457,15.137h1.648v5.466H6.457V15.137z
		 M6.457,7.569h1.648v5.467H6.457V7.569z M6.457,0.001h1.648v5.466H6.457V0.001z"/>
</g>
<g id="start">
	<path fill="#9A7F33" d="M51.236,57.124l-15.043-7.086l-14.892,7.415l2.7-15.384L11.78,31.326l16.715-2.424l7.344-14.05
		l7.622,13.885l16.759,2.056l-11.998,11.01L51.236,57.124z"/>
	<path fill="#C8AD45" d="M21.306,57.453l14.718-7.608L51.23,57.12l-0.218-0.104l-15.036-6.873L21.306,57.453z"/>
</g>
<g id="svg">
	<path fill="#9A7F33" d="M16.335,43.108c0.206,0.966,0.837,1.805,1.5,2.579c2.294-1.323,4.533-2.741,6.805-4.118
		c2.458,1.26,4.618,4.291,5.265,6.84c-1.553,4.357-4.587,8.173-7.48,11.503c-0.682,0.033-3.438-2.611-3.959-3.262
		c1.702-1.731,3.972-4.614,4.431-5.92c-0.208-0.425-0.679-1.083-1.118-1.48c-1.35,0.052-5.408,3.736-7.35,3.922
		c-2.361-2.459-4.316-5.456-5.363-8.545c1.957-3.969,5.166-7.648,8.496-10.396c1.261,0.779,2.525,2.166,3.509,3.301
		C19.544,39.428,17.789,41.132,16.335,43.108z M41.99,40.378c-1.361,1.569-3.335,3.54-4.943,4.832
		c-4.799-2.767-13.147-8.691-16.941-11.992c1.377-1.584,3.619-4.404,4.144-4.515c2.001,1.703,6.561,5.001,7.691,5.825
		c0.244,0.178,1.522,0.909,1.761,0.731c0.334-0.297-0.051-1.175-0.202-1.506c-1.469-2.927-3.02-6.359-4.408-9.325
		c1.868-2.091,3.973-3.176,4.63-3.331C36.154,26.796,39.245,34.134,41.99,40.378z M58.25,28.311l-0.893-1
		c-2.148,1.482-5.415,4.393-8.104,5.274c-2.178,0.717-2.853,0.024-4.725-1.791c-2.7-2.619-7.652-9.2-6.171-12.491
		c1.355-3.075,5.438-7.28,7.71-9.552c1.329,0.756,2.817,2.048,3.683,3.146c-1.5,1.731-4.104,4.335-5.152,6.451
		c-0.057,1.918,3.236,6.382,5.049,7.461c1.378-0.437,3.344-1.683,3.906-2.326c-0.658-1.315-0.846-1.652-1.995-2.426
		c-0.87,0.236-1.679,0.958-2.213,1.541c-0.911-0.802-1.503-1.498-2.033-2.604c1.355-1.928,4.242-4.854,5.736-6.146
		c2.866,2.9,7.368,7.729,9.884,10.552C62.038,25.441,59.987,27.448,58.25,28.311z"/>
	<path fill="#C8AD45" d="M18.427,56.651l0.273,0.344c0.187,0.228,2.175,2.054,2.68,2.469c0.503,0.412,0.951,0.57,0.961,0.57
		l0.438-0.532c3.01-3.463,5.562-6.777,7.125-11.167c0,0-3.999,7.321-7.577,10.989C21.656,58.978,18.427,56.651,18.427,56.651z
		 M31.443,41.658c1.054,0.73,4.591,2.98,5.408,3.49l0.271,0.169l0.243-0.211c1.412-1.223,2.937-2.842,4.474-4.623
		c0,0-3.391,2.981-4.707,4.163C36.147,44.42,31.443,41.658,31.443,41.658z M57.982,27.812l-0.844-0.94
		c-0.555,0.399-1.688,1.268-2.365,1.805c-1.778,1.406-4.082,3.045-5.902,3.667c-1.795,0.617-4.339-1.553-4.339-1.553l0.069,0.071
		c1.299,1.31,2.117,2.132,3.419,2.132c0.443,0,0.942-0.095,1.538-0.298c1.973-0.674,4.16-2.403,6.089-3.929
		c0.53-0.419,1.031-0.816,1.489-1.157l0.817,0.953l0.325-0.167c1.692-0.873,3.711-2.89,4.656-4.032
		C62.934,24.359,59.871,27.009,57.982,27.812z"/>
</g>
</svg>
