<svg version="1.1" id="php" xmlns="http://www.w3.org/2000/svg" viewBox="0 0 256 256">
<path fill="#707FAD" d="M10.82,128.5c0-32.937,52.688-59.638,117.68-59.638c64.991,0,117.68,26.701,117.68,59.638
	c0,32.938-52.688,59.639-117.68,59.639S10.82,161.438,10.82,128.5z"/>
<path fill="#FFFFFF" d="M152.338,147.775l5.838-30.042c1.316-6.781,0.223-11.839-3.256-15.035
	c-3.367-3.093-9.085-4.596-17.479-4.596h-10.108l2.894-14.885c0.108-0.561-0.039-1.142-0.4-1.583
	c-0.364-0.441-0.905-0.696-1.477-0.696h-13.953c-0.916,0-1.703,0.648-1.878,1.548l-6.199,31.894
	c-0.563-3.589-1.952-6.674-4.176-9.219c-4.092-4.685-10.565-7.06-19.241-7.06H55.856c-0.915,0-1.703,0.649-1.878,1.548
	L41.431,164.21c-0.108,0.562,0.038,1.142,0.402,1.581c0.363,0.441,0.905,0.695,1.477,0.695h14.063c0.916,0,1.703-0.647,1.878-1.547
	l3.035-15.615h10.468c5.495,0,10.108-0.596,13.713-1.77c3.685-1.197,7.074-3.229,10.063-6.027c2.414-2.219,4.41-4.702,5.946-7.383
	l-2.508,12.898c-0.109,0.562,0.038,1.143,0.401,1.582c0.364,0.439,0.905,0.697,1.478,0.697H115.8c0.916,0,1.703-0.649,1.878-1.551
	l6.887-35.437h9.574c4.079,0,5.273,0.812,5.598,1.162c0.298,0.318,0.91,1.441,0.223,4.981l-5.55,28.563
	c-0.109,0.562,0.036,1.143,0.401,1.582c0.361,0.441,0.903,0.697,1.477,0.697h14.174
	C151.375,149.324,152.163,148.675,152.338,147.775z M87.652,122.953c-0.876,4.503-2.528,7.716-4.909,9.549
	c-2.419,1.862-6.288,2.809-11.501,2.809h-6.233l4.508-23.192h8.059c5.92,0,8.305,1.266,9.263,2.327
	C88.165,115.916,88.447,118.858,87.652,122.953z M212.005,105.162c-4.093-4.685-10.565-7.06-19.241-7.06h-27.043
	c-0.918,0-1.705,0.649-1.88,1.548l-12.547,64.559c-0.108,0.561,0.038,1.141,0.401,1.581s0.904,0.696,1.477,0.696h14.062
	c0.916,0,1.703-0.648,1.879-1.549l3.035-15.614h10.468c5.495,0,10.108-0.597,13.713-1.771c3.685-1.196,7.073-3.229,10.063-6.026
	c2.491-2.291,4.545-4.862,6.099-7.645c1.552-2.775,2.668-5.877,3.315-9.213C217.406,116.445,216.127,109.881,212.005,105.162z
	 M197.419,122.953c-0.876,4.503-2.526,7.716-4.907,9.549c-2.421,1.862-6.289,2.809-11.503,2.809h-6.233l4.51-23.192h8.059
	c5.922,0,8.307,1.266,9.264,2.327C197.934,115.916,198.214,118.858,197.419,122.953z"/>
<path fill="#322F2D" d="M77.575,110.204c5.343,0,8.903,0.986,10.684,2.958c1.779,1.973,2.202,5.358,1.271,10.157
	c-0.973,4.997-2.844,8.563-5.619,10.701s-6.999,3.203-12.669,3.203h-8.555l5.251-27.019H77.575L77.575,110.204z M43.31,164.575
	h14.062l3.336-17.165h12.046c5.315,0,9.688-0.557,13.121-1.676c3.433-1.114,6.552-2.987,9.36-5.615
	c2.356-2.166,4.263-4.557,5.724-7.168c1.458-2.611,2.495-5.494,3.107-8.646c1.488-7.653,0.365-13.613-3.365-17.883
	c-3.73-4.271-9.665-6.405-17.801-6.405H55.856L43.31,164.575z M114.395,82.852h13.953l-3.336,17.164h12.429
	c7.82,0,13.217,1.365,16.186,4.092c2.969,2.729,3.857,7.149,2.672,13.26l-5.839,30.042h-14.174l5.551-28.564
	c0.632-3.249,0.399-5.465-0.696-6.647c-1.098-1.181-3.432-1.773-7.002-1.773h-11.15L115.8,147.41h-13.952L114.395,82.852z
	 M187.342,110.204c5.344,0,8.903,0.986,10.684,2.958c1.779,1.973,2.203,5.358,1.271,10.157c-0.972,4.997-2.844,8.563-5.619,10.701
	s-6.998,3.203-12.669,3.203h-8.554l5.251-27.019H187.342L187.342,110.204z M153.076,164.575h14.062l3.336-17.165h12.047
	c5.312,0,9.687-0.557,13.119-1.676c3.434-1.114,6.553-2.987,9.359-5.615c2.355-2.166,4.266-4.557,5.725-7.168
	s2.496-5.494,3.106-8.646c1.487-7.653,0.364-13.613-3.365-17.883c-3.729-4.271-9.665-6.405-17.801-6.405h-27.043L153.076,164.575z"
	/>
</svg>
