<?xml version="1.0" encoding="utf-8"?>
<!-- Generator: Adobe Illustrator 15.0.0, SVG Export Plug-In . SVG Version: 6.00 Build 0)  -->
<!DOCTYPE svg PUBLIC "-//W3C//DTD SVG 1.1//EN" "http://www.w3.org/Graphics/SVG/1.1/DTD/svg11.dtd">
<svg version="1.1" id="proyecto" xmlns="http://www.w3.org/2000/svg" xmlns:xlink="http://www.w3.org/1999/xlink" x="0px" y="0px"
	 width="400px" height="238.605px" viewBox="0 0 400 238.605" style="enable-background:new 0 0 400 238.605;" xml:space="preserve"
	>
<style type="text/css">
<![CDATA[
	.st0{fill:#ADC7DC;}
	.st1{fill:#E7E8EB;}
	.st2{fill:#82B3D2;}
	.st3{fill:#EBB220;}
	.st4{fill:#B98B19;}
	.st5{fill:#EEDC9B;}
	.st6{fill:#EFF0F2;}
	.st7{fill:none;stroke:#FFFFFF;stroke-miterlimit:10;}
	.st8{fill:#574200;}
	.st9{fill:#59703C;}
	.st10{fill:#FAD4A5;}
	.st11{fill:#FFFFFF;}
	.st12{fill:#D0D1D6;}
	.st13{fill:#D8DADE;}
	.st14{fill:#DEE0E4;}
	.st15{fill:#41562A;}
]]>
</style>
<g id="proyecto_1_">
	<rect x="24.785" class="st2" width="341.667" height="238.5"/>
	<g>
		<path class="st0" d="M45.176,12.4v212.615h299.83V12.4H45.176z M82.256,17.565h31.469v15.381h-2.64v0.5h2.64v15.864H82.256V17.565
			z M82.256,50.311h16.09v2.698h0.5v-2.698h14.879v16.242h-2.64v0.5h2.64v16.135H98.846v-1.341h-0.5v1.341h-16.09V50.311z
			 M82.256,84.188h16.09v0.642h0.5v-0.642h14.879v15.972h-2.64v0.5h2.64v16.405H82.256V84.188z M82.256,118.065h16.09v2.564h0.5
			v-2.564h14.879v15.703h-2.64v0.5h2.64v16.675H98.846v-1.476h-0.5v1.476h-16.09V118.065z M82.256,151.942h16.09v0.507h0.5v-0.507
			h14.879v15.431h-2.64v0.5h2.64v16.947H82.256V151.942z M82.256,185.82h16.09v2.428h0.5v-2.428h14.879v15.16h-2.64v0.5h2.64v15.235
			H82.256V185.82z M307.875,200.98v0.5h0.662v15.235h-31.469V201.48h1.689v-0.5h-1.689v-15.16h16.09v2.428h0.5v-2.428h14.879v15.16
			H307.875z M309.537,184.82v-16.947h1.35v-0.5h-1.35v-15.431h16.09v0.507h0.5v-0.507h15.316v15.431h-1.438v0.5h1.438v16.947
			H309.537z M340.006,133.768v0.5h1.438v16.675h-15.316v-1.476h-0.5v1.476h-16.09v-16.675h1.35v-0.5h-1.35v-15.703h16.09v2.564h0.5
			v-2.564h15.316v15.703H340.006z M340.006,100.16v0.5h1.438v16.405h-31.906V100.66h1.35v-0.5h-1.35V84.188h16.09v0.642h0.5v-0.642
			h15.316v15.972H340.006z M340.006,66.553v0.5h1.438v16.135h-15.316v-1.341h-0.5v1.341h-16.09V67.053h1.35v-0.5h-1.35V50.311h16.09
			v2.698h0.5v-2.698h15.316v16.242H340.006z M307.875,32.947v0.5h0.662v15.864h-31.469V33.447h1.689v-0.5h-1.689V17.565h31.469
			v15.381H307.875z M114.725,17.565h31.468v15.381h-2.979v0.5h2.979v15.864h-31.468V17.565z M114.725,50.311h16.09v2.698h0.5v-2.698
			h14.878v16.242h-2.979v0.5h2.979v16.135h-14.878v-1.341h-0.5v1.341h-16.09V50.311z M114.725,84.188h16.09v0.642h0.5v-0.642h14.878
			v15.972h-2.979v0.5h2.979v16.405h-31.468V84.188z M114.725,118.065h16.09v2.564h0.5v-2.564h14.878v15.703h-2.979v0.5h2.979v16.675
			h-14.878v-1.476h-0.5v1.476h-16.09V118.065z M114.725,151.942h16.09v0.507h0.5v-0.507h14.878v15.431h-2.979v0.5h2.979v16.947
			h-31.468V151.942z M147.193,184.82v-32.878h16.091v0.507h0.5v-0.507h14.879v32.878H147.193z M179.663,184.82v-16.947h2.709v-0.5
			h-2.709v-15.431h16.089v0.507h0.5v-0.507h14.879v32.878H179.663z M212.131,184.82v-16.947h2.369v-0.5h-2.369v-15.431h16.09v0.507
			h0.5v-0.507H243.6v32.878H212.131z M244.6,184.82v-16.947h2.029v-0.5H244.6v-15.431h16.09v0.507h0.5v-0.507h14.879v15.431h-0.322
			v0.5h0.322v16.947H244.6z M293.158,149.467v1.476h-16.09v-16.675h1.689v-0.5h-1.689v-15.703h16.09v2.564h0.5v-2.564h14.879v15.703
			h-0.662v0.5h0.662v16.675h-14.879v-1.476H293.158z M307.875,100.16v0.5h0.662v16.405h-31.469V100.66h1.689v-0.5h-1.689V84.188
			h16.09v0.642h0.5v-0.642h14.879v15.972H307.875z M275.746,66.553v0.5h0.322v16.135h-14.879v-1.341h-0.5v1.341H244.6V67.053h2.029
			v-0.5H244.6V50.311h16.09v2.698h0.5v-2.698h14.879v16.242H275.746z M228.721,53.009v-2.698H243.6v32.877h-14.879v-1.341h-0.5
			v1.341h-16.09V67.053h2.369v-0.5h-2.369V50.311h16.09v2.698H228.721z M196.251,53.009v-2.698h14.879v32.877h-14.879v-1.341h-0.5
			v1.341h-16.089V67.053h2.709v-0.5h-2.709V50.311h16.089v2.698H196.251z M163.784,53.009v-2.698h14.879v32.877h-14.879v-1.341h-0.5
			v1.341h-16.091V50.311h16.091v2.698H163.784z M147.193,84.188h16.091v0.642h0.5v-0.642h14.879v32.876h-31.47V84.188z
			 M147.193,118.065h16.091v2.564h0.5v-2.564h14.879v32.877h-14.879v-1.476h-0.5v1.476h-16.091V118.065z M195.751,149.467v1.476
			h-16.089v-16.675h2.709v-0.5h-2.709v-15.703h16.089v2.564h0.5v-2.564h14.879v32.877h-14.879v-1.476H195.751z M228.221,149.467
			v1.476h-16.09v-16.675h2.369v-0.5h-2.369v-15.703h16.09v2.564h0.5v-2.564H243.6v32.877h-14.879v-1.476H228.221z M243.6,117.065
			h-31.469V100.66h2.369v-0.5h-2.369V84.188h16.09v0.642h0.5v-0.642H243.6V117.065z M196.251,84.83v-0.642h14.879v32.876h-31.468
			V100.66h2.709v-0.5h-2.709V84.188h16.089v0.642H196.251z M276.068,84.188v15.972h-0.322v0.5h0.322v16.405H244.6V100.66h2.029v-0.5
			H244.6V84.188h16.09v0.642h0.5v-0.642H276.068z M276.068,150.942h-14.879v-1.476h-0.5v1.476H244.6v-16.675h2.029v-0.5H244.6
			v-15.703h16.09v2.564h0.5v-2.564h14.879v15.703h-0.322v0.5h0.322V150.942z M147.193,17.565h31.47v31.746h-31.47V17.565z
			 M179.663,17.565h31.468v31.746h-31.468V33.447h2.709v-0.5h-2.709V17.565z M212.131,17.565H243.6v31.746h-31.469V33.447h2.369
			v-0.5h-2.369V17.565z M244.6,17.565h31.469v15.381h-0.322v0.5h0.322v15.864H244.6V33.447h2.029v-0.5H244.6V17.565z
			 M308.537,50.311v16.242h-0.662v0.5h0.662v16.135h-14.879v-1.341h-0.5v1.341h-16.09V67.053h1.689v-0.5h-1.689V50.311h16.09v2.698
			h0.5v-2.698H308.537z M308.537,184.82h-31.469v-16.947h1.689v-0.5h-1.689v-15.431h16.09v0.507h0.5v-0.507h14.879v15.431h-0.662
			v0.5h0.662V184.82z M276.068,216.716H244.6V201.48h2.029v-0.5H244.6v-15.16h16.09v2.428h0.5v-2.428h14.879v15.16h-0.322v0.5h0.322
			V216.716z M243.6,216.716h-31.469V201.48h2.369v-0.5h-2.369v-15.16h16.09v2.428h0.5v-2.428H243.6V216.716z M211.131,216.716
			h-31.468V201.48h2.709v-0.5h-2.709v-15.16h16.089v2.428h0.5v-2.428h14.879V216.716z M178.663,216.716h-31.47V185.82h16.091v2.428
			h0.5v-2.428h14.879V216.716z M146.193,216.716h-31.468V185.82h16.09v2.428h0.5v-2.428h14.878v15.16h-2.979v0.5h2.979V216.716z
			 M341.443,17.565v15.381h-1.438v0.5h1.438v15.864h-31.906V33.447h1.35v-0.5h-1.35V17.565H341.443z M341.443,216.716h-31.906
			V201.48h1.35v-0.5h-1.35v-15.16h16.09v2.428h0.5v-2.428h15.316v15.16h-1.438v0.5h1.438V216.716z M48.741,216.716V201.48h1.099
			v-0.5h-1.099v-33.107h1.099v-0.5h-1.099v-33.106h1.099v-0.5h-1.099V100.66h1.099v-0.5h-1.099V67.053h1.099v-0.5h-1.099V33.447
			h1.099v-0.5h-1.099V17.565h32.516v15.381h-2.3v0.5h2.3v15.864H49.271v1h16.607v2.698h0.5v-2.698h14.878v16.242h-2.3v0.5h2.3
			v16.135H66.378v-1.341h-0.5v1.341H49.271v1h16.607v0.642h0.5v-0.642h14.878v15.972h-2.3v0.5h2.3v16.405H49.271v1h16.607v2.564h0.5
			v-2.564h14.878v15.703h-2.3v0.5h2.3v16.675H66.378v-1.476h-0.5v1.476H49.271v1h16.607v0.507h0.5v-0.507h14.878v15.431h-2.3v0.5
			h2.3v16.947H49.271v1h16.607v2.428h0.5v-2.428h14.878v15.16h-2.3v0.5h2.3v15.235H48.741z"/>
		<rect x="65.878" y="61.959" class="st0" width="0.5" height="2.983"/>
		<rect x="65.878" y="57.981" class="st0" width="0.5" height="2.983"/>
		<rect x="65.878" y="54.004" class="st0" width="0.5" height="2.983"/>
		<rect x="65.878" y="26.16" class="st0" width="0.5" height="2.983"/>
		<rect x="65.878" y="46.048" class="st0" width="0.5" height="2.983"/>
		<rect x="65.878" y="22.183" class="st0" width="0.5" height="2.983"/>
		<rect x="65.878" y="18.205" class="st0" width="0.5" height="2.983"/>
		<polygon class="st0" points="65.878,30.138 66.378,30.138 66.378,33.121 65.904,33.121 65.904,33.447 62.892,33.447 
			62.892,32.947 65.878,32.947 		"/>
		<rect x="65.878" y="42.071" class="st0" width="0.5" height="2.983"/>
		<rect x="65.878" y="34.116" class="st0" width="0.5" height="2.983"/>
		<rect x="65.878" y="38.093" class="st0" width="0.5" height="2.983"/>
		<rect x="65.878" y="77.87" class="st0" width="0.5" height="2.983"/>
		<polygon class="st0" points="65.878,65.937 66.378,65.937 66.378,68.92 65.878,68.92 65.878,67.053 62.892,67.053 62.892,66.553 
			65.878,66.553 		"/>
		<rect x="65.878" y="157.422" class="st0" width="0.5" height="2.983"/>
		<rect x="65.878" y="181.287" class="st0" width="0.5" height="2.983"/>
		<rect x="65.878" y="173.332" class="st0" width="0.5" height="2.983"/>
		<rect x="65.878" y="177.31" class="st0" width="0.5" height="2.983"/>
		<rect x="65.878" y="161.399" class="st0" width="0.5" height="2.983"/>
		<rect x="65.878" y="137.534" class="st0" width="0.5" height="2.983"/>
		<polygon class="st0" points="65.878,133.556 66.378,133.556 66.378,136.539 65.878,136.539 65.878,134.268 62.892,134.268 
			62.892,133.768 65.878,133.768 		"/>
		<rect x="65.878" y="153.444" class="st0" width="0.5" height="2.983"/>
		<rect x="65.878" y="189.243" class="st0" width="0.5" height="2.982"/>
		<rect x="65.878" y="213.108" class="st0" width="0.5" height="2.983"/>
		<rect x="65.878" y="209.131" class="st0" width="0.5" height="2.983"/>
		<rect x="65.878" y="197.198" class="st0" width="0.5" height="2.983"/>
		<rect x="65.878" y="205.153" class="st0" width="0.5" height="2.983"/>
		<polygon class="st0" points="65.878,165.377 66.378,165.377 66.378,168.36 65.878,168.36 65.878,167.874 62.892,167.874 
			62.892,167.374 65.878,167.374 		"/>
		<rect x="65.878" y="193.221" class="st0" width="0.5" height="2.982"/>
		<rect x="65.878" y="169.354" class="st0" width="0.5" height="2.983"/>
		<rect x="65.878" y="141.511" class="st0" width="0.5" height="2.983"/>
		<rect x="65.878" y="85.825" class="st0" width="0.5" height="2.983"/>
		<rect x="65.878" y="145.489" class="st0" width="0.5" height="2.983"/>
		<rect x="65.878" y="125.601" class="st0" width="0.5" height="2.983"/>
		<rect x="65.878" y="129.579" class="st0" width="0.5" height="2.983"/>
		<polygon class="st0" points="65.878,97.757 66.378,97.757 66.378,100.741 65.878,100.741 65.878,100.66 62.892,100.66 
			62.892,100.16 65.878,100.16 		"/>
		<rect x="65.878" y="101.735" class="st0" width="0.5" height="2.983"/>
		<rect x="65.878" y="121.623" class="st0" width="0.5" height="2.983"/>
		<rect x="65.878" y="105.713" class="st0" width="0.5" height="2.983"/>
		<rect x="65.878" y="73.892" class="st0" width="0.5" height="2.983"/>
		<rect x="65.878" y="109.69" class="st0" width="0.5" height="2.983"/>
		<rect x="65.878" y="93.78" class="st0" width="0.5" height="2.983"/>
		<rect x="65.878" y="69.914" class="st0" width="0.5" height="2.983"/>
		<rect x="65.878" y="89.802" class="st0" width="0.5" height="2.983"/>
		<rect x="65.878" y="113.668" class="st0" width="0.5" height="2.983"/>
		<rect x="98.346" y="133.556" class="st0" width="0.5" height="2.983"/>
		<rect x="98.346" y="125.601" class="st0" width="0.5" height="2.983"/>
		<rect x="98.346" y="137.534" class="st0" width="0.5" height="2.983"/>
		<rect x="98.346" y="121.623" class="st0" width="0.5" height="2.983"/>
		<rect x="98.346" y="189.243" class="st0" width="0.5" height="2.982"/>
		<rect x="98.346" y="129.579" class="st0" width="0.5" height="2.983"/>
		<rect x="98.346" y="213.108" class="st0" width="0.5" height="2.983"/>
		<rect x="98.346" y="153.444" class="st0" width="0.5" height="2.983"/>
		<rect x="98.346" y="209.131" class="st0" width="0.5" height="2.983"/>
		<rect x="98.346" y="193.221" class="st0" width="0.5" height="2.982"/>
		<rect x="98.346" y="201.176" class="st0" width="0.5" height="2.983"/>
		<rect x="98.346" y="205.153" class="st0" width="0.5" height="2.983"/>
		<rect x="98.346" y="197.198" class="st0" width="0.5" height="2.983"/>
		<rect x="98.346" y="181.287" class="st0" width="0.5" height="2.983"/>
		<rect x="98.346" y="173.332" class="st0" width="0.5" height="2.983"/>
		<rect x="98.346" y="177.31" class="st0" width="0.5" height="2.983"/>
		<rect x="98.346" y="157.422" class="st0" width="0.5" height="2.983"/>
		<rect x="98.346" y="169.354" class="st0" width="0.5" height="2.983"/>
		<rect x="98.346" y="165.377" class="st0" width="0.5" height="2.983"/>
		<rect x="98.346" y="161.399" class="st0" width="0.5" height="2.983"/>
		<rect x="98.346" y="97.757" class="st0" width="0.5" height="2.983"/>
		<rect x="98.346" y="42.071" class="st0" width="0.5" height="2.983"/>
		<rect x="98.346" y="77.87" class="st0" width="0.5" height="2.983"/>
		<rect x="98.346" y="46.048" class="st0" width="0.5" height="2.983"/>
		<rect x="98.346" y="69.914" class="st0" width="0.5" height="2.983"/>
		<rect x="98.346" y="73.892" class="st0" width="0.5" height="2.983"/>
		<rect x="98.346" y="34.116" class="st0" width="0.5" height="2.983"/>
		<rect x="98.346" y="141.511" class="st0" width="0.5" height="2.983"/>
		<rect x="98.346" y="22.183" class="st0" width="0.5" height="2.983"/>
		<rect x="98.346" y="65.937" class="st0" width="0.5" height="2.983"/>
		<rect x="98.346" y="18.205" class="st0" width="0.5" height="2.983"/>
		<rect x="98.346" y="38.093" class="st0" width="0.5" height="2.983"/>
		<rect x="98.346" y="30.138" class="st0" width="0.5" height="2.983"/>
		<rect x="98.346" y="93.78" class="st0" width="0.5" height="2.983"/>
		<rect x="98.346" y="89.802" class="st0" width="0.5" height="2.983"/>
		<rect x="98.346" y="85.825" class="st0" width="0.5" height="2.983"/>
		<rect x="98.346" y="101.735" class="st0" width="0.5" height="2.983"/>
		<rect x="98.346" y="61.959" class="st0" width="0.5" height="2.983"/>
		<rect x="98.346" y="145.489" class="st0" width="0.5" height="2.983"/>
		<rect x="98.346" y="54.004" class="st0" width="0.5" height="2.983"/>
		<rect x="98.346" y="57.981" class="st0" width="0.5" height="2.983"/>
		<rect x="98.346" y="113.668" class="st0" width="0.5" height="2.983"/>
		<rect x="98.346" y="109.69" class="st0" width="0.5" height="2.983"/>
		<rect x="98.346" y="105.713" class="st0" width="0.5" height="2.983"/>
		<rect x="98.346" y="26.16" class="st0" width="0.5" height="2.983"/>
		<rect x="130.815" y="129.579" class="st0" width="0.5" height="2.983"/>
		<polygon class="st0" points="131.315,133.768 134.178,133.768 134.178,134.268 131.315,134.268 131.315,136.539 130.815,136.539 
			130.815,133.556 131.315,133.556 		"/>
		<rect x="130.815" y="125.601" class="st0" width="0.5" height="2.983"/>
		<rect x="130.815" y="141.511" class="st0" width="0.5" height="2.983"/>
		<rect x="130.815" y="57.981" class="st0" width="0.5" height="2.983"/>
		<rect x="130.815" y="61.959" class="st0" width="0.5" height="2.983"/>
		<rect x="130.815" y="145.489" class="st0" width="0.5" height="2.983"/>
		<rect x="130.815" y="121.623" class="st0" width="0.5" height="2.983"/>
		<rect x="130.815" y="54.004" class="st0" width="0.5" height="2.983"/>
		<rect x="130.815" y="93.78" class="st0" width="0.5" height="2.983"/>
		<rect x="130.815" y="181.287" class="st0" width="0.5" height="2.983"/>
		<polygon class="st0" points="131.315,100.16 134.178,100.16 134.178,100.66 131.315,100.66 131.315,100.741 130.815,100.741 
			130.815,97.757 131.315,97.757 		"/>
		<rect x="130.815" y="85.825" class="st0" width="0.5" height="2.983"/>
		<rect x="130.815" y="101.735" class="st0" width="0.5" height="2.983"/>
		<rect x="130.815" y="109.69" class="st0" width="0.5" height="2.983"/>
		<rect x="130.815" y="89.802" class="st0" width="0.5" height="2.983"/>
		<rect x="130.815" y="113.668" class="st0" width="0.5" height="2.983"/>
		<rect x="130.815" y="105.713" class="st0" width="0.5" height="2.983"/>
		<rect x="130.815" y="34.116" class="st0" width="0.5" height="2.983"/>
		<rect x="130.815" y="153.444" class="st0" width="0.5" height="2.983"/>
		<rect x="130.815" y="26.16" class="st0" width="0.5" height="2.983"/>
		<rect x="130.815" y="77.87" class="st0" width="0.5" height="2.983"/>
		<rect x="130.815" y="18.205" class="st0" width="0.5" height="2.983"/>
		<rect x="130.815" y="22.183" class="st0" width="0.5" height="2.983"/>
		<rect x="130.815" y="177.31" class="st0" width="0.5" height="2.983"/>
		<rect x="130.815" y="69.914" class="st0" width="0.5" height="2.983"/>
		<rect x="130.815" y="73.892" class="st0" width="0.5" height="2.983"/>
		<polygon class="st0" points="131.315,66.553 134.178,66.553 134.178,67.053 131.315,67.053 131.315,68.92 130.815,68.92 
			130.815,65.937 131.315,65.937 		"/>
		<polygon class="st0" points="131.315,167.374 134.178,167.374 134.178,167.874 131.315,167.874 131.315,168.36 130.815,168.36 
			130.815,165.377 131.315,165.377 		"/>
		<rect x="130.815" y="169.354" class="st0" width="0.5" height="2.983"/>
		<rect x="130.815" y="173.332" class="st0" width="0.5" height="2.983"/>
		<rect x="130.815" y="161.399" class="st0" width="0.5" height="2.983"/>
		<rect x="130.815" y="38.093" class="st0" width="0.5" height="2.983"/>
		<rect x="130.815" y="42.071" class="st0" width="0.5" height="2.983"/>
		<rect x="130.815" y="157.422" class="st0" width="0.5" height="2.983"/>
		<rect x="130.815" y="46.048" class="st0" width="0.5" height="2.983"/>
		<rect x="130.815" y="137.534" class="st0" width="0.5" height="2.983"/>
		<rect x="130.815" y="193.221" class="st0" width="0.5" height="2.982"/>
		<rect x="130.815" y="205.153" class="st0" width="0.5" height="2.983"/>
		<rect x="130.815" y="197.198" class="st0" width="0.5" height="2.983"/>
		<rect x="130.815" y="209.131" class="st0" width="0.5" height="2.983"/>
		<rect x="130.815" y="213.108" class="st0" width="0.5" height="2.983"/>
		<rect x="130.815" y="189.243" class="st0" width="0.5" height="2.982"/>
		<rect x="163.284" y="157.422" class="st0" width="0.5" height="2.983"/>
		<rect x="163.284" y="161.399" class="st0" width="0.5" height="2.983"/>
		<rect x="163.284" y="34.116" class="st0" width="0.5" height="2.983"/>
		<rect x="163.284" y="169.354" class="st0" width="0.5" height="2.983"/>
		<polygon class="st0" points="163.784,167.374 166.307,167.374 166.307,167.874 163.784,167.874 163.784,168.36 163.284,168.36 
			163.284,165.377 163.784,165.377 		"/>
		<rect x="163.284" y="18.205" class="st0" width="0.5" height="2.983"/>
		<rect x="163.284" y="77.87" class="st0" width="0.5" height="2.983"/>
		<rect x="163.284" y="153.444" class="st0" width="0.5" height="2.983"/>
		<rect x="163.284" y="46.048" class="st0" width="0.5" height="2.983"/>
		<rect x="163.284" y="42.071" class="st0" width="0.5" height="2.983"/>
		<rect x="163.284" y="177.31" class="st0" width="0.5" height="2.983"/>
		<rect x="163.284" y="209.131" class="st0" width="0.5" height="2.983"/>
		<rect x="163.284" y="213.108" class="st0" width="0.5" height="2.983"/>
		<rect x="163.284" y="205.153" class="st0" width="0.5" height="2.983"/>
		<rect x="163.284" y="193.221" class="st0" width="0.5" height="2.982"/>
		<rect x="163.284" y="197.198" class="st0" width="0.5" height="2.983"/>
		<rect x="163.284" y="26.16" class="st0" width="0.5" height="2.983"/>
		<rect x="163.284" y="173.332" class="st0" width="0.5" height="2.983"/>
		<rect x="163.284" y="22.183" class="st0" width="0.5" height="2.983"/>
		<rect x="163.284" y="181.287" class="st0" width="0.5" height="2.983"/>
		<rect x="163.284" y="73.892" class="st0" width="0.5" height="2.983"/>
		<rect x="163.284" y="54.004" class="st0" width="0.5" height="2.983"/>
		<rect x="163.284" y="129.579" class="st0" width="0.5" height="2.983"/>
		<rect x="163.284" y="121.623" class="st0" width="0.5" height="2.983"/>
		<rect x="163.284" y="125.601" class="st0" width="0.5" height="2.983"/>
		<rect x="163.284" y="89.802" class="st0" width="0.5" height="2.983"/>
		<rect x="163.284" y="93.78" class="st0" width="0.5" height="2.983"/>
		<rect x="163.284" y="85.825" class="st0" width="0.5" height="2.983"/>
		<polygon class="st0" points="163.784,133.768 166.307,133.768 166.307,134.268 163.784,134.268 163.784,136.539 163.284,136.539 
			163.284,133.556 163.784,133.556 		"/>
		<rect x="163.284" y="141.511" class="st0" width="0.5" height="2.983"/>
		<rect x="163.284" y="145.489" class="st0" width="0.5" height="2.983"/>
		<rect x="163.284" y="137.534" class="st0" width="0.5" height="2.983"/>
		<polygon class="st0" points="163.784,66.553 166.307,66.553 166.307,67.053 163.784,67.053 163.784,68.92 163.284,68.92 
			163.284,65.937 163.784,65.937 		"/>
		<rect x="163.284" y="61.959" class="st0" width="0.5" height="2.983"/>
		<rect x="163.284" y="57.981" class="st0" width="0.5" height="2.983"/>
		<polygon class="st0" points="163.784,100.16 166.307,100.16 166.307,100.66 163.784,100.66 163.784,100.741 163.284,100.741 
			163.284,97.757 163.784,97.757 		"/>
		<rect x="163.284" y="189.243" class="st0" width="0.5" height="2.982"/>
		<rect x="163.284" y="69.914" class="st0" width="0.5" height="2.983"/>
		<rect x="163.284" y="105.713" class="st0" width="0.5" height="2.983"/>
		<rect x="163.284" y="101.735" class="st0" width="0.5" height="2.983"/>
		<rect x="163.284" y="113.668" class="st0" width="0.5" height="2.983"/>
		<rect x="163.284" y="109.69" class="st0" width="0.5" height="2.983"/>
		<rect x="163.284" y="38.093" class="st0" width="0.5" height="2.983"/>
		<rect x="195.751" y="89.802" class="st0" width="0.5" height="2.983"/>
		<rect x="195.751" y="213.108" class="st0" width="0.5" height="2.983"/>
		<rect x="195.751" y="69.914" class="st0" width="0.5" height="2.983"/>
		<rect x="195.751" y="189.243" class="st0" width="0.5" height="2.982"/>
		<polygon class="st0" points="195.751,165.377 196.251,165.377 196.251,167.374 198.436,167.374 198.436,167.874 196.251,167.874 
			196.251,168.36 195.751,168.36 195.751,167.874 195.424,167.874 195.424,167.374 195.751,167.374 		"/>
		<rect x="195.751" y="169.354" class="st0" width="0.5" height="2.983"/>
		<rect x="195.751" y="93.78" class="st0" width="0.5" height="2.983"/>
		<rect x="195.751" y="42.071" class="st0" width="0.5" height="2.983"/>
		<rect x="195.751" y="38.093" class="st0" width="0.5" height="2.983"/>
		<rect x="195.751" y="73.892" class="st0" width="0.5" height="2.983"/>
		<rect x="195.751" y="34.116" class="st0" width="0.5" height="2.983"/>
		<rect x="195.751" y="77.87" class="st0" width="0.5" height="2.983"/>
		<rect x="195.751" y="46.048" class="st0" width="0.5" height="2.983"/>
		<rect x="195.751" y="161.399" class="st0" width="0.5" height="2.983"/>
		<rect x="195.751" y="54.004" class="st0" width="0.5" height="2.983"/>
		<rect x="195.751" y="173.332" class="st0" width="0.5" height="2.983"/>
		<polygon class="st0" points="195.751,65.937 196.251,65.937 196.251,66.553 198.436,66.553 198.436,67.053 196.251,67.053 
			196.251,68.92 195.751,68.92 195.751,67.053 195.424,67.053 195.424,66.553 195.751,66.553 		"/>
		<rect x="195.751" y="113.668" class="st0" width="0.5" height="2.983"/>
		<rect x="195.751" y="177.31" class="st0" width="0.5" height="2.983"/>
		<rect x="195.751" y="85.825" class="st0" width="0.5" height="2.983"/>
		<rect x="195.751" y="181.287" class="st0" width="0.5" height="2.983"/>
		<rect x="195.751" y="157.422" class="st0" width="0.5" height="2.983"/>
		<rect x="195.751" y="153.444" class="st0" width="0.5" height="2.983"/>
		<polygon class="st0" points="195.751,97.757 196.251,97.757 196.251,100.16 198.436,100.16 198.436,100.66 196.251,100.66 
			196.251,100.741 195.751,100.741 195.751,100.66 195.424,100.66 195.424,100.16 195.751,100.16 		"/>
		<rect x="195.751" y="61.959" class="st0" width="0.5" height="2.983"/>
		<rect x="195.751" y="105.713" class="st0" width="0.5" height="2.983"/>
		<rect x="195.751" y="101.735" class="st0" width="0.5" height="2.983"/>
		<rect x="195.751" y="109.69" class="st0" width="0.5" height="2.983"/>
		<polygon class="st0" points="196.251,136.539 195.751,136.539 195.751,134.268 195.424,134.268 195.424,133.768 195.751,133.768 
			195.751,133.556 196.251,133.556 196.251,133.768 198.436,133.768 198.436,134.268 196.251,134.268 		"/>
		<rect x="195.751" y="129.579" class="st0" width="0.5" height="2.983"/>
		<rect x="195.751" y="197.198" class="st0" width="0.5" height="2.983"/>
		<rect x="195.751" y="125.601" class="st0" width="0.5" height="2.983"/>
		<rect x="195.751" y="209.131" class="st0" width="0.5" height="2.983"/>
		<rect x="195.751" y="145.489" class="st0" width="0.5" height="2.983"/>
		<rect x="195.751" y="121.623" class="st0" width="0.5" height="2.983"/>
		<rect x="195.751" y="193.221" class="st0" width="0.5" height="2.982"/>
		<rect x="195.751" y="18.205" class="st0" width="0.5" height="2.983"/>
		<rect x="195.751" y="26.16" class="st0" width="0.5" height="2.983"/>
		<rect x="195.751" y="57.981" class="st0" width="0.5" height="2.983"/>
		<rect x="195.751" y="22.183" class="st0" width="0.5" height="2.983"/>
		<rect x="195.751" y="141.511" class="st0" width="0.5" height="2.983"/>
		<rect x="195.751" y="205.153" class="st0" width="0.5" height="2.983"/>
		<rect x="195.751" y="137.534" class="st0" width="0.5" height="2.983"/>
		<rect x="228.221" y="137.534" class="st0" width="0.5" height="2.983"/>
		<polygon class="st0" points="228.221,165.377 228.721,165.377 228.721,167.374 230.564,167.374 230.564,167.874 228.721,167.874 
			228.721,168.36 228.221,168.36 228.221,167.874 227.553,167.874 227.553,167.374 228.221,167.374 		"/>
		<rect x="228.221" y="141.511" class="st0" width="0.5" height="2.983"/>
		<rect x="228.221" y="205.153" class="st0" width="0.5" height="2.983"/>
		<rect x="228.221" y="169.354" class="st0" width="0.5" height="2.983"/>
		<rect x="228.221" y="209.131" class="st0" width="0.5" height="2.983"/>
		<rect x="228.221" y="173.332" class="st0" width="0.5" height="2.983"/>
		<rect x="228.221" y="121.623" class="st0" width="0.5" height="2.983"/>
		<rect x="228.221" y="145.489" class="st0" width="0.5" height="2.983"/>
		<rect x="228.221" y="213.108" class="st0" width="0.5" height="2.983"/>
		<rect x="228.221" y="85.825" class="st0" width="0.5" height="2.983"/>
		<rect x="228.221" y="89.802" class="st0" width="0.5" height="2.983"/>
		<rect x="228.221" y="93.78" class="st0" width="0.5" height="2.983"/>
		<rect x="228.221" y="181.287" class="st0" width="0.5" height="2.983"/>
		<rect x="228.221" y="177.31" class="st0" width="0.5" height="2.983"/>
		<polygon class="st0" points="228.721,136.539 228.221,136.539 228.221,134.268 227.553,134.268 227.553,133.768 228.221,133.768 
			228.221,133.556 228.721,133.556 228.721,133.768 230.564,133.768 230.564,134.268 228.721,134.268 		"/>
		<rect x="228.221" y="105.713" class="st0" width="0.5" height="2.983"/>
		<polygon class="st0" points="228.221,97.757 228.721,97.757 228.721,100.16 230.564,100.16 230.564,100.66 228.721,100.66 
			228.721,100.741 228.221,100.741 228.221,100.66 227.553,100.66 227.553,100.16 228.221,100.16 		"/>
		<rect x="228.221" y="161.399" class="st0" width="0.5" height="2.983"/>
		<rect x="228.221" y="101.735" class="st0" width="0.5" height="2.983"/>
		<rect x="228.221" y="157.422" class="st0" width="0.5" height="2.983"/>
		<rect x="228.221" y="125.601" class="st0" width="0.5" height="2.983"/>
		<rect x="228.221" y="113.668" class="st0" width="0.5" height="2.983"/>
		<rect x="228.221" y="153.444" class="st0" width="0.5" height="2.983"/>
		<rect x="228.221" y="109.69" class="st0" width="0.5" height="2.983"/>
		<rect x="228.221" y="129.579" class="st0" width="0.5" height="2.983"/>
		<polygon class="st0" points="228.221,65.937 228.721,65.937 228.721,66.553 230.564,66.553 230.564,67.053 228.721,67.053 
			228.721,68.92 228.221,68.92 228.221,67.053 227.553,67.053 227.553,66.553 228.221,66.553 		"/>
		<rect x="228.221" y="46.048" class="st0" width="0.5" height="2.983"/>
		<rect x="228.221" y="42.071" class="st0" width="0.5" height="2.983"/>
		<rect x="228.221" y="189.243" class="st0" width="0.5" height="2.982"/>
		<rect x="228.221" y="38.093" class="st0" width="0.5" height="2.983"/>
		<rect x="228.221" y="57.981" class="st0" width="0.5" height="2.983"/>
		<rect x="228.221" y="61.959" class="st0" width="0.5" height="2.983"/>
		<rect x="228.221" y="22.183" class="st0" width="0.5" height="2.983"/>
		<rect x="228.221" y="73.892" class="st0" width="0.5" height="2.983"/>
		<rect x="228.221" y="77.87" class="st0" width="0.5" height="2.983"/>
		<rect x="228.221" y="69.914" class="st0" width="0.5" height="2.983"/>
		<rect x="228.221" y="18.205" class="st0" width="0.5" height="2.983"/>
		<rect x="228.221" y="26.16" class="st0" width="0.5" height="2.983"/>
		<rect x="228.221" y="34.116" class="st0" width="0.5" height="2.983"/>
		<rect x="228.221" y="193.221" class="st0" width="0.5" height="2.982"/>
		<rect x="228.221" y="54.004" class="st0" width="0.5" height="2.983"/>
		<rect x="228.221" y="197.198" class="st0" width="0.5" height="2.983"/>
		<rect x="260.689" y="145.489" class="st0" width="0.5" height="2.983"/>
		<rect x="260.689" y="77.87" class="st0" width="0.5" height="2.983"/>
		<rect x="260.689" y="157.422" class="st0" width="0.5" height="2.983"/>
		<rect x="260.689" y="113.668" class="st0" width="0.5" height="2.983"/>
		<rect x="260.689" y="169.354" class="st0" width="0.5" height="2.983"/>
		<rect x="260.689" y="173.332" class="st0" width="0.5" height="2.983"/>
		<rect x="260.689" y="18.205" class="st0" width="0.5" height="2.983"/>
		<rect x="260.689" y="137.534" class="st0" width="0.5" height="2.983"/>
		<rect x="260.689" y="177.31" class="st0" width="0.5" height="2.983"/>
		<rect x="260.689" y="42.071" class="st0" width="0.5" height="2.983"/>
		<rect x="260.689" y="101.735" class="st0" width="0.5" height="2.983"/>
		<rect x="260.689" y="93.78" class="st0" width="0.5" height="2.983"/>
		<rect x="260.689" y="46.048" class="st0" width="0.5" height="2.983"/>
		<rect x="260.689" y="213.108" class="st0" width="0.5" height="2.983"/>
		<rect x="260.689" y="38.093" class="st0" width="0.5" height="2.983"/>
		<rect x="260.689" y="85.825" class="st0" width="0.5" height="2.983"/>
		<rect x="260.689" y="89.802" class="st0" width="0.5" height="2.983"/>
		<rect x="260.689" y="109.69" class="st0" width="0.5" height="2.983"/>
		<rect x="260.689" y="34.116" class="st0" width="0.5" height="2.983"/>
		<rect x="260.689" y="105.713" class="st0" width="0.5" height="2.983"/>
		<rect x="260.689" y="22.183" class="st0" width="0.5" height="2.983"/>
		<polygon class="st0" points="261.189,100.741 260.689,100.741 260.689,100.66 259.682,100.66 259.682,100.16 260.689,100.16 
			260.689,97.757 261.189,97.757 261.189,100.16 262.693,100.16 262.693,100.66 261.189,100.66 		"/>
		<rect x="260.689" y="153.444" class="st0" width="0.5" height="2.983"/>
		<rect x="260.689" y="57.981" class="st0" width="0.5" height="2.983"/>
		<rect x="260.689" y="141.511" class="st0" width="0.5" height="2.983"/>
		<rect x="260.689" y="161.399" class="st0" width="0.5" height="2.983"/>
		<rect x="260.689" y="69.914" class="st0" width="0.5" height="2.983"/>
		<rect x="260.689" y="193.221" class="st0" width="0.5" height="2.982"/>
		<rect x="260.689" y="54.004" class="st0" width="0.5" height="2.983"/>
		<rect x="260.689" y="26.16" class="st0" width="0.5" height="2.983"/>
		<rect x="260.689" y="205.153" class="st0" width="0.5" height="2.983"/>
		<rect x="260.689" y="73.892" class="st0" width="0.5" height="2.983"/>
		<rect x="260.689" y="121.623" class="st0" width="0.5" height="2.983"/>
		<rect x="260.689" y="125.601" class="st0" width="0.5" height="2.983"/>
		<polygon class="st0" points="261.189,136.539 260.689,136.539 260.689,134.268 259.682,134.268 259.682,133.768 260.689,133.768 
			260.689,133.556 261.189,133.556 261.189,133.768 262.693,133.768 262.693,134.268 261.189,134.268 		"/>
		<rect x="260.689" y="129.579" class="st0" width="0.5" height="2.983"/>
		<rect x="260.689" y="209.131" class="st0" width="0.5" height="2.983"/>
		<rect x="260.689" y="61.959" class="st0" width="0.5" height="2.983"/>
		<polygon class="st0" points="260.689,165.377 261.189,165.377 261.189,167.374 262.693,167.374 262.693,167.874 261.189,167.874 
			261.189,168.36 260.689,168.36 260.689,167.874 259.682,167.874 259.682,167.374 260.689,167.374 		"/>
		<rect x="260.689" y="181.287" class="st0" width="0.5" height="2.983"/>
		<rect x="260.689" y="197.198" class="st0" width="0.5" height="2.983"/>
		<polygon class="st0" points="261.189,68.92 260.689,68.92 260.689,67.053 259.682,67.053 259.682,66.553 260.689,66.553 
			260.689,65.937 261.189,65.937 261.189,66.553 262.693,66.553 262.693,67.053 261.189,67.053 		"/>
		<rect x="260.689" y="189.243" class="st0" width="0.5" height="2.982"/>
		<rect x="293.158" y="109.69" class="st0" width="0.5" height="2.983"/>
		<rect x="293.158" y="129.579" class="st0" width="0.5" height="2.983"/>
		<rect x="293.158" y="105.713" class="st0" width="0.5" height="2.983"/>
		<rect x="293.158" y="101.735" class="st0" width="0.5" height="2.983"/>
		<rect x="293.158" y="113.668" class="st0" width="0.5" height="2.983"/>
		<rect x="293.158" y="85.825" class="st0" width="0.5" height="2.983"/>
		<rect x="293.158" y="46.048" class="st0" width="0.5" height="2.983"/>
		<rect x="293.158" y="22.183" class="st0" width="0.5" height="2.983"/>
		<rect x="293.158" y="18.205" class="st0" width="0.5" height="2.983"/>
		<rect x="293.158" y="141.511" class="st0" width="0.5" height="2.983"/>
		<rect x="293.158" y="89.802" class="st0" width="0.5" height="2.983"/>
		<rect x="293.158" y="34.116" class="st0" width="0.5" height="2.983"/>
		<rect x="293.158" y="121.623" class="st0" width="0.5" height="2.983"/>
		<rect x="293.158" y="125.601" class="st0" width="0.5" height="2.983"/>
		<rect x="293.158" y="26.16" class="st0" width="0.5" height="2.983"/>
		<rect x="293.158" y="42.071" class="st0" width="0.5" height="2.983"/>
		<rect x="293.158" y="145.489" class="st0" width="0.5" height="2.983"/>
		<rect x="293.158" y="137.534" class="st0" width="0.5" height="2.983"/>
		<rect x="293.158" y="93.78" class="st0" width="0.5" height="2.983"/>
		<rect x="293.158" y="38.093" class="st0" width="0.5" height="2.983"/>
		<polygon class="st0" points="293.658,100.741 293.158,100.741 293.158,100.66 291.811,100.66 291.811,100.16 293.158,100.16 
			293.158,97.757 293.658,97.757 293.658,100.16 294.822,100.16 294.822,100.66 293.658,100.66 		"/>
		<rect x="293.158" y="69.914" class="st0" width="0.5" height="2.983"/>
		<polygon class="st0" points="293.658,136.539 293.158,136.539 293.158,134.268 291.811,134.268 291.811,133.768 293.158,133.768 
			293.158,133.556 293.658,133.556 293.658,133.768 294.822,133.768 294.822,134.268 293.658,134.268 		"/>
		<rect x="293.158" y="54.004" class="st0" width="0.5" height="2.983"/>
		<rect x="293.158" y="77.87" class="st0" width="0.5" height="2.983"/>
		<rect x="293.158" y="57.981" class="st0" width="0.5" height="2.983"/>
		<rect x="293.158" y="189.243" class="st0" width="0.5" height="2.982"/>
		<rect x="293.158" y="61.959" class="st0" width="0.5" height="2.983"/>
		<rect x="293.158" y="205.153" class="st0" width="0.5" height="2.983"/>
		<rect x="293.158" y="213.108" class="st0" width="0.5" height="2.983"/>
		<rect x="293.158" y="209.131" class="st0" width="0.5" height="2.983"/>
		<rect x="293.158" y="157.422" class="st0" width="0.5" height="2.983"/>
		<rect x="293.158" y="177.31" class="st0" width="0.5" height="2.983"/>
		<polygon class="st0" points="293.658,68.92 293.158,68.92 293.158,67.053 291.811,67.053 291.811,66.553 293.158,66.553 
			293.158,65.937 293.658,65.937 293.658,66.553 294.822,66.553 294.822,67.053 293.658,67.053 		"/>
		<rect x="293.158" y="173.332" class="st0" width="0.5" height="2.983"/>
		<polygon class="st0" points="293.158,165.377 293.658,165.377 293.658,167.374 294.822,167.374 294.822,167.874 293.658,167.874 
			293.658,168.36 293.158,168.36 293.158,167.874 291.811,167.874 291.811,167.374 293.158,167.374 		"/>
		<rect x="293.158" y="169.354" class="st0" width="0.5" height="2.983"/>
		<rect x="293.158" y="153.444" class="st0" width="0.5" height="2.983"/>
		<rect x="293.158" y="193.221" class="st0" width="0.5" height="2.982"/>
		<rect x="293.158" y="161.399" class="st0" width="0.5" height="2.983"/>
		<rect x="293.158" y="181.287" class="st0" width="0.5" height="2.983"/>
		<rect x="293.158" y="73.892" class="st0" width="0.5" height="2.983"/>
		<rect x="293.158" y="197.198" class="st0" width="0.5" height="2.983"/>
		<polygon class="st0" points="293.658,204.159 293.158,204.159 293.158,201.48 291.811,201.48 291.811,200.98 294.822,200.98 
			294.822,201.48 293.658,201.48 		"/>
		<polygon class="st0" points="325.627,165.377 326.127,165.377 326.127,167.374 326.951,167.374 326.951,167.874 326.127,167.874 
			326.127,168.36 325.627,168.36 325.627,167.874 323.939,167.874 323.939,167.374 325.627,167.374 		"/>
		<rect x="325.627" y="121.623" class="st0" width="0.5" height="2.983"/>
		<rect x="325.627" y="145.489" class="st0" width="0.5" height="2.983"/>
		<rect x="325.627" y="137.534" class="st0" width="0.5" height="2.983"/>
		<rect x="325.627" y="141.511" class="st0" width="0.5" height="2.983"/>
		<rect x="325.627" y="189.243" class="st0" width="0.5" height="2.982"/>
		<rect x="325.627" y="213.108" class="st0" width="0.5" height="2.983"/>
		<rect x="325.627" y="61.959" class="st0" width="0.5" height="2.983"/>
		<rect x="325.627" y="197.198" class="st0" width="0.5" height="2.983"/>
		<polygon class="st0" points="326.127,68.92 325.627,68.92 325.627,67.053 323.939,67.053 323.939,66.553 325.627,66.553 
			325.627,65.937 326.127,65.937 326.127,66.553 326.951,66.553 326.951,67.053 326.127,67.053 		"/>
		<rect x="325.627" y="193.221" class="st0" width="0.5" height="2.982"/>
		<rect x="325.627" y="173.332" class="st0" width="0.5" height="2.983"/>
		<rect x="325.627" y="34.116" class="st0" width="0.5" height="2.983"/>
		<rect x="325.627" y="169.354" class="st0" width="0.5" height="2.983"/>
		<rect x="325.627" y="209.131" class="st0" width="0.5" height="2.983"/>
		<rect x="325.627" y="18.205" class="st0" width="0.5" height="2.983"/>
		<rect x="325.627" y="181.287" class="st0" width="0.5" height="2.983"/>
		<rect x="325.627" y="22.183" class="st0" width="0.5" height="2.983"/>
		<rect x="325.627" y="26.16" class="st0" width="0.5" height="2.983"/>
		<rect x="325.627" y="113.668" class="st0" width="0.5" height="2.983"/>
		<rect x="325.627" y="161.399" class="st0" width="0.5" height="2.983"/>
		<rect x="325.627" y="129.579" class="st0" width="0.5" height="2.983"/>
		<rect x="325.627" y="73.892" class="st0" width="0.5" height="2.983"/>
		<rect x="325.627" y="77.87" class="st0" width="0.5" height="2.983"/>
		<rect x="325.627" y="46.048" class="st0" width="0.5" height="2.983"/>
		<polygon class="st0" points="326.127,100.741 325.627,100.741 325.627,100.66 323.939,100.66 323.939,100.16 325.627,100.16 
			325.627,97.757 326.127,97.757 326.127,100.16 326.951,100.16 326.951,100.66 326.127,100.66 		"/>
		<rect x="325.627" y="157.422" class="st0" width="0.5" height="2.983"/>
		<rect x="325.627" y="153.444" class="st0" width="0.5" height="2.983"/>
		<rect x="325.627" y="93.78" class="st0" width="0.5" height="2.983"/>
		<rect x="325.627" y="125.601" class="st0" width="0.5" height="2.983"/>
		<rect x="325.627" y="109.69" class="st0" width="0.5" height="2.983"/>
		<rect x="325.627" y="101.735" class="st0" width="0.5" height="2.983"/>
		<rect x="325.627" y="85.825" class="st0" width="0.5" height="2.983"/>
		<rect x="325.627" y="89.802" class="st0" width="0.5" height="2.983"/>
		<rect x="325.627" y="105.713" class="st0" width="0.5" height="2.983"/>
		<rect x="325.627" y="69.914" class="st0" width="0.5" height="2.983"/>
		<rect x="325.627" y="38.093" class="st0" width="0.5" height="2.983"/>
		<rect x="325.627" y="57.981" class="st0" width="0.5" height="2.983"/>
		<rect x="325.627" y="54.004" class="st0" width="0.5" height="2.983"/>
		<polygon class="st0" points="326.127,136.539 325.627,136.539 325.627,134.268 323.939,134.268 323.939,133.768 325.627,133.768 
			325.627,133.556 326.127,133.556 326.127,133.768 326.951,133.768 326.951,134.268 326.127,134.268 		"/>
		<rect x="325.627" y="205.153" class="st0" width="0.5" height="2.983"/>
		<rect x="325.627" y="177.31" class="st0" width="0.5" height="2.983"/>
		<rect x="325.627" y="42.071" class="st0" width="0.5" height="2.983"/>
		<rect x="127.15" y="200.98" class="st0" width="3.012" height="0.5"/>
		<rect x="187.392" y="200.98" class="st0" width="3.012" height="0.5"/>
		<rect x="183.375" y="200.98" class="st0" width="3.013" height="0.5"/>
		<rect x="50.843" y="200.98" class="st0" width="3.012" height="0.5"/>
		<rect x="74.94" y="200.98" class="st0" width="3.013" height="0.5"/>
		<polygon class="st0" points="131.166,200.98 134.178,200.98 134.178,201.48 131.315,201.48 131.315,204.159 130.815,204.159 
			130.815,201.176 131.166,201.176 		"/>
		<rect x="135.182" y="200.98" class="st0" width="3.012" height="0.5"/>
		<polygon class="st0" points="163.295,200.98 166.307,200.98 166.307,201.48 163.784,201.48 163.784,204.159 163.284,204.159 
			163.284,201.176 163.295,201.176 		"/>
		<rect x="167.311" y="200.98" class="st0" width="3.012" height="0.5"/>
		<rect x="171.328" y="200.98" class="st0" width="3.012" height="0.5"/>
		<rect x="58.875" y="200.98" class="st0" width="3.012" height="0.5"/>
		<polygon class="st0" points="65.904,201.176 66.378,201.176 66.378,204.159 65.878,204.159 65.878,201.48 62.892,201.48 
			62.892,200.98 65.904,200.98 		"/>
		<rect x="70.924" y="200.98" class="st0" width="3.012" height="0.5"/>
		<rect x="115.101" y="200.98" class="st0" width="3.013" height="0.5"/>
		<rect x="159.279" y="200.98" class="st0" width="3.012" height="0.5"/>
		<rect x="66.908" y="200.98" class="st0" width="3.012" height="0.5"/>
		<rect x="123.133" y="200.98" class="st0" width="3.013" height="0.5"/>
		<rect x="139.198" y="200.98" class="st0" width="3.013" height="0.5"/>
		<rect x="119.118" y="200.98" class="st0" width="3.012" height="0.5"/>
		<rect x="175.343" y="200.98" class="st0" width="3.012" height="0.5"/>
		<rect x="155.262" y="200.98" class="st0" width="3.013" height="0.5"/>
		<rect x="54.86" y="200.98" class="st0" width="3.012" height="0.5"/>
		<rect x="147.23" y="200.98" class="st0" width="3.013" height="0.5"/>
		<rect x="151.247" y="200.98" class="st0" width="3.012" height="0.5"/>
		<rect x="267.715" y="200.98" class="st0" width="3.012" height="0.5"/>
		<rect x="287.795" y="200.98" class="st0" width="3.012" height="0.5"/>
		<rect x="235.586" y="200.98" class="st0" width="3.012" height="0.5"/>
		<rect x="299.844" y="200.98" class="st0" width="3.012" height="0.5"/>
		<rect x="303.859" y="200.98" class="st0" width="3.012" height="0.5"/>
		<rect x="239.602" y="200.98" class="st0" width="3.012" height="0.5"/>
		<rect x="295.826" y="200.98" class="st0" width="3.014" height="0.5"/>
		<rect x="99.037" y="200.98" class="st0" width="3.013" height="0.5"/>
		<polygon class="st0" points="230.564,201.48 228.721,201.48 228.721,204.159 228.221,204.159 228.221,201.48 227.553,201.48 
			227.553,200.98 230.564,200.98 		"/>
		<rect x="107.069" y="200.98" class="st0" width="3.013" height="0.5"/>
		<rect x="231.568" y="200.98" class="st0" width="3.014" height="0.5"/>
		<rect x="103.053" y="200.98" class="st0" width="3.012" height="0.5"/>
		<polygon class="st0" points="326.951,201.48 326.127,201.48 326.127,204.159 325.627,204.159 325.627,201.48 323.939,201.48 
			323.939,200.98 326.951,200.98 		"/>
		<rect x="95.021" y="200.98" class="st0" width="3.012" height="0.5"/>
		<rect x="255.666" y="200.98" class="st0" width="3.012" height="0.5"/>
		<rect x="91.004" y="200.98" class="st0" width="3.013" height="0.5"/>
		<rect x="86.989" y="200.98" class="st0" width="3.012" height="0.5"/>
		<rect x="251.65" y="200.98" class="st0" width="3.012" height="0.5"/>
		<rect x="247.633" y="200.98" class="st0" width="3.014" height="0.5"/>
		<rect x="311.891" y="200.98" class="st0" width="3.014" height="0.5"/>
		<rect x="315.908" y="200.98" class="st0" width="3.012" height="0.5"/>
		<rect x="327.955" y="200.98" class="st0" width="3.014" height="0.5"/>
		<rect x="319.924" y="200.98" class="st0" width="3.012" height="0.5"/>
		<rect x="283.779" y="200.98" class="st0" width="3.012" height="0.5"/>
		<rect x="82.972" y="200.98" class="st0" width="3.013" height="0.5"/>
		<rect x="279.762" y="200.98" class="st0" width="3.014" height="0.5"/>
		<rect x="215.504" y="200.98" class="st0" width="3.014" height="0.5"/>
		<rect x="207.473" y="200.98" class="st0" width="3.012" height="0.5"/>
		<polygon class="st0" points="262.693,201.48 261.189,201.48 261.189,204.159 260.689,204.159 260.689,201.48 259.682,201.48 
			259.682,200.98 262.693,200.98 		"/>
		<rect x="219.521" y="200.98" class="st0" width="3.012" height="0.5"/>
		<rect x="203.457" y="200.98" class="st0" width="3.012" height="0.5"/>
		<rect x="223.537" y="200.98" class="st0" width="3.012" height="0.5"/>
		<rect x="331.973" y="200.98" class="st0" width="3.012" height="0.5"/>
		<rect x="271.73" y="200.98" class="st0" width="3.012" height="0.5"/>
		<rect x="263.697" y="200.98" class="st0" width="3.014" height="0.5"/>
		<rect x="199.44" y="200.98" class="st0" width="3.013" height="0.5"/>
		<polygon class="st0" points="198.436,201.48 196.251,201.48 196.251,204.159 195.751,204.159 195.751,201.48 195.424,201.48 
			195.424,200.98 198.436,200.98 		"/>
		<rect x="191.408" y="200.98" class="st0" width="3.013" height="0.5"/>
		<rect x="335.988" y="200.98" class="st0" width="3.012" height="0.5"/>
		<rect x="139.198" y="167.374" class="st0" width="3.013" height="0.5"/>
		<rect x="283.779" y="167.374" class="st0" width="3.012" height="0.5"/>
		<rect x="279.762" y="167.374" class="st0" width="3.014" height="0.5"/>
		<rect x="115.101" y="167.374" class="st0" width="3.013" height="0.5"/>
		<rect x="82.972" y="167.374" class="st0" width="3.013" height="0.5"/>
		<rect x="58.875" y="167.374" class="st0" width="3.012" height="0.5"/>
		<rect x="135.182" y="167.374" class="st0" width="3.012" height="0.5"/>
		<rect x="91.004" y="167.374" class="st0" width="3.013" height="0.5"/>
		<rect x="95.021" y="167.374" class="st0" width="3.012" height="0.5"/>
		<rect x="86.989" y="167.374" class="st0" width="3.012" height="0.5"/>
		<rect x="295.826" y="167.374" class="st0" width="3.014" height="0.5"/>
		<rect x="171.328" y="167.374" class="st0" width="3.012" height="0.5"/>
		<rect x="99.037" y="167.374" class="st0" width="3.013" height="0.5"/>
		<rect x="103.053" y="167.374" class="st0" width="3.012" height="0.5"/>
		<rect x="123.133" y="167.374" class="st0" width="3.013" height="0.5"/>
		<rect x="175.343" y="167.374" class="st0" width="3.012" height="0.5"/>
		<rect x="303.859" y="167.374" class="st0" width="3.012" height="0.5"/>
		<rect x="127.15" y="167.374" class="st0" width="3.012" height="0.5"/>
		<rect x="299.844" y="167.374" class="st0" width="3.012" height="0.5"/>
		<rect x="167.311" y="167.374" class="st0" width="3.012" height="0.5"/>
		<rect x="107.069" y="167.374" class="st0" width="3.013" height="0.5"/>
		<rect x="119.118" y="167.374" class="st0" width="3.012" height="0.5"/>
		<rect x="287.795" y="167.374" class="st0" width="3.012" height="0.5"/>
		<rect x="267.715" y="167.374" class="st0" width="3.012" height="0.5"/>
		<rect x="271.73" y="167.374" class="st0" width="3.012" height="0.5"/>
		<rect x="255.666" y="167.374" class="st0" width="3.012" height="0.5"/>
		<rect x="315.908" y="167.374" class="st0" width="3.012" height="0.5"/>
		<rect x="263.697" y="167.374" class="st0" width="3.014" height="0.5"/>
		<rect x="311.891" y="167.374" class="st0" width="3.014" height="0.5"/>
		<rect x="219.521" y="167.374" class="st0" width="3.012" height="0.5"/>
		<rect x="223.537" y="167.374" class="st0" width="3.012" height="0.5"/>
		<rect x="215.504" y="167.374" class="st0" width="3.014" height="0.5"/>
		<rect x="74.94" y="167.374" class="st0" width="3.013" height="0.5"/>
		<rect x="70.924" y="167.374" class="st0" width="3.012" height="0.5"/>
		<rect x="159.279" y="167.374" class="st0" width="3.012" height="0.5"/>
		<rect x="50.843" y="167.374" class="st0" width="3.012" height="0.5"/>
		<rect x="247.633" y="167.374" class="st0" width="3.014" height="0.5"/>
		<rect x="251.65" y="167.374" class="st0" width="3.012" height="0.5"/>
		<rect x="54.86" y="167.374" class="st0" width="3.012" height="0.5"/>
		<rect x="66.908" y="167.374" class="st0" width="3.012" height="0.5"/>
		<rect x="203.457" y="167.374" class="st0" width="3.012" height="0.5"/>
		<rect x="183.375" y="167.374" class="st0" width="3.013" height="0.5"/>
		<rect x="191.408" y="167.374" class="st0" width="3.013" height="0.5"/>
		<rect x="187.392" y="167.374" class="st0" width="3.012" height="0.5"/>
		<rect x="199.44" y="167.374" class="st0" width="3.013" height="0.5"/>
		<rect x="151.247" y="167.374" class="st0" width="3.012" height="0.5"/>
		<rect x="155.262" y="167.374" class="st0" width="3.013" height="0.5"/>
		<rect x="147.23" y="167.374" class="st0" width="3.013" height="0.5"/>
		<rect x="207.473" y="167.374" class="st0" width="3.012" height="0.5"/>
		<rect x="319.924" y="167.374" class="st0" width="3.012" height="0.5"/>
		<rect x="335.988" y="167.374" class="st0" width="3.012" height="0.5"/>
		<rect x="235.586" y="167.374" class="st0" width="3.012" height="0.5"/>
		<rect x="239.602" y="167.374" class="st0" width="3.012" height="0.5"/>
		<rect x="231.568" y="167.374" class="st0" width="3.014" height="0.5"/>
		<rect x="331.973" y="167.374" class="st0" width="3.012" height="0.5"/>
		<rect x="327.955" y="167.374" class="st0" width="3.014" height="0.5"/>
		<rect x="99.037" y="133.768" class="st0" width="3.013" height="0.5"/>
		<rect x="319.924" y="133.768" class="st0" width="3.012" height="0.5"/>
		<rect x="311.891" y="133.768" class="st0" width="3.014" height="0.5"/>
		<rect x="315.908" y="133.768" class="st0" width="3.012" height="0.5"/>
		<rect x="331.973" y="133.768" class="st0" width="3.012" height="0.5"/>
		<rect x="327.955" y="133.768" class="st0" width="3.014" height="0.5"/>
		<rect x="82.972" y="133.768" class="st0" width="3.013" height="0.5"/>
		<rect x="107.069" y="133.768" class="st0" width="3.013" height="0.5"/>
		<rect x="335.988" y="133.768" class="st0" width="3.012" height="0.5"/>
		<rect x="86.989" y="133.768" class="st0" width="3.012" height="0.5"/>
		<rect x="91.004" y="133.768" class="st0" width="3.013" height="0.5"/>
		<rect x="103.053" y="133.768" class="st0" width="3.012" height="0.5"/>
		<rect x="95.021" y="133.768" class="st0" width="3.012" height="0.5"/>
		<rect x="279.762" y="133.768" class="st0" width="3.014" height="0.5"/>
		<rect x="199.44" y="133.768" class="st0" width="3.013" height="0.5"/>
		<rect x="215.504" y="133.768" class="st0" width="3.014" height="0.5"/>
		<rect x="219.521" y="133.768" class="st0" width="3.012" height="0.5"/>
		<rect x="207.473" y="133.768" class="st0" width="3.012" height="0.5"/>
		<rect x="203.457" y="133.768" class="st0" width="3.012" height="0.5"/>
		<rect x="223.537" y="133.768" class="st0" width="3.012" height="0.5"/>
		<rect x="50.843" y="133.768" class="st0" width="3.012" height="0.5"/>
		<rect x="295.826" y="133.768" class="st0" width="3.014" height="0.5"/>
		<rect x="235.586" y="133.768" class="st0" width="3.012" height="0.5"/>
		<rect x="239.602" y="133.768" class="st0" width="3.012" height="0.5"/>
		<rect x="58.875" y="133.768" class="st0" width="3.012" height="0.5"/>
		<rect x="54.86" y="133.768" class="st0" width="3.012" height="0.5"/>
		<rect x="66.908" y="133.768" class="st0" width="3.012" height="0.5"/>
		<rect x="155.262" y="133.768" class="st0" width="3.013" height="0.5"/>
		<rect x="151.247" y="133.768" class="st0" width="3.012" height="0.5"/>
		<rect x="74.94" y="133.768" class="st0" width="3.013" height="0.5"/>
		<rect x="231.568" y="133.768" class="st0" width="3.014" height="0.5"/>
		<rect x="187.392" y="133.768" class="st0" width="3.012" height="0.5"/>
		<rect x="159.279" y="133.768" class="st0" width="3.012" height="0.5"/>
		<rect x="191.408" y="133.768" class="st0" width="3.013" height="0.5"/>
		<rect x="183.375" y="133.768" class="st0" width="3.013" height="0.5"/>
		<rect x="70.924" y="133.768" class="st0" width="3.012" height="0.5"/>
		<rect x="251.65" y="133.768" class="st0" width="3.012" height="0.5"/>
		<rect x="255.666" y="133.768" class="st0" width="3.012" height="0.5"/>
		<rect x="115.101" y="133.768" class="st0" width="3.013" height="0.5"/>
		<rect x="135.182" y="133.768" class="st0" width="3.012" height="0.5"/>
		<rect x="271.73" y="133.768" class="st0" width="3.012" height="0.5"/>
		<rect x="175.343" y="133.768" class="st0" width="3.012" height="0.5"/>
		<rect x="139.198" y="133.768" class="st0" width="3.013" height="0.5"/>
		<rect x="171.328" y="133.768" class="st0" width="3.012" height="0.5"/>
		<rect x="267.715" y="133.768" class="st0" width="3.012" height="0.5"/>
		<rect x="247.633" y="133.768" class="st0" width="3.014" height="0.5"/>
		<rect x="299.844" y="133.768" class="st0" width="3.012" height="0.5"/>
		<rect x="303.859" y="133.768" class="st0" width="3.012" height="0.5"/>
		<rect x="287.795" y="133.768" class="st0" width="3.012" height="0.5"/>
		<rect x="263.697" y="133.768" class="st0" width="3.014" height="0.5"/>
		<rect x="283.779" y="133.768" class="st0" width="3.012" height="0.5"/>
		<rect x="147.23" y="133.768" class="st0" width="3.013" height="0.5"/>
		<rect x="119.118" y="133.768" class="st0" width="3.012" height="0.5"/>
		<rect x="127.15" y="133.768" class="st0" width="3.012" height="0.5"/>
		<rect x="167.311" y="133.768" class="st0" width="3.012" height="0.5"/>
		<rect x="123.133" y="133.768" class="st0" width="3.013" height="0.5"/>
		<rect x="311.891" y="100.16" class="st0" width="3.014" height="0.5"/>
		<rect x="191.408" y="100.16" class="st0" width="3.013" height="0.5"/>
		<rect x="247.633" y="100.16" class="st0" width="3.014" height="0.5"/>
		<rect x="271.73" y="100.16" class="st0" width="3.012" height="0.5"/>
		<rect x="251.65" y="100.16" class="st0" width="3.012" height="0.5"/>
		<rect x="255.666" y="100.16" class="st0" width="3.012" height="0.5"/>
		<rect x="263.697" y="100.16" class="st0" width="3.014" height="0.5"/>
		<rect x="267.715" y="100.16" class="st0" width="3.012" height="0.5"/>
		<rect x="319.924" y="100.16" class="st0" width="3.012" height="0.5"/>
		<rect x="175.343" y="100.16" class="st0" width="3.012" height="0.5"/>
		<rect x="315.908" y="100.16" class="st0" width="3.012" height="0.5"/>
		<rect x="219.521" y="100.16" class="st0" width="3.012" height="0.5"/>
		<rect x="215.504" y="100.16" class="st0" width="3.014" height="0.5"/>
		<rect x="231.568" y="100.16" class="st0" width="3.014" height="0.5"/>
		<rect x="207.473" y="100.16" class="st0" width="3.012" height="0.5"/>
		<rect x="171.328" y="100.16" class="st0" width="3.012" height="0.5"/>
		<rect x="183.375" y="100.16" class="st0" width="3.013" height="0.5"/>
		<rect x="203.457" y="100.16" class="st0" width="3.012" height="0.5"/>
		<rect x="199.44" y="100.16" class="st0" width="3.013" height="0.5"/>
		<rect x="223.537" y="100.16" class="st0" width="3.012" height="0.5"/>
		<rect x="147.23" y="100.16" class="st0" width="3.013" height="0.5"/>
		<rect x="167.311" y="100.16" class="st0" width="3.012" height="0.5"/>
		<rect x="235.586" y="100.16" class="st0" width="3.012" height="0.5"/>
		<rect x="151.247" y="100.16" class="st0" width="3.012" height="0.5"/>
		<rect x="239.602" y="100.16" class="st0" width="3.012" height="0.5"/>
		<rect x="155.262" y="100.16" class="st0" width="3.013" height="0.5"/>
		<rect x="159.279" y="100.16" class="st0" width="3.012" height="0.5"/>
		<rect x="127.15" y="100.16" class="st0" width="3.012" height="0.5"/>
		<rect x="295.826" y="100.16" class="st0" width="3.014" height="0.5"/>
		<rect x="115.101" y="100.16" class="st0" width="3.013" height="0.5"/>
		<rect x="287.795" y="100.16" class="st0" width="3.012" height="0.5"/>
		<rect x="107.069" y="100.16" class="st0" width="3.013" height="0.5"/>
		<rect x="299.844" y="100.16" class="st0" width="3.012" height="0.5"/>
		<rect x="99.037" y="100.16" class="st0" width="3.013" height="0.5"/>
		<rect x="103.053" y="100.16" class="st0" width="3.012" height="0.5"/>
		<rect x="279.762" y="100.16" class="st0" width="3.014" height="0.5"/>
		<rect x="303.859" y="100.16" class="st0" width="3.012" height="0.5"/>
		<rect x="283.779" y="100.16" class="st0" width="3.012" height="0.5"/>
		<rect x="82.972" y="100.16" class="st0" width="3.013" height="0.5"/>
		<rect x="123.133" y="100.16" class="st0" width="3.013" height="0.5"/>
		<rect x="119.118" y="100.16" class="st0" width="3.012" height="0.5"/>
		<rect x="327.955" y="100.16" class="st0" width="3.014" height="0.5"/>
		<rect x="187.392" y="100.16" class="st0" width="3.012" height="0.5"/>
		<rect x="86.989" y="100.16" class="st0" width="3.012" height="0.5"/>
		<rect x="91.004" y="100.16" class="st0" width="3.013" height="0.5"/>
		<rect x="139.198" y="100.16" class="st0" width="3.013" height="0.5"/>
		<rect x="95.021" y="100.16" class="st0" width="3.012" height="0.5"/>
		<rect x="135.182" y="100.16" class="st0" width="3.012" height="0.5"/>
		<rect x="70.924" y="100.16" class="st0" width="3.012" height="0.5"/>
		<rect x="335.988" y="100.16" class="st0" width="3.012" height="0.5"/>
		<rect x="58.875" y="100.16" class="st0" width="3.012" height="0.5"/>
		<rect x="66.908" y="100.16" class="st0" width="3.012" height="0.5"/>
		<rect x="74.94" y="100.16" class="st0" width="3.013" height="0.5"/>
		<rect x="331.973" y="100.16" class="st0" width="3.012" height="0.5"/>
		<rect x="50.843" y="100.16" class="st0" width="3.012" height="0.5"/>
		<rect x="54.86" y="100.16" class="st0" width="3.012" height="0.5"/>
		<rect x="303.859" y="66.553" class="st0" width="3.012" height="0.5"/>
		<rect x="299.844" y="66.553" class="st0" width="3.012" height="0.5"/>
		<rect x="107.069" y="66.553" class="st0" width="3.013" height="0.5"/>
		<rect x="295.826" y="66.553" class="st0" width="3.014" height="0.5"/>
		<rect x="99.037" y="66.553" class="st0" width="3.013" height="0.5"/>
		<rect x="103.053" y="66.553" class="st0" width="3.012" height="0.5"/>
		<rect x="66.908" y="66.553" class="st0" width="3.012" height="0.5"/>
		<rect x="86.989" y="66.553" class="st0" width="3.012" height="0.5"/>
		<rect x="279.762" y="66.553" class="st0" width="3.014" height="0.5"/>
		<rect x="91.004" y="66.553" class="st0" width="3.013" height="0.5"/>
		<rect x="74.94" y="66.553" class="st0" width="3.013" height="0.5"/>
		<rect x="95.021" y="66.553" class="st0" width="3.012" height="0.5"/>
		<rect x="70.924" y="66.553" class="st0" width="3.012" height="0.5"/>
		<rect x="283.779" y="66.553" class="st0" width="3.012" height="0.5"/>
		<rect x="50.843" y="66.553" class="st0" width="3.012" height="0.5"/>
		<rect x="82.972" y="66.553" class="st0" width="3.013" height="0.5"/>
		<rect x="287.795" y="66.553" class="st0" width="3.012" height="0.5"/>
		<rect x="54.86" y="66.553" class="st0" width="3.012" height="0.5"/>
		<rect x="58.875" y="66.553" class="st0" width="3.012" height="0.5"/>
		<rect x="231.568" y="66.553" class="st0" width="3.014" height="0.5"/>
		<rect x="235.586" y="66.553" class="st0" width="3.012" height="0.5"/>
		<rect x="271.73" y="66.553" class="st0" width="3.012" height="0.5"/>
		<rect x="119.118" y="66.553" class="st0" width="3.012" height="0.5"/>
		<rect x="115.101" y="66.553" class="st0" width="3.013" height="0.5"/>
		<rect x="219.521" y="66.553" class="st0" width="3.012" height="0.5"/>
		<rect x="327.955" y="66.553" class="st0" width="3.014" height="0.5"/>
		<rect x="335.988" y="66.553" class="st0" width="3.012" height="0.5"/>
		<rect x="215.504" y="66.553" class="st0" width="3.014" height="0.5"/>
		<rect x="331.973" y="66.553" class="st0" width="3.012" height="0.5"/>
		<rect x="135.182" y="66.553" class="st0" width="3.012" height="0.5"/>
		<rect x="139.198" y="66.553" class="st0" width="3.013" height="0.5"/>
		<rect x="247.633" y="66.553" class="st0" width="3.014" height="0.5"/>
		<rect x="167.311" y="66.553" class="st0" width="3.012" height="0.5"/>
		<rect x="255.666" y="66.553" class="st0" width="3.012" height="0.5"/>
		<rect x="263.697" y="66.553" class="st0" width="3.014" height="0.5"/>
		<rect x="251.65" y="66.553" class="st0" width="3.012" height="0.5"/>
		<rect x="267.715" y="66.553" class="st0" width="3.012" height="0.5"/>
		<rect x="239.602" y="66.553" class="st0" width="3.012" height="0.5"/>
		<rect x="147.23" y="66.553" class="st0" width="3.013" height="0.5"/>
		<rect x="191.408" y="66.553" class="st0" width="3.013" height="0.5"/>
		<rect x="187.392" y="66.553" class="st0" width="3.012" height="0.5"/>
		<rect x="151.247" y="66.553" class="st0" width="3.012" height="0.5"/>
		<rect x="171.328" y="66.553" class="st0" width="3.012" height="0.5"/>
		<rect x="183.375" y="66.553" class="st0" width="3.013" height="0.5"/>
		<rect x="175.343" y="66.553" class="st0" width="3.012" height="0.5"/>
		<rect x="155.262" y="66.553" class="st0" width="3.013" height="0.5"/>
		<rect x="159.279" y="66.553" class="st0" width="3.012" height="0.5"/>
		<rect x="199.44" y="66.553" class="st0" width="3.013" height="0.5"/>
		<rect x="123.133" y="66.553" class="st0" width="3.013" height="0.5"/>
		<rect x="203.457" y="66.553" class="st0" width="3.012" height="0.5"/>
		<rect x="319.924" y="66.553" class="st0" width="3.012" height="0.5"/>
		<rect x="223.537" y="66.553" class="st0" width="3.012" height="0.5"/>
		<rect x="315.908" y="66.553" class="st0" width="3.012" height="0.5"/>
		<rect x="207.473" y="66.553" class="st0" width="3.012" height="0.5"/>
		<rect x="127.15" y="66.553" class="st0" width="3.012" height="0.5"/>
		<rect x="311.891" y="66.553" class="st0" width="3.014" height="0.5"/>
		<rect x="91.004" y="32.947" class="st0" width="3.013" height="0.5"/>
		<rect x="82.972" y="32.947" class="st0" width="3.013" height="0.5"/>
		<rect x="95.021" y="32.947" class="st0" width="3.012" height="0.5"/>
		<rect x="86.989" y="32.947" class="st0" width="3.012" height="0.5"/>
		<rect x="74.94" y="32.947" class="st0" width="3.013" height="0.5"/>
		<rect x="99.037" y="32.947" class="st0" width="3.013" height="0.5"/>
		<rect x="331.973" y="32.947" class="st0" width="3.012" height="0.5"/>
		<rect x="50.843" y="32.947" class="st0" width="3.012" height="0.5"/>
		<rect x="107.069" y="32.947" class="st0" width="3.013" height="0.5"/>
		<rect x="103.053" y="32.947" class="st0" width="3.012" height="0.5"/>
		<rect x="66.908" y="32.947" class="st0" width="3.012" height="0.5"/>
		<rect x="70.924" y="32.947" class="st0" width="3.012" height="0.5"/>
		<rect x="54.86" y="32.947" class="st0" width="3.012" height="0.5"/>
		<rect x="335.988" y="32.947" class="st0" width="3.012" height="0.5"/>
		<rect x="58.875" y="32.947" class="st0" width="3.012" height="0.5"/>
		<rect x="127.15" y="32.947" class="st0" width="3.012" height="0.5"/>
		<rect x="151.247" y="32.947" class="st0" width="3.012" height="0.5"/>
		<rect x="155.262" y="32.947" class="st0" width="3.013" height="0.5"/>
		<rect x="279.762" y="32.947" class="st0" width="3.014" height="0.5"/>
		<rect x="159.279" y="32.947" class="st0" width="3.012" height="0.5"/>
		<rect x="283.779" y="32.947" class="st0" width="3.012" height="0.5"/>
		<rect x="147.23" y="32.947" class="st0" width="3.013" height="0.5"/>
		<rect x="183.375" y="32.947" class="st0" width="3.013" height="0.5"/>
		<rect x="175.343" y="32.947" class="st0" width="3.012" height="0.5"/>
		<rect x="171.328" y="32.947" class="st0" width="3.012" height="0.5"/>
		<rect x="167.311" y="32.947" class="st0" width="3.012" height="0.5"/>
		<polygon class="st0" points="163.295,33.121 163.284,33.121 163.284,30.138 163.784,30.138 163.784,32.947 166.307,32.947 
			166.307,33.447 163.295,33.447 		"/>
		<rect x="287.795" y="32.947" class="st0" width="3.012" height="0.5"/>
		<polygon class="st0" points="131.166,33.121 130.815,33.121 130.815,30.138 131.315,30.138 131.315,32.947 134.178,32.947 
			134.178,33.447 131.166,33.447 		"/>
		<rect x="119.118" y="32.947" class="st0" width="3.012" height="0.5"/>
		<rect x="123.133" y="32.947" class="st0" width="3.013" height="0.5"/>
		<rect x="139.198" y="32.947" class="st0" width="3.013" height="0.5"/>
		<rect x="187.392" y="32.947" class="st0" width="3.012" height="0.5"/>
		<rect x="135.182" y="32.947" class="st0" width="3.012" height="0.5"/>
		<rect x="115.101" y="32.947" class="st0" width="3.013" height="0.5"/>
		<rect x="295.826" y="32.947" class="st0" width="3.014" height="0.5"/>
		<polygon class="st0" points="291.811,32.947 293.158,32.947 293.158,30.138 293.658,30.138 293.658,32.947 294.822,32.947 
			294.822,33.447 291.811,33.447 		"/>
		<rect x="303.859" y="32.947" class="st0" width="3.012" height="0.5"/>
		<rect x="299.844" y="32.947" class="st0" width="3.012" height="0.5"/>
		<rect x="207.473" y="32.947" class="st0" width="3.012" height="0.5"/>
		<rect x="263.697" y="32.947" class="st0" width="3.014" height="0.5"/>
		<rect x="247.633" y="32.947" class="st0" width="3.014" height="0.5"/>
		<rect x="255.666" y="32.947" class="st0" width="3.012" height="0.5"/>
		<rect x="267.715" y="32.947" class="st0" width="3.012" height="0.5"/>
		<rect x="251.65" y="32.947" class="st0" width="3.012" height="0.5"/>
		<polygon class="st0" points="259.682,32.947 260.689,32.947 260.689,30.138 261.189,30.138 261.189,32.947 262.693,32.947 
			262.693,33.447 259.682,33.447 		"/>
		<rect x="271.73" y="32.947" class="st0" width="3.012" height="0.5"/>
		<rect x="319.924" y="32.947" class="st0" width="3.012" height="0.5"/>
		<polygon class="st0" points="323.939,32.947 325.627,32.947 325.627,30.138 326.127,30.138 326.127,32.947 326.951,32.947 
			326.951,33.447 323.939,33.447 		"/>
		<rect x="315.908" y="32.947" class="st0" width="3.012" height="0.5"/>
		<rect x="311.891" y="32.947" class="st0" width="3.014" height="0.5"/>
		<polygon class="st0" points="195.424,32.947 195.751,32.947 195.751,30.138 196.251,30.138 196.251,32.947 198.436,32.947 
			198.436,33.447 195.424,33.447 		"/>
		<rect x="327.955" y="32.947" class="st0" width="3.014" height="0.5"/>
		<rect x="203.457" y="32.947" class="st0" width="3.012" height="0.5"/>
		<rect x="215.504" y="32.947" class="st0" width="3.014" height="0.5"/>
		<rect x="199.44" y="32.947" class="st0" width="3.013" height="0.5"/>
		<rect x="191.408" y="32.947" class="st0" width="3.013" height="0.5"/>
		<rect x="223.537" y="32.947" class="st0" width="3.012" height="0.5"/>
		<rect x="235.586" y="32.947" class="st0" width="3.012" height="0.5"/>
		<rect x="219.521" y="32.947" class="st0" width="3.012" height="0.5"/>
		<rect x="231.568" y="32.947" class="st0" width="3.014" height="0.5"/>
		<polygon class="st0" points="227.553,32.947 228.221,32.947 228.221,30.138 228.721,30.138 228.721,32.947 230.564,32.947 
			230.564,33.447 227.553,33.447 		"/>
		<rect x="239.602" y="32.947" class="st0" width="3.012" height="0.5"/>
	</g>
	<g id="regla">
		<g>
			
				<ellipse transform="matrix(-0.9948 -0.102 0.102 -0.9948 235.0535 318.7027)" class="st11" cx="125.674" cy="153.342" rx="4.39" ry="5.101"/>
			<rect x="83.285" y="14.758" class="st3" width="55" height="207.5"/>
			<rect x="83.285" y="14.758" class="st4" width="4.667" height="207.5"/>
			<rect x="135.285" y="14.758" class="st5" width="3" height="207.5"/>
			<rect x="116.285" y="210.016" class="st8" width="22" height="3.234"/>
			<rect x="124.962" y="200.016" class="st8" width="13.322" height="3.234"/>
			<rect x="124.962" y="190.016" class="st8" width="13.322" height="3.234"/>
			<rect x="124.962" y="170.016" class="st8" width="13.322" height="3.234"/>
			<rect x="124.962" y="160.016" class="st8" width="13.322" height="3.234"/>
			<rect x="124.962" y="140.016" class="st8" width="13.322" height="3.234"/>
			<rect x="124.962" y="130.016" class="st8" width="13.322" height="3.234"/>
			<rect x="116.285" y="120.016" class="st8" width="22" height="3.234"/>
			<rect x="124.962" y="110.016" class="st8" width="13.322" height="3.234"/>
			<rect x="124.962" y="100.016" class="st8" width="13.322" height="3.234"/>
			<rect x="124.962" y="80.016" class="st8" width="13.322" height="3.234"/>
			<rect x="124.962" y="70.016" class="st8" width="13.322" height="3.234"/>
			<rect x="124.962" y="50.016" class="st8" width="13.322" height="3.234"/>
			<rect x="124.962" y="40.016" class="st8" width="13.322" height="3.234"/>
			<rect x="116.285" y="180.016" class="st8" width="22" height="3.234"/>
			<rect x="116.285" y="150.016" class="st8" width="22" height="3.234"/>
			<rect x="116.285" y="90.016" class="st8" width="22" height="3.234"/>
			<rect x="116.285" y="60.016" class="st8" width="22" height="3.234"/>
			<rect x="116.285" y="30.016" class="st8" width="22" height="3.234"/>
		</g>
		<g>
			<rect x="83.74" y="166.75" class="st3" width="207.5" height="55"/>
			<rect x="83.74" y="217.084" class="st4" width="207.5" height="4.666"/>
			<rect x="83.74" y="166.75" class="st5" width="207.5" height="3"/>
			<rect x="92.748" y="166.75" class="st8" width="3.234" height="22"/>
			<rect x="102.748" y="166.75" class="st8" width="3.234" height="13.322"/>
			<rect x="112.748" y="166.75" class="st8" width="3.234" height="13.322"/>
			<rect x="132.748" y="166.75" class="st8" width="3.234" height="13.322"/>
			<rect x="142.748" y="166.75" class="st8" width="3.234" height="13.322"/>
			<rect x="162.748" y="166.75" class="st8" width="3.234" height="13.322"/>
			<rect x="172.748" y="166.75" class="st8" width="3.234" height="13.322"/>
			<rect x="182.748" y="166.75" class="st8" width="3.234" height="22"/>
			<rect x="192.748" y="166.75" class="st8" width="3.234" height="13.322"/>
			<rect x="202.748" y="166.75" class="st8" width="3.234" height="13.322"/>
			<rect x="222.748" y="166.75" class="st8" width="3.234" height="13.322"/>
			<rect x="232.748" y="166.75" class="st8" width="3.234" height="13.322"/>
			<rect x="252.748" y="166.75" class="st8" width="3.234" height="13.322"/>
			<rect x="262.748" y="166.75" class="st8" width="3.234" height="13.322"/>
			<rect x="122.748" y="166.75" class="st8" width="3.234" height="22"/>
			<rect x="152.748" y="166.75" class="st8" width="3.234" height="22"/>
			<rect x="212.748" y="166.75" class="st8" width="3.234" height="22"/>
			<rect x="242.748" y="166.75" class="st8" width="3.234" height="22"/>
			<rect x="272.748" y="166.75" class="st8" width="3.234" height="22"/>
		</g>
		<g>
			<circle class="st14" cx="123.013" cy="182.157" r="50.448"/>
			<path class="st12" d="M72.565,182.158c0-27.772,22.444-50.298,50.183-50.442v100.882
				C95.009,232.455,72.565,209.931,72.565,182.158z"/>
			<circle class="st6" cx="123.013" cy="182.158" r="45.278"/>
			<circle cx="123.013" cy="182.158" r="37.011"/>
			<circle class="st13" cx="123.013" cy="182.158" r="23.094"/>
			
				<ellipse transform="matrix(0.102 0.9948 -0.9948 0.102 317.6989 10.9575)" class="st11" cx="152.78" cy="181.447" rx="4.39" ry="5.101"/>
			<circle class="st11" cx="103.364" cy="202.634" r="2.618"/>
		</g>
	</g>
	<g id="amarillo_2_">
		<polygon class="st10" points="316.605,37.237 310.369,55.942 330.623,57.485 379.623,26.259 365.605,6.01 		"/>
		<path class="st9" d="M323.527,47.436c3.586,4.793,8.533,1.869,8.533,1.869l44.074-28.086l-7.02-10.138l-44.074,28.085
			C325.041,39.166,319.941,42.644,323.527,47.436z"/>
		<path class="st15" d="M325.041,39.166l44.074-28.085l-3.51-5.071L316.51,37.297C320.096,42.089,325.041,39.166,325.041,39.166z"/>
		<path class="st15" d="M332.061,49.305c0,0-5.1,3.478-1.514,8.27l49.096-31.288l-3.508-5.069L332.061,49.305z"/>
		<path class="st15" d="M319.836,56.512c-0.785-1.68-1.779-3.415-2.969-5.134c-1.068-1.545-2.213-2.953-3.385-4.201l-3.105,8.774
			L319.836,56.512z"/>
	</g>
	<g id="blanco">
		<polygon class="st10" points="43.07,193.524 60.186,216.745 69.932,189.727 47.218,26.506 20.357,30.306 		"/>
		<path class="st11" d="M56.544,191.804c6.465-1.271,6.161-6.204,6.161-6.204L40.533,27.451l-13.451,1.903l22.176,158.146
			C49.257,187.501,50.082,193.079,56.544,191.804z"/>
		<path class="st1" d="M49.257,187.501L27.082,29.354l-6.725,0.951l22.74,163.401C49.562,192.435,49.257,187.501,49.257,187.501z"/>
		<path class="st1" d="M62.706,185.6c0,0,0.825,5.578,7.29,4.302L47.257,26.5l-6.725,0.951L62.706,185.6z"/>
		<path class="st1" d="M64.582,204c-2.075-0.212-4.295-0.175-6.573,0.147c-2.051,0.289-3.987,0.79-5.764,1.453l7.956,11.143
			L64.582,204z"/>
	</g>
	<g id="texto">
		<path class="st7" d="M145.88,85.485h11.721c2.553,0,4.465,0.785,5.736,2.353c1.271,1.569,1.907,3.801,1.907,6.697
			c0,2.977-0.693,5.303-2.078,6.979c-1.385,1.676-3.5,2.514-6.343,2.514h-3.86v10.94h-7.082V85.485z M152.962,98.055h1.728
			c1.359,0,2.314-0.305,2.864-0.915c0.549-0.61,0.825-1.391,0.825-2.343c0-0.925-0.239-1.709-0.716-2.353
			c-0.477-0.644-1.375-0.965-2.692-0.965h-2.008V98.055z"/>
		<path class="st7" d="M169.025,114.968V85.485h11.752c2.18,0,3.845,0.242,4.997,0.724c1.152,0.483,2.081,1.377,2.786,2.685
			c0.706,1.308,1.059,2.899,1.059,4.777c0,1.636-0.27,3.046-0.81,4.233c-0.54,1.186-1.283,2.148-2.228,2.885
			c-0.602,0.47-1.428,0.859-2.476,1.167c0.839,0.363,1.452,0.725,1.835,1.087c0.259,0.241,0.635,0.758,1.128,1.55
			c0.493,0.792,0.822,1.402,0.988,1.831l3.415,8.543h-7.967l-3.769-9.01c-0.478-1.166-0.903-1.923-1.276-2.272
			c-0.509-0.456-1.085-0.684-1.728-0.684h-0.623v11.966H169.025z M176.108,97.432h2.973c0.321,0,0.944-0.134,1.867-0.403
			c0.467-0.121,0.849-0.429,1.145-0.925c0.295-0.496,0.443-1.066,0.443-1.709c0-0.952-0.233-1.683-0.7-2.192
			c-0.467-0.51-1.345-0.764-2.631-0.764h-3.097V97.432z"/>
		<path class="st7" d="M192.297,100.247c0-4.813,1.038-8.561,3.113-11.242c2.075-2.681,4.966-4.022,8.669-4.022
			c3.799,0,6.725,1.317,8.78,3.952c2.055,2.634,3.082,6.325,3.082,11.071c0,3.446-0.448,6.271-1.348,8.477
			c-0.896,2.206-2.194,3.922-3.89,5.148c-1.698,1.227-3.812,1.84-6.345,1.84c-2.573,0-4.702-0.529-6.389-1.589
			c-1.687-1.059-3.054-2.735-4.102-5.028C192.821,106.562,192.297,103.692,192.297,100.247z M199.348,100.287
			c0,2.977,0.43,5.115,1.285,6.416s2.021,1.951,3.494,1.951c1.515,0,2.687-0.636,3.518-1.911c0.83-1.273,1.246-3.56,1.246-6.858
			c0-2.775-0.434-4.803-1.3-6.083c-0.867-1.28-2.042-1.921-3.527-1.921c-1.422,0-2.562,0.65-3.425,1.951
			C199.779,95.132,199.348,97.284,199.348,100.287z"/>
		<path class="st7" d="M229.235,85.485h7.066v16.018c0,3.363-0.232,5.922-0.694,7.678s-1.389,3.242-2.784,4.461
			c-1.397,1.219-3.186,1.829-5.362,1.829c-2.306,0-4.091-0.402-5.355-1.207c-1.268-0.805-2.245-1.98-2.935-3.529
			c-0.69-1.548-1.098-3.462-1.222-5.742l6.74-1.187c0.011,1.301,0.098,2.266,0.264,2.896c0.167,0.63,0.446,1.14,0.84,1.528
			c0.271,0.255,0.655,0.382,1.154,0.382c0.788,0,1.367-0.378,1.735-1.135c0.367-0.757,0.553-2.033,0.553-3.828V85.485z"/>
		<path class="st7" d="M240.987,85.485h18.895v6.295h-11.828v4.686h10.973v6.013h-10.973v5.812h12.172v6.677h-19.238V85.485z"/>
		<path class="st7" d="M279.215,102.901l6.181,2.414c-0.416,2.239-1.069,4.109-1.962,5.611s-2.001,2.635-3.322,3.398
			c-1.323,0.765-3.009,1.146-5.053,1.146c-2.479,0-4.505-0.465-6.078-1.396c-1.572-0.932-2.929-2.569-4.069-4.914
			c-1.143-2.345-1.714-5.346-1.714-9.004c0-4.877,1.004-8.625,3.014-11.245c2.007-2.62,4.849-3.929,8.521-3.929
			c2.875,0,5.133,0.75,6.779,2.252c1.644,1.501,2.867,3.808,3.666,6.918l-6.227,1.79c-0.218-0.897-0.446-1.555-0.686-1.971
			c-0.395-0.697-0.878-1.233-1.448-1.609c-0.57-0.375-1.208-0.563-1.913-0.563c-1.599,0-2.824,0.831-3.673,2.491
			c-0.645,1.232-0.967,3.167-0.967,5.805c0,3.268,0.385,5.507,1.151,6.719c0.769,1.212,1.849,1.818,3.239,1.818
			c1.348,0,2.367-0.489,3.057-1.468C278.402,106.187,278.903,104.765,279.215,102.901z"/>
		<path class="st7" d="M287.218,85.485h21.434v7.28h-7.191v22.203h-7.052V92.766h-7.19V85.485z"/>
		<path class="st7" d="M310.612,105.214l6.708-0.543c0.146,1.407,0.441,2.48,0.888,3.217c0.728,1.194,1.764,1.791,3.113,1.791
			c1.006,0,1.783-0.305,2.327-0.915c0.545-0.61,0.816-1.317,0.816-2.122c0-0.765-0.259-1.448-0.776-2.052
			c-0.521-0.603-1.725-1.173-3.612-1.709c-3.092-0.898-5.297-2.092-6.616-3.58c-1.328-1.488-1.992-3.385-1.992-5.691
			c0-1.515,0.34-2.947,1.02-4.294c0.681-1.347,1.702-2.406,3.067-3.177s3.235-1.156,5.61-1.156c2.917,0,5.14,0.7,6.671,2.101
			c1.53,1.401,2.44,3.63,2.731,6.687l-6.646,0.503c-0.176-1.327-0.549-2.292-1.112-2.896c-0.566-0.604-1.348-0.905-2.343-0.905
			c-0.82,0-1.438,0.225-1.853,0.674c-0.416,0.45-0.623,0.996-0.623,1.639c0,0.469,0.173,0.892,0.515,1.267
			c0.33,0.389,1.121,0.751,2.366,1.086c3.08,0.858,5.288,1.727,6.623,2.604c1.332,0.878,2.303,1.968,2.91,3.268
			s0.91,2.755,0.91,4.364c0,1.89-0.405,3.633-1.215,5.229c-0.808,1.596-1.939,2.805-3.392,3.63
			c-1.454,0.824-3.285,1.236-5.495,1.236c-3.882,0-6.568-0.965-8.064-2.896C311.655,110.645,310.809,108.19,310.612,105.214z"/>
	</g>
</g>
</svg>
