<svg id="r" xmlns="http://www.w3.org/2000/svg" viewBox="0 0 256 256">
<path fill="#B4B6B9" d="M128,176.99c-47.86,0-86.658-25.891-86.658-57.83c0-31.938,38.798-57.829,86.658-57.829
	c47.859,0,86.658,25.891,86.658,57.829C214.658,151.1,175.859,176.99,128,176.99z M205.365,123.214
	c0-22.166-21.582-40.135-57.48-40.135c-44.339,0-72.521,17.969-72.521,40.135s26.996,40.134,72.521,40.134
	C183.783,163.348,205.365,145.38,205.365,123.214z"/>
<path fill="#2C64A9" d="M112.838,96.967c0,0,44.818,0,51.354,0c19.495,0,34.702,5.833,35.116,26.247
	c0.419,20.674-18.889,27.531-26.633,27.661c6.455,0.903,11.568,4.23,13.596,6.978c2.85,3.857,22.332,36.816,22.332,36.816h-33.486
	c0,0-15.72-30.03-16.996-32.504c-1.995-3.867-6.27-5.678-8.671-5.687s-5.161-0.012-6.956-0.049v38.239h-29.656V96.967z
	 M142.692,117.847v17.562c0,0,11.471-0.024,15.347,0.006c6.594,0.052,10.558-2.39,10.985-7.737c0.6-7.497-3.541-9.796-8.304-9.796
	C154.91,117.881,142.692,117.847,142.692,117.847z"/>
</svg>
