<svg id="sass" xmlns="http://www.w3.org/2000/svg" viewBox="0 0 256 256">
<path fill="#B6608A" d="M211.798,142.346c-8.069,0.043-15.06,1.981-20.923,4.868c-2.163-4.284-4.328-8.026-4.688-10.821
	c-0.408-3.248-0.903-5.23-0.408-9.108c0.496-3.878,2.752-9.378,2.752-9.83c-0.045-0.405-0.496-2.39-5.143-2.434
	c-4.644-0.045-8.654,0.902-9.105,2.119c-0.451,1.218-1.354,4.012-1.939,6.898c-0.812,4.238-9.287,19.255-14.113,27.143
	c-1.576-3.064-2.931-5.771-3.201-7.935c-0.404-3.246-0.901-5.229-0.404-9.106c0.495-3.879,2.751-9.379,2.751-9.83
	c-0.045-0.406-0.497-2.39-5.142-2.436c-4.646-0.045-8.655,0.902-9.107,2.12c-0.451,1.218-0.947,4.104-1.939,6.899
	c-0.945,2.795-12.218,27.865-15.149,34.403c-1.488,3.337-2.796,5.997-3.743,7.802c-0.947,1.803-0.045,0.135-0.135,0.314
	c-0.812,1.533-1.263,2.39-1.263,2.39v0.046c-0.631,1.127-1.308,2.207-1.623,2.207c-0.226,0-0.677-3.021,0.089-7.168
	c1.668-8.703,5.727-22.275,5.682-22.771c0-0.226,0.766-2.615-2.615-3.832c-3.292-1.218-4.464,0.812-4.735,0.812
	s-0.497,0.723-0.497,0.723s3.653-15.286-6.989-15.286c-6.673,0-15.872,7.26-20.426,13.889c-2.885,1.578-9.018,4.914-15.511,8.478
	c-2.479,1.354-5.05,2.795-7.484,4.103l-0.496-0.541c-12.896-13.752-36.749-23.492-35.757-41.979
	c0.361-6.718,2.706-24.438,45.812-45.902c35.306-17.585,63.579-12.76,68.492-2.029c6.989,15.331-15.104,43.827-51.809,47.931
	c-13.979,1.578-21.328-3.833-23.176-5.862c-1.938-2.12-2.209-2.209-2.931-1.804c-1.172,0.631-0.45,2.525,0,3.652
	c1.083,2.841,5.591,7.891,13.257,10.416c6.718,2.209,23.131,3.427,42.971-4.238c22.229-8.613,39.59-32.511,34.496-52.486
	c-5.187-20.335-38.916-27.009-70.793-15.691C67.87,55.229,47.31,65.78,32.52,79.623c-17.586,16.413-20.381,30.752-19.208,36.704
	c4.103,21.237,33.366,35.08,45.09,45.315c-0.586,0.314-1.127,0.631-1.624,0.902c-5.862,2.885-28.181,14.562-33.773,26.917
	c-6.312,13.979,0.992,24.033,5.862,25.388c15.061,4.193,30.481-3.336,38.823-15.735c8.297-12.4,7.305-28.498,3.472-35.847
	l-0.135-0.271l4.599-2.705c2.976-1.76,5.907-3.382,8.477-4.781c-1.442,3.924-2.479,8.568-3.02,15.331
	c-0.631,7.937,2.615,18.218,6.898,22.274c1.894,1.759,4.148,1.804,5.547,1.804c4.96,0,7.213-4.103,9.694-9.019
	c3.066-5.996,5.771-12.939,5.771-12.939s-3.381,18.803,5.862,18.803c3.381,0,6.763-4.373,8.296-6.629v0.045
	c0,0,0.09-0.136,0.27-0.451c0.361-0.539,0.542-0.856,0.542-0.856v-0.089c1.353-2.348,4.374-7.71,8.883-16.594
	c5.816-11.453,11.408-25.791,11.408-25.791s0.541,3.517,2.21,9.287c0.991,3.428,3.155,7.17,4.824,10.822
	c-1.354,1.895-2.165,2.977-2.165,2.977l0.044,0.045c-1.08,1.441-2.298,2.976-3.56,4.509c-4.602,5.5-10.103,11.769-10.821,13.571
	c-0.858,2.119-0.677,3.697,0.989,4.961c1.219,0.902,3.383,1.082,5.684,0.902c4.148-0.271,7.033-1.309,8.477-1.939
	c2.254-0.811,4.824-2.029,7.306-3.832c4.508-3.338,7.261-8.071,6.987-14.385c-0.135-3.473-1.262-6.897-2.66-10.146
	c0.406-0.585,0.812-1.173,1.219-1.803c7.124-10.418,12.625-21.87,12.625-21.87s0.541,3.518,2.209,9.289
	c0.857,2.931,2.57,6.132,4.104,9.287c-6.674,5.457-10.865,11.77-12.311,15.918c-2.66,7.665-0.585,11.138,3.338,11.947
	c1.758,0.36,4.284-0.449,6.178-1.263c2.344-0.766,5.187-2.073,7.801-4.012c4.509-3.337,8.838-7.981,8.61-14.248
	c-0.136-2.887-0.901-5.728-1.938-8.433c5.684-2.346,13.031-3.698,22.365-2.57c20.066,2.346,24.033,14.88,23.268,20.109
	s-4.959,8.115-6.357,9.018c-1.396,0.857-1.851,1.174-1.713,1.807c0.18,0.946,0.811,0.9,2.028,0.721
	c1.669-0.271,10.551-4.283,10.912-13.935C244.443,155.736,232.675,142.21,211.798,142.346L211.798,142.346z M57.047,194.514
	c-6.628,7.262-15.962,10.012-19.93,7.666c-4.283-2.479-2.615-13.166,5.546-20.878c4.96-4.688,11.408-9.018,15.646-11.678
	c0.947-0.586,2.39-1.442,4.103-2.479c0.271-0.181,0.451-0.271,0.451-0.271c0.316-0.183,0.677-0.406,1.038-0.632
	C66.922,177.244,64.036,186.895,57.047,194.514L57.047,194.514z M105.52,161.553c-2.3,5.637-7.169,20.11-10.1,19.299
	c-2.525-0.676-4.058-11.633-0.496-22.455c1.804-5.455,5.637-11.948,7.891-14.475c3.652-4.059,7.62-5.41,8.612-3.74
	C112.598,142.346,106.963,158.036,105.52,161.553z M145.516,180.672c-0.992,0.494-1.894,0.855-2.299,0.586
	c-0.316-0.182,0.405-0.857,0.405-0.857s5.005-5.366,6.987-7.844c1.129-1.445,2.479-3.113,3.924-5.008v0.541
	C154.533,174.584,148.312,178.913,145.516,180.672z M176.357,173.637c-0.724-0.541-0.633-2.21,1.803-7.439
	c0.947-2.073,3.111-5.545,6.854-8.838c0.451,1.354,0.721,2.66,0.676,3.879C185.646,169.354,179.875,172.375,176.357,173.637z"/>
</svg>
