<?xml version="1.0" encoding="utf-8"?>
<!-- Generator: Adobe Illustrator 15.0.0, SVG Export Plug-In . SVG Version: 6.00 Build 0)  -->
<!DOCTYPE svg PUBLIC "-//W3C//DTD SVG 1.1//EN" "http://www.w3.org/Graphics/SVG/1.1/DTD/svg11.dtd">
<svg version="1.1" id="svg-animate" xmlns="http://www.w3.org/2000/svg" xmlns:xlink="http://www.w3.org/1999/xlink" x="0px"
	 y="0px" width="174.492px" height="120px" viewBox="-399.5 300.5 174.492 120"
	 style="enable-background:new -399.5 300.5 174.492 120;" xml:space="preserve">
<symbol  id="submarine-icon" viewBox="-144.176 -46.411 143.043 99.499">
	<g id="submarine_3_">
		<path style="fill:#FFD600;" d="M-10.447,12.904c4.438-0.846,7.785-5.381,8.128-9.387c0.344-4.008-0.458-20.723-1.488-27.706
			c-0.354-2.403-0.343-11.22-19.921-12.594c-20.487-1.438-47.389-1.235-57.355,2.519c-8.815,3.32-4.923,11.793-6.87,11.679
			c-4.04-0.236-16.484,1.261-16.484,1.261v11.677c0,0,13.966,10.646,21.866,14.312c3.518,1.632,10.718,5.237,25.3,6.868
			C-39.114,13.561-13.114,13.412-10.447,12.904z"/>
		<g>
			<path style="fill:#B30C13;" d="M-113.538-13.416l0.841,0.574c0.373-0.859,0.838-1.476,1.403-1.476
				c0.679,0,1.214,0.882,1.615,2.019h2.264c0,0,0.361-0.225,0.361-3.02c0-2.793-0.361-3.154-0.361-3.154h-2.264
				c-0.401,1.135-0.937,2.02-1.615,2.02c-0.561,0-1.025-0.607-1.396-1.461l-0.833,0.574c-0.221,0.533-1.069,0.854-1.069,2.021
				C-114.593-14.17-113.756-13.913-113.538-13.416z"/>
			<path style="fill:#881418;" d="M-112.546-16.057c0.392,0.072,0.772,0.26,1.177,0.318c0.388,0.058,0.761,0.006,1.143-0.033
				c0.518-0.051,1.165-0.26,1.653-0.094c0.416,0.143,0.741,0.547,0.913,0.928c0.297,0.654,0.368,1.87,0.091,2.641h0.154
				c0,0,0.361-0.225,0.361-3.02c0-2.793-0.361-3.154-0.361-3.154h-2.264c-0.401,1.136-0.937,2.02-1.615,2.02
				c-0.561,0-1.025-0.607-1.396-1.461l-0.833,0.574c-0.159,0.387-0.645,0.658-0.902,1.222
				C-113.795-16.197-113.151-16.168-112.546-16.057z"/>
		</g>
		<g>
			<path style="fill:#B30C13;" d="M-104.287-32.105c-0.164,0.41-0.073,6.941-0.002,7.713c0.083,0.914,0.028,1.637,0.956,1.688
				c1.875,0.104,13.037-0.085,13.369-0.079v0.188c0,0-0.061,0.418,0.996,0.418c1.056,0,1.015-0.407,1.015-0.407
				s0.082-0.891-0.102-1.882s-1.536-6.689-1.694-7.266c-0.326-1.187-2.015-1.218-2.822-1.182
				C-93.379-32.877-104.141-32.473-104.287-32.105z"/>
			<path style="fill:#881418;" d="M-101.825-30.683c2.298-0.134,7.021-0.201,9.094,0.891c2.289,1.207,3.273,4.735,3.647,7.612
				c0.038,0.001,0.074,0.002,0.116,0.002c1.056,0,1.015-0.407,1.015-0.407s0.082-0.891-0.102-1.882s-1.536-6.689-1.694-7.266
				c-0.326-1.187-2.015-1.218-2.822-1.182c-0.808,0.036-11.569,0.439-11.716,0.809c-0.047,0.116-0.073,0.728-0.085,1.562
				C-103.366-30.599-102.493-30.644-101.825-30.683z"/>
		</g>
		<path style="fill:#FEB801;" d="M-107.415-19.953h3.012c0,0,0.375,2.025,0.375,4.637s-0.375,4.637-0.375,4.637h-3.012V-19.953z"/>
		<g>
			<path style="fill:#FEB801;" d="M-58.666,11.365L-58.666,11.365c-0.001,0,5.287,15.507,5.86,17.338
				c0.572,1.832,2.403,4.236,4.579,4.811c2.175,0.572,16.268,1.01,19.119,0c0.971-0.344,1.946-5.381,2.175-10.669
				c0.138-3.165,0.089-7.312,0.043-9.655c-9.312-0.133-20.913-0.599-30.382-1.656C-57.743,11.479-58.208,11.422-58.666,11.365z"/>
			<path style="fill:#F7DE6D;" d="M-48.227,33.512c2.175,0.572,16.268,1.01,19.119,0c0.553-0.195,1.105-1.913,1.523-4.33h-25.046
				C-51.917,30.931-50.217,32.988-48.227,33.512z"/>
		</g>
		<g>
			<path style="fill:#FEB801;" d="M-104.438-6.443c-0.458,1.145-1.604,14.77-1.489,15.455c0.115,0.688,10.646,0.572,11.563,0
				c0.69-0.434,3.273-5.494,4.548-8.443c-4.408-2.784-8.961-6.037-11.792-8.11C-102.992-7.287-104.245-6.926-104.438-6.443z"/>
			<path style="fill:#F7DE6D;" d="M-95.124,7.684c-0.884,0.516-10.005,0.447-10.754-0.133c-0.049,0.802-0.069,1.338-0.049,1.461
				c0.115,0.688,10.646,0.572,11.563,0c0.662-0.414,3.062-5.078,4.381-8.062C-91.66,3.814-94.492,7.316-95.124,7.684z"/>
		</g>
		<path style="fill:#B30C13;" d="M-2.306,3.352c0.246-0.064,0.447-0.156,0.56-0.293c0.573-0.687,0.687-7.557,0.573-10.646
			c-0.115-3.092-1.514-15.875-2.061-16.257c-0.184-0.128-0.373-0.212-0.562-0.269C-2.784-17.18-1.997-0.914-2.306,3.352z"/>
		<g>
			<path style="fill:#FFD600;" d="M-41.653,33.926h4.036c0,0-0.001,14.071,0,14.28c0.001,0.208,0.081,0.347,0.401,0.347
				c0.321,0,3.978,0,3.978,0v4.035h-5.456c-1.714,0-2.959-1.27-2.959-3.016V33.926z"/>
			<path style="fill:#FEB801;" d="M-37.981,49.92h4.743v-1.367c0,0-3.656,0-3.978,0c-0.32,0-0.4-0.139-0.401-0.347
				c-0.001-0.209,0-14.28,0-14.28h-1.338v14.667C-38.954,49.668-38.745,49.92-37.981,49.92z"/>
		</g>
		<path style="fill:#D38E05;" d="M-42.755,37.321h5.98l0.814-3.29c0,0-0.925-0.173-3.907-0.23c-3.213-0.064-3.702,0.084-3.702,0.084
			L-42.755,37.321z"/>
		<polygon style="fill:#B30C13;" points="-33.229,48.051 -30.94,48.051 -30.94,53.088 -33.229,53.088 		"/>
		<path style="fill:#A1DAE9;" d="M-30.94,52.879c0,0,0.812-0.574,0.812-2.314c0-1.742-0.812-2.315-0.812-2.315V52.879z"/>
		<g>
			<path style="fill:#B30C13;" d="M-113.538-13.416l0.841,0.574c0.373-0.859,0.838-1.476,1.403-1.476
				c0.679,0,1.214,0.882,1.615,2.019h2.264c0,0,0.361-0.225,0.361-3.02c0-2.793-0.361-3.154-0.361-3.154h-2.264
				c-0.401,1.135-0.937,2.02-1.615,2.02c-0.561,0-1.025-0.607-1.396-1.461l-0.833,0.574c-0.221,0.533-1.069,0.854-1.069,2.021
				C-114.593-14.17-113.756-13.913-113.538-13.416z"/>
			<path style="fill:#881418;" d="M-112.546-16.057c0.392,0.072,0.772,0.26,1.177,0.318c0.388,0.058,0.761,0.006,1.143-0.033
				c0.518-0.051,1.165-0.26,1.653-0.094c0.416,0.143,0.741,0.547,0.913,0.928c0.297,0.654,0.368,1.87,0.091,2.641h0.154
				c0,0,0.361-0.225,0.361-3.02c0-2.793-0.361-3.154-0.361-3.154h-2.264c-0.401,1.136-0.937,2.02-1.615,2.02
				c-0.561,0-1.025-0.607-1.396-1.461l-0.833,0.574c-0.159,0.387-0.645,0.658-0.902,1.222
				C-113.795-16.197-113.151-16.168-112.546-16.057z"/>
		</g>
		<g>
			<path style="fill:#B30C13;" d="M-104.287-32.105c-0.164,0.41-0.073,6.941-0.002,7.713c0.083,0.914,0.028,1.637,0.956,1.688
				c1.875,0.104,13.037-0.085,13.369-0.079v0.188c0,0-0.061,0.418,0.996,0.418c1.056,0,1.015-0.407,1.015-0.407
				s0.082-0.891-0.102-1.882s-1.536-6.689-1.694-7.266c-0.326-1.187-2.015-1.218-2.822-1.182
				C-93.379-32.877-104.141-32.473-104.287-32.105z"/>
			<path style="fill:#881418;" d="M-101.825-30.683c2.298-0.134,7.021-0.201,9.094,0.891c2.289,1.207,3.273,4.735,3.647,7.612
				c0.038,0.001,0.074,0.002,0.116,0.002c1.056,0,1.015-0.407,1.015-0.407s0.082-0.891-0.102-1.882s-1.536-6.689-1.694-7.266
				c-0.326-1.187-2.015-1.218-2.822-1.182c-0.808,0.036-11.569,0.439-11.716,0.809c-0.047,0.116-0.073,0.728-0.085,1.562
				C-103.366-30.599-102.493-30.644-101.825-30.683z"/>
		</g>
		<g>
			<path style="fill:#B30C13;" d="M-41.412-8.897c-0.212,7.229,5.477,13.265,12.707,13.479S-15.44-0.896-15.228-8.126
				c0.214-7.229-5.475-13.265-12.706-13.478S-41.198-16.127-41.412-8.897z"/>
			<path style="fill:#A1DAE9;" d="M-38.523-8.812c-0.167,5.637,4.267,10.338,9.902,10.504c5.637,0.166,10.339-4.268,10.505-9.902
				c0.165-5.637-4.269-10.338-9.904-10.504C-33.655-18.883-38.358-14.447-38.523-8.812z"/>
			<path style="fill:#5A7F87;" d="M-32.395-0.971c1.555,0.863,3.259,1.197,4.908,1.064c-1.252-0.031-2.515-0.354-3.687-1.001
				c-3.88-2.153-5.279-7.044-3.127-10.925s7.042-5.279,10.923-3.128c1.8,0.999,3.057,2.589,3.683,4.39
				c-0.541-2.308-2.017-4.387-4.253-5.627c-4.204-2.332-9.504-0.815-11.836,3.389C-38.117-8.604-36.599-3.304-32.395-0.971z"/>
			<path style="fill:#FFFFFF;" d="M-24.115-6.68c-0.043,1.488,0.853,2.725,2.001,2.757c1.147,0.034,2.114-1.146,2.158-2.634
				c0.044-1.49-0.852-2.723-2-2.758C-23.105-9.348-24.072-8.168-24.115-6.68z"/>
			<path style="fill:#FFFFFF;" d="M-24.78-2.42c-0.019,0.614,0.38,1.13,0.891,1.144c0.511,0.016,0.939-0.473,0.957-1.09
				c0.019-0.615-0.381-1.128-0.891-1.146C-24.333-3.525-24.762-3.037-24.78-2.42z"/>
		</g>
		<g>
			<path style="fill:#B30C13;" d="M-87.336-11.512c-0.135,4.595,3.479,8.428,8.073,8.562c4.593,0.135,8.426-3.479,8.561-8.074
				c0.136-4.592-3.479-8.426-8.071-8.562C-83.367-19.719-87.201-16.105-87.336-11.512z"/>
			<path style="fill:#A1DAE9;" d="M-85.501-11.459c-0.105,3.579,2.712,6.567,6.291,6.676c3.581,0.104,6.568-2.712,6.674-6.292
				s-2.712-6.568-6.292-6.674C-82.408-17.855-85.397-15.039-85.501-11.459z"/>
			<path style="fill:#5A7F87;" d="M-81.609-6.477c0.988,0.548,2.071,0.762,3.119,0.676c-0.796-0.019-1.598-0.223-2.341-0.636
				c-2.466-1.368-3.354-4.475-1.987-6.938c1.367-2.467,4.473-3.354,6.938-1.985c1.143,0.634,1.942,1.644,2.339,2.788
				c-0.343-1.467-1.281-2.787-2.701-3.575c-2.671-1.48-6.038-0.52-7.52,2.153C-85.242-11.326-84.28-7.959-81.609-6.477z"/>
			<path style="fill:#FFFFFF;" d="M-76.348-10.104c-0.028,0.946,0.54,1.73,1.271,1.751c0.73,0.022,1.344-0.728,1.371-1.673
				c0.029-0.945-0.54-1.729-1.271-1.75C-75.706-11.797-76.321-11.049-76.348-10.104z"/>
			<path style="fill:#FFFFFF;" d="M-76.77-7.398c-0.013,0.393,0.241,0.717,0.566,0.727c0.323,0.012,0.595-0.299,0.607-0.689
				c0.011-0.394-0.242-0.717-0.566-0.729C-76.487-8.1-76.758-7.791-76.77-7.398z"/>
		</g>
		<g>
			<path style="fill:#B30C13;" d="M-66.673-10.252c-0.171,5.784,4.38,10.611,10.166,10.782c5.784,0.169,10.61-4.381,10.78-10.166
				c0.171-5.783-4.38-10.609-10.165-10.779C-61.676-20.586-66.503-16.035-66.673-10.252z"/>
			<path style="fill:#A1DAE9;" d="M-64.364-10.184c-0.133,4.508,3.415,8.271,7.924,8.404c4.508,0.133,8.271-3.414,8.403-7.924
				c0.132-4.51-3.416-8.271-7.924-8.402C-60.468-18.238-64.23-14.691-64.364-10.184z"/>
			<path style="fill:#5A7F87;" d="M-59.459-3.911c1.244,0.688,2.605,0.958,3.926,0.854c-1.001-0.025-2.012-0.282-2.948-0.802
				c-3.104-1.723-4.224-5.635-2.503-8.739c1.723-3.104,5.635-4.224,8.738-2.503c1.439,0.799,2.446,2.071,2.946,3.512
				c-0.433-1.846-1.613-3.508-3.401-4.502c-3.365-1.863-7.604-0.649-9.47,2.714C-64.036-10.016-62.823-5.777-59.459-3.911z"/>
			<path style="fill:#FFFFFF;" d="M-52.836-8.479c-0.035,1.191,0.682,2.18,1.6,2.207c0.919,0.025,1.692-0.917,1.728-2.106
				c0.035-1.19-0.681-2.18-1.601-2.205C-52.028-10.611-52.8-9.668-52.836-8.479z"/>
			<path style="fill:#FFFFFF;" d="M-53.367-5.07c-0.015,0.492,0.304,0.902,0.714,0.916c0.407,0.011,0.75-0.379,0.764-0.873
				c0.015-0.493-0.305-0.902-0.713-0.915C-53.01-5.954-53.353-5.564-53.367-5.07z"/>
		</g>
		<g>
			<path style="fill:#B30C13;" d="M-36.991,14.656c-2.397,0.256-3.265,1.851-3.41,2.349c-0.274,0.938-0.374,4.188-0.103,5.69
				c0.19,1.052,0.354,2.972,2.996,3.934c2.201,0.799,8.284,0.771,10.193,0.738c0.301-1.387,0.554-3.057,0.622-4.627
				c0.104-2.419,0.026-5.575-0.167-7.637C-29.548,14.842-34.671,14.408-36.991,14.656z"/>
			<g>
				<path style="fill:#A1DAE9;" d="M-35.985,15.553c-2.159,0.225-2.94,1.612-3.072,2.049c-0.246,0.818-0.336,3.658-0.091,4.969
					c0.171,0.917,0.318,2.595,2.697,3.434c1.936,0.682,7.413,0.69,9.277,0.668c0.234-1.23,0.424-2.613,0.48-3.932
					c0.092-2.116,0.043-4.799-0.101-6.815C-29.253,15.693-33.931,15.341-35.985,15.553z"/>
			</g>
			<path style="fill:#5A7F87;" d="M-39.148,22.57c0.171,0.917,0.318,2.595,2.697,3.434c1.74,0.611,6.391,0.688,8.611,0.674
				c-2.193-0.029-6.376-0.229-7.912-0.793c-2.207-0.812-2.344-2.438-2.502-3.326c-0.228-1.271-0.145-4.023,0.084-4.817
				c0.123-0.421,0.847-1.769,2.85-1.983c1.438-0.154,4.398-0.115,6.699,0.012c-2.465-0.201-5.73-0.381-7.364-0.213
				c-2.159,0.225-2.94,1.613-3.072,2.049C-39.303,18.42-39.393,21.26-39.148,22.57z"/>
			<path style="fill:#FFFFFF;" d="M-29.328,23.732c-0.107,0.688,0.228,1.305,0.748,1.381s1.028-0.418,1.135-1.104
				c0.107-0.688-0.227-1.305-0.747-1.381C-28.712,22.554-29.222,23.047-29.328,23.732z"/>
			<path style="fill:#FFFFFF;" d="M-30.216,25.836c-0.032,0.204,0.09,0.393,0.272,0.42c0.184,0.025,0.357-0.117,0.39-0.322
				c0.031-0.203-0.091-0.391-0.272-0.418C-30.01,25.488-30.184,25.633-30.216,25.836z"/>
		</g>
		<g>
			<path style="fill:#B30C13;" d="M-52.784,20.369c-0.076,2.584,1.957,4.74,4.541,4.816s4.74-1.957,4.816-4.541
				s-1.957-4.74-4.541-4.816C-50.552,15.753-52.708,17.785-52.784,20.369z"/>
			<path style="fill:#A1DAE9;" d="M-51.752,20.398c-0.06,2.014,1.525,3.695,3.539,3.756c2.013,0.061,3.694-1.525,3.754-3.541
				c0.06-2.014-1.525-3.691-3.539-3.754C-50.013,16.801-51.694,18.385-51.752,20.398z"/>
			<path style="fill:#5A7F87;" d="M-49.561,23.201c0.555,0.311,1.163,0.43,1.752,0.382c-0.447-0.012-0.896-0.125-1.316-0.357
				c-1.387-0.77-1.886-2.519-1.117-3.903c0.769-1.387,2.516-1.887,3.903-1.116c0.643,0.355,1.093,0.925,1.315,1.567
				c-0.192-0.824-0.721-1.567-1.52-2.012c-1.503-0.834-3.396-0.291-4.229,1.212C-51.607,20.475-51.065,22.367-49.561,23.201z"/>
			<path style="fill:#FFFFFF;" d="M-46.603,21.161c-0.017,0.532,0.305,0.976,0.714,0.985c0.411,0.012,0.757-0.409,0.771-0.94
				c0.016-0.531-0.304-0.974-0.715-0.983C-46.241,20.207-46.587,20.629-46.603,21.161z"/>
			<path style="fill:#FFFFFF;" d="M-46.841,22.683c-0.007,0.221,0.137,0.404,0.318,0.409c0.184,0.006,0.336-0.169,0.343-0.391
				c0.006-0.221-0.137-0.401-0.319-0.407C-46.682,22.289-46.834,22.463-46.841,22.683z"/>
		</g>
		<g>
			<path style="fill:#D38E05;" d="M-41.773-29.189c0,0.906,0.735,1.642,1.641,1.642c0.906,0,1.642-0.733,1.642-1.642
				s-0.735-1.641-1.642-1.641C-41.037-30.83-41.773-30.096-41.773-29.189z"/>
			<path style="fill:#D38E05;" d="M-47.019-29.35c0,0.906,0.733,1.641,1.641,1.641c0.906,0,1.641-0.732,1.641-1.641
				s-0.734-1.641-1.641-1.641C-46.285-30.99-47.019-30.256-47.019-29.35z"/>
			<path style="fill:#D38E05;" d="M-44.463-25.545c0,0.905,0.734,1.642,1.642,1.642c0.906,0,1.641-0.734,1.641-1.642
				c0-0.906-0.734-1.642-1.641-1.642C-43.729-27.186-44.463-26.451-44.463-25.545z"/>
			<path style="fill:#D38E05;" d="M-69.96-24.031c0,0.905,0.734,1.642,1.641,1.642c0.907,0,1.641-0.733,1.641-1.642
				s-0.734-1.643-1.641-1.643C-69.226-25.673-69.96-24.938-69.96-24.031z"/>
			<path style="fill:#D38E05;" d="M-67.649-28.709c0,0.905,0.734,1.642,1.641,1.642c0.907,0,1.642-0.734,1.642-1.642
				c0-0.906-0.735-1.641-1.642-1.641C-66.915-30.349-67.649-29.615-67.649-28.709z"/>
			<path style="fill:#D38E05;" d="M-73.744-28.153c0,0.906,0.734,1.642,1.641,1.642c0.905,0,1.641-0.733,1.641-1.642
				c0-0.905-0.735-1.642-1.641-1.642C-73.01-29.794-73.744-29.059-73.744-28.153z"/>
		</g>
		<path style="fill:#FEB801;" d="M-69.845-32.114c11.23-0.532,19.425-0.287,29.37-0.269c3.766,0.01,16.706,0.396,20.152,3.507
			c2.624,2.364,4.437,5.554,5.337,10.104c0.883,4.455,1.33,15.01,1.27,19.217c-0.062,4.287-0.809,9.385-2.505,12.74
			c3.034-0.055,5.116-0.158,5.774-0.283c4.438-0.846,7.785-5.381,8.128-9.387c0.344-4.008-0.458-20.723-1.488-27.706
			c-0.354-2.403-0.343-11.22-19.921-12.594c-20.487-1.438-47.389-1.235-57.355,2.519c-2.027,0.765-4.505,2.67-5.381,4.793
			c0,0,0.621-0.668,1.692-1.232C-83.091-31.594-75.628-31.84-69.845-32.114z"/>
		<path style="fill:#F7DE6D;" d="M-58.035,6.318c-15.638-1.459-23.359-4.684-27.133-6.141c-5.655-2.188-14.207-7.152-19.27-10.215
			v0.389c0,0,13.966,10.646,21.866,14.311c3.518,1.633,10.718,5.238,25.3,6.869c18.157,2.029,44.158,1.881,46.825,1.373
			c3.845-0.73,6.869-4.232,7.832-7.762C-4.046,6.336-5.83,7.229-7.82,7.545C-10.679,7.999-38.564,8.132-58.035,6.318z"/>
		<g>
			<path style="fill:#FEB801;" d="M-59.265-32.723c0,0,29.219,0.616,33.799,0.939c4.582,0.32,8.399-1.963,8.431-7.312
				c0.03-5.35-4.77-7.413-8.431-7.312c-3.659,0.103-33.799,0.938-33.799,0.938c-7.18,0-12.054,2.315-12.054,6.372
				C-71.319-35.037-66.445-32.723-59.265-32.723z"/>
			<path style="fill:#D38E05;" d="M-28.039-31.908c1.142,0.045,2.032,0.086,2.573,0.125c4.582,0.32,8.399-1.963,8.431-7.312
				c0.03-5.35-4.77-7.413-8.431-7.312c-0.403,0.012-1.133,0.03-2.108,0.059c0.706,3.021,0.7,6.215,0.72,7.695
				C-26.834-36.99-27.453-33.715-28.039-31.908z"/>
			<path style="fill:#F7DE6D;" d="M-25.466-33.814c-4.58-0.289-33.799-0.844-33.799-0.844c-6.765,0-11.482-1.854-12.004-5.121
				c-0.032,0.223-0.05,0.449-0.05,0.684c0,4.061,4.874,6.373,12.054,6.373c0,0,29.219,0.616,33.799,0.939
				c4.582,0.32,8.399-1.963,8.431-7.312c0.001-0.237-0.01-0.469-0.027-0.692C-17.4-35.409-21.081-33.535-25.466-33.814z"/>
		</g>
		<g>
			<path style="fill:#D38E05;" d="M-60.351-43.906c0,0.473,0.383,0.855,0.855,0.855c0.474,0,0.857-0.385,0.857-0.855
				c0-0.476-0.384-0.857-0.857-0.857C-59.968-44.764-60.351-44.38-60.351-43.906z"/>
			<path style="fill:#D38E05;" d="M-35.83-44.334c0,0.474,0.383,0.854,0.857,0.854s0.856-0.383,0.856-0.854
				c0-0.476-0.383-0.856-0.856-0.856C-35.447-45.191-35.83-44.809-35.83-44.334z"/>
			<path style="fill:#D38E05;" d="M-40.538-44.334c0,0.474,0.385,0.854,0.856,0.854c0.474,0,0.857-0.383,0.857-0.854
				c0-0.476-0.384-0.856-0.857-0.856C-40.154-45.191-40.538-44.809-40.538-44.334z"/>
			<path style="fill:#D38E05;" d="M-55.904-43.906c0,0.473,0.384,0.855,0.857,0.855c0.472,0,0.856-0.385,0.856-0.855
				c0-0.476-0.385-0.857-0.856-0.857C-55.52-44.764-55.904-44.38-55.904-43.906z"/>
		</g>
		<path style="fill:#D38E05;" d="M-89.983-13.775c-0.008-1.844-6.373-1.394-7.87-1.312c-1.496,0.082-7.868,0.508-7.868,0.771
			c-0.002,0.265,5.676,1.268,7.868,1.438C-95.659-12.709-89.975-11.932-89.983-13.775z"/>
		<g>
			<path style="fill:#F7DE6D;" d="M-96.784-13.326c-2.193-0.17-8.938-0.726-8.937-0.988c-0.002,0.265,5.676,1.268,7.868,1.438
				c2.193,0.168,7.878,0.944,7.87-0.897c0-0.033-0.007-0.064-0.011-0.096C-91.064-12.82-94.909-13.182-96.784-13.326z"/>
			<path style="fill:#D38E05;" d="M-97.853-15.086c-1.496,0.081-7.868,0.507-7.868,0.771c-0.002,0.265,6.743,0.818,8.937,0.988
				c1.875,0.145,5.721,0.506,6.791-0.545C-90.22-15.602-96.382-15.166-97.853-15.086z"/>
		</g>
		<g>
			<path style="fill:#D38E05;" d="M-60.138-36.414c0,0.473,0.385,0.855,0.857,0.855c0.474,0,0.857-0.385,0.857-0.855
				c0-0.477-0.384-0.857-0.857-0.857C-59.753-37.271-60.138-36.889-60.138-36.414z"/>
			<path style="fill:#D38E05;" d="M-35.615-35.986c0,0.473,0.384,0.855,0.856,0.855s0.857-0.385,0.857-0.855
				c0-0.473-0.385-0.857-0.857-0.857S-35.615-36.459-35.615-35.986z"/>
			<path style="fill:#D38E05;" d="M-40.322-35.986c0,0.473,0.383,0.855,0.856,0.855s0.856-0.385,0.856-0.855
				c0-0.473-0.384-0.857-0.856-0.857C-39.94-36.844-40.322-36.459-40.322-35.986z"/>
			<path style="fill:#D38E05;" d="M-55.69-36.414c0,0.473,0.385,0.855,0.857,0.855c0.472,0,0.857-0.385,0.857-0.855
				c0-0.477-0.385-0.857-0.857-0.857C-55.305-37.271-55.69-36.889-55.69-36.414z"/>
		</g>
		<g>
			<path style="fill:#D38E05;" d="M-14.708-21.938c0.429-3.895,6.187-6.235,7.888-6.113c1.699,0.122,2.73,3.379,2.3,7.273
				c-0.428,3.896-2.154,6.955-3.855,6.834C-10.073-14.064-15.138-18.041-14.708-21.938z"/>
			<path style="fill:#F2EB6B;" d="M-8.085-21.464c0.429-3.895,1.265-6.587,1.265-6.587c1.699,0.122,2.73,3.379,2.3,7.273
				c-0.428,3.896-2.154,6.955-3.855,6.834C-8.374-13.944-8.513-17.568-8.085-21.464z"/>
			<path style="fill:#B30C13;" d="M-10.985-22.988c-0.474,2.162,0.628,4.085,1.04,4.641c-0.61,0.658-0.88,1.975-0.862,3.186
				c0.964,0.726,1.879,1.178,2.434,1.218l0,0c0-0.001-0.139-3.624,0.289-7.521c0.429-3.895,1.266-6.586,1.266-6.586l0,0
				c-0.576-0.041-1.618,0.201-2.76,0.689c0.229,0.758,0.496,1.188,0.496,1.188S-10.51-25.149-10.985-22.988z"/>
		</g>
	</g>
	<g id="propeller_3_">
		<g>
			<path style="fill:#DFA901;" d="M-113.858-23.34c0.098,0.935,0.802,6.889,2.563,6.889c1.763,0,2.563-5.949,2.563-6.889
				c0-0.938,0.93-7.98-2.563-7.98C-114.788-31.321-113.97-24.414-113.858-23.34z"/>
			<path style="fill:#FEB801;" d="M-113.013-24.294c0,0.938,0.402,7.932,1.719,7.842c1.779-0.121,2.477-5.953,2.564-6.889
				c0.239-2.521,0.33-7.557-2.201-7.954C-113.515-31.7-113.013-25.231-113.013-24.294z"/>
		</g>
		<g>
			<path style="fill:#FEB801;" d="M-108.78-7.428c-0.098-0.933-0.801-6.887-2.563-6.887s-2.562,5.949-2.562,6.887
				c0,0.938-0.93,7.982,2.562,7.982C-107.85,0.555-108.667-6.354-108.78-7.428z"/>
			<path style="fill:#FFD600;" d="M-109.622-6.475c0-0.938-0.403-7.931-1.721-7.84c-1.778,0.121-2.475,5.953-2.563,6.887
				c-0.24,2.521-0.33,7.559,2.201,7.955C-109.121,0.933-109.622-5.535-109.622-6.475z"/>
		</g>
	</g>
	<g id="bubbles_3_">
		<g>
			<path style="fill:#74C6ED;" d="M-117.796-11.576c0,0.229,0.188,0.418,0.419,0.418c0.23,0,0.418-0.188,0.418-0.418
				c0-0.23-0.188-0.418-0.418-0.418C-117.609-11.994-117.796-11.807-117.796-11.576z"/>
			<path style="fill:#FFFFFF;" d="M-117.221-11.63c0,0.07,0.045,0.131,0.1,0.131c0.055,0,0.1-0.061,0.1-0.131
				s-0.045-0.131-0.1-0.131C-117.176-11.76-117.221-11.701-117.221-11.63z"/>
			<path style="fill:#FFFFFF;" d="M-117.322-11.365c0,0.049,0.033,0.086,0.073,0.086c0.039,0,0.072-0.037,0.072-0.086
				c0-0.047-0.033-0.086-0.072-0.086C-117.289-11.451-117.322-11.412-117.322-11.365z"/>
		</g>
		<g>
			<path style="fill:#74C6ED;" d="M-123.283-13.355c0,0.59,0.478,1.066,1.066,1.066s1.065-0.479,1.065-1.066
				s-0.478-1.066-1.065-1.066C-122.806-14.422-123.283-13.943-123.283-13.355z"/>
			<path style="fill:#FFFFFF;" d="M-121.82-13.493c0,0.183,0.114,0.331,0.255,0.331c0.141,0,0.255-0.148,0.255-0.331
				c0-0.184-0.114-0.33-0.255-0.33C-121.706-13.823-121.82-13.675-121.82-13.493z"/>
			<path style="fill:#FFFFFF;" d="M-122.076-12.818c0,0.122,0.083,0.221,0.185,0.221s0.185-0.099,0.185-0.221
				c0-0.121-0.083-0.22-0.185-0.22S-122.076-12.939-122.076-12.818z"/>
		</g>
		<g>
			<path style="fill:#74C6ED;" d="M-132.058-18.572c0,0.59,0.478,1.064,1.066,1.064s1.065-0.477,1.065-1.064
				s-0.477-1.065-1.065-1.065S-132.058-19.16-132.058-18.572z"/>
			<path style="fill:#FFFFFF;" d="M-130.595-18.709c0,0.183,0.115,0.329,0.256,0.329c0.14,0,0.255-0.146,0.255-0.329
				c0-0.184-0.115-0.329-0.255-0.329C-130.48-19.039-130.595-18.892-130.595-18.709z"/>
			<path style="fill:#FFFFFF;" d="M-130.851-18.035c0,0.122,0.083,0.221,0.186,0.221c0.101,0,0.183-0.099,0.183-0.221
				c0-0.12-0.082-0.221-0.183-0.221C-130.768-18.253-130.851-18.155-130.851-18.035z"/>
		</g>
		<g>
			<path style="fill:#74C6ED;" d="M-117.141-17.924c0,0.23,0.188,0.418,0.419,0.418s0.418-0.188,0.418-0.418
				c0-0.229-0.188-0.418-0.418-0.418S-117.141-18.154-117.141-17.924z"/>
			<path style="fill:#FFFFFF;" d="M-116.566-17.978c0,0.071,0.044,0.13,0.1,0.13c0.055,0,0.1-0.059,0.1-0.13s-0.045-0.13-0.1-0.13
				C-116.522-18.107-116.566-18.049-116.566-17.978z"/>
			<path style="fill:#FFFFFF;" d="M-116.666-17.713c0,0.049,0.032,0.087,0.072,0.087s0.071-0.038,0.071-0.087
				c0-0.047-0.031-0.086-0.071-0.086S-116.666-17.76-116.666-17.713z"/>
		</g>
		<g>
			<path style="fill:#74C6ED;" d="M-123.942-16.847c0,0.364,0.295,0.657,0.658,0.657c0.363,0,0.657-0.293,0.657-0.657
				c0-0.363-0.294-0.658-0.657-0.658C-123.647-17.505-123.942-17.211-123.942-16.847z"/>
			<path style="fill:#FFFFFF;" d="M-123.037-16.932c0,0.113,0.07,0.204,0.157,0.204c0.086,0,0.157-0.091,0.157-0.204
				c0-0.112-0.071-0.205-0.157-0.205C-122.967-17.137-123.037-17.045-123.037-16.932z"/>
			<path style="fill:#FFFFFF;" d="M-123.197-16.516c0,0.076,0.051,0.138,0.114,0.138c0.062,0,0.113-0.062,0.113-0.138
				c0-0.074-0.051-0.137-0.113-0.137C-123.146-16.652-123.197-16.59-123.197-16.516z"/>
		</g>
		<g>
			<path style="fill:#74C6ED;" d="M-132.309-12.818c0,0.23,0.188,0.419,0.418,0.419s0.418-0.188,0.418-0.419
				c0-0.229-0.188-0.417-0.418-0.417S-132.309-13.048-132.309-12.818z"/>
			<path style="fill:#FFFFFF;" d="M-131.735-12.871c0,0.069,0.044,0.129,0.1,0.129c0.055,0,0.1-0.06,0.1-0.129
				c0-0.072-0.045-0.132-0.1-0.132C-131.691-13.002-131.735-12.943-131.735-12.871z"/>
			<path style="fill:#FFFFFF;" d="M-131.836-12.607c0,0.049,0.032,0.087,0.072,0.087s0.073-0.038,0.073-0.087
				c0-0.047-0.033-0.086-0.073-0.086S-131.836-12.654-131.836-12.607z"/>
		</g>
		<g>
			<path style="fill:#74C6ED;" d="M-119.57-15.89c0,0.382,0.31,0.69,0.691,0.69c0.381,0,0.69-0.311,0.69-0.69s-0.309-0.69-0.69-0.69
				C-119.26-16.581-119.57-16.271-119.57-15.89z"/>
			<path style="fill:#FFFFFF;" d="M-118.62-15.979c0,0.117,0.074,0.213,0.165,0.213c0.091,0,0.165-0.096,0.165-0.213
				c0-0.119-0.074-0.215-0.165-0.215C-118.546-16.193-118.62-16.098-118.62-15.979z"/>
			<path style="fill:#FFFFFF;" d="M-118.786-15.541c0,0.076,0.053,0.143,0.119,0.143c0.065,0,0.12-0.064,0.12-0.143
				c0-0.08-0.055-0.146-0.12-0.146C-118.734-15.686-118.786-15.621-118.786-15.541z"/>
		</g>
		<g>
			<path style="fill:#74C6ED;" d="M-127.263-9.713c0,0.271,0.218,0.488,0.486,0.488c0.27,0,0.487-0.219,0.487-0.488
				c0-0.269-0.218-0.484-0.487-0.484C-127.045-10.199-127.263-9.981-127.263-9.713z"/>
			<path style="fill:#FFFFFF;" d="M-126.594-9.775c0,0.084,0.052,0.149,0.116,0.149c0.063,0,0.116-0.065,0.116-0.149
				c0-0.083-0.053-0.15-0.116-0.15C-126.542-9.926-126.594-9.858-126.594-9.775z"/>
			<path style="fill:#FFFFFF;" d="M-126.711-9.467c0,0.057,0.037,0.103,0.084,0.103c0.046,0,0.084-0.046,0.084-0.103
				c0-0.056-0.038-0.102-0.084-0.102C-126.674-9.568-126.711-9.522-126.711-9.467z"/>
		</g>
		<g>
			<path style="fill:#74C6ED;" d="M-137.511-11.159c0,0.687,0.558,1.24,1.243,1.24c0.687,0,1.242-0.556,1.242-1.24
				c0-0.688-0.556-1.243-1.242-1.243C-136.953-12.402-137.511-11.846-137.511-11.159z"/>
			<path style="fill:#FFFFFF;" d="M-135.805-11.32c0,0.213,0.134,0.387,0.298,0.387c0.163,0,0.297-0.174,0.297-0.387
				c0-0.211-0.134-0.385-0.297-0.385C-135.671-11.705-135.805-11.531-135.805-11.32z"/>
			<path style="fill:#FFFFFF;" d="M-136.103-10.533c0,0.141,0.096,0.258,0.214,0.258s0.215-0.117,0.215-0.258
				c0-0.143-0.097-0.256-0.215-0.256S-136.103-10.674-136.103-10.533z"/>
		</g>
		<g>
			<path style="fill:#74C6ED;" d="M-141.935-15.617c0,0.687,0.558,1.241,1.243,1.241s1.242-0.557,1.242-1.241
				c0-0.688-0.557-1.242-1.242-1.242S-141.935-16.303-141.935-15.617z"/>
			<path style="fill:#FFFFFF;" d="M-140.229-15.777c0,0.213,0.134,0.385,0.298,0.385s0.296-0.172,0.296-0.385
				s-0.132-0.385-0.296-0.385S-140.229-15.99-140.229-15.777z"/>
			<path style="fill:#FFFFFF;" d="M-140.528-14.992c0,0.143,0.098,0.258,0.215,0.258c0.118,0,0.215-0.115,0.215-0.258
				c0-0.142-0.097-0.256-0.215-0.256C-140.43-15.248-140.528-15.132-140.528-14.992z"/>
		</g>
		<g>
			<path style="fill:#74C6ED;" d="M-126.084-20.003c0,0.271,0.217,0.485,0.485,0.485c0.271,0,0.488-0.217,0.488-0.485
				c0-0.27-0.218-0.486-0.488-0.486C-125.867-20.491-126.084-20.273-126.084-20.003z"/>
			<path style="fill:#FFFFFF;" d="M-125.415-20.066c0,0.082,0.052,0.15,0.116,0.15c0.063,0,0.116-0.068,0.116-0.15
				c0-0.084-0.053-0.152-0.116-0.152C-125.364-20.219-125.415-20.15-125.415-20.066z"/>
			<path style="fill:#FFFFFF;" d="M-125.533-19.758c0,0.057,0.038,0.102,0.085,0.102c0.046,0,0.084-0.045,0.084-0.102
				s-0.038-0.102-0.084-0.102C-125.495-19.859-125.533-19.814-125.533-19.758z"/>
		</g>
		<g>
			<path style="fill:#74C6ED;" d="M-134.425-15.855c0,0.424,0.344,0.767,0.767,0.767c0.424,0,0.767-0.343,0.767-0.767
				c0-0.423-0.343-0.767-0.767-0.767C-134.081-16.622-134.425-16.278-134.425-15.855z"/>
			<path style="fill:#FFFFFF;" d="M-133.372-15.954c0,0.132,0.082,0.236,0.184,0.236c0.1,0,0.183-0.104,0.183-0.236
				c0-0.134-0.083-0.237-0.183-0.237C-133.29-16.191-133.372-16.086-133.372-15.954z"/>
			<path style="fill:#FFFFFF;" d="M-133.557-15.469c0,0.088,0.06,0.158,0.133,0.158c0.072,0,0.132-0.07,0.132-0.158
				s-0.06-0.157-0.132-0.157C-133.497-15.627-133.557-15.557-133.557-15.469z"/>
		</g>
		<g>
			<path style="fill:#74C6ED;" d="M-144.176-11.159c0,0.269,0.218,0.485,0.487,0.485c0.269,0,0.486-0.219,0.486-0.485
				c0-0.27-0.218-0.487-0.486-0.487C-143.958-11.646-144.176-11.428-144.176-11.159z"/>
			<path style="fill:#FFFFFF;" d="M-143.508-11.223c0,0.084,0.053,0.151,0.116,0.151c0.065,0,0.117-0.067,0.117-0.151
				c0-0.083-0.052-0.148-0.117-0.148C-143.455-11.373-143.508-11.306-143.508-11.223z"/>
			<path style="fill:#FFFFFF;" d="M-143.624-10.914c0,0.056,0.038,0.1,0.084,0.1c0.046,0,0.084-0.044,0.084-0.1
				c0-0.058-0.038-0.104-0.084-0.104C-143.586-11.017-143.624-10.97-143.624-10.914z"/>
		</g>
		<g>
			<path style="fill:#74C6ED;" d="M-129.33-14.74c0,0.443,0.36,0.805,0.806,0.805c0.444,0,0.805-0.358,0.805-0.805
				c0-0.444-0.36-0.807-0.805-0.807C-128.97-15.545-129.33-15.185-129.33-14.74z"/>
			<path style="fill:#FFFFFF;" d="M-128.224-14.844c0,0.139,0.087,0.249,0.191,0.249c0.107,0,0.193-0.11,0.193-0.249
				s-0.086-0.25-0.193-0.25C-128.137-15.094-128.224-14.982-128.224-14.844z"/>
			<path style="fill:#FFFFFF;" d="M-128.418-14.334c0,0.093,0.062,0.166,0.14,0.166c0.076,0,0.139-0.073,0.139-0.166
				s-0.062-0.168-0.139-0.168C-128.356-14.502-128.418-14.426-128.418-14.334z"/>
		</g>
	</g>
</symbol>
<use xlink:href="#submarine-icon"  width="143.043" height="99.499" id="XMLID_1_" x="-144.176" y="-46.411" transform="matrix(1 0 0 -1 -239.5989 363.8379)" style="overflow:visible;"/>
</svg>
